<svg width="45" height="35" viewBox="0 0 45 35" fill="none" xmlns="http://www.w3.org/2000/svg">
<path d="M24.8774 0H44.9933V17.2865C44.9933 20.16 44.4771 22.5449 43.4448 24.4482C42.411 26.3487 41.0723 27.9262 39.4257 29.1877C37.7792 30.4409 35.9477 31.4525 33.9258 32.2171C31.9052 32.9804 29.9067 33.6594 27.9317 34.2584L24.9672 28.873C26.4646 28.3044 27.744 27.7275 28.8054 27.1423C29.8681 26.5598 30.7376 25.9236 31.4098 25.2363C32.0847 24.5434 32.5774 23.7595 32.892 22.8776C33.2067 21.9956 33.3627 20.9522 33.3627 19.7584H24.8761V0H24.8774ZM0.00277987 0H20.0731V17.2865C20.0731 20.16 19.5569 22.5449 18.5246 24.4482C17.4922 26.3487 16.1603 27.9262 14.5276 29.1877C12.8962 30.4409 11.0703 31.4525 9.05112 32.2171C7.03057 32.9804 5.03209 33.6594 3.05708 34.2584L0.0469419 28.873C1.54442 28.3044 2.82382 27.7275 3.88516 27.1423C4.94927 26.5598 5.8174 25.9236 6.48954 25.2363C7.16444 24.5434 7.65714 23.7595 7.97182 22.8776C8.2865 21.9956 8.44246 20.9522 8.44246 19.7584H0V0H0.00277987Z" fill="white"/>
</svg>
