<svg width="45" height="35" viewBox="0 0 45 35" fill="none" xmlns="http://www.w3.org/2000/svg">
<path d="M20.1159 34.2598H0V16.9719C0 14.097 0.516183 11.7121 1.54854 9.81019C2.58229 7.9097 3.92105 6.3308 5.56758 5.07071C7.21412 3.81614 9.04558 2.80449 11.0675 2.04126C13.0881 1.27803 15.0866 0.59761 17.0616 0L20.0262 5.38677C18.5287 5.9554 17.2493 6.53093 16.1879 7.11612C15.1238 7.69992 14.2557 8.33617 13.5836 9.02349C12.9087 9.71496 12.4159 10.5003 12.1013 11.3808C11.7866 12.2641 11.6306 13.3061 11.6306 14.5014H20.1173V34.2598H20.1159ZM44.9919 34.2598H24.9216V16.9719C24.9216 14.097 25.4378 11.7121 26.4701 9.81019C27.5025 7.9097 28.8344 6.3308 30.4671 5.07071C32.0984 3.81614 33.9244 2.80449 35.9436 2.04126C37.9641 1.27803 39.9626 0.59761 41.9376 0L44.9478 5.38677C43.4503 5.9554 42.1709 6.53093 41.1095 7.11612C40.0454 7.69992 39.1773 8.33617 38.5052 9.02349C37.8303 9.71496 37.3375 10.5003 37.0229 11.3808C36.7082 12.2641 36.5522 13.3061 36.5522 14.5014H44.9947V34.2598H44.9919Z" fill="white"/>
</svg>
