<svg width="14" height="14" viewBox="0 0 14 14" fill="none" xmlns="http://www.w3.org/2000/svg">
<path d="M12.3594 0H5.90625C5.00161 0 4.26562 0.735984 4.26562 1.64062V3.28125H5.35938V1.64062C5.35938 1.33908 5.6047 1.09375 5.90625 1.09375H12.3594C12.6609 1.09375 12.9062 1.33908 12.9062 1.64062V7.98438C12.9062 8.28592 12.6609 8.53125 12.3594 8.53125H10.8281V9.625H12.3594C13.264 9.625 14 8.88902 14 7.98438V1.64062C14 0.735984 13.264 0 12.3594 0ZM8.09375 4.375H1.64062C0.735984 4.375 0 5.11098 0 6.01562V12.3594C0 13.264 0.735984 14 1.64062 14H8.09375C8.99839 14 9.73438 13.264 9.73438 12.3594V6.01562C9.73438 5.11098 8.99839 4.375 8.09375 4.375ZM8.64062 12.3594C8.64062 12.6609 8.3953 12.9062 8.09375 12.9062H1.64062C1.33908 12.9062 1.09375 12.6609 1.09375 12.3594V6.01562C1.09375 5.71408 1.33908 5.46875 1.64062 5.46875H8.09375C8.3953 5.46875 8.64062 5.71408 8.64062 6.01562V12.3594Z" fill="#FF9F00"/>
</svg>
