<svg width="239" height="219" viewBox="0 0 239 219" fill="none" xmlns="http://www.w3.org/2000/svg">
<path d="M225.413 163.382L217.847 163.544L214.006 163.607C212.72 163.636 211.428 163.607 210.142 163.642H209.888V163.382L209.853 156.911V156.623H210.142L217.777 156.658C220.326 156.658 222.87 156.721 225.413 156.75H225.574V156.911C225.574 158.007 225.523 159.097 225.5 160.176L225.413 163.382ZM225.413 163.382L225.332 160.124C225.332 159.051 225.269 157.99 225.257 156.929L225.413 157.09C222.87 157.119 220.326 157.182 217.777 157.182L210.142 157.217L210.43 156.929L210.401 163.382L210.142 163.128C211.399 163.128 212.656 163.128 213.919 163.157L217.714 163.226L225.413 163.382Z" fill="#EBEBEB"/>
<path d="M216.895 171.519L209.328 171.681L205.488 171.744C204.201 171.744 202.91 171.744 201.624 171.779H201.393V171.519L201.358 165.066V164.777H201.647L209.282 164.818C211.831 164.818 214.375 164.881 216.918 164.91H217.079V165.066C217.079 166.162 217.033 167.252 217.004 168.33L216.895 171.519ZM216.895 171.519L216.814 168.261C216.785 167.188 216.751 166.127 216.739 165.066L216.895 165.227C214.352 165.256 211.808 165.32 209.259 165.32L201.624 165.354L201.912 165.066V171.519L201.652 171.265C202.91 171.265 204.167 171.265 205.43 171.294L209.225 171.364L216.895 171.519Z" fill="#EBEBEB"/>
<path d="M233.937 171.519L226.365 171.681L222.524 171.744C221.238 171.744 219.952 171.744 218.665 171.779H218.406V171.519L218.377 165.066V164.777H218.694L226.33 164.818C228.873 164.818 231.417 164.881 233.966 164.91H234.121V165.066C234.121 166.162 234.069 167.252 234.046 168.33L233.937 171.519ZM233.937 171.519L233.85 168.261C233.85 167.188 233.787 166.127 233.775 165.066L233.937 165.227C231.388 165.256 228.844 165.32 226.301 165.32L218.665 165.354L218.948 165.066L218.919 171.519L218.665 171.265C219.923 171.265 221.174 171.265 222.437 171.294L226.232 171.364L233.937 171.519Z" fill="#EBEBEB"/>
<path d="M28.8586 163.382L21.2864 163.544L17.4455 163.607C16.1652 163.636 14.8734 163.607 13.5873 163.642H13.3278V163.382L13.299 156.911V156.623H13.5931L21.2287 156.658C23.772 156.658 26.3153 156.721 28.8643 156.75H29.0201V156.911C29.0201 158.007 28.9682 159.097 28.9451 160.176L28.8586 163.382ZM28.8586 163.382L28.7778 160.124C28.7778 159.051 28.7086 157.99 28.6971 156.929L28.8586 157.09C26.3095 157.119 23.7662 157.182 21.2229 157.182L13.5873 157.217L13.8757 156.929L13.8411 163.382L13.5873 163.128C14.8445 163.128 16.096 163.128 17.359 163.157L21.1537 163.226L28.8586 163.382Z" fill="#EBEBEB"/>
<path d="M20.3408 171.519L12.7686 171.681L8.9277 171.744C7.64164 171.744 6.35557 171.744 5.06374 171.779H4.80999V171.519L4.78116 165.066V164.777H5.06951L12.7051 164.818C15.2542 164.818 17.7975 164.881 20.3466 164.91H20.5023V165.066C20.5023 166.162 20.4504 167.252 20.4273 168.33L20.3408 171.519ZM20.3408 171.519L20.2543 168.261C20.2543 167.188 20.1908 166.127 20.1793 165.066L20.3408 165.227C17.7917 165.256 15.2484 165.32 12.6994 165.32L5.06374 165.354L5.3521 165.066V171.519L5.09258 171.265C6.35557 171.265 7.60703 171.265 8.87003 171.294L12.6648 171.364L20.3408 171.519Z" fill="#EBEBEB"/>
<path d="M157.177 71.4081L149.605 71.558L145.764 71.6215C144.483 71.6215 143.192 71.6215 141.905 71.6503H141.646V71.3908V64.9374V64.6491H141.94L149.576 64.6837C152.119 64.6837 154.662 64.7471 157.211 64.7759H157.367V64.9316C157.367 66.0274 157.315 67.1116 157.292 68.1901L157.177 71.4081ZM157.177 71.4081L157.09 68.1439C157.09 67.0712 157.027 66.0101 157.015 64.9547L157.177 65.1104C154.628 65.1393 152.084 65.2027 149.541 65.2027L141.905 65.2431L142.194 64.9547L142.159 71.4081L141.905 71.1486C143.163 71.1486 144.414 71.1486 145.677 71.1832L149.472 71.2466L157.177 71.4081Z" fill="#EBEBEB"/>
<path d="M148.653 79.5457L141.087 79.7071L137.246 79.7706C135.96 79.7706 134.674 79.7706 133.382 79.7706H133.128V79.5111L133.093 73.0577V72.7635H133.382L141.017 72.7982C143.566 72.7982 146.11 72.8616 148.653 72.8904H148.814V73.0461C148.814 74.1419 148.763 75.2261 148.739 76.3045L148.653 79.5457ZM148.653 79.5457L148.572 76.2815C148.572 75.2088 148.509 74.1477 148.497 73.0923L148.653 73.248C146.11 73.248 143.566 73.3403 141.017 73.3403L133.382 73.3806L133.67 73.0923L133.641 79.5457L133.382 79.2861C134.645 79.2861 135.896 79.2861 137.159 79.3207L140.954 79.3842L148.653 79.5457Z" fill="#EBEBEB"/>
<path d="M165.695 79.5457L158.122 79.7071L154.281 79.7706C153.001 79.7706 151.709 79.7706 150.423 79.7706H150.164V79.5111L150.135 73.0577V72.7635H150.423L158.059 72.7982C160.602 72.7982 163.145 72.8616 165.695 72.8904H165.85V73.0461C165.85 74.1419 165.804 75.2261 165.775 76.3045L165.695 79.5457ZM165.695 79.5457L165.614 76.2815C165.614 75.2088 165.545 74.1477 165.539 73.0923L165.695 73.248C163.145 73.248 160.602 73.3403 158.059 73.3403L150.423 73.3806L150.712 73.0923L150.677 79.5457L150.423 79.2861C151.68 79.2861 152.938 79.2861 154.195 79.3207L157.99 79.3842L165.695 79.5457Z" fill="#EBEBEB"/>
<path d="M224.53 23.9104L216.964 24.0719L213.123 24.1353C211.837 24.1353 210.545 24.1353 209.259 24.1699H209.005V23.9104L208.971 17.457V17.1686H209.259L216.895 17.2032C219.444 17.2032 221.987 17.2724 224.53 17.3013H224.692V17.457C224.692 18.5527 224.64 19.6427 224.611 20.7154L224.53 23.9104ZM224.53 23.9104L224.461 20.652C224.461 19.5735 224.398 18.5124 224.386 17.457L224.542 17.6127C221.999 17.6127 219.455 17.705 216.906 17.7107L209.271 17.7453L209.559 17.457L209.53 23.9104L209.271 23.6509C210.528 23.6509 211.785 23.6509 213.048 23.6855L216.843 23.7489L224.53 23.9104Z" fill="#EBEBEB"/>
<path d="M233.048 32.0477L225.482 32.2092L221.641 32.2726C220.355 32.3015 219.069 32.2726 217.777 32.3015H217.541V32.0419L217.506 25.5886V25.3002H217.794L225.43 25.3348C227.979 25.3348 230.522 25.404 233.066 25.4328H233.227V25.5886C233.227 26.6843 233.175 27.7743 233.152 28.847L233.048 32.0477ZM233.048 32.0477L232.968 28.7893C232.968 27.7108 232.904 26.6497 232.893 25.5943L233.048 25.75C230.505 25.7789 227.962 25.8423 225.413 25.8481L217.777 25.8827L218.066 25.5943L218.037 32.0477L217.777 31.7882C219.04 31.7882 220.292 31.7882 221.555 31.8228L225.349 31.8862L233.048 32.0477Z" fill="#EBEBEB"/>
<path d="M20.3408 23.9157L12.7686 24.0772L8.92776 24.1407C7.6417 24.1407 6.35564 24.1407 5.06381 24.1753H4.81005V23.9157L4.78122 17.4624V17.174H5.06957L12.7052 17.2144C15.2543 17.2144 17.7976 17.2778 20.3466 17.3067H20.5023V17.4624C20.5023 18.5581 20.4504 19.6481 20.4274 20.7265L20.3408 23.9157ZM20.3408 23.9157L20.2543 20.6573C20.2543 19.5789 20.1909 18.5177 20.1794 17.4624L20.3408 17.6181C17.7918 17.6527 15.2485 17.7104 12.6994 17.7161L5.06381 17.7507L5.35216 17.4624V23.9157L5.06381 23.6908C6.3268 23.6908 7.57826 23.6908 8.84125 23.6908L12.636 23.7543L20.3408 23.9157Z" fill="#EBEBEB"/>
<path d="M32.544 64.0033H16.9728V55.2027H32.544V64.0033ZM17.5495 63.4266H31.9673V55.7794H17.5495V63.4266Z" fill="#EBEBEB"/>
<path d="M117.5 219C142.629 219 163 215.866 163 212C163 208.134 142.629 205 117.5 205C92.371 205 72 208.134 72 212C72 215.866 92.371 219 117.5 219Z" fill="#F4F4F4"/>
<path d="M215.891 36.0213C153.242 56.3722 85.7584 56.3722 23.1088 36.0213C27.0074 24.0142 30.9078 12.0071 34.8102 0C89.8539 17.8838 149.146 17.8838 204.19 0C208.092 12.0071 211.993 24.0142 215.891 36.0213Z" fill="#FF9F00"/>
<path d="M64.5573 19.1065L67.51 19.6832C67.8138 21.5209 68.1271 23.3626 68.4501 25.208C69.3959 23.5933 70.3282 21.9727 71.2471 20.3464C72.239 20.5194 73.2348 20.6866 74.2345 20.8481C72.908 23.0742 71.5624 25.2965 70.1975 27.5149C70.6319 29.3104 71.0779 31.1039 71.5355 32.8956C73.8423 29.0893 76.0742 25.2619 78.2311 21.4133C79.3845 21.5863 80.5571 21.7497 81.749 21.9035C78.7847 26.8594 75.6993 31.7691 72.4928 36.6327C71.5355 36.4827 70.5839 36.327 69.6093 36.1655C68.9633 33.801 68.3443 31.4346 67.7522 29.0662C66.3758 31.0847 64.9744 33.0917 63.548 35.0871C62.5965 34.9083 61.6506 34.7238 60.6991 34.5104C59.3919 28.8355 58.2115 23.1665 57.1581 17.5032C58.3115 17.7608 59.4553 18.0107 60.5895 18.2529C61.3008 22.6167 62.0813 26.9824 62.931 31.35C63.969 29.8121 64.9917 28.2742 65.999 26.7363C65.4992 24.1988 65.0186 21.6555 64.5573 19.1065Z" fill="white"/>
<path d="M93.8999 36.5057C93.8192 37.4053 93.7442 38.305 93.6634 39.2104C89.5803 38.8606 85.5049 38.4242 81.4372 37.9013C82.11 32.6417 82.7809 27.3802 83.4499 22.1168C87.2408 22.6012 91.0336 23.0068 94.8284 23.3336C94.7477 24.2333 94.6727 25.1387 94.5919 26.0384C91.8545 25.7962 89.117 25.5174 86.3796 25.2022C86.2297 26.4709 86.0855 27.7397 85.9355 29.0084C88.3346 29.2891 90.7318 29.5371 93.1271 29.7524L92.9022 32.2553C90.48 32.0362 88.0617 31.7863 85.6472 31.5056C85.4915 32.8782 85.33 34.2507 85.1743 35.6233C88.0655 35.9578 90.9741 36.2519 93.8999 36.5057Z" fill="white"/>
<path d="M96.3512 39.4296C96.7588 34.1354 97.1663 28.8451 97.5738 23.5586C98.6581 23.6451 99.7423 23.72 100.826 23.795L99.9614 36.9555C102.937 37.1516 105.915 37.3016 108.895 37.4054C108.86 38.3108 108.831 39.2105 108.797 40.1159C104.644 39.9813 100.496 39.7526 96.3512 39.4296Z" fill="white"/>
<path d="M108.987 32.0594C109.023 31.0642 109.25 30.0851 109.656 29.1758C110.067 28.242 110.655 27.3961 111.386 26.6844C112.156 25.946 113.058 25.3591 114.045 24.9543C115.156 24.4967 116.35 24.2748 117.551 24.3026C118.945 24.2769 120.323 24.6084 121.553 25.2657C122.621 25.8301 123.508 26.6835 124.114 27.7283C123.278 28.305 122.441 28.8413 121.594 29.395C121.391 28.9653 121.113 28.5748 120.775 28.2416C120.471 27.9489 120.125 27.7039 119.748 27.5149C119.381 27.3367 118.994 27.2031 118.595 27.117C118.215 27.0393 117.829 26.9969 117.441 26.9901C116.695 26.9676 115.954 27.1218 115.279 27.4399C114.679 27.7381 114.152 28.1632 113.733 28.6856C113.308 29.1805 112.981 29.7521 112.77 30.3696C112.55 30.9749 112.427 31.6115 112.407 32.2554C112.389 32.9481 112.499 33.638 112.73 34.2912C112.946 34.932 113.288 35.5232 113.736 36.0302C114.183 36.5372 114.727 36.9498 115.336 37.244C115.986 37.5547 116.698 37.7144 117.418 37.7111C117.833 37.71 118.246 37.6675 118.652 37.5842C119.077 37.4952 119.488 37.3517 119.875 37.1575C120.258 36.951 120.608 36.6886 120.913 36.3789C121.247 36.065 121.514 35.6863 121.697 35.2659C122.62 35.7445 123.554 36.2174 124.489 36.6903C124.219 37.2971 123.826 37.8411 123.335 38.2878C122.815 38.7505 122.232 39.1387 121.605 39.4413C120.936 39.7639 120.231 40.0077 119.506 40.1679C118.784 40.3273 118.048 40.4066 117.309 40.4044C116.113 40.4099 114.931 40.1499 113.848 39.6431C112.851 39.1712 111.953 38.5136 111.201 37.7054C110.481 36.9294 109.915 36.0232 109.535 35.0352C109.153 34.0905 108.966 33.0782 108.987 32.0594V32.0594Z" fill="white"/>
<path d="M134.241 40.0697C133.034 40.1457 131.826 39.9648 130.694 39.5391C129.668 39.1511 128.729 38.563 127.932 37.809C127.168 37.0864 126.555 36.2201 126.127 35.2599C125.701 34.3148 125.474 33.2929 125.457 32.2567C125.44 31.2205 125.634 30.1918 126.029 29.2333C126.64 27.7256 127.672 26.4251 129.001 25.4866C130.33 24.5481 131.9 24.011 133.526 23.9391C134.669 23.8697 135.814 24.0488 136.882 24.4639C138.856 25.238 140.471 26.7179 141.415 28.6163C141.878 29.5138 142.16 30.4935 142.246 31.4998C142.329 32.541 142.193 33.5879 141.848 34.5737C141.501 35.5687 140.962 36.4858 140.262 37.2727C139.528 38.0862 138.643 38.7484 137.655 39.2219C136.585 39.731 135.424 40.0193 134.241 40.0697V40.0697ZM128.849 32.2149C128.871 32.8928 129.01 33.5619 129.258 34.193C129.498 34.8125 129.854 35.3803 130.308 35.8655C130.797 36.3773 131.394 36.7746 132.055 37.0288C132.716 37.283 133.425 37.388 134.131 37.3361C134.848 37.3209 135.552 37.1433 136.191 36.8167C136.829 36.49 137.385 36.0228 137.816 35.4503C138.218 34.9195 138.514 34.3164 138.687 33.674C138.863 33.0381 138.931 32.3773 138.889 31.7189C138.845 31.04 138.681 30.3742 138.405 29.7524C138.142 29.1457 137.773 28.5909 137.315 28.1145C136.855 27.6452 136.303 27.2761 135.694 27.0303C135.032 26.7711 134.322 26.6589 133.612 26.7016C132.877 26.7296 132.159 26.927 131.513 27.2783C130.926 27.588 130.412 28.0208 130.008 28.547C129.607 29.0647 129.304 29.651 129.114 30.2772C128.921 30.9045 128.832 31.5589 128.849 32.2149V32.2149Z" fill="white"/>
<path d="M159.87 37.6015L158.457 27.1515C157.35 29.9428 156.196 32.7264 154.997 35.5023L153.157 35.7156C151.362 33.2896 149.605 30.8463 147.886 28.3857C148.232 31.8805 148.576 35.3754 148.918 38.8702C147.765 38.9798 146.611 39.0894 145.458 39.1874C145.004 33.9048 144.547 28.6202 144.085 23.3337C145.239 23.2299 146.392 23.1261 147.546 23.0107C149.491 25.8481 151.485 28.6682 153.526 31.471C154.895 28.2761 156.204 25.0696 157.454 21.8515C158.607 21.6939 159.76 21.5324 160.914 21.3671L163.221 37.1113C162.177 37.2843 161.023 37.4458 159.87 37.6015Z" fill="white"/>
<path d="M178.538 31.7075L179.074 34.3661C175.041 35.1774 170.994 35.9079 166.934 36.5576C166.104 31.3211 165.27 26.0827 164.431 20.8423C168.203 20.2425 171.965 19.5639 175.718 18.8065L176.254 21.4652C173.543 22.0111 170.829 22.5167 168.111 22.9819C168.33 24.2391 168.543 25.5021 168.757 26.7593C171.137 26.3518 173.515 25.9135 175.891 25.4444L176.375 27.907C173.984 28.3799 171.586 28.822 169.184 29.2334C169.414 30.5945 169.651 31.9555 169.881 33.3223C172.776 32.8263 175.662 32.2881 178.538 31.7075Z" fill="white"/>
<path d="M180.799 27.8954L178.705 18.0279C179.738 17.8088 180.776 17.5839 181.808 17.3532C182.546 20.6289 183.282 23.9084 184.017 27.1918C182.938 27.4341 181.871 27.6647 180.799 27.8954ZM182.044 33.749C181.808 32.6475 181.572 31.5402 181.341 30.4387C182.425 30.208 183.505 29.9716 184.582 29.7294L185.326 33.0339C184.23 33.2761 183.14 33.4953 182.044 33.749V33.749Z" fill="white"/>
<g opacity="0.1">
<path d="M36.8808 4.65976C36.9416 5.39195 36.8772 6.12914 36.6905 6.83972C36.5202 7.54746 36.3083 8.24457 36.0561 8.92741C35.566 10.2936 34.9258 11.6011 34.1472 12.826C34.5278 11.4188 35.0296 10.0693 35.5198 8.7198L36.2579 6.70708C36.5129 6.03995 36.721 5.35585 36.8808 4.65976V4.65976Z" fill="black"/>
<path d="M37.4577 5.13278C37.7713 5.67474 38.01 6.25677 38.1671 6.86291C38.333 7.46973 38.4507 8.08875 38.5189 8.71415C38.657 9.96605 38.577 11.2324 38.2824 12.457C38.2017 11.8284 38.1671 11.2171 38.1152 10.6C38.0632 9.98291 38.0056 9.38313 37.9479 8.77759C37.821 7.57226 37.6596 6.39001 37.4577 5.13278Z" fill="black"/>
<path d="M38.8242 4.65979C39.2657 5.12892 39.7398 5.56638 40.2429 5.96892C40.7326 6.36553 41.2533 6.72231 41.8 7.03583C42.3541 7.35575 42.9326 7.6315 43.5301 7.86053C44.1068 8.10851 44.7354 8.28153 45.364 8.49491C44.6998 8.52954 44.0342 8.45947 43.3917 8.28729C42.0676 7.9632 40.8621 7.27147 39.9141 6.29188C39.4515 5.82114 39.0817 5.26745 38.8242 4.65979V4.65979Z" fill="black"/>
</g>
<g opacity="0.1">
<path d="M202.593 4.65979C202.752 5.35784 202.96 6.04387 203.215 6.71288L203.959 8.69676C204.45 10.0463 204.946 11.3958 205.326 12.8029C204.551 11.5738 203.911 10.2648 203.417 8.89861C203.164 8.21653 202.954 7.51927 202.789 6.81092C202.601 6.11036 202.534 5.38277 202.593 4.65979V4.65979Z" fill="black"/>
<path d="M202.022 5.13278C201.82 6.36694 201.658 7.57226 201.531 8.78912C201.468 9.39467 201.41 10.0002 201.364 10.6115C201.318 11.2228 201.272 11.8399 201.191 12.4685C200.897 11.244 200.816 9.97759 200.955 8.72568C201.023 8.10028 201.14 7.48126 201.306 6.87445C201.464 6.26402 201.705 5.67805 202.022 5.13278V5.13278Z" fill="black"/>
<path d="M200.655 4.65976C200.387 5.27046 200.007 5.82589 199.536 6.29761C198.602 7.26675 197.415 7.95582 196.11 8.28726C195.47 8.4596 194.806 8.52967 194.144 8.49488C194.772 8.2815 195.384 8.10848 195.972 7.8605C197.147 7.39431 198.247 6.75688 199.236 5.96889C199.739 5.56635 200.213 5.12889 200.655 4.65976V4.65976Z" fill="black"/>
</g>
<path d="M38.8244 4.65989C38.8244 4.93022 38.7442 5.19448 38.594 5.41925C38.4439 5.64401 38.2304 5.8192 37.9806 5.92265C37.7309 6.0261 37.4561 6.05317 37.1909 6.00043C36.9258 5.94769 36.6823 5.81752 36.4911 5.62637C36.3 5.43522 36.1698 5.19168 36.1171 4.92654C36.0643 4.66141 36.0914 4.38659 36.1948 4.13684C36.2983 3.88709 36.4735 3.67362 36.6982 3.52344C36.923 3.37325 37.1873 3.29309 37.4576 3.29309C37.8201 3.29309 38.1677 3.43709 38.4241 3.69342C38.6804 3.94974 38.8244 4.29739 38.8244 4.65989V4.65989Z" fill="#263238"/>
<path d="M202.91 4.65989C202.91 4.93022 202.83 5.19448 202.679 5.41925C202.529 5.64401 202.316 5.8192 202.066 5.92265C201.816 6.0261 201.541 6.05317 201.276 6.00043C201.011 5.94769 200.768 5.81752 200.577 5.62637C200.385 5.43522 200.255 5.19168 200.202 4.92654C200.15 4.66141 200.177 4.38659 200.28 4.13684C200.384 3.88709 200.559 3.67362 200.784 3.52344C201.008 3.37325 201.273 3.29309 201.543 3.29309C201.906 3.29309 202.253 3.43709 202.509 3.69342C202.766 3.94974 202.91 4.29739 202.91 4.65989V4.65989Z" fill="#263238"/>
<path d="M84.8975 73.4324C84.9522 73.8068 84.8568 74.1877 84.6322 74.4923C84.4076 74.7968 84.0718 75.0004 83.6979 75.0587C83.5126 75.0812 83.3247 75.0668 83.145 75.0162C82.9653 74.9656 82.7974 74.88 82.651 74.7641C82.5046 74.6483 82.3826 74.5046 82.2921 74.3414C82.2015 74.1781 82.1443 73.9985 82.1235 73.813C82.072 73.4382 82.1694 73.0581 82.3946 72.7541C82.6199 72.4502 82.9552 72.2465 83.3288 72.1867C83.5137 72.165 83.701 72.1801 83.8801 72.231C84.0591 72.282 84.2263 72.3678 84.3721 72.4835C84.5178 72.5993 84.6393 72.7427 84.7294 72.9056C84.8196 73.0684 84.8767 73.2474 84.8975 73.4324V73.4324Z" fill="#263238"/>
<path d="M195.118 79.4244C195.172 79.7995 195.075 80.1804 194.849 80.4847C194.624 80.789 194.287 80.9924 193.913 81.0507C193.728 81.0732 193.541 81.0587 193.361 81.0081C193.182 80.9574 193.014 80.8717 192.868 80.7558C192.723 80.6399 192.601 80.4962 192.511 80.333C192.421 80.1698 192.365 79.9903 192.345 79.8051C192.291 79.4308 192.387 79.0507 192.612 78.7466C192.836 78.4424 193.171 78.2385 193.544 78.1787C193.729 78.157 193.917 78.172 194.096 78.2229C194.276 78.2738 194.443 78.3595 194.59 78.4752C194.736 78.5909 194.858 78.7343 194.948 78.8972C195.039 79.06 195.097 79.2392 195.118 79.4244V79.4244Z" fill="#263238"/>
<path d="M163.445 68.1382C163.47 68.3253 163.421 68.5146 163.308 68.6655C163.194 68.8165 163.026 68.917 162.84 68.9456C162.748 68.9576 162.654 68.9512 162.564 68.9265C162.475 68.9019 162.391 68.8596 162.318 68.8021C162.245 68.7446 162.184 68.6731 162.139 68.5918C162.094 68.5105 162.066 68.4209 162.056 68.3285C162.028 68.1448 162.073 67.9577 162.181 67.8062C162.288 67.6547 162.45 67.5505 162.632 67.5154C162.727 67.4999 162.824 67.504 162.917 67.5274C163.01 67.5507 163.097 67.5929 163.173 67.6512C163.25 67.7095 163.313 67.7828 163.36 67.8666C163.407 67.9503 163.436 68.0428 163.445 68.1382Z" fill="#FF9F00"/>
<path d="M75.6701 68.1383C75.6971 68.3213 75.6521 68.5077 75.5445 68.6582C75.437 68.8088 75.2753 68.9118 75.0934 68.9457C75.0012 68.9577 74.9075 68.9512 74.8179 68.9266C74.7282 68.902 74.6444 68.8596 74.5713 68.8022C74.4983 68.7447 74.4374 68.6732 74.3924 68.5918C74.3474 68.5105 74.319 68.421 74.309 68.3286C74.2819 68.1448 74.3267 67.9577 74.4342 67.8062C74.5416 67.6547 74.7034 67.5506 74.8857 67.5154C74.9782 67.5042 75.072 67.5114 75.1617 67.5367C75.2514 67.5621 75.3351 67.6049 75.4081 67.6629C75.4811 67.7208 75.5418 67.7927 75.5868 67.8743C75.6317 67.9559 75.6601 68.0456 75.6701 68.1383V68.1383Z" fill="#FF9F00"/>
<path d="M180.383 22.4974C180.409 22.6803 180.363 22.8659 180.256 23.0161C180.149 23.1663 179.988 23.2697 179.807 23.3048C179.714 23.3177 179.62 23.3118 179.53 23.2875C179.44 23.2632 179.356 23.2209 179.283 23.1633C179.21 23.1057 179.149 23.0338 179.104 22.9521C179.059 22.8704 179.031 22.7805 179.022 22.6877C178.994 22.5038 179.038 22.3159 179.146 22.1641C179.253 22.0123 179.416 21.9084 179.599 21.8746C179.691 21.8633 179.785 21.8706 179.875 21.8959C179.965 21.9212 180.048 21.9641 180.121 22.022C180.194 22.08 180.255 22.1519 180.3 22.2335C180.345 22.3151 180.373 22.4048 180.383 22.4974Z" fill="#263238"/>
<path d="M143.434 113.808C143.462 113.992 143.418 114.18 143.31 114.331C143.203 114.483 143.04 114.587 142.857 114.621C142.764 114.632 142.671 114.625 142.581 114.6C142.491 114.574 142.407 114.531 142.334 114.474C142.262 114.416 142.201 114.344 142.156 114.262C142.111 114.181 142.083 114.091 142.073 113.998C142.047 113.815 142.093 113.63 142.2 113.479C142.307 113.329 142.468 113.226 142.649 113.191C142.742 113.178 142.835 113.184 142.925 113.208C143.015 113.232 143.1 113.275 143.173 113.332C143.246 113.39 143.307 113.462 143.352 113.543C143.397 113.625 143.424 113.715 143.434 113.808V113.808Z" fill="#263238"/>
<path d="M131.796 12.0072C131.823 12.1909 131.778 12.378 131.671 12.5295C131.563 12.681 131.401 12.7852 131.219 12.8203C131.127 12.8316 131.033 12.8243 130.943 12.799C130.853 12.7737 130.77 12.7308 130.697 12.6729C130.624 12.6149 130.563 12.5431 130.518 12.4615C130.473 12.3799 130.445 12.2901 130.435 12.1975C130.408 12.0138 130.452 11.8267 130.56 11.6752C130.667 11.5237 130.829 11.4195 131.011 11.3843C131.104 11.3731 131.198 11.3804 131.287 11.4057C131.377 11.431 131.461 11.4739 131.534 11.5318C131.607 11.5898 131.667 11.6616 131.712 11.7432C131.757 11.8248 131.786 11.9146 131.796 12.0072V12.0072Z" fill="#263238"/>
<path d="M53.6801 85.9355C53.7072 86.1193 53.6624 86.3064 53.555 86.4579C53.4475 86.6094 53.2858 86.7135 53.1034 86.7487C53.0109 86.7599 52.9171 86.7527 52.8274 86.7274C52.7378 86.702 52.654 86.6592 52.581 86.6012C52.5081 86.5433 52.4473 86.4714 52.4024 86.3898C52.3574 86.3082 52.3291 86.2185 52.3191 86.1258C52.2919 85.9421 52.3368 85.755 52.4442 85.6035C52.5517 85.452 52.7134 85.3478 52.8958 85.3127C52.9883 85.3015 53.0821 85.3087 53.1718 85.334C53.2614 85.3593 53.3452 85.4022 53.4181 85.4602C53.4911 85.5181 53.5518 85.59 53.5968 85.6716C53.6418 85.7532 53.6701 85.8429 53.6801 85.9355V85.9355Z" fill="#FF9F00"/>
<path d="M172.944 143.07C172.973 143.254 172.928 143.442 172.821 143.594C172.713 143.746 172.55 143.849 172.367 143.883C172.275 143.895 172.181 143.887 172.091 143.862C172.002 143.837 171.918 143.794 171.845 143.736C171.772 143.678 171.711 143.606 171.666 143.524C171.621 143.443 171.593 143.353 171.583 143.26C171.556 143.072 171.605 142.882 171.719 142.729C171.832 142.577 172.001 142.476 172.188 142.447C172.371 142.431 172.552 142.487 172.694 142.604C172.835 142.72 172.925 142.888 172.944 143.07Z" fill="#455A64"/>
<path d="M78.0809 130.596C78.1081 130.78 78.0632 130.967 77.9558 131.118C77.8484 131.27 77.6866 131.374 77.5042 131.409C77.4116 131.421 77.3175 131.414 77.2275 131.389C77.1375 131.364 77.0535 131.322 76.9803 131.264C76.9072 131.205 76.8464 131.133 76.8017 131.051C76.757 130.969 76.7292 130.879 76.7199 130.786C76.6913 130.602 76.7355 130.414 76.8432 130.263C76.9509 130.111 77.1136 130.007 77.2966 129.973C77.3891 129.962 77.4829 129.969 77.5726 129.994C77.6623 130.02 77.746 130.063 77.819 130.121C77.8919 130.178 77.9527 130.25 77.9976 130.332C78.0426 130.414 78.0709 130.503 78.0809 130.596Z" fill="#FF9F00"/>
<path d="M88.0232 102.822C88.0779 103.196 87.9826 103.577 87.758 103.881C87.5333 104.186 87.1976 104.39 86.8237 104.448C86.6383 104.471 86.45 104.457 86.27 104.407C86.09 104.357 85.9218 104.271 85.7752 104.155C85.6287 104.039 85.5067 103.895 85.4164 103.732C85.3261 103.568 85.2693 103.388 85.2493 103.202C85.1964 102.828 85.2932 102.448 85.5189 102.144C85.7446 101.841 86.0808 101.639 86.4546 101.582C86.6393 101.558 86.8267 101.572 87.0061 101.622C87.1854 101.672 87.3529 101.757 87.499 101.873C87.645 101.988 87.7666 102.131 87.8566 102.294C87.9466 102.457 88.0033 102.637 88.0232 102.822V102.822Z" fill="#FF9F00"/>
<path d="M99.8921 27.9646C99.9449 28.3319 99.8546 28.7054 99.64 29.008C99.4253 29.3106 99.1027 29.5193 98.7386 29.5909C98.5538 29.6126 98.3664 29.5975 98.1874 29.5466C98.0084 29.4957 97.8412 29.4098 97.6954 29.2941C97.5497 29.1783 97.4282 29.0349 97.338 28.8721C97.2479 28.7093 97.1907 28.5302 97.17 28.3452C97.1153 27.9708 97.2106 27.5899 97.4353 27.2854C97.6599 26.9808 97.9956 26.7773 98.3695 26.7189C98.7354 26.688 99.099 26.8008 99.3832 27.0333C99.6674 27.2658 99.8499 27.5998 99.8921 27.9646V27.9646Z" fill="#455A64"/>
<path d="M80.8607 116.986C80.9137 117.361 80.817 117.742 80.5914 118.046C80.3659 118.35 80.0296 118.554 79.6553 118.612C79.4707 118.635 79.2832 118.621 79.1039 118.572C78.9246 118.522 78.757 118.436 78.611 118.321C78.4649 118.206 78.3434 118.062 78.2534 117.899C78.1633 117.736 78.1067 117.557 78.0867 117.372C78.032 116.998 78.1274 116.617 78.352 116.312C78.5766 116.008 78.9124 115.804 79.2863 115.746C79.4713 115.722 79.659 115.736 79.8387 115.786C80.0184 115.836 80.1863 115.921 80.3328 116.036C80.4793 116.152 80.6014 116.295 80.692 116.458C80.7827 116.621 80.84 116.8 80.8607 116.986V116.986Z" fill="#455A64"/>
<path d="M151.929 17.1628C151.983 17.5366 151.888 17.9168 151.663 18.2204C151.438 18.524 151.102 18.7264 150.729 18.7834C150.544 18.8067 150.357 18.7929 150.178 18.743C149.998 18.693 149.831 18.6078 149.685 18.4924C149.539 18.377 149.417 18.2336 149.327 18.0707C149.237 17.9077 149.18 17.7285 149.16 17.5434C149.106 17.169 149.201 16.7881 149.426 16.4836C149.65 16.179 149.986 15.9755 150.36 15.9171C150.545 15.8939 150.733 15.9078 150.913 15.9581C151.092 16.0084 151.26 16.0941 151.406 16.2101C151.552 16.3262 151.674 16.4702 151.763 16.6338C151.853 16.7974 151.909 16.9772 151.929 17.1628V17.1628Z" fill="#263238"/>
<path d="M150.786 64.1646L152.77 63.4784C152.77 63.4784 151.415 62.7575 151.421 60.5141C151.426 58.2707 153.272 57.3883 152.47 55.3641L150.267 55.9869C150.519 56.5265 150.657 57.1118 150.674 57.7069C150.691 58.302 150.586 58.8942 150.365 59.4472C149.783 60.7044 149.258 62.2327 150.786 64.1646Z" fill="#263238"/>
<path d="M102.256 72.9192L100.301 72.1348C100.301 72.1348 100.913 73.5766 99.5459 75.3125C98.1791 77.0484 96.2067 76.5294 95.5897 78.6286L97.6774 79.5917C97.8064 79.0227 98.0519 78.4866 98.3983 78.0172C98.7447 77.5477 99.1845 77.155 99.6901 76.8639C100.93 76.2641 102.274 75.4221 102.256 72.9192Z" fill="#455A64"/>
<path d="M57.054 111.288L55.1048 110.526C55.1048 110.526 55.6815 111.968 54.3435 113.704C53.0055 115.44 51.0043 114.921 50.393 117.02L52.475 117.983C52.604 117.414 52.8495 116.878 53.1959 116.409C53.5423 115.939 53.9821 115.547 54.4877 115.255C55.7276 114.627 57.0713 113.785 57.054 111.288Z" fill="#263238"/>
<path d="M206.964 107.314L205.015 106.559C205.015 106.559 205.62 107.995 204.253 109.736C202.886 111.478 200.914 110.953 200.303 113.047L202.385 114.015C202.514 113.446 202.76 112.909 203.106 112.439C203.453 111.969 203.892 111.575 204.397 111.282C205.637 110.636 206.981 109.794 206.964 107.314Z" fill="#FF9F00"/>
<path d="M65.1567 53.5302L65.4393 51.3906C65.4393 51.3906 64.2166 52.3249 62.2789 51.3329C60.3411 50.341 60.393 48.2245 58.2823 48.0688L57.8325 50.3756C58.4091 50.3843 58.9772 50.5165 59.4985 50.7632C60.0197 51.0099 60.4821 51.3654 60.8544 51.8058C61.7137 52.9304 62.8037 54.1011 65.1567 53.5302Z" fill="#263238"/>
<path d="M53.0054 139.817L53.288 137.678C53.288 137.678 52.0653 138.612 50.1276 137.62C48.1898 136.628 48.2417 134.517 46.131 134.356L45.6812 136.663C46.2578 136.672 46.8259 136.804 47.3472 137.05C47.8684 137.297 48.3308 137.653 48.7031 138.093C49.5624 139.218 50.6524 140.388 53.0054 139.817Z" fill="#FF9F00"/>
<path d="M123.497 134.068L123.78 131.928C123.78 131.928 122.557 132.862 120.619 131.87C118.681 130.878 118.733 128.768 116.623 128.606L116.173 130.913C116.748 130.923 117.315 131.055 117.836 131.302C118.356 131.548 118.817 131.904 119.189 132.343C120.077 133.468 121.144 134.639 123.497 134.068Z" fill="#455A64"/>
<path d="M207.621 58.957L207.904 56.8174C207.904 56.8174 206.687 57.7517 204.743 56.754C202.8 55.7563 202.858 53.6513 200.747 53.4956L200.303 55.8024C200.878 55.8119 201.445 55.9445 201.966 56.1912C202.486 56.4379 202.947 56.793 203.319 57.2327C204.178 58.3572 205.268 59.5222 207.621 58.957Z" fill="#FF9F00"/>
<path d="M82.4294 142.309L82.8273 144.431C82.8273 144.431 83.6923 143.139 85.8377 143.439C87.9831 143.739 88.5828 145.746 90.6302 145.198L90.336 142.851C89.7938 143.035 89.2182 143.1 88.6487 143.04C88.0792 142.98 87.5295 142.798 87.0373 142.505C85.8781 141.732 84.4824 140.988 82.4294 142.309Z" fill="#455A64"/>
<path d="M117.355 98.0866L115.151 96.8524C115.151 96.8524 113.375 99.6322 115.515 101.034C115.515 101.011 115.071 99.2054 117.355 98.0866Z" fill="#FF9F00"/>
<path d="M115.573 104.396L117.879 103.502C117.879 103.502 118.012 101.449 115.509 101.011C115.515 101.011 117.084 102.868 115.573 104.396Z" fill="#FF9F00"/>
<path d="M55.8313 11.3495L53.634 10.1154C53.634 10.1154 51.852 12.8951 53.9973 14.2965C53.9973 14.2965 53.5533 12.4914 55.8313 11.3495Z" fill="#455A64"/>
<path d="M54.0551 17.6818L56.3619 16.7879C56.3619 16.7879 56.4946 14.7348 53.9917 14.2965C53.9974 14.2965 55.5661 16.1535 54.0551 17.6818Z" fill="#455A64"/>
<path d="M132.119 63.1554C132.066 62.7804 132.162 62.3995 132.388 62.0952C132.614 61.7908 132.95 61.5875 133.324 61.5291C133.509 61.5066 133.697 61.5211 133.876 61.5718C134.055 61.6224 134.223 61.7082 134.369 61.824C134.515 61.9399 134.636 62.0837 134.726 62.2469C134.816 62.4101 134.873 62.5895 134.893 62.7748C134.944 63.1496 134.847 63.5297 134.622 63.8337C134.396 64.1376 134.061 64.3413 133.687 64.4011C133.503 64.4228 133.315 64.4077 133.136 64.3568C132.957 64.3058 132.79 64.22 132.644 64.1043C132.498 63.9885 132.377 63.8451 132.287 63.6823C132.197 63.5194 132.14 63.3404 132.119 63.1554V63.1554Z" fill="#263238"/>
<path d="M177.2 91.0797C177.147 90.7053 177.244 90.3251 177.47 90.0217C177.695 89.7183 178.032 89.5161 178.405 89.4591C178.59 89.4358 178.777 89.4496 178.957 89.4995C179.136 89.5495 179.304 89.6346 179.45 89.7501C179.596 89.8655 179.717 90.0089 179.807 90.1718C179.897 90.3347 179.954 90.514 179.974 90.699C180.029 91.0735 179.933 91.4544 179.709 91.7589C179.484 92.0634 179.148 92.267 178.774 92.3253C178.589 92.3478 178.401 92.3334 178.221 92.2828C178.042 92.2323 177.874 92.1466 177.727 92.0308C177.581 91.9149 177.459 91.7712 177.369 91.608C177.278 91.4448 177.221 91.2652 177.2 91.0797V91.0797Z" fill="#FF9F00"/>
<path d="M147.759 141.778C147.706 141.403 147.803 141.022 148.028 140.718C148.254 140.414 148.59 140.21 148.964 140.152C149.149 140.129 149.337 140.144 149.516 140.195C149.695 140.245 149.863 140.331 150.009 140.447C150.155 140.563 150.276 140.706 150.366 140.87C150.456 141.033 150.513 141.212 150.533 141.398C150.586 141.772 150.49 142.152 150.266 142.456C150.041 142.76 149.706 142.964 149.333 143.024C149.148 143.046 148.96 143.031 148.781 142.98C148.602 142.929 148.434 142.843 148.288 142.727C148.142 142.612 148.02 142.468 147.929 142.306C147.838 142.143 147.78 141.963 147.759 141.778V141.778Z" fill="#FF9F00"/>
<path d="M31.102 118.081C31.0734 117.897 31.1176 117.71 31.2253 117.558C31.333 117.406 31.4956 117.302 31.6787 117.268C31.7712 117.257 31.865 117.264 31.9547 117.29C32.0443 117.315 32.1281 117.358 32.2011 117.416C32.274 117.474 32.3347 117.545 32.3797 117.627C32.4247 117.709 32.453 117.798 32.463 117.891C32.4879 118.079 32.4386 118.269 32.3255 118.421C32.2124 118.573 32.0445 118.674 31.8575 118.704C31.675 118.72 31.4935 118.664 31.3521 118.547C31.2108 118.431 31.1209 118.264 31.102 118.081V118.081Z" fill="#FF9F00"/>
<path d="M144.241 102.51C144.214 102.326 144.259 102.139 144.366 101.988C144.473 101.836 144.635 101.732 144.818 101.697C144.91 101.686 145.004 101.693 145.094 101.718C145.183 101.744 145.267 101.787 145.34 101.844C145.413 101.902 145.474 101.974 145.519 102.056C145.564 102.138 145.592 102.227 145.602 102.32C145.629 102.504 145.584 102.691 145.477 102.842C145.369 102.994 145.208 103.098 145.025 103.133C144.839 103.154 144.651 103.1 144.504 102.984C144.357 102.867 144.263 102.697 144.241 102.51V102.51Z" fill="#FF9F00"/>
<path d="M125.331 44.5623C125.304 44.3786 125.349 44.1915 125.456 44.04C125.563 43.8885 125.725 43.7843 125.908 43.7492C126 43.7379 126.094 43.7452 126.183 43.7705C126.273 43.7958 126.357 43.8387 126.43 43.8966C126.503 43.9546 126.564 44.0265 126.609 44.1081C126.654 44.1897 126.682 44.2794 126.692 44.372C126.719 44.5558 126.674 44.7429 126.567 44.8944C126.459 45.0459 126.297 45.15 126.115 45.1852C126.023 45.1964 125.929 45.1892 125.839 45.1639C125.749 45.1385 125.666 45.0957 125.593 45.0377C125.52 44.9798 125.459 44.9079 125.414 44.8263C125.369 44.7447 125.341 44.655 125.331 44.5623Z" fill="#37474F"/>
<path d="M178.094 51.0676C178.041 50.6925 178.137 50.3117 178.363 50.0074C178.588 49.703 178.925 49.4997 179.299 49.4413C179.484 49.4188 179.672 49.4333 179.851 49.484C180.03 49.5346 180.198 49.6203 180.344 49.7362C180.49 49.8521 180.611 49.9958 180.701 50.1591C180.791 50.3223 180.848 50.5017 180.868 50.687C180.921 51.0614 180.824 51.4416 180.598 51.745C180.372 52.0484 180.036 52.2505 179.662 52.3075C179.478 52.33 179.291 52.3157 179.112 52.2655C178.933 52.2152 178.765 52.1299 178.619 52.0146C178.474 51.8994 178.352 51.7563 178.262 51.5937C178.172 51.4312 178.114 51.2524 178.094 51.0676V51.0676Z" fill="#FF9F00"/>
<path d="M34.3429 102.845C34.2899 102.471 34.386 102.092 34.6105 101.788C34.8349 101.485 35.1697 101.282 35.5425 101.224C35.7275 101.201 35.9153 101.214 36.0949 101.264C36.2746 101.314 36.4425 101.399 36.589 101.515C36.7355 101.63 36.8576 101.773 36.9482 101.936C37.0389 102.099 37.0962 102.279 37.1169 102.464C37.1699 102.839 37.0732 103.22 36.8476 103.524C36.6221 103.829 36.2858 104.032 35.9116 104.09C35.7264 104.114 35.5385 104.1 35.3589 104.049C35.1792 103.999 35.0114 103.913 34.8653 103.797C34.7192 103.681 34.5977 103.537 34.508 103.374C34.4183 103.21 34.3622 103.03 34.3429 102.845V102.845Z" fill="#455A64"/>
<path d="M92.7983 51.754L89.4649 52.7344C89.4649 52.7344 87.879 48.4206 91.195 47.2037C91.1777 47.2037 90.0532 49.499 92.7983 51.754Z" fill="#455A64"/>
<path d="M92.2505 42.6534L95.1341 44.5796C95.1341 44.5796 94.7131 47.394 91.2009 47.2037C91.1779 47.2037 93.848 45.1852 92.2505 42.6534Z" fill="#455A64"/>
<path d="M199.357 134.552L196.03 135.532C196.03 135.532 194.444 131.219 197.76 130.002C197.742 130.002 196.618 132.297 199.357 134.552Z" fill="#455A64"/>
<path d="M198.815 125.452L201.699 127.378C201.699 127.378 201.278 130.192 197.766 130.002C197.743 130.002 200.407 127.983 198.815 125.452Z" fill="#455A64"/>
<path d="M176.934 105.544L176.485 101.985C176.485 101.985 180.833 100.988 181.514 104.546C181.514 104.546 179.478 103.064 176.934 105.544Z" fill="#263238"/>
<path d="M185.712 106.305L183.451 108.958C183.451 108.958 180.821 108.116 181.513 104.546C181.513 104.546 183.059 107.574 185.712 106.305Z" fill="#263238"/>
<path d="M96.2185 129.714L92.8851 130.688C92.8851 130.688 91.2992 126.38 94.6153 125.163C94.6037 125.192 93.4791 127.459 96.2185 129.714Z" fill="#263238"/>
<path d="M95.6764 120.607L98.5599 122.539C98.5599 122.539 98.1389 125.354 94.6267 125.163C94.6037 125.192 97.2681 123.145 95.6764 120.607Z" fill="#263238"/>
<path d="M155.994 41.7537L158.192 42.9936C158.192 42.9936 159.974 40.2139 157.834 38.8125C157.834 38.8125 158.272 40.6176 155.994 41.7537Z" fill="#455A64"/>
<path d="M157.776 35.4273L155.469 36.3154C155.469 36.3154 155.331 38.3685 157.84 38.8126C157.834 38.8126 156.26 36.9556 157.776 35.4273Z" fill="#455A64"/>
<path d="M152.044 113.214L152.407 115.774C152.407 115.774 155.625 115.578 155.417 112.966C155.417 112.966 154.293 114.413 152.044 113.214Z" fill="#FF9F00"/>
<path d="M158.001 110.884L155.925 109.506C155.925 109.506 154.258 110.624 155.418 112.966C155.418 112.966 155.913 110.544 158.001 110.884Z" fill="#FF9F00"/>
<circle cx="118.835" cy="120.359" r="53.25" fill="#9C076D" stroke="#FAF305" stroke-width="1.71774"/>
<rect width="68.3217" height="20.8885" rx="10.4442" transform="matrix(0.482798 0.875732 -0.880113 0.474764 99.9283 84.4812)" fill="url(#paint0_linear_2673_8069)"/>
<rect width="68.3032" height="20.8941" rx="10.447" transform="matrix(0.482393 -0.875955 0.880168 0.474662 58.623 144.462)" fill="url(#paint1_linear_2673_8069)"/>
<rect width="68.3032" height="20.8941" rx="10.447" transform="matrix(0.482393 -0.875955 0.880168 0.474662 104.591 144.374)" fill="url(#paint2_linear_2673_8069)"/>
<rect width="68.3217" height="20.8885" rx="10.4442" transform="matrix(0.482798 0.875731 -0.880113 0.474764 145.896 84.3934)" fill="url(#paint3_linear_2673_8069)"/>
<g style="mix-blend-mode:darken">
<rect width="68.3217" height="20.8885" rx="10.4442" transform="matrix(0.482798 0.875732 -0.880113 0.474764 99.9283 84.4812)" fill="url(#paint4_linear_2673_8069)"/>
</g>
<g style="mix-blend-mode:darken">
<rect width="68.3032" height="20.8941" rx="10.447" transform="matrix(0.482393 -0.875955 0.880168 0.474662 58.623 144.462)" fill="url(#paint5_linear_2673_8069)"/>
</g>
<g style="mix-blend-mode:darken">
<rect width="68.3032" height="20.8941" rx="10.447" transform="matrix(0.482393 -0.875955 0.880168 0.474662 104.591 144.374)" fill="url(#paint6_linear_2673_8069)"/>
</g>
<g style="mix-blend-mode:darken">
<rect width="68.3217" height="20.8885" rx="10.4442" transform="matrix(0.482798 0.875731 -0.880113 0.474764 145.896 84.3934)" fill="url(#paint7_linear_2673_8069)"/>
</g>
<path d="M51.4043 188.256L51.3883 186.304H56.3323C56.3963 186.4 56.4549 186.533 56.5083 186.704C56.5616 186.875 56.5883 187.056 56.5883 187.248C56.5883 187.589 56.5083 187.845 56.3483 188.016C56.1989 188.176 55.9909 188.256 55.7243 188.256H51.4043ZM53.6603 186.304L53.6763 188.256H48.7323C48.6576 188.16 48.5936 188.027 48.5403 187.856C48.4976 187.685 48.4763 187.504 48.4763 187.312C48.4763 186.96 48.5509 186.704 48.7003 186.544C48.8603 186.384 49.0683 186.304 49.3243 186.304H53.6603ZM51.2763 187.824H53.7243V195.984C53.6176 196.016 53.4576 196.043 53.2443 196.064C53.0309 196.096 52.8123 196.112 52.5883 196.112C52.1083 196.112 51.7669 196.027 51.5643 195.856C51.3723 195.685 51.2763 195.387 51.2763 194.96V187.824ZM58.0579 189.232H60.4899V195.984C60.3939 196.016 60.2392 196.043 60.0259 196.064C59.8125 196.096 59.5939 196.112 59.3699 196.112C58.8899 196.112 58.5485 196.027 58.3459 195.856C58.1539 195.685 58.0579 195.387 58.0579 194.96V189.232ZM60.4899 192.304H58.0579V186.272C58.1645 186.251 58.3245 186.224 58.5379 186.192C58.7619 186.16 58.9805 186.144 59.1939 186.144C59.6525 186.144 59.9832 186.224 60.1859 186.384C60.3885 186.544 60.4899 186.848 60.4899 187.296V192.304ZM68.8566 183.248L67.6086 181.808C67.6193 181.499 67.71 181.264 67.8806 181.104C68.0513 180.933 68.2486 180.848 68.4726 180.848C68.686 180.848 68.8673 180.901 69.0166 181.008C69.166 181.104 69.3046 181.248 69.4326 181.44L70.4406 182.896C70.398 183.141 70.2966 183.328 70.1366 183.456C69.9766 183.584 69.806 183.648 69.6246 183.648C69.4753 183.648 69.342 183.611 69.2246 183.536C69.1073 183.461 68.9846 183.365 68.8566 183.248ZM62.8246 189.216H65.1926V195.904C65.0966 195.925 64.9473 195.952 64.7446 195.984C64.5526 196.016 64.3446 196.032 64.1206 196.032C63.7153 196.032 63.3953 195.915 63.1606 195.68C62.9366 195.445 62.8246 195.131 62.8246 194.736V189.216ZM65.1926 193.088H62.8246V187.6C62.8246 187.195 62.9366 186.88 63.1606 186.656C63.3953 186.421 63.7153 186.304 64.1206 186.304C64.3446 186.304 64.5526 186.32 64.7446 186.352C64.9473 186.384 65.0966 186.411 65.1926 186.432V193.088ZM64.1206 192.016V190.096H68.9526C69.0166 190.203 69.07 190.336 69.1126 190.496C69.166 190.656 69.1926 190.832 69.1926 191.024C69.1926 191.365 69.118 191.616 68.9686 191.776C68.8193 191.936 68.6113 192.016 68.3446 192.016H64.1206ZM64.1206 196.032V194.096H69.4806C69.5446 194.192 69.598 194.325 69.6406 194.496C69.694 194.667 69.7206 194.848 69.7206 195.04C69.7206 195.381 69.646 195.632 69.4966 195.792C69.3473 195.952 69.1393 196.032 68.8726 196.032H64.1206ZM64.1206 188.224V186.304H69.4006C69.4646 186.4 69.5233 186.528 69.5766 186.688C69.63 186.848 69.6566 187.024 69.6566 187.216C69.6566 187.557 69.582 187.813 69.4326 187.984C69.2833 188.144 69.0753 188.224 68.8086 188.224H64.1206ZM66.3446 184.288C66.11 184.512 65.8646 184.747 65.6086 184.992C65.3526 185.237 65.0966 185.467 64.8406 185.68C64.5526 185.669 64.3073 185.584 64.1046 185.424C63.902 185.253 63.8006 185.04 63.8006 184.784C63.8006 184.581 63.8486 184.411 63.9446 184.272C64.0513 184.123 64.2273 183.947 64.4726 183.744L65.0646 183.264C65.566 182.869 65.998 182.672 66.3606 182.672C66.6166 182.672 66.846 182.72 67.0486 182.816C67.2513 182.912 67.4593 183.067 67.6726 183.28L68.9686 184.624C68.9686 184.955 68.878 185.205 68.6966 185.376C68.526 185.547 68.2913 185.632 67.9926 185.632C67.8006 185.632 67.6246 185.573 67.4646 185.456C67.3046 185.328 67.1073 185.141 66.8726 184.896L66.3446 184.288ZM78.0051 193.584C77.8878 193.68 77.7278 193.76 77.5251 193.824C77.3331 193.888 77.1091 193.92 76.8531 193.92C76.5225 193.92 76.2451 193.877 76.0211 193.792C75.7971 193.707 75.6531 193.563 75.5891 193.36C75.2265 192.347 74.9171 191.504 74.6611 190.832C74.4158 190.16 74.2238 189.579 74.0851 189.088H74.0051C73.9731 189.76 73.9465 190.373 73.9251 190.928C73.9038 191.483 73.8878 192.027 73.8771 192.56C73.8665 193.083 73.8505 193.616 73.8291 194.16C73.8078 194.704 73.7758 195.301 73.7331 195.952C73.6158 195.984 73.4558 196.021 73.2531 196.064C73.0611 196.107 72.8691 196.128 72.6771 196.128C72.2718 196.128 71.9518 196.059 71.7171 195.92C71.4931 195.781 71.3811 195.541 71.3811 195.2C71.3811 194.965 71.3918 194.619 71.4131 194.16C71.4451 193.691 71.4771 193.157 71.5091 192.56C71.5518 191.952 71.5891 191.312 71.6211 190.64C71.6638 189.968 71.7065 189.307 71.7491 188.656C71.8025 187.995 71.8505 187.387 71.8931 186.832C71.9785 186.704 72.1491 186.576 72.4051 186.448C72.6611 186.309 73.0131 186.24 73.4611 186.24C73.9411 186.24 74.3251 186.32 74.6131 186.48C74.9118 186.629 75.1251 186.88 75.2531 187.232C75.4131 187.616 75.5838 188.064 75.7651 188.576C75.9465 189.077 76.1225 189.589 76.2931 190.112C76.4745 190.624 76.6398 191.088 76.7891 191.504H76.8691C77.1678 190.565 77.4718 189.648 77.7811 188.752C78.1011 187.856 78.3731 187.109 78.5971 186.512C78.7465 186.427 78.9331 186.363 79.1571 186.32C79.3918 186.267 79.6371 186.24 79.8931 186.24C80.3518 186.24 80.7198 186.309 80.9971 186.448C81.2851 186.576 81.4558 186.773 81.5091 187.04C81.5518 187.243 81.5945 187.563 81.6371 188C81.6905 188.437 81.7438 188.944 81.7971 189.52C81.8505 190.085 81.9038 190.683 81.9571 191.312C82.0105 191.931 82.0585 192.539 82.1011 193.136C82.1545 193.723 82.1971 194.251 82.2291 194.72C82.2611 195.189 82.2825 195.563 82.2931 195.84C82.1331 195.936 81.9625 196.005 81.7811 196.048C81.6105 196.101 81.3918 196.128 81.1251 196.128C80.7838 196.128 80.4905 196.064 80.2451 195.936C80.0105 195.808 79.8825 195.563 79.8611 195.2C79.8078 194.368 79.7651 193.579 79.7331 192.832C79.7011 192.075 79.6745 191.387 79.6531 190.768C79.6425 190.139 79.6265 189.6 79.6051 189.152H79.5251C79.3865 189.611 79.1891 190.192 78.9331 190.896C78.6878 191.589 78.3785 192.485 78.0051 193.584ZM87.4798 189.072L89.6878 189.04C89.7304 189.499 89.7624 189.952 89.7838 190.4C89.8051 190.848 89.8158 191.28 89.8158 191.696C89.8264 192.112 89.8318 192.517 89.8318 192.912V196C89.7358 196.021 89.5811 196.043 89.3678 196.064C89.1651 196.096 88.9571 196.112 88.7438 196.112C88.2744 196.112 87.9438 196.032 87.7518 195.872C87.5704 195.712 87.4798 195.424 87.4798 195.008V189.072ZM96.0078 193.184L93.7838 193.2C93.7091 192.421 93.6664 191.68 93.6558 190.976C93.6451 190.272 93.6398 189.6 93.6398 188.96V186.272C93.7464 186.251 93.9011 186.224 94.1038 186.192C94.3064 186.16 94.5198 186.144 94.7438 186.144C95.2024 186.144 95.5278 186.229 95.7198 186.4C95.9118 186.56 96.0078 186.843 96.0078 187.248V193.184ZM96.0078 192.416V195.696C95.8691 195.824 95.6718 195.925 95.4158 196C95.1704 196.085 94.8771 196.128 94.5358 196.128C94.1731 196.128 93.8318 196.069 93.5118 195.952C93.2024 195.835 92.9464 195.573 92.7438 195.168L90.8078 191.488C90.6904 191.253 90.5731 191.019 90.4557 190.784C90.3491 190.549 90.2424 190.315 90.1358 190.08C90.0291 189.835 89.9224 189.589 89.8158 189.344L87.4798 189.872V186.72C87.6078 186.539 87.8051 186.4 88.0718 186.304C88.3491 186.208 88.6478 186.16 88.9678 186.16C89.3198 186.16 89.6504 186.219 89.9598 186.336C90.2798 186.453 90.5411 186.709 90.7438 187.104L92.6958 190.8C92.8131 191.024 92.9304 191.259 93.0478 191.504C93.1651 191.739 93.2771 191.973 93.3838 192.208C93.4904 192.443 93.5918 192.683 93.6878 192.928L96.0078 192.416ZM102.165 188.32H102.069C101.962 188.661 101.834 189.04 101.685 189.456C101.546 189.872 101.402 190.309 101.253 190.768C101.104 191.216 100.96 191.664 100.821 192.112L100.533 193.552C100.469 193.755 100.405 193.968 100.341 194.192C100.288 194.416 100.229 194.635 100.165 194.848C100.101 195.061 100.042 195.264 99.989 195.456C99.9357 195.648 99.8823 195.829 99.829 196C99.7117 196.032 99.5783 196.064 99.429 196.096C99.2797 196.139 99.1037 196.16 98.901 196.16C98.453 196.16 98.1117 196.08 97.877 195.92C97.6423 195.76 97.525 195.525 97.525 195.216C97.525 195.088 97.541 194.955 97.573 194.816C97.6157 194.677 97.6637 194.517 97.717 194.336C97.813 193.984 97.9463 193.541 98.117 193.008C98.2983 192.475 98.4903 191.899 98.693 191.28C98.9063 190.651 99.1197 190.032 99.333 189.424C99.557 188.816 99.7597 188.256 99.941 187.744C100.133 187.232 100.288 186.832 100.405 186.544C100.554 186.448 100.789 186.363 101.109 186.288C101.44 186.203 101.765 186.16 102.085 186.16C102.544 186.16 102.954 186.229 103.317 186.368C103.68 186.496 103.909 186.704 104.005 186.992C104.208 187.557 104.426 188.213 104.661 188.96C104.906 189.696 105.152 190.469 105.397 191.28C105.642 192.091 105.877 192.88 106.101 193.648C106.336 194.405 106.538 195.088 106.709 195.696C106.592 195.824 106.421 195.931 106.197 196.016C105.973 196.112 105.706 196.16 105.397 196.16C104.96 196.16 104.65 196.08 104.469 195.92C104.288 195.76 104.149 195.52 104.053 195.2L103.541 193.408L103.269 192.048C103.141 191.568 103.008 191.104 102.869 190.656C102.73 190.208 102.602 189.787 102.485 189.392C102.368 188.987 102.261 188.629 102.165 188.32ZM99.461 193.84L100.405 191.952H104.149L104.469 193.84H99.461ZM102.117 183.664C102.448 183.664 102.714 183.584 102.917 183.424C103.13 183.253 103.269 183.04 103.333 182.784C103.386 182.773 103.434 182.768 103.477 182.768C103.52 182.757 103.568 182.752 103.621 182.752C103.994 182.752 104.272 182.859 104.453 183.072C104.634 183.285 104.725 183.52 104.725 183.776C104.725 184.224 104.496 184.608 104.037 184.928C103.589 185.248 102.949 185.408 102.117 185.408C101.274 185.408 100.629 185.248 100.181 184.928C99.733 184.608 99.509 184.224 99.509 183.776C99.509 183.52 99.5997 183.285 99.781 183.072C99.973 182.859 100.25 182.752 100.613 182.752C100.666 182.752 100.714 182.757 100.757 182.768C100.8 182.768 100.848 182.773 100.901 182.784C100.954 183.04 101.088 183.253 101.301 183.424C101.514 183.584 101.786 183.664 102.117 183.664ZM108.167 189.072L110.375 189.04C110.418 189.499 110.45 189.952 110.471 190.4C110.493 190.848 110.503 191.28 110.503 191.696C110.514 192.112 110.519 192.517 110.519 192.912V196C110.423 196.021 110.269 196.043 110.055 196.064C109.853 196.096 109.645 196.112 109.431 196.112C108.962 196.112 108.631 196.032 108.439 195.872C108.258 195.712 108.167 195.424 108.167 195.008V189.072ZM116.695 193.184L114.471 193.2C114.397 192.421 114.354 191.68 114.343 190.976C114.333 190.272 114.327 189.6 114.327 188.96V186.272C114.434 186.251 114.589 186.224 114.791 186.192C114.994 186.16 115.207 186.144 115.431 186.144C115.89 186.144 116.215 186.229 116.407 186.4C116.599 186.56 116.695 186.843 116.695 187.248V193.184ZM116.695 192.416V195.696C116.557 195.824 116.359 195.925 116.103 196C115.858 196.085 115.565 196.128 115.223 196.128C114.861 196.128 114.519 196.069 114.199 195.952C113.89 195.835 113.634 195.573 113.431 195.168L111.495 191.488C111.378 191.253 111.261 191.019 111.143 190.784C111.037 190.549 110.93 190.315 110.823 190.08C110.717 189.835 110.61 189.589 110.503 189.344L108.167 189.872V186.72C108.295 186.539 108.493 186.4 108.759 186.304C109.037 186.208 109.335 186.16 109.655 186.16C110.007 186.16 110.338 186.219 110.647 186.336C110.967 186.453 111.229 186.709 111.431 187.104L113.383 190.8C113.501 191.024 113.618 191.259 113.735 191.504C113.853 191.739 113.965 191.973 114.071 192.208C114.178 192.443 114.279 192.683 114.375 192.928L116.695 192.416ZM127.461 191.216V194.544C127.461 194.843 127.402 195.072 127.285 195.232C127.178 195.381 126.997 195.525 126.741 195.664C126.453 195.824 126.037 195.963 125.493 196.08C124.949 196.208 124.405 196.272 123.861 196.272C122.837 196.272 121.914 196.096 121.093 195.744C120.282 195.381 119.637 194.827 119.157 194.08C118.687 193.323 118.453 192.352 118.453 191.168C118.453 190.037 118.693 189.093 119.173 188.336C119.653 187.568 120.298 186.992 121.109 186.608C121.93 186.213 122.837 186.016 123.829 186.016C124.49 186.016 125.061 186.085 125.541 186.224C126.031 186.363 126.405 186.555 126.661 186.8C126.927 187.045 127.061 187.328 127.061 187.648C127.061 187.883 126.997 188.096 126.869 188.288C126.751 188.469 126.607 188.608 126.437 188.704C126.17 188.533 125.834 188.373 125.429 188.224C125.023 188.075 124.549 188 124.005 188C123.418 188 122.89 188.128 122.421 188.384C121.962 188.629 121.605 188.992 121.349 189.472C121.093 189.941 120.965 190.501 120.965 191.152C120.965 191.856 121.087 192.443 121.333 192.912C121.589 193.381 121.935 193.733 122.373 193.968C122.821 194.192 123.327 194.304 123.893 194.304C124.159 194.304 124.399 194.277 124.613 194.224C124.837 194.171 125.007 194.117 125.125 194.064V192.192H123.253C123.189 192.085 123.13 191.952 123.077 191.792C123.023 191.621 122.997 191.44 122.997 191.248C122.997 190.917 123.071 190.677 123.221 190.528C123.381 190.368 123.589 190.288 123.845 190.288H126.533C126.821 190.288 127.045 190.368 127.205 190.528C127.375 190.688 127.461 190.917 127.461 191.216ZM139.099 193.584C138.982 193.68 138.822 193.76 138.619 193.824C138.427 193.888 138.203 193.92 137.947 193.92C137.616 193.92 137.339 193.877 137.115 193.792C136.891 193.707 136.747 193.563 136.683 193.36C136.32 192.347 136.011 191.504 135.755 190.832C135.51 190.16 135.318 189.579 135.179 189.088H135.099C135.067 189.76 135.04 190.373 135.019 190.928C134.998 191.483 134.982 192.027 134.971 192.56C134.96 193.083 134.944 193.616 134.923 194.16C134.902 194.704 134.87 195.301 134.827 195.952C134.71 195.984 134.55 196.021 134.347 196.064C134.155 196.107 133.963 196.128 133.771 196.128C133.366 196.128 133.046 196.059 132.811 195.92C132.587 195.781 132.475 195.541 132.475 195.2C132.475 194.965 132.486 194.619 132.507 194.16C132.539 193.691 132.571 193.157 132.603 192.56C132.646 191.952 132.683 191.312 132.715 190.64C132.758 189.968 132.8 189.307 132.843 188.656C132.896 187.995 132.944 187.387 132.987 186.832C133.072 186.704 133.243 186.576 133.499 186.448C133.755 186.309 134.107 186.24 134.555 186.24C135.035 186.24 135.419 186.32 135.707 186.48C136.006 186.629 136.219 186.88 136.347 187.232C136.507 187.616 136.678 188.064 136.859 188.576C137.04 189.077 137.216 189.589 137.387 190.112C137.568 190.624 137.734 191.088 137.883 191.504H137.963C138.262 190.565 138.566 189.648 138.875 188.752C139.195 187.856 139.467 187.109 139.691 186.512C139.84 186.427 140.027 186.363 140.251 186.32C140.486 186.267 140.731 186.24 140.987 186.24C141.446 186.24 141.814 186.309 142.091 186.448C142.379 186.576 142.55 186.773 142.603 187.04C142.646 187.243 142.688 187.563 142.731 188C142.784 188.437 142.838 188.944 142.891 189.52C142.944 190.085 142.998 190.683 143.051 191.312C143.104 191.931 143.152 192.539 143.195 193.136C143.248 193.723 143.291 194.251 143.323 194.72C143.355 195.189 143.376 195.563 143.387 195.84C143.227 195.936 143.056 196.005 142.875 196.048C142.704 196.101 142.486 196.128 142.219 196.128C141.878 196.128 141.584 196.064 141.339 195.936C141.104 195.808 140.976 195.563 140.955 195.2C140.902 194.368 140.859 193.579 140.827 192.832C140.795 192.075 140.768 191.387 140.747 190.768C140.736 190.139 140.72 189.6 140.699 189.152H140.619C140.48 189.611 140.283 190.192 140.027 190.896C139.782 191.589 139.472 192.485 139.099 193.584ZM149.353 188.32H149.257C149.15 188.661 149.022 189.04 148.873 189.456C148.734 189.872 148.59 190.309 148.441 190.768C148.291 191.216 148.147 191.664 148.009 192.112L147.721 193.552C147.657 193.755 147.593 193.968 147.529 194.192C147.475 194.416 147.417 194.635 147.353 194.848C147.289 195.061 147.23 195.264 147.177 195.456C147.123 195.648 147.07 195.829 147.017 196C146.899 196.032 146.766 196.064 146.617 196.096C146.467 196.139 146.291 196.16 146.089 196.16C145.641 196.16 145.299 196.08 145.065 195.92C144.83 195.76 144.713 195.525 144.713 195.216C144.713 195.088 144.729 194.955 144.761 194.816C144.803 194.677 144.851 194.517 144.905 194.336C145.001 193.984 145.134 193.541 145.305 193.008C145.486 192.475 145.678 191.899 145.881 191.28C146.094 190.651 146.307 190.032 146.521 189.424C146.745 188.816 146.947 188.256 147.129 187.744C147.321 187.232 147.475 186.832 147.593 186.544C147.742 186.448 147.977 186.363 148.297 186.288C148.627 186.203 148.953 186.16 149.273 186.16C149.731 186.16 150.142 186.229 150.505 186.368C150.867 186.496 151.097 186.704 151.193 186.992C151.395 187.557 151.614 188.213 151.849 188.96C152.094 189.696 152.339 190.469 152.585 191.28C152.83 192.091 153.065 192.88 153.289 193.648C153.523 194.405 153.726 195.088 153.897 195.696C153.779 195.824 153.609 195.931 153.385 196.016C153.161 196.112 152.894 196.16 152.585 196.16C152.147 196.16 151.838 196.08 151.657 195.92C151.475 195.76 151.337 195.52 151.241 195.2L150.729 193.408L150.457 192.048C150.329 191.568 150.195 191.104 150.057 190.656C149.918 190.208 149.79 189.787 149.673 189.392C149.555 188.987 149.449 188.629 149.353 188.32ZM146.649 193.84L147.593 191.952H151.337L151.657 193.84H146.649ZM158.266 194.288C158.842 194.288 159.253 194.187 159.498 193.984C159.754 193.771 159.882 193.52 159.882 193.232C159.882 192.965 159.781 192.752 159.578 192.592C159.386 192.421 159.098 192.277 158.714 192.16L157.866 191.888C157.29 191.696 156.778 191.483 156.33 191.248C155.893 191.013 155.552 190.709 155.306 190.336C155.072 189.963 154.954 189.488 154.954 188.912C154.954 188.027 155.29 187.323 155.962 186.8C156.634 186.277 157.568 186.016 158.762 186.016C159.37 186.016 159.909 186.075 160.378 186.192C160.858 186.309 161.232 186.485 161.498 186.72C161.776 186.944 161.914 187.221 161.914 187.552C161.914 187.797 161.856 188.011 161.738 188.192C161.632 188.363 161.493 188.512 161.322 188.64C161.077 188.469 160.752 188.325 160.346 188.208C159.941 188.08 159.493 188.016 159.002 188.016C158.49 188.016 158.106 188.101 157.85 188.272C157.594 188.432 157.466 188.645 157.466 188.912C157.466 189.125 157.552 189.301 157.722 189.44C157.893 189.568 158.149 189.685 158.49 189.792L159.37 190.064C160.341 190.363 161.088 190.763 161.61 191.264C162.133 191.755 162.394 192.416 162.394 193.248C162.394 194.144 162.048 194.875 161.354 195.44C160.661 195.995 159.658 196.272 158.346 196.272C157.696 196.272 157.114 196.203 156.602 196.064C156.09 195.925 155.68 195.723 155.37 195.456C155.072 195.189 154.922 194.88 154.922 194.528C154.922 194.251 155.002 194.016 155.162 193.824C155.333 193.621 155.52 193.472 155.722 193.376C156.01 193.611 156.368 193.824 156.794 194.016C157.232 194.197 157.722 194.288 158.266 194.288ZM165.967 188.256L165.951 186.304H170.895C170.959 186.4 171.017 186.533 171.071 186.704C171.124 186.875 171.151 187.056 171.151 187.248C171.151 187.589 171.071 187.845 170.911 188.016C170.761 188.176 170.553 188.256 170.287 188.256H165.967ZM168.223 186.304L168.239 188.256H163.295C163.22 188.16 163.156 188.027 163.103 187.856C163.06 187.685 163.039 187.504 163.039 187.312C163.039 186.96 163.113 186.704 163.263 186.544C163.423 186.384 163.631 186.304 163.887 186.304H168.223ZM165.839 187.824H168.287V195.984C168.18 196.016 168.02 196.043 167.807 196.064C167.593 196.096 167.375 196.112 167.151 196.112C166.671 196.112 166.329 196.027 166.127 195.856C165.935 195.685 165.839 195.387 165.839 194.96V187.824ZM172.62 189.216H174.988V195.904C174.892 195.925 174.743 195.952 174.54 195.984C174.348 196.016 174.14 196.032 173.916 196.032C173.522 196.032 173.207 195.915 172.972 195.68C172.738 195.445 172.62 195.131 172.62 194.736V189.216ZM174.988 193.088H172.62V187.6C172.62 187.195 172.738 186.88 172.972 186.656C173.207 186.421 173.522 186.304 173.916 186.304C174.14 186.304 174.348 186.32 174.54 186.352C174.743 186.384 174.892 186.411 174.988 186.432V193.088ZM173.916 192.016V190.096H178.748C178.812 190.203 178.871 190.336 178.924 190.496C178.978 190.656 179.004 190.832 179.004 191.024C179.004 191.365 178.924 191.616 178.764 191.776C178.615 191.936 178.412 192.016 178.156 192.016H173.916ZM173.916 196.032V194.096H179.276C179.34 194.192 179.399 194.325 179.452 194.496C179.506 194.667 179.532 194.848 179.532 195.04C179.532 195.381 179.452 195.632 179.292 195.792C179.143 195.952 178.94 196.032 178.684 196.032H173.916ZM173.916 188.224V186.304H179.196C179.271 186.4 179.33 186.528 179.372 186.688C179.426 186.848 179.452 187.024 179.452 187.216C179.452 187.557 179.378 187.813 179.228 187.984C179.079 188.144 178.871 188.224 178.604 188.224H173.916ZM183.74 190.848H184.78C185.313 190.848 185.74 190.731 186.06 190.496C186.39 190.251 186.556 189.893 186.556 189.424C186.556 188.965 186.401 188.619 186.092 188.384C185.782 188.139 185.308 188.016 184.668 188.016C184.486 188.016 184.321 188.021 184.172 188.032C184.022 188.043 183.878 188.064 183.74 188.096V190.848ZM185.004 192.736H181.324V187.152C181.324 186.949 181.382 186.789 181.5 186.672C181.617 186.555 181.772 186.464 181.964 186.4C182.316 186.272 182.726 186.181 183.196 186.128C183.676 186.075 184.172 186.048 184.684 186.048C186.124 186.048 187.206 186.352 187.932 186.96C188.657 187.557 189.02 188.373 189.02 189.408C189.02 190.048 188.844 190.624 188.492 191.136C188.15 191.637 187.676 192.032 187.068 192.32C186.47 192.597 185.782 192.736 185.004 192.736ZM184.556 192.16L186.732 191.648C186.977 191.989 187.228 192.325 187.484 192.656C187.75 192.987 188.001 193.307 188.236 193.616C188.481 193.925 188.7 194.213 188.892 194.48C189.084 194.736 189.238 194.955 189.356 195.136C189.26 195.456 189.089 195.707 188.844 195.888C188.598 196.059 188.321 196.144 188.012 196.144C187.617 196.144 187.313 196.059 187.1 195.888C186.897 195.707 186.705 195.472 186.524 195.184L184.556 192.16ZM181.324 191.824H183.756V195.984C183.66 196.016 183.505 196.043 183.292 196.064C183.078 196.096 182.86 196.112 182.636 196.112C182.156 196.112 181.814 196.027 181.612 195.856C181.42 195.685 181.324 195.387 181.324 194.96V191.824Z" fill="#FF9F00"/>
<defs>
<linearGradient id="paint0_linear_2673_8069" x1="0.156747" y1="8.59772" x2="68.5884" y2="10.9691" gradientUnits="userSpaceOnUse">
<stop stop-color="#E03F37"/>
<stop offset="0.529167" stop-color="#AA7669"/>
<stop offset="1" stop-color="#09A3DE"/>
</linearGradient>
<linearGradient id="paint1_linear_2673_8069" x1="68.2694" y1="7.88935" x2="-1.562" y2="8.72848" gradientUnits="userSpaceOnUse">
<stop stop-color="#E3423A"/>
<stop offset="0.544792" stop-color="#A77945"/>
<stop offset="1" stop-color="#01A358"/>
</linearGradient>
<linearGradient id="paint2_linear_2673_8069" x1="2.19712" y1="11.3584" x2="67.7725" y2="9.3407" gradientUnits="userSpaceOnUse">
<stop stop-color="#07A1DD"/>
<stop offset="0.534375" stop-color="#AB70B0"/>
<stop offset="1" stop-color="#DD3B94"/>
</linearGradient>
<linearGradient id="paint3_linear_2673_8069" x1="-0.338156" y1="10.4652" x2="69.332" y2="6.6409" gradientUnits="userSpaceOnUse">
<stop stop-color="#DC3C94"/>
<stop offset="1" stop-color="#FDE728"/>
</linearGradient>
<linearGradient id="paint4_linear_2673_8069" x1="0.156747" y1="8.59772" x2="68.5884" y2="10.9691" gradientUnits="userSpaceOnUse">
<stop stop-color="#E03F37"/>
<stop offset="0.529167" stop-color="#AA7669"/>
<stop offset="1" stop-color="#09A3DE"/>
</linearGradient>
<linearGradient id="paint5_linear_2673_8069" x1="68.2694" y1="7.88935" x2="-1.562" y2="8.72848" gradientUnits="userSpaceOnUse">
<stop stop-color="#E3423A"/>
<stop offset="0.544792" stop-color="#A77945"/>
<stop offset="1" stop-color="#01A358"/>
</linearGradient>
<linearGradient id="paint6_linear_2673_8069" x1="2.19712" y1="11.3584" x2="67.7725" y2="9.3407" gradientUnits="userSpaceOnUse">
<stop stop-color="#07A1DD"/>
<stop offset="0.534375" stop-color="#AB70B0"/>
<stop offset="1" stop-color="#DD3B94"/>
</linearGradient>
<linearGradient id="paint7_linear_2673_8069" x1="-0.338156" y1="10.4652" x2="69.332" y2="6.6409" gradientUnits="userSpaceOnUse">
<stop stop-color="#DC3C94"/>
<stop offset="1" stop-color="#FDE728"/>
</linearGradient>
</defs>
</svg>
