<svg width="278" height="202" viewBox="0 0 278 202" fill="none" xmlns="http://www.w3.org/2000/svg">
<path opacity="0.08" d="M79.1216 160.485C67.555 160.624 56.9801 161.846 45.549 162.173C39.7689 162.339 20.7974 161.884 17.1331 165.121C11.3517 170.227 26.6407 169.914 25.0758 173.775C24.7655 174.541 23.5989 175.067 22.888 175.734C21.6117 176.931 21.9395 178.563 23.2865 179.733C29.1867 184.858 50.761 183.368 59.8251 183.455C112.264 183.957 164.845 184.553 216.993 182.86C228.24 182.495 239.421 182.034 250.62 181.604C255.744 181.407 262.159 180.895 262.179 179.746C262.23 176.838 252.48 179.891 255.705 174.087C256.742 172.222 262.095 171.852 259.38 168.658C256.395 165.145 249.5 162.432 243.128 161.544C236.619 160.637 229.923 160.779 223.304 160.491C211.154 159.963 198.948 159.862 186.759 159.815C159.108 159.707 131.457 159.887 103.812 160.165C95.5852 160.248 87.3529 160.387 79.1216 160.485Z" fill="black"/>
<path d="M19.5593 70.1706L19.5056 71.3506L55.6978 72.9939L55.7515 71.8139L19.5593 70.1706Z" fill="#BCBEC0"/>
<path d="M29.919 37.0838L28.9735 37.793L55.2491 72.7592L56.1946 72.05L29.919 37.0838Z" fill="#BCBEC0"/>
<path d="M161.95 96.4137L162.109 93.6809L163.281 93.6221L163.586 95.4908L164.145 95.2068L163.723 97.5472L162.503 97.7722L161.95 96.4137Z" fill="#EAC5B0"/>
<path d="M177.223 107.232L168.543 106.471L164.267 96.2314L161.905 97.0028L164.145 111.167L177.703 113.629L177.223 107.232Z" fill="#3B455A"/>
<path d="M53.0356 91.0963L52.6383 88.3779L51.4619 88.4214L51.3191 90.3161L50.7366 90.0808L51.3616 92.3838L52.6012 92.5025L53.0356 91.0963Z" fill="#B9916F"/>
<path d="M36.0326 104.449L48.5297 102.012L50.7032 91.1162L53.1316 91.6818L52.4374 106.815L39.9671 110.975L36.0326 104.449Z" fill="#3B455A"/>
<path d="M87.876 173.268C87.6084 172.974 87.2963 172.813 86.9435 172.868C86.6045 172.922 86.2998 173.151 86.16 173.458C86.0647 173.667 86.0445 173.9 86.0258 174.129C85.928 175.31 85.9368 178.115 87.5121 178.519C88.174 178.689 88.7216 178.219 88.8985 177.625C89.1647 176.73 88.7704 174.252 87.876 173.268Z" fill="#3B455A"/>
<path d="M88.4364 155.443L88.354 162.65C88.4498 165.851 87.9496 169.07 88.0454 172.271C88.0674 173.007 88.2595 173.784 88.0737 174.513C87.8922 175.227 87.3117 175.353 86.7161 174.992C85.9179 174.508 86.0466 173.377 85.9136 172.552C85.5485 170.285 85.1201 168.029 84.7385 165.765C84.5514 164.655 84.9369 163.099 84.8529 161.976C84.8529 161.975 83.6876 155.936 83.6876 155.936L88.4364 155.443Z" fill="#EAC5B0"/>
<path d="M80.1949 143.799L83.3343 157.732L84.001 170.889L88.979 170.777L90.3326 133.974L80.6827 134.149L80.1949 143.799Z" fill="#3B455A"/>
<path d="M94.9963 173.006C94.717 172.727 94.3988 172.585 94.0498 172.661C93.7144 172.734 93.4205 172.982 93.2941 173.297C93.2082 173.512 93.1981 173.747 93.189 173.977C93.1422 175.165 93.2709 177.972 94.8583 178.283C95.5252 178.414 96.0511 177.912 96.2018 177.307C96.429 176.395 95.9298 173.938 94.9963 173.006Z" fill="#3B455A"/>
<path d="M92.3724 156.455L92.7947 163.65C92.8294 165.65 93.096 167.634 93.3032 169.62C93.4956 171.464 93.1961 173.386 94.1612 175.064C94.4637 175.59 95.0756 175.94 95.503 175.301C95.8323 174.809 95.6367 173.987 95.6998 173.428C95.9576 171.147 96.2791 168.873 96.5533 166.593C96.6878 165.476 96.2293 163.94 96.2601 162.814C96.2601 162.813 97.1391 156.727 97.1391 156.727L92.3724 156.455Z" fill="#EAC5B0"/>
<path d="M98.6719 142.947L99.077 156.472L96.9525 170.148L91.8889 170.3L92.1123 155.498L89.4329 143.223L88.5334 135.188L96.5679 134.241L98.6719 142.947Z" fill="#3B455A"/>
<path d="M92.3158 106.562L83.6599 106.355L78.641 115.681L80.425 124.416L80.7424 134.868L93.0899 135.037L97.1528 134.378L96.0741 123.209L96.6925 108.29L92.3158 106.562Z" fill="white"/>
<path d="M80.7596 130.752L80.3621 132.196L82.3892 133.85L83.9642 133.14L84.3799 131.444L83.1441 130.965L83.1961 130.579L82.8588 130.147L80.7596 130.752Z" fill="#EAC5B0"/>
<path d="M83.6697 106.688L73.0964 118.279L71.507 122.97L80.1502 132.024L82.7715 130.262L77.2292 122.688L82.518 118.771L83.6697 106.688Z" fill="white"/>
<path d="M91.9885 112.213L96.4972 121.218L101.359 122.183L110.731 114.27L108.641 111.902L100.336 116.552L95.9323 108.29L91.9885 112.213Z" fill="#ABADB2"/>
<path d="M91.7739 99.3163C90.469 95.5258 85.4605 96.9463 84.4279 100.321C83.7543 102.523 85.4562 105.38 87.7393 106.012C87.7495 106.099 87.757 106.18 87.7573 106.248C87.7588 106.602 87.8025 106.95 87.8548 107.303C87.8743 107.435 89.8726 107.051 90.0953 107.008C90.1734 106.992 90.2603 106.971 90.3023 106.906C90.3829 106.78 90.2517 106.412 90.237 106.272C90.2199 106.108 90.2024 105.943 90.1852 105.779C91.3114 105.23 92.0221 104.06 92.2207 102.869C92.4201 101.672 92.1659 100.455 91.7739 99.3163Z" fill="#EAC5B0"/>
<path d="M88.5062 95.891C88.2376 96.1634 88.1322 96.5434 88.0546 96.9083C88.0083 97.1262 87.9687 97.3514 88.0152 97.5673C88.2012 98.4278 89.0554 98.3829 89.716 98.6601C90.5308 99.0023 91.2331 99.6318 91.6893 100.357C92.4035 101.493 92.0823 102.954 91.7927 104.207C91.6906 104.648 91.4851 105.304 91.8278 105.698C92.1761 106.098 92.9808 106.036 93.3977 105.831C93.7789 105.643 94.0917 105.295 94.5103 105.225C94.953 105.151 95.5515 105.345 95.7577 104.939C95.8151 104.826 95.8204 104.688 95.8927 104.585C96.1373 104.235 96.7459 104.644 97.0909 104.398C97.3029 104.246 97.3014 103.923 97.2296 103.668C97.1578 103.412 97.037 103.153 97.0871 102.893C97.13 102.67 97.2913 102.493 97.3911 102.29C97.588 101.888 97.52 101.365 97.2268 101.026C96.6814 100.395 95.6263 100.515 95.042 99.9219C94.7377 99.6128 94.6197 99.1674 94.5062 98.7455C94.3927 98.3238 94.2565 97.8792 93.9313 97.5933C93.5294 97.2403 92.9489 97.3002 92.5524 96.8815C92.3194 96.6356 92.1639 96.3152 91.9024 96.1013C91.5576 95.819 90.8839 95.6021 90.4552 95.4582C89.7752 95.2299 89.0145 95.3754 88.5062 95.891Z" fill="#3B455A"/>
<path d="M85.3382 101.94C85.315 103.187 85.9352 104.536 85.36 105.634C84.7795 106.743 83.3323 106.942 82.099 107C81.8961 107.01 79.2932 107.234 79.2821 107.185C79.0873 106.316 78.8856 105.43 78.4312 104.667C77.9765 103.904 77.2166 103.272 76.3462 103.217C76.5974 103.174 76.724 102.867 76.695 102.607C76.6659 102.348 76.5317 102.115 76.4541 101.866C76.2636 101.255 76.4491 100.541 76.9105 100.112C77.8312 99.254 79.5007 99.6103 80.29 98.6255C80.7795 98.015 80.7212 97.1292 80.9777 96.3836C81.4735 94.9421 83.0533 94.6403 84.2338 93.9894C85.48 93.3021 86.6537 92.9256 88.0922 93.165C89.8754 93.4619 91.201 95.2756 90.5131 96.9828C89.6311 99.1719 86.1045 98.9831 85.4441 101.206C85.3734 101.445 85.3428 101.69 85.3382 101.94Z" fill="#3B455A"/>
<path d="M86.2205 106.513L88.9057 110.305L90.1681 110.201L92.272 106.355L86.2205 106.513Z" fill="#7DB5DB"/>
<path d="M193.477 36.6944L193.321 37.8652L236.76 43.6493L236.916 42.4785L193.477 36.6944Z" fill="#BCBEC0"/>
<path d="M48.8033 76.2626L47.9945 77.124L93.5754 119.841L94.3841 118.98L48.8033 76.2626Z" fill="#BCBEC0"/>
<path d="M194.111 39.6639L193.447 40.6416L249.706 78.7523L250.37 77.7747L194.111 39.6639Z" fill="#BCBEC0"/>
<path d="M46.8605 137.98C46.6533 135.847 46.4382 133.714 46.1756 131.587C45.6517 127.344 44.9385 123.111 43.7317 119.003C43.2708 117.434 42.739 115.887 42.2073 114.34C41.5598 112.457 40.9126 110.573 40.2651 108.69C39.4604 106.349 38.1025 104.7 35.7248 103.881C35.3002 103.734 34.8532 103.622 34.3924 103.539C34.3811 103.588 34.371 103.637 34.3646 103.688C34.3371 103.913 34.2727 104.162 34.1304 104.326L35.691 104.341C35.691 104.341 40.094 119.714 40.2557 122.363C40.3171 123.371 40.5218 125.569 40.7493 127.886L43.1404 128.237L43.243 137.097C43.3769 137.135 43.5101 137.173 43.642 137.207C44.4007 137.409 45.0179 137.961 45.6482 138.394C46.5792 139.034 46.9874 139.287 46.8605 137.98Z" fill="#3B455A"/>
<path d="M28.2464 127.676C28.6816 125.512 29.0217 123.515 29.0531 122.432C29.1468 119.174 29.5641 108.415 29.5641 108.415L31.5879 104.3L31.9615 104.304C31.9347 104.301 31.9076 104.297 31.8808 104.294C31.9187 103.943 31.9026 103.652 31.8487 103.396C28.3199 103.609 24.7031 105.457 23.6905 108.89C23.6071 109.173 23.5421 109.462 23.5183 109.755C23.3771 111.519 23.9164 112.822 23.4071 114.593C22.9646 116.132 22.5635 117.694 22.2691 119.269C21.843 121.548 21.4493 123.817 21.1394 126.08C20.7962 128.586 20.5544 131.085 20.4841 133.569C20.4763 133.844 20.4209 134.612 20.3898 135.529C20.3249 137.451 20.3666 140.022 21.1763 140.118C21.328 140.136 21.4743 140.069 21.6077 140.004C22.6495 139.498 23.4703 138.838 24.389 138.261L24.4383 128.236L28.2464 127.676Z" fill="#3B455A"/>
<path d="M36.7981 135.764C36.625 135.777 36.4486 135.791 36.2691 135.805L34.5562 152.249L36.3975 176.166H36.415V175.805H39.4866L43.3827 149.172L43.2429 137.096C41.3808 136.56 39.3633 135.735 37.4183 135.752C37.2121 135.754 37.0051 135.759 36.7981 135.764Z" fill="#3B455A"/>
<path d="M40.7495 127.885C41.1096 131.55 41.5276 135.511 41.5276 135.511C41.5276 135.511 39.5945 135.556 36.7981 135.765C37.0048 135.76 37.2118 135.754 37.4183 135.752C39.3633 135.735 41.3805 136.561 43.2429 137.096L43.1403 128.236L40.7495 127.885Z" fill="#3B455A"/>
<path d="M36.4153 176.166V177.445L39.6987 179.085L41.3404 177.445L39.6987 175.805H39.4869L39.4341 176.166H36.4153Z" fill="#3B455A"/>
<path d="M36.4153 176.166H39.4341L39.4869 175.805H36.4153V176.166Z" fill="#3B455A"/>
<path d="M31.9728 136.228C31.8978 136.237 31.823 136.245 31.7477 136.254C29.7921 136.672 28.5226 136.836 27.6982 136.879C26.9052 137.087 26.1323 137.349 25.4085 137.693C25.0474 137.865 24.7125 138.058 24.3895 138.26L24.3792 140.348L28.1074 175.804H31.1641V176.165H31.1816L34.5426 152.383L34.5565 152.249L34.4802 151.258L31.9728 136.228Z" fill="#3B455A"/>
<path d="M27.698 136.88C26.3646 136.949 26.1988 136.702 26.1988 136.702C26.1988 136.702 27.4018 131.875 28.2464 127.677L24.4388 128.237L24.3895 138.262C24.7125 138.059 25.0474 137.866 25.4085 137.694C26.1321 137.35 26.9052 137.087 27.698 136.88Z" fill="#3B455A"/>
<path d="M31.9728 136.228L34.4801 151.258L34.5564 152.249L36.2694 135.805C34.9661 135.908 33.5015 136.045 31.9728 136.228Z" fill="#3B455A"/>
<path d="M28.1071 175.805H27.8804L26.2386 177.445L27.8804 179.085L31.1638 177.445V176.166H28.1452L28.1071 175.805Z" fill="#3B455A"/>
<path d="M28.1071 175.805L28.1452 176.166H31.1638V175.805H28.1071Z" fill="#3B455A"/>
<path d="M33.9084 104.477C33.7811 104.518 33.6426 104.503 33.5094 104.487C32.9936 104.427 32.4775 104.365 31.9617 104.304L31.5881 104.301L29.5643 108.416C29.5643 108.416 29.147 119.175 29.0533 122.432C29.0222 123.516 28.682 125.513 28.2466 127.676L30.4913 127.346L30.3253 126.351L31.5338 126.529L31.4499 126.387L31.9591 106.552L31.6306 105.261C31.5389 104.901 31.811 104.552 32.1826 104.552H34.2026C34.6742 104.552 34.9416 105.092 34.6555 105.466L33.8263 106.552L35.9949 126.537L37.2545 126.351L37.1499 127.355L40.75 127.885C40.5223 125.569 40.3178 123.37 40.2564 122.363C40.0947 119.713 35.6917 104.34 35.6917 104.34L34.1311 104.325C34.1139 104.344 34.0962 104.363 34.0767 104.38C34.028 104.422 33.9724 104.456 33.9084 104.477Z" fill="white"/>
<path d="M36.2694 135.805C36.4488 135.791 36.6252 135.778 36.7984 135.765C36.623 135.769 36.4476 135.774 36.2722 135.78L36.2694 135.805Z" fill="white"/>
<path d="M36.272 135.78C36.4476 135.774 36.6228 135.769 36.7982 135.765C39.5946 135.556 41.5277 135.511 41.5277 135.511C41.5277 135.511 41.1099 131.551 40.7495 127.885L37.1494 127.355L36.272 135.78Z" fill="white"/>
<path d="M31.5336 126.529L30.3253 126.352L30.4911 127.346L31.8937 127.14L31.5336 126.529Z" fill="white"/>
<path d="M30.1328 136.389C29.3208 136.515 28.4991 136.669 27.6982 136.879C28.5226 136.836 29.7923 136.673 31.7477 136.255C31.823 136.246 31.8978 136.237 31.9729 136.228L31.9564 136.13C31.3466 136.206 30.7383 136.293 30.1328 136.389Z" fill="white"/>
<path d="M35.7634 127.151L37.1494 127.355L37.254 126.352L35.9947 126.537L36.0326 126.887L35.7634 127.151Z" fill="white"/>
<path d="M31.9564 136.129L30.4911 127.346L28.2463 127.676C27.4017 131.875 26.1987 136.702 26.1987 136.702C26.1987 136.702 26.3645 136.948 27.6979 136.879C28.4991 136.669 29.3204 136.515 30.1324 136.389C30.7382 136.293 31.3465 136.206 31.9564 136.129Z" fill="white"/>
<path d="M31.9564 136.13L31.9728 136.228C33.5016 136.045 34.9661 135.908 36.2695 135.805L36.272 135.779C34.834 135.831 33.3912 135.95 31.9564 136.13Z" fill="white"/>
<path d="M36.272 135.779L37.1494 127.355L35.7635 127.151L33.3168 129.554L31.8937 127.14L30.4911 127.346L31.9564 136.129C33.3911 135.95 34.834 135.83 36.272 135.779Z" fill="white"/>
<path d="M35.9948 126.536L33.8261 106.552L34.6553 105.466C34.9414 105.092 34.674 104.552 34.2024 104.552H32.1824C31.8109 104.552 31.5387 104.901 31.6304 105.261L31.959 106.552L31.4497 126.387L31.5336 126.529L33.7897 126.861L35.9948 126.536Z" fill="#7DB5DB"/>
<path d="M33.7897 126.861L31.5336 126.529L31.8937 127.14L33.7897 126.861Z" fill="#7DB5DB"/>
<path d="M35.7635 127.151L36.0326 126.886L35.9947 126.536L33.7897 126.86L35.7635 127.151Z" fill="#7DB5DB"/>
<path d="M31.8937 127.139L33.3168 129.553L35.7634 127.151L33.7896 126.86L31.8937 127.139Z" fill="#7DB5DB"/>
<path d="M34.3927 103.538C34.5943 102.671 35.5534 102.28 36.0703 101.511C36.6558 100.639 36.9624 99.6223 37.0951 98.5875C37.0974 98.5698 37.0996 98.5522 37.1019 98.5345C37.0261 98.5759 36.9467 98.611 36.8638 98.6393C36.7625 98.2242 36.9571 97.802 37.0493 97.3846C37.0726 97.2793 37.0769 97.1702 37.0703 97.0601C36.3286 96.9321 35.5802 96.6569 35.0351 96.4193C33.9006 95.9244 31.691 95.3974 30.5128 95.9817C29.5813 96.4438 29.8673 97.9174 29.9141 98.8493C29.9262 99.089 29.9447 99.3329 29.8893 99.5659C29.8325 99.8058 29.6831 99.9679 29.5898 100.17C29.6937 100.533 29.8638 100.877 30.1408 101.19C30.8873 102.032 31.6468 102.446 31.848 103.397C32.7156 103.344 33.5764 103.392 34.3927 103.538Z" fill="#B9916F"/>
<path d="M31.8809 104.294C31.9076 104.298 31.9347 104.301 31.9615 104.304L34.1306 104.325C34.2729 104.162 34.3374 103.912 34.3649 103.687C34.3712 103.636 34.3813 103.587 34.3927 103.538C33.5764 103.392 32.7156 103.344 31.8488 103.396C31.9026 103.652 31.9188 103.943 31.8809 104.294Z" fill="#B9916F"/>
<path d="M33.5091 104.487C33.6423 104.502 33.7808 104.518 33.9082 104.476C33.9724 104.455 34.0277 104.422 34.076 104.38C34.0955 104.363 34.1132 104.344 34.1303 104.324L31.9612 104.304C32.4775 104.365 32.9933 104.426 33.5091 104.487Z" fill="#EAC5B0"/>
<path d="M37.1171 97.0684C37.2159 97.5388 37.1634 98.0478 37.1017 98.5344C37.6122 98.2556 37.962 97.6948 38.171 97.1156C37.8386 97.1507 37.4795 97.1277 37.1171 97.0684Z" fill="#3B455A"/>
<path d="M37.1171 97.0689C37.1015 97.0664 37.0861 97.0631 37.0704 97.0605C37.077 97.1706 37.0727 97.2797 37.0494 97.385C36.9572 97.8024 36.7623 98.2246 36.8639 98.6397C36.9468 98.6117 37.0262 98.5763 37.102 98.5349C37.1634 98.0481 37.216 97.539 37.1171 97.0689Z" fill="#3B455A"/>
<path d="M29.5312 97.3225C29.5466 96.9534 29.5646 96.5734 29.7207 96.2386C29.9947 95.651 30.6328 95.3268 31.2525 95.1344C32.8333 94.6435 34.6416 94.7645 36.0336 95.6598C36.4041 95.8982 36.7501 96.1977 36.9508 96.5895C36.9821 96.6504 37.0084 96.713 37.0321 96.7764C36.9384 96.3206 36.7266 95.8666 36.7989 95.5389C36.9033 95.0665 37.5571 94.9642 37.9215 95.2248C38.1826 95.4116 38.3264 95.7437 38.3532 96.0742C38.3799 96.4047 38.3026 96.7355 38.196 97.0478C38.1881 97.0708 38.1795 97.0935 38.1712 97.1165C38.3971 97.0925 38.6109 97.0428 38.804 96.9582C39.7977 96.5229 40.6055 94.7877 40.5718 93.7196C40.5562 93.2197 40.3654 92.7727 39.9183 92.471C39.5326 92.2109 39.0881 91.995 38.8541 91.5814C38.6723 91.2605 38.6456 90.8631 38.4654 90.5411C38.1391 89.9581 37.4312 89.7867 36.8153 89.589C35.2744 89.0946 34.445 88.5239 32.8129 89.1567C31.6526 89.6066 30.1534 89.667 29.0765 90.3235C28.6267 90.5977 28.2441 91.0378 27.9302 91.5284C26.8422 93.2277 26.5811 95.6174 27.2895 97.39C27.4482 97.7866 27.6497 98.1515 27.865 98.501C28.2959 99.1996 28.7574 100.059 29.5201 100.401C29.5325 100.316 29.5582 100.241 29.5908 100.17C29.3346 99.2751 29.4928 98.2649 29.5312 97.3225Z" fill="#3B455A"/>
<path d="M29.9146 98.8499C29.8676 97.918 29.5817 96.4444 30.5133 95.9823C31.6913 95.398 33.9009 95.925 35.0356 96.4199C35.5805 96.6575 36.3291 96.9327 37.0708 97.0607C37.0652 96.9665 37.0519 96.8714 37.0321 96.7762C37.0084 96.713 36.9821 96.6504 36.9508 96.5893C36.7501 96.1974 36.4041 95.898 36.0336 95.6596C34.6416 94.7642 32.8336 94.6435 31.2525 95.1341C30.6331 95.3266 29.995 95.651 29.7207 96.2383C29.5646 96.5732 29.5466 96.9534 29.5312 97.3223C29.4928 98.2649 29.3346 99.2749 29.5906 100.17C29.6836 99.968 29.833 99.8059 29.8901 99.566C29.9452 99.3335 29.9265 99.0896 29.9146 98.8499Z" fill="#3B455A"/>
<path d="M38.3527 96.0734C38.3259 95.7429 38.1824 95.4109 37.9211 95.224C37.5566 94.9634 36.9028 95.0657 36.7985 95.5381C36.7262 95.8659 36.938 96.3198 37.0317 96.7756C37.0676 96.8713 37.0962 96.9688 37.1171 97.0685C37.4796 97.1281 37.8387 97.1508 38.171 97.1157C38.1794 97.0927 38.1879 97.07 38.1958 97.047C38.3022 96.735 38.3798 96.4042 38.3527 96.0734Z" fill="#3B455A"/>
<path d="M37.032 96.7764C37.0517 96.8716 37.0648 96.9667 37.0706 97.0609C37.0863 97.0637 37.1017 97.0667 37.1174 97.0693C37.0962 96.9695 37.0676 96.8718 37.032 96.7764Z" fill="#3B455A"/>
<path d="M235.136 100.486C234.451 101.581 234.787 102.982 235.089 104.183C235.213 104.673 235.425 105.368 234.95 105.734C234.419 106.144 233.544 105.753 233.269 105.234C233.074 104.868 233.054 104.449 233.049 104.045C233.028 102.233 233.001 99.6954 233.693 98.0155C234.248 96.6686 236.723 94.7459 238.195 96.1765C238.463 96.4363 238.572 96.8005 238.653 97.1502C238.702 97.359 238.744 97.5751 238.701 97.7827C238.531 98.6101 237.692 98.5725 237.048 98.8432C236.253 99.1772 235.573 99.7865 235.136 100.486Z" fill="#3B455A"/>
<path d="M236.704 105.689C235.582 105.173 234.863 104.049 234.65 102.901C234.437 101.754 234.669 100.584 235.038 99.4875C236.264 95.8396 241.199 97.1701 242.26 100.404C243.185 103.221 239.967 107.191 236.704 105.689Z" fill="#EAC5B0"/>
<path d="M241.502 102.069C241.402 102.526 241.479 103.068 241.398 103.544C241.247 104.421 240.715 105.452 240.78 106.317C241.671 106.469 242.878 106.262 243.696 105.876C244.531 105.482 244.695 104.556 245.118 103.72C245.508 102.948 245.937 102.183 246.151 101.344C247.32 96.7505 243.591 92.8625 238.978 93.6472C237.232 93.9442 235.957 95.6945 236.657 97.3289C237.409 99.0868 240.013 99.2477 241.113 100.723C241.356 101.05 241.47 101.535 241.502 102.069Z" fill="#3B455A"/>
<path d="M236.709 105.377C236.674 105.722 236.638 106.067 236.602 106.412C236.586 106.57 236.451 106.993 236.529 107.132C236.569 107.204 236.655 107.225 236.731 107.239C236.95 107.281 238.916 107.641 238.937 107.491C238.994 107.09 239.042 106.694 239.048 106.293C239.053 105.97 239.185 105.404 239.101 105.129C238.705 105.28 238.328 105.328 237.914 105.326C237.515 105.324 237.116 105.314 236.718 105.297C236.715 105.324 236.712 105.351 236.709 105.377Z" fill="#EAC5B0"/>
<path d="M222.169 134.389L220.803 134.124L219.435 136.068L220.216 137.446L221.816 137.711L222.406 135.745L222.169 134.389Z" fill="#EAC5B0"/>
<path d="M235.04 109.975L228.785 109.928L226.795 123.859L220.792 133.787L222.458 135.707L230.396 127.732L235.04 109.975Z" fill="#305399"/>
<path d="M232.965 174.597C233.193 174.211 233.505 173.962 233.914 173.941C234.308 173.921 234.707 174.102 234.939 174.406C235.097 174.613 235.177 174.865 235.255 175.111C235.654 176.385 236.333 179.466 234.663 180.276C233.961 180.616 233.231 180.228 232.886 179.617C232.368 178.697 232.202 175.885 232.965 174.597Z" fill="#3B455A"/>
<path d="M235.992 154.968L235.772 163.057C235.827 166.652 235.196 170.258 235.251 173.853C235.264 174.68 235.471 175.555 235.245 176.371C235.024 177.169 234.355 177.301 233.677 176.886C232.768 176.329 232.935 175.062 232.797 174.134C232.417 171.583 231.964 169.043 231.565 166.495C231.369 165.246 231.839 163.506 231.762 162.244C231.762 162.243 230.529 155.445 230.529 155.445L235.992 154.968Z" fill="#EAC5B0"/>
<path d="M238.694 174.914C238.986 174.57 239.336 174.374 239.743 174.418C240.135 174.461 240.497 174.703 240.673 175.04C240.793 175.27 240.828 175.53 240.862 175.785C241.034 177.106 241.169 180.252 239.381 180.786C238.63 181.01 237.977 180.51 237.744 179.853C237.393 178.863 237.718 176.063 238.694 174.914Z" fill="#3B455A"/>
<path d="M237.134 154.951L237.599 163.03C237.654 166.625 238.394 170.21 238.448 173.805C238.461 174.632 238.28 175.513 238.531 176.321C238.776 177.112 239.449 177.224 240.114 176.789C241.005 176.205 240.799 174.943 240.91 174.011C241.212 171.45 241.588 168.898 241.909 166.339C242.067 165.085 241.544 163.359 241.583 162.095C241.583 162.094 242.61 155.262 242.61 155.262L237.134 154.951Z" fill="#EAC5B0"/>
<path d="M241.247 106.851L233.951 107.268L229.987 110.257C229.987 110.257 230.398 122.714 230.247 127.325C230.095 131.937 229.792 135.684 229.391 142.431C228.949 149.854 230.844 158.783 230.844 158.783L246.269 158.549C246.269 158.549 249.41 141.653 247.794 137.274C246.179 132.894 247.14 128.534 247.085 124.95C247.031 121.366 245.523 109.352 245.523 109.352L241.247 106.851Z" fill="#7DB5DB"/>
<path d="M244.7 107.8L248.44 110.892C248.44 110.892 246.856 124.682 246.788 126.968C246.721 129.253 247.986 136.037 247.986 136.037L242.555 135.543C242.555 135.543 240.046 131.891 239.456 127.057C238.866 122.223 242.118 106.722 242.118 106.722L244.7 107.8Z" fill="#305399"/>
<path d="M231.366 108.002L228.57 109.94C228.57 109.94 229.85 124.94 229.98 127.222C230.11 129.504 228.22 136.798 228.22 136.798L234.181 135.669C234.181 135.669 236.415 131.946 236.824 127.097C237.232 122.247 233.744 106.849 233.744 106.849L231.366 108.002Z" fill="#305399"/>
<path d="M255.799 96.1614L257.419 96.7036L259.412 94.4401L258.692 92.5706L256.786 91.9932L255.738 94.4023L255.799 96.1614Z" fill="#EAC5B0"/>
<path d="M242.194 114.142L253.1 110.633L258.582 96.0772L255.334 95.2705L248.89 106.33L242.235 107.738L242.194 114.142Z" fill="#305399"/>
<path d="M146.046 82.6468L93.6587 118.927L94.3322 119.898L146.72 83.6176L146.046 82.6468Z" fill="#BCBEC0"/>
<path d="M92.2994 48.9327L91.6763 49.9365L146.066 83.642L146.689 82.6382L92.2994 48.9327Z" fill="#BCBEC0"/>
<path d="M45.2996 72.9638L45.1879 74.1396L146.32 83.7312L146.432 82.5553L45.2996 72.9638Z" fill="#BCBEC0"/>
<path d="M193.382 36.8429L144.463 82.708L145.272 83.5693L194.191 37.7042L193.382 36.8429Z" fill="#BCBEC0"/>
<path d="M145.186 82.6322L144.541 83.6221L209.263 125.73L209.908 124.74L145.186 82.6322Z" fill="#BCBEC0"/>
<path d="M252.364 77.6883L146.361 81.1426L146.4 82.3232L252.402 78.8689L252.364 77.6883Z" fill="#BCBEC0"/>
<path d="M142.083 110.292C159.744 110.292 174.061 95.988 174.061 78.3429C174.061 60.6978 159.744 46.3936 142.083 46.3936C124.422 46.3936 110.104 60.6978 110.104 78.3429C110.104 95.988 124.422 110.292 142.083 110.292Z" fill="#305399"/>
<path d="M90.8416 60.8183C99.116 60.8183 105.824 54.1165 105.824 45.8496C105.824 37.5826 99.116 30.8809 90.8416 30.8809C82.5671 30.8809 75.8594 37.5826 75.8594 45.8496C75.8594 54.1165 82.5671 60.8183 90.8416 60.8183Z" fill="#7DB5DB"/>
<path d="M38.2576 72.4054C38.2576 63.0116 45.8796 55.3965 55.2818 55.3965C64.684 55.3965 73.1857 63.0116 73.1857 72.4054C73.1857 81.7992 64.684 89.4143 55.2818 89.4143C45.8796 89.4143 38.2576 81.7992 38.2576 72.4054Z" fill="#587BC9"/>
<path d="M96.2563 132.836C103.676 132.836 109.691 126.826 109.691 119.413C109.691 112 103.676 105.99 96.2563 105.99C88.8365 105.99 82.8215 112 82.8215 119.413C82.8215 126.826 88.8365 132.836 96.2563 132.836Z" fill="#305399"/>
<path d="M193.399 53.2561C201.603 53.2561 208.254 46.6116 208.254 38.4152C208.254 30.2187 201.603 23.5742 193.399 23.5742C185.196 23.5742 178.545 30.2187 178.545 38.4152C178.545 46.6116 185.196 53.2561 193.399 53.2561Z" fill="#587BC9"/>
<path d="M209.586 139.705C218.525 139.705 225.772 132.465 225.772 123.533C225.772 114.602 218.525 107.361 209.586 107.361C200.646 107.361 193.399 114.602 193.399 123.533C193.399 132.465 200.646 139.705 209.586 139.705Z" fill="#587BC9"/>
<path d="M250.042 96.6151C260.179 96.6151 268.396 88.405 268.396 78.2773C268.396 68.1496 260.179 59.9395 250.042 59.9395C239.905 59.9395 231.688 68.1496 231.688 78.2773C231.688 88.405 239.905 96.6151 250.042 96.6151Z" fill="#7DB5DB"/>
<path d="M236.84 52.1129C241.846 52.1129 245.905 48.0579 245.905 43.0559C245.905 38.0539 241.846 33.999 236.84 33.999C231.833 33.999 227.775 38.0539 227.775 43.0559C227.775 48.0579 231.833 52.1129 236.84 52.1129Z" fill="#305399"/>
<path d="M30.3252 46.4957C35.3317 46.4957 39.3903 42.4408 39.3903 37.4388C39.3903 32.4368 35.3317 28.3818 30.3252 28.3818C25.3187 28.3818 21.2601 32.4368 21.2601 37.4388C21.2601 42.4408 25.3187 46.4957 30.3252 46.4957Z" fill="#305399"/>
<path d="M19.5308 80.6802C25.0134 80.6802 29.4579 76.2396 29.4579 70.7619C29.4579 65.2843 25.0134 60.8438 19.5308 60.8438C14.0482 60.8438 9.60364 65.2843 9.60364 70.7619C9.60364 76.2396 14.0482 80.6802 19.5308 80.6802Z" fill="#7DB5DB"/>
<path d="M47.2623 128.129C53.3847 128.129 58.3479 123.17 58.3479 117.053C58.3479 110.936 53.3847 105.978 47.2623 105.978C41.1398 105.978 36.1766 110.936 36.1766 117.053C36.1766 123.17 41.1398 128.129 47.2623 128.129Z" fill="#305399"/>
<path d="M33.7316 119.947L35.4797 119.833L36.48 118.657L36.8371 118.742L36.7499 119.186L37.8599 118.447L38.9365 118.56L39.6474 119.811L39.4313 121.282L38.1126 121.856L36.4133 121.662L34.0273 121.922L33.7316 119.947Z" fill="#B9916F"/>
<path d="M34.6494 119.103L25.0933 119.355L27.0365 104.694L20.5121 111.117L19.5308 124.646L23.0447 126.558L36.0869 122.403L34.6494 119.103Z" fill="#3B455A"/>
<path d="M170.43 109.239L173.005 106.734L179.966 107.199C179.966 107.199 180.667 112.145 183.826 123.195C186.987 134.245 182.359 148.312 182.359 148.312C182.359 148.312 164.44 144.057 160.862 143.355L165.35 123.156L170.43 109.239Z" fill="#3B455A"/>
<path d="M176.16 135.843V139.782L170.903 156.854L172.217 174.582L168.931 175.239L163.674 153.571L163.875 147.196L166.302 134.194L176.16 135.843Z" fill="#3B455A"/>
<path d="M171.99 140.508L177.273 176.621H179.674L181.19 156.923L184.476 137.225L171.99 140.508Z" fill="#3B455A"/>
<path d="M169.363 174.902L166.854 177.555L167.579 178.899L172.755 176.417L171.801 174.452L169.363 174.902Z" fill="black"/>
<path d="M177.317 176.113L174.225 178.056L174.59 179.538L180.223 178.427L179.791 176.286L177.317 176.113Z" fill="black"/>
<path d="M176.192 96.542C177.659 98.0923 180.308 98.1438 181.563 99.8763C182.379 101.003 182.359 102.619 181.747 103.905C181.462 104.504 181.046 105.061 180.48 105.399C180.113 105.618 179.696 105.738 179.277 105.8C178.718 105.882 178.149 105.857 177.602 105.737C177.509 106.233 177.461 106.738 177.459 107.243C176.481 106.859 175.183 107.179 174.204 106.795C174.425 106.233 174.963 104.965 175.184 104.403C174.977 104.191 174.788 103.962 174.625 103.713C173.642 102.204 173.605 100.103 174.532 98.5128C174.966 97.7679 175.58 97.1477 176.192 96.542Z" fill="#B9916F"/>
<path d="M176.155 97.3779L181.546 101.237L179.097 105.809L181.466 105.974L186.309 99.2555L179.581 92.8466L175.018 91.877L173.548 93.7371L174.572 97.9481L176.155 97.3779Z" fill="#3B455A"/>
<path d="M172.725 107.007L182.13 107.035C182.13 107.035 183.501 110.257 186.661 121.307C189.821 132.358 185.194 146.424 185.194 146.424C185.194 146.424 169.165 138.511 165.587 137.809L168.185 121.269L172.725 107.007Z" fill="white"/>
<path d="M186.779 121.543C183.619 110.493 182.13 107.035 182.13 107.035L173.018 106.694L173.005 106.734C173.179 107.186 173.36 107.635 173.516 108.092C174.136 109.899 174.594 111.758 174.875 113.648C175.369 116.968 175.421 120.382 175.315 123.733C175.213 126.947 174.881 130.156 174.31 133.322C173.554 137.507 172.349 141.585 170.796 145.532C178.071 147.008 186.633 148.755 186.633 148.755C186.633 148.755 189.939 132.593 186.779 121.543Z" fill="#3B455A"/>
<path d="M169.324 124.111C168.97 125.599 168.591 127.275 168.894 128.722C168.894 128.722 169.869 130.759 169.953 130.675C169.957 130.61 171.065 129.696 171.376 129.014C171.905 127.851 172.019 126.399 172.03 125.087C172.069 120.431 171.793 115.738 172.579 111.148C173.496 110.87 174.283 110.196 173.719 109.239C171.934 109.915 171.745 113.929 171.355 115.567C170.679 118.415 170.001 121.263 169.324 124.111Z" fill="#3B455A"/>
<path d="M109.877 114.969L110.585 113.649L108.974 111.588L107.281 111.932L106.5 113.493L107.599 114.234L107.463 114.598L107.696 115.094L109.877 114.969Z" fill="#EAC5B0"/>
<path d="M165.294 68.5455C164.026 65.5481 162.209 62.8567 159.896 60.5456C157.583 58.2344 154.889 56.4197 151.889 55.1522C148.782 53.8394 145.483 53.1738 142.082 53.1738C138.682 53.1738 135.383 53.8394 132.276 55.1522C129.276 56.42 126.582 58.2347 124.269 60.5456C121.956 62.8567 120.139 65.5483 118.871 68.5455C117.557 71.6495 116.89 74.9459 116.89 78.343C116.89 81.7404 117.556 85.0368 118.871 88.1405C120.139 91.1377 121.956 93.8294 124.269 96.1405C126.582 98.4516 129.276 100.266 132.276 101.534C135.383 102.847 138.682 103.512 142.082 103.512C145.483 103.512 148.782 102.847 151.889 101.534C154.889 100.266 157.583 98.4516 159.896 96.1405C162.209 93.8294 164.026 91.1377 165.294 88.1405C166.608 85.0365 167.275 81.7404 167.275 78.343C167.275 74.9456 166.608 71.6493 165.294 68.5455ZM129.838 77.5671C129.838 75.5963 130.064 73.667 130.508 71.7962H140.815V83.7682H130.589C130.09 81.7308 129.838 79.6565 129.838 77.5671ZM148.409 61.0182C150.228 63.1438 151.677 65.459 152.714 67.8991C152.905 68.3491 153.08 68.8041 153.244 69.2629H143.35V56.351C144.537 57.203 146.472 58.7558 148.409 61.0182ZM140.815 56.599V69.2629H131.256C131.413 68.8218 131.582 68.3839 131.764 67.9511C132.792 65.5185 134.228 63.2094 136.032 61.0877C137.808 59.0003 139.6 57.5024 140.815 56.599ZM140.815 86.3011V99.8919C139.609 98.8465 137.87 97.1762 136.13 94.9378C134.297 92.5807 132.839 90.0775 131.795 87.4974C131.635 87.1007 131.484 86.7018 131.343 86.3011H140.815ZM143.35 100.176V86.3011H153.157C153.022 86.6861 152.878 87.0694 152.724 87.4507C151.689 90.0232 150.241 92.5201 148.422 94.8724C146.504 97.3517 144.568 99.1505 143.35 100.176ZM143.35 83.7682V71.7962H153.993C154.437 73.667 154.662 75.5963 154.662 77.5671C154.662 79.6565 154.41 81.7308 153.912 83.7682H143.35ZM156.592 71.796H163.782C164.412 73.8922 164.739 76.0922 164.739 78.3428C164.739 80.1954 164.517 82.0136 164.087 83.768H156.516C156.969 81.728 157.198 79.6548 157.198 77.5668C157.198 75.6021 156.993 73.6738 156.592 71.796ZM158.103 62.3365C160.134 64.3654 161.731 66.7116 162.849 69.2631H155.919C155.665 68.4672 155.376 67.682 155.047 66.9093C153.909 64.2306 152.324 61.6947 150.335 59.3722C149.307 58.1711 148.281 57.1552 147.346 56.3187C151.386 57.2744 155.094 59.3298 158.103 62.3365ZM126.062 62.3365C129.182 59.2187 133.054 57.1237 137.268 56.2172C136.303 57.0722 135.235 58.1223 134.165 59.3722C132.177 61.6947 130.591 64.2306 129.453 66.9093C129.124 67.682 128.835 68.4675 128.581 69.2631H121.316C122.434 66.7116 124.031 64.3651 126.062 62.3365ZM120.383 71.796H127.909C127.507 73.6738 127.302 75.6019 127.302 77.5668C127.302 79.6548 127.531 81.7278 127.985 83.768H120.078C119.648 82.0136 119.425 80.1954 119.425 78.3428C119.425 76.0925 119.753 73.8922 120.383 71.796ZM126.062 94.3495C123.737 92.0268 121.981 89.2876 120.861 86.3013H128.671C128.9 87.022 129.157 87.7378 129.444 88.4471C130.576 91.2438 132.152 93.9503 134.127 96.4917C135.418 98.1517 136.704 99.5179 137.808 100.578C133.384 99.7386 129.315 97.5999 126.062 94.3495ZM158.103 94.3495C154.954 97.4959 151.04 99.6005 146.781 100.493C147.865 99.4455 149.117 98.1072 150.373 96.4917C152.349 93.9503 153.924 91.2435 155.056 88.4471C155.343 87.7378 155.6 87.022 155.83 86.3013H163.305C162.184 89.2876 160.428 92.0268 158.103 94.3495Z" fill="white"/>
<path d="M264.104 76.2767C262.58 73.7274 259.44 72.5192 256.579 73.2863C256.574 73.2878 256.569 73.2881 256.563 73.2888C255.684 73.608 254.949 74.2281 254.633 75.2063C254.564 75.4212 254.224 75.3293 254.294 75.1129C254.633 74.0643 255.393 73.3823 256.315 73.0139C255.308 69.845 252.24 67.6005 248.869 67.85C245.552 68.0957 242.857 70.6113 242.215 73.8383C242.494 73.9044 242.768 73.9958 243.033 74.1165C244.088 74.5965 244.907 75.424 245.49 76.415C245.605 76.611 245.301 76.788 245.186 76.5925C244.994 76.2666 244.771 75.9583 244.518 75.6767C243.579 74.6316 242.237 74.0092 240.823 74.0723C239.394 74.136 237.853 74.8988 236.891 75.9421C235.789 77.1377 235.194 78.7547 235.341 80.3838C235.485 81.9827 236.318 83.4737 237.609 84.4347C238.806 85.326 240.199 85.7313 241.678 85.7876C242.649 85.8244 243.62 85.8383 244.591 85.8515C247.366 85.8891 250.142 85.8999 252.918 85.907C254.137 85.9103 255.356 85.9121 256.576 85.9128C257.577 85.9136 258.631 85.9936 259.618 85.8035C262.845 85.1823 265.287 82.2268 264.966 78.8956C264.877 77.9719 264.581 77.0733 264.104 76.2767Z" fill="white"/>
<path d="M61.5032 76.7693C60.4251 76.3373 59.238 76.5976 58.4371 77.3379L52.9138 74.2067C53.2931 73.1288 53.2024 71.989 52.7422 71.0212L57.9582 67.5755C58.2789 67.8947 58.6676 68.156 59.1137 68.3348C60.8916 69.0471 62.918 68.1815 63.6309 66.4052C64.3439 64.6289 63.4775 62.6043 61.6996 61.892C59.9217 61.1797 57.8953 62.0453 57.1824 63.8216C56.8773 64.5819 56.8616 65.3874 57.0828 66.1163L51.7141 69.6627C51.3686 69.3612 50.9678 69.1115 50.5184 68.9315C48.3728 68.0717 45.9271 69.1166 45.0666 71.2603C44.2061 73.404 45.2519 75.8474 47.3975 76.7072C49.0352 77.3632 50.8475 76.91 51.9964 75.7055L57.5693 78.8648C57.2792 80.2235 58.0012 81.638 59.3346 82.1723C60.8257 82.7697 62.525 82.0438 63.123 80.5541C63.7209 79.0648 62.9943 77.3667 61.5032 76.7693Z" fill="white"/>
<path d="M209.3 133.486C211.083 133.486 212.528 132.042 212.528 130.261C212.528 128.479 211.083 127.035 209.3 127.035C207.517 127.035 206.071 128.479 206.071 130.261C206.071 132.042 207.517 133.486 209.3 133.486Z" fill="white"/>
<path opacity="0.06" d="M211.684 128.516C211.81 128.925 211.859 129.367 211.824 129.811C211.771 130.482 211.513 131.155 211.062 131.657C210.586 132.185 209.98 132.529 209.33 132.684C209.005 132.762 208.671 132.792 208.343 132.775C208.331 132.774 208.319 132.774 208.307 132.773C208.465 132.891 208.64 132.99 208.831 133.066C210.105 133.569 211.591 132.832 212.15 131.419C212.567 130.364 212.351 129.232 211.684 128.516Z" fill="black"/>
<path d="M215.328 128.312C212.754 126.014 209.965 125.307 207.04 126.213C204.801 126.905 203.337 128.275 203.322 128.289L201.661 126.608C201.737 126.536 203.551 124.839 206.32 123.983C208.93 123.175 212.891 122.971 216.938 126.584L215.328 128.312Z" fill="white"/>
<path d="M218.032 125.761C215.962 123.904 213.765 122.751 211.504 122.336C209.713 122.007 207.86 122.134 205.996 122.714C202.765 123.718 200.64 125.717 200.619 125.737L198.954 124.06C199.056 123.963 201.511 121.654 205.273 120.484C207.517 119.787 209.762 119.636 211.945 120.037C214.651 120.534 217.242 121.88 219.646 124.037L218.032 125.761Z" fill="white"/>
<path d="M220.72 123.2C218.034 120.789 215.179 119.288 212.235 118.736C209.894 118.298 207.473 118.452 205.039 119.196C200.803 120.491 197.957 123.151 197.929 123.177L196.265 121.499C196.394 121.376 199.486 118.469 204.235 116.992C207.059 116.114 209.881 115.924 212.625 116.428C216.033 117.054 219.299 118.752 222.334 121.475L220.72 123.2Z" fill="white"/>
<path d="M155.67 101.954L154.644 99.325L155.75 98.8379L156.851 100.483L157.267 100.01L157.871 102.367L156.79 103.028L155.67 101.954Z" fill="#B9916F"/>
<path d="M179.064 110.486L167.46 111.573L157.934 101.501L155.857 102.923L163.514 116.24L179.064 118.824V110.486Z" fill="#3B455A"/>
<path d="M102.325 111.484C101.485 110.964 100.421 110.947 99.5518 111.402C99.3572 111.504 99.1651 111.611 98.9718 111.715C97.9657 112.257 96.9598 112.799 95.9537 113.341C95.2011 113.747 94.4467 114.15 93.6956 114.558C93.0198 114.925 92.4937 115.547 92.2993 116.298C92.1103 117.028 92.2369 117.74 92.5765 118.398C92.1694 118.618 91.7623 118.837 91.3551 119.057C90.6025 119.462 89.8481 119.865 89.097 120.273C88.4212 120.641 87.895 121.262 87.7007 122.013C87.5053 122.767 87.6461 123.502 88.011 124.178C88.2741 124.665 88.5375 125.153 88.8008 125.641C89.0386 126.081 89.2547 126.558 89.5926 126.933C90.2517 127.665 91.3109 127.987 92.268 127.763C92.6372 127.676 92.9594 127.499 93.2882 127.322C95.0909 126.351 96.8939 125.379 98.6966 124.408C98.7464 124.381 98.7964 124.354 98.8462 124.327C99.7242 123.839 100.313 122.9 100.301 121.886C100.296 121.378 100.137 120.94 99.9248 120.508C100.006 120.465 100.088 120.42 100.17 120.376C101.212 119.815 102.253 119.254 103.295 118.692C103.345 118.665 103.395 118.638 103.445 118.612C104.323 118.123 104.912 117.185 104.9 116.17C104.893 115.53 104.643 115 104.348 114.454C104.067 113.932 103.785 113.411 103.504 112.889C103.204 112.335 102.879 111.826 102.325 111.484ZM100.307 112.417C100.296 112.42 100.292 112.421 100.307 112.417V112.417ZM95.7417 118.123C95.7465 118.121 95.7516 118.12 95.7574 118.118C95.8291 118.097 95.9002 118.077 95.9732 118.062C96.0093 118.054 96.046 118.049 96.0821 118.042C96.0945 118.039 96.1041 118.037 96.1119 118.035C96.1193 118.035 96.1284 118.035 96.1392 118.035C96.2305 118.034 96.3202 118.032 96.4112 118.039C96.4223 118.04 96.5027 118.05 96.5173 118.051C96.5365 118.055 96.5555 118.058 96.5744 118.063C96.6887 118.089 96.8001 118.125 96.9085 118.169C96.9103 118.17 96.9113 118.17 96.9128 118.171C96.9189 118.175 96.926 118.179 96.9346 118.184C96.9813 118.212 97.0299 118.236 97.0761 118.265C97.1107 118.286 97.2826 118.419 97.23 118.37C97.2939 118.427 97.3554 118.486 97.4127 118.55C97.4385 118.578 97.4633 118.608 97.4875 118.638C97.4835 118.635 97.5394 118.713 97.551 118.732C97.7582 119.071 97.9331 119.433 98.1216 119.783C98.1608 119.855 98.2 119.927 98.2389 120C98.2015 120.02 98.1638 120.04 98.1264 120.061C98.1057 120.072 98.085 120.083 98.0645 120.094C97.7461 120.266 97.4276 120.437 97.1092 120.609C97.0594 120.635 97.0101 120.663 96.9598 120.689C96.9015 120.72 96.8421 120.748 96.7814 120.774C96.8095 120.759 96.624 120.823 96.5866 120.831C96.5325 120.844 96.4779 120.852 96.4236 120.863C96.415 120.865 96.4081 120.866 96.4016 120.868C96.399 120.868 96.397 120.868 96.3937 120.868C96.2747 120.875 96.1589 120.866 96.0404 120.861C96.0311 120.86 96.0096 120.858 95.9952 120.856C95.956 120.848 95.9171 120.84 95.8787 120.829C95.791 120.807 95.7068 120.777 95.6219 120.746C95.6123 120.742 95.6045 120.739 95.5976 120.737C95.5908 120.732 95.5825 120.727 95.5711 120.721C95.54 120.702 95.5072 120.686 95.4761 120.668C95.4291 120.641 95.3831 120.612 95.3383 120.581C95.3176 120.566 95.2974 120.551 95.2772 120.536C95.2749 120.534 95.2731 120.532 95.2706 120.53C95.195 120.462 95.1225 120.391 95.0563 120.313C95.0437 120.298 95.0318 120.283 95.0197 120.268C95.0194 120.264 94.962 120.185 94.9552 120.173C94.9236 120.121 94.8951 120.068 94.8663 120.015C94.6658 119.645 94.4667 119.275 94.267 118.905C94.588 118.732 94.9092 118.559 95.2302 118.386C95.3217 118.336 95.4129 118.287 95.5044 118.238C95.518 118.231 95.5314 118.223 95.5453 118.216C95.6095 118.182 95.6747 118.151 95.7417 118.123ZM95.7086 118.132C95.6977 118.136 95.6937 118.137 95.7086 118.132V118.132ZM98.8321 121.098C98.8447 121.122 98.8578 121.145 98.8702 121.169C98.897 121.22 98.9205 121.272 98.9463 121.324C98.9496 121.331 98.9526 121.336 98.9551 121.342C98.9561 121.345 98.9571 121.349 98.9587 121.353C98.9961 121.469 99.0191 121.585 99.0438 121.704C99.0456 121.712 99.0479 121.731 99.0494 121.745C99.0517 121.786 99.0534 121.828 99.0532 121.87C99.0532 121.944 99.0474 122.017 99.0403 122.09C99.0388 122.092 99.0264 122.183 99.0234 122.196C99.0153 122.231 99.0062 122.266 98.9963 122.3C98.9814 122.352 98.9647 122.404 98.946 122.455C98.9384 122.475 98.9299 122.495 98.9218 122.516C98.9197 122.52 98.9172 122.525 98.9139 122.532C98.8672 122.62 98.8187 122.706 98.7615 122.788C98.7507 122.804 98.739 122.819 98.7277 122.835C98.7198 122.842 98.6635 122.909 98.6554 122.917C98.5909 122.985 98.5214 123.045 98.4507 123.106C98.4411 123.115 98.4335 123.121 98.4274 123.127C98.4206 123.13 98.4123 123.135 98.4024 123.141C98.3524 123.17 98.3038 123.201 98.2533 123.229C96.6576 124.089 95.0619 124.949 93.4661 125.809C93.1477 125.98 92.8293 126.152 92.5108 126.324C92.461 126.35 92.4115 126.378 92.3617 126.404C92.3033 126.434 92.244 126.463 92.1833 126.489C92.2114 126.474 92.0256 126.537 91.9884 126.546C91.9344 126.559 91.8795 126.566 91.8254 126.578C91.8168 126.579 91.81 126.581 91.8035 126.582C91.8009 126.583 91.7989 126.583 91.7954 126.583C91.6763 126.589 91.5606 126.581 91.4421 126.576C91.4327 126.575 91.4112 126.572 91.3968 126.571C91.3576 126.563 91.3187 126.554 91.2803 126.544C91.1926 126.521 91.1087 126.491 91.0235 126.46C91.0139 126.457 91.0061 126.454 90.9993 126.452C90.9924 126.447 90.9841 126.442 90.9727 126.435C90.9416 126.417 90.9088 126.401 90.8777 126.383C90.8307 126.355 90.7847 126.326 90.74 126.295C90.7192 126.281 90.699 126.266 90.6788 126.251C90.6768 126.249 90.6748 126.247 90.6722 126.245C90.5967 126.176 90.5241 126.105 90.4579 126.028C90.4453 126.013 90.4334 125.998 90.4213 125.982C90.421 125.979 90.3637 125.899 90.3568 125.888C90.3253 125.836 90.2967 125.783 90.2679 125.729C90.0344 125.299 89.8026 124.868 89.5701 124.437C89.3836 124.091 89.187 123.75 89.0106 123.399C88.9934 123.365 88.9785 123.329 88.9613 123.295C88.9557 123.284 88.9512 123.275 88.9474 123.268C88.9456 123.26 88.9431 123.251 88.94 123.239C88.9155 123.149 88.8893 123.061 88.8728 122.969C88.8705 122.956 88.8589 122.855 88.8574 122.86C88.8561 122.831 88.8551 122.804 88.8549 122.776C88.8544 122.73 88.8551 122.685 88.8574 122.64C88.8584 122.621 88.8736 122.493 88.8716 122.485C88.8862 122.412 88.9044 122.338 88.9269 122.266C88.9403 122.223 88.9565 122.181 88.9714 122.139C88.9754 122.128 88.9858 122.105 88.9939 122.088C89.0315 122.015 89.0707 121.944 89.1157 121.875C89.1372 121.843 89.1597 121.811 89.1829 121.779C89.1779 121.789 89.2567 121.697 89.2716 121.681C89.3358 121.615 89.4043 121.554 89.4763 121.497C89.487 121.49 89.4986 121.481 89.5052 121.478C89.5552 121.449 89.6037 121.417 89.6543 121.389C89.6659 121.383 89.6778 121.377 89.6896 121.37C89.7773 121.323 89.8653 121.276 89.953 121.228C90.3232 121.029 90.6937 120.829 91.064 120.63C91.7653 120.252 92.4666 119.874 93.1677 119.496C93.172 119.504 93.176 119.512 93.1803 119.519L93.1758 119.522L93.2139 119.592L93.2192 119.591C93.2791 119.702 93.339 119.813 93.3989 119.924C93.6367 120.365 93.8528 120.842 94.1907 121.217C94.8498 121.949 95.909 122.271 96.8661 122.046C97.2353 121.96 97.5575 121.783 97.8866 121.606C98.1641 121.456 98.4418 121.307 98.7193 121.157C98.7567 121.138 98.7944 121.118 98.8321 121.098ZM102.721 114.067C102.957 114.506 103.195 114.944 103.431 115.382C103.443 115.406 103.456 115.429 103.469 115.453C103.496 115.504 103.519 115.557 103.545 115.609C103.548 115.615 103.551 115.621 103.554 115.626C103.555 115.63 103.556 115.633 103.557 115.638C103.595 115.754 103.618 115.87 103.642 115.989C103.644 115.997 103.647 116.015 103.648 116.03C103.651 116.071 103.652 116.113 103.652 116.155C103.652 116.229 103.646 116.302 103.639 116.375C103.637 116.377 103.625 116.467 103.622 116.481C103.614 116.516 103.605 116.551 103.595 116.585C103.58 116.637 103.563 116.689 103.544 116.739C103.537 116.76 103.528 116.78 103.52 116.801C103.518 116.805 103.516 116.81 103.512 116.816C103.466 116.905 103.417 116.991 103.36 117.073C103.349 117.089 103.337 117.104 103.326 117.12C103.318 117.127 103.262 117.194 103.254 117.202C103.189 117.27 103.12 117.33 103.049 117.391C103.039 117.399 103.032 117.406 103.026 117.411C103.019 117.415 103.011 117.42 103.001 117.425C102.951 117.454 102.902 117.486 102.852 117.514C101.76 118.102 100.668 118.69 99.5768 119.278C99.4972 119.321 99.4176 119.364 99.338 119.407C99.1934 119.139 99.0491 118.872 98.9046 118.604C98.6051 118.05 98.2798 117.541 97.7261 117.198C96.8866 116.679 95.8223 116.661 94.9529 117.117C94.7583 117.219 94.5663 117.326 94.3729 117.43C94.1394 117.555 93.9061 117.681 93.6726 117.807C93.6514 117.766 93.6294 117.725 93.6087 117.684C93.5915 117.65 93.5766 117.614 93.5594 117.58C93.5538 117.569 93.5493 117.56 93.5455 117.553C93.5437 117.545 93.5412 117.536 93.5382 117.524C93.5137 117.435 93.4874 117.346 93.4709 117.254C93.4687 117.242 93.457 117.14 93.4555 117.145C93.4543 117.117 93.4533 117.089 93.453 117.061C93.4525 117.016 93.4533 116.97 93.4555 116.925C93.4565 116.907 93.4717 116.778 93.4697 116.771C93.4841 116.697 93.5025 116.624 93.525 116.552C93.5384 116.509 93.5546 116.467 93.5695 116.424C93.5736 116.413 93.5839 116.391 93.5923 116.374C93.6299 116.301 93.6691 116.229 93.7141 116.161C93.7356 116.128 93.758 116.096 93.7813 116.064C93.7762 116.075 93.8551 115.982 93.87 115.967C93.9342 115.901 94.0027 115.84 94.0747 115.782C94.0851 115.775 94.0969 115.767 94.1035 115.763C94.1536 115.734 94.2021 115.703 94.2526 115.675C94.2643 115.668 94.2761 115.662 94.288 115.655C94.3757 115.608 94.4637 115.561 94.5514 115.514C94.9218 115.314 95.2921 115.114 95.6626 114.915C96.676 114.369 97.6895 113.823 98.7029 113.276C99.078 113.074 99.4533 112.872 99.8283 112.67C99.9198 112.621 100.011 112.571 100.103 112.522C100.116 112.515 100.13 112.507 100.143 112.5C100.208 112.466 100.273 112.435 100.34 112.407C100.345 112.405 100.35 112.404 100.356 112.402C100.428 112.381 100.499 112.361 100.572 112.346C100.608 112.338 100.644 112.334 100.68 112.326C100.693 112.323 100.702 112.321 100.71 112.319C100.718 112.319 100.727 112.319 100.738 112.319C100.829 112.318 100.919 112.316 101.01 112.323C101.021 112.324 101.101 112.335 101.116 112.335C101.135 112.339 101.154 112.342 101.173 112.347C101.287 112.373 101.399 112.409 101.507 112.454C101.509 112.454 101.51 112.455 101.511 112.456C101.518 112.459 101.524 112.464 101.533 112.469C101.58 112.496 101.628 112.52 101.674 112.549C101.709 112.571 101.881 112.703 101.828 112.655C101.892 112.712 101.954 112.771 102.011 112.834C102.037 112.863 102.061 112.893 102.086 112.923C102.082 112.92 102.137 112.997 102.149 113.016C102.357 113.355 102.532 113.717 102.721 114.067Z" fill="white"/>
<path d="M95.2893 36.8815C94.7791 36.195 94.08 35.6953 93.2683 35.4367C92.7188 35.2617 92.1654 35.2617 91.6301 35.2617H90.0723C89.3482 35.2617 88.7118 35.3988 88.1263 35.6806C87.3797 36.0399 86.7307 36.6878 86.3461 37.458C86.0671 38.0162 85.9258 38.6288 85.9258 39.279V47.5047H87.1636V39.2381C87.1636 38.9151 87.1993 38.6945 87.3049 38.3637C87.3868 38.1071 87.5875 37.7385 87.7616 37.5246C87.9936 37.2398 88.2104 37.0545 88.5344 36.8638C88.8296 36.6901 89.123 36.5881 89.5148 36.5225C89.5312 36.5197 89.5843 36.5124 89.7175 36.5035C89.7731 36.5 89.8329 36.4982 89.9062 36.4982H92.087C92.4168 36.4982 92.64 36.5338 92.9711 36.6394C93.2281 36.7212 93.5968 36.9217 93.8106 37.0956C94.096 37.3274 94.2812 37.5441 94.4723 37.8678C94.6461 38.1629 94.7482 38.4558 94.8139 38.8472C94.8167 38.8639 94.8241 38.9167 94.8329 39.0497C94.8364 39.1053 94.8382 39.1646 94.8382 39.2361V47.5047H96.0761V39.2381C96.0758 38.3887 95.8039 37.5736 95.2893 36.8815Z" fill="white"/>
<path d="M84.5112 44.4131V53.3821C84.5112 54.5951 85.4956 55.5786 86.7097 55.5786H94.9736C96.1877 55.5786 97.1721 54.5951 97.1721 53.3821V44.4131H84.5112ZM91.2638 50.1605V52.3201C91.2638 52.4805 91.0768 52.6105 90.8458 52.6105H90.8375C90.6068 52.6105 90.4195 52.4805 90.4195 52.3201V50.1605C89.705 49.9739 89.1776 49.3245 89.1776 48.5521C89.1776 47.634 89.9226 46.8896 90.8415 46.8896C91.7605 46.8896 92.5055 47.634 92.5055 48.5521C92.5057 49.3245 91.9783 49.9739 91.2638 50.1605Z" fill="white"/>
<path d="M194.844 29.6844L194.652 28.7944C194.344 28.755 194.032 28.7295 193.718 28.7191C193.404 28.7088 193.091 28.7138 192.781 28.733L192.531 29.6084C192.246 30.6043 190.977 30.8997 190.281 30.1324L189.667 29.4547C189.093 29.6938 188.541 29.9892 188.018 30.3382L188.24 31.2224C188.492 32.2269 187.541 33.1169 186.554 32.7998L185.686 32.5208C185.303 33.0187 184.972 33.5495 184.695 34.1062L185.332 34.7632C186.053 35.5073 185.674 36.7532 184.661 36.9716L183.77 37.1635C183.731 37.4713 183.705 37.7826 183.695 38.0967C183.685 38.4108 183.69 38.7229 183.709 39.0328L184.585 39.2827C185.582 39.567 185.878 40.8348 185.11 41.5302L184.431 42.1443C184.671 42.7182 184.966 43.2694 185.316 43.7914L186.201 43.5697C187.206 43.3179 188.097 44.2683 187.779 45.2541L187.5 46.1219C187.999 46.5045 188.53 46.8353 189.087 47.1115L189.745 46.4754C190.489 45.7551 191.736 46.1333 191.955 47.1456L192.147 48.0356C192.455 48.075 192.766 48.1005 193.081 48.1109C193.395 48.1212 193.708 48.1162 194.018 48.097L194.268 47.2216C194.552 46.2257 195.821 45.9303 196.517 46.6976L197.132 47.3754C197.707 47.1362 198.258 46.8408 198.781 46.4919L198.559 45.6076C198.307 44.6032 199.258 43.7131 200.245 44.0302L201.113 44.3092C201.496 43.8113 201.827 43.2806 202.104 42.7238L201.467 42.0668C200.746 41.3227 201.125 40.0768 202.138 39.8584L203.029 39.6665C203.068 39.3587 203.094 39.0474 203.104 38.7335C203.114 38.4194 203.109 38.1073 203.09 37.7975L202.214 37.5475C201.217 37.2632 200.921 35.9954 201.69 35.3L202.368 34.686C202.129 34.112 201.833 33.5608 201.484 33.0389L200.598 33.2606C199.593 33.5123 198.702 32.5619 199.02 31.5762L199.299 30.7083C198.801 30.3258 198.27 29.995 197.712 29.7188L197.054 30.3548C196.309 31.075 195.063 30.697 194.844 29.6844ZM197.372 38.5452C197.3 40.7374 195.463 42.4561 193.269 42.3842C191.074 42.3122 189.354 40.4768 189.426 38.2843C189.498 36.0921 191.335 34.3731 193.529 34.4453C195.724 34.5173 197.444 36.353 197.372 38.5452Z" fill="white"/>
<path d="M54.5181 116.206C54.5181 113.38 51.2695 111.089 47.2623 111.089C43.255 111.089 40.0065 113.38 40.0065 116.206C40.0065 117.992 41.3042 119.564 43.2707 120.48L47.3232 124.978L46.6492 121.305C46.8513 121.317 47.0558 121.323 47.2623 121.323C51.2695 121.323 54.5181 119.032 54.5181 116.206ZM44.221 117C43.5869 117 43.5856 116.015 44.221 116.015C44.855 116.015 44.8563 117 44.221 117ZM50.6526 116.015C51.2867 116.015 51.2877 117 50.6526 117C50.0185 117 50.0175 116.015 50.6526 116.015ZM47.6108 116.015C48.2449 116.015 48.2459 117 47.6108 117C46.9767 117 46.9754 116.015 47.6108 116.015Z" fill="white"/>
</svg>
