<svg width="414" height="320" viewBox="0 0 414 320" fill="none" xmlns="http://www.w3.org/2000/svg">
<path d="M78.1932 151.8L55.1284 218.219L153.67 252.439L176.734 186.019L78.1932 151.8Z" fill="#EBEBEB"/>
<path d="M176.728 186.003C176.339 186.231 175.93 186.422 175.506 186.573L171.928 188.019L158.693 193.197L114.802 209.997L114.437 210.131L114.232 209.805L113.726 209.011L88.4336 168.653L80.8559 156.365L78.84 152.998C78.5905 152.615 78.3763 152.21 78.2 151.789C78.5022 152.131 78.7702 152.502 79 152.896L81.1696 156.166L88.9967 168.32L114.533 208.531C114.699 208.806 114.872 209.075 115.032 209.325L114.462 209.133L158.456 192.602L171.8 187.68L175.442 186.4C175.856 186.226 176.287 186.093 176.728 186.003Z" fill="#E0E0E0"/>
<path d="M55.128 218.24C54.9936 218.016 65.5664 211.488 78.7376 203.654C91.9088 195.821 102.699 189.658 102.834 189.882C102.968 190.106 92.3952 196.634 79.2176 204.467C66.04 212.301 55.2624 218.432 55.128 218.24Z" fill="#E0E0E0"/>
<path d="M135.877 200.39C136.12 200.307 140.305 211.91 145.221 226.253C150.136 240.595 153.918 252.339 153.669 252.422C153.419 252.506 149.24 240.902 144.325 226.56C139.409 212.218 135.627 200.474 135.877 200.39Z" fill="#E0E0E0"/>
<path d="M368.987 134.512L271.478 151.039L282.618 216.764L380.127 200.237L368.987 134.512Z" fill="#E0E0E0"/>
<path d="M368.978 134.541C368.759 134.907 368.506 135.252 368.222 135.571L365.912 138.406L357.272 148.749C349.854 157.498 339.704 169.472 328.472 182.733L328.235 183.014L327.915 182.835L327.134 182.406L287.698 160.403L275.8 153.645L272.6 151.77C272.214 151.571 271.849 151.333 271.512 151.059C271.92 151.209 272.314 151.393 272.69 151.61L275.986 153.344L288.024 159.846L327.589 181.606L328.37 182.035L327.813 182.138L356.83 148.326L365.682 138.17C366.699 137.037 367.506 136.128 368.12 135.437C368.382 135.116 368.668 134.816 368.978 134.541Z" fill="#EBEBEB"/>
<path d="M282.61 216.787C282.398 216.659 288.203 206.406 295.576 193.888C302.949 181.37 309.106 171.322 309.317 171.45C309.528 171.578 303.723 181.824 296.35 194.349C288.978 206.874 282.821 216.909 282.61 216.787Z" fill="#EBEBEB"/>
<path d="M341.592 165.12C341.758 164.941 350.552 172.653 361.157 182.355C371.762 192.058 380.286 200.07 380.114 200.275C379.941 200.48 371.192 192.73 360.549 183.04C349.906 173.35 341.4 165.318 341.592 165.12Z" fill="#EBEBEB"/>
<path d="M271.52 30.0397L253.953 74.703L320.219 100.766L337.785 56.1022L271.52 30.0397Z" fill="#EBEBEB"/>
<path d="M337.765 56.6976C337.496 56.8476 337.21 56.9657 336.913 57.0496L334.437 57.9456L325.265 61.1136L294.859 71.3536L294.609 71.4368L294.481 71.2064L294.161 70.656L278.04 42.4256C276.024 38.848 274.385 35.9296 273.214 33.8368L271.934 31.488C271.772 31.2198 271.634 30.937 271.525 30.6432C271.723 30.8846 271.899 31.1439 272.049 31.4176C272.395 32 272.856 32.7616 273.438 33.7088L278.443 42.2016C282.641 49.4528 288.395 59.3728 294.744 70.3616L295.064 70.9184L294.686 70.7712L325.144 60.7104L334.36 57.7088L336.875 56.96C337.164 56.849 337.462 56.7613 337.765 56.6976Z" fill="#E0E0E0"/>
<path d="M253.938 75.3087C253.848 75.1551 261.24 70.9887 270.443 66.0095C279.646 61.0303 287.173 57.1263 287.256 57.2799C287.339 57.4335 279.96 61.5999 270.75 66.5599C261.541 71.5199 254.021 75.4687 253.938 75.3087Z" fill="#E0E0E0"/>
<path d="M309.502 65.3823C309.675 65.3311 312.21 73.3503 315.16 83.3023C318.11 93.2543 320.376 101.338 320.203 101.389C320.03 101.44 317.496 93.4271 314.546 83.4687C311.595 73.5103 309.33 65.4335 309.502 65.3823Z" fill="#E0E0E0"/>
<path d="M390.411 292.531C390.411 292.621 308.286 292.698 207.007 292.698C105.726 292.698 23.5889 292.621 23.5889 292.531C23.5889 292.442 105.694 292.365 207.007 292.365C308.319 292.365 390.411 292.435 390.411 292.531Z" fill="#263238"/>
<path d="M41.6881 118.054L50.8401 114.81L46.9041 109.555C46.7089 108.394 46.6147 107.219 46.6225 106.042C46.6246 105.436 46.7284 104.834 46.9297 104.262C47.1518 103.543 47.4727 102.858 47.8833 102.227C47.9851 102.12 48.0501 101.983 48.0691 101.836C48.088 101.69 48.0598 101.541 47.9886 101.411C47.9174 101.281 47.8068 101.178 47.6728 101.115C47.5388 101.052 47.3884 101.034 47.2433 101.062C46.6033 101.222 45.4001 102.682 44.8561 104.845C44.3121 107.008 42.8273 103.821 42.2961 102.675C41.7649 101.53 39.8321 98.048 39.3393 97.9392C38.6225 97.7792 38.3217 98.5216 38.9105 99.6544C39.4993 100.787 41.0161 104.32 40.3889 104.589C39.7617 104.858 37.0033 98.9568 37.0033 98.9568C37.0033 98.9568 36.6193 97.6 35.8897 97.888C34.5713 98.4 37.9825 104.448 38.3217 105.011C38.5585 105.408 37.8929 105.722 37.6817 105.286C37.4705 104.851 35.0513 99.3408 33.7073 99.8528C32.6769 100.243 36.4657 104.851 36.3313 106.253C36.1969 107.654 33.8161 102.47 32.8433 102.88C32.4849 103.034 32.2033 103.2 34.0337 105.99C34.9301 107.296 35.8935 108.554 36.9201 109.76L41.7009 118.042" fill="#FFBE9D"/>
<path d="M124.062 129.242C124.062 129.242 119.544 118.694 116.427 113.568C113.49 108.742 109.598 107.962 107.525 107.808C106.665 107.544 105.782 107.361 104.888 107.264L87.96 107.13C84.2601 107.163 80.6855 108.475 77.8416 110.842C77.0544 111.482 71.1984 118.278 63.4224 127.955L49.8224 113.235L41.7136 118.035C41.7136 118.035 50.52 148.442 61.5536 146.355C68.12 145.133 73.24 140.576 73.24 140.576L81.848 133.638L82.0464 134.79C82.2192 136.192 82.6544 138.458 82.9872 139.827C84.024 144.173 84.6064 149.894 82.3472 153.683C82.3472 153.683 79.2816 156.032 81.7072 158.611H113.611C113.611 158.611 118.13 155.546 114.002 152.141L111.442 145.67L113.112 137.773L113.752 134.611L116.562 139.424C116.562 139.424 122.117 146.413 127.896 145.555C134.84 144.518 138.866 131.866 132.6 115.136L125.048 117.434L124.062 129.242Z" fill="#FF9F00"/>
<g opacity="0.4">
<path opacity="0.4" d="M41.688 118.054L42.488 120.589L51.4992 115.091L49.7968 113.254L41.688 118.054Z" fill="black"/>
</g>
<g opacity="0.2">
<path opacity="0.2" d="M82.3409 153.683C83.6818 153.482 84.9683 153.013 86.1231 152.302C87.2779 151.592 88.2772 150.655 89.0609 149.549C89.882 148.434 90.4744 147.168 90.8039 145.824C91.1334 144.479 91.1936 143.083 90.9809 141.715C90.946 141.229 90.8095 140.756 90.5802 140.326C90.3509 139.896 90.0339 139.519 89.6497 139.219C88.6449 138.579 87.2689 138.912 86.2257 138.355C85.3681 137.901 84.9137 136.966 84.3057 136.198C83.6977 135.43 82.8849 134.24 82.0017 134.624C82.0017 134.624 83.0705 140.256 83.5377 142.765C84.0049 145.274 84.1777 148.877 83.2753 151.507C83.0439 152.264 82.7306 152.994 82.3409 153.683Z" fill="black"/>
</g>
<path d="M62.1169 133.12C62.1261 132.219 62.2862 131.325 62.5905 130.477C62.7862 129.602 63.056 128.746 63.3969 127.917C63.3955 128.819 63.2352 129.714 62.9233 130.56C62.7277 131.435 62.4579 132.291 62.1169 133.12Z" fill="#263238"/>
<path d="M64.1393 131.744C63.655 130.536 63.3947 129.25 63.3713 127.949C63.664 128.532 63.8504 129.163 63.9217 129.811C64.1033 130.439 64.1769 131.092 64.1393 131.744Z" fill="#263238"/>
<path d="M124.978 94.4896L113.394 113.254L122.507 115.795L132.619 100.198L124.978 94.4896Z" fill="#455A64"/>
<path d="M124.254 110.477L124.645 113.222L126.264 115.302L126.424 117.005L132.235 115.238L129.886 106.918C130.075 105.798 130.152 104.662 130.117 103.526L128.517 105.645L128.075 102.189L124.805 99.5584C124.72 99.496 124.624 99.451 124.521 99.426C124.419 99.4009 124.313 99.3963 124.209 99.4123C124.105 99.4284 124.005 99.4648 123.915 99.5195C123.825 99.5742 123.747 99.6462 123.685 99.7312C123.575 99.8851 123.522 100.073 123.538 100.262C123.553 100.45 123.635 100.627 123.768 100.762L126.398 103.078L126.571 105.939L124.651 104.173C124.464 103.997 124.231 103.878 123.979 103.827L121.336 103.296C121.242 103.278 121.145 103.279 121.051 103.301C120.958 103.322 120.87 103.362 120.793 103.42C120.715 103.477 120.651 103.549 120.604 103.633C120.556 103.716 120.527 103.809 120.517 103.904C120.501 104.062 120.54 104.221 120.627 104.354C120.714 104.487 120.845 104.586 120.997 104.634L123.403 105.37L125.835 107.827L123.454 106.918L120.222 107.373C120.071 107.397 119.933 107.475 119.835 107.593C119.736 107.71 119.683 107.859 119.685 108.013C119.685 108.183 119.752 108.345 119.872 108.465C119.992 108.585 120.155 108.653 120.325 108.653L122.379 108.538L123.589 108.915L120.811 109.651C120.686 109.682 120.576 109.757 120.5 109.861C120.424 109.965 120.387 110.092 120.395 110.221C120.398 110.296 120.417 110.369 120.449 110.437C120.481 110.504 120.527 110.565 120.583 110.614C120.639 110.664 120.705 110.702 120.776 110.725C120.847 110.749 120.922 110.758 120.997 110.752L124.254 110.477Z" fill="#FFBE9D"/>
<g opacity="0.4">
<path opacity="0.4" d="M125.016 117.434L124.766 120.506L133.579 118.08L132.568 115.136L125.016 117.434Z" fill="black"/>
</g>
<path d="M113.394 113.28C113.394 113.28 112.613 112.224 112.677 112.045C112.741 111.866 123.698 93.824 123.698 93.824L124.978 94.5152L113.394 113.28Z" fill="#263238"/>
<path d="M127.877 99.2C127.926 99.1504 127.988 99.1146 128.055 99.096C128.123 99.0774 128.194 99.0767 128.262 99.0941C128.33 99.1114 128.392 99.1461 128.442 99.1947C128.493 99.2434 128.53 99.3043 128.549 99.3716C128.569 99.4388 128.571 99.51 128.554 99.5781C128.538 99.6463 128.505 99.709 128.457 99.7602C128.409 99.8113 128.349 99.8491 128.282 99.8699C128.215 99.8906 128.144 99.8936 128.075 99.8784C128.012 99.8588 127.955 99.8247 127.907 99.779C127.86 99.7332 127.824 99.6769 127.802 99.6147C127.781 99.5525 127.774 99.4861 127.782 99.4208C127.791 99.3554 127.814 99.293 127.851 99.2384" fill="#263238"/>
<path d="M120.6 122.362C120.518 122.532 120.406 122.687 120.267 122.816C119.868 123.189 119.375 123.446 118.84 123.558C117.996 123.731 117.125 123.731 116.28 123.558C115.205 123.303 114.091 123.253 112.997 123.411C111.714 123.785 110.531 124.441 109.535 125.331C108.389 126.208 107.179 127.296 105.554 127.808C104.722 128.044 103.852 128.112 102.994 128.006C102.115 127.872 101.256 127.633 100.434 127.296C98.757 126.656 97.1506 125.709 95.3842 125.069C93.6819 124.405 91.8178 124.276 90.0401 124.698C88.3058 125.056 86.6802 125.658 85.061 125.978C82.1673 126.601 79.1463 126.184 76.5298 124.8C74.7577 123.886 73.2237 122.571 72.0498 120.96C71.6223 120.378 71.2636 119.749 70.981 119.085C71.0258 119.085 71.333 119.776 72.1586 120.883C73.3579 122.431 74.8887 123.691 76.6386 124.57C79.2184 125.899 82.1822 126.284 85.0161 125.658C86.6097 125.312 88.2161 124.704 89.9953 124.333C91.8339 123.892 93.7633 124.024 95.525 124.71C97.3298 125.35 98.9425 126.298 100.587 126.95C101.385 127.279 102.219 127.513 103.071 127.648C103.885 127.747 104.711 127.686 105.503 127.469C107.039 126.995 108.242 125.946 109.394 125.069C110.431 124.167 111.658 123.511 112.984 123.149C114.108 122.995 115.251 123.061 116.351 123.341C117.166 123.526 118.01 123.548 118.834 123.405C119.35 123.317 119.836 123.096 120.242 122.765C120.369 122.637 120.488 122.503 120.6 122.362Z" fill="#FAFAFA"/>
<path d="M124.248 134.554C124.047 133.622 123.959 132.671 123.986 131.718C123.897 130.769 123.925 129.813 124.069 128.87C124.27 129.801 124.358 130.753 124.331 131.706C124.42 132.655 124.392 133.611 124.248 134.554Z" fill="#263238"/>
<path d="M104.286 252.23C104.562 253.344 111.09 289.946 111.09 289.946L121.093 289.197L119.262 251.821L104.286 252.23Z" fill="#FFBE9D"/>
<path d="M121.394 289.779L121.362 288.723L110.706 288.947L110.77 292.416H111.41C114.341 292.512 126.322 292.71 128.261 292.128C130.45 291.494 121.394 289.779 121.394 289.779Z" fill="#FF9F00"/>
<g opacity="0.3">
<path opacity="0.3" d="M114.616 292.262C114.427 291.419 113.926 290.679 113.215 290.189C112.487 289.679 111.604 289.441 110.719 289.517L110.776 292.275L114.616 292.262Z" fill="black"/>
</g>
<g opacity="0.3">
<path opacity="0.3" d="M125.823 290.765C125.823 290.765 129.023 291.552 128.619 292.045C128.216 292.538 116.12 292.762 110.77 292.422V292.198L124.901 292.058C124.901 292.058 125.208 290.797 125.823 290.765Z" fill="black"/>
</g>
<path d="M110.616 292.192H110.795H111.32L113.24 292.237C114.872 292.237 117.118 292.269 119.608 292.237C122.098 292.205 124.344 292.109 125.976 292.026L127.896 291.917L128.414 291.878H128.6H128.414H127.89L125.97 291.949C124.344 292.006 122.091 292.083 119.608 292.122C117.125 292.16 114.872 292.173 113.24 292.173H110.616V292.192Z" fill="#263238"/>
<path d="M124.914 292.205C124.989 291.903 125.103 291.613 125.253 291.341C125.437 291.083 125.652 290.848 125.893 290.643C125.569 290.754 125.3 290.982 125.138 291.283C124.948 291.55 124.868 291.88 124.914 292.205Z" fill="#263238"/>
<path d="M121.752 290.784C121.752 290.784 121.925 290.63 122.078 290.4C122.232 290.17 122.322 289.971 122.29 289.952C122.258 289.933 122.117 290.106 121.97 290.336C121.822 290.566 121.72 290.765 121.752 290.784Z" fill="#263238"/>
<path d="M120.882 290.374C120.882 290.374 121.074 290.291 121.253 290.138C121.432 289.984 121.554 289.837 121.534 289.811C121.515 289.786 121.342 289.894 121.163 290.048C120.984 290.202 120.856 290.355 120.882 290.374Z" fill="#263238"/>
<path d="M120.318 289.453C120.497 289.513 120.688 289.533 120.875 289.51C121.061 289.53 121.249 289.508 121.426 289.446C121.246 289.39 121.056 289.37 120.869 289.389C120.683 289.375 120.496 289.396 120.318 289.453Z" fill="#263238"/>
<path d="M120.12 288.8C120.312 288.919 120.535 288.975 120.76 288.96C120.978 288.993 121.201 288.959 121.4 288.864C121.187 288.848 120.973 288.848 120.76 288.864C120.549 288.824 120.335 288.802 120.12 288.8Z" fill="#263238"/>
<path d="M122.091 289.92C122.318 289.956 122.549 289.956 122.776 289.92C123.02 289.889 123.26 289.833 123.493 289.754C123.638 289.717 123.778 289.661 123.909 289.587C123.948 289.567 123.982 289.539 124.01 289.505C124.037 289.47 124.057 289.431 124.069 289.389C124.081 289.341 124.076 289.291 124.057 289.246C124.037 289.2 124.003 289.163 123.96 289.139C123.7 289.02 123.408 288.99 123.129 289.057C122.851 289.123 122.603 289.28 122.424 289.504C122.324 289.63 122.252 289.776 122.213 289.933C122.213 290.042 122.213 290.106 122.213 290.106C122.274 289.907 122.374 289.722 122.507 289.562C122.661 289.388 122.861 289.262 123.083 289.197C123.349 289.107 123.64 289.12 123.896 289.235C124.005 289.306 123.967 289.427 123.851 289.491C123.729 289.558 123.6 289.611 123.467 289.651C123.24 289.731 123.007 289.793 122.77 289.837C122.354 289.92 122.091 289.92 122.091 289.92Z" fill="#263238"/>
<path d="M122.27 289.92C122.344 289.785 122.367 289.628 122.334 289.478C122.31 289.311 122.244 289.153 122.142 289.018C122.08 288.922 121.995 288.843 121.894 288.788C121.793 288.733 121.681 288.704 121.566 288.704C121.533 288.709 121.502 288.721 121.473 288.739C121.445 288.757 121.421 288.78 121.402 288.808C121.383 288.835 121.369 288.866 121.362 288.899C121.355 288.932 121.355 288.966 121.362 288.998C121.379 289.101 121.42 289.197 121.483 289.28C121.578 289.419 121.69 289.546 121.816 289.658C121.926 289.772 122.062 289.858 122.213 289.907C122.213 289.907 122.072 289.798 121.88 289.6C121.768 289.485 121.669 289.359 121.586 289.222C121.49 289.094 121.419 288.851 121.586 288.819C121.676 288.828 121.763 288.856 121.841 288.902C121.919 288.947 121.987 289.008 122.04 289.082C122.138 289.2 122.206 289.341 122.238 289.491C122.264 289.633 122.274 289.776 122.27 289.92Z" fill="#263238"/>
<path d="M110.77 289.491C110.77 289.491 111.077 289.459 111.557 289.491C112.176 289.553 112.769 289.774 113.279 290.131C113.768 290.48 114.149 290.959 114.379 291.514C114.552 291.936 114.571 292.218 114.597 292.218C114.611 292.152 114.611 292.085 114.597 292.019C114.574 291.839 114.534 291.661 114.475 291.488C114.26 290.902 113.871 290.396 113.362 290.035C112.836 289.659 112.215 289.437 111.57 289.395C111.376 289.376 111.181 289.376 110.987 289.395C110.84 289.459 110.77 289.478 110.77 289.491Z" fill="#263238"/>
<path d="M115.928 291.277C116.439 291.381 116.962 291.419 117.483 291.392C118.003 291.407 118.523 291.36 119.032 291.251C119.032 291.213 118.334 291.251 117.477 291.251C116.619 291.251 115.934 291.245 115.928 291.277Z" fill="#263238"/>
<path d="M113.848 291.315C113.848 291.315 113.906 291.45 113.983 291.597C114.059 291.744 114.098 291.872 114.136 291.872C114.175 291.872 114.187 291.712 114.098 291.546C114.008 291.379 113.874 291.29 113.848 291.315Z" fill="#263238"/>
<path d="M113.048 290.419C113.048 290.419 113.093 290.547 113.202 290.65C113.31 290.752 113.426 290.816 113.451 290.79C113.477 290.765 113.406 290.662 113.291 290.56C113.176 290.458 113.067 290.4 113.048 290.419Z" fill="#263238"/>
<path d="M111.915 290.029C111.915 290.061 112.062 290.061 112.222 290.106C112.382 290.15 112.491 290.227 112.517 290.208C112.542 290.189 112.453 290.048 112.261 289.99C112.069 289.933 111.902 289.997 111.915 290.029Z" fill="#263238"/>
<path d="M111.109 289.85C111.109 289.85 111.16 289.926 111.25 289.958C111.339 289.99 111.422 289.99 111.435 289.958C111.448 289.926 111.384 289.875 111.294 289.843C111.205 289.811 111.122 289.818 111.109 289.85Z" fill="#263238"/>
<path d="M78.8401 249.178C78.7889 250.323 74.6353 285.965 74.6353 285.965L84.4209 288.134L93.4512 251.821L78.8401 249.178Z" fill="#FFBE9D"/>
<path d="M84.8625 289.082L85.0865 288.058L74.6801 285.734L73.9185 289.12L74.5585 289.299C77.3809 290.093 88.9713 293.139 91.0001 293.03C93.2529 292.909 84.8625 289.082 84.8625 289.082Z" fill="#FF9F00"/>
<g opacity="0.3">
<path opacity="0.3" d="M77.72 289.92C77.74 289.056 77.4311 288.216 76.856 287.571C76.2709 286.902 75.4688 286.46 74.5904 286.323L73.9888 289.018L77.72 289.92Z" fill="black"/>
</g>
<g opacity="0.3">
<path opacity="0.3" d="M88.9328 291.098C88.9328 291.098 91.832 292.621 91.3456 293.018C90.8592 293.414 79.0385 290.733 73.9185 289.133L73.9825 288.922L87.7425 292.122C87.7425 292.122 88.3249 290.982 88.9328 291.098Z" fill="black"/>
</g>
<path d="M73.8225 288.864L73.9953 288.922L74.5009 289.069L76.3633 289.568C77.9441 289.978 80.1265 290.522 82.5521 291.072C84.9777 291.622 87.1857 292.077 88.7857 292.384L90.7057 292.736L91.2241 292.819H91.4097L91.2305 292.774L90.7185 292.666L88.7985 292.275C87.1985 291.942 84.9969 291.482 82.5713 290.931C80.1457 290.381 77.9633 289.85 76.3761 289.459L74.5201 289.024L74.0081 288.902C73.9485 288.88 73.8859 288.868 73.8225 288.864Z" fill="#263238"/>
<path d="M87.7041 292.282C87.8517 292.007 88.0322 291.751 88.2417 291.52C88.4857 291.316 88.7519 291.14 89.0353 290.995C88.6977 291.033 88.3846 291.189 88.1521 291.437C87.8992 291.65 87.7387 291.953 87.7041 292.282Z" fill="#263238"/>
<path d="M84.9712 290.15C84.9712 290.15 85.1824 290.042 85.3808 289.85C85.5792 289.658 85.72 289.491 85.6944 289.472C85.6688 289.453 85.4896 289.581 85.2912 289.766C85.0928 289.952 84.9456 290.125 84.9712 290.15Z" fill="#263238"/>
<path d="M84.2224 289.549C84.3712 289.535 84.5142 289.485 84.6384 289.402C84.8496 289.293 85.0096 289.178 84.9904 289.152C84.9712 289.126 84.7856 289.184 84.5744 289.293C84.3632 289.402 84.2096 289.517 84.2224 289.549Z" fill="#263238"/>
<path d="M83.8961 288.518C83.2263 288.506 82.5773 288.751 82.0827 289.203C81.5881 289.655 81.2855 290.279 81.2373 290.947C81.189 291.615 81.3988 292.277 81.8234 292.795C82.248 293.313 82.8551 293.649 83.5197 293.733C84.1843 293.817 84.8559 293.643 85.3961 293.246C85.9363 292.85 86.304 292.262 86.4236 291.603C86.5432 290.944 86.4055 290.264 86.0389 289.703C85.6723 289.142 85.1047 288.744 84.4529 288.589C84.2742 288.527 84.0846 288.503 83.8961 288.518Z" fill="#263238"/>
<path d="M83.8577 287.834C84.0116 287.987 84.2075 288.092 84.4209 288.134C84.624 288.215 84.8457 288.237 85.0609 288.198C84.8665 288.12 84.6651 288.06 84.4593 288.019C84.2635 287.943 84.0624 287.881 83.8577 287.834Z" fill="#263238"/>
<path d="M85.5088 289.389C85.7135 289.469 85.9294 289.516 86.1488 289.53C86.3957 289.553 86.6443 289.553 86.8912 289.53C87.0381 289.523 87.1839 289.502 87.3264 289.466C87.4136 289.443 87.489 289.388 87.5376 289.312C87.5575 289.267 87.5639 289.217 87.5559 289.168C87.548 289.119 87.5261 289.073 87.4928 289.037C87.2673 288.86 86.989 288.764 86.7024 288.764C86.4158 288.764 86.1374 288.86 85.912 289.037C85.7814 289.133 85.6742 289.258 85.5984 289.402C85.5472 289.498 85.5408 289.562 85.5472 289.562C85.6556 289.385 85.7968 289.231 85.9632 289.107C86.1517 288.976 86.3736 288.9 86.6032 288.89C86.8833 288.865 87.1624 288.947 87.384 289.12C87.4736 289.216 87.384 289.318 87.2752 289.357C87.1434 289.393 87.0083 289.417 86.872 289.427C86.6312 289.443 86.3896 289.443 86.1488 289.427C85.7648 289.421 85.5152 289.37 85.5088 289.389Z" fill="#263238"/>
<path d="M85.6753 289.453C85.6753 289.453 85.8161 289.331 85.8481 289.043C85.8615 288.875 85.8329 288.705 85.7649 288.55C85.7263 288.443 85.6617 288.346 85.5769 288.269C85.4921 288.192 85.3896 288.137 85.2785 288.109C85.2452 288.107 85.2119 288.112 85.1805 288.123C85.1491 288.135 85.1204 288.152 85.0959 288.175C85.0715 288.198 85.0518 288.225 85.0381 288.255C85.0244 288.286 85.0169 288.319 85.0161 288.352C85.0086 288.455 85.0262 288.558 85.0673 288.653C85.1246 288.809 85.202 288.958 85.2977 289.094C85.379 289.231 85.4907 289.347 85.6241 289.434C85.6241 289.434 85.5153 289.293 85.3745 289.056C85.2947 288.918 85.2283 288.772 85.1761 288.621C85.1121 288.467 85.1057 288.218 85.2785 288.23C85.4513 288.243 85.5857 288.442 85.6561 288.589C85.7231 288.729 85.7581 288.882 85.7585 289.037C85.7462 289.178 85.7183 289.318 85.6753 289.453Z" fill="#263238"/>
<path d="M74.616 286.278C74.616 286.278 74.9168 286.317 75.3776 286.477C75.9644 286.676 76.4894 287.025 76.9008 287.488C77.2934 287.946 77.5505 288.505 77.6432 289.101C77.6694 289.343 77.6822 289.587 77.6816 289.83C77.6816 289.83 77.7136 289.76 77.7264 289.638C77.7466 289.456 77.7466 289.271 77.7264 289.088C77.6562 288.471 77.402 287.889 76.9968 287.418C76.5682 286.935 76.0144 286.581 75.3968 286.394C75.209 286.337 75.0161 286.298 74.8208 286.278C74.753 286.267 74.6837 286.267 74.616 286.278Z" fill="#263238"/>
<path d="M79.1985 289.242C79.6686 289.464 80.1655 289.626 80.6769 289.722C81.1798 289.861 81.6977 289.938 82.2193 289.952C82.2193 289.92 81.5345 289.805 80.7089 289.606C79.8833 289.408 79.2113 289.21 79.1985 289.242Z" fill="#263238"/>
<path d="M77.1697 288.781C77.1697 288.781 77.1697 288.928 77.2337 289.088C77.2977 289.248 77.2785 289.382 77.3169 289.389C77.3553 289.395 77.4065 289.248 77.3617 289.069C77.3169 288.89 77.1953 288.762 77.1697 288.781Z" fill="#263238"/>
<path d="M76.6001 287.725C76.6001 287.725 76.6001 287.859 76.7025 287.981C76.8049 288.102 76.8817 288.192 76.9073 288.179C76.9329 288.166 76.9073 288.045 76.8113 287.923C76.7153 287.802 76.6321 287.706 76.6001 287.725Z" fill="#263238"/>
<path d="M75.5952 287.072C75.5952 287.11 75.736 287.136 75.8768 287.219C76.0176 287.302 76.1136 287.405 76.1456 287.392C76.1776 287.379 76.1456 287.219 75.9408 287.117C75.736 287.014 75.5952 287.04 75.5952 287.072Z" fill="#263238"/>
<path d="M74.8594 286.72C74.8594 286.72 74.8914 286.81 74.9682 286.861C75.045 286.912 75.1282 286.931 75.1474 286.899C75.1666 286.867 75.1474 286.81 75.0386 286.758C74.9298 286.707 74.8786 286.682 74.8594 286.72Z" fill="#263238"/>
<path d="M115.576 90.4448C115.314 89.6832 114.667 89.1136 114.354 88.3712C113.886 87.2576 114.232 85.9968 114.354 84.8C114.475 83.6032 114.226 82.144 113.131 81.6512C112.652 81.5263 112.182 81.3703 111.723 81.184C110.866 80.6464 110.91 79.4304 110.834 78.4256C110.782 77.7611 110.613 77.1111 110.334 76.5056L110.514 76.448C111.162 76.291 111.845 76.3672 112.443 76.6632C113.041 76.9593 113.516 77.4563 113.784 78.0672C113.902 78.3228 113.954 78.6043 113.934 78.8852C113.914 79.1662 113.822 79.4374 113.669 79.6736C113.537 79.8702 113.343 80.0169 113.118 80.09C112.893 80.1631 112.649 80.1585 112.427 80.0768C112.255 79.9871 112.117 79.8432 112.035 79.6673C111.953 79.4915 111.931 79.2935 111.973 79.104C112.027 78.967 112.126 78.8527 112.254 78.7804C112.383 78.7081 112.532 78.6823 112.677 78.7072C112.774 78.7154 112.868 78.7442 112.953 78.7916C113.038 78.8391 113.112 78.9041 113.17 78.9824C113.246 79.0976 113.253 79.1808 113.266 79.1744C113.278 79.168 113.266 79.0912 113.266 78.9504C113.211 78.8475 113.134 78.7587 113.04 78.691C112.945 78.6232 112.836 78.5784 112.722 78.56C112.557 78.5292 112.387 78.5425 112.229 78.5984C112.13 78.6352 112.04 78.6933 111.966 78.7685C111.892 78.8436 111.835 78.9341 111.8 79.0336C111.726 79.2754 111.739 79.5355 111.835 79.7691C111.932 80.0027 112.108 80.1952 112.331 80.3136C112.611 80.4359 112.924 80.4582 113.217 80.3765C113.511 80.2949 113.768 80.1145 113.944 79.8656C114.138 79.5891 114.258 79.2671 114.292 78.9308C114.326 78.5944 114.272 78.2551 114.136 77.9456C113.867 77.2974 113.391 76.7569 112.781 76.4093C112.172 76.0617 111.464 75.9267 110.77 76.0256C110.92 75.7716 111.016 75.4888 111.05 75.1955C111.084 74.9022 111.056 74.605 110.968 74.3232C110.85 73.9798 110.656 73.6676 110.4 73.4104C110.144 73.1532 109.833 72.9576 109.49 72.8384C108.889 72.6175 108.236 72.5818 107.614 72.736C107.089 72.8637 106.589 73.0801 106.136 73.376C105.72 73.6448 105.4 73.9392 105.093 74.1376C104.838 74.3212 104.541 74.4359 104.229 74.4704C103.961 74.4951 103.691 74.4394 103.454 74.3104C103.454 74.3104 103.653 74.6176 104.235 74.6176C104.579 74.6081 104.913 74.504 105.202 74.3168C105.541 74.1248 105.88 73.8368 106.277 73.6C106.721 73.2919 107.231 73.0906 107.766 73.0118C108.301 72.933 108.847 72.9788 109.362 73.1456C109.658 73.2474 109.928 73.4157 110.15 73.6375C110.372 73.8593 110.54 74.1289 110.642 74.4256C110.736 74.7231 110.745 75.0413 110.667 75.3436C110.589 75.6459 110.427 75.92 110.2 76.1344C109.876 75.5448 109.398 75.0539 108.818 74.7136C107.538 73.9904 105.618 74.3424 104.978 75.6608L94.4752 72.0512C93.8168 71.4977 93.0295 71.1191 92.1861 70.9501C91.3428 70.7812 90.4704 70.8275 89.6496 71.0848L89.432 71.0464C88.8256 70.9895 88.2147 71.0909 87.6592 71.3408C86.9621 71.7318 86.354 72.2636 85.8736 72.9024C85.5857 73.2338 85.2465 73.5169 84.8688 73.7408C84.8021 73.7702 84.7337 73.7959 84.664 73.8176C84.1988 73.8701 83.7302 73.8872 83.2624 73.8688C82.3792 73.664 81.464 73.1584 80.376 73.0496C79.7678 72.9673 79.1491 73.0108 78.5584 73.1776C77.9309 73.3624 77.3678 73.7194 76.9328 74.208C76.4755 74.7201 76.2247 75.3838 76.2288 76.0704C76.2372 76.563 76.3148 77.0521 76.4592 77.5232C76.2232 78.1568 76.1187 78.8318 76.152 79.5072C76.1968 80.3968 76.4528 81.3312 76.4656 82.2016C76.2084 82.4025 75.9151 82.5524 75.6016 82.6432C75.0512 82.816 74.456 82.8992 73.8928 83.1168C73.3655 83.3315 72.8904 83.6569 72.4996 84.0709C72.1087 84.4849 71.8113 84.978 71.6272 85.5168C71.4512 85.9472 71.3848 86.4146 71.4339 86.8771C71.4831 87.3395 71.6463 87.7825 71.9088 88.1664C71.7744 88.7505 71.7713 89.3571 71.8997 89.9426C72.0281 90.528 72.2847 91.0777 72.6512 91.552C73.2339 92.1055 73.7831 92.6932 74.296 93.312C74.9872 94.3808 74.8848 95.7568 75.064 97.0176C75.2432 98.2784 75.9664 99.712 77.24 99.7952C78.264 99.8592 79.16 99.0016 80.2096 99.0848C81.6432 99.2 82.232 100.922 83.064 102.099C83.6012 102.839 84.3267 103.422 85.1652 103.786C86.0037 104.151 86.9245 104.284 87.832 104.173C89.112 104 90.4304 103.309 91.704 103.629C93.3104 104.038 94.264 105.92 95.9216 106.157C97.1376 106.33 98.2704 105.517 99.1792 104.685C100.088 103.853 101.003 102.893 102.219 102.675C103.678 102.413 105.086 103.315 106.558 103.494C107.514 103.609 108.482 103.44 109.342 103.009C110.202 102.577 110.917 101.903 111.397 101.069C112.203 99.6032 112.197 97.8048 112.958 96.3136C113.541 95.3637 114.182 94.451 114.878 93.5808C115.48 92.6784 115.947 91.52 115.576 90.4448ZM73.464 85.7216C73.3459 85.6963 73.2238 85.6963 73.1056 85.7216C73.1056 85.7216 73.2144 85.7216 73.3936 85.792L73.1952 85.9392C72.596 86.4382 72.1629 87.1079 71.9536 87.8592C71.795 87.5189 71.7075 87.1498 71.6965 86.7746C71.6855 86.3993 71.7512 86.0257 71.8896 85.6768C72.0655 85.1861 72.3435 84.7384 72.7054 84.3632C73.0673 83.9881 73.5048 83.6941 73.9888 83.5008C74.5008 83.3088 75.0832 83.2256 75.6784 83.0464C75.9362 82.9737 76.182 82.8638 76.408 82.72C76.3808 83.0685 76.2782 83.407 76.1072 83.712C75.5568 84.6656 74.392 85.0688 73.464 85.7216ZM80.632 73.9456C79.7813 74.1063 78.9802 74.4645 78.2932 74.9914C77.6062 75.5183 77.0526 76.1992 76.6768 76.9792C76.6116 76.6914 76.5773 76.3974 76.5744 76.1024C76.5715 75.5044 76.7878 74.926 77.1824 74.4768C77.5779 74.0601 78.0691 73.7461 78.6133 73.5621C79.1575 73.3781 79.7384 73.3296 80.3056 73.4208C80.8952 73.4982 81.4732 73.6465 82.0272 73.8624C81.5607 73.8548 81.0943 73.8826 80.632 73.9456ZM85.8992 73.504C85.7712 73.5616 85.6368 73.6 85.5088 73.6448C85.6955 73.4753 85.8728 73.2958 86.04 73.1072C86.4932 72.487 87.0627 71.961 87.7168 71.5584C88.1999 71.3212 88.7341 71.2068 89.272 71.2256C88.9944 71.3271 88.7283 71.458 88.4784 71.616C87.5824 72.192 86.872 73.056 85.8992 73.504Z" fill="#263238"/>
<path d="M108.664 95.4881C109.163 92.3393 109.01 87.1681 108.741 82.9377C108.685 82.0361 108.446 81.1552 108.041 80.3481C107.635 79.541 107.07 78.8243 106.38 78.2413C105.69 77.6583 104.889 77.221 104.025 76.9557C103.162 76.6904 102.254 76.6026 101.355 76.6977L90.3536 77.8625C89.7988 77.9202 89.2859 78.1847 88.9171 78.6033C88.5483 79.0219 88.3506 79.5639 88.3632 80.1217L89.496 107.149H86.936V112.045C86.936 114.734 88.0041 117.312 89.9053 119.213C91.8064 121.114 94.385 122.182 97.0736 122.182C99.7623 122.182 102.341 121.114 104.242 119.213C106.143 117.312 107.211 114.734 107.211 112.045V107.808C107.211 107.808 104.574 106.944 102.974 107.034H102.584C102.584 104.557 102.789 102.618 102.789 102.618C102.789 102.618 107.659 101.83 108.664 95.4881Z" fill="#FFBE9D"/>
<path d="M107.096 87.04C107.096 87.2518 107.014 87.4555 106.868 87.6082C106.721 87.7609 106.521 87.8509 106.309 87.8592C106.205 87.8679 106.101 87.8556 106.002 87.823C105.903 87.7904 105.811 87.7382 105.733 87.6694C105.655 87.6007 105.591 87.5169 105.546 87.4231C105.501 87.3292 105.475 87.2272 105.47 87.1232C105.47 86.9113 105.552 86.7077 105.699 86.5549C105.846 86.4022 106.046 86.3122 106.258 86.304C106.361 86.2962 106.465 86.3091 106.564 86.342C106.662 86.375 106.753 86.4272 106.832 86.4958C106.91 86.5643 106.973 86.6478 107.019 86.7412C107.064 86.8347 107.09 86.9362 107.096 87.04Z" fill="#263238"/>
<path d="M107.621 85.6321C107.518 85.7345 106.904 85.2801 106.027 85.2801C105.15 85.2801 104.51 85.7217 104.414 85.6129C104.318 85.5041 104.472 85.3761 104.754 85.1713C105.131 84.9133 105.577 84.775 106.034 84.7745C106.493 84.7712 106.941 84.9147 107.314 85.1841C107.576 85.3889 107.672 85.5809 107.621 85.6321Z" fill="#263238"/>
<path d="M98.5392 87.04C98.541 87.2512 98.4606 87.4549 98.3148 87.6078C98.1691 87.7607 97.9695 87.8508 97.7584 87.8592C97.6546 87.8679 97.5502 87.8556 97.4512 87.823C97.3523 87.7904 97.261 87.7382 97.1827 87.6694C97.1044 87.6007 97.0408 87.5169 96.9957 87.4231C96.9506 87.3292 96.9248 87.2272 96.92 87.1232C96.9166 86.9115 96.9965 86.7069 97.1426 86.5536C97.2887 86.4003 97.4892 86.3107 97.7008 86.304C97.8044 86.2962 97.9085 86.3091 98.0071 86.342C98.1056 86.375 98.1966 86.4272 98.2747 86.4958C98.3528 86.5643 98.4164 86.6478 98.4618 86.7412C98.5072 86.8347 98.5335 86.9362 98.5392 87.04Z" fill="#263238"/>
<path d="M99.0192 85.7921C98.9168 85.9009 98.3024 85.4465 97.4256 85.4465C96.5488 85.4465 95.9088 85.8881 95.8128 85.7793C95.7168 85.6705 95.8704 85.5425 96.152 85.3377C96.5263 85.0741 96.9742 84.9352 97.432 84.9409C97.8919 84.9344 98.3413 85.0782 98.712 85.3505C98.9744 85.5553 99.0704 85.7601 99.0192 85.7921Z" fill="#263238"/>
<path d="M102.194 92.2816C102.655 92.1375 103.132 92.0515 103.614 92.0256C103.838 92.0256 104.05 91.9616 104.088 91.808C104.102 91.5849 104.051 91.3627 103.941 91.168C103.73 90.6304 103.512 90.0608 103.301 89.4656C102.386 87.0464 101.72 85.056 101.822 85.0176C102.546 86.4078 103.16 87.8522 103.659 89.3376C103.877 89.9392 104.088 90.5024 104.299 91.0528C104.441 91.3221 104.481 91.6329 104.414 91.9296C104.381 92.0084 104.33 92.0786 104.266 92.1352C104.202 92.1917 104.126 92.233 104.043 92.256C103.92 92.2898 103.793 92.307 103.666 92.3072C103.176 92.3617 102.681 92.3531 102.194 92.2816Z" fill="#263238"/>
<path d="M102.802 102.637C99.8155 102.682 96.8754 101.898 94.3088 100.371C94.3088 100.371 96.3696 104.73 102.712 104.134L102.802 102.637Z" fill="#EB996E"/>
<path d="M101.823 94.3936C101.656 94.1837 101.439 94.0194 101.191 93.9164C100.944 93.8135 100.675 93.775 100.408 93.8048C100.215 93.8231 100.028 93.8801 99.8573 93.9724C99.6869 94.0648 99.5368 94.1907 99.4162 94.3424C99.2985 94.4879 99.2285 94.6662 99.2159 94.8529C99.2033 95.0396 99.2487 95.2257 99.3458 95.3856C99.4878 95.5402 99.6719 95.6499 99.8755 95.7011C100.079 95.7522 100.293 95.7427 100.491 95.6736C100.902 95.5342 101.283 95.3169 101.611 95.0336C101.71 94.9626 101.795 94.8736 101.861 94.7712C101.894 94.7232 101.912 94.6663 101.912 94.608C101.912 94.5498 101.894 94.4929 101.861 94.4448" fill="#EB996E"/>
<path d="M99.6209 92.8897C99.7617 92.8897 99.7617 93.8305 100.575 94.5025C101.387 95.1745 102.399 95.072 102.405 95.2064C102.411 95.3408 102.181 95.3921 101.765 95.4049C101.21 95.4119 100.67 95.2214 100.242 94.8672C99.8263 94.5323 99.5596 94.0471 99.4993 93.5168C99.4801 93.12 99.5569 92.8833 99.6209 92.8897Z" fill="#263238"/>
<path d="M99.4097 84.2624C99.3265 84.4992 98.4497 84.384 97.4257 84.512C96.4017 84.64 95.5697 84.9152 95.4353 84.6976C95.3713 84.6016 95.5185 84.3776 95.8513 84.1472C96.2946 83.8567 96.8021 83.6788 97.3297 83.6288C97.855 83.5657 98.3877 83.6271 98.8849 83.808C99.2625 83.9616 99.4801 84.1472 99.4097 84.2624Z" fill="#263238"/>
<path d="M107.301 83.84C107.147 84.0384 106.539 83.84 105.816 83.84C105.093 83.84 104.479 83.9744 104.338 83.7632C104.274 83.6608 104.338 83.4624 104.639 83.2768C104.997 83.0479 105.417 82.934 105.842 82.9504C106.268 82.957 106.682 83.0957 107.026 83.3472C107.282 83.5392 107.365 83.744 107.301 83.84Z" fill="#263238"/>
<path d="M111.102 77.28C110.667 75.5904 109.387 74.0288 107.672 73.7088C106.552 73.504 105.406 73.8304 104.274 73.76C103.333 73.7024 102.994 72.9536 102.104 72.6592C100.619 72.1728 99.48 70.5216 96.2736 70.8672C95.416 70.9632 94.3152 71.9552 93.528 73.0816C92.2992 72.5504 90.68 73.12 89.7968 73.5104C87.96 74.3104 86.8144 76.3776 86.4496 78.4768C86.0848 80.576 86.3856 82.7328 86.68 84.8448C86.8144 85.8048 86.9488 86.7648 87.0896 87.7376C87.1418 88.3782 87.3133 89.0033 87.5952 89.5808L86.136 103.149C86.8664 103.382 87.6368 103.465 88.4001 103.391C89.1633 103.317 89.9036 103.088 90.5755 102.719C91.2475 102.349 91.8371 101.846 92.3084 101.242C92.7797 100.637 93.1228 99.942 93.3168 99.2C93.88 96.5312 92.3952 93.8176 92.632 91.0976C92.7728 89.4784 93.688 87.9744 93.6816 86.3488C93.6711 85.8143 93.5937 85.2833 93.4512 84.768C96.0112 82.6752 96.6896 80.992 96.5808 79.008C97.3708 79.5604 98.3052 79.8697 99.2688 79.8976C100.626 79.8976 102.04 79.3856 103.307 79.8976C104.179 80.3439 104.949 80.9673 105.566 81.728C106.264 82.4192 107.166 83.0528 108.126 82.9184C108.585 82.8099 109.031 82.6533 109.458 82.4512C109.672 82.3499 109.906 82.2973 110.142 82.2973C110.379 82.2973 110.613 82.3499 110.827 82.4512C111.345 80.7768 111.44 79 111.102 77.28Z" fill="#263238"/>
<path d="M73.189 91.1744C73.8453 91.6503 74.5513 92.0537 75.2946 92.3775C76.1666 92.7448 77.1006 92.9425 78.0466 92.9599C79.3006 92.9934 80.5323 92.6232 81.5602 91.9039C82.1766 91.4783 82.6968 90.9279 83.0871 90.2885C83.4774 89.6491 83.729 88.9348 83.8258 88.192C83.9252 87.3674 83.757 86.5327 83.3458 85.8112C83.1331 85.4414 82.8315 85.1307 82.4683 84.9071C82.105 84.6836 81.6917 84.5543 81.2658 84.5312C80.8308 84.5198 80.4055 84.6601 80.0626 84.9279C79.7147 85.2188 79.4572 85.6029 79.3202 86.0351C79.1691 86.4806 79.1345 86.9574 79.2197 87.42C79.3048 87.8826 79.5068 88.3158 79.8066 88.6783C80.4585 89.4361 81.339 89.9617 82.3154 90.1759C83.3238 90.4138 84.3716 90.4313 85.3874 90.2271C86.4066 90.0242 87.3644 89.5859 88.1842 88.9471C88.9777 88.3327 89.5794 87.5045 89.9186 86.5599C90.2516 85.6512 90.3312 84.6689 90.149 83.7184C90.062 83.2687 89.902 82.8363 89.6754 82.4384C89.4683 82.0398 89.1727 81.6939 88.8114 81.4272C88.4764 81.1617 88.067 81.0073 87.6402 80.9856C87.4422 80.9788 87.2462 81.0266 87.0735 81.1237C86.9009 81.2207 86.7581 81.3633 86.661 81.536C86.4746 81.888 86.4311 82.2983 86.5394 82.6816C86.6627 83.0623 86.8833 83.4043 87.1794 83.6736C88.2327 84.5647 89.5814 85.0293 90.9601 84.976C92.3388 84.9227 93.6476 84.3553 94.629 83.3855C95.2878 82.7065 95.7692 81.8756 96.0306 80.9664C96.2463 80.188 96.3136 79.376 96.229 78.5728C96.2881 78.7813 96.3225 78.9961 96.3314 79.2128C96.3769 79.8215 96.3206 80.4336 96.165 81.024C95.9113 81.9633 95.4324 82.8267 94.7698 83.5392C93.8679 84.4808 92.6617 85.0726 91.365 85.2096C90.5831 85.3106 89.7887 85.2461 89.0334 85.02C88.2781 84.794 87.5788 84.4115 86.981 83.8975C86.6494 83.5947 86.4061 83.2077 86.277 82.7776C86.1468 82.3171 86.1996 81.8241 86.4242 81.4016C86.5478 81.1821 86.7284 81.0002 86.947 80.8751C87.1656 80.7501 87.414 80.6865 87.6658 80.6912C88.1611 80.7116 88.6376 80.8861 89.029 81.1904C89.4269 81.4821 89.753 81.8608 89.9826 82.2976C90.2295 82.7339 90.4045 83.2072 90.501 83.6992C90.7001 84.7088 90.6182 85.7537 90.2642 86.7199C89.9057 87.7295 89.2689 88.617 88.4274 89.2799C87.5625 89.9459 86.5546 90.4017 85.4834 90.6111C84.425 90.8222 83.3335 90.8025 82.2834 90.5536C81.235 90.3202 80.2899 89.7545 79.589 88.9407C79.2583 88.5269 79.0381 88.0358 78.949 87.5136C78.87 86.999 78.9116 86.4732 79.0706 85.9775C79.2253 85.4779 79.5209 85.0335 79.9218 84.6975C80.3282 84.385 80.8301 84.2222 81.3426 84.2367C81.8228 84.2625 82.2885 84.4099 82.696 84.6651C83.1036 84.9204 83.4395 85.2751 83.6722 85.6959C84.1075 86.4742 84.2845 87.3706 84.1778 88.2559C84.0711 89.0358 83.8011 89.7843 83.3853 90.4527C82.9695 91.121 82.4174 91.694 81.765 92.1343C80.6959 92.8726 79.4149 93.2411 78.117 93.1839C77.1496 93.1565 76.1972 92.939 75.3138 92.5439C74.7538 92.3038 74.2252 91.9965 73.7394 91.6287C73.573 91.5071 73.4578 91.3984 73.3746 91.3344L73.189 91.1744Z" fill="#455A64"/>
<path d="M111.474 80.1472C111.383 80.2332 111.279 80.3044 111.167 80.3584C110.853 80.5334 110.514 80.6587 110.162 80.7296C109.6 80.8437 109.021 80.8437 108.459 80.7296C107.716 80.5541 107.028 80.1979 106.456 79.6928C105.767 79.0792 105.228 78.3149 104.882 77.4592C104.767 77.2129 104.703 76.9458 104.694 76.6741C104.685 76.4024 104.732 76.1317 104.831 75.8784C104.953 75.6053 105.162 75.3803 105.426 75.2384C105.568 75.1644 105.726 75.1257 105.887 75.1257C106.047 75.1257 106.205 75.1644 106.347 75.2384C106.621 75.3977 106.834 75.6449 106.95 75.94C107.066 76.235 107.079 76.5606 106.987 76.864C106.876 77.1614 106.705 77.433 106.485 77.6619C106.265 77.8908 106 78.0723 105.707 78.1952C104.528 78.7041 103.196 78.7248 102.002 78.2528C101.405 78.0375 100.832 77.7608 100.293 77.4272C99.754 77.1151 99.2644 76.7247 98.8401 76.2688C98.6128 76.0276 98.4744 75.7162 98.4476 75.3858C98.4209 75.0555 98.5074 74.7259 98.6929 74.4512C98.8023 74.3181 98.946 74.2174 99.1084 74.1599C99.2707 74.1024 99.4457 74.0903 99.6145 74.1248C99.9242 74.1933 100.2 74.3675 100.395 74.6176C100.59 74.8635 100.68 75.1763 100.645 75.488C100.605 75.7797 100.48 76.0534 100.287 76.2752C99.9308 76.686 99.4268 76.9392 98.8849 76.9792C98.3973 77.0141 97.9077 76.951 97.4449 76.7936C97.028 76.6612 96.6198 76.5031 96.2225 76.32C95.5186 76.0261 94.9032 75.5541 94.4369 74.9504C94.0966 74.4749 93.9336 73.8952 93.9761 73.312C93.9984 72.9479 94.1275 72.5984 94.3473 72.3072C94.4239 72.2064 94.5196 72.1216 94.6289 72.0576C94.3064 72.4072 94.1222 72.8622 94.1105 73.3376C94.0939 73.8811 94.2632 74.4139 94.5905 74.848C95.0474 75.4184 95.6452 75.8596 96.3249 76.128C97.1184 76.5289 97.9959 76.7351 98.8849 76.7296C99.1178 76.7076 99.344 76.6397 99.5505 76.5299C99.757 76.42 99.9397 76.2704 100.088 76.0896C100.253 75.9221 100.353 75.701 100.37 75.4662C100.386 75.2314 100.318 74.9985 100.178 74.8096C99.8897 74.432 99.2753 74.2656 98.9873 74.656C98.9138 74.7538 98.8606 74.8654 98.8309 74.9841C98.8012 75.1028 98.7957 75.2263 98.8145 75.3472C98.852 75.6076 98.9631 75.8518 99.1345 76.0512C99.5373 76.4733 99.9985 76.8354 100.504 77.1264C101.022 77.4474 101.574 77.7113 102.149 77.9136C102.694 78.1407 103.28 78.2576 103.871 78.2576C104.461 78.2576 105.047 78.1407 105.592 77.9136C105.839 77.8102 106.062 77.6575 106.248 77.4649C106.434 77.2724 106.579 77.044 106.674 76.7936C106.752 76.5562 106.746 76.2989 106.656 76.0655C106.566 75.8321 106.398 75.6371 106.181 75.5136C106.079 75.4675 105.969 75.4433 105.857 75.4425C105.745 75.4417 105.634 75.4643 105.532 75.509C105.429 75.5536 105.337 75.6192 105.262 75.7016C105.186 75.784 105.129 75.8813 105.093 75.9872C105.012 76.2032 104.974 76.4331 104.981 76.6637C104.989 76.8943 105.042 77.1212 105.138 77.3312C105.459 78.1502 105.963 78.8855 106.61 79.4816C107.144 79.9747 107.789 80.3305 108.491 80.5184C109.024 80.6539 109.579 80.6822 110.123 80.6016C110.592 80.5109 111.046 80.3581 111.474 80.1472Z" fill="#455A64"/>
<path d="M92.9905 95.0336C92.9143 95.1214 92.8234 95.195 92.7217 95.2512C92.4378 95.4355 92.1202 95.5617 91.7873 95.6224C91.2607 95.7311 90.7146 95.6957 90.2065 95.52C89.8562 95.4184 89.5316 95.243 89.2545 95.0057C88.9775 94.7684 88.7544 94.4746 88.6001 94.144C88.496 93.9332 88.4635 93.6943 88.5073 93.4633C88.5512 93.2324 88.6692 93.022 88.8433 92.864C89.0404 92.712 89.2824 92.6295 89.5313 92.6295C89.7803 92.6295 90.0222 92.712 90.2193 92.864C90.6159 93.1874 90.9171 93.6125 91.0907 94.0939C91.2643 94.5753 91.3038 95.0948 91.2049 95.5968C91.1396 96.1529 90.9361 96.6837 90.6131 97.1409C90.29 97.5981 89.8576 97.9672 89.3553 98.2144C88.8022 98.4481 88.2015 98.5468 87.6028 98.5022C87.0041 98.4577 86.4245 98.2713 85.9121 97.9584C85.3821 97.661 84.9303 97.2421 84.5937 96.736C84.4227 96.4827 84.3064 96.1964 84.2524 95.8955C84.1984 95.5947 84.2079 95.2859 84.2801 94.9888C84.357 94.6918 84.5142 94.4216 84.7345 94.208C84.8467 94.0986 84.9801 94.0132 85.1264 93.9571C85.2728 93.9009 85.4291 93.8753 85.5857 93.8816C85.8734 93.9034 86.1507 93.9991 86.3906 94.1595C86.6306 94.3198 86.8251 94.5393 86.9553 94.7968C87.1925 95.2612 87.3216 95.7732 87.3329 96.2944C87.3517 96.7744 87.3044 97.2546 87.1921 97.7216C86.9908 98.5708 86.546 99.3426 85.9121 99.9424C85.4586 100.381 84.8855 100.676 84.2649 100.79C83.6443 100.904 83.0038 100.832 82.4241 100.582C82.1145 100.447 81.8324 100.257 81.5921 100.019C81.5053 99.9422 81.4318 99.8514 81.3745 99.7504C81.7027 100.041 82.0741 100.278 82.4753 100.454C82.9516 100.639 83.466 100.702 83.9729 100.64C84.6396 100.559 85.2607 100.26 85.7393 99.7888C86.3176 99.2122 86.7176 98.4812 86.8913 97.6832C86.9947 97.241 87.0335 96.7862 87.0065 96.3328C86.9927 95.8619 86.8724 95.4002 86.6545 94.9824C86.5513 94.7732 86.3957 94.5942 86.2028 94.463C86.0099 94.3317 85.7862 94.2527 85.5537 94.2336C85.3186 94.2481 85.0955 94.3422 84.921 94.5004C84.7465 94.6586 84.6311 94.8715 84.5937 95.104C84.5332 95.3549 84.5265 95.6158 84.5739 95.8695C84.6213 96.1232 84.7219 96.3639 84.8689 96.576C85.1764 97.0348 85.586 97.416 86.0657 97.6896C86.5386 97.9771 87.0731 98.148 87.6251 98.188C88.1771 98.2281 88.7306 98.1362 89.2401 97.92C89.6929 97.6955 90.0831 97.3624 90.3757 96.9503C90.6683 96.5381 90.8542 96.06 90.9169 95.5584C91.0073 95.1138 90.978 94.653 90.8318 94.2234C90.6856 93.7939 90.4278 93.4108 90.0849 93.1136C89.9361 92.9969 89.7524 92.9334 89.5633 92.9334C89.3742 92.9334 89.1905 92.9969 89.0417 93.1136C88.9125 93.233 88.8249 93.3905 88.7915 93.5632C88.7581 93.7359 88.7807 93.9147 88.8561 94.0736C88.9906 94.3743 89.1865 94.6435 89.4311 94.8639C89.6758 95.0843 89.9639 95.2512 90.2769 95.3536C90.7551 95.5307 91.2703 95.5835 91.7745 95.5072C92.2039 95.4199 92.6152 95.2597 92.9905 95.0336Z" fill="#455A64"/>
<path d="M66.552 250.611C66.552 250.611 70.8336 258.931 81.9952 254.886C81.9952 254.886 92.9264 260.826 103.384 254.176C103.384 254.176 116.92 255.987 124.286 252.422L114.84 170.733L113.637 158.189H83.7424C83.7424 158.189 74.872 162.227 73.4448 181.946C72.0176 201.664 68.9648 228.749 68.9648 228.749L66.552 250.611Z" fill="#263238"/>
<path d="M102.744 254.426C102.744 254.426 102.744 254.342 102.744 254.176C102.744 254.01 102.706 253.76 102.68 253.453C102.629 252.813 102.558 251.859 102.462 250.662C102.283 248.243 102.046 244.736 101.79 240.422C101.272 231.757 100.722 219.763 100.434 206.502C100.146 193.242 100.178 181.242 100.318 172.582C100.389 168.237 100.466 164.723 100.549 162.298C100.587 161.094 100.619 160.16 100.645 159.501C100.645 159.194 100.645 158.95 100.645 158.771C100.637 158.69 100.637 158.609 100.645 158.528C100.654 158.609 100.654 158.691 100.645 158.771V159.501C100.645 160.141 100.645 161.101 100.613 162.298C100.613 164.742 100.542 168.256 100.491 172.582C100.414 181.267 100.414 193.267 100.702 206.502C100.99 219.738 101.509 231.738 101.982 240.422C102.219 244.749 102.411 248.25 102.552 250.662C102.616 251.859 102.667 252.8 102.706 253.453C102.706 253.76 102.706 254.003 102.738 254.182C102.746 254.263 102.749 254.345 102.744 254.426Z" fill="#455A64"/>
<path d="M105.368 231.04C105.368 231.04 105.432 230.95 105.599 230.906C105.845 230.852 106.102 230.884 106.328 230.995C106.499 231.079 106.65 231.2 106.768 231.35C106.887 231.499 106.97 231.673 107.013 231.859C107.037 232.098 106.992 232.339 106.882 232.553C106.772 232.767 106.603 232.944 106.394 233.064C106.185 233.183 105.946 233.239 105.706 233.225C105.466 233.211 105.235 233.128 105.042 232.986C104.903 232.853 104.796 232.691 104.729 232.512C104.661 232.332 104.635 232.14 104.651 231.949C104.67 231.698 104.774 231.461 104.946 231.277C105.067 231.155 105.17 231.13 105.176 231.142C105.005 231.383 104.905 231.667 104.888 231.962C104.889 232.11 104.92 232.257 104.981 232.392C105.041 232.528 105.13 232.649 105.24 232.749C105.387 232.842 105.557 232.893 105.731 232.897C105.905 232.901 106.076 232.857 106.228 232.771C106.379 232.685 106.504 232.559 106.589 232.408C106.674 232.256 106.717 232.084 106.712 231.91C106.685 231.764 106.627 231.625 106.54 231.503C106.454 231.382 106.342 231.28 106.213 231.206C105.955 231.066 105.66 231.008 105.368 231.04Z" fill="#455A64"/>
<path d="M104.703 206.784C104.703 206.784 104.767 206.701 104.933 206.656C105.179 206.599 105.438 206.63 105.663 206.746C105.837 206.826 105.989 206.945 106.108 207.096C106.227 207.246 106.309 207.422 106.347 207.61C106.369 207.847 106.322 208.086 106.212 208.298C106.102 208.509 105.933 208.685 105.726 208.803C105.519 208.921 105.282 208.977 105.043 208.964C104.805 208.951 104.576 208.87 104.383 208.73C104.241 208.6 104.132 208.44 104.065 208.261C103.997 208.082 103.972 207.89 103.992 207.699C104.013 207.459 104.114 207.234 104.28 207.059C104.408 206.931 104.504 206.912 104.511 206.925C104.34 207.164 104.241 207.445 104.223 207.738C104.223 207.886 104.254 208.033 104.315 208.169C104.375 208.304 104.464 208.426 104.575 208.525C104.721 208.62 104.89 208.673 105.064 208.678C105.239 208.683 105.411 208.641 105.563 208.555C105.714 208.469 105.84 208.343 105.925 208.192C106.01 208.04 106.052 207.867 106.047 207.693C106.019 207.546 105.961 207.408 105.876 207.285C105.791 207.163 105.681 207.06 105.554 206.982C105.294 206.838 104.999 206.77 104.703 206.784Z" fill="#455A64"/>
<path d="M104.312 185.331C104.312 185.331 104.376 185.248 104.549 185.203C104.793 185.146 105.049 185.178 105.272 185.293C105.446 185.373 105.6 185.493 105.72 185.643C105.84 185.793 105.923 185.969 105.963 186.157C105.986 186.395 105.94 186.636 105.829 186.848C105.719 187.061 105.549 187.238 105.341 187.356C105.132 187.474 104.894 187.53 104.655 187.516C104.415 187.502 104.185 187.419 103.992 187.277C103.852 187.147 103.744 186.986 103.676 186.807C103.609 186.629 103.583 186.437 103.602 186.246C103.619 185.996 103.721 185.76 103.89 185.574C104.018 185.453 104.114 185.427 104.126 185.44C103.952 185.677 103.85 185.959 103.832 186.253C103.831 186.402 103.863 186.55 103.925 186.686C103.986 186.822 104.077 186.943 104.19 187.04C104.337 187.133 104.505 187.185 104.679 187.189C104.852 187.194 105.023 187.151 105.174 187.065C105.324 186.98 105.449 186.855 105.534 186.704C105.619 186.553 105.661 186.381 105.656 186.208C105.628 186.062 105.57 185.923 105.485 185.8C105.4 185.678 105.291 185.575 105.163 185.498C104.9 185.364 104.606 185.307 104.312 185.331Z" fill="#455A64"/>
<path d="M103.55 162.381C103.55 162.381 103.614 162.291 103.781 162.246C104.028 162.192 104.286 162.226 104.51 162.342C104.684 162.424 104.836 162.544 104.955 162.694C105.073 162.844 105.156 163.019 105.195 163.206C105.228 163.448 105.184 163.693 105.069 163.908C104.954 164.123 104.774 164.296 104.555 164.403C104.35 164.531 104.11 164.592 103.868 164.578C103.626 164.564 103.395 164.476 103.205 164.326C103.066 164.194 102.959 164.032 102.892 163.852C102.824 163.673 102.798 163.481 102.814 163.29C102.84 163.05 102.943 162.825 103.109 162.65C103.237 162.528 103.333 162.502 103.339 162.515C103.168 162.756 103.069 163.04 103.051 163.334C103.052 163.483 103.083 163.63 103.144 163.765C103.204 163.901 103.293 164.022 103.403 164.122C103.55 164.214 103.72 164.266 103.894 164.269C104.068 164.273 104.24 164.23 104.391 164.144C104.542 164.058 104.667 163.932 104.752 163.781C104.838 163.629 104.88 163.457 104.875 163.283C104.848 163.137 104.79 162.998 104.703 162.876C104.617 162.754 104.505 162.653 104.376 162.579C104.127 162.432 103.839 162.362 103.55 162.381Z" fill="#455A64"/>
<path d="M142.514 137.536L293.47 136.442L297.675 239.072L141.362 237.626L142.514 137.536Z" fill="#FF9F00"/>
<path d="M142.507 137.536L213.957 79.7248C215.425 78.5384 217.257 77.8944 219.144 77.9014C221.032 77.9084 222.859 78.566 224.318 79.7632L293.47 136.442" fill="#FF9F00"/>
<g opacity="0.3">
<path opacity="0.3" d="M142.507 137.536L213.957 79.7248C215.425 78.5384 217.257 77.8944 219.144 77.9014C221.032 77.9084 222.859 78.566 224.318 79.7632L293.47 136.442" fill="black"/>
</g>
<path d="M141.361 237.626C141.176 237.446 153.259 224.25 168.357 208.154C183.454 192.058 195.838 179.149 196.03 179.322C196.222 179.494 184.133 192.691 169.035 208.794C153.937 224.896 141.553 237.798 141.361 237.626Z" fill="#263238"/>
<path d="M297.675 239.072C297.483 239.245 285.713 226.317 271.39 210.202C257.067 194.086 245.611 180.877 245.79 180.704C245.969 180.531 257.752 193.459 272.075 209.581C286.398 225.702 297.88 238.899 297.675 239.072Z" fill="#263238"/>
<g opacity="0.5">
<path opacity="0.5" d="M293.47 136.442L217.662 196.998L142.513 137.536" fill="black"/>
</g>
<path d="M150.11 143.142L149.88 96L282.059 94.432L283.55 144.038L217.656 196.205L150.11 143.142Z" fill="#FAFAFA"/>
<path d="M150.11 143.142C150.11 143.142 150.539 143.462 151.352 144.096L154.936 146.886L168.6 157.555L217.758 196.096H217.592L283.467 143.91L283.403 144.045C283.121 134.586 282.821 124.653 282.513 114.554C282.315 107.75 282.11 101.03 281.912 94.4384L282.078 94.5984L149.899 96.1024L150.001 96C150.053 110.829 150.097 122.611 150.123 130.688C150.123 134.726 150.123 137.837 150.123 139.942V142.33C150.123 142.867 150.123 143.142 150.123 143.142C150.123 143.142 150.123 142.874 150.123 142.342C150.123 141.811 150.123 141.011 150.123 139.968C150.123 137.862 150.078 134.758 150.046 130.726C149.995 122.637 149.918 110.848 149.822 96V95.8912H149.925L282.11 94.272H282.27V94.4384C282.469 101.024 282.667 107.744 282.872 114.547C283.179 124.653 283.473 134.579 283.761 144.045V144.128L283.697 144.179L217.777 196.32L217.694 196.384L217.611 196.32L168.485 157.651L154.904 146.931L151.32 144.115C150.513 143.475 150.11 143.142 150.11 143.142Z" fill="#263238"/>
<path d="M261.169 118.176C261.169 118.266 240.952 118.464 216.024 118.611C191.096 118.758 170.872 118.816 170.872 118.72C170.872 118.624 191.083 118.432 216.024 118.278C240.965 118.125 261.169 118.08 261.169 118.176Z" fill="#263238"/>
<path d="M261.169 131.488C261.169 131.584 240.952 131.782 216.024 131.93C191.096 132.077 170.872 132.128 170.872 132.038C170.872 131.949 191.083 131.75 216.024 131.597C240.965 131.443 261.169 131.398 261.169 131.488Z" fill="#263238"/>
<path d="M261.169 146.842C261.169 146.931 240.952 147.13 216.024 147.283C191.096 147.437 170.872 147.482 170.872 147.386C170.872 147.29 191.083 147.098 216.024 146.95C240.965 146.803 261.169 146.746 261.169 146.842Z" fill="#263238"/>
<path d="M261.169 162.189C261.169 162.285 241.886 162.47 218.097 162.618C194.309 162.765 175.025 162.803 175.019 162.714C175.013 162.624 194.302 162.432 218.097 162.285C241.893 162.138 261.169 162.099 261.169 162.189Z" fill="#263238"/>
<path d="M244.261 175.661C244.087 175.69 243.912 175.703 243.736 175.699L242.213 175.744L236.632 175.834L218.206 176.096C211.013 176.218 204.491 176.256 199.774 176.262H194.193H192.67C192.495 176.266 192.319 176.255 192.146 176.23C192.319 176.201 192.495 176.188 192.67 176.192L194.193 176.154L199.774 176.058L218.2 175.795C225.394 175.674 231.915 175.635 236.626 175.629H242.213H243.736C243.911 175.628 244.087 175.639 244.261 175.661Z" fill="#263238"/>
<path d="M227.243 188.614C227.243 188.704 222.936 188.781 217.643 188.781C212.35 188.781 208.043 188.704 208.043 188.614C208.043 188.525 212.357 188.448 217.643 188.448C222.929 188.448 227.243 188.518 227.243 188.614Z" fill="#263238"/>
<path d="M271.736 178.157C280.555 178.157 287.704 171.008 287.704 162.189C287.704 153.37 280.555 146.221 271.736 146.221C262.917 146.221 255.768 153.37 255.768 162.189C255.768 171.008 262.917 178.157 271.736 178.157Z" fill="#263238"/>
<path d="M267.582 178.157C276.401 178.157 283.55 171.008 283.55 162.189C283.55 153.37 276.401 146.221 267.582 146.221C258.763 146.221 251.614 153.37 251.614 162.189C251.614 171.008 258.763 178.157 267.582 178.157Z" fill="#455A64"/>
<path d="M269.611 154.758V168.032H267.16V156.8H264.35V154.733L269.611 154.758Z" fill="#EBEBEB"/>
<path d="M151.147 74.4641H165.752L163.774 72.1985V66.7649C163.774 65.3526 163.213 63.9983 162.215 62.9997C161.216 62.0011 159.862 61.4401 158.45 61.4401C157.751 61.4401 157.059 61.5778 156.413 61.8455C155.767 62.1132 155.181 62.5055 154.687 63C154.193 63.4946 153.801 64.0816 153.534 64.7276C153.267 65.3736 153.13 66.0659 153.131 66.7649V71.9297L151.147 74.4641Z" fill="#FF9F00"/>
<path d="M156.44 73.7473C156.456 74.0653 156.539 74.3762 156.685 74.6596C156.83 74.943 157.033 75.1925 157.282 75.3915C157.53 75.5905 157.818 75.7346 158.126 75.8142C158.435 75.8938 158.756 75.9072 159.07 75.8535C159.384 75.7997 159.683 75.6801 159.947 75.5024C160.211 75.3247 160.435 75.0931 160.603 74.8227C160.771 74.5523 160.88 74.2494 160.922 73.9338C160.965 73.6183 160.94 73.2973 160.85 72.9921" fill="#FF9F00"/>
<path d="M159.262 59.2257H157.829V62.2721H159.262V59.2257Z" fill="#FF9F00"/>
<path d="M179.742 64.4736C179.699 64.3483 179.665 64.22 179.64 64.0896C179.576 63.8144 179.493 63.4496 179.384 62.9632C179.25 62.3511 179.077 61.7482 178.866 61.1584C178.738 60.8128 178.648 60.4225 178.475 60.0321L177.931 58.7905C176.947 56.693 175.64 54.7625 174.059 53.0688C171.983 50.8798 169.468 49.1528 166.68 48C165.092 47.3316 163.429 46.8588 161.726 46.5921C159.89 46.3245 158.028 46.2944 156.184 46.5025C155.214 46.6045 154.252 46.7713 153.304 47.0016C152.824 47.104 152.357 47.2897 151.87 47.4369C151.382 47.5724 150.905 47.7457 150.443 47.9552C148.482 48.7482 146.658 49.8431 145.035 51.2C141.435 54.169 138.896 58.2278 137.803 62.7649C137.228 65.1956 137.087 67.709 137.387 70.1888C137.651 72.7541 138.396 75.2467 139.582 77.5361L139.954 78.2337L139.998 78.3232V78.4193C138.814 82.2593 137.662 86.0992 136.536 89.7664L136.235 89.4913L145.381 84.7233L145.49 84.6656L145.592 84.7425C149.416 87.691 154.128 89.2516 158.956 89.1678C163.784 89.0841 168.439 87.361 172.158 84.2817C174.065 82.6874 175.69 80.7834 176.965 78.6497C177.984 76.8677 178.769 74.9619 179.301 72.9792C179.66 71.4735 179.874 69.9369 179.941 68.3905C179.941 67.7505 179.941 67.2001 179.941 66.7073C179.941 66.2145 179.864 65.8241 179.838 65.4848C179.813 65.1457 179.787 64.9217 179.774 64.7361C179.764 64.651 179.764 64.5651 179.774 64.4801C179.797 64.5617 179.812 64.6452 179.819 64.7297C179.819 64.9174 179.851 65.167 179.915 65.4784C179.954 65.8176 179.998 66.2209 180.056 66.7073C180.114 67.1937 180.056 67.7633 180.056 68.3969C180.02 69.9568 179.827 71.5092 179.48 73.0305C178.969 75.0435 178.194 76.9803 177.176 78.7905C175.901 80.9707 174.265 82.9184 172.338 84.5505C169.978 86.5205 167.225 87.9652 164.263 88.7884C161.301 89.6117 158.198 89.7945 155.16 89.3249C151.584 88.7569 148.205 87.3123 145.323 85.1201H145.541L136.408 89.9009L135.947 90.1441L136.101 89.6256L139.557 78.2785V78.4641L139.179 77.7536C137.969 75.4138 137.209 72.8672 136.939 70.2465C136.626 67.7086 136.773 65.1351 137.374 62.6496C138.494 58.0238 141.089 53.8881 144.766 50.8673C146.427 49.4937 148.29 48.3861 150.29 47.584C150.759 47.3713 151.245 47.1959 151.742 47.0592C152.235 46.9184 152.709 46.7328 153.202 46.6304C154.163 46.3938 155.141 46.227 156.126 46.1312C158.001 45.9249 159.894 45.9636 161.758 46.2464C163.483 46.5323 165.167 47.0222 166.776 47.7056C169.595 48.8924 172.129 50.6637 174.213 52.9025C175.794 54.6274 177.09 56.5934 178.053 58.7265C178.238 59.1745 178.418 59.5905 178.578 60.0065C178.738 60.4225 178.834 60.8001 178.955 61.1521C179.163 61.7465 179.323 62.3564 179.435 62.9761C179.525 63.4561 179.602 63.8337 179.653 64.1152C179.691 64.2326 179.72 64.3523 179.742 64.4736Z" fill="#263238"/>
<path d="M356.319 216.454C358.411 223.526 356.824 232.621 354.29 239.546C351.714 246.538 346.974 252.527 340.76 256.64C340.069 257.094 339.179 257.536 338.45 257.146C338.18 256.931 337.96 256.66 337.806 256.352C337.653 256.043 337.569 255.705 337.56 255.36C336.063 247.713 337.084 239.787 340.471 232.77C343.857 225.753 349.427 220.021 356.344 216.435" fill="#FF9F00"/>
<g opacity="0.2">
<path opacity="0.2" d="M356.319 216.454C358.411 223.526 356.824 232.621 354.29 239.546C351.714 246.538 346.974 252.527 340.76 256.64C340.069 257.094 339.179 257.536 338.45 257.146C338.18 256.931 337.96 256.66 337.806 256.352C337.653 256.043 337.569 255.705 337.56 255.36C336.063 247.713 337.084 239.787 340.471 232.77C343.857 225.753 349.427 220.021 356.344 216.435" fill="black"/>
</g>
<path d="M324.882 182.886C329.285 182.765 332.19 187.661 332.632 192.051C333.074 196.442 332.101 201.011 333.387 205.21C335 210.56 340.03 214.4 341.541 219.795C343.333 226.15 339.845 232.749 339.679 239.347C339.595 242.547 340.318 245.805 339.71 248.947C339.204 251.635 337.781 254.064 335.684 255.821C333.588 257.577 330.947 258.552 328.211 258.579C325.476 258.606 322.816 257.684 320.685 255.97C318.554 254.255 317.083 251.855 316.523 249.178C315.493 244.237 317.675 238.982 316.37 234.099C315.403 230.496 312.6 227.43 312.37 223.706C312.101 219.27 315.531 215.437 316.171 211.04C316.811 206.643 314.584 202.349 314.251 197.914C313.656 189.965 316.946 183.725 324.875 182.874" fill="#FF9F00"/>
<path d="M334.533 273.414C334.593 273.272 334.638 273.124 334.667 272.973C334.744 272.64 334.84 272.211 334.955 271.693C335.192 270.586 335.595 268.979 336.043 267.002C338.544 256.699 342.111 246.684 346.687 237.12C347.563 235.283 348.293 233.811 348.811 232.794L349.394 231.622C349.468 231.488 349.528 231.347 349.573 231.2C349.475 231.316 349.391 231.442 349.323 231.578L348.683 232.717C348.12 233.709 347.346 235.168 346.437 236.992C341.702 246.512 338.121 256.562 335.768 266.931C335.327 268.922 335 270.541 334.808 271.667C334.725 272.186 334.655 272.614 334.597 272.947C334.559 273.1 334.537 273.257 334.533 273.414Z" fill="#263238"/>
<path d="M325.061 204.57C325.064 204.806 325.085 205.041 325.125 205.274C325.182 205.766 325.266 206.438 325.368 207.283L326.347 214.675C327.173 220.915 328.312 229.53 329.509 239.059C330.706 248.589 331.736 257.222 332.472 263.475C332.843 266.566 333.144 269.088 333.362 270.874C333.47 271.718 333.554 272.39 333.618 272.883C333.64 273.118 333.679 273.351 333.733 273.581C333.753 273.347 333.753 273.111 333.733 272.877C333.688 272.378 333.63 271.706 333.554 270.854C333.368 269.062 333.112 266.541 332.798 263.437C332.158 257.178 331.154 248.538 329.957 239.008C328.76 229.478 327.576 220.864 326.667 214.63C326.206 211.552 325.829 209.043 325.566 207.264C325.426 206.419 325.317 205.754 325.24 205.261C325.202 205.025 325.142 204.794 325.061 204.57Z" fill="#263238"/>
<path d="M349.906 264.768H316.459V268.672H349.906V264.768Z" fill="#263238"/>
<path d="M319.563 268.672L323.486 292.365H344.235L346.949 268.672H319.563Z" fill="#263238"/>
<path d="M347.058 268.512C347.058 268.608 340.882 268.755 333.259 268.851C325.637 268.947 319.461 268.947 319.461 268.851C319.461 268.755 325.637 268.608 333.259 268.512C340.882 268.416 347.058 268.422 347.058 268.512Z" fill="#455A64"/>
<path d="M345.918 280.371H345.733H345.176C344.462 280.397 343.748 280.369 343.038 280.288C341.898 280.175 340.808 279.765 339.877 279.098C339.293 278.675 338.821 278.118 338.501 277.472C338.13 276.734 338.059 275.881 338.302 275.091C338.442 274.649 338.721 274.264 339.096 273.992C339.472 273.72 339.925 273.576 340.389 273.581C340.882 273.621 341.341 273.85 341.669 274.221C341.99 274.609 342.209 275.071 342.309 275.565C342.712 277.587 341.291 279.84 339.109 280.544C336.926 281.248 334.264 280.032 333.176 277.824C332.892 277.267 332.726 276.656 332.69 276.032C332.646 275.381 332.817 274.734 333.176 274.189C333.365 273.913 333.612 273.68 333.899 273.508C334.186 273.336 334.507 273.227 334.84 273.19C335.184 273.172 335.526 273.242 335.834 273.394C336.143 273.547 336.406 273.776 336.6 274.061C336.987 274.608 337.187 275.266 337.17 275.936C337.157 276.584 336.992 277.219 336.69 277.792C336.101 278.9 335.166 279.786 334.027 280.314C332.951 280.821 331.798 281.147 330.616 281.28C329.478 281.444 328.317 281.344 327.224 280.986C326.168 280.631 325.265 279.927 324.664 278.989C324.385 278.543 324.21 278.039 324.153 277.516C324.095 276.993 324.156 276.464 324.331 275.968C324.479 275.494 324.753 275.069 325.124 274.739C325.495 274.408 325.949 274.185 326.437 274.093C326.888 274.024 327.349 274.071 327.777 274.23C328.205 274.389 328.585 274.655 328.882 275.002C329.126 275.338 329.275 275.735 329.314 276.149C329.352 276.564 329.278 276.981 329.099 277.357C328.802 278.02 328.311 278.578 327.691 278.957C327.172 279.288 326.615 279.559 326.034 279.763C325.502 279.968 325.01 280.128 324.562 280.256C323.878 280.456 323.184 280.614 322.482 280.73L321.931 280.813H321.746C321.746 280.813 321.803 280.813 321.925 280.762L322.469 280.653C322.942 280.55 323.646 280.39 324.53 280.115C324.965 279.981 325.451 279.808 325.976 279.603C326.543 279.394 327.084 279.122 327.589 278.79C328.156 278.417 328.601 277.885 328.869 277.261C329.031 276.921 329.097 276.544 329.061 276.17C329.025 275.796 328.888 275.438 328.664 275.136C328.393 274.824 328.046 274.587 327.658 274.446C327.269 274.305 326.851 274.265 326.443 274.33C326.004 274.42 325.598 274.627 325.267 274.928C324.935 275.23 324.692 275.616 324.562 276.045C324.401 276.502 324.347 276.989 324.402 277.47C324.458 277.951 324.622 278.414 324.882 278.822C325.449 279.696 326.295 280.352 327.282 280.685C328.331 281.019 329.443 281.111 330.533 280.954C331.677 280.82 332.792 280.502 333.835 280.013C334.91 279.511 335.793 278.673 336.35 277.626C336.65 277.11 336.802 276.523 336.791 275.927C336.78 275.331 336.605 274.75 336.286 274.246C336.128 274.006 335.909 273.812 335.652 273.683C335.395 273.554 335.108 273.494 334.821 273.51C334.537 273.544 334.265 273.638 334.021 273.786C333.777 273.934 333.567 274.132 333.406 274.368C333.086 274.852 332.936 275.428 332.978 276.006C333.012 276.585 333.162 277.151 333.419 277.67C334.437 279.738 336.939 280.928 338.968 280.23C340.997 279.533 342.341 277.459 341.97 275.603C341.888 275.152 341.69 274.731 341.394 274.381C341.257 274.218 341.089 274.083 340.9 273.986C340.711 273.888 340.505 273.828 340.293 273.811C339.884 273.806 339.483 273.932 339.151 274.17C338.818 274.408 338.57 274.747 338.443 275.136C338.21 275.868 338.269 276.662 338.61 277.35C338.904 277.968 339.343 278.506 339.89 278.918C340.791 279.577 341.847 279.994 342.955 280.128C343.658 280.219 344.365 280.266 345.074 280.269H345.63L345.918 280.371Z" fill="#455A64"/>
</svg>
