<svg width="350" height="350" viewBox="0 0 350 350" fill="none" xmlns="http://www.w3.org/2000/svg">
<path d="M326.823 221.34H212.1V154.952H326.823V221.34ZM212.8 220.64H326.123V155.652H212.8V220.64Z" fill="#E0E0E0"/>
<path d="M303.156 190.351H227.465V192.57H303.156V190.351Z" fill="#F0F0F0"/>
<path d="M308.371 198.625H227.465V201.047H308.371V198.625Z" fill="#F0F0F0"/>
<path d="M308.371 206.997H227.465V209.419H308.371V206.997Z" fill="#F0F0F0"/>
<path d="M253.918 178.332H227.465V184.093H253.918V178.332Z" fill="#F0F0F0"/>
<path d="M326.473 155.302H212.471V165.872H326.473V155.302Z" fill="#E0E0E0"/>
<path d="M317.702 164.29C317.555 164.15 319.025 162.379 320.978 160.335C322.931 158.291 324.646 156.744 324.786 156.877C324.926 157.01 323.463 158.788 321.51 160.839C319.557 162.89 317.842 164.43 317.702 164.29Z" fill="white"/>
<path d="M324.8 164.29C324.66 164.43 322.952 162.89 320.992 160.839C319.032 158.788 317.569 157.017 317.716 156.877C317.863 156.737 319.564 158.277 321.524 160.335C323.484 162.393 324.933 164.15 324.8 164.29Z" fill="white"/>
<path d="M185.654 23.835H71.652V89.53H185.654V23.835Z" fill="#E6E6E6"/>
<path d="M162.344 58.891H86.653V61.11H162.344V58.891Z" fill="#F0F0F0"/>
<path d="M167.559 67.1649H86.653V69.5869H167.559V67.1649Z" fill="#F0F0F0"/>
<path d="M167.559 75.537H86.653V77.959H167.559V75.537Z" fill="#F0F0F0"/>
<path d="M113.106 46.8719H86.653V52.6329H113.106V46.8719Z" fill="#F0F0F0"/>
<path d="M185.654 23.835H71.652V34.405H185.654V23.835Z" fill="#E0E0E0"/>
<path d="M176.498 32.7739C176.351 32.6409 177.821 30.8629 179.774 28.8189C181.727 26.7749 183.442 25.2279 183.582 25.3679C183.722 25.5079 182.259 27.2789 180.306 29.3229C178.353 31.3669 176.638 32.8999 176.498 32.7739Z" fill="white"/>
<path d="M183.582 32.774C183.442 32.914 181.734 31.374 179.774 29.323C177.814 27.272 176.351 25.508 176.498 25.368C176.645 25.228 178.346 26.768 180.306 28.819C182.266 30.87 183.729 32.641 183.582 32.774Z" fill="white"/>
<path d="M142.478 145.873H27.776V79.478H142.478V145.873ZM28.476 145.173H141.778V80.178H28.476V145.173Z" fill="#E0E0E0"/>
<path d="M118.818 114.884H43.127V117.103H118.818V114.884Z" fill="#F0F0F0"/>
<path d="M124.033 123.158H43.127V125.58H124.033V123.158Z" fill="#F0F0F0"/>
<path d="M124.033 131.53H43.127V133.952H124.033V131.53Z" fill="#F0F0F0"/>
<path d="M69.58 102.865H43.127V108.626H69.58V102.865Z" fill="#F0F0F0"/>
<path d="M142.128 79.828H28.126V90.398H142.128V79.828Z" fill="#E0E0E0"/>
<path d="M274.855 161.084H140.245V281.596H274.855V161.084Z" fill="#E6E6E6"/>
<path d="M147.014 123.123H41.566V232.68H147.014V123.123Z" fill="#F0F0F0"/>
<path d="M147.014 123.123H41.566V135.058H147.014V123.123Z" fill="#E0E0E0"/>
<path d="M50.274 128.968C50.2548 129.401 50.1089 129.818 49.8545 130.169C49.6001 130.52 49.2483 130.788 48.8428 130.94C48.4373 131.093 47.9959 131.123 47.5735 131.027C47.1511 130.931 46.7662 130.713 46.4665 130.4C46.1669 130.087 45.9658 129.693 45.888 129.267C45.8103 128.841 45.8595 128.401 46.0294 128.002C46.1993 127.604 46.4825 127.264 46.8439 127.025C47.2052 126.786 47.6288 126.658 48.062 126.658C48.6611 126.673 49.23 126.924 49.6445 127.357C50.059 127.79 50.2853 128.369 50.274 128.968Z" fill="white"/>
<path d="M59.255 128.968C59.2371 129.403 59.0918 129.823 58.8371 130.176C58.5823 130.529 58.2295 130.799 57.8224 130.953C57.4152 131.107 56.9719 131.137 56.5474 131.041C56.123 130.945 55.7362 130.726 55.4352 130.412C55.1341 130.097 54.9322 129.701 54.8545 129.273C54.7768 128.845 54.8267 128.403 54.9981 128.003C55.1695 127.603 55.4547 127.262 55.8183 127.023C56.1819 126.784 56.6078 126.657 57.043 126.658C57.6421 126.673 58.211 126.924 58.6255 127.357C59.0399 127.79 59.2663 128.369 59.255 128.968Z" fill="white"/>
<path d="M68.2361 128.968C68.2182 129.403 68.0729 129.823 67.8181 130.176C67.5634 130.529 67.2105 130.799 66.8034 130.953C66.3963 131.107 65.9529 131.137 65.5285 131.041C65.104 130.945 64.7172 130.726 64.4162 130.412C64.1152 130.097 63.9133 129.701 63.8356 129.273C63.7579 128.845 63.8078 128.403 63.9792 128.003C64.1505 127.603 64.4358 127.262 64.7993 127.023C65.1629 126.784 65.5888 126.657 66.0241 126.658C66.6232 126.673 67.1921 126.924 67.6066 127.357C68.021 127.79 68.2473 128.369 68.2361 128.968Z" fill="white"/>
<path d="M311.766 47.7959H177.156V181.958H311.766V47.7959Z" fill="#F0F0F0"/>
<path d="M311.766 47.7959H177.156V63.5109H311.766V47.7959Z" fill="#E0E0E0"/>
<path d="M188.622 55.4959C188.597 56.0672 188.405 56.6187 188.07 57.0819C187.735 57.5451 187.271 57.8995 186.736 58.1013C186.2 58.303 185.618 58.3431 185.06 58.2167C184.503 58.0902 183.994 57.8027 183.599 57.3899C183.203 56.9771 182.937 56.4572 182.834 55.8946C182.731 55.3321 182.796 54.7518 183.02 54.2257C183.245 53.6996 183.618 53.251 184.095 52.9355C184.572 52.6199 185.131 52.4515 185.703 52.4509C186.493 52.4693 187.244 52.8 187.791 53.3707C188.338 53.9414 188.637 54.7055 188.622 55.4959Z" fill="white"/>
<path d="M199.591 53.438C199.979 53.8594 200.235 54.3857 200.326 54.9513C200.417 55.5169 200.339 56.0968 200.103 56.6188C199.867 57.1407 199.482 57.5816 198.997 57.8865C198.512 58.1914 197.948 58.3469 197.376 58.3335C196.803 58.3202 196.247 58.1386 195.777 57.8114C195.306 57.4841 194.943 57.0258 194.731 56.4934C194.52 55.961 194.469 55.3782 194.587 54.8174C194.704 54.2567 194.984 53.7429 195.391 53.34C195.962 52.7971 196.724 52.5026 197.511 52.521C198.299 52.5393 199.047 52.8691 199.591 53.438Z" fill="white"/>
<path d="M212.268 55.4959C212.243 56.0672 212.051 56.6187 211.716 57.0819C211.381 57.5451 210.917 57.8995 210.382 58.1013C209.846 58.303 209.264 58.3431 208.706 58.2167C208.149 58.0902 207.64 57.8027 207.245 57.3899C206.849 56.9771 206.583 56.4572 206.48 55.8946C206.377 55.3321 206.442 54.7518 206.666 54.2257C206.891 53.6996 207.264 53.251 207.741 52.9355C208.218 52.6199 208.777 52.4515 209.349 52.4509C210.139 52.4693 210.89 52.8 211.437 53.3707C211.984 53.9414 212.283 54.7055 212.268 55.4959Z" fill="white"/>
<path d="M282.688 317.191C282.688 317.289 234.08 317.373 174.139 317.373C114.198 317.373 65.569 317.289 65.569 317.191C65.569 317.093 114.17 317.009 174.139 317.009C234.108 317.009 282.688 317.1 282.688 317.191Z" fill="#263238"/>
<path d="M235.326 231.497C224.511 223.944 222.061 209.923 222.488 197.316C222.558 195.216 222.327 192.99 223.328 191.149C224.329 189.308 226.667 188.041 228.55 188.923C230.111 189.658 230.79 191.478 231.665 192.983C232.833 194.988 234.543 196.621 236.6 197.694C237.937 198.394 239.596 198.814 240.919 198.086C242.739 197.085 242.949 194.586 242.935 192.486C242.935 188.58 242.912 184.679 242.865 180.782C242.739 178.69 242.952 176.591 243.495 174.566C244.146 172.578 245.595 170.737 247.576 170.177C249.557 169.617 252.028 170.772 252.476 172.816C252.553 173.682 252.574 174.552 252.539 175.42C252.595 176.295 253.001 177.254 253.82 177.52C254.639 177.786 255.493 177.177 256.123 176.561C258.279 174.461 259.749 171.724 261.114 169.022C262.479 166.32 263.816 163.541 265.776 161.238C267.736 158.935 270.445 157.108 273.476 156.933C276.507 156.758 279.664 158.62 280.42 161.56C281.176 164.5 279.461 167.503 277.62 169.89C274.842 173.433 271.567 176.557 267.897 179.165C267.181 179.556 266.609 180.167 266.266 180.908C265.811 182.308 267.134 183.708 268.513 184.149C270.074 184.667 271.768 184.506 273.413 184.702C275.058 184.898 276.808 185.612 277.431 187.152C278.285 189.294 276.493 191.534 274.736 193.004C271.208 195.944 267.202 198.257 262.892 199.843C261.352 200.403 259.735 200.9 258.489 201.978C257.243 203.056 256.501 204.939 257.25 206.416C257.999 207.893 259.924 208.362 261.541 208.061C263.158 207.76 264.593 206.892 266.133 206.311C269.01 205.226 272.72 205.422 274.533 207.907C275.095 208.763 275.45 209.738 275.572 210.754C275.693 211.771 275.577 212.802 275.233 213.766C274.532 215.685 273.454 217.444 272.062 218.939C267.477 224.417 261.52 228.579 254.8 231C248.129 233.31 241.948 233.94 235.319 231.511" fill="#FF9F00"/>
<path d="M277.34 158.662C277.34 158.662 277.277 158.732 277.137 158.858L276.514 159.411C275.968 159.901 275.163 160.615 274.148 161.56C271.27 164.232 268.598 167.117 266.154 170.191C264.593 172.13 262.976 174.328 261.254 176.715C259.532 179.102 257.754 181.678 255.99 184.415C254.109 187.301 252.387 190.288 250.831 193.361C250.019 194.964 249.305 196.637 248.57 198.345L246.4 203.56C243.54 210.129 241.048 216.852 238.938 223.699C237.238 229.301 236.066 235.05 235.438 240.87C235.031 244.798 234.965 248.754 235.242 252.693C235.354 254.093 235.459 255.164 235.557 255.892C235.599 256.242 235.627 256.522 235.655 256.725V257.012C235.625 256.921 235.604 256.827 235.592 256.732C235.557 256.529 235.515 256.256 235.459 255.906C235.333 255.206 235.2 254.1 235.074 252.7C234.736 248.753 234.76 244.784 235.144 240.842C235.733 234.997 236.88 229.221 238.567 223.594C240.66 216.728 243.144 209.988 246.008 203.406L248.234 198.212C248.969 196.511 249.69 194.824 250.509 193.214C252.076 190.131 253.812 187.138 255.71 184.247C257.502 181.447 259.308 178.913 261.009 176.547C262.71 174.181 264.355 171.969 265.909 170.037C268.378 166.971 271.086 164.106 274.008 161.469C275.044 160.538 275.87 159.838 276.43 159.369L277.081 158.844C277.161 158.775 277.248 158.714 277.34 158.662Z" fill="#263238"/>
<path d="M250.6 193.2C250.501 192.912 250.433 192.614 250.397 192.311C250.285 191.73 250.159 190.911 250.012 189.847C249.711 187.747 249.403 184.87 249.074 181.685C248.745 178.5 248.374 175.616 248.066 173.537C247.905 172.501 247.765 171.668 247.667 171.087C247.591 170.79 247.551 170.484 247.548 170.177C247.669 170.457 247.756 170.751 247.807 171.052C247.961 171.626 248.136 172.452 248.332 173.495C248.731 175.595 249.123 178.451 249.452 181.643C249.781 184.835 250.061 187.635 250.278 189.812C250.383 190.792 250.474 191.625 250.544 192.29C250.598 192.59 250.617 192.896 250.6 193.2Z" fill="#263238"/>
<path d="M277.536 188.174C277.195 188.248 276.848 188.29 276.5 188.3C275.8 188.363 274.806 188.447 273.574 188.587C271.11 188.853 267.722 189.343 264.005 190.043C260.288 190.743 256.949 191.534 254.548 192.143C253.351 192.451 252.385 192.731 251.748 192.92C251.408 193.041 251.056 193.125 250.698 193.172C251.021 193.009 251.359 192.876 251.706 192.773C252.364 192.542 253.316 192.22 254.506 191.877C256.893 191.177 260.232 190.344 263.963 189.63C267.123 189.026 270.313 188.582 273.518 188.3C274.757 188.195 275.758 188.153 276.458 188.139C276.818 188.115 277.179 188.126 277.536 188.174Z" fill="#263238"/>
<path d="M238.91 223.104C238.835 223.003 238.774 222.892 238.728 222.775L238.266 221.802C237.867 220.955 237.328 219.702 236.684 218.169C235.382 215.089 233.723 210.777 231.959 205.989C230.195 201.201 228.571 196.889 227.339 193.774C226.737 192.262 226.24 191.023 225.869 190.099L225.477 189.098C225.423 188.983 225.385 188.86 225.365 188.734C225.44 188.835 225.501 188.946 225.547 189.063L226.009 190.036C226.401 190.883 226.947 192.136 227.591 193.669C228.893 196.749 230.552 201.061 232.316 205.849C234.08 210.637 235.704 214.949 236.936 218.064C237.538 219.576 238.035 220.815 238.399 221.739C238.56 222.138 238.693 222.439 238.798 222.74C238.852 222.855 238.89 222.978 238.91 223.104Z" fill="#263238"/>
<path d="M274.666 211.575C274.554 211.639 274.434 211.689 274.309 211.722L273.273 212.072L269.444 213.311C266.21 214.361 261.744 215.859 256.844 217.511C251.944 219.163 247.457 220.633 244.202 221.613C242.578 222.11 241.255 222.488 240.338 222.74L239.281 223.013C239.158 223.052 239.031 223.078 238.903 223.09C239.015 223.026 239.135 222.976 239.26 222.943L240.296 222.593L244.125 221.354C247.359 220.304 251.825 218.806 256.725 217.154C261.625 215.502 266.105 214.032 269.36 213.052C270.991 212.555 272.307 212.177 273.231 211.925L274.288 211.652C274.411 211.613 274.538 211.587 274.666 211.575Z" fill="#263238"/>
<path d="M260.078 41.776L256.473 43.064L254.926 38.353C252.084 29.666 243.026 25.053 234.703 27.986C226.38 30.919 221.949 40.446 224.791 49.133L226.338 53.844L222.719 55.139C221.339 55.6743 220.218 56.7207 219.59 58.0609C218.962 59.4011 218.874 60.9318 219.345 62.335L229.376 92.988C229.584 93.6826 229.93 94.3283 230.393 94.8867C230.855 95.4451 231.426 95.9048 232.069 96.2384C232.713 96.5721 233.418 96.7729 234.141 96.829C234.864 96.8852 235.59 96.7954 236.278 96.565L273.637 83.202C275.035 82.6677 276.172 81.6119 276.808 80.2568C277.443 78.9017 277.529 77.3529 277.046 75.936L267.008 45.283C266.794 44.5903 266.443 43.9478 265.976 43.3937C265.509 42.8396 264.934 42.3854 264.288 42.0581C263.641 41.7308 262.935 41.5371 262.212 41.4886C261.488 41.4402 260.763 41.5379 260.078 41.776ZM231.602 46.676C230.836 44.4173 230.973 41.9496 231.986 39.79C232.998 37.6304 234.807 35.9465 237.034 35.091C238.133 34.7148 239.297 34.564 240.456 34.6475C241.615 34.731 242.746 35.047 243.78 35.5769C244.814 36.1067 245.731 36.8394 246.476 37.7313C247.22 38.6232 247.778 39.656 248.115 40.768L249.655 45.479L233.142 51.387L231.602 46.676ZM252.602 73.878L255.164 81.704C255.211 81.8609 255.196 82.0299 255.122 82.1759C255.047 82.3219 254.92 82.4337 254.765 82.488L251.174 83.769C251.031 83.8086 250.878 83.7914 250.748 83.7209C250.617 83.6505 250.519 83.5322 250.474 83.391L247.891 75.6C246.467 75.5224 245.1 75.0116 243.974 74.1358C242.848 73.2601 242.017 72.0614 241.591 70.7C240.982 68.9003 241.093 66.9348 241.901 65.2151C242.709 63.4953 244.15 62.1548 245.924 61.474C246.8 61.1748 247.727 61.0549 248.65 61.1216C249.573 61.1883 250.473 61.4401 251.297 61.8621C252.121 62.2841 252.851 62.8675 253.444 63.5778C254.038 64.288 254.482 65.1104 254.751 65.996C255.201 67.3789 255.239 68.8631 254.858 70.2668C254.478 71.6706 253.696 72.9328 252.609 73.899L252.602 73.878Z" fill="#FF9F00"/>
<path d="M256.312 42.98C256.312 43.078 249.627 45.591 241.311 48.58C232.995 51.569 226.212 53.97 226.177 53.9C226.142 53.83 232.862 51.296 241.185 48.3C249.508 45.304 256.277 42.889 256.312 42.98Z" fill="#263238"/>
<path d="M264.25 44.2681C264.281 44.3288 264.307 44.392 264.327 44.4571C264.383 44.5971 264.446 44.7791 264.53 45.0031C264.712 45.5141 264.964 46.2211 265.279 47.1031L267.967 54.9291C269.087 58.2471 270.424 62.1811 271.908 66.5491C272.608 68.7401 273.434 71.0221 274.204 73.4231C274.616 74.6603 274.794 75.9636 274.729 77.2661C274.67 77.9435 274.477 78.6024 274.162 79.2051C273.826 79.8057 273.376 80.3357 272.839 80.7661C271.757 81.5555 270.557 82.1675 269.283 82.5791L265.678 83.8741L258.853 86.3171L247.296 90.4331L239.491 93.1771L237.391 93.8771L236.831 94.0591C236.771 94.0857 236.707 94.1023 236.642 94.1081C236.642 94.1081 236.698 94.1081 236.817 94.0241L237.363 93.8071L239.463 93.0161L247.226 90.1601L258.762 85.9601L265.573 83.4961L269.178 82.1941C270.416 81.7992 271.581 81.2058 272.629 80.4371C273.129 80.0378 273.547 79.5458 273.861 78.9881C274.157 78.4307 274.336 77.8184 274.386 77.1891C274.45 75.9341 274.279 74.6782 273.882 73.4861C273.126 71.1061 272.328 68.8031 271.607 66.6121C270.151 62.2371 268.807 58.2891 267.743 54.9711C266.679 51.6531 265.783 48.9861 265.167 47.1101C264.873 46.1931 264.649 45.4791 264.467 44.9611L264.299 44.4011C264.278 44.3586 264.261 44.3141 264.25 44.2681Z" fill="#263238"/>
<path d="M244.538 34.615C244.538 34.615 244.167 34.433 243.481 34.153C242.503 33.7773 241.469 33.5691 240.422 33.537C238.87 33.4838 237.326 33.7755 235.9 34.391C234.166 35.1575 232.684 36.3973 231.623 37.968C230.555 39.5343 229.982 41.3853 229.978 43.281C229.993 44.8349 230.228 46.3787 230.678 47.866C231.042 49.14 231.42 50.1551 231.672 50.8621C231.821 51.2212 231.942 51.5908 232.036 51.968C231.837 51.6323 231.671 51.2784 231.539 50.9111C231.252 50.2111 230.839 49.2171 230.433 47.9361C229.935 46.4331 229.663 44.8641 229.628 43.281C229.609 41.3136 230.196 39.388 231.308 37.765C232.406 36.1369 233.949 34.8588 235.753 34.083C237.223 33.4641 238.816 33.1911 240.408 33.285C241.478 33.3396 242.529 33.5886 243.509 34.02C243.771 34.141 244.024 34.2814 244.265 34.44C244.365 34.4838 244.457 34.5428 244.538 34.615Z" fill="#263238"/>
<path d="M244.86 62.006C244.972 61.9383 245.089 61.8798 245.21 61.831C245.56 61.6729 245.923 61.5441 246.295 61.446C246.885 61.2719 247.494 61.1685 248.108 61.138C248.944 61.0931 249.78 61.2193 250.565 61.509C252.357 62.139 254.002 63.966 254.814 66.409C255.203 67.72 255.203 69.116 254.814 70.427C254.382 71.8499 253.608 73.1454 252.56 74.2L252.602 74.011C253.533 76.566 254.548 79.338 255.598 82.229L255.661 82.404L255.486 82.467L253.883 82.999L250.383 84.168L250.208 84.224L250.152 84.049C249.193 81.151 248.143 78.449 247.352 75.796L247.506 75.915C246.138 75.8013 244.833 75.2877 243.754 74.438C242.778 73.6863 241.978 72.7308 241.409 71.638C240.896 70.6689 240.64 69.5842 240.667 68.488C240.699 67.3676 240.979 66.2683 241.486 65.2687C241.993 64.2691 242.715 63.3939 243.6 62.706C243.964 62.4103 244.373 62.1741 244.811 62.006C244.416 62.2406 244.032 62.4953 243.663 62.769C242.691 63.5914 241.946 64.6495 241.5 65.842C241.117 66.7413 240.938 67.7141 240.975 68.6908C241.013 69.6675 241.266 70.6238 241.717 71.491C242.276 72.5423 243.057 73.4594 244.006 74.179C245.035 74.9866 246.279 75.4735 247.583 75.579H247.702L247.737 75.684C248.507 78.288 249.564 81.011 250.537 83.923L250.306 83.811L253.806 82.642L255.402 82.103L255.29 82.341C254.247 79.45 253.239 76.671 252.315 74.116V74.011L252.399 73.927C253.417 72.9161 254.176 71.6747 254.611 70.308C254.982 69.0539 254.982 67.7191 254.611 66.465C253.848 64.113 252.273 62.328 250.565 61.698C249.809 61.4065 249.002 61.2708 248.192 61.299C247.587 61.3129 246.986 61.395 246.4 61.544C245.357 61.803 244.867 62.041 244.86 62.006Z" fill="#263238"/>
<path d="M223.223 264.124L153.3 263.802C149.262 263.78 145.398 262.156 142.556 259.287C139.715 256.418 138.128 252.538 138.145 248.5L138.887 73.213C138.895 71.2124 139.298 69.2331 140.071 67.3881C140.845 65.5432 141.975 63.8688 143.396 62.4607C144.817 61.0526 146.502 59.9384 148.354 59.1817C150.206 58.4251 152.188 58.0408 154.189 58.051L224.105 58.373C228.143 58.3934 232.008 60.0156 234.851 62.8833C237.694 65.7511 239.282 69.63 239.267 73.668L238.525 248.948C238.517 250.949 238.114 252.929 237.341 254.775C236.567 256.621 235.438 258.296 234.017 259.705C232.596 261.114 230.912 262.23 229.06 262.988C227.207 263.746 225.224 264.132 223.223 264.124Z" fill="#455A64"/>
<path d="M224 64.3999H210.448C210.006 64.4081 209.57 64.5034 209.164 64.6802C208.759 64.857 208.392 65.112 208.085 65.4305C207.779 65.749 207.538 66.1248 207.376 66.5366C207.215 66.9483 207.136 67.3877 207.144 67.8299V70.2869C207.152 70.7288 207.073 71.1679 206.912 71.5792C206.75 71.9905 206.509 72.3659 206.202 72.6839C205.895 73.0018 205.529 73.2561 205.123 73.4322C204.718 73.6083 204.282 73.7026 203.84 73.7099L177.422 73.5909C176.528 73.5671 175.681 73.1896 175.065 72.5412C174.45 71.8928 174.116 71.0267 174.139 70.1329V67.6759C174.162 66.7834 173.83 65.9182 173.215 65.2701C172.601 64.6219 171.756 64.2436 170.863 64.2179H166.096L154.231 64.1619C151.409 64.1451 148.695 65.2473 146.684 67.227C144.673 69.2068 143.528 71.9029 143.5 74.7249L142.8 245.819C142.794 247.219 143.063 248.607 143.593 249.902C144.123 251.198 144.902 252.377 145.888 253.372C146.873 254.366 148.045 255.157 149.336 255.699C150.627 256.24 152.012 256.523 153.412 256.529L223.188 256.851C224.589 256.857 225.977 256.588 227.274 256.058C228.571 255.527 229.751 254.747 230.746 253.761C231.741 252.775 232.532 251.603 233.074 250.311C233.616 249.019 233.899 247.633 233.905 246.232L234.605 75.1379C234.622 72.3079 233.514 69.5871 231.525 67.5735C229.537 65.5599 226.83 64.4184 224 64.3999Z" fill="white"/>
<path d="M214.85 234.024L162.966 233.8C162.427 233.8 161.993 233.212 162 232.498L162.056 218.925C162.056 218.225 162.497 217.623 163.036 217.623L214.92 217.861C215.219 217.913 215.486 218.078 215.666 218.322C215.846 218.565 215.925 218.869 215.886 219.17L215.837 232.729C215.837 233.45 215.389 234.031 214.85 234.024Z" fill="#FF9F00"/>
<path d="M176.073 228.398C176.415 228.398 176.667 228.328 176.83 228.187C176.992 228.046 177.074 227.864 177.074 227.642C177.074 227.447 177.011 227.29 176.887 227.17C176.762 227.051 176.564 226.951 176.293 226.87L175.683 226.683C175.493 226.623 175.32 226.555 175.163 226.479C175.011 226.398 174.881 226.306 174.772 226.203C174.664 226.094 174.58 225.97 174.52 225.829C174.466 225.682 174.439 225.514 174.439 225.325C174.439 224.896 174.596 224.56 174.911 224.316C175.231 224.067 175.661 223.942 176.204 223.942C176.426 223.942 176.632 223.961 176.822 223.999C177.011 224.032 177.174 224.081 177.309 224.146C177.45 224.205 177.559 224.278 177.635 224.365C177.716 224.446 177.757 224.536 177.757 224.633C177.757 224.726 177.732 224.807 177.683 224.877C177.64 224.942 177.586 224.997 177.521 225.04C177.385 224.937 177.206 224.85 176.984 224.78C176.767 224.704 176.526 224.666 176.26 224.666C175.962 224.666 175.732 224.726 175.569 224.845C175.407 224.964 175.325 225.124 175.325 225.325C175.325 225.487 175.382 225.62 175.496 225.723C175.61 225.821 175.797 225.907 176.057 225.983L176.529 226.122C176.984 226.257 177.337 226.444 177.586 226.683C177.841 226.916 177.968 227.236 177.968 227.642C177.968 227.859 177.925 228.059 177.838 228.244C177.757 228.423 177.637 228.577 177.48 228.707C177.323 228.837 177.125 228.938 176.887 229.008C176.654 229.079 176.388 229.114 176.09 229.114C175.84 229.114 175.613 229.092 175.407 229.049C175.201 229.005 175.022 228.949 174.87 228.878C174.724 228.808 174.61 228.726 174.529 228.634C174.447 228.542 174.407 228.444 174.407 228.341C174.407 228.233 174.439 228.141 174.504 228.065C174.569 227.989 174.645 227.932 174.732 227.894C174.862 228.013 175.038 228.127 175.26 228.236C175.488 228.344 175.759 228.398 176.073 228.398ZM179.865 228.984C179.827 229 179.77 229.014 179.694 229.024C179.623 229.041 179.548 229.049 179.466 229.049C179.298 229.049 179.176 229.019 179.1 228.959C179.03 228.894 178.995 228.789 178.995 228.642V224.064C179.038 224.053 179.095 224.043 179.165 224.032C179.241 224.016 179.32 224.007 179.401 224.007C179.558 224.007 179.675 224.037 179.751 224.097C179.827 224.156 179.865 224.262 179.865 224.414V228.984ZM185.292 228.886C185.232 228.935 185.156 228.976 185.064 229.008C184.972 229.041 184.863 229.057 184.739 229.057C184.587 229.057 184.454 229.03 184.34 228.976C184.232 228.916 184.132 228.808 184.039 228.65L182.698 226.317C182.638 226.214 182.576 226.105 182.511 225.991C182.451 225.878 182.391 225.764 182.332 225.65C182.278 225.536 182.223 225.428 182.169 225.325C182.12 225.216 182.077 225.121 182.039 225.04L181.998 225.048C182.026 225.33 182.045 225.634 182.055 225.959C182.066 226.279 182.072 226.582 182.072 226.87V228.992C182.034 229.003 181.977 229.014 181.901 229.024C181.83 229.041 181.757 229.049 181.681 229.049C181.519 229.049 181.399 229.019 181.324 228.959C181.253 228.9 181.218 228.799 181.218 228.658V224.203C181.272 224.143 181.348 224.097 181.446 224.064C181.549 224.026 181.657 224.007 181.771 224.007C181.923 224.007 182.055 224.034 182.169 224.089C182.283 224.143 182.386 224.249 182.478 224.406L183.828 226.748C183.888 226.851 183.947 226.959 184.007 227.073C184.067 227.187 184.123 227.301 184.178 227.414C184.237 227.528 184.291 227.639 184.34 227.748C184.394 227.851 184.441 227.943 184.478 228.024L184.511 228.016C184.468 227.604 184.443 227.198 184.438 226.796C184.432 226.39 184.43 225.994 184.43 225.609V224.064C184.473 224.053 184.53 224.043 184.6 224.032C184.671 224.016 184.747 224.007 184.828 224.007C184.991 224.007 185.107 224.037 185.178 224.097C185.254 224.156 185.292 224.257 185.292 224.398V228.886ZM190.691 228.374C190.691 228.488 190.661 228.583 190.602 228.658C190.547 228.729 190.461 228.794 190.341 228.854C190.201 228.93 190.005 228.992 189.756 229.041C189.507 229.089 189.252 229.114 188.992 229.114C188.607 229.114 188.252 229.065 187.926 228.967C187.607 228.864 187.33 228.707 187.097 228.496C186.864 228.284 186.682 228.016 186.552 227.691C186.422 227.366 186.357 226.981 186.357 226.536C186.357 226.103 186.425 225.723 186.56 225.398C186.696 225.073 186.878 224.804 187.105 224.593C187.338 224.376 187.609 224.213 187.918 224.105C188.233 223.997 188.566 223.942 188.918 223.942C189.152 223.942 189.366 223.964 189.561 224.007C189.756 224.045 189.924 224.097 190.065 224.162C190.206 224.227 190.314 224.303 190.39 224.39C190.466 224.471 190.504 224.558 190.504 224.65C190.504 224.742 190.48 224.823 190.431 224.894C190.382 224.959 190.322 225.01 190.252 225.048C190.106 224.956 189.932 224.869 189.732 224.788C189.531 224.707 189.279 224.666 188.975 224.666C188.731 224.666 188.504 224.707 188.292 224.788C188.081 224.869 187.897 224.989 187.739 225.146C187.588 225.303 187.468 225.498 187.382 225.731C187.295 225.964 187.252 226.233 187.252 226.536C187.252 226.856 187.295 227.135 187.382 227.374C187.474 227.607 187.596 227.799 187.748 227.951C187.905 228.103 188.089 228.217 188.301 228.293C188.517 228.363 188.75 228.398 189 228.398C189.173 228.398 189.336 228.385 189.488 228.358C189.639 228.325 189.756 228.287 189.837 228.244V226.943H188.715C188.688 226.91 188.664 226.864 188.642 226.805C188.626 226.74 188.618 226.674 188.618 226.609C188.618 226.485 188.645 226.393 188.699 226.333C188.759 226.273 188.837 226.243 188.935 226.243H190.301C190.415 226.243 190.507 226.279 190.577 226.349C190.653 226.414 190.691 226.509 190.691 226.634V228.374ZM197.494 227.268C197.494 227.544 197.448 227.797 197.356 228.024C197.269 228.252 197.139 228.447 196.966 228.61C196.798 228.772 196.589 228.897 196.34 228.984C196.096 229.07 195.814 229.114 195.494 229.114C195.18 229.114 194.898 229.07 194.648 228.984C194.405 228.897 194.196 228.772 194.022 228.61C193.854 228.447 193.724 228.252 193.632 228.024C193.545 227.797 193.502 227.544 193.502 227.268V224.064C193.54 224.053 193.597 224.043 193.673 224.032C193.749 224.016 193.827 224.007 193.909 224.007C194.066 224.007 194.182 224.037 194.258 224.097C194.334 224.156 194.372 224.262 194.372 224.414V227.219C194.372 227.604 194.478 227.897 194.689 228.097C194.906 228.298 195.174 228.398 195.494 228.398C195.657 228.398 195.806 228.374 195.941 228.325C196.077 228.271 196.196 228.195 196.299 228.097C196.402 228 196.481 227.878 196.535 227.732C196.595 227.585 196.624 227.414 196.624 227.219V224.064C196.662 224.053 196.719 224.043 196.795 224.032C196.871 224.016 196.95 224.007 197.031 224.007C197.188 224.007 197.305 224.037 197.381 224.097C197.456 224.156 197.494 224.262 197.494 224.414V227.268ZM199.701 227.301V228.984C199.657 229 199.6 229.014 199.53 229.024C199.459 229.041 199.381 229.049 199.294 229.049C199.126 229.049 199.004 229.019 198.928 228.959C198.858 228.894 198.822 228.789 198.822 228.642V224.446C198.822 224.354 198.847 224.284 198.896 224.235C198.95 224.181 199.023 224.14 199.115 224.113C199.283 224.053 199.484 224.013 199.717 223.991C199.95 223.969 200.169 223.959 200.375 223.959C201.08 223.959 201.601 224.108 201.937 224.406C202.278 224.704 202.449 225.108 202.449 225.617C202.449 226.127 202.278 226.536 201.937 226.845C201.601 227.149 201.096 227.301 200.424 227.301H199.701ZM200.367 226.593C200.741 226.593 201.034 226.512 201.246 226.349C201.462 226.187 201.571 225.943 201.571 225.617C201.571 225.292 201.468 225.054 201.262 224.902C201.061 224.75 200.771 224.674 200.392 224.674C200.267 224.674 200.142 224.68 200.018 224.69C199.898 224.701 199.79 224.715 199.692 224.731V226.593H200.367Z" fill="#E8E8E3"/>
<path d="M173.078 114.695L155.074 114.613L155.059 117.917L173.063 117.999L173.078 114.695Z" fill="#FF9F00"/>
<path opacity="0.1" d="M173.078 114.695L155.074 114.613L155.059 117.917L173.063 117.999L173.078 114.695Z" fill="black"/>
<path d="M225.855 134.981C225.996 134.967 226.135 134.934 226.268 134.883C226.462 134.807 226.63 134.678 226.754 134.511C226.878 134.344 226.952 134.145 226.968 133.938C226.968 132.825 226.968 131.201 226.968 129.115C226.968 128.072 226.968 126.903 226.968 125.615C226.968 125.3 226.968 124.971 226.968 124.642C227.014 124.323 226.944 123.998 226.772 123.725C226.676 123.594 226.55 123.488 226.406 123.413C226.261 123.339 226.101 123.3 225.939 123.298H224.847H214.732L156.184 123.081C156.034 123.078 155.886 123.112 155.752 123.179C155.618 123.246 155.502 123.345 155.414 123.466C155.245 123.74 155.18 124.065 155.232 124.383C155.232 125.083 155.232 125.783 155.232 126.483C155.232 127.883 155.232 129.283 155.232 130.683C155.232 131.383 155.232 132.083 155.232 132.783C155.203 133.109 155.203 133.437 155.232 133.763C155.269 133.903 155.337 134.032 155.432 134.141C155.527 134.251 155.645 134.337 155.778 134.393C155.916 134.448 156.064 134.474 156.212 134.47H159.775L175.322 134.554L201.642 134.715L219.387 134.855L224.21 134.911H225.463C225.75 134.911 225.89 134.911 225.89 134.911H225.463H224.21H219.387H201.642L175.322 134.827L159.775 134.764H156.212C156.016 134.772 155.82 134.738 155.638 134.666C155.454 134.587 155.29 134.468 155.159 134.316C155.028 134.164 154.933 133.985 154.882 133.791C154.842 133.607 154.827 133.419 154.84 133.231V132.713C154.84 132.013 154.84 131.313 154.84 130.613C154.84 129.213 154.84 127.813 154.84 126.413C154.84 125.713 154.84 125.013 154.84 124.313C154.827 124.127 154.827 123.939 154.84 123.753C154.866 123.547 154.946 123.352 155.071 123.186C155.192 123.017 155.352 122.88 155.537 122.786C155.722 122.692 155.927 122.644 156.135 122.647L214.683 122.969L224.798 123.039H225.89C226.082 123.039 226.272 123.086 226.443 123.175C226.613 123.264 226.76 123.392 226.87 123.55C227.067 123.854 227.147 124.22 227.094 124.579C227.094 124.908 227.094 125.237 227.094 125.552C227.094 126.826 227.094 127.995 227.094 129.052C227.094 131.152 227.045 132.762 227.031 133.882C227.014 134.097 226.936 134.303 226.805 134.476C226.675 134.648 226.499 134.78 226.296 134.855C226.164 134.937 226.011 134.981 225.855 134.981Z" fill="#E0E0E0"/>
<path d="M193.41 126.595H160.482V129.682H193.41V126.595Z" fill="#FF9F00"/>
<path opacity="0.2" d="M193.41 126.595H160.482V129.682H193.41V126.595Z" fill="white"/>
<path d="M172.955 144.836L154.951 144.755L154.936 148.058L172.94 148.14L172.955 144.836Z" fill="#FF9F00"/>
<path opacity="0.1" d="M172.955 144.836L154.951 144.755L154.936 148.058L172.94 148.14L172.955 144.836Z" fill="black"/>
<path d="M225.4 165.123C225.541 165.106 225.682 165.08 225.82 165.046C226.016 164.984 226.195 164.88 226.348 164.743C226.5 164.605 226.621 164.436 226.702 164.248C226.812 163.965 226.855 163.661 226.828 163.359C226.828 163.023 226.828 162.659 226.828 162.253C226.828 161.441 226.828 160.517 226.828 159.453V155.008C226.861 154.686 226.79 154.362 226.625 154.084C226.452 153.799 226.181 153.587 225.862 153.489C225.513 153.427 225.158 153.408 224.805 153.433H214.732L156.387 153.216C156.073 153.217 155.77 153.331 155.535 153.539C155.299 153.746 155.147 154.032 155.106 154.343C155.106 155.008 155.106 155.743 155.106 156.443C155.106 157.843 155.106 159.243 155.106 160.643C155.106 161.343 155.106 162.043 155.106 162.743C155.08 163.07 155.094 163.399 155.148 163.723C155.235 164.007 155.415 164.253 155.659 164.423C155.918 164.587 156.221 164.665 156.527 164.647H157.5H159.523L175.014 164.724L201.243 164.885L218.925 165.025L223.734 165.081H224.987H225.407H224.987H223.734H218.925H201.243L175 165.053L159.509 164.997H156.464C156.085 165.019 155.71 164.919 155.393 164.71C155.074 164.489 154.842 164.165 154.735 163.793C154.672 163.437 154.653 163.075 154.679 162.715C154.679 162.015 154.679 161.315 154.679 160.615C154.679 159.215 154.679 157.815 154.679 156.415C154.679 155.715 154.679 155.015 154.679 154.315C154.73 153.915 154.925 153.547 155.228 153.28C155.531 153.013 155.921 152.866 156.324 152.866L214.669 153.188L224.742 153.265C225.117 153.242 225.494 153.268 225.862 153.342C226.226 153.461 226.532 153.71 226.723 154.042C226.904 154.35 226.983 154.708 226.947 155.064C226.947 155.393 226.947 155.715 226.947 156.037C226.947 157.304 226.947 158.466 226.947 159.537C226.947 160.608 226.947 161.511 226.947 162.337C226.947 162.736 226.947 163.107 226.947 163.45C226.972 163.763 226.922 164.078 226.8 164.367C226.709 164.56 226.578 164.731 226.415 164.869C226.252 165.007 226.061 165.108 225.855 165.165C225.702 165.178 225.548 165.163 225.4 165.123Z" fill="#E0E0E0"/>
<path d="M172.819 176.286L154.816 176.205L154.801 179.509L172.805 179.59L172.819 176.286Z" fill="#FF9F00"/>
<path opacity="0.1" d="M172.819 176.286L154.816 176.205L154.801 179.509L172.805 179.59L172.819 176.286Z" fill="black"/>
<path d="M225.26 196.56C225.401 196.543 225.542 196.517 225.68 196.483C225.875 196.421 226.054 196.319 226.206 196.182C226.358 196.046 226.479 195.879 226.562 195.692C226.672 195.409 226.715 195.105 226.688 194.803C226.688 194.46 226.688 194.103 226.688 193.69C226.688 192.885 226.688 191.954 226.688 190.89V186.445C226.721 186.123 226.65 185.799 226.485 185.521C226.308 185.241 226.038 185.032 225.722 184.933C225.374 184.868 225.019 184.847 224.665 184.87H214.592L156.247 184.653C155.933 184.654 155.63 184.768 155.395 184.976C155.159 185.183 155.007 185.469 154.966 185.78C154.966 186.48 154.966 187.18 154.966 187.88C154.966 189.28 154.966 190.68 154.966 192.08C154.966 192.78 154.966 193.48 154.966 194.18C154.94 194.505 154.954 194.832 155.008 195.153C155.092 195.439 155.272 195.686 155.519 195.853C155.776 196.021 156.081 196.099 156.387 196.077H159.432L174.923 196.161L201.152 196.322L218.834 196.462L223.643 196.518H224.896C225.176 196.518 225.316 196.518 225.316 196.518C225.316 196.518 225.176 196.518 224.896 196.518H223.643H218.834H201.152L174.923 196.441L159.432 196.378H156.387C156.008 196.403 155.631 196.303 155.316 196.091C154.997 195.87 154.765 195.546 154.658 195.174C154.595 194.818 154.576 194.456 154.602 194.096C154.602 193.396 154.602 192.696 154.602 191.996C154.602 190.596 154.602 189.196 154.602 187.796C154.602 187.096 154.602 186.396 154.602 185.661C154.651 185.261 154.845 184.893 155.147 184.627C155.449 184.36 155.837 184.212 156.24 184.212L214.585 184.534L224.658 184.611C225.033 184.588 225.41 184.614 225.778 184.688C226.142 184.807 226.448 185.056 226.639 185.388C226.82 185.696 226.899 186.054 226.863 186.41C226.863 186.739 226.863 187.068 226.863 187.383C226.863 188.65 226.863 189.812 226.863 190.883C226.863 191.954 226.863 192.857 226.863 193.683C226.863 194.082 226.863 194.453 226.863 194.796C226.89 195.109 226.839 195.424 226.716 195.713C226.625 195.906 226.494 196.077 226.331 196.215C226.168 196.353 225.977 196.454 225.771 196.511C225.607 196.567 225.432 196.584 225.26 196.56Z" fill="#E0E0E0"/>
<path d="M192.707 157.61L159.779 157.46L159.765 160.547L192.693 160.697L192.707 157.61Z" fill="#FF9F00"/>
<path opacity="0.2" d="M192.707 157.61L159.779 157.46L159.765 160.547L192.693 160.697L192.707 157.61Z" fill="white"/>
<path d="M162.757 190.848C162.736 191.13 162.634 191.399 162.461 191.622C162.289 191.846 162.055 192.014 161.788 192.106C161.521 192.198 161.233 192.209 160.959 192.139C160.686 192.068 160.439 191.919 160.25 191.71C160.06 191.501 159.937 191.24 159.894 190.961C159.851 190.682 159.891 190.397 160.009 190.14C160.127 189.884 160.317 189.667 160.557 189.518C160.797 189.369 161.075 189.293 161.357 189.301C161.747 189.323 162.113 189.497 162.375 189.787C162.637 190.076 162.774 190.458 162.757 190.848Z" fill="#FF9F00"/>
<path d="M167.216 190.869C167.23 191.066 167.203 191.264 167.137 191.451C167.071 191.637 166.967 191.808 166.832 191.953C166.697 192.098 166.534 192.213 166.353 192.292C166.171 192.371 165.975 192.411 165.778 192.411C165.58 192.411 165.384 192.371 165.203 192.292C165.021 192.213 164.858 192.098 164.723 191.953C164.588 191.808 164.484 191.637 164.418 191.451C164.352 191.264 164.325 191.066 164.339 190.869C164.325 190.672 164.352 190.474 164.418 190.287C164.484 190.101 164.588 189.93 164.723 189.785C164.858 189.64 165.021 189.525 165.203 189.446C165.384 189.367 165.58 189.327 165.778 189.327C165.975 189.327 166.171 189.367 166.353 189.446C166.534 189.525 166.697 189.64 166.832 189.785C166.967 189.93 167.071 190.101 167.137 190.287C167.203 190.474 167.23 190.672 167.216 190.869Z" fill="#FF9F00"/>
<path d="M171.682 190.89C171.661 191.172 171.558 191.441 171.386 191.664C171.214 191.888 170.98 192.056 170.713 192.148C170.446 192.24 170.158 192.251 169.884 192.181C169.611 192.11 169.364 191.961 169.175 191.752C168.985 191.543 168.861 191.282 168.819 191.003C168.776 190.724 168.816 190.439 168.934 190.182C169.052 189.926 169.242 189.709 169.482 189.56C169.722 189.411 170 189.335 170.282 189.343C170.671 189.366 171.036 189.542 171.298 189.831C171.559 190.12 171.697 190.5 171.682 190.89Z" fill="#FF9F00"/>
<path d="M176.141 190.911C176.12 191.193 176.017 191.462 175.845 191.686C175.673 191.909 175.439 192.077 175.172 192.169C174.905 192.261 174.617 192.272 174.343 192.202C174.07 192.132 173.823 191.982 173.634 191.773C173.444 191.564 173.32 191.303 173.278 191.024C173.235 190.745 173.275 190.46 173.393 190.203C173.511 189.947 173.701 189.73 173.941 189.581C174.181 189.432 174.459 189.357 174.741 189.364C175.13 189.388 175.495 189.563 175.757 189.852C176.018 190.141 176.156 190.521 176.141 190.911Z" fill="#FF9F00"/>
<path d="M180.6 190.925C180.581 191.207 180.479 191.477 180.307 191.702C180.136 191.926 179.902 192.096 179.635 192.188C179.368 192.281 179.08 192.294 178.806 192.224C178.532 192.154 178.284 192.006 178.094 191.797C177.904 191.587 177.78 191.327 177.736 191.048C177.693 190.768 177.733 190.482 177.851 190.226C177.968 189.969 178.159 189.752 178.399 189.603C178.639 189.453 178.917 189.377 179.2 189.385C179.588 189.409 179.952 189.583 180.213 189.87C180.475 190.158 180.613 190.536 180.6 190.925Z" fill="#FF9F00"/>
<path d="M185.066 190.946C185.047 191.227 184.946 191.495 184.776 191.719C184.606 191.943 184.375 192.113 184.11 192.207C183.845 192.301 183.558 192.316 183.285 192.249C183.012 192.182 182.764 192.037 182.572 191.831C182.381 191.625 182.253 191.368 182.206 191.091C182.159 190.814 182.193 190.529 182.306 190.271C182.418 190.013 182.604 189.794 182.839 189.641C183.075 189.487 183.35 189.405 183.631 189.406C184.025 189.421 184.398 189.591 184.667 189.88C184.936 190.168 185.079 190.552 185.066 190.946Z" fill="#FF9F00"/>
<path d="M189.525 190.967C189.539 191.164 189.512 191.362 189.446 191.549C189.38 191.735 189.276 191.906 189.141 192.051C189.006 192.196 188.843 192.311 188.661 192.39C188.48 192.469 188.284 192.509 188.087 192.509C187.889 192.509 187.693 192.469 187.512 192.39C187.33 192.311 187.167 192.196 187.032 192.051C186.897 191.906 186.793 191.735 186.727 191.549C186.661 191.362 186.634 191.164 186.648 190.967C186.634 190.77 186.661 190.572 186.727 190.385C186.793 190.199 186.897 190.028 187.032 189.883C187.167 189.738 187.33 189.623 187.512 189.544C187.693 189.465 187.889 189.425 188.087 189.425C188.284 189.425 188.48 189.465 188.661 189.544C188.843 189.623 189.006 189.738 189.141 189.883C189.276 190.028 189.38 190.199 189.446 190.385C189.512 190.572 189.539 190.77 189.525 190.967Z" fill="#FF9F00"/>
<path d="M193.984 190.988C193.965 191.269 193.864 191.537 193.694 191.761C193.524 191.985 193.293 192.155 193.028 192.249C192.763 192.343 192.476 192.358 192.203 192.291C191.93 192.224 191.682 192.079 191.49 191.873C191.299 191.667 191.171 191.41 191.124 191.133C191.077 190.856 191.111 190.571 191.224 190.313C191.336 190.055 191.522 189.836 191.757 189.682C191.993 189.529 192.268 189.447 192.549 189.448C192.943 189.463 193.316 189.633 193.585 189.922C193.854 190.21 193.997 190.594 193.984 190.988Z" fill="#FF9F00"/>
<path d="M198.443 191.009C198.424 191.291 198.322 191.561 198.15 191.786C197.979 192.01 197.745 192.18 197.478 192.272C197.211 192.365 196.923 192.378 196.649 192.308C196.375 192.238 196.128 192.09 195.937 191.88C195.747 191.671 195.623 191.411 195.579 191.132C195.536 190.852 195.576 190.566 195.694 190.31C195.811 190.053 196.002 189.836 196.242 189.687C196.482 189.537 196.76 189.461 197.043 189.469C197.431 189.493 197.795 189.667 198.056 189.954C198.318 190.242 198.457 190.62 198.443 191.009Z" fill="#FF9F00"/>
<g opacity="0.2">
<path opacity="0.2" d="M162.757 190.848C162.736 191.13 162.634 191.399 162.461 191.622C162.289 191.846 162.055 192.014 161.788 192.106C161.521 192.198 161.233 192.209 160.959 192.139C160.686 192.068 160.439 191.919 160.25 191.71C160.06 191.501 159.937 191.24 159.894 190.961C159.851 190.682 159.891 190.397 160.009 190.14C160.127 189.884 160.317 189.667 160.557 189.518C160.797 189.369 161.075 189.293 161.357 189.301C161.747 189.323 162.113 189.497 162.375 189.787C162.637 190.076 162.774 190.458 162.757 190.848Z" fill="white"/>
<path opacity="0.2" d="M167.216 190.869C167.23 191.066 167.203 191.264 167.137 191.451C167.071 191.637 166.967 191.808 166.832 191.953C166.697 192.098 166.534 192.213 166.353 192.292C166.171 192.371 165.975 192.411 165.778 192.411C165.58 192.411 165.384 192.371 165.203 192.292C165.021 192.213 164.858 192.098 164.723 191.953C164.588 191.808 164.484 191.637 164.418 191.451C164.352 191.264 164.325 191.066 164.339 190.869C164.325 190.672 164.352 190.474 164.418 190.287C164.484 190.101 164.588 189.93 164.723 189.785C164.858 189.64 165.021 189.525 165.203 189.446C165.384 189.367 165.58 189.327 165.778 189.327C165.975 189.327 166.171 189.367 166.353 189.446C166.534 189.525 166.697 189.64 166.832 189.785C166.967 189.93 167.071 190.101 167.137 190.287C167.203 190.474 167.23 190.672 167.216 190.869Z" fill="white"/>
<path opacity="0.2" d="M171.682 190.89C171.661 191.172 171.559 191.441 171.386 191.664C171.214 191.888 170.98 192.056 170.713 192.148C170.446 192.24 170.158 192.251 169.884 192.181C169.611 192.11 169.364 191.961 169.175 191.752C168.985 191.543 168.862 191.282 168.819 191.003C168.776 190.724 168.816 190.439 168.934 190.182C169.052 189.926 169.242 189.709 169.482 189.56C169.722 189.411 170 189.335 170.282 189.343C170.671 189.366 171.036 189.542 171.298 189.831C171.56 190.12 171.697 190.5 171.682 190.89Z" fill="white"/>
<path opacity="0.2" d="M176.141 190.911C176.12 191.192 176.018 191.462 175.845 191.685C175.673 191.909 175.439 192.077 175.172 192.169C174.905 192.261 174.617 192.272 174.343 192.202C174.07 192.131 173.823 191.982 173.634 191.773C173.444 191.564 173.321 191.303 173.278 191.024C173.235 190.745 173.275 190.46 173.393 190.203C173.511 189.947 173.701 189.73 173.941 189.581C174.181 189.432 174.459 189.356 174.741 189.364C175.13 189.387 175.495 189.563 175.757 189.852C176.018 190.141 176.156 190.521 176.141 190.911Z" fill="white"/>
<path opacity="0.2" d="M180.6 190.925C180.581 191.207 180.479 191.477 180.307 191.702C180.136 191.926 179.902 192.096 179.635 192.188C179.368 192.281 179.08 192.294 178.806 192.224C178.532 192.154 178.285 192.006 178.094 191.796C177.904 191.587 177.78 191.327 177.737 191.048C177.693 190.768 177.733 190.482 177.851 190.225C177.968 189.969 178.159 189.752 178.399 189.602C178.639 189.453 178.918 189.377 179.2 189.385C179.588 189.408 179.952 189.583 180.213 189.87C180.475 190.158 180.614 190.536 180.6 190.925Z" fill="white"/>
<path opacity="0.2" d="M185.066 190.946C185.047 191.226 184.946 191.495 184.776 191.719C184.606 191.943 184.375 192.113 184.11 192.207C183.845 192.301 183.558 192.315 183.285 192.249C183.012 192.182 182.764 192.037 182.572 191.831C182.381 191.625 182.253 191.368 182.206 191.091C182.159 190.814 182.193 190.529 182.306 190.271C182.418 190.013 182.604 189.794 182.839 189.64C183.075 189.487 183.35 189.405 183.631 189.406C184.025 189.42 184.398 189.591 184.667 189.879C184.936 190.168 185.079 190.552 185.066 190.946Z" fill="white"/>
<path opacity="0.2" d="M189.525 190.967C189.539 191.164 189.512 191.362 189.446 191.549C189.38 191.735 189.276 191.906 189.141 192.051C189.006 192.196 188.843 192.311 188.661 192.39C188.48 192.469 188.284 192.509 188.087 192.509C187.889 192.509 187.693 192.469 187.512 192.39C187.33 192.311 187.167 192.196 187.032 192.051C186.897 191.906 186.793 191.735 186.727 191.549C186.661 191.362 186.634 191.164 186.648 190.967C186.634 190.77 186.661 190.572 186.727 190.385C186.793 190.199 186.897 190.028 187.032 189.883C187.167 189.738 187.33 189.623 187.512 189.544C187.693 189.465 187.889 189.425 188.087 189.425C188.284 189.425 188.48 189.465 188.661 189.544C188.843 189.623 189.006 189.738 189.141 189.883C189.276 190.028 189.38 190.199 189.446 190.385C189.512 190.572 189.539 190.77 189.525 190.967Z" fill="white"/>
<path opacity="0.2" d="M193.984 190.988C193.965 191.269 193.864 191.537 193.694 191.761C193.524 191.985 193.293 192.155 193.028 192.249C192.763 192.343 192.476 192.358 192.203 192.291C191.93 192.224 191.682 192.079 191.49 191.873C191.299 191.667 191.171 191.41 191.124 191.133C191.077 190.856 191.111 190.571 191.224 190.313C191.336 190.055 191.522 189.836 191.757 189.682C191.993 189.529 192.268 189.447 192.549 189.448C192.943 189.463 193.316 189.633 193.585 189.922C193.854 190.21 193.997 190.594 193.984 190.988Z" fill="white"/>
<path opacity="0.2" d="M198.443 191.009C198.424 191.291 198.322 191.561 198.151 191.786C197.979 192.01 197.745 192.179 197.478 192.272C197.211 192.365 196.923 192.378 196.649 192.308C196.375 192.238 196.128 192.09 195.938 191.88C195.747 191.671 195.623 191.411 195.58 191.132C195.536 190.852 195.576 190.566 195.694 190.309C195.812 190.052 196.002 189.836 196.242 189.686C196.482 189.537 196.761 189.461 197.043 189.469C197.431 189.492 197.795 189.667 198.056 189.954C198.318 190.242 198.457 190.62 198.443 191.009Z" fill="white"/>
</g>
<path d="M192.108 89.9569C192.594 89.7428 193.007 89.3904 193.294 88.9436C193.582 88.4968 193.732 87.9752 193.725 87.444C193.743 87.0986 193.691 86.7531 193.571 86.4287C193.451 86.1042 193.267 85.8075 193.029 85.5566C192.791 85.3057 192.504 85.1059 192.186 84.9694C191.869 84.8329 191.526 84.7625 191.181 84.7625C190.835 84.7625 190.493 84.8329 190.175 84.9694C189.857 85.1059 189.57 85.3057 189.332 85.5566C189.094 85.8075 188.91 86.1042 188.79 86.4287C188.67 86.7531 188.618 87.0986 188.636 87.444C188.625 87.9806 188.774 88.5083 189.063 88.9606C189.352 89.4128 189.769 89.7693 190.26 89.985C186.34 90.573 186.515 94.829 186.515 94.829L195.783 94.8709C195.783 94.8709 196 90.5379 192.108 89.9569Z" fill="#FF9F00"/>
<path opacity="0.1" d="M192.108 89.9569C192.594 89.7428 193.007 89.3904 193.294 88.9436C193.582 88.4968 193.732 87.9752 193.725 87.444C193.743 87.0986 193.691 86.7531 193.571 86.4287C193.451 86.1042 193.267 85.8075 193.029 85.5566C192.791 85.3057 192.504 85.1059 192.186 84.9694C191.869 84.8329 191.526 84.7625 191.181 84.7625C190.835 84.7625 190.493 84.8329 190.175 84.9694C189.857 85.1059 189.57 85.3057 189.332 85.5566C189.094 85.8075 188.91 86.1042 188.79 86.4287C188.67 86.7531 188.618 87.0986 188.636 87.444C188.625 87.9806 188.774 88.5083 189.063 88.9606C189.352 89.4128 189.769 89.7693 190.26 89.985C186.34 90.573 186.515 94.829 186.515 94.829L195.783 94.8709C195.783 94.8709 196 90.5379 192.108 89.9569Z" fill="black"/>
<path d="M207.168 97.616L174.135 97.4661L174.118 101.414L207.15 101.564L207.168 97.616Z" fill="#FF9F00"/>
<path opacity="0.2" d="M207.168 97.616L174.135 97.4661L174.118 101.414L207.15 101.564L207.168 97.616Z" fill="white"/>
<path d="M85.729 118.076H85.4L84.448 118.146C83.9328 118.177 83.4205 118.245 82.915 118.349C82.5876 118.395 82.2628 118.458 81.942 118.538L80.857 118.839C79.0103 119.406 77.2679 120.268 75.698 121.394C73.6238 122.9 71.8919 124.827 70.616 127.05C69.8661 128.331 69.2694 129.696 68.838 131.117C68.3848 132.661 68.1238 134.255 68.061 135.863C68.0193 136.708 68.0333 137.554 68.103 138.397C68.103 138.824 68.222 139.251 68.278 139.685C68.3251 140.122 68.407 140.556 68.523 140.98C69.1525 143.789 70.4297 146.412 72.2527 148.64C74.0757 150.867 76.3941 152.638 79.023 153.811C80.9257 154.632 82.965 155.09 85.036 155.162C87.175 155.28 89.3162 154.973 91.336 154.259L91.952 154.028H92.036L92.106 154.07L100.933 158.55L100.674 158.774C99.729 155.848 98.819 153.013 97.937 150.29V150.185L98.014 150.108C100.155 147.951 101.745 145.31 102.648 142.408C103.466 139.755 103.705 136.957 103.348 134.204C103.031 131.757 102.244 129.395 101.031 127.246C99.9854 125.4 98.6366 123.744 97.041 122.346C95.7246 121.24 94.2677 120.312 92.708 119.588C91.5279 119.079 90.2988 118.692 89.04 118.433L87.64 118.202L86.625 118.125L86.009 118.083H85.799C85.8688 118.075 85.9392 118.075 86.009 118.083H86.632L87.647 118.125L89.047 118.328C90.3215 118.568 91.5673 118.941 92.764 119.441C94.3505 120.157 95.8337 121.082 97.174 122.192C98.7989 123.584 100.176 125.24 101.248 127.092C102.495 129.264 103.306 131.658 103.635 134.141C104.021 136.937 103.799 139.783 102.984 142.485C102.075 145.447 100.461 148.145 98.28 150.346L98.322 150.164C99.204 152.887 100.121 155.722 101.073 158.641L101.206 159.068L100.807 158.865L91.98 154.392H92.134L91.504 154.623C89.4453 155.347 87.2645 155.661 85.085 155.547C82.9694 155.466 80.8874 154.992 78.946 154.147C75.2428 152.561 72.1618 149.805 70.175 146.3C69.2608 144.681 68.5931 142.936 68.194 141.12C68.0847 140.685 68.0029 140.243 67.949 139.797C67.893 139.356 67.802 138.922 67.781 138.488C67.5916 135.997 67.8548 133.493 68.558 131.096C69.0001 129.656 69.6135 128.274 70.385 126.98C71.6913 124.737 73.4593 122.797 75.572 121.289C77.1678 120.161 78.9394 119.304 80.815 118.755L81.914 118.475C82.2375 118.4 82.5646 118.342 82.894 118.3C83.4048 118.205 83.9219 118.149 84.441 118.132L85.4 118.097C85.5091 118.082 85.619 118.075 85.729 118.076Z" fill="#FF9F00"/>
<path d="M89.7191 134.4H88.4241L85.6241 130.466V127.883C85.6241 127.883 83.6221 127.757 83.8601 131.138C84.0981 134.519 83.8601 133.658 83.8601 133.658C83.8601 133.658 79.6111 133.658 79.2611 134.043C78.9111 134.428 78.8901 138.53 78.8411 140.819C78.8142 141.371 78.9726 141.916 79.2909 142.367C79.6092 142.819 80.0693 143.151 80.5981 143.311C80.7463 143.352 80.8993 143.373 81.0531 143.374C82.1171 143.374 87.5281 142.513 87.5281 142.513H89.7611L89.7191 134.4Z" fill="#FF9F00"/>
<path d="M93.422 133.707L92.624 142.555H90.412V133.889L93.422 133.707Z" fill="#FF9F00"/>
<path d="M119.805 313.838V307.853L109.074 307.776L108.983 316.827L109.648 316.876C112.609 317.065 124.712 317.345 126.7 316.729C128.912 316.043 119.805 313.838 119.805 313.838Z" fill="#FF9F00"/>
<path d="M126.952 316.169C126.952 316.267 122.934 316.351 117.985 316.351C113.036 316.351 109.018 316.267 109.018 316.169C109.018 316.071 113.036 315.987 117.985 315.987C122.934 315.987 126.952 316.071 126.952 316.169Z" fill="#263238"/>
<path d="M119.994 315.063C119.903 315.014 119.994 314.699 120.211 314.363C120.428 314.027 120.722 313.887 120.792 313.957C120.862 314.027 120.715 314.293 120.505 314.58C120.295 314.867 120.085 315.112 119.994 315.063Z" fill="#263238"/>
<path d="M120.68 315.455C120.582 315.455 120.631 315.063 120.841 314.692C121.051 314.321 121.331 314.097 121.408 314.153C121.485 314.209 121.359 314.524 121.163 314.853C120.967 315.182 120.771 315.49 120.68 315.455Z" fill="#263238"/>
<path d="M112.252 316.141C112.21 316.141 112.049 316.015 111.818 315.749C111.536 315.407 111.222 315.093 110.88 314.811C110.544 314.542 110.143 314.366 109.718 314.3C109.389 314.258 109.179 314.3 109.158 314.258C109.137 314.216 109.34 314.069 109.725 314.041C110.233 314.03 110.729 314.199 111.125 314.517C111.496 314.82 111.809 315.187 112.049 315.602C112.21 315.91 112.294 316.113 112.252 316.141Z" fill="#263238"/>
<path d="M120.029 313.936C120.078 314.02 119.896 314.23 119.588 314.342C119.28 314.454 119.007 314.412 118.993 314.342C118.979 314.272 119.196 314.125 119.462 314.027C119.728 313.929 119.973 313.852 120.029 313.936Z" fill="#263238"/>
<path d="M119.861 313.355C119.861 313.46 119.581 313.544 119.217 313.551C118.853 313.558 118.566 313.474 118.573 313.376C118.58 313.278 118.867 313.187 119.217 313.18C119.567 313.173 119.847 313.257 119.861 313.355Z" fill="#263238"/>
<path d="M146.23 313.838V307.853L135.499 307.776L135.408 316.736L136.073 316.785C139.034 316.974 151.144 317.345 153.125 316.729C155.337 316.043 146.23 313.838 146.23 313.838Z" fill="#FF9F00"/>
<path d="M153.377 316.183C153.377 316.281 149.366 316.365 144.41 316.365C139.454 316.365 135.45 316.281 135.45 316.183C135.45 316.085 139.461 316.001 144.41 316.001C149.359 316.001 153.377 316.085 153.377 316.183Z" fill="#263238"/>
<path d="M146.419 315.063C146.335 315.014 146.419 314.699 146.636 314.363C146.853 314.027 147.147 313.887 147.217 313.957C147.287 314.027 147.14 314.293 146.93 314.58C146.72 314.867 146.51 315.112 146.419 315.063Z" fill="#263238"/>
<path d="M147.105 315.455C147.014 315.455 147.056 315.063 147.273 314.692C147.49 314.321 147.763 314.097 147.84 314.153C147.917 314.209 147.784 314.524 147.588 314.853C147.392 315.182 147.203 315.49 147.105 315.455Z" fill="#263238"/>
<path d="M138.677 316.141C138.635 316.141 138.481 316.015 138.243 315.749C137.961 315.407 137.647 315.093 137.305 314.811C136.969 314.542 136.568 314.366 136.143 314.3C135.821 314.258 135.604 314.3 135.583 314.258C135.562 314.216 135.765 314.069 136.15 314.041C136.658 314.03 137.154 314.199 137.55 314.517C137.923 314.818 138.237 315.186 138.474 315.602C138.635 315.91 138.719 316.113 138.677 316.141Z" fill="#263238"/>
<path d="M146.454 313.936C146.503 314.02 146.321 314.23 146.013 314.342C145.705 314.454 145.432 314.412 145.418 314.342C145.404 314.272 145.621 314.125 145.887 314.027C146.153 313.929 146.398 313.852 146.454 313.936Z" fill="#263238"/>
<path d="M146.3 313.355C146.3 313.46 146.02 313.544 145.656 313.551C145.292 313.558 145.012 313.474 145.019 313.376C145.026 313.278 145.306 313.187 145.656 313.18C146.006 313.173 146.3 313.257 146.3 313.355Z" fill="#263238"/>
<path d="M185.766 136.108C185.486 135.821 184.793 135.961 184.793 135.961C184.863 135.558 184.863 135.146 184.793 134.743C184.667 134.351 183.785 134.428 183.785 134.428C183.744 134.098 183.744 133.764 183.785 133.434C183.792 133.361 183.776 133.287 183.74 133.223C183.704 133.159 183.649 133.108 183.582 133.077C183.165 132.907 182.716 132.826 182.266 132.839C181.727 132.454 183.911 129.395 184.723 128.415C185.535 127.435 185.388 126.672 184.667 126.672C184.17 126.672 181.622 129.612 180.838 130.599C180.054 131.586 177.975 134.33 177.905 132.139C177.835 129.948 176.953 128.296 176.4 128.016C175.847 127.736 175.259 128.394 175.56 129.003C175.824 129.695 175.989 130.421 176.05 131.159C176.126 131.747 176.1 132.344 175.973 132.923C175.741 134.001 175.425 135.059 175.028 136.087H174.972C174.972 136.087 159.698 150.738 158.592 151.781C157.605 152.719 137.753 150.668 133.77 150.248C132.417 150.05 131.05 149.956 129.682 149.968C127.953 150.045 127.645 150.29 125.923 150.311C121.574 150.359 117.236 150.741 112.945 151.452C111.002 151.782 109.188 152.64 107.699 153.931C106.21 155.222 105.105 156.897 104.503 158.774C100.492 171.304 91.406 200.963 89.803 217.623C88.5917 219.82 87.4982 222.079 86.527 224.392C85.4 227.458 85.673 227.563 86.051 227.633C87.073 227.822 88.235 222.32 88.669 223.65C89.103 224.98 86.464 230.209 87.535 230.363C88.935 230.559 90.048 224.763 90.181 224.301C90.314 223.839 91.007 223.986 90.881 224.42C90.678 225.036 88.711 231.567 90.083 231.777C90.839 231.889 90.923 230.51 90.923 230.51C90.923 230.51 92.323 224.259 92.96 224.385C93.597 224.511 92.918 228.2 92.596 229.432C92.274 230.664 92.722 231.287 93.38 230.986C93.828 230.776 94.899 227.031 95.193 225.813C95.487 224.595 96.222 221.221 97.209 223.174C98.196 225.127 99.694 226.261 100.31 226.289C100.449 226.273 100.58 226.216 100.686 226.125C100.792 226.034 100.868 225.913 100.905 225.778C100.942 225.644 100.938 225.501 100.893 225.369C100.848 225.236 100.764 225.12 100.653 225.036C100.123 224.519 99.6685 223.93 99.302 223.286C98.9755 222.785 98.7386 222.23 98.602 221.648C98.32 220.487 98.1558 219.3 98.112 218.106L98 217.406C99.568 209.643 104.083 186.858 110.6 172.305L113.274 177.807L114.436 181.881L107.31 199.472L137.704 199.073L133.168 181.615L138.677 163.415C144.634 163.548 159.929 163.772 162.477 162.617C165.683 161.217 182.266 140.273 182.266 140.273C183.347 139.433 184.382 138.536 185.367 137.585C185.367 137.585 186.375 136.738 185.766 136.108Z" fill="#FFBE9D"/>
<path d="M105.973 186.473C106.855 183.463 111.384 168.581 111.384 168.581C111.384 168.581 113.61 180.712 113.022 182.175C112.481 183.427 111.842 184.635 111.111 185.787C105.973 193.606 106.645 197.519 106.645 197.519L137.69 196.574C137.76 192.234 135.191 182.14 134.659 180.53C134.127 178.92 135.898 173.649 135.898 173.649C135.898 173.649 139.398 170.086 139.272 168.252C139.206 166.605 139.002 164.966 138.663 163.352L157.563 164.052L156.968 151.242L129.822 148.526C128.877 151.193 120.33 149.884 120.33 149.884C111.104 150.192 110.53 151.886 106.694 154.868C102.858 157.85 96.509 183.442 96.509 183.442L105.973 186.473Z" fill="#FF9F00"/>
<path d="M124.327 183.442C123.789 183.538 123.241 183.566 122.696 183.526C121.681 183.526 120.288 183.456 118.755 183.302C117.222 183.148 115.836 182.931 114.849 182.735C114.305 182.665 113.771 182.529 113.26 182.329C113.807 182.329 114.353 182.381 114.891 182.483C115.885 182.609 117.264 182.784 118.79 182.938C120.316 183.092 121.702 183.197 122.703 183.267C123.249 183.274 123.792 183.332 124.327 183.442Z" fill="#263238"/>
<path d="M126.455 180.803C125.917 181.067 125.348 181.262 124.761 181.384C121.968 182.118 119.087 182.459 116.2 182.399C115.603 182.418 115.005 182.362 114.422 182.231C115.012 182.157 115.606 182.126 116.2 182.14C117.299 182.105 118.811 182.028 120.477 181.832C122.143 181.636 123.627 181.356 124.677 181.132C125.26 180.976 125.855 180.866 126.455 180.803Z" fill="#263238"/>
<path d="M136.899 169.029C136.885 169.563 136.812 170.093 136.682 170.611C136.5 171.584 136.22 172.914 135.863 174.37C135.506 175.826 135.163 177.17 134.855 178.08C134.731 178.601 134.548 179.106 134.309 179.585C134.348 179.053 134.447 178.527 134.603 178.017C134.869 176.925 135.17 175.665 135.506 174.286C135.842 172.907 136.164 171.647 136.43 170.555C136.525 170.029 136.682 169.517 136.899 169.029Z" fill="#263238"/>
<path d="M106.302 184.688C104.683 184.438 103.084 184.066 101.521 183.575C99.9236 183.201 98.3559 182.71 96.8311 182.105C98.4497 182.359 100.048 182.731 101.612 183.218C103.21 183.59 104.778 184.082 106.302 184.688Z" fill="#263238"/>
<path d="M138.999 163.198C138.735 163.243 138.465 163.243 138.201 163.198C137.47 163.123 136.752 162.951 136.066 162.687C134.921 162.257 133.878 161.592 133.006 160.735C132.133 159.877 131.449 158.847 130.998 157.71C130.5 156.459 130.287 155.113 130.375 153.769C130.406 152.661 130.738 151.582 131.334 150.647C131.754 150.017 132.38 149.554 133.105 149.338C133.299 149.285 133.499 149.259 133.7 149.261C133.84 149.261 133.91 149.261 133.91 149.261C133.91 149.261 133.616 149.261 133.147 149.45C132.482 149.696 131.918 150.156 131.544 150.759C130.592 152.257 130.326 154.994 131.341 157.549C131.813 158.754 132.553 159.836 133.504 160.713C134.283 161.431 135.181 162.009 136.157 162.421C137.073 162.783 138.026 163.044 138.999 163.198Z" fill="#263238"/>
<path d="M155.316 163.8C155.141 161.653 155.085 159.499 155.148 157.346C155.093 155.195 155.159 153.043 155.344 150.899C155.519 153.043 155.575 155.196 155.512 157.346C155.571 159.499 155.505 161.654 155.316 163.8Z" fill="#263238"/>
<path d="M129.64 149.31C129.717 147.749 129.878 145.985 129.878 145.985C129.878 145.985 133.742 145.558 133.973 141.568C134.204 137.578 133.973 128.373 133.973 128.373L126.973 124.789L119.203 130.9L120.4 150.85L127.526 151.305C128.071 151.32 128.599 151.119 128.995 150.745C129.392 150.371 129.624 149.855 129.64 149.31Z" fill="#FFBE9D"/>
<path d="M130.333 138.411C130.333 138.411 130.333 138.488 130.27 138.579C130.218 138.645 130.151 138.697 130.074 138.732C129.997 138.766 129.913 138.781 129.829 138.775C129.381 138.775 128.947 138.257 128.793 137.655C128.72 137.363 128.72 137.058 128.793 136.766C128.807 136.639 128.853 136.517 128.927 136.412C129 136.307 129.098 136.222 129.213 136.164C129.307 136.125 129.413 136.125 129.507 136.164C129.577 136.199 129.633 136.255 129.668 136.325C129.717 136.444 129.668 136.521 129.668 136.514C129.668 136.507 129.668 136.444 129.598 136.374C129.561 136.324 129.508 136.289 129.447 136.276C129.386 136.263 129.323 136.273 129.269 136.304C129.183 136.356 129.112 136.429 129.062 136.516C129.011 136.603 128.984 136.701 128.982 136.801C128.923 137.061 128.923 137.332 128.982 137.592C129.122 138.138 129.5 138.579 129.836 138.621C129.902 138.63 129.969 138.625 130.032 138.607C130.096 138.589 130.156 138.558 130.207 138.516C130.291 138.46 130.319 138.404 130.333 138.411Z" fill="#EB996E"/>
<path d="M136.374 126.217C135.835 124.383 133.882 123.473 132.104 122.969C129.395 122.199 126.469 121.863 123.823 122.836C121.177 123.809 117.999 125.517 117.999 128.436C116.438 128.31 115.542 129.675 114.926 131.369C114.532 132.401 114.296 133.487 114.226 134.589C114.03 138.411 112.959 143.689 110.481 146.489C109.081 148.05 107.142 149.128 106.344 151.074C105.644 152.761 106.008 154.763 105.357 156.471C104.776 157.976 103.495 159.047 102.557 160.356C101.601 161.841 101.039 163.545 100.923 165.307C100.806 167.069 101.14 168.831 101.892 170.429C102.65 171.986 103.716 173.372 105.027 174.503C106.337 175.634 107.864 176.487 109.515 177.009C112.785 178.004 116.271 178.038 119.56 177.107C122.028 176.517 124.33 175.375 126.294 173.768C128.303 172.127 129.683 169.842 130.2 167.3C130.697 164.444 129.899 161.539 129.304 158.697C127.442 149.716 127.974 149.247 130.326 140.91C130.382 140.763 130.41 140.609 130.452 140.462C130.494 140.315 130.515 140.245 130.543 140.133C130.61 139.803 130.645 139.468 130.648 139.132C130.304 139.26 129.932 139.287 129.573 139.21C129.215 139.133 128.886 138.955 128.625 138.698C128.364 138.424 128.181 138.083 128.097 137.714C128.014 137.344 128.031 136.958 128.149 136.598C128.314 136.204 128.56 135.849 128.871 135.556C129.182 135.263 129.552 135.038 129.955 134.897C130.732 134.575 131.565 134.407 132.328 134.05C133.945 133.28 135.065 131.684 135.828 130.011C136.455 128.851 136.649 127.506 136.374 126.217Z" fill="#263238"/>
<path d="M130.613 138.6C130.761 138.818 130.883 139.053 130.977 139.3C131.187 139.741 131.467 140.364 131.775 141.085L131.831 141.218H131.684L130.984 141.281C130.501 141.281 130.095 141.372 129.619 141.365C129.578 141.356 129.539 141.336 129.507 141.308C129.476 141.28 129.451 141.244 129.437 141.204C129.416 141.14 129.416 141.072 129.437 141.008C129.453 140.914 129.474 140.82 129.5 140.728L129.626 140.231C129.689 139.899 129.788 139.576 129.92 139.265C129.907 139.603 129.858 139.939 129.773 140.266L129.675 140.763C129.64 140.931 129.577 141.19 129.675 141.169C130.025 141.169 130.522 141.092 130.984 141.064L131.684 141.001L131.593 141.155C131.292 140.455 131.04 139.797 130.893 139.342C130.764 139.11 130.67 138.86 130.613 138.6Z" fill="#FF9F00"/>
<path d="M106.645 197.519L137.69 196.574L151.2 249.312L148.715 309.806H132.3L134.309 250.6L122.304 213.885L124.152 312.151L107.562 312.396L105.819 220.031C105.742 217.462 104.902 211.673 105.217 209.125L106.645 197.519Z" fill="#263238"/>
<path d="M126.434 214.634C125.926 214.666 125.416 214.635 124.915 214.543C123.977 214.431 122.696 214.235 121.289 213.955C119.882 213.675 118.622 213.353 117.712 213.094C117.226 212.987 116.755 212.818 116.312 212.59C116.312 212.485 118.594 213.031 121.394 213.598C124.194 214.165 126.448 214.529 126.434 214.634Z" fill="#455A64"/>
<path d="M148.547 306.488C148.547 306.586 144.83 306.67 140.245 306.67C135.66 306.67 131.936 306.586 131.936 306.488C131.936 306.39 135.653 306.306 140.245 306.306C144.837 306.306 148.547 306.383 148.547 306.488Z" fill="#455A64"/>
<path d="M124.005 309.596C124.005 309.701 120.393 309.778 115.941 309.778C111.489 309.778 107.884 309.701 107.884 309.596C107.884 309.491 111.496 309.414 115.941 309.414C120.386 309.414 124.005 309.498 124.005 309.596Z" fill="#455A64"/>
<path d="M121.863 309.344C121.765 309.344 121.331 287.875 120.89 261.394C120.449 234.913 120.19 213.43 120.281 213.43C120.372 213.43 120.82 234.892 121.254 261.387C121.688 287.882 121.968 309.344 121.863 309.344Z" fill="#455A64"/>
<path d="M146.342 306.488C146.334 306.392 146.334 306.297 146.342 306.201V305.361C146.342 304.605 146.398 303.52 146.44 302.141C146.538 299.341 146.678 295.274 146.853 290.29C147.231 280.266 147.763 266.448 148.344 251.195C148.344 251.048 148.344 250.908 148.344 250.782V250.831C144.669 236.131 141.344 222.789 138.929 213.136L136.129 201.719C135.807 200.382 135.562 199.339 135.387 198.611C135.303 198.268 135.247 198.002 135.198 197.799C135.171 197.708 135.154 197.614 135.149 197.519C135.185 197.607 135.214 197.699 135.233 197.792C135.289 197.988 135.359 198.254 135.457 198.59C135.646 199.29 135.919 200.354 136.269 201.684C136.969 204.386 137.956 208.278 139.188 213.073C141.624 222.719 144.984 236.026 148.708 250.747V250.796C148.708 250.922 148.708 251.069 148.708 251.209C148.085 266.462 147.518 280.273 147.105 290.297C146.888 295.288 146.706 299.327 146.58 302.141C146.51 303.541 146.454 304.605 146.419 305.361C146.419 305.718 146.377 305.998 146.37 306.201C146.371 306.297 146.362 306.394 146.342 306.488Z" fill="#455A64"/>
<path d="M140.987 249.55C139.808 249.938 138.593 250.207 137.361 250.355C135.849 250.614 134.561 250.796 133.98 250.824V250.684C134.169 250.74 134.267 250.775 134.267 250.803C134.267 250.831 134.148 250.803 133.952 250.803H133.532L133.952 250.677C134.498 250.516 135.786 250.25 137.298 249.977C138.511 249.714 139.746 249.571 140.987 249.55Z" fill="#455A64"/>
<path d="M140.7 251.559C139.608 251.609 138.514 251.56 137.431 251.412C136.338 251.39 135.248 251.27 134.176 251.055C136.364 250.876 138.566 251.047 140.7 251.559Z" fill="#455A64"/>
<path opacity="0.2" d="M106.512 198.632C106.88 199.104 107.343 199.493 107.871 199.774C108.399 200.055 108.981 200.222 109.578 200.263C110.828 200.411 112.093 200.388 113.337 200.193C121.352 199.304 129.843 198.485 137.69 196.574C127.533 197.141 116.802 196.952 106.645 197.519L106.54 198.387" fill="black"/>
<g opacity="0.2">
<path opacity="0.2" d="M116.977 212.947L122.703 235.165L122.304 213.885L116.977 212.947Z" fill="black"/>
</g>
</svg>
