<svg width="180" height="180" viewBox="0 0 180 180" fill="none" xmlns="http://www.w3.org/2000/svg">
<path d="M38.855 115.013V105.545H22.5362V115.013H38.855Z" fill="#EBEBEB"/>
<path d="M39.1177 141.422V133.945H18.7489V141.422H39.1177Z" fill="#F5F5F5"/>
<path d="M20.2141 141.509C20.2789 141.509 20.3293 139.799 20.3293 137.693C20.3293 135.587 20.2789 133.873 20.2141 133.873C20.1493 133.873 20.1025 135.583 20.1025 137.693C20.1025 139.802 20.1601 141.509 20.2141 141.509Z" fill="#FAFAFA"/>
<path d="M21.1826 141.094C21.2438 141.094 21.2942 139.478 21.2942 137.495C21.2942 135.511 21.2438 133.895 21.1826 133.895C21.1214 133.895 21.0674 135.511 21.0674 137.495C21.0674 139.478 21.1178 141.094 21.1826 141.094Z" fill="#FAFAFA"/>
<path d="M35.0965 137.898C35.0965 137.837 32.4001 137.783 29.0701 137.783C25.7401 137.783 23.0437 137.837 23.0437 137.898C23.0437 137.96 25.7437 138.014 29.0701 138.014C32.3965 138.014 35.0965 137.96 35.0965 137.898Z" fill="#FAFAFA"/>
<path d="M36.9614 141.422C37.0226 141.422 37.073 139.784 37.073 137.761C37.073 135.738 37.0226 134.104 36.9614 134.104C36.9002 134.104 36.8462 135.742 36.8462 137.761C36.8462 139.781 36.9002 141.422 36.9614 141.422Z" fill="#FAFAFA"/>
<path d="M37.8361 141.422C37.8973 141.422 37.9477 139.741 37.9477 137.671C37.9477 135.601 37.8973 133.92 37.8361 133.92C37.7749 133.92 37.7209 135.598 37.7209 137.671C37.7209 139.745 37.7713 141.422 37.8361 141.422Z" fill="#FAFAFA"/>
<path d="M39.114 133.949V127.944H16.542V133.949H39.114Z" fill="#E0E0E0"/>
<path d="M26.9102 133.989C27.193 133.739 27.45 133.462 27.677 133.161C28.127 132.628 28.7318 131.875 29.3762 131.029C30.0206 130.183 30.6002 129.399 30.9602 128.823C31.191 128.524 31.3901 128.202 31.5542 127.861C31.2857 128.126 31.0445 128.416 30.8342 128.729L29.1854 130.889L27.5402 133.049C27.299 133.34 27.0879 133.655 26.9102 133.989Z" fill="#FAFAFA"/>
<path d="M23.375 134.014C23.4218 134.057 24.6134 132.747 26.0318 131.091C27.4502 129.435 28.5518 128.056 28.5158 128.017C28.4798 127.977 27.2774 129.284 25.859 130.943C24.4406 132.603 23.3282 133.975 23.375 134.014Z" fill="#FAFAFA"/>
<path d="M39.1284 160.053V157.18H17.6256V160.053H39.1284Z" fill="#E0E0E0"/>
<path d="M20.556 159.933C20.6316 159.933 20.6928 159.332 20.6928 158.587C20.6928 157.842 20.6316 157.244 20.556 157.244C20.4804 157.244 20.4192 157.845 20.4192 158.587C20.4192 159.329 20.4804 159.933 20.556 159.933Z" fill="#FAFAFA"/>
<path d="M20.088 159.995C20.1636 159.995 20.2248 159.39 20.2248 158.649C20.2248 157.907 20.16 157.32 20.088 157.32C20.016 157.32 19.9512 157.922 19.9512 158.667C19.9512 159.412 20.0124 159.995 20.088 159.995Z" fill="#FAFAFA"/>
<path d="M37.4688 159.933C37.5408 159.933 37.602 159.332 37.602 158.587C37.602 157.842 37.5408 157.244 37.4688 157.244C37.3968 157.244 37.332 157.845 37.332 158.587C37.332 159.329 37.3932 159.933 37.4688 159.933Z" fill="#FAFAFA"/>
<path d="M37.0008 159.995C37.0728 159.995 37.134 159.39 37.134 158.649C37.134 157.907 37.08 157.32 37.0008 157.32C36.9216 157.32 36.864 157.922 36.864 158.667C36.864 159.412 36.9252 159.995 37.0008 159.995Z" fill="#FAFAFA"/>
<path d="M34.2001 158.53C34.2001 158.454 31.7377 158.396 28.7029 158.396C25.6681 158.396 23.1985 158.454 23.1985 158.53C23.1985 158.605 25.6645 158.667 28.7029 158.667C31.7413 158.667 34.2001 158.605 34.2001 158.53Z" fill="#FAFAFA"/>
<path d="M38.9917 147.182V141.437H17.4889V147.182H38.9917Z" fill="#E0E0E0"/>
<path d="M39.269 143.049L39.1502 142.984C39.0746 142.941 38.9522 142.887 38.7902 142.819C38.3229 142.621 37.8333 142.481 37.3322 142.401C36.5279 142.258 35.6987 142.376 34.967 142.74C34.5137 142.98 34.1267 143.329 33.8402 143.755C33.5084 144.239 33.3686 144.829 33.4478 145.411C33.497 145.727 33.6328 146.024 33.8402 146.268C33.95 146.401 34.0889 146.507 34.2461 146.578C34.4034 146.649 34.5749 146.683 34.7474 146.678C34.9245 146.663 35.0968 146.612 35.2534 146.527C35.41 146.443 35.5478 146.328 35.6582 146.188C35.8916 145.911 36.0359 145.57 36.0722 145.209C36.1051 144.838 36.0578 144.464 35.9336 144.112C35.8094 143.761 35.6111 143.44 35.3522 143.172C34.8075 142.597 34.0739 142.238 33.2858 142.16C32.4731 142.08 31.6529 142.182 30.8846 142.459C30.068 142.716 29.3439 143.205 28.8002 143.866C28.5187 144.223 28.3485 144.655 28.3106 145.108C28.2874 145.344 28.3164 145.581 28.3955 145.804C28.4745 146.027 28.6016 146.229 28.7678 146.397C28.9488 146.574 29.1881 146.679 29.441 146.692C29.6959 146.704 29.948 146.635 30.161 146.494C30.5648 146.226 30.8477 145.81 30.9494 145.335C31.0366 144.878 31.0046 144.406 30.8565 143.964C30.7083 143.523 30.4489 143.127 30.1034 142.815C29.4097 142.237 28.5496 141.895 27.6482 141.84C26.8003 141.739 25.9408 141.823 25.1282 142.084C24.3343 142.335 23.657 142.863 23.2202 143.571C23.0021 143.905 22.8666 144.287 22.8246 144.683C22.7827 145.08 22.8356 145.481 22.979 145.854C23.0521 146.041 23.1707 146.206 23.3241 146.336C23.4775 146.465 23.6608 146.554 23.8574 146.595C24.0458 146.628 24.2389 146.622 24.4248 146.576C24.6106 146.531 24.7851 146.448 24.9374 146.332C25.2049 146.097 25.3963 145.787 25.4873 145.442C25.5783 145.097 25.5648 144.733 25.4486 144.396C25.2407 143.795 24.8661 143.265 24.3686 142.869C23.5402 142.171 22.5028 141.768 21.4202 141.724C20.6089 141.692 19.8031 141.87 19.0802 142.239C18.6275 142.47 18.2163 142.774 17.8634 143.139C17.7446 143.269 17.6582 143.366 17.6042 143.438C17.574 143.472 17.5485 143.509 17.5286 143.55C17.9831 143.05 18.5248 142.638 19.127 142.333C19.835 141.983 20.6205 141.82 21.4094 141.858C22.4537 141.915 23.4498 142.317 24.2426 142.999C24.7072 143.375 25.0566 143.874 25.2506 144.439C25.3509 144.734 25.3618 145.053 25.2817 145.355C25.2017 145.656 25.0343 145.928 24.8006 146.134C24.6731 146.231 24.527 146.3 24.3714 146.337C24.2159 146.374 24.0543 146.379 23.897 146.35C23.7347 146.318 23.5833 146.245 23.4572 146.138C23.3312 146.031 23.2347 145.893 23.177 145.738C23.0536 145.401 23.0105 145.039 23.0511 144.681C23.0917 144.324 23.2149 143.981 23.411 143.679C23.8219 143.026 24.4526 142.541 25.1894 142.311C25.9633 142.066 26.7807 141.988 27.587 142.084C28.4298 142.141 29.2329 142.463 29.8802 143.006C30.1911 143.287 30.4246 143.643 30.5583 144.04C30.6919 144.437 30.7212 144.862 30.6434 145.274C30.5571 145.679 30.3171 146.035 29.9738 146.268C29.8188 146.38 29.6295 146.435 29.4383 146.423C29.2472 146.412 29.0661 146.334 28.9262 146.203C28.7903 146.06 28.6876 145.89 28.6253 145.703C28.5631 145.516 28.5429 145.318 28.5662 145.123C28.5991 144.722 28.7508 144.339 29.0018 144.025C29.5137 143.405 30.1937 142.946 30.9602 142.704C31.6908 142.437 32.4717 142.336 33.2462 142.408C33.978 142.473 34.6612 142.802 35.1686 143.334C35.4102 143.574 35.5973 143.864 35.7172 144.183C35.837 144.503 35.8869 144.844 35.8634 145.184C35.8094 145.814 35.327 146.433 34.7474 146.469C34.6051 146.475 34.4634 146.448 34.3335 146.39C34.2035 146.332 34.0889 146.244 33.9986 146.134C33.8128 145.919 33.6884 145.658 33.6386 145.378C33.566 144.841 33.6942 144.297 33.9986 143.848C34.264 143.441 34.6249 143.105 35.0498 142.869C35.7521 142.511 36.55 142.385 37.3286 142.509C37.8202 142.577 38.303 142.697 38.7686 142.869C39.0962 142.988 39.2654 143.06 39.269 143.049Z" fill="#FAFAFA"/>
<path d="M38.9988 157.226V147.258H19.4148V157.226H38.9988Z" fill="#EBEBEB"/>
<path d="M22.68 156.885C22.7556 156.885 22.8132 154.725 22.8132 152.061C22.8132 149.397 22.7484 147.24 22.68 147.24C22.6116 147.24 22.5432 149.4 22.5432 152.064C22.5432 154.728 22.5972 156.885 22.68 156.885Z" fill="#E0E0E0"/>
<path d="M24.1562 157.007C24.2318 157.007 24.293 154.876 24.293 152.244C24.293 149.613 24.2318 147.481 24.1562 147.481C24.0805 147.481 24.0229 149.616 24.0229 152.244C24.0229 154.872 24.0805 157.007 24.1562 157.007Z" fill="#E0E0E0"/>
<path d="M36.7884 157.32C36.864 157.32 36.9216 155.077 36.9216 152.305C36.9216 149.533 36.864 147.29 36.7884 147.29C36.7128 147.29 36.6516 149.536 36.6516 152.305C36.6516 155.073 36.72 157.32 36.7884 157.32Z" fill="#E0E0E0"/>
<path d="M35.0426 157.194C35.1182 157.194 35.1794 155.005 35.1794 152.309C35.1794 149.612 35.1182 147.42 35.0426 147.42C34.967 147.42 34.9202 149.609 34.9202 152.309C34.9202 155.009 34.967 157.194 35.0426 157.194Z" fill="#E0E0E0"/>
<path d="M38.855 127.948V122.202H17.3522V127.948H38.855Z" fill="#EBEBEB"/>
<path d="M39.1321 123.819L39.0133 123.754C38.9341 123.711 38.8153 123.657 38.6533 123.588C38.1912 123.394 37.7079 123.253 37.2133 123.171C36.4079 123.027 35.5776 123.146 34.8445 123.509C34.3931 123.753 34.0076 124.102 33.7213 124.528C33.392 125.012 33.2535 125.6 33.3325 126.18C33.3814 126.497 33.5173 126.793 33.7249 127.037C33.8343 127.167 33.9712 127.27 34.1257 127.34C34.2802 127.409 34.4483 127.444 34.6177 127.44C34.7956 127.426 34.9686 127.375 35.1259 127.291C35.2832 127.206 35.4215 127.091 35.5321 126.951C35.7656 126.673 35.9099 126.332 35.9461 125.971C35.977 125.598 35.9267 125.223 35.7986 124.871C35.6706 124.52 35.4679 124.2 35.2045 123.934C34.6609 123.358 33.9267 122.998 33.1381 122.922C32.3267 122.842 31.5076 122.945 30.7405 123.221C29.9207 123.478 29.1929 123.967 28.6453 124.629C28.3629 124.985 28.1926 125.417 28.1557 125.871C28.1321 126.106 28.1608 126.345 28.2398 126.568C28.3189 126.791 28.4463 126.995 28.6129 127.163C28.7949 127.339 29.0337 127.443 29.2861 127.458C29.5407 127.467 29.7917 127.398 30.0061 127.26C30.4102 126.991 30.6942 126.575 30.7981 126.101C30.8858 125.644 30.8539 125.172 30.7057 124.73C30.5575 124.289 30.298 123.893 29.9521 123.581C29.2693 123.004 28.421 122.659 27.5293 122.595C26.6815 122.496 25.8223 122.579 25.0093 122.839C24.2155 123.09 23.5382 123.618 23.1013 124.326C22.8833 124.66 22.7477 125.042 22.7058 125.438C22.6639 125.835 22.7168 126.236 22.8601 126.609C22.9327 126.796 23.0512 126.962 23.2046 127.092C23.3581 127.221 23.5417 127.31 23.7385 127.35C23.9269 127.383 24.1201 127.376 24.3059 127.331C24.4917 127.286 24.6662 127.203 24.8185 127.087C25.0853 126.852 25.2763 126.542 25.3673 126.198C25.4583 125.854 25.4452 125.491 25.3297 125.154C25.123 124.552 24.7482 124.021 24.2497 123.624C23.42 122.928 22.3834 122.526 21.3013 122.479C20.6411 122.461 19.9842 122.579 19.372 122.827C18.7598 123.075 18.2056 123.447 17.7445 123.919C17.6528 124.013 17.5675 124.113 17.4889 124.218C17.4594 124.251 17.4341 124.287 17.4133 124.326C17.8646 123.829 18.4041 123.42 19.0045 123.12C19.8258 122.711 20.7501 122.554 21.6605 122.669C22.571 122.784 23.4269 123.167 24.1201 123.768C24.587 124.142 24.9368 124.642 25.1281 125.208C25.2292 125.504 25.2408 125.823 25.1614 126.125C25.082 126.428 24.9151 126.7 24.6817 126.907C24.5537 127.003 24.4074 127.071 24.252 127.107C24.0965 127.144 23.9353 127.148 23.7781 127.12C23.6153 127.089 23.4633 127.017 23.337 126.909C23.2108 126.802 23.1147 126.664 23.0581 126.508C22.9327 126.17 22.8886 125.808 22.9292 125.45C22.9699 125.093 23.0942 124.749 23.2921 124.449C23.7009 123.793 24.3324 123.308 25.0705 123.081C25.8444 122.835 26.6619 122.757 27.4681 122.854C28.3025 122.914 29.0964 123.236 29.7361 123.775C30.0486 124.056 30.2833 124.413 30.4177 124.811C30.552 125.209 30.5814 125.634 30.5029 126.047C30.4154 126.451 30.1756 126.806 29.8333 127.037C29.6796 127.146 29.4933 127.199 29.3053 127.187C29.1173 127.175 28.939 127.099 28.8001 126.972C28.6649 126.829 28.5626 126.659 28.5004 126.472C28.4382 126.286 28.4176 126.088 28.4401 125.892C28.4767 125.498 28.6268 125.123 28.8721 124.812C29.382 124.191 30.0591 123.729 30.8233 123.48C31.554 123.213 32.3349 123.113 33.1093 123.185C33.8407 123.252 34.5234 123.58 35.0317 124.11C35.2729 124.351 35.4595 124.641 35.5787 124.96C35.698 125.28 35.7472 125.621 35.7229 125.961C35.6725 126.594 35.1901 127.21 34.6069 127.249C34.4651 127.254 34.3242 127.225 34.195 127.167C34.0659 127.108 33.9518 127.021 33.8617 126.911C33.6746 126.697 33.55 126.435 33.5017 126.155C33.4287 125.619 33.557 125.075 33.8617 124.629C34.1285 124.218 34.4919 123.88 34.9201 123.642C35.622 123.283 36.4204 123.157 37.1989 123.282C37.6901 123.352 38.1728 123.473 38.6389 123.642C38.8002 123.709 38.9648 123.768 39.1321 123.819Z" fill="#FAFAFA"/>
<path d="M46.2205 168.04V160.056H16.2649V168.04H46.2205Z" fill="#F5F5F5"/>
<path d="M38.855 122.206V114.739H18.7454V122.206H38.855Z" fill="#E0E0E0"/>
<path d="M28.7748 114.548C28.8951 114.489 29.0027 114.407 29.0916 114.307C29.3595 114.054 29.5855 113.76 29.7612 113.436C30.0235 112.953 30.1863 112.423 30.24 111.877C30.3018 111.204 30.1903 110.526 29.916 109.908C29.6352 109.256 29.2896 108.687 29.088 108.129C28.8817 107.651 28.8155 107.124 28.8972 106.61C28.9611 106.266 29.1266 105.949 29.3724 105.699C29.5488 105.523 29.682 105.465 29.6712 105.447C29.5353 105.471 29.4098 105.535 29.3112 105.631C29.0273 105.871 28.829 106.197 28.746 106.56C28.6323 107.105 28.6837 107.671 28.8936 108.187C29.0952 108.774 29.4408 109.35 29.7108 109.987C29.9694 110.573 30.0807 111.213 30.0348 111.852C29.9916 112.374 29.8499 112.883 29.6172 113.353C29.3835 113.782 29.1008 114.184 28.7748 114.548Z" fill="#FAFAFA"/>
<path d="M30.762 114.717C30.8829 114.658 30.9916 114.576 31.0824 114.476C31.3501 114.224 31.5751 113.929 31.7484 113.605C32.0133 113.123 32.1786 112.593 32.2344 112.046C32.2955 111.372 32.184 110.693 31.9104 110.073C31.6296 109.422 31.284 108.856 31.0788 108.298C30.8753 107.82 30.8104 107.293 30.8916 106.779C30.9555 106.434 31.1209 106.116 31.3668 105.865C31.5432 105.689 31.6764 105.635 31.6656 105.617C31.6548 105.599 31.5144 105.635 31.3056 105.8C31.0179 106.044 30.8171 106.375 30.7332 106.743C30.6212 107.289 30.6738 107.855 30.8844 108.37C31.086 108.954 31.4316 109.533 31.7016 110.17C31.9606 110.756 32.0718 111.397 32.0256 112.035C31.9824 112.558 31.8407 113.067 31.608 113.536C31.3734 113.962 31.0894 114.358 30.762 114.717Z" fill="#FAFAFA"/>
<path d="M24.3216 114.596C24.3864 114.596 24.4368 112.537 24.4368 110.002C24.4368 107.468 24.3864 105.412 24.3216 105.412C24.2568 105.412 24.21 107.468 24.21 110.002C24.21 112.537 24.2604 114.596 24.3216 114.596Z" fill="#FAFAFA"/>
<path d="M21.9853 117.976C21.9853 117.976 21.9133 118.008 21.8485 118.12C21.7613 118.287 21.7346 118.479 21.7729 118.663C21.798 118.803 21.8553 118.936 21.9403 119.05C22.0252 119.165 22.1355 119.258 22.2625 119.322C22.4296 119.384 22.6111 119.395 22.7847 119.355C22.9583 119.315 23.1166 119.226 23.2402 119.098C23.3638 118.97 23.4475 118.808 23.481 118.633C23.5145 118.458 23.4964 118.277 23.4289 118.112C23.3596 117.988 23.2624 117.881 23.145 117.801C23.0276 117.72 22.8931 117.668 22.7521 117.648C22.5666 117.617 22.3762 117.65 22.2121 117.742C22.1005 117.81 22.0645 117.878 22.0717 117.886C22.2743 117.793 22.5007 117.765 22.7197 117.806C22.8302 117.831 22.9342 117.878 23.0244 117.947C23.1146 118.015 23.1887 118.102 23.2416 118.202C23.2865 118.328 23.2954 118.465 23.2673 118.595C23.2391 118.726 23.1751 118.846 23.0824 118.943C22.9897 119.039 22.872 119.108 22.7424 119.141C22.6128 119.175 22.4766 119.171 22.3489 119.131C22.2471 119.082 22.1571 119.012 22.085 118.925C22.0129 118.838 21.9605 118.736 21.9312 118.627C21.8815 118.41 21.9004 118.182 21.9853 117.976Z" fill="#FAFAFA"/>
<path d="M36.8426 118.458C36.8426 118.397 34.0238 118.347 30.5462 118.347C27.0686 118.347 24.2498 118.397 24.2498 118.458C24.2498 118.519 27.0686 118.573 30.5462 118.573C34.0238 118.573 36.8426 118.523 36.8426 118.458Z" fill="#FAFAFA"/>
<path d="M166.946 17.0137H134.294V71.0605H166.946V17.0137Z" fill="#E0E0E0"/>
<path d="M165.859 17.0137H133.207V71.0605H165.859V17.0137Z" fill="#EBEBEB"/>
<path d="M164.466 18.1084H134.597V69.9628H164.466V18.1084Z" fill="white"/>
<path d="M158.652 24.8477H140.285V63.2273H158.652V24.8477Z" fill="#EBEBEB"/>
<path d="M140.285 49.6441C140.242 46.0442 143.467 42.5594 147.017 42.059C148.709 41.8214 150.509 42.1562 152.089 41.5082C154.912 40.349 155.812 36.5978 158.652 35.4854L158.782 63.227H140.285V49.6441Z" fill="#E0E0E0"/>
<path d="M142.78 135.453C141.268 134.507 139.56 133.919 137.786 133.736C136.973 133.653 136.08 133.675 135.428 134.172C135.353 134.215 135.291 134.277 135.248 134.353C135.205 134.428 135.182 134.513 135.184 134.6C135.221 134.724 135.303 134.829 135.414 134.895C137.444 136.447 140.515 136.641 142.78 135.453Z" fill="#E0E0E0"/>
<path d="M142.65 135.313C141.494 134.466 140.416 133.518 139.428 132.48C138.436 131.435 137.738 130.146 137.405 128.743C137.34 128.536 137.321 128.317 137.349 128.101C137.377 127.885 137.451 127.678 137.567 127.494C140.134 129.499 142.153 132.095 142.65 135.317" fill="#E0E0E0"/>
<path d="M142.751 135.436C142.512 134.033 142.532 132.598 142.812 131.202C143.099 129.796 143.903 128.55 145.066 127.71C145.508 128.75 145.318 129.946 145.004 131.029C144.519 132.704 143.764 134.288 142.769 135.72" fill="#E0E0E0"/>
<path d="M145.271 139.946C143.741 140.133 142.409 140.94 141.268 141.973C140.12 143.018 139.321 144.39 138.978 145.904C140.479 145.811 141.75 144.752 142.672 143.568C143.593 142.383 144.234 141.08 145.249 139.968" fill="#E0E0E0"/>
<path d="M145.818 140.67C145.217 139.142 145.006 137.488 145.204 135.857C145.403 134.227 146.005 132.671 146.956 131.332C147.827 134.432 147.506 137.931 145.818 140.67Z" fill="#E0E0E0"/>
<path d="M149.144 144.634C147.744 144.543 146.349 144.868 145.132 145.566C143.915 146.265 142.932 147.307 142.304 148.562C142.222 148.731 142.146 148.947 142.261 149.098C142.32 149.154 142.392 149.195 142.47 149.219C142.548 149.242 142.631 149.246 142.711 149.231C144.058 149.141 145.249 148.335 146.232 147.431C147.215 146.528 148.075 145.444 149.159 144.648" fill="#E0E0E0"/>
<path d="M149.04 144.418C148.323 142.111 148.278 139.647 148.91 137.315C149.162 136.404 149.58 135.44 150.426 135.011C150.457 134.99 150.492 134.976 150.529 134.971C150.566 134.966 150.604 134.97 150.64 134.983C150.675 134.995 150.707 135.016 150.732 135.044C150.758 135.071 150.776 135.105 150.786 135.141C151.07 135.78 151.194 136.48 151.146 137.178C151.095 137.873 150.988 138.563 150.826 139.241C150.559 140.501 150.419 141.855 149.728 142.942C149.564 143.203 149.417 143.475 149.288 143.756C149.155 144.033 149.155 144.116 149.036 144.35" fill="#E0E0E0"/>
<path d="M157.846 145.728C157.194 143.247 157.889 140.238 159.451 138.2C159.566 138.053 159.721 137.891 159.908 137.909C160.196 137.934 160.268 138.319 160.268 138.607C160.152 141.161 159.316 143.629 157.856 145.728" fill="#E0E0E0"/>
<path d="M158.641 146.272C160.184 146.637 161.788 146.663 163.342 146.347C164.896 146.032 166.363 145.384 167.641 144.447C166.139 143.688 164.419 143.477 162.778 143.849C161.151 144.209 159.667 144.947 158.656 146.272" fill="#E0E0E0"/>
<path d="M159.311 144.619C160.999 141.865 164.239 140.069 167.465 139.903C167.105 141.217 166.025 142.236 164.797 142.852C163.552 143.413 162.235 143.8 160.884 144C160.362 144.101 159.649 144.213 159.311 144.623" fill="#E0E0E0"/>
<path d="M158.015 136.598C158.527 135.046 158.876 133.445 159.059 131.821C159.237 130.186 158.905 128.536 158.108 127.098C156.528 130.15 156.37 133.718 157.968 136.76" fill="#E0E0E0"/>
<path d="M163.328 133.92C165.172 130.568 168.937 127.89 172.746 127.512C171.277 131.173 167.27 133.992 163.328 133.92Z" fill="#E0E0E0"/>
<path d="M162.166 134.571C164.92 134.989 167.263 136.731 169.834 137.811C170.373 138.072 170.971 138.188 171.569 138.146C171.847 138.143 172.116 138.054 172.342 137.892C172.568 137.731 172.738 137.504 172.831 137.242C172.924 136.98 172.934 136.696 172.86 136.429C172.786 136.161 172.632 135.922 172.419 135.745C172.055 135.408 171.626 135.148 171.159 134.982C168.358 133.815 165.355 133.787 162.403 134.492" fill="#E0E0E0"/>
<path d="M160.56 136.502C161.183 136.678 161.395 137.002 161.888 137.423C163.576 138.852 165.57 139.871 167.717 140.4C167.94 140.458 168.232 140.48 168.343 140.278C168.455 140.076 168.314 139.889 168.192 139.734C167.257 138.64 166.045 137.816 164.682 137.351C163.339 136.851 162.162 136.25 160.574 136.379" fill="#E0E0E0"/>
<path d="M158.778 124.844C159.905 125.886 161.238 126.681 162.691 127.177C164.143 127.673 165.684 127.859 167.213 127.724C167.353 127.726 167.49 127.677 167.598 127.587C167.81 127.357 167.555 127.001 167.306 126.806C164.826 124.873 161.824 124.07 158.778 124.855" fill="#E0E0E0"/>
<path d="M160.92 124.063C162.413 122.964 164.145 122.233 165.975 121.932C167.805 121.63 169.68 121.766 171.447 122.328C170.069 123.606 168.301 124.381 166.428 124.528C164.579 124.698 162.715 124.541 160.92 124.063Z" fill="#E0E0E0"/>
<path d="M160.06 118.706C159.819 116.233 159.977 114.278 159.804 111.791C159.804 111.593 159.747 111.352 159.563 111.28C159.304 111.182 159.088 111.499 159.001 111.762C158.64 112.915 158.547 114.135 158.73 115.33C158.913 116.524 159.366 117.66 160.056 118.652" fill="#E0E0E0"/>
<path d="M159.883 118.98C161.501 117.937 162.895 116.582 163.984 114.995C164.794 113.886 165.478 112.557 165.294 111.2C164.723 111.214 164.163 111.353 163.652 111.606C163.14 111.86 162.691 112.223 162.335 112.669C161.627 113.564 161.113 114.596 160.826 115.7C160.499 116.78 160.269 117.911 159.883 118.98Z" fill="#E0E0E0"/>
<path d="M163.912 117.861C167.599 116.493 171.013 114.478 173.992 111.91C172.786 111.424 171.403 111.716 170.201 112.202C167.465 113.238 165.204 115.243 163.847 117.836" fill="#E0E0E0"/>
<path d="M161.017 120.337C162.879 120.539 164.772 120.672 166.619 120.362C168.466 120.053 170.154 119.34 171.853 118.623C172.004 118.584 172.133 118.487 172.213 118.353C172.24 118.275 172.243 118.19 172.22 118.11C172.198 118.031 172.151 117.96 172.087 117.907C171.957 117.804 171.804 117.732 171.641 117.698C169.794 117.18 167.803 117.425 165.985 118.037C164.256 118.627 162.593 119.398 161.025 120.337" fill="#E0E0E0"/>
<path d="M150.376 124.92C149.105 122.357 149.188 119.362 150.286 116.716C151.06 117.893 151.153 119.394 151.006 120.795C150.858 122.195 150.437 123.642 150.408 125.05" fill="#E0E0E0"/>
<path d="M145.3 122.368C143.708 122.349 142.13 122.662 140.667 123.288C139.203 123.913 137.886 124.837 136.8 126C138.403 126.194 140.028 125.892 141.455 125.136C142.871 124.381 144.207 123.482 145.44 122.454" fill="#E0E0E0"/>
<path d="M141.887 121.226C140.332 121.1 138.838 120.906 137.347 121.363C136.594 121.575 135.895 121.947 135.298 122.453C134.701 122.959 134.22 123.588 133.888 124.297C135.354 124.412 136.824 124.13 138.143 123.48C139.456 122.837 140.709 122.078 141.887 121.212" fill="#E0E0E0"/>
<path d="M146.941 121.276C145.544 120.362 144.108 119.43 142.484 119.052C140.861 118.674 138.971 118.951 137.837 120.178C139.155 120.949 140.753 121.042 142.279 121.039C143.806 121.035 145.674 121.021 147.114 121.532" fill="#E0E0E0"/>
<path d="M146.948 121.352C144.562 119.005 143.654 114.793 144.616 111.589C146.5 114.475 147.325 117.926 146.948 121.352Z" fill="#E0E0E0"/>
<path d="M153.515 114.707C153.965 113.663 154.282 112.547 154.685 111.496C155.053 110.414 155.62 109.411 156.355 108.537C157.102 107.658 158.163 107.107 159.311 107.003C158.944 108.618 158.244 110.139 157.256 111.469C156.268 112.798 155.013 113.907 153.572 114.725" fill="#E0E0E0"/>
<path d="M152.327 116.093C151.582 115.067 150.721 113.674 149.71 112.907C148.698 112.14 147.384 111.679 146.16 111.96C146.798 113.08 147.689 114.035 148.761 114.75C149.834 115.465 151.059 115.92 152.338 116.078" fill="#E0E0E0"/>
<path d="M152.564 114.793C152.027 113.57 151.632 112.29 151.387 110.977C151.142 109.654 151.351 108.288 151.981 107.1C153.295 109.576 153.716 112.237 152.629 114.822" fill="#E0E0E0"/>
<path d="M153.526 107.1C154.267 104.645 156.517 102.834 158.947 102.006C159.248 101.882 159.574 101.832 159.898 101.862C160.059 101.881 160.21 101.947 160.334 102.051C160.459 102.155 160.549 102.293 160.596 102.449C160.686 102.866 160.34 103.241 160.016 103.529C158.12 105.148 155.916 106.366 153.536 107.111" fill="#E0E0E0"/>
<path d="M153.554 105.092C153.648 103.508 153.745 101.902 154.275 100.412C154.804 98.9213 155.783 97.5029 157.227 96.8477C157.475 98.4461 156.769 100.037 155.916 101.412C155.063 102.788 154.04 104.091 153.529 105.624" fill="#E0E0E0"/>
<path d="M153.515 106.2C152.899 104.4 152.838 102.136 151.765 100.577C151.017 99.4969 149.818 98.7445 149.17 97.5889C148.782 98.6966 148.836 99.9113 149.321 100.98C149.811 102.036 150.482 102.997 151.305 103.82C152.097 104.666 152.777 105.304 153.515 106.2Z" fill="#E0E0E0"/>
<path d="M153.526 158.897C153.479 158.897 153.436 146.956 153.432 132.228C153.429 117.5 153.468 105.556 153.515 105.556C153.562 105.556 153.605 117.497 153.605 132.228C153.605 146.959 153.572 158.897 153.526 158.897Z" fill="#E0E0E0"/>
<path d="M163.962 123.12C163.818 123.19 163.667 123.247 163.512 123.289L162.277 123.703C161.233 124.063 159.804 124.575 158.249 125.212C156.694 125.849 155.261 126.407 154.437 127.12C154.107 127.395 153.844 127.742 153.67 128.135C153.551 128.416 153.529 128.588 153.515 128.585C153.501 128.581 153.515 128.542 153.515 128.459C153.534 128.336 153.564 128.216 153.605 128.099C153.762 127.684 154.018 127.313 154.35 127.019C154.849 126.598 155.407 126.252 156.006 125.993C156.669 125.683 157.403 125.359 158.166 125.039C159.725 124.402 161.169 123.905 162.22 123.577C162.749 123.415 163.177 123.293 163.476 123.217C163.635 123.169 163.797 123.136 163.962 123.12Z" fill="#E0E0E0"/>
<path d="M167.4 114.725C167.364 114.774 167.321 114.819 167.274 114.858L166.893 115.218L165.453 116.517L160.693 120.758C158.832 122.411 157.227 123.998 156.114 125.183C155.556 125.777 155.117 126.263 154.818 126.623L154.458 127.019C154.42 127.068 154.377 127.113 154.329 127.152C154.358 127.097 154.393 127.045 154.433 126.997C154.505 126.9 154.609 126.759 154.753 126.579C155.038 126.219 155.473 125.719 156.01 125.111C157.447 123.538 158.966 122.042 160.56 120.629C162.425 118.98 164.121 117.497 165.355 116.427L166.821 115.167L167.227 114.833C167.28 114.789 167.338 114.753 167.4 114.725Z" fill="#E0E0E0"/>
<path d="M158.674 122.44C158.627 122.418 159.016 121.522 159.394 120.388C159.772 119.254 159.97 118.296 160.017 118.307C159.977 119.039 159.823 119.761 159.559 120.445C159.392 120.935 159.199 121.416 158.98 121.885C158.906 122.084 158.803 122.271 158.674 122.44Z" fill="#E0E0E0"/>
<path d="M153.536 129.668C153.429 129.568 153.334 129.456 153.252 129.334C153.058 129.085 152.809 128.772 152.532 128.394C151.916 127.598 151.063 126.497 150.109 125.294C149.155 124.092 148.273 123.012 147.64 122.231L146.88 121.32C146.78 121.21 146.693 121.089 146.621 120.96C146.734 121.052 146.838 121.156 146.93 121.27C147.121 121.478 147.391 121.781 147.722 122.162C148.381 122.926 149.274 123.995 150.242 125.197C151.211 126.4 152.042 127.516 152.629 128.333C152.924 128.74 153.162 129.074 153.32 129.305C153.405 129.418 153.478 129.54 153.536 129.668Z" fill="#E0E0E0"/>
<path d="M151.25 126.72C150.787 126.208 150.457 125.59 150.289 124.92C150.111 124.337 150.038 123.728 150.073 123.12H150.149C150.116 123.257 150.091 123.329 150.077 123.329C150.062 123.329 150.077 123.249 150.077 123.105H150.152C150.192 123.701 150.295 124.291 150.458 124.866C150.674 125.504 150.938 126.123 151.25 126.72Z" fill="#E0E0E0"/>
<path d="M148.295 123.015C148.089 122.857 147.864 122.727 147.625 122.626C147.023 122.447 146.39 122.396 145.768 122.479C145.136 122.526 144.51 122.627 143.896 122.781C143.644 122.861 143.386 122.922 143.125 122.965C143.355 122.827 143.603 122.725 143.863 122.662C144.478 122.471 145.112 122.351 145.753 122.302C146.4 122.216 147.058 122.286 147.672 122.508C147.932 122.6 148.152 122.779 148.295 123.015Z" fill="#E0E0E0"/>
<path d="M147.6 122.115C147.6 122.141 147.208 121.957 146.574 121.755C144.912 121.189 143.133 121.052 141.404 121.359C140.746 121.478 140.346 121.604 140.324 121.575C140.409 121.522 140.501 121.483 140.598 121.46C140.851 121.37 141.109 121.296 141.372 121.241C143.117 120.86 144.936 120.998 146.603 121.64C146.849 121.737 147.089 121.848 147.323 121.971C147.422 122.005 147.516 122.053 147.6 122.115Z" fill="#E0E0E0"/>
<path d="M153.515 118.307C153.21 117.458 152.96 116.59 152.766 115.708C152.516 114.842 152.323 113.96 152.187 113.069C152.491 113.918 152.741 114.785 152.935 115.665C153.184 116.533 153.377 117.415 153.515 118.307Z" fill="#E0E0E0"/>
<path d="M153.562 118.306C153.323 117.769 153.047 117.249 152.734 116.751C152.383 116.28 151.973 115.856 151.513 115.491C151.687 115.535 151.849 115.619 151.985 115.736C152.331 115.988 152.631 116.298 152.874 116.65C153.246 117.132 153.483 117.703 153.562 118.306Z" fill="#E0E0E0"/>
<path d="M153.526 152.532C153.526 152.532 153.472 152.244 153.338 151.736C153.14 151.023 152.873 150.331 152.539 149.67C151.715 147.981 150.214 145.847 148.306 143.705C147.362 142.625 146.444 141.606 145.667 140.63C144.967 139.772 144.335 138.861 143.777 137.905C143.402 137.26 143.083 136.584 142.823 135.885C142.736 135.637 142.672 135.443 142.636 135.306C142.612 135.24 142.596 135.171 142.589 135.101C142.589 135.101 142.69 135.374 142.888 135.86C143.168 136.546 143.5 137.209 143.881 137.844C144.452 138.783 145.09 139.681 145.789 140.529C146.57 141.494 147.488 142.509 148.435 143.589C150.35 145.749 151.848 147.909 152.651 149.616C152.976 150.289 153.229 150.995 153.403 151.722C153.449 151.919 153.484 152.118 153.508 152.319C153.523 152.389 153.529 152.461 153.526 152.532Z" fill="#E0E0E0"/>
<path d="M162.954 141.88C162.797 141.985 162.632 142.078 162.461 142.157C162.014 142.41 161.586 142.694 161.179 143.007C160.579 143.473 160.017 143.986 159.498 144.54C158.904 145.163 158.296 145.89 157.676 146.668C156.434 148.223 155.272 149.602 154.577 150.703C154.217 151.251 153.965 151.711 153.799 152.032C153.72 152.205 153.629 152.372 153.526 152.532C153.535 152.484 153.551 152.436 153.572 152.392C153.608 152.302 153.659 152.169 153.738 152.003C153.951 151.534 154.191 151.079 154.458 150.639C155.402 149.222 156.426 147.86 157.525 146.56C158.148 145.779 158.764 145.055 159.368 144.429C159.9 143.874 160.477 143.365 161.093 142.906C161.509 142.598 161.953 142.328 162.418 142.099C162.58 142.017 162.713 141.966 162.803 141.927C162.851 141.905 162.902 141.889 162.954 141.88Z" fill="#E0E0E0"/>
<path d="M163.141 145.336C162.797 145.411 162.448 145.461 162.097 145.487C161.257 145.573 160.427 145.737 159.617 145.977C158.817 146.236 158.068 146.629 157.399 147.14C156.888 147.536 156.647 147.86 156.625 147.842C156.604 147.824 156.665 147.748 156.78 147.6C156.943 147.398 157.125 147.212 157.324 147.046C157.984 146.493 158.746 146.074 159.567 145.811C160.387 145.566 161.232 145.416 162.087 145.365C162.437 145.323 162.79 145.314 163.141 145.336Z" fill="#E0E0E0"/>
<path d="M156.928 147.464C156.874 147.431 157.345 146.711 157.709 145.747C158.072 144.782 158.134 143.914 158.195 143.925C158.221 144.111 158.215 144.299 158.177 144.483C158.126 144.933 158.025 145.377 157.874 145.804C157.714 146.227 157.51 146.633 157.266 147.014C157.18 147.182 157.066 147.335 156.928 147.464Z" fill="#E0E0E0"/>
<path d="M166.01 132.603C165.958 132.639 165.901 132.669 165.841 132.693L165.352 132.916C165.136 133.009 164.876 133.125 164.581 133.276C164.286 133.427 163.94 133.585 163.584 133.801L163.015 134.125C162.817 134.237 162.619 134.374 162.414 134.503C161.993 134.759 161.572 135.072 161.122 135.393C159.198 136.826 157.52 138.562 156.154 140.533C155.848 140.994 155.549 141.426 155.308 141.855C155.185 142.067 155.059 142.265 154.948 142.467L154.642 143.05C154.44 143.41 154.282 143.77 154.152 144.065C154.022 144.36 153.9 144.627 153.817 144.846C153.734 145.066 153.662 145.206 153.608 145.343C153.554 145.48 153.533 145.516 153.526 145.512C153.539 145.451 153.555 145.391 153.576 145.332L153.752 144.821C153.828 144.598 153.929 144.328 154.066 144.025C154.202 143.723 154.336 143.367 154.534 142.992L154.829 142.405C154.933 142.2 155.059 141.999 155.189 141.783C155.426 141.347 155.722 140.911 156.028 140.443C157.391 138.447 159.083 136.697 161.032 135.267C161.485 134.946 161.914 134.633 162.338 134.381C162.551 134.255 162.749 134.122 162.95 134.021L163.53 133.704C163.89 133.495 164.25 133.344 164.545 133.2C164.84 133.056 165.11 132.945 165.33 132.862L165.834 132.667C165.89 132.639 165.949 132.618 166.01 132.603Z" fill="#E0E0E0"/>
<path d="M158.548 137.603C158.618 137.363 158.762 137.15 158.958 136.995C159.416 136.594 160.002 136.368 160.61 136.357C161.208 136.36 161.799 136.483 162.349 136.717C162.584 136.791 162.806 136.899 163.008 137.038C162.77 136.989 162.536 136.92 162.31 136.833C161.765 136.646 161.193 136.55 160.618 136.548C160.045 136.561 159.492 136.755 159.037 137.103C158.862 137.257 158.699 137.425 158.548 137.603Z" fill="#E0E0E0"/>
<path d="M157.432 138.755C157.929 137.794 158.057 136.683 157.792 135.634C157.89 135.764 157.956 135.916 157.986 136.077C158.088 136.458 158.116 136.855 158.069 137.247C158.02 137.639 157.898 138.019 157.709 138.366C157.576 138.629 157.45 138.766 157.432 138.755Z" fill="#E0E0E0"/>
<path d="M145.278 154.242C145.537 158.807 146.912 163.447 149.026 168.138H158.224C160.243 163.494 161.521 158.857 161.748 154.242H145.278Z" fill="#E0E0E0"/>
<path d="M160.258 161.64C160.258 161.687 157.23 161.727 153.497 161.727C149.764 161.727 146.732 161.687 146.732 161.64C146.732 161.593 149.76 161.554 153.497 161.554C157.234 161.554 160.258 161.579 160.258 161.64Z" fill="#FAFAFA"/>
<path d="M160.052 163.278C160.052 163.328 157.216 163.364 153.713 163.364C150.21 163.364 147.373 163.328 147.373 163.278C147.373 163.227 150.21 163.191 153.713 163.191C157.216 163.191 160.052 163.231 160.052 163.278Z" fill="#FAFAFA"/>
<path d="M149.173 157.237C149.289 158.647 149.289 160.064 149.173 161.475C149.058 160.064 149.058 158.647 149.173 157.237Z" fill="#FAFAFA"/>
<path d="M154.102 157.237C154.217 158.698 154.217 160.165 154.102 161.626C153.986 160.165 153.986 158.698 154.102 157.237Z" fill="#FAFAFA"/>
<path d="M158.731 157.201C158.846 158.691 158.846 160.187 158.731 161.676C158.616 160.187 158.616 158.691 158.731 157.201Z" fill="#FAFAFA"/>
<path d="M161.456 157.237C161.456 157.284 157.907 157.323 153.536 157.323C149.166 157.323 145.616 157.284 145.616 157.237C145.616 157.19 149.166 157.15 153.536 157.15C157.907 157.15 161.456 157.19 161.456 157.237Z" fill="#FAFAFA"/>
<path d="M64.1592 27.9795V64.4223H11.8188L9.93237 28.2351L64.1592 27.9795Z" fill="#E0E0E0"/>
<path d="M9.93604 28.2312L9.93604 64.3428H62.2764V28.2312H9.93604Z" fill="white"/>
<path d="M62.5249 64.5947H9.68408V27.9863H62.5249V64.5947ZM10.1809 64.0979H62.0209V28.4831H10.1809V64.0979Z" fill="#E0E0E0"/>
<path d="M56.6065 32.7207H15.6025V59.8575H56.6065V32.7207Z" fill="white"/>
<path d="M56.6064 32.7203C56.6064 32.7203 56.5344 32.7203 56.4048 32.7203H55.8216H53.568L45.1188 32.7527L15.5988 32.8103L15.7176 32.6915C15.7176 40.9715 15.7176 50.1695 15.7176 59.8283L15.588 59.6987L56.592 59.7239L56.4876 59.8283C56.5128 51.5699 56.5308 44.7983 56.5416 40.0823C56.5416 37.7243 56.5632 35.8847 56.5704 34.6211C56.5704 33.9983 56.5704 33.5195 56.5704 33.1811C56.5704 32.8427 56.5704 32.6807 56.5704 32.6807C56.5704 32.6807 56.5704 32.8391 56.5704 33.1595C56.5704 33.4799 56.5704 33.9587 56.5704 34.5743C56.5704 35.8307 56.5704 37.6631 56.5992 40.0103C56.5992 44.7407 56.628 51.5303 56.6532 59.8103V59.9111H56.5488L15.5448 59.9399H15.48V59.8103C15.48 50.1515 15.48 40.9643 15.48 32.6735V32.5547H15.5988L45.1944 32.6123L53.6148 32.6447H55.8432H56.4156L56.6064 32.7203Z" fill="#E0E0E0"/>
<path d="M9.93248 28.1338C10.2562 28.2889 10.5586 28.4849 10.8325 28.717C11.3689 29.1022 12.0997 29.6494 12.8845 30.2794C13.6693 30.9094 14.3641 31.507 14.8537 31.9534C15.1335 32.1776 15.385 32.4351 15.6025 32.7202C15.5557 32.7742 14.2957 31.7374 12.7225 30.4846C11.1493 29.2318 9.88928 28.1914 9.93248 28.1338Z" fill="#E0E0E0"/>
<path d="M62.2802 28.2348C62.3234 28.2924 61.0886 29.34 59.5262 30.5784C57.9638 31.8168 56.6461 32.778 56.6101 32.7384C56.5741 32.6988 57.7981 31.6332 59.3642 30.3948C60.9302 29.1564 62.2298 28.1772 62.2802 28.2348Z" fill="#E0E0E0"/>
<path d="M62.2333 64.3505L56.3977 59.6201L62.2333 64.3505Z" fill="white"/>
<path d="M56.3976 59.6192C56.4444 59.5652 57.7872 60.5804 59.3964 61.8836C61.0056 63.1868 62.2764 64.2956 62.2332 64.3496C62.19 64.4036 60.8472 63.392 59.2344 62.0852C57.6216 60.7784 56.3544 59.6768 56.3976 59.6192Z" fill="#E0E0E0"/>
<path d="M9.93251 64.3465C9.88931 64.2889 11.1097 63.2665 12.6577 62.0245C14.2057 60.7825 15.5017 59.8645 15.5377 59.9077C15.5737 59.9509 14.3605 60.9877 12.8125 62.2297C11.2645 63.4717 9.97931 64.4005 9.93251 64.3465Z" fill="#E0E0E0"/>
<path d="M23.9292 41.1773V50.2637H49.7304V41.1773H23.9292Z" fill="#E0E0E0"/>
<path d="M166.381 168.023C166.381 168.074 131.699 168.117 88.9235 168.117C46.1483 168.117 11.4587 168.074 11.4587 168.023C11.4587 167.973 46.1339 167.93 88.9235 167.93C131.713 167.93 166.381 167.973 166.381 168.023Z" fill="#263238"/>
<path d="M30.4885 161.046C30.4885 161.046 29.5705 165.96 37.6561 166.32C45.7417 166.68 62.3881 167.079 62.3881 167.079L61.3441 156.521L35.4241 154.721L31.2841 157.766L30.4885 161.046Z" fill="#E0E0E0"/>
<path d="M118.102 16.2686H40.9321C37.751 16.2686 35.1721 18.8474 35.1721 22.0286V162.335C35.1721 165.516 37.751 168.095 40.9321 168.095H118.102C121.283 168.095 123.862 165.516 123.862 162.335V22.0286C123.862 18.8474 121.283 16.2686 118.102 16.2686Z" fill="#263238"/>
<path d="M40.0574 23.2305H118.973V162.327H41.933C41.4355 162.327 40.9585 162.13 40.6067 161.778C40.255 161.426 40.0574 160.949 40.0574 160.452V23.2305Z" fill="white"/>
<path d="M87.2676 19.9154H70.3908C70.1235 19.9154 69.8671 19.8092 69.678 19.6202C69.489 19.4311 69.3828 19.1748 69.3828 18.9074C69.3828 18.6401 69.489 18.3837 69.678 18.1946C69.8671 18.0056 70.1235 17.8994 70.3908 17.8994H87.2676C87.535 17.8994 87.7913 18.0056 87.9804 18.1946C88.1694 18.3837 88.2756 18.6401 88.2756 18.9074C88.2756 19.1748 88.1694 19.4311 87.9804 19.6202C87.7913 19.8092 87.535 19.9154 87.2676 19.9154Z" fill="#455A64"/>
<path d="M109.836 47.1024C109.836 47.1564 106.596 47.196 102.607 47.196C98.6184 47.196 95.3784 47.1564 95.3784 47.1024C95.3784 47.0484 98.6184 47.0088 102.607 47.0088C106.596 47.0088 109.836 47.052 109.836 47.1024Z" fill="#263238"/>
<path d="M109.67 58.3456C109.67 58.396 97.8732 58.4392 83.322 58.4392C68.7708 58.4392 56.9736 58.396 56.9736 58.3456C56.9736 58.2952 68.7672 58.252 83.322 58.252C97.8768 58.252 109.67 58.2916 109.67 58.3456Z" fill="#263238"/>
<path d="M109.67 61.9667C109.67 62.0207 97.8732 62.0602 83.322 62.0602C68.7708 62.0602 56.9736 62.0207 56.9736 61.9667C56.9736 61.9127 68.7672 61.873 83.322 61.873C97.8768 61.873 109.67 61.9199 109.67 61.9667Z" fill="#263238"/>
<path d="M109.67 65.5926C109.67 65.6466 97.8732 65.6862 83.322 65.6862C68.7708 65.6862 56.9736 65.6466 56.9736 65.5926C56.9736 65.5386 68.7672 65.499 83.322 65.499C97.8768 65.499 109.67 65.5422 109.67 65.5926Z" fill="#263238"/>
<path d="M109.671 69.2176C109.671 69.268 95.5118 69.3112 78.0482 69.3112C60.5846 69.3112 46.4258 69.268 46.4258 69.2176C46.4258 69.1672 60.581 69.124 78.0482 69.124C95.5154 69.124 109.671 69.1672 109.671 69.2176Z" fill="#263238"/>
<path d="M109.671 72.8426C109.671 72.893 95.5118 72.9362 78.0482 72.9362C60.5846 72.9362 46.4258 72.893 46.4258 72.8426C46.4258 72.7922 60.581 72.749 78.0482 72.749C95.5154 72.749 109.671 72.7886 109.671 72.8426Z" fill="#263238"/>
<path d="M82.0406 76.4673C82.0406 76.5177 74.0666 76.5609 64.235 76.5609C54.4034 76.5609 46.4258 76.5177 46.4258 76.4673C46.4258 76.4169 54.3962 76.3701 64.235 76.3701C74.0738 76.3701 82.0406 76.4133 82.0406 76.4673Z" fill="#263238"/>
<path d="M109.671 80.0897C109.671 80.1437 95.5118 80.1833 78.0482 80.1833C60.5846 80.1833 46.4258 80.1437 46.4258 80.0897C46.4258 80.0357 60.581 79.9961 78.0482 79.9961C95.5154 79.9961 109.671 80.0393 109.671 80.0897Z" fill="#263238"/>
<path d="M109.671 83.7147C109.671 83.7651 95.5118 83.8083 78.0482 83.8083C60.5846 83.8083 46.4258 83.7651 46.4258 83.7147C46.4258 83.6643 60.581 83.6211 78.0482 83.6211C95.5154 83.6211 109.671 83.6643 109.671 83.7147Z" fill="#263238"/>
<path d="M109.671 87.3397C109.671 87.3901 95.5118 87.4333 78.0482 87.4333C60.5846 87.4333 46.4258 87.3901 46.4258 87.3397C46.4258 87.2893 60.581 87.2461 78.0482 87.2461C95.5154 87.2461 109.671 87.2857 109.671 87.3397Z" fill="#263238"/>
<path d="M109.671 90.9647C109.671 91.0151 95.5118 91.0583 78.0482 91.0583C60.5846 91.0583 46.4258 91.0151 46.4258 90.9647C46.4258 90.9143 60.581 90.8711 78.0482 90.8711C95.5154 90.8711 109.671 90.9107 109.671 90.9647Z" fill="#263238"/>
<path d="M109.671 94.5868C109.671 94.6408 95.5118 94.6804 78.0482 94.6804C60.5846 94.6804 46.4258 94.6408 46.4258 94.5868C46.4258 94.5328 60.581 94.4932 78.0482 94.4932C95.5154 94.4932 109.671 94.5364 109.671 94.5868Z" fill="#263238"/>
<path d="M56.9738 98.2118C56.9738 98.2658 54.6122 98.3054 51.6998 98.3054C48.7874 98.3054 46.4402 98.2802 46.4402 98.2118C46.4402 98.1434 48.7982 98.1182 51.7142 98.1182C54.6302 98.1182 56.9738 98.1614 56.9738 98.2118Z" fill="#263238"/>
<path d="M109.671 101.837C109.671 101.887 95.5118 101.93 78.0482 101.93C60.5846 101.93 46.4402 101.88 46.4402 101.837C46.4402 101.794 60.5954 101.743 78.0626 101.743C95.5298 101.743 109.671 101.786 109.671 101.837Z" fill="#263238"/>
<path d="M109.671 105.48C109.671 105.531 95.5118 105.574 78.0482 105.574C60.5846 105.574 46.4402 105.513 46.4402 105.48C46.4402 105.448 60.5954 105.387 78.0626 105.387C95.5298 105.387 109.671 105.408 109.671 105.48Z" fill="#263238"/>
<path d="M109.671 109.08C109.671 109.134 95.5118 109.174 78.0482 109.174C60.5846 109.174 46.4402 109.138 46.4402 109.08C46.4402 109.022 60.5954 108.986 78.0626 108.986C95.5298 108.986 109.671 109.033 109.671 109.08Z" fill="#263238"/>
<path d="M94.9754 112.709C94.9754 112.763 84.107 112.802 70.7006 112.802C57.2942 112.802 46.4258 112.763 46.4258 112.709C46.4258 112.655 57.2906 112.615 70.7006 112.615C84.1106 112.615 94.9754 112.658 94.9754 112.709Z" fill="#263238"/>
<path d="M109.671 116.334C109.671 116.384 95.5118 116.427 78.0482 116.427C60.5846 116.427 46.4258 116.384 46.4258 116.334C46.4258 116.283 60.581 116.24 78.0482 116.24C95.5154 116.24 109.671 116.28 109.671 116.334Z" fill="#263238"/>
<path d="M109.671 119.96C109.671 120.01 95.5118 120.053 78.0482 120.053C60.5846 120.053 46.4258 120.01 46.4258 119.96C46.4258 119.909 60.581 119.866 78.0482 119.866C95.5154 119.866 109.671 119.906 109.671 119.96Z" fill="#263238"/>
<path d="M101.16 123.585C101.16 123.635 88.9202 123.678 73.8002 123.678C58.6802 123.678 46.4402 123.635 46.4402 123.585C46.4402 123.534 58.6802 123.487 73.8002 123.487C88.9202 123.487 101.16 123.531 101.16 123.585Z" fill="#263238"/>
<path d="M109.671 127.206C109.671 127.26 95.5118 127.299 78.0482 127.299C60.5846 127.299 46.4402 127.26 46.4402 127.206C46.4402 127.152 60.5954 127.112 78.0626 127.112C95.5298 127.112 109.671 127.156 109.671 127.206Z" fill="#263238"/>
<path d="M109.671 134.457C109.671 134.507 95.5118 134.551 78.0482 134.551C60.5846 134.551 46.4258 134.507 46.4258 134.457C46.4258 134.406 60.581 134.363 78.0482 134.363C95.5154 134.363 109.671 134.403 109.671 134.457Z" fill="#263238"/>
<path d="M109.671 138.082C109.671 138.132 95.5118 138.175 78.0482 138.175C60.5846 138.175 46.4402 138.132 46.4402 138.082C46.4402 138.031 60.5954 137.988 78.0626 137.988C95.5298 137.988 109.671 138.028 109.671 138.082Z" fill="#263238"/>
<path d="M109.671 141.703C109.671 141.757 95.5118 141.797 78.0482 141.797C60.5846 141.797 46.4258 141.757 46.4258 141.703C46.4258 141.649 60.581 141.609 78.0482 141.609C95.5154 141.609 109.671 141.653 109.671 141.703Z" fill="#263238"/>
<path d="M80.028 152.399L79.8264 152.95H78.1416V152.871C78.5284 152.539 78.8795 152.167 79.1892 151.762C79.3678 151.537 79.4734 151.264 79.4916 150.977C79.4949 150.895 79.482 150.813 79.4536 150.736C79.4252 150.658 79.3818 150.588 79.326 150.527C79.2752 150.472 79.2133 150.428 79.1445 150.398C79.0757 150.369 79.0014 150.354 78.9264 150.354C78.7903 150.352 78.6574 150.395 78.5484 150.477C78.4303 150.568 78.3435 150.694 78.3 150.837H78.2244C78.2404 150.611 78.3361 150.398 78.4944 150.236C78.5665 150.166 78.6517 150.112 78.7451 150.076C78.8384 150.04 78.938 150.024 79.038 150.027C79.1451 150.024 79.2518 150.042 79.3519 150.08C79.4519 150.118 79.5435 150.176 79.6212 150.25C79.694 150.318 79.7521 150.399 79.7918 150.49C79.8314 150.582 79.8518 150.68 79.8516 150.779C79.8509 150.929 79.8164 151.077 79.7508 151.211C79.6224 151.477 79.4522 151.72 79.2468 151.931C78.8868 152.316 78.678 152.547 78.588 152.626H79.3368C79.4439 152.628 79.551 152.622 79.6572 152.608C79.7164 152.597 79.7727 152.573 79.8228 152.54C79.8746 152.5 79.9175 152.449 79.9488 152.392L80.028 152.399Z" fill="#263238"/>
<path d="M80.3629 151.535C80.3569 151.247 80.4071 150.961 80.5105 150.693C80.5904 150.485 80.7262 150.303 80.9029 150.167C81.016 150.081 81.1533 150.033 81.2953 150.03C81.4132 150.035 81.5282 150.068 81.6308 150.127C81.7334 150.185 81.8208 150.267 81.8857 150.365C82.1197 150.693 82.2353 151.09 82.2133 151.492C82.2216 151.781 82.1726 152.068 82.0693 152.338C82.0011 152.537 81.8759 152.713 81.7093 152.842C81.5865 152.94 81.4347 152.996 81.2773 153C81.1303 152.991 80.9889 152.941 80.8688 152.855C80.7487 152.77 80.6545 152.653 80.5969 152.518C80.4354 152.216 80.3547 151.877 80.3629 151.535ZM80.7769 151.589C80.7666 151.917 80.8166 152.244 80.9245 152.554C81.0037 152.763 81.1237 152.867 81.2845 152.867C81.3734 152.864 81.4581 152.828 81.5221 152.766C81.6197 152.669 81.6839 152.543 81.7057 152.406C81.7802 152.07 81.8128 151.725 81.8029 151.38C81.8101 151.106 81.7761 150.831 81.7021 150.567C81.6723 150.431 81.6049 150.306 81.5077 150.207C81.4732 150.18 81.4338 150.161 81.3918 150.15C81.3497 150.138 81.3059 150.135 81.2628 150.141C81.2197 150.147 81.1781 150.161 81.1404 150.183C81.1028 150.204 81.0697 150.233 81.0433 150.268C80.9246 150.428 80.8523 150.617 80.8345 150.815C80.7962 151.071 80.777 151.33 80.7769 151.589Z" fill="#263238"/>
<path d="M40.6801 161.975C38.0017 157.407 32.3425 157.357 30.4849 161.047V26.5038C30.4714 25.2957 30.8968 24.1237 31.682 23.2054C32.4672 22.2871 33.5589 21.6849 34.7545 21.5106C36.3277 21.309 37.7569 21.9102 40.1905 23.3106L40.6801 161.975Z" fill="white"/>
<path d="M40.6801 161.975C40.6801 160.985 40.4209 100.887 40.0933 23.3177L40.1401 23.3969C39.3988 22.9588 38.6359 22.5587 37.8541 22.1981C37.0677 21.8126 36.2092 21.5968 35.3341 21.5645C34.4391 21.5703 33.5645 21.8327 32.8141 22.3205C32.0607 22.8147 31.4569 23.5057 31.0681 24.3185C30.8674 24.7439 30.7246 25.1943 30.6433 25.6577C30.5776 26.125 30.5535 26.5973 30.5713 27.0689C30.5713 28.0289 30.5713 28.9793 30.5713 29.9201V46.7393C30.5713 54.0905 30.5713 61.2509 30.5713 68.2205C30.5713 82.1309 30.5713 95.1737 30.5713 107.018C30.5713 130.706 30.5389 149.591 30.5317 161.046L30.4597 161.028C30.8943 160.161 31.5856 159.448 32.4397 158.987C33.1882 158.599 34.0194 158.398 34.8625 158.4C35.2376 158.397 35.6123 158.427 35.9821 158.49C36.1585 158.523 36.3421 158.577 36.4969 158.616C36.6606 158.654 36.8207 158.706 36.9757 158.771C37.2708 158.874 37.5564 159.003 37.8289 159.156L38.2105 159.369C38.3257 159.444 38.4373 159.527 38.5453 159.606C38.7541 159.742 38.9494 159.898 39.1285 160.071C39.2977 160.233 39.4633 160.373 39.6001 160.521C39.8257 160.77 40.0384 161.031 40.2373 161.302C40.5217 161.741 40.6513 161.936 40.6837 161.99L40.2229 161.316C40.0717 161.086 39.8341 160.848 39.5785 160.539C39.4417 160.395 39.2761 160.254 39.1069 160.096C38.9238 159.927 38.7276 159.773 38.5201 159.635C38.4121 159.56 38.3041 159.477 38.1889 159.401L37.8073 159.196C37.5359 159.044 37.2516 158.916 36.9577 158.814C36.8039 158.751 36.6449 158.702 36.4825 158.667C36.3169 158.627 36.1477 158.577 35.9749 158.541C35.6071 158.482 35.2349 158.454 34.8625 158.458C34.0277 158.463 33.2064 158.669 32.4685 159.059C31.6277 159.514 30.9486 160.219 30.5245 161.075L30.4525 161.219V161.061C30.4525 149.606 30.4309 130.72 30.4129 107.032C30.4129 95.1881 30.4129 82.1453 30.4129 68.2349C30.4129 61.2749 30.4129 54.1145 30.4129 46.7537V35.5937C30.4129 33.7145 30.4129 31.8257 30.4129 29.9273V27.0689C30.3966 26.5875 30.4231 26.1056 30.4921 25.6289C30.5753 25.148 30.7231 24.6806 30.9313 24.2393C31.3319 23.3974 31.9541 22.6806 32.7313 22.1657C33.5087 21.6607 34.4143 21.3884 35.3413 21.3809C36.2433 21.4135 37.1287 21.6342 37.9405 22.0289C38.7469 22.3889 39.4993 22.8173 40.2409 23.2385L40.2877 23.2673V23.3213C40.5073 100.887 40.6801 160.985 40.6801 161.975Z" fill="#263238"/>
<path d="M113.548 98.3917C113.52 98.392 113.493 98.3856 113.469 98.3731C113.444 98.3605 113.423 98.3422 113.407 98.3197C113.378 98.2819 113.365 98.2342 113.371 98.187C113.378 98.1398 113.402 98.0969 113.44 98.0677L115.485 96.5197L113.454 95.2309C113.434 95.2187 113.416 95.2026 113.402 95.1833C113.388 95.1641 113.378 95.1422 113.372 95.119C113.367 95.0958 113.366 95.0717 113.37 95.0483C113.375 95.0248 113.383 95.0024 113.397 94.9825C113.409 94.9624 113.425 94.9449 113.445 94.9311C113.464 94.9173 113.486 94.9075 113.509 94.9021C113.532 94.8968 113.556 94.896 113.579 94.8999C113.602 94.9038 113.625 94.9123 113.645 94.9249L115.895 96.3649C115.92 96.3797 115.941 96.4008 115.955 96.426C115.97 96.4513 115.977 96.4798 115.978 96.5089C115.98 96.5378 115.974 96.5667 115.962 96.593C115.95 96.6194 115.932 96.6424 115.909 96.6601L113.659 98.3665C113.626 98.3868 113.587 98.3957 113.548 98.3917Z" fill="#E0E0E0"/>
<g opacity="0.3">
<path opacity="0.3" d="M98.9534 23.2305V39.8337C98.9539 39.9102 98.977 39.9848 99.0197 40.0483C99.0625 40.1118 99.123 40.1612 99.1937 40.1904C99.2645 40.2196 99.3422 40.2273 99.4173 40.2125C99.4924 40.1977 99.5614 40.1611 99.6158 40.1073L103.615 36.1077C103.689 36.0353 103.788 35.9948 103.891 35.9948C103.994 35.9948 104.093 36.0353 104.166 36.1077L108.162 40.1073C108.216 40.1624 108.286 40.2 108.361 40.2155C108.437 40.231 108.516 40.2236 108.587 40.1943C108.659 40.1649 108.72 40.1149 108.763 40.0507C108.806 39.9865 108.828 39.9109 108.828 39.8337V23.2305H98.9534Z" fill="black"/>
</g>
<path d="M98.1108 23.2305V38.3001C98.1106 38.3773 98.1335 38.4529 98.1764 38.5171C98.2193 38.5813 98.2804 38.6313 98.3519 38.6607C98.4234 38.69 98.5019 38.6974 98.5776 38.6819C98.6533 38.6664 98.7227 38.6288 98.7768 38.5737L102.776 34.5777C102.812 34.5411 102.855 34.512 102.902 34.4922C102.949 34.4723 102.999 34.4621 103.05 34.4621C103.101 34.4621 103.152 34.4723 103.199 34.4922C103.246 34.512 103.288 34.5411 103.324 34.5777L107.323 38.5737C107.377 38.6288 107.447 38.6664 107.522 38.6819C107.598 38.6974 107.677 38.69 107.748 38.6607C107.82 38.6313 107.881 38.5813 107.924 38.5171C107.967 38.4529 107.989 38.3773 107.989 38.3001V23.2305H98.1108Z" fill="#FF725E"/>
<path d="M130.579 46.2057C130.651 44.9241 131.436 44.1393 132.541 43.4841C133.098 43.1622 133.724 42.9791 134.366 42.9503C135.008 42.9215 135.648 43.0478 136.231 43.3185C137.005 43.6785 137.671 44.3157 138.532 44.4237C139.932 44.6037 141.257 43.3077 142.632 43.6317C143.042 43.7291 143.406 43.9657 143.661 44.3013C143.917 44.6369 144.048 45.0507 144.032 45.472C144.016 45.8934 143.855 46.2963 143.575 46.6119C143.296 46.9276 142.915 47.1364 142.499 47.2029C143.413 47.3361 143.939 48.4953 143.579 49.3629C143.219 50.2305 142.279 50.7237 141.354 50.7453C140.422 50.7132 139.516 50.4283 138.733 49.9209C137.934 49.4565 137.185 48.8949 136.35 48.4809C135.527 48.0362 134.573 47.8971 133.657 48.0885C132.448 48.4089 131.587 49.5537 131.271 50.7669C130.954 51.9801 131.091 53.2617 131.271 54.5037C131.451 55.7457 131.699 56.9949 131.58 58.2441C131.584 58.3175 131.571 58.3908 131.541 58.4579C131.511 58.5249 131.465 58.5838 131.407 58.6293C131.22 58.7301 131.008 58.5537 130.871 58.3917C129.328 56.551 128.163 54.4251 127.44 52.1349C127.015 50.8065 126.781 49.5105 127.289 48.2145C127.796 46.9185 129.51 45.6765 130.586 46.2057" fill="#263238"/>
<path d="M129.399 52.3901L131.447 65.0297C131.829 67.3913 133.362 69.6737 137.07 68.8961C140.231 67.9817 139.997 65.7065 139.59 62.9021C139.59 62.9021 143.068 61.9949 142.758 58.4561C142.607 56.7461 142.009 53.2469 141.433 50.0897C141.136 48.4523 140.232 46.9871 138.902 45.9863C137.572 44.9855 135.914 44.5226 134.259 44.6897L133.917 44.7221C130.259 45.3197 128.711 48.7505 129.399 52.3901Z" fill="#FFBF9D"/>
<path d="M139.586 62.9029C137.953 63.0616 136.307 62.7493 134.845 62.0029C134.845 62.0029 136.235 64.6345 139.727 63.9613L139.586 62.9029Z" fill="#FF9A6C"/>
<path d="M140.735 53.6402C140.749 53.7716 140.712 53.9034 140.63 54.0077C140.549 54.1119 140.43 54.1802 140.299 54.1982C140.236 54.21 140.17 54.2089 140.107 54.1949C140.044 54.1809 139.984 54.1542 139.931 54.1166C139.878 54.079 139.834 54.0311 139.8 53.9759C139.766 53.9206 139.744 53.8591 139.734 53.795C139.72 53.6636 139.757 53.5317 139.839 53.4275C139.92 53.3233 140.039 53.255 140.17 53.237C140.233 53.2257 140.299 53.2272 140.362 53.2414C140.425 53.2556 140.484 53.2823 140.537 53.3198C140.59 53.3574 140.634 53.4051 140.668 53.4601C140.702 53.5151 140.725 53.5763 140.735 53.6402Z" fill="#263238"/>
<path d="M140.843 51.901C140.789 51.973 140.378 51.7282 139.835 51.7858C139.291 51.8434 138.92 52.1458 138.856 52.0918C138.791 52.0378 138.874 51.9406 139.036 51.7966C139.254 51.611 139.524 51.4967 139.81 51.4691C140.093 51.4397 140.378 51.5015 140.623 51.6455C140.803 51.757 140.872 51.8686 140.843 51.901Z" fill="#263238"/>
<path d="M135.943 54.1184C135.958 54.2498 135.92 54.3816 135.839 54.4858C135.757 54.59 135.639 54.6584 135.508 54.6764C135.444 54.6882 135.379 54.6871 135.315 54.6731C135.252 54.659 135.192 54.6324 135.139 54.5948C135.087 54.5572 135.042 54.5093 135.008 54.454C134.974 54.3988 134.952 54.3373 134.943 54.2732C134.928 54.1423 134.965 54.0109 135.046 53.9068C135.126 53.8027 135.244 53.734 135.375 53.7152C135.438 53.7033 135.504 53.7044 135.568 53.7184C135.631 53.7324 135.691 53.7589 135.744 53.7965C135.797 53.8341 135.842 53.882 135.876 53.9373C135.911 53.9926 135.933 54.0541 135.943 54.1184Z" fill="#263238"/>
<path d="M135.515 52.5598C135.457 52.6318 135.047 52.387 134.503 52.441C133.96 52.495 133.589 52.801 133.524 52.7506C133.459 52.7002 133.546 52.5994 133.704 52.4554C133.923 52.2682 134.195 52.1538 134.482 52.1278C134.764 52.0973 135.049 52.1579 135.295 52.3006C135.472 52.3942 135.544 52.5094 135.515 52.5598Z" fill="#263238"/>
<path d="M137.88 56.3723C138.157 56.2509 138.449 56.1674 138.748 56.1239C138.884 56.0951 139.01 56.0555 139.025 55.9583C139.024 55.8133 138.977 55.6723 138.892 55.5551L138.377 54.5399C137.657 53.0999 137.117 51.8975 137.178 51.8687C137.239 51.8399 137.866 52.9919 138.589 54.4391L139.086 55.4615C139.19 55.62 139.236 55.8095 139.216 55.9979C139.2 56.0488 139.173 56.0955 139.137 56.1348C139.101 56.174 139.056 56.2047 139.007 56.2247C138.932 56.2527 138.853 56.2708 138.773 56.2787C138.48 56.3463 138.18 56.3778 137.88 56.3723Z" fill="#263238"/>
<path d="M135.439 50.4002C135.403 50.555 134.853 50.5406 134.223 50.681C133.593 50.8214 133.096 51.041 132.999 50.9222C132.952 50.8646 133.027 50.717 133.222 50.5622C133.481 50.357 133.784 50.2152 134.107 50.1482C134.429 50.0765 134.764 50.0827 135.083 50.1662C135.328 50.2202 135.457 50.3246 135.439 50.4002Z" fill="#263238"/>
<path d="M140.487 50.3492C140.404 50.4824 140.015 50.3924 139.565 50.432C139.115 50.4716 138.744 50.5976 138.643 50.4788C138.597 50.4212 138.643 50.2916 138.798 50.1548C139.004 49.9908 139.255 49.8941 139.518 49.8776C139.784 49.8551 140.049 49.9168 140.278 50.054C140.458 50.1656 140.523 50.2844 140.487 50.3492Z" fill="#263238"/>
<path d="M129.96 54.9791C129.899 54.9575 127.44 54.5039 127.779 56.9123C128.117 59.3207 130.453 58.5035 130.446 58.4315C130.439 58.3595 129.96 54.9791 129.96 54.9791Z" fill="#FFBF9D"/>
<path d="M129.579 57.6176C129.579 57.6176 129.543 57.6536 129.474 57.6932C129.38 57.7505 129.268 57.7686 129.161 57.7436C128.993 57.665 128.849 57.5439 128.743 57.3923C128.637 57.2407 128.573 57.0639 128.556 56.8796C128.525 56.6739 128.538 56.4639 128.596 56.264C128.609 56.1865 128.641 56.1134 128.689 56.0508C128.736 55.9881 128.798 55.9378 128.869 55.904C128.916 55.8857 128.967 55.884 129.015 55.899C129.063 55.9141 129.104 55.945 129.132 55.9868C129.172 56.0516 129.165 56.102 129.175 56.102C129.186 56.102 129.222 56.0552 129.175 55.958C129.155 55.8998 129.114 55.8511 129.06 55.8212C128.987 55.7791 128.9 55.7674 128.819 55.7888C128.723 55.822 128.637 55.8791 128.569 55.9547C128.501 56.0302 128.453 56.1218 128.43 56.2208C128.357 56.4435 128.339 56.6806 128.376 56.912C128.393 57.1278 128.474 57.3338 128.607 57.5046C128.74 57.6754 128.92 57.8036 129.125 57.8732C129.19 57.88 129.255 57.8734 129.317 57.8535C129.379 57.8337 129.436 57.8011 129.485 57.758C129.6 57.6752 129.6 57.6212 129.579 57.6176Z" fill="#FF9A6C"/>
<path d="M141.142 46.7993C140.727 46.1502 140.158 45.6135 139.486 45.2369C138.07 44.3575 136.414 43.9468 134.752 44.0633C133.086 44.1953 131.537 44.9699 130.432 46.2233C129.585 47.2494 129.057 48.5008 128.913 49.8233C128.773 51.1411 128.895 52.4735 129.273 53.7437C129.393 54.3162 129.677 54.8414 130.09 55.2557C130.363 55.4897 130.81 55.6157 131.073 55.3709C131.21 55.2053 131.29 54.9993 131.299 54.7841C131.577 52.8725 131.832 50.8241 130.968 49.0925C131.351 48.43 131.866 47.8529 132.48 47.3969C132.788 47.1712 133.137 47.0088 133.508 46.9192C133.879 46.8296 134.263 46.8146 134.64 46.8749C135.753 47.0981 136.523 48.0809 137.455 48.7217C138.128 49.1771 138.899 49.4661 139.705 49.565C140.511 49.6639 141.329 49.5698 142.092 49.2905L141.142 46.7993Z" fill="#263238"/>
<path d="M138.37 57.8372C138.341 58.0664 138.28 58.2906 138.19 58.5032C138.143 58.6087 138.074 58.7031 137.987 58.7801C137.901 58.857 137.8 58.9148 137.689 58.9496C137.569 58.9746 137.445 58.9692 137.327 58.934C137.21 58.8988 137.103 58.8349 137.016 58.748C136.847 58.5673 136.739 58.3382 136.706 58.0928C136.67 57.8732 136.706 57.596 136.926 57.524C137.016 57.5024 137.11 57.5024 137.2 57.524L138.427 57.7472" fill="#FF9A6C"/>
<path d="M138.111 58.863C137.91 58.9204 137.699 58.9387 137.491 58.917C137.277 58.8806 137.084 58.7665 136.948 58.5966C136.87 58.492 136.815 58.3724 136.786 58.2454C136.757 58.1183 136.754 57.9867 136.779 57.8586C136.791 57.7923 136.813 57.7281 136.843 57.6678C136.876 57.6138 136.869 57.6174 136.919 57.6138C136.969 57.6102 137.049 57.6354 137.117 57.6462L137.319 57.6822C137.581 57.7326 137.819 57.7722 138.017 57.801C138.231 57.8547 138.452 57.8742 138.672 57.8586C138.476 57.7575 138.264 57.6893 138.046 57.657L137.355 57.4986L137.153 57.4518C137.079 57.4344 137.005 57.4212 136.93 57.4122C136.872 57.407 136.814 57.4209 136.764 57.4518C136.717 57.4824 136.681 57.5263 136.66 57.5778C136.621 57.6539 136.593 57.7351 136.577 57.819C136.546 57.9756 136.549 58.1373 136.588 58.2923C136.627 58.4473 136.699 58.5918 136.8 58.7154C136.968 58.9197 137.21 59.0491 137.473 59.0754C137.642 59.0934 137.813 59.0648 137.967 58.9926C138.075 58.9242 138.118 58.8738 138.111 58.863Z" fill="#263238"/>
<path d="M143.438 44.125C143.461 44.1755 143.477 44.2287 143.485 44.2834C143.515 44.44 143.521 44.6002 143.503 44.7586C143.463 45.0509 143.365 45.3323 143.215 45.5863C143.064 45.8403 142.865 46.0619 142.628 46.2382C142.267 46.4842 141.861 46.656 141.432 46.7438C141.004 46.8315 140.563 46.8334 140.134 46.7494C139.154 46.6162 138.175 46.1446 137.153 45.7234C136.13 45.3022 135.083 45.0034 134.143 45.1906C133.306 45.3486 132.546 45.782 131.983 46.4218C131.599 46.8474 131.289 47.3341 131.065 47.8618C130.914 48.2218 130.86 48.4558 130.842 48.4522C130.848 48.3973 130.859 48.3431 130.874 48.2902C130.911 48.1376 130.957 47.9873 131.011 47.8402C131.214 47.2932 131.515 46.788 131.9 46.3498C132.467 45.6794 133.246 45.2222 134.107 45.0538C135.09 44.8666 136.177 45.1582 137.203 45.583C138.229 46.0078 139.194 46.4722 140.144 46.609C140.975 46.7813 141.84 46.6169 142.549 46.1518C143.014 45.8168 143.33 45.3148 143.431 44.7514C143.459 44.5436 143.461 44.3333 143.438 44.125Z" fill="#455A64"/>
<path d="M127.62 51.4797C127.608 51.2538 127.639 51.0275 127.714 50.8137C127.859 50.2919 128.103 49.803 128.434 49.3737C128.619 49.1375 128.829 48.9215 129.06 48.7293C129.248 48.5567 129.475 48.433 129.722 48.3693C129.892 48.3319 130.069 48.3509 130.226 48.4233C130.334 48.4809 130.374 48.5349 130.367 48.5421C130.174 48.4502 129.955 48.4273 129.748 48.4773C129.266 48.6829 128.853 49.0229 128.56 49.4565C128.236 49.8745 127.983 50.3427 127.811 50.8425C127.685 51.2133 127.645 51.4797 127.62 51.4797Z" fill="#455A64"/>
<path d="M128.257 53.5459C128.265 53.3189 128.311 53.0949 128.394 52.8835C128.573 52.3582 128.846 51.8702 129.201 51.4435C129.553 51.0207 129.98 50.6668 130.461 50.3995C130.654 50.2795 130.867 50.1942 131.091 50.1475C131.091 50.1727 130.864 50.2771 130.518 50.5075C129.609 51.0807 128.903 51.9242 128.499 52.9195C128.431 53.133 128.35 53.3422 128.257 53.5459Z" fill="#455A64"/>
<path d="M149.67 152.64L155.185 159.89L157.893 166.885C157.939 167.004 158.01 167.112 158.1 167.203C158.19 167.294 158.298 167.365 158.416 167.413C158.535 167.461 158.662 167.483 158.79 167.48C158.918 167.476 159.044 167.447 159.16 167.392C159.295 167.33 159.412 167.235 159.503 167.118C159.594 167 159.655 166.862 159.682 166.716C160.024 164.822 161.251 157.842 160.819 157.334C160.315 156.744 155.509 149.299 155.509 149.299L149.67 152.64Z" fill="#455A64"/>
<g opacity="0.6">
<path opacity="0.6" d="M159.16 167.4L160.456 156.841L160.682 157.154C160.88 157.423 160.974 157.754 160.949 158.086C160.88 158.979 160.636 161.431 159.703 166.708C159.676 166.859 159.612 167.001 159.518 167.122C159.423 167.242 159.3 167.338 159.16 167.4Z" fill="white"/>
</g>
<g opacity="0.6">
<path opacity="0.6" d="M157.219 155.559C157.176 155.691 157.184 155.835 157.24 155.962C157.297 156.089 157.398 156.19 157.525 156.247C157.656 156.295 157.8 156.291 157.928 156.236C158.056 156.18 158.156 156.077 158.209 155.948C158.252 155.808 158.242 155.658 158.182 155.526C158.121 155.393 158.015 155.287 157.882 155.228C157.74 155.192 157.59 155.213 157.464 155.287C157.337 155.36 157.245 155.48 157.205 155.62" fill="white"/>
</g>
<path d="M158.508 162.954C158.168 162.825 157.801 162.791 157.443 162.854C157.086 162.918 156.752 163.076 156.478 163.314C156.46 163.314 156.51 163.177 156.665 163.026C156.875 162.837 157.135 162.712 157.414 162.666C157.692 162.617 157.978 162.649 158.238 162.759C158.432 162.835 158.522 162.936 158.508 162.954Z" fill="#263238"/>
<path d="M158.699 164.322C158.402 164.357 158.107 164.41 157.817 164.481C157.352 164.639 157.075 164.949 157.028 164.909C156.982 164.869 157.223 164.473 157.748 164.29C157.898 164.219 158.062 164.185 158.228 164.191C158.393 164.197 158.554 164.242 158.699 164.322Z" fill="#263238"/>
<path d="M158.569 160.981C158.107 160.993 157.645 161.042 157.191 161.128C156.75 161.276 156.322 161.456 155.909 161.668C156.24 161.311 156.667 161.056 157.138 160.934C157.61 160.813 158.107 160.829 158.569 160.981Z" fill="#263238"/>
<path d="M157.075 158.634C157.075 158.695 156.557 158.817 156.013 159.185C155.47 159.552 155.142 159.98 155.092 159.948C155.274 159.571 155.554 159.25 155.903 159.018C156.252 158.787 156.657 158.654 157.075 158.634Z" fill="#263238"/>
<path d="M155.52 156.466C155.122 156.592 154.744 156.774 154.397 157.006C154.087 157.287 153.818 157.609 153.598 157.964C153.572 157.964 153.598 157.805 153.688 157.582C153.823 157.295 154.023 157.044 154.273 156.848C154.524 156.653 154.816 156.52 155.128 156.459C155.362 156.416 155.52 156.441 155.52 156.466Z" fill="#263238"/>
<path d="M154.105 156.6C154.105 156.6 154.008 156.521 153.893 156.33C153.732 156.056 153.626 155.752 153.583 155.437C153.534 155.21 153.559 154.972 153.655 154.76C153.692 154.692 153.751 154.638 153.822 154.605C153.892 154.573 153.972 154.564 154.048 154.58C154.194 154.616 154.323 154.704 154.408 154.829C154.571 155.089 154.638 155.397 154.598 155.702C154.558 156.006 154.413 156.287 154.188 156.496C153.961 156.697 153.68 156.826 153.379 156.868C153.079 156.91 152.773 156.862 152.5 156.73C152.432 156.695 152.372 156.647 152.324 156.588C152.277 156.529 152.242 156.461 152.223 156.388C152.209 156.311 152.221 156.231 152.257 156.162C152.293 156.092 152.35 156.036 152.421 156.002C152.63 155.911 152.86 155.876 153.087 155.902C153.403 155.917 153.715 155.988 154.008 156.11C154.118 156.147 154.22 156.206 154.307 156.283C153.912 156.146 153.5 156.066 153.083 156.046C152.884 156.03 152.685 156.065 152.503 156.146C152.465 156.165 152.434 156.195 152.414 156.233C152.395 156.27 152.388 156.313 152.395 156.355C152.412 156.402 152.438 156.446 152.472 156.482C152.506 156.519 152.547 156.548 152.593 156.568C152.832 156.676 153.096 156.713 153.355 156.674C153.614 156.635 153.856 156.522 154.051 156.348C154.241 156.171 154.364 155.935 154.402 155.679C154.44 155.423 154.39 155.161 154.26 154.937C154.204 154.847 154.117 154.782 154.015 154.753C153.974 154.744 153.93 154.748 153.891 154.766C153.852 154.783 153.82 154.813 153.799 154.85C153.717 155.029 153.692 155.229 153.727 155.423C153.781 155.835 153.909 156.234 154.105 156.6Z" fill="#263238"/>
<path d="M144.479 156.117L143.399 163.468C143.399 163.468 150.559 166.489 150.491 167.868L136.116 166.834L137.319 155.314L144.479 156.117Z" fill="#455A64"/>
<g opacity="0.6">
<path opacity="0.6" d="M139.043 162.359C138.901 162.387 138.774 162.466 138.686 162.582C138.598 162.697 138.556 162.841 138.568 162.986C138.589 163.129 138.665 163.258 138.778 163.347C138.892 163.436 139.036 163.478 139.18 163.465C139.331 163.435 139.466 163.351 139.559 163.228C139.652 163.105 139.696 162.952 139.684 162.799C139.645 162.652 139.551 162.526 139.421 162.447C139.292 162.368 139.137 162.342 138.989 162.374" fill="white"/>
</g>
<g opacity="0.6">
<path opacity="0.6" d="M136.123 166.835L136.246 165.672L150.091 167.155C150.232 167.241 150.35 167.362 150.432 167.505C150.514 167.649 150.559 167.81 150.563 167.976L136.123 166.835Z" fill="white"/>
</g>
<path d="M143.64 163.418C143.64 163.49 143.28 163.483 142.92 163.67C142.56 163.857 142.337 164.131 142.276 164.095C142.214 164.059 142.362 163.67 142.812 163.45C143.262 163.231 143.669 163.357 143.64 163.418Z" fill="#263238"/>
<path d="M145.08 164.207C145.08 164.275 144.77 164.362 144.504 164.632C144.238 164.902 144.144 165.208 144.061 165.197C143.978 165.186 143.989 164.783 144.331 164.455C144.673 164.128 145.08 164.138 145.08 164.207Z" fill="#263238"/>
<path d="M145.735 166.097C145.671 166.097 145.613 165.737 145.833 165.377C146.052 165.017 146.398 164.894 146.423 164.955C146.448 165.017 146.221 165.2 146.041 165.503C145.861 165.805 145.8 166.097 145.735 166.097Z" fill="#263238"/>
<path d="M143.705 161.719C143.669 161.78 143.345 161.647 142.96 161.629C142.574 161.611 142.24 161.704 142.211 161.629C142.182 161.553 142.502 161.348 142.97 161.373C143.438 161.398 143.744 161.665 143.705 161.719Z" fill="#263238"/>
<g opacity="0.3">
<path opacity="0.3" d="M144.263 157.572L144.076 158.882L137.041 158.047L137.164 156.862L144.263 157.572Z" fill="black"/>
</g>
<path d="M143.892 160.232C143.649 160.27 143.4 160.241 143.172 160.15C142.92 160.076 142.678 159.97 142.452 159.836C142.317 159.758 142.187 159.67 142.063 159.574C141.987 159.52 141.92 159.455 141.865 159.379C141.828 159.327 141.808 159.264 141.808 159.199C141.808 159.135 141.828 159.072 141.865 159.019C141.906 158.975 141.956 158.94 142.012 158.918C142.069 158.896 142.129 158.888 142.189 158.893C142.281 158.902 142.37 158.924 142.456 158.958C142.604 159.013 142.747 159.08 142.884 159.16C143.114 159.297 143.321 159.468 143.5 159.667C143.799 160.027 143.881 160.286 143.86 160.297C143.838 160.308 143.687 160.081 143.377 159.79C143.197 159.62 142.994 159.475 142.776 159.358C142.648 159.291 142.516 159.233 142.38 159.185C142.233 159.131 142.103 159.113 142.056 159.185C142.009 159.257 142.038 159.217 142.056 159.268C142.099 159.321 142.149 159.368 142.204 159.408C142.318 159.501 142.439 159.586 142.564 159.664C142.775 159.798 142.998 159.912 143.23 160.006C143.456 160.065 143.677 160.141 143.892 160.232Z" fill="#263238"/>
<path d="M143.791 160.322C143.678 160.101 143.639 159.848 143.68 159.602C143.695 159.335 143.757 159.071 143.863 158.825C143.925 158.679 144.002 158.54 144.094 158.411C144.142 158.32 144.213 158.243 144.3 158.188C144.388 158.133 144.488 158.102 144.591 158.098C144.654 158.106 144.714 158.133 144.763 158.174C144.812 158.216 144.849 158.27 144.868 158.332C144.895 158.419 144.909 158.51 144.911 158.602C144.921 158.764 144.904 158.927 144.861 159.084C144.793 159.353 144.66 159.601 144.472 159.804C144.151 160.146 143.849 160.196 143.849 160.164C143.849 160.132 144.087 160.02 144.339 159.685C144.485 159.494 144.588 159.273 144.641 159.037C144.672 158.9 144.683 158.76 144.673 158.62C144.673 158.465 144.623 158.335 144.565 158.346C144.508 158.357 144.36 158.44 144.288 158.555C144.204 158.668 144.131 158.788 144.069 158.915C143.962 159.143 143.888 159.386 143.849 159.635C143.784 160.045 143.831 160.315 143.791 160.322Z" fill="#263238"/>
<path d="M148.964 94.957C148.964 94.957 152.356 101.462 152.356 106.725C152.356 107.838 145.472 163.055 145.472 163.055L135.752 162.234L140.476 111.218L138.946 100.85L148.964 94.957Z" fill="#263238"/>
<path d="M127.274 100.721C127.274 100.721 129.55 119.732 130.619 127.058C131.738 134.726 133.934 136.174 133.934 136.174L153.36 160.722L159.739 155.066L143.01 129.96C143.01 129.96 139.468 99.9829 139.612 100.724C139.756 101.466 127.274 100.721 127.274 100.721Z" fill="#263238"/>
<path d="M134.28 136.49C134.325 136.575 134.379 136.655 134.442 136.728L134.946 137.376L136.793 139.755L142.83 147.675C145.181 150.764 147.326 153.554 148.914 155.545C149.706 156.542 150.354 157.345 150.815 157.885L151.344 158.511C151.403 158.586 151.468 158.656 151.538 158.72C151.492 158.636 151.437 158.558 151.373 158.486C151.247 158.321 151.081 158.105 150.872 157.838L149.04 155.441C147.481 153.403 145.354 150.617 143.003 147.521C140.652 144.425 138.492 141.66 136.904 139.68C136.112 138.683 135.464 137.88 135.004 137.336L134.474 136.713C134.416 136.634 134.351 136.559 134.28 136.49Z" fill="#455A64"/>
<path d="M140.883 111.852C140.878 111.881 140.878 111.91 140.883 111.938L140.904 112.19C140.926 112.43 140.958 112.754 141.001 113.162C141.095 114.019 141.225 115.236 141.39 116.73C141.75 119.754 142.218 123.905 142.744 128.491C142.805 128.995 142.863 129.496 142.92 129.964V129.989V130.007L148.932 139.028C149.692 140.159 150.307 141.07 150.732 141.714C150.941 142.02 151.11 142.258 151.229 142.434L151.362 142.621C151.395 142.661 151.409 142.682 151.413 142.679C151.404 142.655 151.392 142.632 151.377 142.61L151.258 142.416L150.79 141.678L149.04 138.96L143.075 129.902V129.942C143.021 129.47 142.96 128.97 142.902 128.466C142.351 123.883 141.855 119.732 141.495 116.712C141.304 115.218 141.153 114.005 141.045 113.148C140.991 112.741 140.947 112.428 140.915 112.183C140.897 112.082 140.886 112 140.875 111.931C140.865 111.863 140.886 111.848 140.883 111.852Z" fill="#455A64"/>
<g opacity="0.3">
<path opacity="0.3" d="M128.16 107.921C128.16 107.921 135.72 109.911 140.89 109.083C148.201 107.921 152.201 104.576 152.201 104.576L151.549 102.488L127.847 105.48L128.16 107.921Z" fill="black"/>
</g>
<path d="M140.04 64.7275L145.8 66.3835C145.8 66.3835 149.202 90.6043 150.045 94.1395C151.103 98.5711 152.295 102.06 152.205 103.305C152.205 103.305 149.58 106.786 141.844 107.697C134.107 108.608 126.72 106.444 126.72 106.444L126.087 91.9111C126.087 91.9111 122.515 78.9007 122.44 76.7299C122.245 71.3947 123.541 68.2879 123.541 68.2879L131.245 64.8355C133.391 67.2331 138.895 68.0395 140.04 64.7275Z" fill="#FF725E"/>
<path d="M150.721 70.8262C150.251 69.7866 149.572 68.8554 148.725 68.0909C147.878 67.3265 146.882 66.7453 145.8 66.3838L146.293 78.559L149.476 82.537L146.293 84.697L151.639 91.6342C151.639 91.6342 156.762 89.2294 156.989 87.0694C157.216 84.9094 151.56 72.7198 150.721 70.8262Z" fill="#FF725E"/>
<path d="M136.051 84.2393L134.748 88.7645C139.244 94.0961 151.632 91.6229 151.632 91.6229L146.704 84.6605C144.148 85.5065 136.051 84.2393 136.051 84.2393Z" fill="#FF725E"/>
<path d="M134.953 83.5953C134.953 83.5953 132.642 79.0413 132.394 78.9873C132.145 78.9333 128.509 77.6553 128.509 77.6553C128.399 77.9502 128.399 78.2748 128.509 78.5697L127.206 78.7353C127.206 78.7353 127.4 79.5417 127.843 79.6533L127.372 80.0673C127.608 80.3818 127.912 80.639 128.261 80.8197C128.395 80.8857 128.542 80.9201 128.691 80.9201C128.84 80.9201 128.987 80.8857 129.121 80.8197C129.121 80.8197 128.952 81.1221 129.701 81.5937C130.45 82.0653 131.962 84.2541 131.962 84.2541L134.953 83.5953Z" fill="#FFBF9D"/>
<path d="M128.625 78.584C129.392 78.9559 130.188 79.2665 131.004 79.5128C131.335 79.6316 131.667 79.7216 131.926 79.844C132.155 79.9579 132.345 80.1386 132.469 80.3624C132.685 80.7548 132.768 81.0392 132.801 81.0248C132.785 80.7723 132.714 80.5264 132.592 80.3048C132.47 80.0409 132.265 79.8245 132.009 79.6892C131.703 79.5511 131.389 79.4309 131.069 79.3292C130.274 79.019 129.457 78.7699 128.625 78.584Z" fill="#FF9A6C"/>
<path d="M127.779 79.6533C127.98 79.7749 128.202 79.8568 128.434 79.8945C128.851 80.0061 129.438 80.0997 130.061 80.2545C130.592 80.3873 131.092 80.6221 131.533 80.9457C131.865 81.2049 132.012 81.4281 132.041 81.4101C131.96 81.184 131.815 80.9863 131.623 80.8413C131.189 80.4668 130.672 80.2003 130.115 80.0637C129.474 79.8909 128.884 79.8189 128.463 79.7433C128.238 79.6921 128.009 79.662 127.779 79.6533Z" fill="#FF9A6C"/>
<path d="M131.109 81.5726C130.873 81.3051 130.573 81.1019 130.238 80.9822C129.902 80.8625 129.541 80.8303 129.19 80.8886C129.19 80.9462 129.647 80.9786 130.173 81.1694C130.698 81.3602 131.073 81.6194 131.109 81.5726Z" fill="#FF9A6C"/>
<path d="M125.662 68.3489C127.307 68.7521 127.793 70.6853 128.93 74.5517C130.068 78.4181 131.317 82.3997 131.317 82.3997L131.962 84.2537L146.29 80.7941L149.188 85.3841C149.188 85.3841 139.871 92.7857 133.171 93.0809C129.91 92.7785 127.771 91.5545 125.125 87.1553C123.62 84.6713 122.634 82.3673 122.188 80.1245C121.565 76.9961 120.521 73.9361 121.399 70.9769C122.087 68.6513 123.311 67.7729 125.662 68.3489Z" fill="#FF725E"/>
<path d="M146.693 77.5081C146.655 76.8564 146.552 76.21 146.387 75.5785C146.285 74.933 146.118 74.2997 145.886 73.6885C145.927 74.3399 146.029 74.9861 146.192 75.6181C146.295 76.2633 146.463 76.8965 146.693 77.5081Z" fill="#263238"/>
<g opacity="0.3">
<path opacity="0.3" d="M136.573 92.4589C137.408 92.1142 138.279 91.8619 139.169 91.7066C140.123 91.5626 140.926 91.8469 141.88 91.9945C144.727 92.4409 146.851 92.1025 149.537 91.9945L149.684 92.8189C148.504 93.7405 147.017 94.0357 145.516 94.0069C144.158 93.9817 142.823 93.5389 141.462 93.5785C140.393 93.667 139.337 93.8784 138.316 94.2085C136.595 94.7266 134.787 94.8871 133.002 94.6801C128.549 94.0105 126.832 90.5078 126.09 88.877C126.457 89.4693 126.868 90.0326 127.321 90.5617C130.154 93.5029 134.222 93.4489 136.573 92.4589Z" fill="black"/>
</g>
<path d="M149.684 85.4242C149.664 85.4467 149.641 85.4672 149.616 85.4854L149.407 85.6474C149.22 85.7914 148.943 86.0074 148.579 86.2522C147.859 86.767 146.779 87.487 145.436 88.3186C143.853 89.3 142.216 90.193 140.533 90.9934C140.058 91.2166 139.572 91.4506 139.057 91.6486L138.283 91.9654C138.02 92.0662 137.75 92.1562 137.48 92.2498C136.363 92.6487 135.209 92.9345 134.035 93.103C133.437 93.1647 132.836 93.1803 132.235 93.1498C131.649 93.0907 131.072 92.9539 130.522 92.743C129.49 92.3306 128.549 91.7189 127.753 90.943C126.434 89.6126 125.346 88.0725 124.531 86.3854C123.97 85.2626 123.489 84.1018 123.091 82.9114C122.947 82.4902 122.85 82.159 122.789 81.9322C122.765 81.8266 122.743 81.7402 122.724 81.673C122.718 81.6433 122.718 81.6127 122.724 81.583C122.739 81.6101 122.75 81.6392 122.756 81.6694L122.839 81.9214C122.915 82.1446 123.023 82.4686 123.174 82.8862C123.597 84.0647 124.096 85.2144 124.668 86.3278C125.491 87.9892 126.579 89.5055 127.89 90.817C128.671 91.5758 129.593 92.174 130.604 92.5774C131.14 92.7835 131.7 92.9156 132.271 92.9698C132.862 93.0008 133.454 92.9851 134.042 92.923C135.204 92.7559 136.346 92.4749 137.452 92.0842L138.247 91.8034L139.018 91.4902C139.529 91.2922 140.015 91.0654 140.49 90.8458C142.161 90.0485 143.789 89.1653 145.368 88.1998C146.725 87.3826 147.802 86.6806 148.536 86.1838L149.386 85.6114L149.605 85.4638C149.656 85.4386 149.681 85.4206 149.684 85.4242Z" fill="#263238"/>
<path d="M128.549 72.8311C128.556 72.9108 128.573 72.9894 128.599 73.0651C128.646 73.2307 128.707 73.4503 128.779 73.7239L129.478 76.1575C130.09 78.2311 130.918 81.0787 131.875 84.2791L131.9 84.3619L131.994 84.3367C132.329 84.2539 132.714 84.1711 133.11 84.0883C136.642 83.3323 139.828 82.5943 142.11 81.9895C143.255 81.6943 144.176 81.4243 144.81 81.2335L145.53 80.9995C145.615 80.9759 145.698 80.9458 145.778 80.9095C145.69 80.9182 145.603 80.9375 145.519 80.9671L144.799 81.1651C144.158 81.3343 143.233 81.5827 142.085 81.8635C139.792 82.4359 136.602 83.1523 133.085 83.9083C132.692 83.9947 132.325 84.0703 131.944 84.1675L132.062 84.2251L129.6 76.1215C129.287 75.1099 129.031 74.2927 128.848 73.7059C128.761 73.4359 128.689 73.2199 128.635 73.0543C128.615 72.9767 128.586 72.9018 128.549 72.8311Z" fill="#263238"/>
<path d="M150.379 84.312L156.532 84.2005C156.828 84.1933 157.116 84.0947 157.354 83.9181C157.592 83.7415 157.77 83.4957 157.864 83.214L161.464 72.3133C161.734 71.4925 161.129 70.8265 160.157 70.7725L152.626 70.3477C151.416 70.3477 150.772 70.7257 150.567 71.4277L148.216 80.0136C147.6 81.9936 148.601 84.24 150.379 84.312Z" fill="#263238"/>
<path d="M146.005 80.1569L146.988 78.0725L148.806 77.5613L148.227 79.4801C148.86 79.7897 149.699 79.9877 150.246 79.6853C150.793 79.3829 152.943 77.2481 153.349 77.4533C153.756 77.6585 154.116 78.1481 153.745 78.6161C153.375 79.0841 151.362 80.5385 151.776 80.9669C152.19 81.3953 154.512 79.5269 155.193 79.6529C155.873 79.7789 156.291 80.1893 155.913 80.4809C155.535 80.7725 154.599 81.7049 154.433 82.1153C154.473 82.6265 154.717 83.3537 154.494 83.4797C153.947 83.7384 153.374 83.9364 152.784 84.0701C152.662 84.0701 151.798 84.4301 151.002 84.7361C150.108 85.0983 149.112 85.1213 148.201 84.8009L147.741 84.6389C147.388 84.5141 147.084 84.2828 146.869 83.977C146.654 83.6712 146.54 83.3062 146.542 82.9325L146.56 81.3953L146.005 80.1569Z" fill="#FFBF9D"/>
<path d="M50.1572 42.656V45.968C50.0719 46 49.9599 46.0267 49.8212 46.048C49.6825 46.08 49.5279 46.096 49.3572 46.096C49.0265 46.096 48.7865 46.0373 48.6372 45.92C48.4985 45.792 48.4292 45.584 48.4292 45.296V37.04C48.4292 36.8587 48.4772 36.72 48.5732 36.624C48.6799 36.5173 48.8239 36.4373 49.0052 36.384C49.3359 36.2667 49.7305 36.1867 50.1892 36.144C50.6479 36.1013 51.0799 36.08 51.4852 36.08C52.8719 36.08 53.8959 36.3733 54.5572 36.96C55.2292 37.5467 55.5652 38.3413 55.5652 39.344C55.5652 40.3467 55.2292 41.152 54.5572 41.76C53.8959 42.3573 52.9039 42.656 51.5812 42.656H50.1572ZM51.4692 41.264C52.2052 41.264 52.7812 41.104 53.1972 40.784C53.6239 40.464 53.8372 39.984 53.8372 39.344C53.8372 38.704 53.6345 38.2347 53.2292 37.936C52.8345 37.6373 52.2639 37.488 51.5172 37.488C51.2719 37.488 51.0265 37.4987 50.7812 37.52C50.5465 37.5413 50.3332 37.568 50.1412 37.6V41.264H51.4692ZM64.2489 42.256C64.2489 42.864 64.1583 43.4133 63.9769 43.904C63.7956 44.3947 63.5396 44.8107 63.2089 45.152C62.8889 45.4933 62.4943 45.76 62.0249 45.952C61.5556 46.1333 61.0329 46.224 60.4569 46.224C59.8809 46.224 59.3583 46.1333 58.8889 45.952C58.4196 45.76 58.0196 45.4933 57.6889 45.152C57.3689 44.8107 57.1183 44.3947 56.9369 43.904C56.7556 43.4133 56.6649 42.864 56.6649 42.256C56.6649 41.648 56.7556 41.0987 56.9369 40.608C57.1183 40.1173 57.3743 39.7013 57.7049 39.36C58.0356 39.0187 58.4356 38.7573 58.9049 38.576C59.3743 38.384 59.8916 38.288 60.4569 38.288C61.0223 38.288 61.5396 38.384 62.0089 38.576C62.4783 38.7573 62.8783 39.024 63.2089 39.376C63.5396 39.7173 63.7956 40.1333 63.9769 40.624C64.1583 41.104 64.2489 41.648 64.2489 42.256ZM60.4569 39.632C59.8169 39.632 59.3103 39.8613 58.9369 40.32C58.5636 40.7787 58.3769 41.424 58.3769 42.256C58.3769 43.088 58.5583 43.7333 58.9209 44.192C59.2836 44.64 59.7956 44.864 60.4569 44.864C61.1183 44.864 61.6303 44.64 61.9929 44.192C62.3556 43.7333 62.5369 43.088 62.5369 42.256C62.5369 41.4347 62.3503 40.7947 61.9769 40.336C61.6143 39.8667 61.1076 39.632 60.4569 39.632ZM67.0733 46.096C66.764 46.096 66.5346 46.0373 66.3853 45.92C66.236 45.8027 66.1613 45.6053 66.1613 45.328V35.616C66.236 35.5947 66.3426 35.568 66.4813 35.536C66.62 35.504 66.7693 35.488 66.9293 35.488C67.2386 35.488 67.468 35.5467 67.6173 35.664C67.7666 35.7813 67.8413 35.9787 67.8413 36.256V45.968C67.756 46 67.644 46.0267 67.5053 46.048C67.3773 46.08 67.2333 46.096 67.0733 46.096ZM71.9027 45.968C71.828 46 71.7214 46.0267 71.5827 46.048C71.4547 46.08 71.3054 46.096 71.1347 46.096C70.8254 46.096 70.596 46.0373 70.4467 45.92C70.2974 45.8027 70.2227 45.6053 70.2227 45.328V38.56C70.308 38.5387 70.4147 38.512 70.5427 38.48C70.6814 38.448 70.836 38.432 71.0067 38.432C71.316 38.432 71.54 38.4907 71.6787 38.608C71.828 38.7253 71.9027 38.928 71.9027 39.216V45.968ZM70.0467 36.208C70.0467 35.9307 70.1427 35.7013 70.3347 35.52C70.5267 35.328 70.772 35.232 71.0707 35.232C71.3694 35.232 71.6094 35.328 71.7907 35.52C71.972 35.7013 72.0627 35.9307 72.0627 36.208C72.0627 36.4853 71.972 36.72 71.7907 36.912C71.6094 37.0933 71.3694 37.184 71.0707 37.184C70.772 37.184 70.5267 37.0933 70.3347 36.912C70.1427 36.72 70.0467 36.4853 70.0467 36.208ZM77.8699 39.648C77.5286 39.648 77.2139 39.7067 76.9259 39.824C76.6379 39.9307 76.3873 40.096 76.1739 40.32C75.9713 40.544 75.8059 40.8213 75.6779 41.152C75.5606 41.472 75.5019 41.8453 75.5019 42.272C75.5019 43.1147 75.7206 43.76 76.1579 44.208C76.5953 44.6453 77.1659 44.864 77.8699 44.864C78.2753 44.864 78.6219 44.8107 78.9099 44.704C79.1979 44.5973 79.4486 44.4693 79.6619 44.32C79.8006 44.4053 79.9126 44.5067 79.9979 44.624C80.0833 44.7413 80.1259 44.8853 80.1259 45.056C80.1259 45.3867 79.9073 45.664 79.4699 45.888C79.0433 46.112 78.4779 46.224 77.7739 46.224C77.1873 46.224 76.6486 46.144 76.1579 45.984C75.6779 45.824 75.2619 45.5787 74.9099 45.248C74.5579 44.9173 74.2806 44.5067 74.0779 44.016C73.8859 43.5147 73.7899 42.9333 73.7899 42.272C73.7899 41.6107 73.8913 41.0293 74.0939 40.528C74.3073 40.0267 74.5899 39.6107 74.9419 39.28C75.3046 38.9493 75.7259 38.704 76.2059 38.544C76.6859 38.3733 77.1926 38.288 77.7259 38.288C78.0779 38.288 78.3926 38.32 78.6699 38.384C78.9579 38.448 79.2033 38.5387 79.4059 38.656C79.6086 38.7627 79.7633 38.8907 79.8699 39.04C79.9873 39.1787 80.0459 39.328 80.0459 39.488C80.0459 39.6373 80.0033 39.776 79.9179 39.904C79.8433 40.0213 79.7473 40.112 79.6299 40.176C79.4059 40.0373 79.1553 39.9147 78.8779 39.808C78.6113 39.7013 78.2753 39.648 77.8699 39.648ZM83.3171 44.256C83.0504 43.7333 82.7251 42.992 82.3411 42.032C81.9571 41.072 81.5837 39.984 81.2211 38.768C81.3171 38.6507 81.4451 38.5547 81.6051 38.48C81.7651 38.3947 81.9357 38.352 82.1171 38.352C82.3517 38.352 82.5437 38.4107 82.6931 38.528C82.8424 38.6347 82.9651 38.8267 83.0611 39.104C83.3491 39.968 83.6477 40.8213 83.9571 41.664C84.2664 42.496 84.6077 43.36 84.9811 44.256H85.0451C85.2051 43.9147 85.3651 43.5147 85.5251 43.056C85.6957 42.5973 85.8611 42.112 86.0211 41.6C86.1811 41.088 86.3304 40.5707 86.4691 40.048C86.6077 39.5147 86.7304 39.008 86.8371 38.528C86.9437 38.4747 87.0504 38.432 87.1571 38.4C87.2744 38.368 87.4077 38.352 87.5571 38.352C87.7917 38.352 87.9891 38.4107 88.1491 38.528C88.3091 38.6347 88.3891 38.8053 88.3891 39.04C88.3891 39.3173 88.3144 39.744 88.1651 40.32C88.0264 40.8853 87.8397 41.5147 87.6051 42.208C87.3704 42.8907 87.1037 43.584 86.8051 44.288C86.5064 44.992 86.2077 45.616 85.9091 46.16C85.3757 47.0987 84.8904 47.8133 84.4531 48.304C84.0264 48.7947 83.6211 49.04 83.2371 49.04C82.9384 49.04 82.6984 48.9547 82.5171 48.784C82.3464 48.624 82.2397 48.4213 82.1971 48.176C82.3677 48.0267 82.5544 47.8453 82.7571 47.632C82.9597 47.4187 83.1624 47.1893 83.3651 46.944C83.5677 46.6987 83.7597 46.4427 83.9411 46.176C84.1224 45.92 84.2771 45.6693 84.4051 45.424C84.2237 45.3707 84.0477 45.2693 83.8771 45.12C83.7064 44.96 83.5197 44.672 83.3171 44.256Z" fill="black"/>
</svg>
