<svg width="182" height="93" viewBox="0 0 182 93" fill="none" xmlns="http://www.w3.org/2000/svg">
<path d="M35.7927 25.0669H21.7176V19.0651H23.88V6.00008H20.9957V10.5597H16.292V0H41.1428V10.5597H36.4391V6.00008H33.5737V19.0651H35.7892V25.0669H35.7927Z" fill="white"/>
<path d="M58.3423 25.0669H45.1504V19.0651H47.0435V6.00008H45.1144V0H58.3423V6.00008H56.739V9.82237H62.5419V6.00008H60.9197V0H74.1287V6.00008H72.2356V19.0651H74.1287V25.0669H60.9197V19.0651H62.5419V14.9565H56.739V19.0651H58.3423V25.0669Z" fill="white"/>
<path d="M92.2988 25.0669H78.0077V19.0651H80.3141V6.00008H78.0077V0H92.2988V6.00008H90.0095V19.0651H92.2988V25.0669Z" fill="white"/>
<path d="M106.034 25.0669H95.7438V19.0651H97.9421V6.00008H95.7438V0H107.62L116.74 13.1011V6.00008H114.703V0H124.813V6.00008H122.634V25.3927H114.38L103.819 10.2356V19.0651H106.036V25.0669H106.034Z" fill="white"/>
<path d="M142.261 25.0669H128.673V19.0651H130.583V6.00008H128.618V0H142.261V6.00008H140.279V19.0651H142.261V25.0669ZM157.849 25.0669H144.874V19.0651H146.082L140.584 11.9298L146.963 6.00008H144.926V0H157.271V6.00008H155.324L150.206 10.7569L156.604 19.0651H157.847V25.0669H157.849Z" fill="white"/>
<path d="M0.337646 33.4097H15.5136C18.0429 33.4097 19.8795 33.9824 21.0233 35.1262C22.167 36.2699 22.7398 38.1065 22.7398 40.6358V44.2489C22.7398 46.7782 22.167 48.6148 21.0233 49.7585C19.8795 50.9006 18.0429 51.4733 15.5136 51.4733H6.84187V58.7012H0.337646V33.4097ZM16.2355 40.6341C16.2355 39.1885 15.5136 38.4649 14.068 38.4649H6.84187V46.4147H14.068C15.5136 46.4147 16.2355 45.6927 16.2355 44.2472V40.6341Z" fill="white"/>
<path d="M49.6569 51.8349C49.6569 54.3643 49.0841 56.2025 47.9404 57.3446C46.7966 58.4901 44.9601 59.0628 42.4307 59.0628H33.3972C30.8678 59.0628 29.0313 58.4901 27.8875 57.3446C26.7438 56.2025 26.171 54.3643 26.171 51.8349V40.2721C26.171 37.7427 26.7438 35.9062 27.8875 34.7624C29.0313 33.6186 30.8678 33.0459 33.3972 33.0459H42.4307C44.9601 33.0459 46.7966 33.6186 47.9404 34.7624C49.0841 35.9062 49.6569 37.7427 49.6569 40.2721V51.8349ZM43.1527 40.2721C43.1527 38.8265 42.4307 38.1045 40.9852 38.1045H34.8428C33.3972 38.1045 32.6752 38.8265 32.6752 40.2721V51.8349C32.6752 53.2822 33.3972 54.0024 34.8428 54.0024H40.9852C42.4307 54.0024 43.1527 53.2822 43.1527 51.8349V40.2721Z" fill="white"/>
<path d="M53.4142 53.4586C60.0144 53.8204 64.4832 54.0005 66.8188 54.0005C67.3726 54.0005 67.8133 53.8393 68.1391 53.5152C68.4632 53.1911 68.6261 52.7487 68.6261 52.1948V48.9435H60.3162C57.7869 48.9435 55.9504 48.3725 54.8066 47.2271C53.6628 46.0833 53.0918 44.2467 53.0918 41.7157V40.6319C53.0918 38.1026 53.6628 36.2661 54.8066 35.1223C55.9504 33.9785 57.7869 33.4058 60.3162 33.4058H72.9989V38.4627H61.7618C60.3162 38.4627 59.5943 39.1864 59.5943 40.6319V41.3539C59.5943 42.7994 60.3162 43.5231 61.7618 43.5231H68.2661C70.6256 43.5231 72.361 44.077 73.4687 45.1864C74.5765 46.2942 75.1304 48.0278 75.1304 50.3874V52.1965C75.1304 54.5578 74.5748 56.2932 73.4687 57.3975C72.361 58.5053 70.6256 59.0626 68.2661 59.0626C67.0365 59.0626 65.7367 59.0351 64.3632 58.9888L61.0382 58.8448C58.5809 58.7248 56.0395 58.5567 53.4142 58.3389V53.4586Z" fill="white"/>
<path d="M91.2066 58.7012H78.1998V53.6408H81.4511V38.4666H78.1998V33.4097H91.2066V38.4666H87.9553V53.6408H91.2066V58.7012Z" fill="white"/>
<path d="M107.648 58.7012H101.145V38.4666H93.5575V33.4097H115.236V38.4666H107.648V58.7012Z" fill="white"/>
<path d="M130.59 58.7012H117.584V53.6408H120.835V38.4666H117.584V33.4097H130.59V38.4666H127.339V53.6408H130.59V58.7012Z" fill="white"/>
<path d="M145.404 51.1113L151.547 33.4077H158.593L149.018 58.6993H141.791L132.216 33.4077H139.262L145.404 51.1113Z" fill="white"/>
<path d="M181.355 58.7012H161.302V33.4097H181.355V38.4666H167.807V43.3452H178.466V48.4038H167.807V53.6408H181.355V58.7012Z" fill="white"/>
<path d="M28.1688 84.1589C28.1105 85.3113 27.9047 86.3093 27.5515 87.1495C27.1982 87.9898 26.749 88.7066 26.2019 89.3033C25.6549 89.8966 25.0376 90.3785 24.3482 90.7472C23.6606 91.1193 22.9661 91.4108 22.2665 91.6217C21.5668 91.8326 20.8775 91.9767 20.2019 92.0539C19.5262 92.131 18.9278 92.1705 18.4116 92.1705C17.4119 92.1705 16.4739 92.1396 15.5976 92.0796C14.7214 92.023 13.8657 91.9218 13.0306 91.7812C13.1009 91.037 13.1609 90.2242 13.2072 89.3359C13.2535 88.4476 13.2964 87.544 13.3307 86.6197C13.3667 85.6954 13.389 84.7883 13.401 83.8931C13.413 82.9997 13.425 82.1715 13.437 81.4153C13.449 80.6556 13.4541 79.9988 13.4541 79.4398C13.4541 78.8808 13.4541 78.4778 13.4541 78.2309C13.4421 76.5504 13.4181 74.9247 13.3838 73.3608C13.3718 72.6904 13.3564 72.0079 13.3392 71.3082C13.3221 70.6086 13.3032 69.9244 13.2861 69.2625C13.2689 68.5954 13.2484 67.9661 13.2243 67.3728C13.2003 66.7795 13.1712 66.2513 13.1369 65.7917C13.4661 65.7454 13.828 65.7111 14.2224 65.6871C14.6151 65.6631 15.0095 65.6443 15.4039 65.6237C15.7983 65.6065 16.1858 65.5962 16.5682 65.5894C16.9506 65.5825 17.3004 65.5791 17.6177 65.5791C19.0409 65.5791 20.3836 65.6871 21.6492 65.8981C22.913 66.109 24.019 66.4708 24.9673 66.9835C25.9138 67.4962 26.6598 68.1719 27.2085 69.0138C27.7556 69.8541 28.0282 70.9036 28.0282 72.1622C27.9699 72.9253 27.7813 73.6455 27.464 74.316C27.3234 74.6109 27.1485 74.9059 26.9444 75.2077C26.7387 75.5061 26.4815 75.7907 26.1762 76.0616C25.871 76.3326 25.5109 76.5881 25.101 76.8213C24.6895 77.0562 24.2179 77.25 23.6898 77.4043C24.4546 77.6015 25.0942 77.9033 25.6121 78.3012C26.1299 78.7024 26.5552 79.1449 26.8913 79.6336C27.2274 80.1223 27.4795 80.6247 27.6492 81.1409C27.8207 81.6605 27.9425 82.1355 28.0196 82.571C28.0968 83.0066 28.1397 83.3718 28.1517 83.6668C28.1637 83.9583 28.1688 84.1246 28.1688 84.1589ZM23.141 72.0542C23.0947 71.3974 22.9284 70.8075 22.6472 70.2931C22.5288 70.0684 22.3797 69.8507 22.1979 69.6397C22.0161 69.4288 21.7915 69.2385 21.5274 69.0738C21.2633 68.9092 20.9512 68.7755 20.5928 68.6692C20.2344 68.5611 19.8195 68.5114 19.3496 68.5114C18.9724 68.5114 18.5557 68.5457 18.0961 68.616L18.3087 76.0977H18.6963C19.4251 76.0977 20.0424 75.9999 20.55 75.8062C21.0541 75.6124 21.4725 75.3706 21.8018 75.0825C22.131 74.7944 22.3865 74.4789 22.5683 74.1377C22.7501 73.7964 22.8838 73.474 22.9644 73.1774C23.0467 72.8756 23.0964 72.6252 23.1136 72.4177C23.1325 72.2119 23.141 72.0919 23.141 72.0542ZM23.2113 84.3356C23.1753 83.3478 23.0107 82.4596 22.7175 81.669C22.5871 81.3415 22.4277 81.0157 22.2322 80.6916C22.0384 80.3675 21.8001 80.0794 21.5171 79.8273C21.2342 79.5735 20.8998 79.3712 20.5122 79.2186C20.1247 79.0677 19.6771 78.9905 19.1713 78.9905C19.0409 78.9905 18.9072 78.994 18.7649 79.0077C18.6243 79.018 18.4716 79.0385 18.307 79.0608L18.1647 89.029C18.5179 89.0993 18.8643 89.137 19.2056 89.137C19.6994 89.137 20.1316 89.0667 20.502 88.9329C20.8724 88.7992 21.1982 88.614 21.4811 88.3876C21.764 88.1561 22.0024 87.9023 22.1962 87.6177C22.3899 87.3365 22.5511 87.0415 22.6815 86.7363C22.9884 86.0281 23.165 85.2307 23.2113 84.3356Z" fill="white"/>
<path d="M43.662 91.5343C42.7085 91.5103 41.8237 91.4949 41.0075 91.4914C40.1895 91.4846 39.4161 91.4812 38.6873 91.4812C37.2641 91.4812 36.074 91.4949 35.1154 91.524C34.1568 91.5549 33.3766 91.5806 32.7781 91.6046C32.0716 91.6406 31.5143 91.6749 31.1011 91.7127C31.1834 90.9222 31.2571 90.1282 31.3206 89.3274C31.3857 88.53 31.4406 87.7395 31.4886 86.9661C31.5349 86.1893 31.5761 85.4416 31.6121 84.7249C31.6481 84.0046 31.6772 83.329 31.6995 82.6945C31.7458 81.2113 31.7767 79.7948 31.7887 78.4418C31.7767 77.0323 31.7476 75.585 31.6995 74.1017C31.6755 73.4689 31.6464 72.8019 31.6121 72.1022C31.5761 71.4026 31.5366 70.6858 31.4886 69.9587C31.4406 69.2282 31.384 68.496 31.3206 67.7621C31.2554 67.0247 31.1817 66.3114 31.1011 65.6186C32.5707 65.6752 33.8859 65.7232 35.0434 65.7489C36.2026 65.7798 37.2332 65.7918 38.1403 65.7918C39.0337 65.7918 39.8054 65.7849 40.4519 65.7678C41.1001 65.7472 41.6282 65.7283 42.0398 65.7043C42.5216 65.6803 42.9212 65.6512 43.2401 65.6169C43.2401 65.6032 43.2401 65.7112 43.2401 65.9358C43.2401 66.157 43.2453 66.452 43.2573 66.8172C43.2676 67.1825 43.2899 67.594 43.319 68.0536C43.3482 68.5132 43.3927 68.9744 43.4511 69.4477C42.0861 69.3174 40.8926 69.2334 39.8705 69.1905C38.8468 69.1511 37.9706 69.1305 37.2418 69.1305C36.9348 69.1305 36.669 69.1305 36.4392 69.1305C36.2095 69.1305 35.9951 69.1442 35.7962 69.1665C35.7722 70.4697 35.755 71.6958 35.743 72.8447C35.731 73.9902 35.7259 75.0757 35.7259 76.0994C36.549 76.0754 37.2846 76.0429 37.9311 76.0017C38.5793 75.9605 39.1315 75.9108 39.5893 75.8508C40.1192 75.7908 40.5891 75.7273 41.0006 75.657C40.9886 75.741 40.9835 75.8354 40.9835 75.9382C40.9714 76.0326 40.9646 76.1457 40.9646 76.2726C40.9646 76.4029 40.9646 76.5504 40.9646 76.7151C40.9646 77.094 40.9766 77.5416 41.0006 78.0646C41.0246 78.5876 41.0709 79.1501 41.1412 79.7485C39.8706 79.5839 38.7782 79.481 37.8591 79.4398C36.9417 79.4004 36.23 79.3798 35.7242 79.3798C35.7242 80.6025 35.7293 81.6914 35.7413 82.6517C35.7516 83.6102 35.767 84.4539 35.7842 85.1844C35.8013 85.9115 35.8202 86.534 35.8373 87.0536C35.8545 87.5731 35.8751 88.0018 35.8991 88.3396C37.0994 88.3156 38.1695 88.2591 39.1109 88.1648C40.0523 88.0704 40.8463 87.9744 41.4927 87.8732C42.1392 87.772 42.6331 87.6829 42.9743 87.5989C43.3156 87.5183 43.4853 87.4651 43.4853 87.4411C43.4733 87.4977 43.4665 87.5646 43.4665 87.6349C43.4545 87.6915 43.4493 87.7686 43.4493 87.8629C43.4493 87.9573 43.4493 88.0704 43.4493 88.1973C43.4493 88.5283 43.4613 88.9673 43.4853 89.5194C43.5093 90.0767 43.5694 90.7472 43.662 91.5343Z" fill="white"/>
<path d="M69.216 73.7161C69.204 75.256 68.9125 76.6158 68.3432 77.799C67.7721 78.9805 67.0313 79.9734 66.1208 80.7725C65.2085 81.5733 64.1933 82.1752 63.077 82.5884C61.959 83 60.8478 83.2075 59.7434 83.2075H59.3902C59.3902 83.6996 59.3936 84.2861 59.3988 84.9617C59.4039 85.6391 59.4193 86.3713 59.4416 87.1652C59.4656 87.9592 59.4982 88.7892 59.5394 89.6534C59.5805 90.5177 59.6371 91.3785 59.7074 92.2393C59.0129 92.169 58.3785 92.1193 57.8023 92.0953C57.2261 92.0713 56.7202 92.061 56.2847 92.061C56.0498 92.061 55.844 92.0644 55.6674 92.0713C55.4907 92.0747 55.345 92.0781 55.2267 92.0781C55.0843 92.0919 54.9677 92.0953 54.8734 92.0953C54.9317 91.1813 54.9849 90.2605 55.0329 89.3362C55.0792 88.4119 55.1203 87.5082 55.1564 86.6199C55.1924 85.7317 55.2181 84.8743 55.2352 84.0512C55.2524 83.2298 55.2747 82.453 55.297 81.7242C55.333 80.03 55.3553 78.4078 55.3673 76.8542C55.3673 75.3606 55.3553 73.9339 55.3313 72.5672C55.3193 71.991 55.3073 71.3977 55.2953 70.7855C55.2833 70.1767 55.2678 69.58 55.2507 69.0038C55.2335 68.4276 55.2147 67.8892 55.1975 67.3902C55.1804 66.8912 55.1529 66.4591 55.1186 66.0938C56.024 65.9292 56.9089 65.8263 57.7731 65.7851C58.6374 65.7457 59.3525 65.7217 59.9166 65.7217C60.3522 65.7217 60.8872 65.7423 61.5234 65.7748C62.1579 65.8109 62.8198 65.9086 63.5074 66.0664C64.1951 66.2276 64.881 66.4711 65.5635 66.8072C66.2442 67.1416 66.8564 67.6045 67.3983 68.1944C67.9385 68.7809 68.3775 69.5268 68.7136 70.4254C69.0479 71.3239 69.216 72.4197 69.216 73.7161ZM64.6632 73.8567C64.6632 72.9633 64.5637 72.1951 64.3631 71.552C64.1625 70.9124 63.8607 70.3859 63.4543 69.9744C63.0478 69.5628 62.53 69.2508 61.9024 69.0398C61.273 68.8255 60.5288 68.6986 59.6697 68.6506C59.6234 69.6863 59.584 70.7735 59.5548 71.9121C59.5257 73.0542 59.4999 74.1636 59.4759 75.2371C59.4519 76.3157 59.4348 77.3137 59.4228 78.238C59.4108 79.1589 59.3988 79.9168 59.3868 80.505C60.2699 80.4587 61.0398 80.2632 61.6983 79.9219C62.3568 79.5807 62.9072 79.1211 63.3479 78.545C63.7886 77.9688 64.1179 77.2829 64.3357 76.4889C64.5552 75.6984 64.6632 74.8204 64.6632 73.8567Z" fill="white"/>
<path d="M87.7444 78.4781C87.7444 80.3609 87.5696 82.1255 87.2146 83.7699C86.8613 85.4179 86.3383 86.8548 85.6455 88.0844C84.951 89.3139 84.0902 90.2845 83.0613 90.9944C82.0325 91.7077 80.8475 92.0627 79.5066 92.0627C78.1433 92.0627 76.9464 91.7077 75.9175 90.9944C74.8869 90.2845 74.0295 89.3139 73.3402 88.0844C72.6525 86.8548 72.1347 85.4179 71.7883 83.7699C71.4419 82.1255 71.267 80.3609 71.267 78.4781C71.267 76.6055 71.435 74.8513 71.7694 73.2034C72.1038 71.5554 72.6131 70.1219 73.2956 68.8992C73.9763 67.6731 74.8355 66.7094 75.8712 65.9961C76.9069 65.2861 78.1176 64.9277 79.5049 64.9277C80.9401 64.9277 82.1782 65.2861 83.2191 65.9961C84.26 66.7094 85.1157 67.6749 85.7861 68.8992C86.4566 70.1219 86.9505 71.5554 87.2677 73.2034C87.585 74.8513 87.7444 76.6055 87.7444 78.4781ZM83.1214 78.4781C83.1214 77.0171 83.0613 75.6452 82.9447 74.3591C82.8281 73.0696 82.6292 71.9481 82.3531 70.9896C82.077 70.031 81.7067 69.2747 81.2419 68.7226C80.7772 68.1704 80.1976 67.8926 79.5031 67.8926C78.8326 67.8926 78.2685 68.1704 77.8106 68.7226C77.3511 69.2747 76.9807 70.0327 76.6994 70.9896C76.4182 71.9481 76.2107 73.0696 76.0821 74.3591C75.9518 75.6452 75.8883 77.0188 75.8883 78.4781C75.8883 79.9477 75.9535 81.3281 76.0821 82.6141C76.2107 83.9037 76.4199 85.0252 76.708 85.9837C76.9961 86.9457 77.3699 87.702 77.8278 88.261C78.2873 88.82 78.8446 89.0978 79.5031 89.0978C80.1513 89.0978 80.7035 88.82 81.1613 88.261C81.6209 87.702 81.9965 86.944 82.2914 85.9837C82.5846 85.0252 82.7973 83.9037 82.9259 82.6141C83.0562 81.3281 83.1214 79.9494 83.1214 78.4781Z" fill="white"/>
<path d="M104.685 85.0592C104.567 86.3882 104.263 87.4908 103.776 88.3653C103.287 89.2433 102.692 89.9429 101.986 90.466C101.279 90.9924 100.501 91.3559 99.6485 91.5685C98.7962 91.7829 97.9457 91.8875 97.0986 91.8875C96.2172 91.8875 95.3667 91.7675 94.5504 91.5257C93.7325 91.2839 93.0122 90.9221 92.3881 90.4402C91.7656 89.9584 91.2683 89.3548 90.8979 88.6242C90.5275 87.8937 90.3423 87.0398 90.3423 86.0658C90.3423 85.313 90.4572 84.6819 90.687 84.1761C90.9167 83.6702 91.2014 83.2655 91.5426 82.9603C91.8839 82.655 92.2491 82.4373 92.6367 82.3172C93.0259 82.1938 93.3843 82.1303 93.7136 82.1303C94.0548 82.1303 94.4064 82.1835 94.7716 82.2915C95.1352 82.3961 95.4713 82.5727 95.7765 82.8214C96.0817 83.0666 96.3321 83.401 96.5276 83.816C96.7213 84.2344 96.8174 84.754 96.8174 85.3799C96.8174 85.3901 96.8088 85.4999 96.7916 85.7039C96.7745 85.908 96.7059 86.1464 96.5876 86.4104C96.471 86.6745 96.2909 86.9335 96.0491 87.1838C95.8073 87.4376 95.4575 87.6159 94.9997 87.7223C95.3289 88.1338 95.713 88.4425 96.1554 88.65C96.5962 88.854 96.97 88.9586 97.2752 88.9586C97.5804 88.9586 97.9303 88.9055 98.3247 88.7974C98.7174 88.6928 99.0895 88.5128 99.4359 88.2607C99.7823 88.0069 100.077 87.6708 100.319 87.2558C100.559 86.8374 100.681 86.311 100.681 85.6748C100.681 84.934 100.554 84.2755 100.302 83.6994C100.048 83.1232 99.7257 82.6139 99.3313 82.1715C98.9369 81.7325 98.4961 81.3449 98.0074 81.0088C97.5187 80.6745 97.0454 80.3692 96.5876 80.0983C96.2823 79.9234 95.9171 79.7159 95.4935 79.4724C95.07 79.234 94.6293 78.9425 94.1714 78.6081C93.7119 78.2737 93.2592 77.8913 92.8133 77.4626C92.3658 77.0339 91.9628 76.5452 91.6044 75.9982C91.246 75.4495 90.9579 74.8424 90.7401 74.1736C90.5224 73.4997 90.4143 72.7607 90.4143 71.9496C90.4143 70.7372 90.6252 69.6757 91.0488 68.7652C91.4723 67.8546 92.0211 67.0933 92.6984 66.4811C93.3758 65.8689 94.1423 65.4093 95.0014 65.1041C95.8588 64.7988 96.7299 64.6445 97.6113 64.6445C98.4944 64.6445 99.3347 64.7646 100.134 65.0064C100.935 65.2481 101.636 65.5962 102.241 66.0472C102.848 66.4999 103.328 67.0418 103.689 67.6677C104.047 68.2971 104.227 69.0001 104.227 69.7786C104.227 70.5657 104.097 71.1882 103.838 71.6478C103.579 72.1073 103.27 72.4554 102.912 72.6886C102.553 72.9236 102.188 73.0745 101.818 73.1379C101.447 73.2048 101.149 73.2357 100.926 73.2357C100.643 73.2357 100.35 73.1859 100.043 73.0779C99.7377 72.9699 99.4581 72.8138 99.2044 72.6029C98.9523 72.392 98.7431 72.1313 98.5785 71.8261C98.4139 71.5209 98.3315 71.1625 98.3315 70.7509C98.3435 70.4903 98.3727 70.2313 98.4207 69.9741C98.467 69.7495 98.5373 69.5094 98.6316 69.2505C98.7259 68.9932 98.8666 68.7446 99.0552 68.5097C98.8666 68.3451 98.6848 68.2147 98.5082 68.1204C98.3315 68.0261 98.1669 67.9558 98.0143 67.9095C97.8377 67.8632 97.6662 67.8323 97.5033 67.8186C97.1741 67.8186 96.8414 67.8786 96.507 67.997C96.1726 68.1136 95.8656 68.2919 95.5896 68.5268C95.3135 68.7617 95.0871 69.0601 94.9105 69.4185C94.7339 69.7769 94.6464 70.1987 94.6464 70.6806C94.6464 71.2431 94.7339 71.7524 94.9105 72.2051C95.0871 72.6578 95.3632 73.0968 95.7388 73.522C96.1143 73.9439 96.5944 74.3726 97.1758 74.8081C97.7571 75.2437 98.455 75.7187 99.2661 76.2383C100.22 76.8385 101.039 77.4369 101.727 78.0371C102.414 78.6373 102.979 79.2563 103.421 79.8891C103.862 80.5253 104.189 81.1923 104.4 81.892C104.611 82.5916 104.719 83.3495 104.719 84.1589C104.719 84.2995 104.719 84.4436 104.719 84.5911C104.719 84.7385 104.707 84.8946 104.685 85.0592Z" fill="white"/>
<path d="M112.52 91.3028L107.862 91.7812C107.886 90.9907 107.907 90.171 107.924 89.3187C107.941 88.4648 107.957 87.6143 107.969 86.7706C107.981 85.9235 107.993 85.0901 108.003 84.2721C108.015 83.4542 108.02 82.6808 108.02 81.9537C108.032 80.2355 108.037 78.5481 108.037 76.8899C108.025 75.4066 108.008 73.973 107.984 72.5823C107.972 71.9959 107.957 71.3905 107.94 70.7664C107.922 70.1439 107.902 69.53 107.878 68.9315C107.854 68.3314 107.828 67.7655 107.799 67.2304C107.768 66.6937 107.73 66.2153 107.684 65.79L112.129 65.5791C112.105 66.3096 112.086 67.059 112.067 67.8306C112.05 68.6006 112.035 69.3654 112.023 70.125C112.011 70.8813 112.002 71.6152 111.995 72.3182C111.988 73.0247 111.987 73.6849 111.987 74.2937C111.987 77.3649 112.024 80.2921 112.101 83.0718C112.182 85.8566 112.321 88.6002 112.52 91.3028Z" fill="white"/>
<path d="M124.115 91.4091H123.621C122.891 91.4091 122.2 91.4451 121.548 91.5223C120.895 91.5994 120.199 91.7092 119.458 91.8498C119.61 89.2605 119.729 86.8289 119.811 84.555C119.893 82.2778 119.935 80.0709 119.935 77.9308C119.935 75.1871 119.864 72.4846 119.724 69.8129L115.277 70.1319C115.265 69.7341 115.253 69.3654 115.241 69.0293C115.229 68.6949 115.212 68.3691 115.188 68.0587C115.164 67.7466 115.135 67.4328 115.099 67.107C115.063 66.7829 115.022 66.4211 114.975 66.0215H117.11C118.05 66.0215 118.971 66.0147 119.871 66.0044C120.771 65.9907 121.67 65.9735 122.57 65.9512C123.469 65.9272 124.381 65.8981 125.305 65.8638C126.228 65.8278 127.185 65.7797 128.172 65.7197C128.112 66.3199 128.075 66.8275 128.058 67.2476C128.04 67.666 128.03 68.0982 128.03 68.544V69.4786L123.69 69.5866C123.654 70.7149 123.633 71.8244 123.628 72.9116C123.623 74.0005 123.62 75.0945 123.62 76.2006C123.62 78.7659 123.661 81.3055 123.743 83.8228C123.827 86.3384 123.951 88.8678 124.115 91.4091Z" fill="white"/>
<path d="M135.568 91.3028L130.911 91.7812C130.935 90.9907 130.956 90.171 130.973 89.3187C130.99 88.4648 131.005 87.6143 131.017 86.7706C131.029 85.9235 131.041 85.0901 131.052 84.2721C131.064 83.4542 131.069 82.6808 131.069 81.9537C131.081 80.2355 131.086 78.5481 131.086 76.8899C131.074 75.4066 131.057 73.973 131.033 72.5823C131.021 71.9959 131.005 71.3905 130.988 70.7664C130.971 70.1439 130.95 69.53 130.926 68.9315C130.902 68.3314 130.877 67.7655 130.848 67.2304C130.817 66.6937 130.779 66.2153 130.733 65.79L135.177 65.5791C135.153 66.3096 135.135 67.059 135.116 67.8306C135.099 68.6006 135.083 69.3654 135.071 70.125C135.059 70.8813 135.051 71.6152 135.044 72.3182C135.039 73.0247 135.035 73.6849 135.035 74.2937C135.035 77.3649 135.073 80.2921 135.15 83.0718C135.231 85.8566 135.369 88.6002 135.568 91.3028Z" fill="white"/>
<path d="M152.915 65.7919C152.305 68.0057 151.775 70.2023 151.327 72.3938C150.88 74.5802 150.499 76.7614 150.182 78.9375C149.863 81.1153 149.594 83.2811 149.369 85.4486C149.146 87.6127 148.945 89.7699 148.769 91.922L142.117 91.4795C141.846 89.3155 141.577 87.1583 141.306 85.0148C141.035 82.8678 140.738 80.7243 140.414 78.5911C140.09 76.4579 139.735 74.335 139.346 72.2207C138.958 70.1115 138.518 68.004 138.024 65.8965C138.259 65.8965 138.494 65.9068 138.73 65.9239C138.965 65.9411 139.19 65.9513 139.401 65.9513C140.059 65.9513 140.689 65.9342 141.289 65.8982C141.889 65.8639 142.536 65.8279 143.23 65.7902C143.312 67.4844 143.424 69.2403 143.564 71.058C143.707 72.874 143.87 74.7088 144.058 76.5608C144.247 78.4128 144.458 80.2648 144.694 82.1099C144.929 83.955 145.188 85.7435 145.471 87.4721C145.765 85.7435 146.039 83.955 146.293 82.1099C146.545 80.2648 146.766 78.4128 146.955 76.5539C147.142 74.6951 147.299 72.8534 147.421 71.0306C147.544 69.2078 147.63 67.4501 147.677 65.7559C148.17 65.8159 148.647 65.8536 149.105 65.869C149.565 65.8862 150.017 65.8965 150.463 65.8965C151.228 65.8982 152.044 65.8656 152.915 65.7919Z" fill="white"/>
<path d="M167.685 91.5343C166.731 91.5103 165.847 91.4949 165.03 91.4914C164.212 91.4846 163.439 91.4812 162.71 91.4812C161.287 91.4812 160.097 91.4949 159.138 91.524C158.18 91.5549 157.399 91.5806 156.801 91.6046C156.094 91.6406 155.537 91.6749 155.126 91.7127C155.208 90.9222 155.282 90.1282 155.345 89.3274C155.41 88.53 155.465 87.7395 155.513 86.9661C155.559 86.1893 155.601 85.4416 155.637 84.7249C155.671 84.0046 155.702 83.329 155.724 82.6945C155.77 81.2113 155.801 79.7948 155.813 78.4418C155.801 77.0323 155.772 75.585 155.724 74.1017C155.7 73.4689 155.671 72.8019 155.637 72.1022C155.601 71.4026 155.561 70.6858 155.513 69.9587C155.465 69.2282 155.409 68.496 155.345 67.7621C155.28 67.0247 155.208 66.3114 155.126 65.6186C156.595 65.6752 157.91 65.7232 159.068 65.7489C160.227 65.7798 161.258 65.7918 162.165 65.7918C163.058 65.7918 163.83 65.7849 164.476 65.7678C165.125 65.7472 165.653 65.7283 166.064 65.7043C166.546 65.6803 166.946 65.6512 167.265 65.6169C167.265 65.6032 167.265 65.7112 167.265 65.9358C167.265 66.157 167.27 66.452 167.282 66.8172C167.292 67.1825 167.313 67.594 167.344 68.0536C167.373 68.5132 167.417 68.9744 167.476 69.4477C166.112 69.3174 164.917 69.2334 163.895 69.1905C162.871 69.1511 161.995 69.1305 161.266 69.1305C160.959 69.1305 160.692 69.1305 160.464 69.1305C160.234 69.1305 160.02 69.1442 159.819 69.1665C159.795 70.4697 159.778 71.6958 159.766 72.8447C159.754 73.9902 159.749 75.0757 159.749 76.0994C160.572 76.0754 161.307 76.0429 161.954 76.0017C162.6 75.9605 163.154 75.9108 163.612 75.8508C164.142 75.7908 164.612 75.7273 165.023 75.657C165.011 75.741 165.006 75.8354 165.006 75.9382C164.994 76.0326 164.987 76.1457 164.987 76.2726C164.987 76.4029 164.987 76.5504 164.987 76.7151C164.987 77.094 164.999 77.5416 165.023 78.0646C165.047 78.5876 165.094 79.1501 165.164 79.7485C163.893 79.5839 162.801 79.481 161.882 79.4398C160.964 79.4004 160.253 79.3798 159.747 79.3798C159.747 80.6025 159.752 81.6914 159.764 82.6517C159.774 83.6102 159.79 84.4539 159.807 85.1844C159.824 85.9115 159.843 86.534 159.86 87.0536C159.877 87.5731 159.898 88.0018 159.922 88.3396C161.122 88.3156 162.192 88.2591 163.134 88.1648C164.075 88.0704 164.869 87.9744 165.516 87.8732C166.162 87.772 166.656 87.6829 166.997 87.5989C167.338 87.5183 167.508 87.4651 167.508 87.4411C167.496 87.4977 167.489 87.5646 167.489 87.6349C167.477 87.6915 167.472 87.7686 167.472 87.8629C167.472 87.9573 167.472 88.0704 167.472 88.1973C167.472 88.5283 167.484 88.9673 167.508 89.5194C167.532 90.0767 167.59 90.7472 167.685 91.5343Z" fill="white"/>
</svg>
