<svg width="278" height="202" viewBox="0 0 278 202" fill="none" xmlns="http://www.w3.org/2000/svg">
<path opacity="0.08" d="M79.1216 160.485C67.555 160.624 56.9801 161.845 45.549 162.173C39.7689 162.339 20.7974 161.884 17.1331 165.121C11.3517 170.227 26.6407 169.914 25.0758 173.775C24.7655 174.541 23.5989 175.067 22.888 175.734C21.6117 176.931 21.9395 178.563 23.2865 179.733C29.1867 184.858 50.761 183.368 59.8251 183.454C112.264 183.957 164.845 184.553 216.993 182.86C228.24 182.495 239.421 182.034 250.62 181.604C255.744 181.407 262.159 180.895 262.179 179.746C262.23 176.838 252.48 179.891 255.705 174.087C256.742 172.222 262.095 171.852 259.38 168.657C256.395 165.145 249.5 162.432 243.128 161.544C236.619 160.637 229.923 160.779 223.304 160.491C211.154 159.963 198.948 159.862 186.759 159.815C159.108 159.707 131.457 159.887 103.812 160.165C95.5852 160.248 87.3529 160.387 79.1216 160.485Z" fill="black"/>
<path d="M19.5593 70.1716L19.5056 71.3516L55.6978 72.9949L55.7515 71.8148L19.5593 70.1716Z" fill="#BCBEC0"/>
<path d="M29.919 37.085L28.9735 37.7942L55.2491 72.7604L56.1946 72.0512L29.919 37.085Z" fill="#BCBEC0"/>
<path d="M161.95 96.4144L162.109 93.6816L163.281 93.6228L163.586 95.4916L164.145 95.2075L163.723 97.5479L162.503 97.7729L161.95 96.4144Z" fill="#EAC5B0"/>
<path d="M177.223 107.233L168.543 106.472L164.267 96.2322L161.905 97.0036L164.145 111.168L177.703 113.63L177.223 107.233Z" fill="#3B455A"/>
<path d="M53.0356 91.0967L52.6383 88.3783L51.4619 88.4217L51.3191 90.3165L50.7366 90.0812L51.3616 92.3842L52.6012 92.5029L53.0356 91.0967Z" fill="#B9916F"/>
<path d="M36.0326 104.449L48.5297 102.011L50.7032 91.1161L53.1316 91.6817L52.4374 106.815L39.9671 110.975L36.0326 104.449Z" fill="#3B455A"/>
<path d="M87.876 173.268C87.6084 172.974 87.2963 172.813 86.9435 172.869C86.6045 172.922 86.2998 173.151 86.16 173.458C86.0647 173.668 86.0445 173.901 86.0258 174.129C85.928 175.311 85.9368 178.116 87.5121 178.52C88.174 178.689 88.7216 178.22 88.8985 177.626C89.1647 176.731 88.7704 174.252 87.876 173.268Z" fill="#3B455A"/>
<path d="M88.4364 155.444L88.354 162.651C88.4498 165.852 87.9496 169.071 88.0454 172.272C88.0674 173.008 88.2595 173.784 88.0737 174.514C87.8922 175.228 87.3117 175.354 86.7161 174.993C85.9179 174.508 86.0466 173.378 85.9136 172.553C85.5485 170.286 85.1201 168.03 84.7385 165.766C84.5514 164.656 84.9369 163.1 84.8529 161.977C84.8529 161.976 83.6876 155.937 83.6876 155.937L88.4364 155.444Z" fill="#EAC5B0"/>
<path d="M80.1949 143.8L83.3343 157.732L84.001 170.89L88.979 170.778L90.3326 133.974L80.6827 134.15L80.1949 143.8Z" fill="#3B455A"/>
<path d="M94.9963 173.006C94.717 172.727 94.3988 172.585 94.0498 172.661C93.7144 172.734 93.4205 172.982 93.2941 173.298C93.2082 173.513 93.1981 173.747 93.189 173.977C93.1422 175.165 93.2709 177.972 94.8583 178.283C95.5252 178.414 96.0511 177.912 96.2018 177.307C96.429 176.395 95.9298 173.938 94.9963 173.006Z" fill="#3B455A"/>
<path d="M92.3724 156.456L92.7947 163.651C92.8294 165.65 93.096 167.634 93.3032 169.62C93.4956 171.465 93.1961 173.386 94.1612 175.064C94.4637 175.591 95.0756 175.941 95.503 175.302C95.8323 174.809 95.6367 173.987 95.6998 173.428C95.9576 171.147 96.2791 168.873 96.5533 166.594C96.6878 165.476 96.2293 163.94 96.2601 162.815C96.2601 162.814 97.1391 156.727 97.1391 156.727L92.3724 156.456Z" fill="#EAC5B0"/>
<path d="M98.6719 142.948L99.077 156.473L96.9525 170.149L91.8889 170.301L92.1123 155.499L89.4329 143.224L88.5334 135.189L96.5679 134.242L98.6719 142.948Z" fill="#3B455A"/>
<path d="M92.3158 106.563L83.6599 106.356L78.641 115.682L80.425 124.416L80.7424 134.869L93.0899 135.038L97.1528 134.379L96.0741 123.21L96.6925 108.291L92.3158 106.563Z" fill="white"/>
<path d="M80.7596 130.753L80.3621 132.196L82.3892 133.85L83.9642 133.14L84.3799 131.444L83.1441 130.965L83.1961 130.58L82.8588 130.148L80.7596 130.753Z" fill="#EAC5B0"/>
<path d="M83.6697 106.688L73.0964 118.28L71.507 122.97L80.1502 132.025L82.7715 130.263L77.2292 122.689L82.518 118.772L83.6697 106.688Z" fill="white"/>
<path d="M91.9885 112.213L96.4972 121.219L101.359 122.184L110.731 114.271L108.641 111.903L100.336 116.552L95.9323 108.291L91.9885 112.213Z" fill="#ABADB2"/>
<path d="M91.7739 99.3172C90.469 95.5266 85.4605 96.9472 84.4279 100.322C83.7543 102.524 85.4562 105.381 87.7393 106.013C87.7495 106.1 87.757 106.181 87.7573 106.249C87.7588 106.603 87.8025 106.951 87.8548 107.304C87.8743 107.436 89.8726 107.052 90.0953 107.009C90.1734 106.993 90.2603 106.972 90.3023 106.907C90.3829 106.781 90.2517 106.412 90.237 106.273C90.2199 106.109 90.2024 105.944 90.1852 105.78C91.3114 105.23 92.0221 104.061 92.2207 102.87C92.4201 101.673 92.1659 100.456 91.7739 99.3172Z" fill="#EAC5B0"/>
<path d="M88.5062 95.8919C88.2376 96.1644 88.1322 96.5444 88.0546 96.9093C88.0083 97.1272 87.9687 97.3524 88.0152 97.5683C88.2012 98.4288 89.0554 98.3839 89.716 98.6611C90.5308 99.0033 91.2331 99.6327 91.6893 100.358C92.4035 101.494 92.0823 102.955 91.7927 104.208C91.6906 104.649 91.4851 105.305 91.8278 105.699C92.1761 106.099 92.9808 106.037 93.3977 105.832C93.7789 105.643 94.0917 105.296 94.5103 105.226C94.953 105.152 95.5515 105.346 95.7577 104.94C95.8151 104.827 95.8204 104.689 95.8927 104.586C96.1373 104.236 96.7459 104.645 97.0909 104.399C97.3029 104.247 97.3014 103.924 97.2296 103.669C97.1578 103.413 97.037 103.154 97.0871 102.894C97.13 102.671 97.2913 102.494 97.3911 102.291C97.588 101.889 97.52 101.366 97.2268 101.027C96.6814 100.396 95.6263 100.516 95.042 99.9229C94.7377 99.6138 94.6197 99.1684 94.5062 98.7465C94.3927 98.3248 94.2565 97.8801 93.9313 97.5943C93.5294 97.2413 92.9489 97.3011 92.5524 96.8825C92.3194 96.6366 92.1639 96.3161 91.9024 96.1023C91.5576 95.82 90.8839 95.6031 90.4552 95.4592C89.7752 95.2309 89.0145 95.3763 88.5062 95.8919Z" fill="#3B455A"/>
<path d="M85.3382 101.941C85.315 103.188 85.9352 104.537 85.36 105.635C84.7795 106.743 83.3323 106.943 82.099 107.001C81.8961 107.011 79.2932 107.235 79.2821 107.186C79.0873 106.317 78.8856 105.431 78.4312 104.668C77.9765 103.905 77.2166 103.272 76.3462 103.218C76.5974 103.175 76.724 102.867 76.695 102.608C76.6659 102.349 76.5317 102.116 76.4541 101.867C76.2636 101.255 76.4491 100.542 76.9105 100.112C77.8312 99.2547 79.5007 99.611 80.29 98.6263C80.7795 98.0157 80.7212 97.13 80.9777 96.3843C81.4735 94.9428 83.0533 94.6411 84.2338 93.9901C85.48 93.3028 86.6537 92.9263 88.0922 93.1657C89.8754 93.4626 91.201 95.2763 90.5131 96.9835C89.6311 99.1727 86.1045 98.9838 85.4441 101.207C85.3734 101.445 85.3428 101.691 85.3382 101.941Z" fill="#3B455A"/>
<path d="M86.2205 106.513L88.9057 110.305L90.1681 110.202L92.272 106.356L86.2205 106.513Z" fill="#7DB5DB"/>
<path d="M193.477 36.6948L193.321 37.8656L236.76 43.6496L236.916 42.4788L193.477 36.6948Z" fill="#BCBEC0"/>
<path d="M48.8033 76.2629L47.9945 77.1244L93.5754 119.842L94.3841 118.98L48.8033 76.2629Z" fill="#BCBEC0"/>
<path d="M194.111 39.6647L193.447 40.6423L249.706 78.7531L250.37 77.7754L194.111 39.6647Z" fill="#BCBEC0"/>
<path d="M46.8605 137.98C46.6533 135.847 46.4382 133.714 46.1756 131.587C45.6517 127.344 44.9385 123.111 43.7317 119.003C43.2708 117.434 42.739 115.887 42.2073 114.34C41.5598 112.457 40.9126 110.573 40.2651 108.69C39.4604 106.349 38.1025 104.7 35.7248 103.881C35.3002 103.735 34.8532 103.622 34.3924 103.539C34.3811 103.588 34.371 103.637 34.3646 103.688C34.3371 103.913 34.2727 104.163 34.1304 104.326L35.691 104.341C35.691 104.341 40.094 119.714 40.2557 122.364C40.3171 123.371 40.5218 125.57 40.7493 127.886L43.1404 128.237L43.243 137.097C43.3769 137.135 43.5101 137.173 43.642 137.208C44.4007 137.409 45.0179 137.961 45.6482 138.394C46.5792 139.034 46.9874 139.287 46.8605 137.98Z" fill="#3B455A"/>
<path d="M28.2464 127.677C28.6816 125.513 29.0217 123.516 29.0531 122.433C29.1468 119.175 29.5641 108.417 29.5641 108.417L31.5879 104.301L31.9615 104.305C31.9347 104.302 31.9076 104.299 31.8808 104.295C31.9187 103.944 31.9026 103.653 31.8487 103.398C28.3199 103.61 24.7031 105.458 23.6905 108.891C23.6071 109.174 23.5421 109.463 23.5183 109.757C23.3771 111.52 23.9164 112.823 23.4071 114.594C22.9646 116.133 22.5635 117.695 22.2691 119.27C21.843 121.55 21.4493 123.818 21.1394 126.081C20.7962 128.587 20.5544 131.086 20.4841 133.57C20.4763 133.845 20.4209 134.613 20.3898 135.53C20.3249 137.452 20.3666 140.023 21.1763 140.119C21.328 140.137 21.4743 140.07 21.6077 140.005C22.6495 139.499 23.4703 138.839 24.389 138.262L24.4383 128.238L28.2464 127.677Z" fill="#3B455A"/>
<path d="M36.7981 135.765C36.625 135.778 36.4486 135.792 36.2691 135.806L34.5562 152.25L36.3975 176.167H36.415V175.806H39.4866L43.3827 149.173L43.2429 137.097C41.3808 136.561 39.3633 135.736 37.4183 135.753C37.2121 135.755 37.0051 135.76 36.7981 135.765Z" fill="#3B455A"/>
<path d="M40.7495 127.885C41.1096 131.551 41.5276 135.511 41.5276 135.511C41.5276 135.511 39.5945 135.557 36.7981 135.765C37.0048 135.76 37.2118 135.755 37.4183 135.753C39.3633 135.736 41.3805 136.561 43.2429 137.096L43.1403 128.237L40.7495 127.885Z" fill="#3B455A"/>
<path d="M36.4153 176.167V177.446L39.6987 179.086L41.3404 177.446L39.6987 175.806H39.4869L39.4341 176.167H36.4153Z" fill="#3B455A"/>
<path d="M36.4153 176.167H39.4341L39.4869 175.806H36.4153V176.167Z" fill="#3B455A"/>
<path d="M31.9728 136.228C31.8978 136.237 31.823 136.246 31.7477 136.255C29.7921 136.673 28.5226 136.837 27.6982 136.88C26.9052 137.087 26.1323 137.35 25.4085 137.694C25.0474 137.866 24.7125 138.059 24.3895 138.261L24.3792 140.349L28.1074 175.805H31.1641V176.166H31.1816L34.5426 152.384L34.5565 152.25L34.4802 151.259L31.9728 136.228Z" fill="#3B455A"/>
<path d="M27.698 136.88C26.3646 136.949 26.1988 136.702 26.1988 136.702C26.1988 136.702 27.4018 131.875 28.2464 127.677L24.4388 128.237L24.3895 138.262C24.7125 138.059 25.0474 137.866 25.4085 137.694C26.1321 137.35 26.9052 137.088 27.698 136.88Z" fill="#3B455A"/>
<path d="M31.9728 136.228L34.4801 151.259L34.5564 152.25L36.2694 135.805C34.9661 135.909 33.5015 136.046 31.9728 136.228Z" fill="#3B455A"/>
<path d="M28.1071 175.806H27.8804L26.2386 177.446L27.8804 179.086L31.1638 177.446V176.167H28.1452L28.1071 175.806Z" fill="#3B455A"/>
<path d="M28.1071 175.806L28.1452 176.167H31.1638V175.806H28.1071Z" fill="#3B455A"/>
<path d="M33.9084 104.477C33.7811 104.519 33.6426 104.503 33.5094 104.488C32.9936 104.427 32.4775 104.366 31.9617 104.305L31.5881 104.301L29.5643 108.416C29.5643 108.416 29.147 119.175 29.0533 122.433C29.0222 123.516 28.682 125.513 28.2466 127.677L30.4913 127.346L30.3253 126.352L31.5338 126.529L31.4499 126.387L31.9591 106.552L31.6306 105.262C31.5389 104.902 31.811 104.552 32.1826 104.552H34.2026C34.6742 104.552 34.9416 105.092 34.6555 105.467L33.8263 106.552L35.9949 126.537L37.2545 126.352L37.1499 127.356L40.75 127.885C40.5223 125.569 40.3178 123.37 40.2564 122.363C40.0947 119.713 35.6917 104.34 35.6917 104.34L34.1311 104.325C34.1139 104.345 34.0962 104.364 34.0767 104.381C34.028 104.423 33.9724 104.456 33.9084 104.477Z" fill="white"/>
<path d="M36.2694 135.806C36.4488 135.792 36.6252 135.778 36.7984 135.765C36.623 135.769 36.4476 135.774 36.2722 135.78L36.2694 135.806Z" fill="white"/>
<path d="M36.272 135.78C36.4476 135.774 36.6228 135.769 36.7982 135.765C39.5946 135.557 41.5277 135.511 41.5277 135.511C41.5277 135.511 41.1099 131.551 40.7495 127.885L37.1494 127.356L36.272 135.78Z" fill="white"/>
<path d="M31.5336 126.53L30.3253 126.352L30.4911 127.347L31.8937 127.14L31.5336 126.53Z" fill="white"/>
<path d="M30.1328 136.39C29.3208 136.516 28.4991 136.67 27.6982 136.88C28.5226 136.837 29.7923 136.673 31.7477 136.256C31.823 136.247 31.8978 136.238 31.9729 136.229L31.9564 136.131C31.3466 136.207 30.7383 136.293 30.1328 136.39Z" fill="white"/>
<path d="M35.7634 127.152L37.1494 127.356L37.254 126.352L35.9947 126.537L36.0326 126.887L35.7634 127.152Z" fill="white"/>
<path d="M31.9564 136.13L30.4911 127.347L28.2463 127.677C27.4017 131.876 26.1987 136.703 26.1987 136.703C26.1987 136.703 26.3645 136.949 27.6979 136.88C28.4991 136.67 29.3204 136.516 30.1324 136.39C30.7382 136.294 31.3465 136.207 31.9564 136.13Z" fill="white"/>
<path d="M31.9564 136.13L31.9728 136.228C33.5016 136.046 34.9661 135.908 36.2695 135.805L36.272 135.78C34.834 135.831 33.3912 135.951 31.9564 136.13Z" fill="white"/>
<path d="M36.272 135.78L37.1494 127.356L35.7635 127.152L33.3168 129.555L31.8937 127.14L30.4911 127.347L31.9564 136.13C33.3911 135.951 34.834 135.831 36.272 135.78Z" fill="white"/>
<path d="M35.9948 126.537L33.8261 106.553L34.6553 105.467C34.9414 105.092 34.674 104.552 34.2024 104.552H32.1824C31.8109 104.552 31.5387 104.902 31.6304 105.262L31.959 106.553L31.4497 126.387L31.5336 126.53L33.7897 126.861L35.9948 126.537Z" fill="#7DB5DB"/>
<path d="M33.7897 126.861L31.5336 126.53L31.8937 127.14L33.7897 126.861Z" fill="#7DB5DB"/>
<path d="M35.7635 127.152L36.0326 126.887L35.9947 126.537L33.7897 126.861L35.7635 127.152Z" fill="#7DB5DB"/>
<path d="M31.8937 127.14L33.3168 129.554L35.7634 127.152L33.7896 126.861L31.8937 127.14Z" fill="#7DB5DB"/>
<path d="M34.3927 103.539C34.5943 102.672 35.5534 102.281 36.0703 101.512C36.6558 100.64 36.9624 99.6232 37.0951 98.5885C37.0974 98.5708 37.0996 98.5531 37.1019 98.5355C37.0261 98.5769 36.9467 98.612 36.8638 98.6402C36.7625 98.2251 36.9571 97.803 37.0493 97.3856C37.0726 97.2803 37.0769 97.1712 37.0703 97.0611C36.3286 96.9331 35.5802 96.6579 35.0351 96.4203C33.9006 95.9254 31.691 95.3984 30.5128 95.9827C29.5813 96.4448 29.8673 97.9183 29.9141 98.8503C29.9262 99.0899 29.9447 99.3339 29.8893 99.5669C29.8325 99.8068 29.6831 99.9689 29.5898 100.171C29.6937 100.534 29.8638 100.878 30.1408 101.191C30.8873 102.033 31.6468 102.447 31.848 103.398C32.7156 103.345 33.5764 103.393 34.3927 103.539Z" fill="#B9916F"/>
<path d="M31.8809 104.295C31.9076 104.298 31.9347 104.301 31.9615 104.305L34.1306 104.325C34.2729 104.162 34.3374 103.913 34.3649 103.688C34.3712 103.637 34.3813 103.587 34.3927 103.539C33.5764 103.392 32.7156 103.345 31.8488 103.397C31.9026 103.653 31.9188 103.944 31.8809 104.295Z" fill="#B9916F"/>
<path d="M33.5091 104.488C33.6423 104.503 33.7808 104.519 33.9082 104.477C33.9724 104.456 34.0277 104.423 34.076 104.381C34.0955 104.364 34.1132 104.345 34.1303 104.326L31.9612 104.305C32.4775 104.366 32.9933 104.427 33.5091 104.488Z" fill="#EAC5B0"/>
<path d="M37.1171 97.0693C37.2159 97.5397 37.1634 98.0488 37.1017 98.5354C37.6122 98.2566 37.962 97.6958 38.171 97.1165C37.8386 97.1516 37.4795 97.1287 37.1171 97.0693Z" fill="#3B455A"/>
<path d="M37.1171 97.0694C37.1015 97.0668 37.0861 97.0636 37.0704 97.061C37.077 97.1711 37.0727 97.2802 37.0494 97.3855C36.9572 97.8029 36.7623 98.2251 36.8639 98.6402C36.9468 98.6121 37.0262 98.5768 37.102 98.5354C37.1634 98.0486 37.216 97.5395 37.1171 97.0694Z" fill="#3B455A"/>
<path d="M29.5312 97.3231C29.5466 96.954 29.5646 96.574 29.7207 96.2392C29.9947 95.6516 30.6328 95.3274 31.2525 95.135C32.8333 94.6441 34.6416 94.7651 36.0336 95.6604C36.4041 95.8988 36.7501 96.1983 36.9508 96.5901C36.9821 96.651 37.0084 96.7136 37.0321 96.777C36.9384 96.3212 36.7266 95.8672 36.7989 95.5395C36.9033 95.0671 37.5571 94.9648 37.9215 95.2254C38.1826 95.4122 38.3264 95.7443 38.3532 96.0748C38.3799 96.4053 38.3026 96.7361 38.196 97.0484C38.1881 97.0714 38.1795 97.0941 38.1712 97.1171C38.3971 97.0931 38.6109 97.0434 38.804 96.9588C39.7977 96.5235 40.6055 94.7883 40.5718 93.7202C40.5562 93.2203 40.3654 92.7734 39.9183 92.4716C39.5326 92.2115 39.0881 91.9957 38.8541 91.5821C38.6723 91.2611 38.6456 90.8637 38.4654 90.5418C38.1391 89.9587 37.4312 89.7873 36.8153 89.5896C35.2744 89.0952 34.445 88.5245 32.8129 89.1573C31.6526 89.6073 30.1534 89.6676 29.0765 90.3241C28.6267 90.5983 28.2441 91.0384 27.9302 91.529C26.8422 93.2284 26.5811 95.618 27.2895 97.3906C27.4482 97.7872 27.6497 98.1521 27.865 98.5016C28.2959 99.2002 28.7574 100.06 29.5201 100.402C29.5325 100.317 29.5582 100.242 29.5908 100.171C29.3346 99.2757 29.4928 98.2655 29.5312 97.3231Z" fill="#3B455A"/>
<path d="M29.9146 98.8503C29.8676 97.9183 29.5817 96.4447 30.5133 95.9827C31.6913 95.3984 33.9009 95.9253 35.0356 96.4202C35.5805 96.6579 36.3291 96.9331 37.0708 97.0611C37.0652 96.9669 37.0519 96.8717 37.0321 96.7765C37.0084 96.7134 36.9821 96.6508 36.9508 96.5897C36.7501 96.1978 36.4041 95.8983 36.0336 95.66C34.6416 94.7646 32.8336 94.6439 31.2525 95.1345C30.6331 95.3269 29.995 95.6514 29.7207 96.2387C29.5646 96.5735 29.5466 96.9538 29.5312 97.3227C29.4928 98.2653 29.3346 99.2753 29.5906 100.17C29.6836 99.9684 29.833 99.8063 29.8901 99.5664C29.9452 99.3338 29.9265 99.0899 29.9146 98.8503Z" fill="#3B455A"/>
<path d="M38.3527 96.074C38.3259 95.7435 38.1824 95.4115 37.9211 95.2246C37.5566 94.964 36.9028 95.0663 36.7985 95.5387C36.7262 95.8665 36.938 96.3205 37.0317 96.7762C37.0676 96.8719 37.0962 96.9694 37.1171 97.0691C37.4796 97.1287 37.8387 97.1514 38.171 97.1163C38.1794 97.0934 38.1879 97.0706 38.1958 97.0477C38.3022 96.7356 38.3798 96.4048 38.3527 96.074Z" fill="#3B455A"/>
<path d="M37.032 96.7765C37.0517 96.8717 37.0648 96.9669 37.0706 97.0611C37.0863 97.0638 37.1017 97.0669 37.1174 97.0694C37.0962 96.9697 37.0676 96.8719 37.032 96.7765Z" fill="#3B455A"/>
<path d="M235.136 100.485C234.451 101.581 234.787 102.981 235.089 104.182C235.213 104.673 235.425 105.368 234.95 105.734C234.419 106.144 233.544 105.753 233.269 105.234C233.074 104.868 233.054 104.449 233.049 104.044C233.028 102.232 233.001 99.6951 233.693 98.0152C234.248 96.6684 236.723 94.7456 238.195 96.1763C238.463 96.4361 238.572 96.8002 238.653 97.1499C238.702 97.3587 238.744 97.5749 238.701 97.7824C238.531 98.6099 237.692 98.5723 237.048 98.8429C236.253 99.177 235.573 99.7863 235.136 100.485Z" fill="#3B455A"/>
<path d="M236.704 105.689C235.582 105.172 234.863 104.048 234.65 102.901C234.437 101.753 234.669 100.583 235.038 99.4868C236.264 95.8389 241.199 97.1693 242.26 100.403C243.185 103.221 239.967 107.191 236.704 105.689Z" fill="#EAC5B0"/>
<path d="M241.502 102.068C241.402 102.525 241.479 103.068 241.398 103.544C241.247 104.42 240.715 105.452 240.78 106.316C241.671 106.469 242.878 106.262 243.696 105.876C244.531 105.481 244.695 104.556 245.118 103.72C245.508 102.948 245.937 102.182 246.151 101.343C247.32 96.7502 243.591 92.8622 238.978 93.647C237.232 93.9439 235.957 95.6943 236.657 97.3287C237.409 99.0866 240.013 99.2474 241.113 100.723C241.356 101.05 241.47 101.535 241.502 102.068Z" fill="#3B455A"/>
<path d="M236.709 105.377C236.674 105.722 236.638 106.067 236.602 106.412C236.586 106.57 236.451 106.992 236.529 107.131C236.569 107.204 236.655 107.224 236.731 107.239C236.95 107.28 238.916 107.64 238.937 107.491C238.994 107.089 239.042 106.693 239.048 106.293C239.053 105.97 239.185 105.404 239.101 105.128C238.705 105.279 238.328 105.327 237.914 105.325C237.515 105.324 237.116 105.314 236.718 105.296C236.715 105.323 236.712 105.35 236.709 105.377Z" fill="#EAC5B0"/>
<path d="M222.169 134.389L220.803 134.124L219.435 136.068L220.216 137.446L221.816 137.711L222.406 135.745L222.169 134.389Z" fill="#EAC5B0"/>
<path d="M235.04 109.975L228.785 109.928L226.795 123.859L220.792 133.787L222.458 135.707L230.396 127.733L235.04 109.975Z" fill="#305399"/>
<path d="M232.965 174.597C233.193 174.212 233.505 173.963 233.914 173.942C234.308 173.921 234.707 174.102 234.939 174.407C235.097 174.614 235.177 174.866 235.255 175.112C235.654 176.386 236.333 179.467 234.663 180.277C233.961 180.617 233.231 180.228 232.886 179.618C232.368 178.698 232.202 175.885 232.965 174.597Z" fill="#3B455A"/>
<path d="M235.992 154.968L235.772 163.057C235.827 166.653 235.196 170.258 235.251 173.854C235.264 174.68 235.471 175.555 235.245 176.371C235.024 177.169 234.355 177.302 233.677 176.886C232.768 176.33 232.935 175.063 232.797 174.134C232.417 171.584 231.964 169.044 231.565 166.496C231.369 165.247 231.839 163.507 231.762 162.244C231.762 162.244 230.529 155.445 230.529 155.445L235.992 154.968Z" fill="#EAC5B0"/>
<path d="M238.694 174.914C238.986 174.57 239.336 174.374 239.743 174.419C240.135 174.461 240.497 174.703 240.673 175.04C240.793 175.27 240.828 175.531 240.862 175.786C241.034 177.106 241.169 180.253 239.381 180.786C238.63 181.01 237.977 180.511 237.744 179.854C237.393 178.863 237.718 176.063 238.694 174.914Z" fill="#3B455A"/>
<path d="M237.134 154.951L237.599 163.03C237.654 166.625 238.394 170.21 238.448 173.805C238.461 174.632 238.28 175.512 238.531 176.321C238.776 177.112 239.449 177.224 240.114 176.789C241.005 176.205 240.799 174.943 240.91 174.011C241.212 171.45 241.588 168.898 241.909 166.339C242.067 165.084 241.544 163.359 241.583 162.095C241.583 162.094 242.61 155.262 242.61 155.262L237.134 154.951Z" fill="#EAC5B0"/>
<path d="M241.247 106.85L233.951 107.268L229.987 110.257C229.987 110.257 230.398 122.714 230.247 127.325C230.095 131.937 229.792 135.684 229.391 142.43C228.949 149.854 230.844 158.783 230.844 158.783L246.269 158.549C246.269 158.549 249.41 141.653 247.794 137.274C246.179 132.894 247.14 128.534 247.085 124.95C247.031 121.366 245.523 109.352 245.523 109.352L241.247 106.85Z" fill="#7DB5DB"/>
<path d="M244.7 107.8L248.44 110.893C248.44 110.893 246.856 124.682 246.788 126.968C246.721 129.253 247.986 136.038 247.986 136.038L242.555 135.543C242.555 135.543 240.046 131.891 239.456 127.057C238.866 122.223 242.118 106.722 242.118 106.722L244.7 107.8Z" fill="#305399"/>
<path d="M231.366 108.002L228.57 109.94C228.57 109.94 229.85 124.94 229.98 127.222C230.11 129.505 228.22 136.798 228.22 136.798L234.181 135.67C234.181 135.67 236.415 131.946 236.824 127.097C237.232 122.248 233.744 106.849 233.744 106.849L231.366 108.002Z" fill="#305399"/>
<path d="M255.799 96.1617L257.42 96.7038L259.412 94.4404L258.692 92.5709L256.786 91.9934L255.738 94.4025L255.799 96.1617Z" fill="#EAC5B0"/>
<path d="M242.194 114.142L253.1 110.633L258.582 96.0774L255.334 95.2706L248.89 106.33L242.235 107.738L242.194 114.142Z" fill="#305399"/>
<path d="M146.046 82.6468L93.6587 118.927L94.3322 119.898L146.72 83.6176L146.046 82.6468Z" fill="#BCBEC0"/>
<path d="M92.2994 48.9331L91.6763 49.9369L146.066 83.6424L146.689 82.6386L92.2994 48.9331Z" fill="#BCBEC0"/>
<path d="M45.2996 72.9649L45.1879 74.1407L146.32 83.7323L146.432 82.5564L45.2996 72.9649Z" fill="#BCBEC0"/>
<path d="M193.382 36.843L144.463 82.7081L145.272 83.5695L194.191 37.7044L193.382 36.843Z" fill="#BCBEC0"/>
<path d="M145.186 82.6326L144.541 83.6224L209.263 125.731L209.908 124.741L145.186 82.6326Z" fill="#BCBEC0"/>
<path d="M252.364 77.6888L146.361 81.1431L146.4 82.3237L252.402 78.8694L252.364 77.6888Z" fill="#BCBEC0"/>
<path d="M142.083 110.293C159.744 110.293 174.061 95.9886 174.061 78.3435C174.061 60.6984 159.744 46.3942 142.083 46.3942C124.422 46.3942 110.104 60.6984 110.104 78.3435C110.104 95.9886 124.422 110.293 142.083 110.293Z" fill="#305399"/>
<path d="M90.8416 60.8185C99.116 60.8185 105.824 54.1168 105.824 45.8498C105.824 37.5828 99.116 30.8811 90.8416 30.8811C82.5671 30.8811 75.8594 37.5828 75.8594 45.8498C75.8594 54.1168 82.5671 60.8185 90.8416 60.8185Z" fill="#7DB5DB"/>
<path d="M38.2576 72.4059C38.2576 63.0121 45.8796 55.397 55.2818 55.397C64.684 55.397 73.1857 63.0121 73.1857 72.4059C73.1857 81.7996 64.684 89.4148 55.2818 89.4148C45.8796 89.4148 38.2576 81.7996 38.2576 72.4059Z" fill="#587BC9"/>
<path d="M96.2563 132.836C103.676 132.836 109.691 126.826 109.691 119.413C109.691 112 103.676 105.99 96.2563 105.99C88.8365 105.99 82.8215 112 82.8215 119.413C82.8215 126.826 88.8365 132.836 96.2563 132.836Z" fill="#305399"/>
<path d="M193.399 53.2566C201.603 53.2566 208.254 46.6121 208.254 38.4156C208.254 30.2192 201.603 23.5747 193.399 23.5747C185.196 23.5747 178.545 30.2192 178.545 38.4156C178.545 46.6121 185.196 53.2566 193.399 53.2566Z" fill="#587BC9"/>
<path d="M209.586 139.706C218.525 139.706 225.772 132.465 225.772 123.534C225.772 114.602 218.525 107.362 209.586 107.362C200.646 107.362 193.399 114.602 193.399 123.534C193.399 132.465 200.646 139.706 209.586 139.706Z" fill="#587BC9"/>
<path d="M250.042 96.6153C260.179 96.6153 268.396 88.4052 268.396 78.2775C268.396 68.1498 260.179 59.9397 250.042 59.9397C239.905 59.9397 231.688 68.1498 231.688 78.2775C231.688 88.4052 239.905 96.6153 250.042 96.6153Z" fill="#7DB5DB"/>
<path d="M236.84 52.1132C241.846 52.1132 245.905 48.0583 245.905 43.0563C245.905 38.0543 241.846 33.9994 236.84 33.9994C231.833 33.9994 227.775 38.0543 227.775 43.0563C227.775 48.0583 231.833 52.1132 236.84 52.1132Z" fill="#305399"/>
<path d="M30.3252 46.4964C35.3317 46.4964 39.3903 42.4415 39.3903 37.4395C39.3903 32.4375 35.3317 28.3826 30.3252 28.3826C25.3187 28.3826 21.2601 32.4375 21.2601 37.4395C21.2601 42.4415 25.3187 46.4964 30.3252 46.4964Z" fill="#305399"/>
<path d="M19.5308 80.6809C25.0134 80.6809 29.4579 76.2403 29.4579 70.7627C29.4579 65.285 25.0134 60.8445 19.5308 60.8445C14.0482 60.8445 9.60364 65.285 9.60364 70.7627C9.60364 76.2403 14.0482 80.6809 19.5308 80.6809Z" fill="#7DB5DB"/>
<path d="M47.2623 128.129C53.3847 128.129 58.3479 123.17 58.3479 117.053C58.3479 110.936 53.3847 105.978 47.2623 105.978C41.1398 105.978 36.1766 110.936 36.1766 117.053C36.1766 123.17 41.1398 128.129 47.2623 128.129Z" fill="#305399"/>
<path d="M33.7316 119.948L35.4797 119.834L36.48 118.658L36.8371 118.743L36.7499 119.187L37.8599 118.448L38.9365 118.561L39.6474 119.812L39.4313 121.283L38.1126 121.857L36.4133 121.663L34.0273 121.923L33.7316 119.948Z" fill="#B9916F"/>
<path d="M34.6494 119.104L25.0933 119.356L27.0365 104.695L20.5121 111.118L19.5308 124.647L23.0447 126.559L36.0869 122.404L34.6494 119.104Z" fill="#3B455A"/>
<path d="M170.43 109.24L173.005 106.736L179.966 107.2C179.966 107.2 180.667 112.146 183.826 123.196C186.987 134.246 182.359 148.313 182.359 148.313C182.359 148.313 164.44 144.058 160.862 143.356L165.35 123.157L170.43 109.24Z" fill="#3B455A"/>
<path d="M176.16 135.844V139.783L170.903 156.855L172.217 174.583L168.931 175.24L163.674 153.572L163.875 147.197L166.302 134.195L176.16 135.844Z" fill="#3B455A"/>
<path d="M171.99 140.508L177.273 176.621H179.674L181.19 156.923L184.476 137.225L171.99 140.508Z" fill="#3B455A"/>
<path d="M169.363 174.903L166.854 177.555L167.579 178.9L172.755 176.417L171.801 174.453L169.363 174.903Z" fill="black"/>
<path d="M177.317 176.114L174.225 178.056L174.59 179.539L180.223 178.427L179.791 176.287L177.317 176.114Z" fill="black"/>
<path d="M176.192 96.5424C177.659 98.0927 180.308 98.1442 181.563 99.8766C182.379 101.003 182.359 102.62 181.747 103.905C181.462 104.504 181.046 105.061 180.48 105.399C180.113 105.618 179.696 105.738 179.277 105.8C178.718 105.883 178.149 105.857 177.602 105.737C177.509 106.233 177.461 106.738 177.459 107.243C176.481 106.859 175.183 107.18 174.204 106.796C174.425 106.233 174.963 104.966 175.184 104.403C174.977 104.192 174.788 103.963 174.625 103.713C173.642 102.204 173.605 100.104 174.532 98.5131C174.966 97.7682 175.58 97.1481 176.192 96.5424Z" fill="#B9916F"/>
<path d="M176.155 97.3786L181.546 101.238L179.097 105.81L181.466 105.974L186.309 99.2562L179.581 92.8473L175.018 91.8777L173.548 93.7379L174.572 97.9488L176.155 97.3786Z" fill="#3B455A"/>
<path d="M172.725 107.008L182.13 107.036C182.13 107.036 183.501 110.258 186.661 121.308C189.821 132.358 185.194 146.425 185.194 146.425C185.194 146.425 169.165 138.512 165.587 137.81L168.185 121.269L172.725 107.008Z" fill="white"/>
<path d="M186.779 121.544C183.619 110.494 182.13 107.036 182.13 107.036L173.018 106.695L173.005 106.735C173.179 107.187 173.36 107.636 173.516 108.094C174.136 109.9 174.594 111.76 174.875 113.649C175.369 116.969 175.421 120.383 175.315 123.734C175.213 126.948 174.881 130.157 174.31 133.323C173.554 137.508 172.349 141.586 170.796 145.533C178.071 147.01 186.633 148.756 186.633 148.756C186.633 148.756 189.939 132.594 186.779 121.544Z" fill="#3B455A"/>
<path d="M169.324 124.112C168.97 125.6 168.591 127.276 168.894 128.723C168.894 128.723 169.869 130.76 169.953 130.676C169.957 130.611 171.065 129.696 171.376 129.014C171.905 127.851 172.019 126.4 172.03 125.088C172.069 120.432 171.793 115.738 172.579 111.149C173.496 110.87 174.283 110.196 173.719 109.24C171.934 109.916 171.745 113.929 171.355 115.568C170.679 118.416 170.001 121.264 169.324 124.112Z" fill="#3B455A"/>
<path d="M109.877 114.969L110.585 113.649L108.974 111.588L107.281 111.932L106.5 113.493L107.599 114.234L107.463 114.598L107.696 115.095L109.877 114.969Z" fill="#EAC5B0"/>
<path d="M165.294 68.546C164.026 65.5486 162.209 62.8572 159.896 60.5461C157.583 58.2349 154.889 56.4202 151.889 55.1527C148.782 53.8399 145.483 53.1743 142.082 53.1743C138.682 53.1743 135.383 53.8399 132.276 55.1527C129.276 56.4205 126.582 58.2352 124.269 60.5461C121.956 62.8572 120.139 65.5488 118.871 68.546C117.557 71.65 116.89 74.9464 116.89 78.3435C116.89 81.7409 117.556 85.0373 118.871 88.141C120.139 91.1382 121.956 93.8298 124.269 96.141C126.582 98.4521 129.276 100.267 132.276 101.534C135.383 102.847 138.682 103.513 142.082 103.513C145.483 103.513 148.782 102.847 151.889 101.534C154.889 100.267 157.583 98.4521 159.896 96.141C162.209 93.8298 164.026 91.1382 165.294 88.141C166.608 85.037 167.275 81.7409 167.275 78.3435C167.275 74.9461 166.608 71.6497 165.294 68.546ZM129.838 77.5676C129.838 75.5968 130.064 73.6675 130.508 71.7967H140.815V83.7687H130.589C130.09 81.7313 129.838 79.657 129.838 77.5676ZM148.409 61.0187C150.228 63.1443 151.677 65.4594 152.714 67.8996C152.905 68.3496 153.08 68.8046 153.244 69.2634H143.35V56.3515C144.537 57.2035 146.472 58.7563 148.409 61.0187ZM140.815 56.5995V69.2634H131.256C131.413 68.8222 131.582 68.3844 131.764 67.9516C132.792 65.519 134.228 63.2099 136.032 61.0882C137.808 59.0008 139.6 57.5029 140.815 56.5995ZM140.815 86.3016V99.8924C139.609 98.847 137.87 97.1767 136.13 94.9383C134.297 92.5812 132.839 90.0779 131.795 87.4979C131.635 87.1012 131.484 86.7023 131.343 86.3016H140.815ZM143.35 100.176V86.3016H153.157C153.022 86.6866 152.878 87.0699 152.724 87.4512C151.689 90.0237 150.241 92.5206 148.422 94.8729C146.504 97.3522 144.568 99.151 143.35 100.176ZM143.35 83.7687V71.7967H153.993C154.437 73.6675 154.662 75.5968 154.662 77.5676C154.662 79.657 154.41 81.7313 153.912 83.7687H143.35ZM156.592 71.7964H163.782C164.412 73.8927 164.739 76.0927 164.739 78.3433C164.739 80.1959 164.517 82.0141 164.087 83.7685H156.516C156.969 81.7285 157.198 79.6553 157.198 77.5673C157.198 75.6026 156.993 73.6743 156.592 71.7964ZM158.103 62.337C160.134 64.3659 161.731 66.7121 162.849 69.2636H155.919C155.665 68.4677 155.376 67.6825 155.047 66.9098C153.909 64.231 152.324 61.6952 150.335 59.3727C149.307 58.1715 148.281 57.1557 147.346 56.3192C151.386 57.2749 155.094 59.3303 158.103 62.337ZM126.062 62.337C129.182 59.2192 133.054 57.1242 137.268 56.2177C136.303 57.0727 135.235 58.1228 134.165 59.3727C132.177 61.6952 130.591 64.231 129.453 66.9098C129.124 67.6825 128.835 68.468 128.581 69.2636H121.316C122.434 66.7121 124.031 64.3656 126.062 62.337ZM120.383 71.7964H127.909C127.507 73.6743 127.302 75.6024 127.302 77.5673C127.302 79.6553 127.531 81.7283 127.985 83.7685H120.078C119.648 82.0141 119.425 80.1959 119.425 78.3433C119.425 76.093 119.753 73.8927 120.383 71.7964ZM126.062 94.35C123.737 92.0272 121.981 89.2881 120.861 86.3018H128.671C128.9 87.0224 129.157 87.7383 129.444 88.4476C130.576 91.2442 132.152 93.9508 134.127 96.4922C135.418 98.1521 136.704 99.5184 137.808 100.579C133.384 99.7391 129.315 97.6004 126.062 94.35ZM158.103 94.35C154.954 97.4964 151.04 99.601 146.781 100.494C147.865 99.4459 149.117 98.1077 150.373 96.4922C152.349 93.9508 153.924 91.244 155.056 88.4476C155.343 87.7383 155.6 87.0224 155.83 86.3018H163.305C162.184 89.2881 160.428 92.0272 158.103 94.35Z" fill="white"/>
<path d="M264.104 76.277C262.58 73.7278 259.44 72.5196 256.579 73.2867C256.574 73.2882 256.569 73.2884 256.563 73.2892C255.684 73.6083 254.949 74.2285 254.633 75.2067C254.564 75.4216 254.224 75.3296 254.294 75.1132C254.633 74.0646 255.393 73.3826 256.315 73.0142C255.308 69.8453 252.24 67.6009 248.869 67.8503C245.552 68.096 242.857 70.6117 242.215 73.8386C242.494 73.9048 242.768 73.9962 243.033 74.1169C244.088 74.5969 244.907 75.4243 245.49 76.4154C245.605 76.6113 245.301 76.7883 245.186 76.5929C244.994 76.2669 244.771 75.9586 244.518 75.6771C243.579 74.632 242.237 74.0096 240.823 74.0727C239.394 74.1363 237.853 74.8991 236.891 75.9425C235.789 77.138 235.194 78.7551 235.341 80.3842C235.485 81.983 236.318 83.474 237.609 84.435C238.806 85.3264 240.199 85.7316 241.678 85.7879C242.649 85.8248 243.62 85.8387 244.591 85.8518C247.366 85.8894 250.142 85.9003 252.918 85.9074C254.137 85.9107 255.356 85.9124 256.576 85.9132C257.577 85.9139 258.631 85.994 259.618 85.8038C262.845 85.1827 265.287 82.2272 264.966 78.896C264.877 77.9723 264.581 77.0737 264.104 76.277Z" fill="white"/>
<path d="M61.5032 76.7699C60.4251 76.3379 59.238 76.5982 58.4371 77.3386L52.9138 74.2073C53.2931 73.1294 53.2024 71.9896 52.7422 71.0218L57.9582 67.5762C58.2789 67.8953 58.6676 68.1567 59.1137 68.3354C60.8916 69.0477 62.918 68.1822 63.6309 66.4058C64.3439 64.6295 63.4775 62.6049 61.6996 61.8926C59.9217 61.1803 57.8953 62.0459 57.1824 63.8222C56.8773 64.5825 56.8616 65.388 57.0828 66.117L51.7141 69.6633C51.3686 69.3618 50.9678 69.1121 50.5184 68.9321C48.3728 68.0723 45.9271 69.1172 45.0666 71.2609C44.2061 73.4046 45.2519 75.8481 47.3975 76.7078C49.0352 77.3638 50.8475 76.9106 51.9964 75.7061L57.5693 78.8654C57.2792 80.2241 58.0012 81.6386 59.3346 82.1729C60.8257 82.7703 62.525 82.0444 63.123 80.5547C63.7209 79.0654 62.9943 77.3673 61.5032 76.7699Z" fill="white"/>
<path d="M209.3 133.486C211.083 133.486 212.528 132.042 212.528 130.261C212.528 128.48 211.083 127.036 209.3 127.036C207.517 127.036 206.071 128.48 206.071 130.261C206.071 132.042 207.517 133.486 209.3 133.486Z" fill="white"/>
<path opacity="0.06" d="M211.684 128.516C211.81 128.925 211.859 129.367 211.824 129.811C211.771 130.482 211.513 131.156 211.062 131.658C210.586 132.186 209.98 132.529 209.33 132.684C209.005 132.762 208.671 132.792 208.343 132.775C208.331 132.775 208.319 132.774 208.307 132.773C208.465 132.892 208.64 132.991 208.831 133.066C210.105 133.57 211.591 132.832 212.15 131.419C212.567 130.365 212.351 129.232 211.684 128.516Z" fill="black"/>
<path d="M215.328 128.312C212.754 126.014 209.965 125.307 207.04 126.213C204.801 126.905 203.337 128.275 203.322 128.289L201.661 126.608C201.737 126.536 203.551 124.839 206.32 123.983C208.93 123.175 212.891 122.971 216.938 126.584L215.328 128.312Z" fill="white"/>
<path d="M218.032 125.761C215.962 123.904 213.765 122.752 211.504 122.336C209.713 122.007 207.86 122.134 205.996 122.714C202.765 123.719 200.64 125.718 200.619 125.738L198.954 124.061C199.056 123.963 201.511 121.655 205.273 120.485C207.517 119.787 209.762 119.637 211.945 120.037C214.651 120.534 217.242 121.88 219.646 124.037L218.032 125.761Z" fill="white"/>
<path d="M220.72 123.2C218.034 120.79 215.179 119.288 212.235 118.737C209.894 118.298 207.473 118.453 205.039 119.196C200.803 120.491 197.957 123.151 197.929 123.178L196.265 121.499C196.394 121.376 199.486 118.469 204.235 116.992C207.059 116.114 209.881 115.925 212.625 116.428C216.033 117.054 219.299 118.752 222.334 121.476L220.72 123.2Z" fill="white"/>
<path d="M155.67 101.955L154.644 99.3257L155.75 98.8386L156.851 100.484L157.267 100.011L157.871 102.368L156.79 103.029L155.67 101.955Z" fill="#B9916F"/>
<path d="M179.064 110.487L167.46 111.573L157.934 101.501L155.857 102.923L163.514 116.24L179.064 118.824V110.487Z" fill="#3B455A"/>
<path d="M102.325 111.484C101.485 110.964 100.421 110.947 99.5518 111.403C99.3572 111.505 99.1651 111.611 98.9718 111.715C97.9657 112.257 96.9598 112.799 95.9537 113.342C95.2011 113.747 94.4467 114.15 93.6956 114.558C93.0198 114.926 92.4937 115.547 92.2993 116.298C92.1103 117.029 92.2369 117.74 92.5765 118.399C92.1694 118.618 91.7623 118.837 91.3551 119.057C90.6025 119.462 89.8481 119.865 89.097 120.274C88.4212 120.641 87.895 121.263 87.7007 122.014C87.5053 122.768 87.6461 123.502 88.011 124.178C88.2741 124.666 88.5375 125.153 88.8008 125.641C89.0386 126.081 89.2547 126.558 89.5926 126.933C90.2517 127.665 91.3109 127.987 92.268 127.763C92.6372 127.676 92.9594 127.5 93.2882 127.322C95.0909 126.351 96.8939 125.379 98.6966 124.408C98.7464 124.381 98.7964 124.354 98.8462 124.327C99.7242 123.839 100.313 122.901 100.301 121.886C100.296 121.379 100.137 120.941 99.9248 120.509C100.006 120.465 100.088 120.421 100.17 120.377C101.212 119.815 102.253 119.254 103.295 118.692C103.345 118.666 103.395 118.639 103.445 118.612C104.323 118.124 104.912 117.185 104.9 116.171C104.893 115.53 104.643 115 104.348 114.454C104.067 113.933 103.785 113.411 103.504 112.89C103.204 112.335 102.879 111.827 102.325 111.484ZM100.307 112.417C100.296 112.42 100.292 112.422 100.307 112.417V112.417ZM95.7417 118.123C95.7465 118.121 95.7516 118.12 95.7574 118.118C95.8291 118.097 95.9002 118.077 95.9732 118.062C96.0093 118.054 96.046 118.05 96.0821 118.042C96.0945 118.04 96.1041 118.037 96.1119 118.035C96.1193 118.035 96.1284 118.035 96.1392 118.035C96.2305 118.034 96.3202 118.032 96.4112 118.039C96.4223 118.04 96.5027 118.051 96.5173 118.051C96.5365 118.055 96.5555 118.058 96.5744 118.063C96.6887 118.089 96.8001 118.125 96.9085 118.17C96.9103 118.17 96.9113 118.171 96.9128 118.171C96.9189 118.175 96.926 118.179 96.9346 118.184C96.9813 118.212 97.0299 118.236 97.0761 118.265C97.1107 118.286 97.2826 118.419 97.23 118.371C97.2939 118.427 97.3554 118.486 97.4127 118.55C97.4385 118.578 97.4633 118.608 97.4875 118.638C97.4835 118.635 97.5394 118.713 97.551 118.732C97.7582 119.071 97.9331 119.433 98.1216 119.783C98.1608 119.855 98.2 119.928 98.2389 120C98.2015 120.02 98.1638 120.041 98.1264 120.061C98.1057 120.072 98.085 120.083 98.0645 120.094C97.7461 120.266 97.4276 120.437 97.1092 120.609C97.0594 120.636 97.0101 120.663 96.9598 120.69C96.9015 120.72 96.8421 120.748 96.7814 120.775C96.8095 120.759 96.624 120.823 96.5866 120.832C96.5325 120.844 96.4779 120.852 96.4236 120.863C96.415 120.865 96.4081 120.867 96.4016 120.868C96.399 120.868 96.397 120.868 96.3937 120.868C96.2747 120.875 96.1589 120.867 96.0404 120.861C96.0311 120.861 96.0096 120.858 95.9952 120.856C95.956 120.848 95.9171 120.84 95.8787 120.83C95.791 120.807 95.7068 120.777 95.6219 120.746C95.6123 120.742 95.6045 120.74 95.5976 120.737C95.5908 120.733 95.5825 120.728 95.5711 120.721C95.54 120.702 95.5072 120.687 95.4761 120.669C95.4291 120.641 95.3831 120.612 95.3383 120.581C95.3176 120.567 95.2974 120.551 95.2772 120.536C95.2749 120.534 95.2731 120.533 95.2706 120.53C95.195 120.462 95.1225 120.391 95.0563 120.314C95.0437 120.299 95.0318 120.283 95.0197 120.268C95.0194 120.265 94.962 120.185 94.9552 120.173C94.9236 120.122 94.8951 120.068 94.8663 120.015C94.6658 119.645 94.4667 119.275 94.267 118.905C94.588 118.732 94.9092 118.559 95.2302 118.386C95.3217 118.337 95.4129 118.287 95.5044 118.238C95.518 118.231 95.5314 118.223 95.5453 118.216C95.6095 118.182 95.6747 118.151 95.7417 118.123ZM95.7086 118.132C95.6977 118.136 95.6937 118.137 95.7086 118.132V118.132ZM98.8321 121.098C98.8447 121.122 98.8578 121.145 98.8702 121.169C98.897 121.22 98.9205 121.273 98.9463 121.324C98.9496 121.331 98.9526 121.337 98.9551 121.342C98.9561 121.345 98.9571 121.349 98.9587 121.353C98.9961 121.469 99.0191 121.585 99.0438 121.704C99.0456 121.713 99.0479 121.731 99.0494 121.745C99.0517 121.787 99.0534 121.829 99.0532 121.87C99.0532 121.944 99.0474 122.017 99.0403 122.09C99.0388 122.093 99.0264 122.183 99.0234 122.196C99.0153 122.231 99.0062 122.266 98.9963 122.301C98.9814 122.353 98.9647 122.404 98.946 122.455C98.9384 122.475 98.9299 122.496 98.9218 122.516C98.9197 122.52 98.9172 122.525 98.9139 122.532C98.8672 122.62 98.8187 122.706 98.7615 122.789C98.7507 122.804 98.739 122.819 98.7277 122.835C98.7198 122.842 98.6635 122.909 98.6554 122.918C98.5909 122.985 98.5214 123.046 98.4507 123.106C98.4411 123.115 98.4335 123.121 98.4274 123.127C98.4206 123.131 98.4123 123.135 98.4024 123.141C98.3524 123.17 98.3038 123.201 98.2533 123.229C96.6576 124.089 95.0619 124.949 93.4661 125.809C93.1477 125.981 92.8293 126.152 92.5108 126.324C92.461 126.351 92.4115 126.378 92.3617 126.404C92.3033 126.435 92.244 126.463 92.1833 126.489C92.2114 126.474 92.0256 126.537 91.9884 126.546C91.9344 126.559 91.8795 126.566 91.8254 126.578C91.8168 126.58 91.81 126.581 91.8035 126.583C91.8009 126.583 91.7989 126.583 91.7954 126.583C91.6763 126.59 91.5606 126.581 91.4421 126.576C91.4327 126.575 91.4112 126.573 91.3968 126.571C91.3576 126.563 91.3187 126.554 91.2803 126.544C91.1926 126.522 91.1087 126.491 91.0235 126.46C91.0139 126.457 91.0061 126.454 90.9993 126.452C90.9924 126.447 90.9841 126.442 90.9727 126.435C90.9416 126.417 90.9088 126.401 90.8777 126.383C90.8307 126.356 90.7847 126.326 90.74 126.296C90.7192 126.281 90.699 126.266 90.6788 126.251C90.6768 126.249 90.6748 126.247 90.6722 126.245C90.5967 126.176 90.5241 126.106 90.4579 126.028C90.4453 126.013 90.4334 125.998 90.4213 125.983C90.421 125.979 90.3637 125.899 90.3568 125.888C90.3253 125.836 90.2967 125.783 90.2679 125.73C90.0344 125.299 89.8026 124.868 89.5701 124.437C89.3836 124.092 89.187 123.75 89.0106 123.399C88.9934 123.365 88.9785 123.329 88.9613 123.295C88.9557 123.284 88.9512 123.275 88.9474 123.268C88.9456 123.26 88.9431 123.251 88.94 123.24C88.9155 123.15 88.8893 123.061 88.8728 122.969C88.8705 122.957 88.8589 122.855 88.8574 122.86C88.8561 122.832 88.8551 122.804 88.8549 122.776C88.8544 122.731 88.8551 122.685 88.8574 122.64C88.8584 122.622 88.8736 122.493 88.8716 122.486C88.8862 122.412 88.9044 122.338 88.9269 122.267C88.9403 122.223 88.9565 122.182 88.9714 122.139C88.9754 122.128 88.9858 122.106 88.9939 122.088C89.0315 122.016 89.0707 121.944 89.1157 121.876C89.1372 121.843 89.1597 121.811 89.1829 121.78C89.1779 121.79 89.2567 121.697 89.2716 121.682C89.3358 121.616 89.4043 121.555 89.4763 121.498C89.487 121.49 89.4986 121.482 89.5052 121.478C89.5552 121.449 89.6037 121.418 89.6543 121.39C89.6659 121.383 89.6778 121.377 89.6896 121.371C89.7773 121.323 89.8653 121.276 89.953 121.229C90.3232 121.029 90.6937 120.829 91.064 120.63C91.7653 120.252 92.4666 119.874 93.1677 119.496C93.172 119.504 93.176 119.512 93.1803 119.519L93.1758 119.522L93.2139 119.593L93.2192 119.592C93.2791 119.702 93.339 119.814 93.3989 119.924C93.6367 120.365 93.8528 120.842 94.1907 121.217C94.8498 121.949 95.909 122.271 96.8661 122.046C97.2353 121.96 97.5575 121.783 97.8866 121.606C98.1641 121.457 98.4418 121.307 98.7193 121.157C98.7567 121.138 98.7944 121.118 98.8321 121.098ZM102.721 114.067C102.957 114.506 103.195 114.944 103.431 115.383C103.443 115.406 103.456 115.43 103.469 115.453C103.496 115.505 103.519 115.557 103.545 115.609C103.548 115.616 103.551 115.621 103.554 115.627C103.555 115.63 103.556 115.633 103.557 115.638C103.595 115.754 103.618 115.87 103.642 115.989C103.644 115.998 103.647 116.016 103.648 116.03C103.651 116.072 103.652 116.113 103.652 116.155C103.652 116.229 103.646 116.302 103.639 116.375C103.637 116.377 103.625 116.468 103.622 116.481C103.614 116.516 103.605 116.551 103.595 116.586C103.58 116.638 103.563 116.689 103.544 116.74C103.537 116.76 103.528 116.781 103.52 116.801C103.518 116.805 103.516 116.81 103.512 116.817C103.466 116.905 103.417 116.991 103.36 117.073C103.349 117.089 103.337 117.104 103.326 117.12C103.318 117.127 103.262 117.194 103.254 117.202C103.189 117.27 103.12 117.331 103.049 117.391C103.039 117.399 103.032 117.406 103.026 117.412C103.019 117.415 103.011 117.42 103.001 117.426C102.951 117.455 102.902 117.486 102.852 117.514C101.76 118.102 100.668 118.69 99.5768 119.279C99.4972 119.321 99.4176 119.364 99.338 119.407C99.1934 119.14 99.0491 118.872 98.9046 118.605C98.6051 118.05 98.2798 117.541 97.7261 117.199C96.8866 116.679 95.8223 116.662 94.9529 117.117C94.7583 117.219 94.5663 117.326 94.3729 117.43C94.1394 117.556 93.9061 117.681 93.6726 117.807C93.6514 117.766 93.6294 117.725 93.6087 117.684C93.5915 117.65 93.5766 117.615 93.5594 117.58C93.5538 117.569 93.5493 117.561 93.5455 117.553C93.5437 117.546 93.5412 117.536 93.5382 117.525C93.5137 117.435 93.4874 117.346 93.4709 117.255C93.4687 117.242 93.457 117.141 93.4555 117.145C93.4543 117.117 93.4533 117.089 93.453 117.061C93.4525 117.016 93.4533 116.971 93.4555 116.926C93.4565 116.907 93.4717 116.778 93.4697 116.771C93.4841 116.697 93.5025 116.624 93.525 116.552C93.5384 116.509 93.5546 116.467 93.5695 116.425C93.5736 116.413 93.5839 116.391 93.5923 116.374C93.6299 116.301 93.6691 116.23 93.7141 116.161C93.7356 116.128 93.758 116.096 93.7813 116.065C93.7762 116.075 93.8551 115.982 93.87 115.967C93.9342 115.901 94.0027 115.84 94.0747 115.783C94.0851 115.775 94.0969 115.767 94.1035 115.763C94.1536 115.734 94.2021 115.703 94.2526 115.675C94.2643 115.668 94.2761 115.662 94.288 115.656C94.3757 115.608 94.4637 115.561 94.5514 115.514C94.9218 115.314 95.2921 115.115 95.6626 114.915C96.676 114.369 97.6895 113.823 98.7029 113.277C99.078 113.074 99.4533 112.872 99.8283 112.67C99.9198 112.621 100.011 112.571 100.103 112.522C100.116 112.515 100.13 112.508 100.143 112.5C100.208 112.467 100.273 112.435 100.34 112.407C100.345 112.405 100.35 112.404 100.356 112.402C100.428 112.382 100.499 112.361 100.572 112.346C100.608 112.338 100.644 112.334 100.68 112.326C100.693 112.324 100.702 112.321 100.71 112.32C100.718 112.32 100.727 112.32 100.738 112.32C100.829 112.318 100.919 112.316 101.01 112.323C101.021 112.324 101.101 112.335 101.116 112.335C101.135 112.339 101.154 112.342 101.173 112.347C101.287 112.373 101.399 112.409 101.507 112.454C101.509 112.455 101.51 112.455 101.511 112.456C101.518 112.46 101.524 112.464 101.533 112.469C101.58 112.497 101.628 112.521 101.674 112.549C101.709 112.571 101.881 112.704 101.828 112.655C101.892 112.712 101.954 112.771 102.011 112.834C102.037 112.863 102.061 112.893 102.086 112.923C102.082 112.92 102.137 112.998 102.149 113.017C102.357 113.356 102.532 113.718 102.721 114.067Z" fill="white"/>
<path d="M95.2893 36.8825C94.7791 36.1959 94.08 35.6962 93.2683 35.4377C92.7188 35.2627 92.1654 35.2627 91.6301 35.2627H90.0723C89.3482 35.2627 88.7118 35.3998 88.1263 35.6816C87.3797 36.0409 86.7307 36.6888 86.3461 37.4589C86.0671 38.0172 85.9258 38.6298 85.9258 39.28V47.5057H87.1636V39.2391C87.1636 38.9161 87.1993 38.6954 87.3049 38.3647C87.3868 38.1081 87.5875 37.7395 87.7616 37.5256C87.9936 37.2408 88.2104 37.0554 88.5344 36.8648C88.8296 36.6911 89.123 36.5891 89.5148 36.5234C89.5312 36.5206 89.5843 36.5133 89.7175 36.5045C89.7731 36.501 89.8329 36.4992 89.9062 36.4992H92.087C92.4168 36.4992 92.64 36.5348 92.9711 36.6403C93.2281 36.7221 93.5968 36.9226 93.8106 37.0966C94.096 37.3284 94.2812 37.545 94.4723 37.8687C94.6461 38.1639 94.7482 38.4568 94.8139 38.8482C94.8167 38.8649 94.8241 38.9176 94.8329 39.0507C94.8364 39.1063 94.8382 39.1656 94.8382 39.237V47.5057H96.0761V39.2391C96.0758 38.3897 95.8039 37.5746 95.2893 36.8825Z" fill="white"/>
<path d="M84.5112 44.4141V53.3831C84.5112 54.5961 85.4956 55.5796 86.7097 55.5796H94.9736C96.1877 55.5796 97.1721 54.5961 97.1721 53.3831V44.4141H84.5112ZM91.2638 50.1615V52.3211C91.2638 52.4814 91.0768 52.6115 90.8458 52.6115H90.8375C90.6068 52.6115 90.4195 52.4814 90.4195 52.3211V50.1615C89.705 49.9749 89.1776 49.3254 89.1776 48.553C89.1776 47.635 89.9226 46.8906 90.8415 46.8906C91.7605 46.8906 92.5055 47.635 92.5055 48.553C92.5057 49.3254 91.9783 49.9749 91.2638 50.1615Z" fill="white"/>
<path d="M194.844 29.6852L194.652 28.7951C194.344 28.7557 194.032 28.7302 193.718 28.7199C193.404 28.7095 193.091 28.7146 192.781 28.7338L192.531 29.6092C192.246 30.605 190.977 30.9005 190.281 30.1331L189.667 29.4554C189.093 29.6945 188.541 29.9899 188.018 30.3389L188.24 31.2232C188.492 32.2276 187.541 33.1177 186.554 32.8005L185.686 32.5215C185.303 33.0194 184.972 33.5502 184.695 34.107L185.332 34.764C186.053 35.5081 185.674 36.7539 184.661 36.9723L183.77 37.1642C183.731 37.472 183.705 37.7834 183.695 38.0975C183.685 38.4116 183.69 38.7237 183.709 39.0335L184.585 39.2835C185.582 39.5678 185.878 40.8356 185.11 41.531L184.431 42.145C184.671 42.719 184.966 43.2702 185.316 43.7921L186.201 43.5704C187.206 43.3187 188.097 44.2691 187.779 45.2548L187.5 46.1227C187.999 46.5052 188.53 46.836 189.087 47.1122L189.745 46.4762C190.489 45.7558 191.736 46.134 191.955 47.1463L192.147 48.0364C192.455 48.0758 192.766 48.1013 193.081 48.1116C193.395 48.122 193.708 48.1169 194.018 48.0977L194.268 47.2223C194.552 46.2264 195.821 45.931 196.517 46.6984L197.132 47.3761C197.707 47.137 198.258 46.8415 198.781 46.4926L198.559 45.6083C198.307 44.6039 199.258 43.7138 200.245 44.031L201.113 44.31C201.496 43.812 201.827 43.2813 202.104 42.7245L201.467 42.0675C200.746 41.3234 201.125 40.0776 202.138 39.8592L203.029 39.6673C203.068 39.3595 203.094 39.0481 203.104 38.7343C203.114 38.4202 203.109 38.1081 203.09 37.7983L202.214 37.5483C201.217 37.264 200.921 35.9962 201.69 35.3008L202.368 34.6867C202.129 34.1128 201.833 33.5616 201.484 33.0396L200.598 33.2613C199.593 33.5131 198.702 32.5627 199.02 31.5769L199.299 30.7091C198.801 30.3265 198.27 29.9957 197.712 29.7195L197.054 30.3556C196.309 31.0757 195.063 30.6977 194.844 29.6852ZM197.372 38.5459C197.3 40.7381 195.463 42.4569 193.269 42.3849C191.074 42.313 189.354 40.4775 189.426 38.2851C189.498 36.0929 191.335 34.3738 193.529 34.4461C195.724 34.518 197.444 36.3537 197.372 38.5459Z" fill="white"/>
<path d="M54.5181 116.206C54.5181 113.38 51.2695 111.089 47.2623 111.089C43.255 111.089 40.0065 113.38 40.0065 116.206C40.0065 117.992 41.3042 119.564 43.2707 120.48L47.3232 124.979L46.6492 121.305C46.8513 121.317 47.0558 121.324 47.2623 121.324C51.2695 121.324 54.5181 119.032 54.5181 116.206ZM44.221 117C43.5869 117 43.5856 116.015 44.221 116.015C44.855 116.015 44.8563 117 44.221 117ZM50.6526 116.015C51.2867 116.015 51.2877 117 50.6526 117C50.0185 117 50.0175 116.015 50.6526 116.015ZM47.6108 116.015C48.2449 116.015 48.2459 117 47.6108 117C46.9767 117 46.9754 116.015 47.6108 116.015Z" fill="white"/>
</svg>
