<svg width="40" height="40" viewBox="0 0 40 40" fill="none" xmlns="http://www.w3.org/2000/svg">
<circle cx="20" cy="20" r="20" transform="rotate(-180 20 20)" fill="white"/>
<g clip-path="url(#clip0_203_740)">
<path d="M20 10C22.4621 10.0018 24.8366 10.9139 26.6667 12.5608V10.8333C26.6667 10.6123 26.7545 10.4004 26.9107 10.2441C27.067 10.0878 27.279 10 27.5 10C27.721 10 27.933 10.0878 28.0893 10.2441C28.2455 10.4004 28.3333 10.6123 28.3333 10.8333V13.3333C28.3333 13.9964 28.0699 14.6323 27.6011 15.1011C27.1323 15.5699 26.4964 15.8333 25.8333 15.8333H23.3333C23.1123 15.8333 22.9004 15.7455 22.7441 15.5893C22.5878 15.433 22.5 15.221 22.5 15C22.5 14.779 22.5878 14.567 22.7441 14.4107C22.9004 14.2545 23.1123 14.1667 23.3333 14.1667H25.8333C25.8614 14.1625 25.8893 14.1567 25.9167 14.1492C24.5587 12.7815 22.7682 11.9276 20.8508 11.7331C18.9333 11.5385 17.0078 12.0155 15.4029 13.0826C13.798 14.1497 12.6132 15.7407 12.0507 17.5841C11.4882 19.4275 11.5829 21.409 12.3187 23.1903C13.0545 24.9716 14.3856 26.4423 16.085 27.3515C17.7844 28.2606 19.7467 28.5517 21.6368 28.1752C23.527 27.7986 25.2278 26.7778 26.4491 25.2868C27.6704 23.7959 28.3364 21.9273 28.3333 20C28.3333 19.779 28.4211 19.567 28.5774 19.4107C28.7337 19.2545 28.9457 19.1667 29.1667 19.1667C29.3877 19.1667 29.5996 19.2545 29.7559 19.4107C29.9122 19.567 30 19.779 30 20C30 21.9778 29.4135 23.9112 28.3147 25.5557C27.2159 27.2002 25.6541 28.4819 23.8268 29.2388C21.9996 29.9957 19.9889 30.1937 18.0491 29.8079C16.1093 29.422 14.3275 28.4696 12.9289 27.0711C11.5304 25.6725 10.578 23.8907 10.1921 21.9509C9.80629 20.0111 10.0043 18.0004 10.7612 16.1732C11.5181 14.3459 12.7998 12.7841 14.4443 11.6853C16.0888 10.5865 18.0222 10 20 10V10Z" fill="#4F4F4F"/>
<path d="M17.88 21.21H16.64V18.1L15.5 18.56C15.4067 18.5133 15.32 18.4433 15.24 18.35C15.1667 18.2567 15.13 18.1333 15.13 17.98C15.13 17.6867 15.3067 17.4767 15.66 17.35L16.93 16.85H17.21C17.4167 16.85 17.58 16.91 17.7 17.03C17.82 17.15 17.88 17.3167 17.88 17.53V21.21ZM16.64 20.36H17.88V23C17.8267 23.02 17.75 23.0367 17.65 23.05C17.55 23.07 17.44 23.08 17.32 23.08C17.0867 23.08 16.9133 23.0367 16.8 22.95C16.6933 22.8633 16.64 22.7133 16.64 22.5V20.36ZM22.9802 19.96C22.9802 19.46 22.9236 19.05 22.8102 18.73C22.7036 18.41 22.5536 18.1733 22.3602 18.02C22.1736 17.8667 21.9536 17.79 21.7002 17.79C21.4602 17.79 21.2436 17.87 21.0502 18.03C20.8569 18.1833 20.7069 18.42 20.6002 18.74C20.4936 19.06 20.4402 19.4667 20.4402 19.96C20.4402 20.68 20.5502 21.2233 20.7702 21.59C20.9902 21.9567 21.3002 22.14 21.7002 22.14C22.1069 22.14 22.4202 21.9567 22.6402 21.59C22.8669 21.2233 22.9802 20.68 22.9802 19.96ZM21.7102 23.14C21.2102 23.14 20.7702 23.0233 20.3902 22.79C20.0169 22.5567 19.7236 22.2067 19.5102 21.74C19.2969 21.2667 19.1902 20.6733 19.1902 19.96C19.1902 19.2333 19.3036 18.6367 19.5302 18.17C19.7569 17.7033 20.0602 17.3567 20.4402 17.13C20.8202 16.9033 21.2436 16.79 21.7102 16.79C22.1702 16.79 22.5902 16.9033 22.9702 17.13C23.3569 17.3567 23.6636 17.7067 23.8902 18.18C24.1169 18.6467 24.2302 19.24 24.2302 19.96C24.2302 20.6667 24.1236 21.2567 23.9102 21.73C23.6969 22.1967 23.4002 22.55 23.0202 22.79C22.6402 23.0233 22.2036 23.14 21.7102 23.14Z" fill="#4F4F4F"/>
</g>
<defs>
<clipPath id="clip0_203_740">
<rect width="20" height="20" fill="white" transform="matrix(-1 0 0 1 30 10)"/>
</clipPath>
</defs>
</svg>
