<svg width="40" height="40" viewBox="0 0 40 40" fill="none" xmlns="http://www.w3.org/2000/svg">
<circle cx="20" cy="20" r="20" transform="rotate(-180 20 20)" fill="white"/>
<path d="M13.0308 27.7083C13.1606 27.7777 13.3069 27.8106 13.4539 27.8035C13.601 27.7963 13.7433 27.7494 13.8658 27.6676L23.6219 21.1635C23.7332 21.0893 23.8245 20.9887 23.8877 20.8707C23.9508 20.7527 23.9839 20.621 23.9839 20.4871C23.9839 20.3533 23.9508 20.2215 23.8877 20.1035C23.8245 19.9855 23.7332 19.8849 23.6219 19.8107L13.8658 13.3066C13.7434 13.2249 13.601 13.178 13.454 13.1709C13.307 13.1637 13.1608 13.1966 13.031 13.2661C12.9012 13.3355 12.7927 13.4389 12.7171 13.5652C12.6415 13.6914 12.6015 13.8359 12.6016 13.9831L12.6016 26.9912C12.6015 27.1384 12.6414 27.2828 12.717 27.4091C12.7926 27.5354 12.9011 27.6388 13.0308 27.7083ZM14.2276 15.5026L21.7073 20.4871L14.2276 25.4717L14.2276 15.5026Z" fill="#4F4F4F"/>
<path d="M25.6099 26.179C25.8255 26.179 26.0323 26.0933 26.1848 25.9409C26.3372 25.7884 26.4229 25.5816 26.4229 25.366L26.4229 15.6099C26.4229 15.3943 26.3372 15.1875 26.1848 15.035C26.0323 14.8825 25.8255 14.7969 25.6099 14.7969C25.3943 14.7969 25.1875 14.8825 25.035 15.035C24.8825 15.1875 24.7969 15.3943 24.7969 15.6099L24.7969 25.366C24.7969 25.5816 24.8825 25.7884 25.035 25.9409C25.1875 26.0933 25.3943 26.179 25.6099 26.179Z" fill="#4F4F4F"/>
</svg>
