<svg width="40" height="40" viewBox="0 0 40 40" fill="none" xmlns="http://www.w3.org/2000/svg">
<circle cx="20" cy="20" r="20" transform="rotate(-180 20 20)" fill="white"/>
<g clip-path="url(#clip0_203_731)">
<path d="M20 10C17.5379 10.0018 15.1634 10.9139 13.3333 12.5608V10.8333C13.3333 10.6123 13.2455 10.4004 13.0893 10.2441C12.933 10.0878 12.721 10 12.5 10C12.279 10 12.067 10.0878 11.9107 10.2441C11.7545 10.4004 11.6667 10.6123 11.6667 10.8333V13.3333C11.6667 13.9964 11.9301 14.6323 12.3989 15.1011C12.8677 15.5699 13.5036 15.8333 14.1667 15.8333H16.6667C16.8877 15.8333 17.0996 15.7455 17.2559 15.5893C17.4122 15.433 17.5 15.221 17.5 15C17.5 14.779 17.4122 14.567 17.2559 14.4107C17.0996 14.2545 16.8877 14.1667 16.6667 14.1667H14.1667C14.1386 14.1625 14.1107 14.1567 14.0833 14.1492C15.4413 12.7815 17.2318 11.9276 19.1492 11.7331C21.0667 11.5385 22.9922 12.0155 24.5971 13.0826C26.202 14.1497 27.3868 15.7407 27.9493 17.5841C28.5118 19.4275 28.4171 21.409 27.6813 23.1903C26.9455 24.9716 25.6144 26.4423 23.915 27.3515C22.2156 28.2606 20.2533 28.5517 18.3632 28.1752C16.473 27.7986 14.7722 26.7778 13.5509 25.2868C12.3296 23.7959 11.6636 21.9273 11.6667 20C11.6667 19.779 11.5789 19.567 11.4226 19.4107C11.2663 19.2545 11.0543 19.1667 10.8333 19.1667C10.6123 19.1667 10.4004 19.2545 10.2441 19.4107C10.0878 19.567 10 19.779 10 20C10 21.9778 10.5865 23.9112 11.6853 25.5557C12.7841 27.2002 14.3459 28.4819 16.1732 29.2388C18.0004 29.9957 20.0111 30.1937 21.9509 29.8079C23.8907 29.422 25.6725 28.4696 27.0711 27.0711C28.4696 25.6725 29.422 23.8907 29.8079 21.9509C30.1937 20.0111 29.9957 18.0004 29.2388 16.1732C28.4819 14.3459 27.2002 12.7841 25.5557 11.6853C23.9112 10.5865 21.9778 10 20 10V10Z" fill="#4F4F4F"/>
<path d="M17.88 21.21H16.64V18.1L15.5 18.56C15.4067 18.5133 15.32 18.4433 15.24 18.35C15.1667 18.2567 15.13 18.1333 15.13 17.98C15.13 17.6867 15.3067 17.4767 15.66 17.35L16.93 16.85H17.21C17.4167 16.85 17.58 16.91 17.7 17.03C17.82 17.15 17.88 17.3167 17.88 17.53V21.21ZM16.64 20.36H17.88V23C17.8267 23.02 17.75 23.0367 17.65 23.05C17.55 23.07 17.44 23.08 17.32 23.08C17.0867 23.08 16.9133 23.0367 16.8 22.95C16.6933 22.8633 16.64 22.7133 16.64 22.5V20.36ZM22.9802 19.96C22.9802 19.46 22.9236 19.05 22.8102 18.73C22.7036 18.41 22.5536 18.1733 22.3602 18.02C22.1736 17.8667 21.9536 17.79 21.7002 17.79C21.4602 17.79 21.2436 17.87 21.0502 18.03C20.8569 18.1833 20.7069 18.42 20.6002 18.74C20.4936 19.06 20.4402 19.4667 20.4402 19.96C20.4402 20.68 20.5502 21.2233 20.7702 21.59C20.9902 21.9567 21.3002 22.14 21.7002 22.14C22.1069 22.14 22.4202 21.9567 22.6402 21.59C22.8669 21.2233 22.9802 20.68 22.9802 19.96ZM21.7102 23.14C21.2102 23.14 20.7702 23.0233 20.3902 22.79C20.0169 22.5567 19.7236 22.2067 19.5102 21.74C19.2969 21.2667 19.1902 20.6733 19.1902 19.96C19.1902 19.2333 19.3036 18.6367 19.5302 18.17C19.7569 17.7033 20.0602 17.3567 20.4402 17.13C20.8202 16.9033 21.2436 16.79 21.7102 16.79C22.1702 16.79 22.5902 16.9033 22.9702 17.13C23.3569 17.3567 23.6636 17.7067 23.8902 18.18C24.1169 18.6467 24.2302 19.24 24.2302 19.96C24.2302 20.6667 24.1236 21.2567 23.9102 21.73C23.6969 22.1967 23.4002 22.55 23.0202 22.79C22.6402 23.0233 22.2036 23.14 21.7102 23.14Z" fill="#4F4F4F"/>
</g>
<defs>
<clipPath id="clip0_203_731">
<rect width="20" height="20" fill="white" transform="translate(10 10)"/>
</clipPath>
</defs>
</svg>
