<svg width="40" height="40" viewBox="0 0 40 40" fill="none" xmlns="http://www.w3.org/2000/svg">
<circle cx="20" cy="20" r="20" fill="white"/>
<path d="M26.9692 12.2917C26.8394 12.2223 26.6931 12.1894 26.5461 12.1965C26.399 12.2037 26.2567 12.2506 26.1342 12.3324L16.3781 18.8365C16.2668 18.9107 16.1755 19.0113 16.1123 19.1293C16.0492 19.2473 16.0161 19.379 16.0161 19.5129C16.0161 19.6467 16.0492 19.7785 16.1123 19.8965C16.1755 20.0145 16.2668 20.1151 16.3781 20.1893L26.1342 26.6934C26.2566 26.7751 26.399 26.822 26.546 26.8291C26.693 26.8363 26.8392 26.8034 26.969 26.7339C27.0988 26.6645 27.2073 26.5611 27.2829 26.4348C27.3585 26.3086 27.3985 26.1641 27.3984 26.0169L27.3984 13.0088C27.3985 12.8616 27.3586 12.7172 27.283 12.5909C27.2074 12.4646 27.0989 12.3612 26.9692 12.2917ZM25.7724 24.4974L18.2927 19.5129L25.7724 14.5283L25.7724 24.4974Z" fill="#4F4F4F"/>
<path d="M14.3901 13.821C14.1745 13.821 13.9677 13.9067 13.8152 14.0591C13.6628 14.2116 13.5771 14.4184 13.5771 14.634L13.5771 24.3901C13.5771 24.6057 13.6628 24.8125 13.8152 24.965C13.9677 25.1175 14.1745 25.2031 14.3901 25.2031C14.6057 25.2031 14.8125 25.1175 14.965 24.965C15.1175 24.8125 15.2031 24.6057 15.2031 24.3901L15.2031 14.634C15.2031 14.4184 15.1175 14.2116 14.965 14.0591C14.8125 13.9067 14.6057 13.821 14.3901 13.821Z" fill="#4F4F4F"/>
</svg>
