<svg width="24" height="21" viewBox="0 0 24 21" fill="none" xmlns="http://www.w3.org/2000/svg">
<path fill-rule="evenodd" clip-rule="evenodd" d="M0 10.2438C0 9.75885 0.393125 9.36572 0.878059 9.36572H14.927C15.4119 9.36572 15.8051 9.75885 15.8051 10.2438C15.8051 10.7287 15.4119 11.1218 14.927 11.1218H0.878059C0.393125 11.1218 0 10.7287 0 10.2438Z" fill="white"/>
<path fill-rule="evenodd" clip-rule="evenodd" d="M10.2083 5.52524C10.5512 5.18234 11.1072 5.18234 11.4501 5.52524L15.5477 9.62285C15.8906 9.96575 15.8906 10.5217 15.5477 10.8646L11.4501 14.9622C11.1072 15.3051 10.5512 15.3051 10.2083 14.9622C9.86545 14.6193 9.86545 14.0634 10.2083 13.7205L13.685 10.2437L10.2083 6.767C9.86545 6.42411 9.86545 5.86814 10.2083 5.52524V5.52524Z" fill="white"/>
<path fill-rule="evenodd" clip-rule="evenodd" d="M13.7559 1.75612C10.4603 1.75612 7.60175 3.63423 6.19502 6.38262C5.97408 6.8143 5.44502 6.98514 5.01334 6.76419C4.58165 6.54324 4.41083 6.01418 4.63177 5.5825C6.32708 2.27028 9.77564 0 13.7559 0C15.3616 0 16.8833 0.370032 18.2382 1.03028C18.6741 1.24271 18.8553 1.76832 18.6428 2.20426C18.4305 2.64018 17.9048 2.82137 17.4689 2.60894C16.3484 2.06291 15.0893 1.75612 13.7559 1.75612V1.75612ZM21.4292 4.80099C21.8491 4.55817 22.3862 4.70161 22.629 5.12138C23.5011 6.62903 23.9999 8.3796 23.9999 10.244C23.9999 15.9017 19.4136 20.4881 13.7559 20.4881C9.77564 20.4881 6.32708 18.2177 4.63177 14.9056C4.41083 14.4738 4.58165 13.9448 5.01334 13.7238C5.44502 13.5029 5.97408 13.6737 6.19502 14.1054C7.60175 16.8538 10.4603 18.7319 13.7559 18.7319C18.4437 18.7319 22.2438 14.9318 22.2438 10.244C22.2438 8.69655 21.8306 7.24827 21.1089 6.0007C20.8661 5.58094 21.0095 5.04381 21.4292 4.80099V4.80099Z" fill="white"/>
</svg>
