<svg width="10" height="14" viewBox="0 0 10 14" fill="none" xmlns="http://www.w3.org/2000/svg">
<path d="M2.0918 0.625V2.54988L7.61147 6.99935L2.0918 11.4488V13.3755L9.99991 6.99935L2.0918 0.625Z" fill="#EE4D2C"/>
<g opacity="0.3">
<path d="M1.08594 3.39844V12.3776L6.65524 7.888L1.08594 3.39844Z" fill="white"/>
<path d="M1.04688 3.37109V12.3484L6.61458 7.85884L1.04688 3.37109Z" fill="#F8F8F8"/>
<path d="M1.01758 3.33594V12.3151L6.58528 7.82551L1.01758 3.33594Z" fill="#F2F2F2"/>
<path d="M0.974609 3.3125V12.2916L6.54391 7.80207L0.974609 3.3125Z" fill="#EBEBEB"/>
<path d="M0.947266 3.28906V12.2682L6.51656 7.77863L0.947266 3.28906Z" fill="#E5E5E5"/>
<path d="M0.90625 3.25391V12.233L6.47555 7.74347L0.90625 3.25391Z" fill="#DEDEDE"/>
<path d="M0.871094 3.22656V12.2039L6.4404 7.71431L0.871094 3.22656Z" fill="#D8D8D8"/>
<path d="M0.835938 3.19922V12.1784L6.40364 7.68879L0.835938 3.19922Z" fill="#D1D1D1"/>
<path d="M0.800781 3.17188V12.151L6.36848 7.66144L0.800781 3.17188Z" fill="#CACACA"/>
<path d="M0.767578 3.14062V12.1198L6.33688 7.63019L0.767578 3.14062Z" fill="#C4C4C4"/>
<path d="M0.732666 3.11328V12.0924L6.30197 7.60285L0.732666 3.11328Z" fill="#BDBDBD"/>
<path d="M0.697266 3.08984V12.069L6.26656 7.57941L0.697266 3.08984Z" fill="#B7B7B7"/>
<path d="M0.662109 3.05469V12.0338L6.22981 7.54425L0.662109 3.05469Z" fill="#B0B0B0"/>
<path d="M0.626953 3.02734V12.0065L6.19466 7.51691L0.626953 3.02734Z" fill="#A9A9A9"/>
<path d="M0.597656 3V11.9791L6.16536 7.48957L0.597656 3Z" fill="#A3A3A3"/>
<path d="M0.558594 2.97266V11.9518L6.12789 7.46222L0.558594 2.97266Z" fill="#9C9C9C"/>
<path d="M0.523438 2.9375V11.9166L6.09274 7.42707L0.523438 2.9375Z" fill="#969696"/>
<path d="M0.488281 2.91406V11.8932L6.05758 7.40363L0.488281 2.91406Z" fill="#8F8F8F"/>
<path d="M0.458984 2.89062V11.8698L6.02668 7.38019L0.458984 2.89062Z" fill="#898989"/>
<path d="M0.419922 2.85547V11.8346L5.98762 7.34504L0.419922 2.85547Z" fill="#828282"/>
<path d="M0.388672 2.82812V11.8073L5.95797 7.31769L0.388672 2.82812Z" fill="#7B7B7B"/>
<path d="M0.349609 2.80078V11.7799L5.91891 7.29035L0.349609 2.80078Z" fill="#757575"/>
<path d="M0.3125 2.77344V11.7526L5.8818 7.263L0.3125 2.77344Z" fill="#6E6E6E"/>
<path d="M0.277344 2.73828V11.7174L5.84664 7.22785L0.277344 2.73828Z" fill="#686868"/>
<path d="M0.244141 2.71875V11.6961L5.81184 7.20832L0.244141 2.71875Z" fill="#616161"/>
<path d="M0.208984 2.69141V11.6705L5.77668 7.18097L0.208984 2.69141Z" fill="#5A5A5A"/>
<path d="M0.173828 2.65625V11.6354L5.74313 7.14582L0.173828 2.65625Z" fill="#545454"/>
<path d="M0.138672 2.62891V11.608L5.70797 7.11847L0.138672 2.62891Z" fill="#4D4D4D"/>
<path d="M0.0996094 2.60156V11.5807L5.66891 7.09113L0.0996094 2.60156Z" fill="#474747"/>
<path d="M0.0703125 2.57422V11.5515L5.63801 7.06379L0.0703125 2.57422Z" fill="#404040"/>
<path d="M0.0351562 2.54297V11.5221L5.60286 7.03254L0.0351562 2.54297Z" fill="#3A3A3A"/>
<path d="M0 2.51562V11.4948L5.5693 7.00519L0 2.51562Z" fill="#333333"/>
</g>
<path d="M0 2.50781V11.4869L5.5693 6.99738L0 2.50781Z" fill="#EE4D2C"/>
<g style="mix-blend-mode:screen">
<path d="M2.0918 0.625V2.54988L7.61147 6.99935H9.99991L2.0918 0.625Z" fill="url(#paint0_linear_3937_4350)"/>
<path d="M0 2.50781V6.99738H5.5693L2.78385 4.75351L0 2.50781Z" fill="url(#paint1_linear_3937_4350)"/>
</g>
<defs>
<linearGradient id="paint0_linear_3937_4350" x1="6.04624" y1="1.83501" x2="6.04624" y2="8.45165" gradientUnits="userSpaceOnUse">
<stop/>
<stop offset="0.217" stop-color="#030303"/>
<stop offset="0.3924" stop-color="#0D0D0D"/>
<stop offset="0.5532" stop-color="#1E1E1E"/>
<stop offset="0.7054" stop-color="#363636"/>
<stop offset="0.8514" stop-color="#555555"/>
<stop offset="0.9911" stop-color="#7A7A7A"/>
<stop offset="1" stop-color="#7D7D7D"/>
</linearGradient>
<linearGradient id="paint1_linear_3937_4350" x1="2.78419" y1="1.83305" x2="2.78419" y2="8.44968" gradientUnits="userSpaceOnUse">
<stop/>
<stop offset="0.217" stop-color="#030303"/>
<stop offset="0.3924" stop-color="#0D0D0D"/>
<stop offset="0.5532" stop-color="#1E1E1E"/>
<stop offset="0.7054" stop-color="#363636"/>
<stop offset="0.8514" stop-color="#555555"/>
<stop offset="0.9911" stop-color="#7A7A7A"/>
<stop offset="1" stop-color="#7D7D7D"/>
</linearGradient>
</defs>
</svg>
