<svg width="61" height="61" viewBox="0 0 61 61" fill="none" xmlns="http://www.w3.org/2000/svg">
<g filter="url(#filter0_d_6_115)">
<rect x="1" y="1" width="57" height="57" rx="10" fill="#A900F8"/>
</g>
<path d="M32.5304 33.1194C32.7697 33.9507 32.1697 34.8782 30.6754 35.1968L30.6738 31.5903C31.9074 32.0162 32.3327 32.4237 32.5304 33.1194Z" fill="white"/>
<path d="M29.5004 15.5627C21.862 15.5627 15.6707 21.7556 15.6707 29.3945C15.6707 37.0312 21.862 43.2241 29.5004 43.2241C37.1387 43.2241 43.33 37.0312 43.33 29.3945C43.33 21.7556 37.1392 15.5627 29.5004 15.5627ZM29.2795 39.7754H28.2037V38.3915C25.0011 38.1811 21.8746 36.843 21.4782 33.2202L26.6389 32.635C26.6389 32.635 26.6878 34.4048 28.2037 35.0658V30.914C25.1315 30.1679 22.0145 29.0721 22.1591 25.3316C22.2858 22.0043 25.1588 20.6256 28.2016 20.3286V19.0119H29.2795V39.7754ZM34.8693 37.2105C34.0254 37.7179 32.4549 38.1706 30.6761 38.3447V39.7754H29.8048V19.0114H30.6724L30.674 20.3154C33.9508 20.6036 36.3942 22.1394 36.961 24.4524L31.9453 25.28C31.9453 25.28 31.7313 24.2405 30.674 23.7384V27.0967C32.4454 27.5478 34.5449 28.1525 36.0845 29.5149C38.6173 31.7564 37.5467 35.6037 34.8693 37.2105ZM27.9046 26.2554C27.995 26.3027 28.0965 26.348 28.2016 26.3911V23.6611C26.7488 24.1648 26.5643 25.565 27.9046 26.2554Z" fill="white"/>
<path d="M44.6221 34.2738C42.5988 40.697 36.5926 45.354 29.5011 45.354C22.4095 45.354 16.4033 40.697 14.38 34.2738H9.55998C11.71 43.2944 19.8231 50 29.5011 50C39.1774 50 47.2905 43.2944 49.4405 34.2738H44.6221ZM13.646 29.4989C13.646 28.5678 13.7259 27.6571 13.8816 26.7711H9.18088C9.06152 27.6639 9 28.5735 9 29.4989C9 30.336 9.05048 31.1615 9.1488 31.9713H13.8384C13.7112 31.1657 13.646 30.3397 13.646 29.4989ZM49.8186 26.7711H45.12C45.2757 27.6571 45.3556 28.5678 45.3556 29.4989C45.3556 30.3392 45.2904 31.1652 45.1637 31.9713H49.8512C49.949 31.1615 50 30.3355 50 29.4989C50 28.5735 49.9385 27.6644 49.8186 26.7711ZM29.5005 9C19.913 9 11.8635 15.5804 9.62097 24.4707H14.461C16.5621 18.1779 22.5016 13.6444 29.5005 13.6444C36.4995 13.6444 42.439 18.1784 44.5401 24.4707H49.378C47.136 15.5809 39.0864 9 29.5005 9Z" fill="white"/>
<defs>
<filter id="filter0_d_6_115" x="0" y="0" width="61" height="61" filterUnits="userSpaceOnUse" color-interpolation-filters="sRGB">
<feFlood flood-opacity="0" result="BackgroundImageFix"/>
<feColorMatrix in="SourceAlpha" type="matrix" values="0 0 0 0 0 0 0 0 0 0 0 0 0 0 0 0 0 0 127 0" result="hardAlpha"/>
<feOffset dx="1" dy="1"/>
<feGaussianBlur stdDeviation="1"/>
<feComposite in2="hardAlpha" operator="out"/>
<feColorMatrix type="matrix" values="0 0 0 0 0 0 0 0 0 0 0 0 0 0 0 0 0 0 0.25 0"/>
<feBlend mode="normal" in2="BackgroundImageFix" result="effect1_dropShadow_6_115"/>
<feBlend mode="normal" in="SourceGraphic" in2="effect1_dropShadow_6_115" result="shape"/>
</filter>
</defs>
</svg>
