<svg width="61" height="61" viewBox="0 0 61 61" fill="none" xmlns="http://www.w3.org/2000/svg">
<g filter="url(#filter0_d_6_125)">
<rect x="1" y="1" width="57" height="57" rx="13" fill="#FF5440"/>
</g>
<path d="M44.6924 14.7861C43.3148 13.3166 41.0473 13.3444 39.6918 13.5238L39.9068 11H18.8163L19.0314 13.5238C17.6758 13.3444 15.4083 13.3159 14.0307 14.7861C12.8574 16.037 12.6851 17.9385 13.5174 20.436C15.021 24.9462 20.315 26.2248 22.8993 26.5836C24.6315 28.1029 26.8947 29.0234 29.3616 29.0234C31.8284 29.0234 34.0917 28.1029 35.8245 26.5836C38.4089 26.2248 43.7029 24.9462 45.2065 20.436C46.038 17.9385 45.8657 16.0377 44.6924 14.7861ZM16.0633 19.5881C15.5813 18.1407 15.5542 17.0885 15.9871 16.6243C16.5652 16.0042 18.2176 16.0555 19.267 16.289L19.5867 20.0445C19.6842 21.1907 19.9853 22.2714 20.4374 23.2667C18.6149 22.6502 16.7176 21.5502 16.0633 19.5881ZM33.0857 24.8187H26.4583V23.2339H28.8134V16.3047L26.6242 17.6182V15.8818L29.6136 14.0699H30.7463V23.2339H33.0857V24.8187ZM42.6592 19.5881C42.0049 21.5502 40.1076 22.6509 38.2857 23.2667C38.7385 22.2721 39.039 21.1907 39.1365 20.0445L39.4561 16.289C40.5055 16.0555 42.158 16.0049 42.7353 16.6243C43.1689 17.0885 43.1418 18.1407 42.6592 19.5881Z" fill="white"/>
<path d="M29.8024 30.1974C29.1346 30.1974 28.4761 30.1611 27.8389 30.0913V38.1448H31.7659V30.0913C31.1287 30.1604 30.4702 30.1974 29.8024 30.1974Z" fill="white"/>
<path d="M35.8233 39.4007H23.3395C22.6589 39.4007 22.0751 39.8877 21.954 40.5576L20.4191 48.9998H38.7444L37.2094 40.5576C37.0877 39.8884 36.5039 39.4007 35.8233 39.4007Z" fill="white"/>
<defs>
<filter id="filter0_d_6_125" x="0" y="0" width="61" height="61" filterUnits="userSpaceOnUse" color-interpolation-filters="sRGB">
<feFlood flood-opacity="0" result="BackgroundImageFix"/>
<feColorMatrix in="SourceAlpha" type="matrix" values="0 0 0 0 0 0 0 0 0 0 0 0 0 0 0 0 0 0 127 0" result="hardAlpha"/>
<feOffset dx="1" dy="1"/>
<feGaussianBlur stdDeviation="1"/>
<feComposite in2="hardAlpha" operator="out"/>
<feColorMatrix type="matrix" values="0 0 0 0 0 0 0 0 0 0 0 0 0 0 0 0 0 0 0.25 0"/>
<feBlend mode="normal" in2="BackgroundImageFix" result="effect1_dropShadow_6_125"/>
<feBlend mode="normal" in="SourceGraphic" in2="effect1_dropShadow_6_125" result="shape"/>
</filter>
</defs>
</svg>
