<svg width="49" height="49" viewBox="0 0 49 49" fill="none" xmlns="http://www.w3.org/2000/svg">
<circle cx="24.1393" cy="24.1393" r="24.1393" fill="white"/>
<path d="M27.9745 9.95435C28.4521 10.0866 28.8577 10.336 29.2429 10.6514C29.6798 11.0098 30.2933 10.9494 30.7483 10.5816C30.9445 10.4232 31.1502 10.2676 31.3734 10.1535C32.0356 9.81624 32.7406 10.2545 32.7457 10.9981C32.7472 11.2336 32.7327 11.4706 32.7043 11.7039C32.681 11.8937 32.7283 11.986 32.9246 12.0572C33.5409 12.2804 33.9836 12.7085 34.2533 13.3074C34.6109 14.1012 34.4735 14.8252 33.9305 15.4873C33.8688 15.5622 33.8019 15.6327 33.7183 15.7272C33.964 15.8035 34.1886 15.8653 34.4074 15.9416C35.0209 16.1553 35.5893 16.4497 36.0523 16.9171C36.1221 16.9876 36.1904 17.0632 36.2406 17.1475C36.3598 17.3474 36.3118 17.5938 36.1388 17.7363C35.9593 17.8839 35.707 17.8955 35.5442 17.7218C34.7148 16.8364 33.6209 16.6271 32.4521 16.4839C32.5001 16.5464 32.5197 16.5842 32.5495 16.6089C35.2128 18.839 36.8613 21.6992 37.7663 25.0203C38.1006 26.2488 38.3245 27.4961 38.3085 28.7754C38.2911 30.1143 38.0192 31.3863 37.2378 32.5057C36.2973 33.8541 34.9554 34.5715 33.3781 34.8717C32.8119 34.9793 32.2267 35.0244 31.6496 35.0302C29.6005 35.0483 27.5507 35.0382 25.5009 35.036C25.3846 35.036 25.2618 35.0316 25.1535 34.9953C24.926 34.9182 24.8308 34.7394 24.8613 34.5046C24.8904 34.2793 25.0285 34.1477 25.2524 34.1172C25.3505 34.1041 25.4515 34.1099 25.5511 34.1099C27.6278 34.1099 29.7045 34.1136 31.7812 34.1078C32.7428 34.1049 33.6725 33.9304 34.5549 33.5335C36.1243 32.8277 36.9958 31.5949 37.2785 29.9224C37.5293 28.4425 37.3083 26.9945 36.9464 25.5619C36.2231 22.7016 34.9322 20.1444 32.7872 18.0845C32.1119 17.4361 31.3145 16.9149 30.5731 16.3363C30.3819 16.1873 30.1864 16.1335 29.9553 16.2658C29.8433 16.3298 29.7067 16.3516 29.5533 16.4025C29.956 16.779 30.3434 17.133 30.7207 17.4979C30.9278 17.6978 30.9373 17.9645 30.7679 18.1557C30.5898 18.3563 30.3194 18.3636 30.0883 18.1724C30.0323 18.1259 29.9814 18.0743 29.9284 18.0249C29.4246 17.5546 28.9224 17.0828 28.4157 16.6147C28.3423 16.5471 28.2515 16.4984 28.0974 16.3923C28.0974 16.7768 28.0974 17.0799 28.0974 17.3838C28.0974 17.5379 28.1024 17.6927 28.0937 17.8461C28.0792 18.1172 27.9047 18.3018 27.6598 18.3156C27.4075 18.3294 27.1909 18.1455 27.1764 17.8664C27.1582 17.5226 27.1699 17.1773 27.1684 16.8328C27.1677 16.7179 27.1684 16.6031 27.1684 16.4112C27.0259 16.505 26.9336 16.5486 26.8617 16.6155C26.3216 17.1134 25.7873 17.6178 25.248 18.1165C24.9776 18.3672 24.705 18.381 24.5088 18.1637C24.3118 17.9456 24.3503 17.6869 24.6236 17.4303C24.9783 17.0966 25.3352 16.7652 25.7096 16.4163C25.4828 16.3356 25.2938 16.252 25.0961 16.2048C25.0168 16.1859 24.9078 16.2273 24.83 16.2724C23.3639 17.1192 22.1566 18.256 21.1259 19.5898C21.0648 19.6691 21.0096 19.7534 20.9405 19.8239C20.7653 20.0049 20.5153 20.0245 20.3249 19.8813C20.1235 19.7294 20.0675 19.4699 20.226 19.254C20.4724 18.9182 20.7457 18.602 21.0001 18.272C21.0575 18.1979 21.1215 18.1019 21.1222 18.0154C21.1295 17.0269 21.1251 16.0383 21.123 15.0498C21.123 15.0352 21.1062 15.0214 21.0924 14.9981C19.4199 15.7228 17.743 15.7308 16.0443 14.9858C16.0443 16.1001 16.0443 17.1984 16.0443 18.2887C16.4811 18.36 16.9107 18.413 17.3323 18.5039C17.8418 18.6136 18.3172 18.8135 18.725 19.1493C19.087 19.4474 19.2789 19.8181 19.2767 20.3044C19.2665 22.4719 19.2723 24.6402 19.2723 26.8077C19.2723 26.9146 19.2723 27.0222 19.2723 27.1479C19.4904 27.1479 19.6867 27.1501 19.8822 27.1479C20.753 27.137 21.6063 27.2388 22.387 27.6502C22.6698 27.7992 22.9525 27.9984 23.148 28.2448C23.316 28.4563 23.4402 28.7659 23.4432 29.0334C23.4671 31.0193 23.4562 33.0058 23.4562 34.9924C23.4562 35.4932 23.1946 35.8486 22.8151 36.1314C22.2387 36.561 21.5671 36.7441 20.8686 36.8357C19.6656 36.9935 18.4982 36.8852 17.397 36.3037C16.8177 37.3802 15.7891 37.636 14.7083 37.7727C13.6572 37.9057 12.6265 37.8105 11.6445 37.3831C11.0942 37.1439 10.6559 36.7834 10.4531 36.191C10.4531 35.2657 10.4531 34.3404 10.4531 33.415C10.6596 32.8132 11.1109 32.4592 11.6699 32.215C11.7775 32.1677 11.8851 32.1089 11.9985 32.0892C12.2674 32.0442 12.3139 31.893 12.3139 31.6393C12.3045 27.9031 12.3161 24.1677 12.3001 20.4316C12.2972 19.7657 12.5727 19.3064 13.1099 18.9684C13.6252 18.6442 14.1958 18.4697 14.794 18.3992C15.0375 18.3709 15.1001 18.2836 15.0979 18.0459C15.0862 16.6402 15.0993 15.2351 15.0884 13.8293C15.0848 13.3249 15.276 12.9244 15.6707 12.6343C15.9091 12.4592 16.1722 12.3029 16.4462 12.1946C17.466 11.7897 18.5266 11.7367 19.6016 11.8951C20.2529 11.9911 20.8758 12.1757 21.4152 12.5733C21.8418 12.8873 22.0744 13.2907 22.0628 13.8453C22.0417 14.8426 22.057 15.8399 22.057 16.8379C22.057 16.9295 22.057 17.021 22.057 17.1177C22.7752 16.574 23.4577 16.0565 24.1424 15.5375C22.9293 14.2858 22.5375 12.7267 22.5091 11.0374C22.496 10.2466 23.2178 9.80606 23.92 10.1797C24.1257 10.2894 24.3147 10.4355 24.4964 10.5838C24.9507 10.9538 25.5635 11.0156 26.001 10.6587C26.3856 10.3447 26.7904 10.0939 27.2673 9.95943C27.5035 9.95435 27.739 9.95435 27.9745 9.95435ZM13.2531 21.4826C13.2531 24.9455 13.2531 28.3683 13.2531 31.8152C14.3783 31.7018 15.4504 31.837 16.492 32.3531C16.492 32.2157 16.492 32.127 16.492 32.0391C16.492 31.1145 16.5196 30.1884 16.4833 29.2653C16.4557 28.5573 16.7741 28.0885 17.3483 27.7563C17.5816 27.6211 17.8338 27.5121 18.0897 27.427C18.2794 27.3638 18.3536 27.286 18.3521 27.0723C18.3419 25.2958 18.3463 23.5186 18.3456 21.7421C18.3456 21.6636 18.3383 21.5851 18.3332 21.4841C16.6345 22.2313 14.951 22.2277 13.2531 21.4826ZM17.4188 30.2844C17.4188 31.7709 17.4471 33.2043 17.4043 34.6347C17.3883 35.1785 17.6325 35.4336 18.0701 35.6139C18.7795 35.9068 19.5231 35.9955 20.2812 35.9533C20.9267 35.9177 21.5598 35.8094 22.1333 35.4808C22.3943 35.3318 22.5404 35.1392 22.536 34.8056C22.5193 33.4005 22.5287 31.9947 22.5287 30.5889C22.5287 30.5017 22.5287 30.4152 22.5287 30.2873C21.6957 30.6791 20.8591 30.8586 19.9752 30.8586C19.0921 30.8593 18.254 30.6849 17.4188 30.2844ZM23.4621 10.9582C23.3799 12.0805 23.7608 13.495 24.3641 14.3483C24.6977 14.8208 25.0888 15.2358 25.6616 15.4168C25.8397 15.4735 26.0308 15.491 26.2758 15.5375C26.1915 15.3754 26.1391 15.2911 26.1013 15.2009C25.8455 14.5838 25.5809 13.9689 25.3432 13.3445C25.2451 13.0857 25.3919 12.8473 25.6441 12.7652C25.8775 12.6896 26.1101 12.8044 26.214 13.0523C26.2453 13.1272 26.2562 13.2108 26.2903 13.2842C26.6102 13.9616 26.9198 14.6442 27.2614 15.3107C27.4264 15.6327 27.8161 15.6225 28.0123 15.3194C28.447 14.6463 28.7843 13.9282 29.019 13.1613C29.1223 12.8248 29.3519 12.6823 29.6209 12.7645C29.9058 12.8517 30.0127 13.1003 29.9 13.4492C29.8084 13.7334 29.7147 14.0176 29.5962 14.2909C29.421 14.6958 29.224 15.0912 29.0249 15.5157C29.1521 15.5019 29.2596 15.4975 29.3643 15.4772C29.9393 15.3652 30.3565 15.0127 30.7119 14.5744C31.3065 13.8417 31.5973 12.9825 31.7274 12.0637C31.7775 11.7134 31.7913 11.3579 31.8284 10.924C31.622 11.0766 31.4875 11.1661 31.3639 11.2685C30.4895 11.9983 29.3708 11.9976 28.5109 11.2635C27.912 10.7517 27.329 10.751 26.7345 11.262C25.8869 11.9903 24.7639 11.9991 23.9025 11.2867C23.7746 11.1799 23.6343 11.0854 23.4621 10.9582ZM19.9643 28.0703C19.2702 28.0703 18.592 28.1619 17.961 28.4679C17.7292 28.5806 17.4348 28.6969 17.4362 28.9956C17.4377 29.2937 17.727 29.4238 17.9632 29.5219C19.2956 30.075 20.6374 30.0736 21.972 29.527C22.2118 29.4289 22.5011 29.2966 22.5091 29.0065C22.5186 28.6947 22.2111 28.577 21.9698 28.4614C21.3367 28.1583 20.6585 28.0696 19.9643 28.0703ZM15.7579 21.1773C16.3612 21.0589 16.9252 20.9731 17.4733 20.8284C17.7263 20.7616 17.9676 20.6038 18.1813 20.4432C18.411 20.2702 18.4103 20.0768 18.1842 19.9017C17.9872 19.749 17.7619 19.6145 17.5278 19.531C16.5087 19.1675 15.4649 19.1486 14.4255 19.4212C14.0824 19.5113 13.7481 19.6771 13.4464 19.866C13.1607 20.0449 13.1724 20.2702 13.442 20.4803C13.6041 20.606 13.7888 20.731 13.9828 20.7812C14.5752 20.9338 15.1771 21.0501 15.7579 21.1773ZM13.932 34.5635C14.7206 34.5642 15.4664 34.4378 15.9578 34.155C16.1627 34.0373 16.4244 33.8425 16.4608 33.6462C16.5131 33.3642 16.1926 33.2188 15.9556 33.1192C14.6152 32.5566 13.2654 32.5581 11.9236 33.1148C11.6859 33.2137 11.3966 33.3453 11.3988 33.6426C11.401 33.9391 11.6946 34.0554 11.928 34.1681C12.5596 34.4734 13.2371 34.5642 13.932 34.5635ZM18.5753 14.578C18.7475 14.578 18.9213 14.5926 19.0913 14.5751C19.7266 14.5119 20.3517 14.4021 20.8853 14.0176C21.2102 13.7835 21.2073 13.564 20.8918 13.3256C20.7842 13.2442 20.6672 13.1679 20.5429 13.1184C19.2287 12.5987 17.9102 12.5973 16.6003 13.1279C16.3546 13.2275 16.0494 13.3532 16.0464 13.6651C16.0435 13.9783 16.3517 14.091 16.5931 14.2066C17.2182 14.5075 17.8891 14.5933 18.5753 14.578ZM11.3806 34.9451C11.3806 35.2497 11.3937 35.5223 11.377 35.7919C11.361 36.0405 11.4671 36.2121 11.6634 36.3349C11.808 36.4258 11.9599 36.5108 12.1184 36.5733C12.8751 36.8699 13.663 36.9382 14.4662 36.8655C15.0375 36.8139 15.6009 36.7114 16.0944 36.4025C16.2522 36.3037 16.4411 36.1379 16.4702 35.9766C16.5284 35.6487 16.4877 35.3027 16.4877 34.9488C14.7759 35.6924 13.0946 35.696 11.3806 34.9451ZM31.1939 15.435C31.9411 15.7308 33.0881 15.2925 33.4188 14.6013C33.7263 13.9573 33.224 13.0298 32.5073 12.9411C32.2849 13.8809 31.843 14.711 31.1939 15.435Z" fill="#E18392"/>
<path d="M28.0934 23.8676C29.2622 24.0276 29.9491 24.7363 29.9491 25.7452C29.9483 26.7512 29.2782 27.4417 28.0926 27.6205C28.0926 27.7557 28.097 27.8974 28.0919 28.0385C28.0803 28.335 27.9145 28.5138 27.6507 28.5226C27.3774 28.5313 27.1862 28.3467 27.168 28.0465C27.16 27.9113 27.1666 27.7753 27.1666 27.6263C26.9972 27.5943 26.8373 27.574 26.6832 27.5333C25.9302 27.3356 25.3726 26.6603 25.316 25.884C25.2905 25.5424 25.4482 25.3156 25.7295 25.2909C26.0247 25.2647 26.2006 25.4362 26.2405 25.7895C26.2994 26.3165 26.6607 26.661 27.152 26.6465C27.152 26.0432 27.152 25.4399 27.152 24.8387C25.9651 24.6381 25.2905 23.9272 25.313 22.9125C25.3305 22.1297 25.8945 21.1862 27.1666 21.0895C27.1666 20.9521 27.1608 20.8104 27.168 20.6694C27.1833 20.3655 27.3672 20.1773 27.6383 20.1795C27.9131 20.1816 28.0832 20.3655 28.0934 20.6781C28.0977 20.8118 28.0941 20.9456 28.0941 21.0423C28.3994 21.136 28.6814 21.1833 28.9264 21.3054C29.5398 21.61 29.8837 22.1202 29.9418 22.8079C29.9731 23.1735 29.8299 23.3799 29.5478 23.4112C29.2484 23.4439 29.063 23.2629 29.0194 22.8951C28.9671 22.4502 28.7039 22.1428 28.294 22.0504C28.2424 22.0388 28.1878 22.0432 28.0941 22.0374C28.0941 22.3536 28.0941 22.6581 28.0941 22.9619C28.0934 23.26 28.0934 23.5573 28.0934 23.8676ZM28.1115 24.83C28.1115 25.4471 28.1115 26.0483 28.1115 26.6487C28.6145 26.6559 29.0005 26.2816 29.0187 25.7888C29.0383 25.2538 28.6785 24.8649 28.1115 24.83ZM27.1499 23.8742C27.1499 23.2512 27.1499 22.6501 27.1499 22.0483C26.6389 22.0584 26.2485 22.4488 26.2391 22.9423C26.2296 23.4424 26.6112 23.8407 27.1499 23.8742Z" fill="#E18392"/>
<path d="M36.4548 29.1382C36.3894 31.2221 35.0163 32.7602 32.9295 33.0822C32.6438 33.1265 32.356 33.1665 32.0681 33.1847C31.6749 33.2101 31.4365 33.0277 31.4277 32.7224C31.419 32.4346 31.6414 32.2383 32.0194 32.2267C32.6227 32.2085 33.202 32.0944 33.7567 31.8545C34.8768 31.3697 35.3572 30.4524 35.4859 29.2981C35.4932 29.2356 35.4895 29.1709 35.4924 29.1076C35.5113 28.7369 35.7076 28.5072 35.9947 28.5174C36.2862 28.529 36.4665 28.7718 36.4548 29.1382Z" fill="#E18392"/>
</svg>
