<svg width="16" height="16" viewBox="0 0 16 16" fill="none" xmlns="http://www.w3.org/2000/svg">
<path d="M8 16C3.58878 16 0 12.4112 0 8C0 3.58878 3.58878 0 8 0C12.4112 0 16 3.58878 16 8C16 12.4112 12.4112 16 8 16Z" fill="#FAFF00"/>
<path d="M16 8C16 3.58878 12.4112 0 8 0V16C12.4112 16 16 12.4112 16 8Z" fill="#FFD400"/>
<path d="M8 14.0938C4.63991 14.0938 1.90625 11.3601 1.90625 8C1.90625 4.63991 4.63991 1.90625 8 1.90625C11.3601 1.90625 14.0938 4.63991 14.0938 8C14.0938 11.3601 11.3601 14.0938 8 14.0938Z" fill="#FFD400"/>
<path d="M14.0938 8C14.0938 4.63991 11.3601 1.90625 8 1.90625V14.0938C11.3601 14.0938 14.0938 11.3601 14.0938 8Z" fill="#FF9F00"/>
<path d="M9.3793 7.09877L8.36602 5.83217C8.17836 5.59761 7.82161 5.59761 7.63395 5.83217L6.62067 7.09877L5.08461 6.33073C4.73573 6.1563 4.33883 6.45942 4.41533 6.84192L5.04033 9.96692C5.08417 10.186 5.27655 10.3437 5.49998 10.3437H10.5C10.7234 10.3437 10.9158 10.186 10.9596 9.96692L11.5846 6.84192C11.6611 6.45942 11.2643 6.1563 10.9154 6.33073L9.3793 7.09877Z" fill="#FAFF00"/>
<path d="M10.5 10.3438C10.7234 10.3438 10.9158 10.186 10.9597 9.96694L11.5847 6.84194C11.6612 6.45944 11.2643 6.15631 10.9154 6.33075L9.37931 7.09878L8.36603 5.83219C8.27222 5.71491 8.13609 5.65625 8 5.65625V10.3438H10.5Z" fill="#FFD400"/>
</svg>
