<svg width="30" height="30" viewBox="0 0 30 30" fill="none" xmlns="http://www.w3.org/2000/svg">
<path d="M0 29.3547C0 19.7846 0 10.2146 0 0.644514C0.13984 0.354678 0.353898 0.13984 0.642953 0C5.59439 0 10.545 0 15.4965 0C15.4926 0.0187495 15.4848 0.0382787 15.4848 0.0570282C15.484 2.65305 15.4801 5.24908 15.491 7.84511C15.4918 8.01698 15.573 8.20838 15.6707 8.35525C15.8746 8.66306 16.2043 8.71227 16.5496 8.71149C18.9651 8.70837 21.3807 8.70993 23.797 8.70993C23.9095 8.70993 24.0228 8.70993 24.1377 8.70993C24.1377 10.8427 24.1377 12.934 24.1377 14.9668C23.4127 15.0152 22.708 15.0113 22.0197 15.116C16.2074 15.9988 13.1153 22.6432 16.159 27.6774C16.7003 28.5719 17.3972 29.325 18.187 29.9984C12.3395 29.9984 6.49124 29.9984 0.643735 29.9984C0.35468 29.8594 0.140621 29.6438 0 29.3547ZM8.9193 11.8356C10.3904 11.8356 11.8606 11.8364 13.3317 11.8356C13.9309 11.8348 14.3246 11.4903 14.3293 10.9653C14.334 10.4294 13.9364 10.0794 13.32 10.0779C12.6481 10.0771 11.9763 10.0779 11.3036 10.0779C9.03414 10.0779 6.76467 10.0802 4.4952 10.0755C4.09989 10.0747 3.78818 10.2083 3.60537 10.5693C3.29991 11.1716 3.7374 11.8317 4.44832 11.8341C5.93891 11.8388 7.42949 11.8356 8.9193 11.8356ZM8.9193 15.9371C10.3904 15.9371 11.8606 15.9379 13.3317 15.9371C13.9309 15.9363 14.3246 15.5918 14.3293 15.0668C14.334 14.5309 13.9364 14.1809 13.32 14.1801C12.6286 14.1793 11.9372 14.1801 11.245 14.1801C8.99508 14.1801 6.74514 14.1824 4.4952 14.1778C4.09989 14.177 3.78896 14.3106 3.60537 14.6715C3.29991 15.2746 3.7374 15.934 4.44832 15.9363C5.93891 15.9402 7.42949 15.9371 8.9193 15.9371ZM6.84357 20.0385C7.65136 20.0385 8.45994 20.0417 9.26773 20.0378C9.81068 20.0354 10.2044 19.6675 10.2107 19.169C10.2169 18.6628 9.81381 18.2831 9.25601 18.2823C7.65918 18.28 6.06234 18.28 4.46551 18.2823C3.9038 18.2831 3.50616 18.655 3.50928 19.1659C3.51241 19.6753 3.91084 20.037 4.47645 20.0385C5.26627 20.0401 6.05453 20.0385 6.84357 20.0385Z" fill="#EE4D2C"/>
<path d="M22.7476 29.9973C22.1273 29.8403 21.486 29.7403 20.8914 29.5153C18.2306 28.5052 16.4712 25.6584 16.7423 22.8671C17.0392 19.8093 19.2352 17.3695 22.1422 16.868C25.8507 16.2274 29.26 18.657 29.867 22.3733C30.4607 26.006 27.803 29.52 24.1421 29.945C24.0664 29.9536 23.9921 29.9802 23.9171 29.9981C23.5273 29.9973 23.1375 29.9973 22.7476 29.9973ZM22.5437 23.9295C22.1031 23.4874 21.6797 23.0585 21.2524 22.6343C20.8368 22.2218 20.293 22.1905 19.9305 22.5538C19.5626 22.9217 19.593 23.4553 20.0118 23.878C20.6086 24.4795 21.2086 25.0787 21.8086 25.6771C22.307 26.1748 22.7773 26.1748 23.2765 25.6748C24.3992 24.5514 25.5202 23.4272 26.6421 22.3022C26.7038 22.2405 26.7663 22.1772 26.8179 22.1069C27.0382 21.803 27.0444 21.4015 26.8389 21.0921C26.6382 20.789 26.2491 20.6273 25.8913 20.7491C25.7069 20.8124 25.5296 20.9398 25.389 21.0788C24.4398 22.0171 23.5023 22.9663 22.5437 23.9295Z" fill="#EE4D2C"/>
<path d="M17.252 6.93264C17.252 4.81317 17.252 2.71166 17.252 0.652344C19.3378 2.74291 21.4362 4.84598 23.5174 6.93264C21.4776 6.93264 19.3824 6.93264 17.252 6.93264Z" fill="#EE4D2C"/>
</svg>
