<svg width="25" height="33" viewBox="0 0 25 33" fill="none" xmlns="http://www.w3.org/2000/svg">
<path d="M15.802 19.0477C15.7917 19.1949 15.7861 19.2998 15.7767 19.4039C15.7223 20.0056 15.9164 20.5136 16.4506 20.8023C17.1152 21.1613 17.8041 21.4819 18.5024 21.7715C20.2654 22.5035 22.005 23.2674 23.47 24.5346C24.7898 25.6763 25.2097 27.1207 24.906 28.7994C24.7719 29.5426 24.3033 30.0769 23.6969 30.4968C22.7155 31.1754 21.5945 31.4997 20.4463 31.7359C18.0637 32.2252 15.6464 32.3114 13.2244 32.3189C10.9327 32.3264 8.64104 32.333 6.36247 32.0218C4.9584 31.8296 3.57026 31.57 2.27772 30.9598C1.29825 30.4977 0.449993 29.8707 0.151932 28.7675C-0.215489 27.4065 0.0844455 26.1749 1.04143 25.1242C1.81564 24.2741 2.76605 23.647 3.76896 23.1175C5.09899 22.4154 6.46464 21.7827 7.81435 21.1191C8.07585 20.9907 8.34861 20.8764 8.58856 20.7142C9.30278 20.2315 9.52772 19.4207 9.135 18.6503C8.9466 18.2791 8.68416 17.9417 8.43015 17.609C7.16105 15.9481 6.24531 14.1269 5.94631 12.0386C5.70074 10.3252 5.73823 8.62682 6.45995 7.01467C7.44786 4.80827 9.18655 3.61227 11.5654 3.3114C12.8148 3.153 14.0455 3.23829 15.2218 3.70226C17.4601 4.58519 18.6533 6.31732 19.09 8.61651C19.5175 10.866 19.1097 13.0087 18.164 15.0651C18.1096 15.1823 17.9718 15.3013 17.8491 15.3388C17.5154 15.44 17.1695 15.5113 16.8246 15.5647C16.7149 15.5816 16.5903 15.5066 16.4722 15.4738C16.1169 15.3754 15.7664 15.231 15.4046 15.1898C14.9781 15.1401 14.5404 15.171 14.1083 15.1804C13.0145 15.2038 12.1606 16.0624 12.1672 17.1253C12.1737 18.177 13.0154 19.0243 14.0914 19.0468C14.6482 19.0571 15.2068 19.0477 15.802 19.0477Z" fill="#F3A625"/>
<path d="M23.6491 12.9226C23.6491 13.4606 23.6556 13.9986 23.6481 14.5366C23.6303 15.8516 22.4006 16.6465 21.1849 16.1441C21.0715 16.0972 20.885 16.0963 20.7894 16.16C19.5287 16.9895 18.1218 17.3729 16.6456 17.5622C16.4928 17.5819 16.3531 17.7019 16.206 17.7703C15.9501 17.8903 15.7008 18.074 15.4327 18.1086C14.9959 18.1658 14.546 18.133 14.1018 18.1208C13.5516 18.1058 13.141 17.7075 13.111 17.1807C13.0801 16.6399 13.4222 16.1806 13.9743 16.1309C14.5076 16.0831 15.0484 16.1038 15.5846 16.1272C15.7467 16.1347 15.9501 16.2125 16.0541 16.3296C16.2575 16.5593 16.4731 16.5546 16.7403 16.518C17.9222 16.355 19.0432 16.0232 20.0658 15.3933C20.2345 15.2892 20.2898 15.1965 20.2486 14.9753C20.1858 14.635 20.2036 14.2779 20.2008 13.9274C20.1961 13.0735 20.2073 12.2196 20.197 11.3667C20.1886 10.7077 20.4304 10.1922 20.9759 9.80886C21.0612 9.74888 21.1165 9.57829 21.1081 9.46394C20.8231 5.68194 17.9109 2.42014 14.1936 1.70873C9.53055 0.816423 5.10932 3.71174 4.05861 8.34762C4.00987 8.5632 3.9855 8.78534 3.93676 9.00091C3.84022 9.43113 3.84959 9.777 4.29855 10.0666C4.6566 10.2972 4.79157 10.7377 4.79251 11.1811C4.79532 12.3386 4.80938 13.4971 4.7897 14.6538C4.77376 15.5798 4.04454 16.2734 3.11662 16.2912C2.17651 16.309 1.38824 15.6295 1.36012 14.6987C1.32451 13.5187 1.33763 12.3368 1.35825 11.1558C1.36856 10.5971 1.65162 10.1641 2.1034 9.82855C2.21213 9.747 2.31054 9.57923 2.31992 9.44519C2.62922 4.84962 6.1919 0.90453 10.7265 0.14813C16.2604 -0.775109 21.3405 2.70227 22.5018 8.2089C22.5431 8.40292 22.5796 8.59881 22.5984 8.79658C22.6452 9.29991 22.6593 9.77512 23.1786 10.1116C23.5488 10.3506 23.6425 10.8258 23.6472 11.2739C23.6528 11.8241 23.6491 12.3733 23.6491 12.9226Z" fill="#F3A625"/>
</svg>
