<svg width="30" height="31" viewBox="0 0 30 31" fill="none" xmlns="http://www.w3.org/2000/svg">
<path d="M29.9193 13.8301C29.9193 18.9668 29.9193 24.1035 29.9193 29.2402C29.8027 29.6311 29.5467 29.882 29.1602 30.0015C19.6761 30.0015 10.192 30.0015 0.708577 30.0015C0.162123 29.769 -0.00217874 29.3465 2.17494e-05 28.7678C0.0139582 23.9209 0.00735564 19.0732 0.00808914 14.2262C0.00808914 13.4869 0.363835 13.1289 1.0944 13.1267C2.1543 13.1238 3.2142 13.1209 4.27411 13.1179C5.09562 13.1179 5.91641 13.1179 6.73792 13.1172C6.82521 13.1201 6.91249 13.126 6.99978 13.126C12.3096 13.1267 17.6186 13.1267 22.9284 13.126C23.0157 13.126 23.103 13.1201 23.1902 13.1172C24.011 13.1172 24.8325 13.1172 25.6533 13.1179C26.6648 13.1209 27.6778 13.1443 28.6885 13.1187C29.2665 13.104 29.6876 13.2815 29.9193 13.8301ZM11.2225 23.1301C11.3369 23.279 11.3971 23.3553 11.4558 23.4331C12.0448 24.2216 12.6345 25.0108 13.2235 25.8001C13.4479 26.1008 13.7325 26.2871 14.1206 26.2387C14.8739 26.1448 15.2017 25.3512 14.7426 24.716C14.246 24.0287 13.7296 23.3553 13.222 22.6761C12.9968 22.3746 12.9983 22.3768 13.3497 22.2125C13.4633 22.159 13.5734 22.0945 13.6805 22.0277C14.6443 21.427 15.1526 20.191 14.8937 19.0798C14.6281 17.9385 13.6709 17.0597 12.5531 16.9218C11.8541 16.836 11.1528 16.8903 10.4523 16.8808C9.71518 16.8712 9.3565 17.235 9.35577 17.97C9.3543 19.3174 9.35503 20.6649 9.35577 22.0123C9.35577 23.0861 9.35797 24.1607 9.3543 25.2345C9.35283 25.6042 9.48193 25.9035 9.7966 26.1045C10.4127 26.4976 11.202 26.0649 11.2188 25.3138C11.235 24.6147 11.2225 23.9143 11.2225 23.1301ZM16.8338 21.5502C16.8338 22.7898 16.8294 24.0287 16.8352 25.2683C16.8382 25.8544 17.224 26.2424 17.8042 26.249C18.4174 26.2563 19.0306 26.2592 19.6431 26.2468C20.1726 26.2358 20.5702 25.8235 20.5695 25.3123C20.5687 24.8018 20.1712 24.3984 19.6409 24.3793C19.3885 24.3705 19.1347 24.3705 18.8824 24.3793C18.7438 24.3844 18.6976 24.3404 18.6998 24.1989C18.7071 23.6913 18.7071 23.1837 18.6998 22.6768C18.6976 22.5323 18.7482 22.4935 18.8846 22.4979C19.1369 22.5067 19.3907 22.5067 19.6431 22.4979C20.1726 22.4788 20.5702 22.0739 20.5702 21.5634C20.5702 21.0529 20.1726 20.6487 19.6423 20.6297C19.39 20.6209 19.1362 20.6209 18.8839 20.6297C18.7467 20.6348 18.6954 20.593 18.7005 20.45C18.71 20.1573 18.7012 19.8646 18.7042 19.572C18.7071 19.3101 18.6154 18.961 18.7475 18.8091C18.9008 18.6323 19.2587 18.7717 19.5264 18.7512C19.536 18.7504 19.5462 18.7512 19.5558 18.7512C20.1528 18.7431 20.5709 18.358 20.5709 17.8145C20.5709 17.2717 20.1528 16.883 19.5565 16.8786C19.002 16.8749 18.4475 16.8756 17.8929 16.8778C17.2005 16.8808 16.8374 17.2482 16.836 17.9495C16.8323 19.1502 16.8338 20.3502 16.8338 21.5502ZM22.4421 21.5333C22.4421 22.7729 22.4384 24.0118 22.4435 25.2514C22.4457 25.858 22.8264 26.2438 23.4242 26.2504C24.0272 26.257 24.6308 26.2592 25.2338 26.249C25.781 26.2394 26.1844 25.8243 26.177 25.302C26.1697 24.7915 25.7707 24.3969 25.236 24.3808C24.9829 24.3727 24.7299 24.3742 24.4775 24.3808C24.3558 24.3837 24.3052 24.35 24.3074 24.2179C24.314 23.7008 24.3132 23.1837 24.3074 22.6666C24.3059 22.5382 24.3477 22.4964 24.4746 22.5001C24.7277 22.5074 24.9807 22.5074 25.233 22.5001C25.7802 22.4839 26.1844 22.0754 26.177 21.5531C26.1704 21.0426 25.7714 20.6473 25.2374 20.6311C24.9844 20.6231 24.7313 20.6245 24.479 20.6311C24.358 20.6341 24.3059 20.6025 24.3074 20.469C24.314 19.9519 24.3132 19.4348 24.3074 18.9177C24.3059 18.7908 24.3455 18.746 24.4739 18.7504C24.7071 18.7585 24.9411 18.7556 25.1744 18.7519C25.7663 18.7438 26.1844 18.3478 26.1778 17.8042C26.1712 17.2724 25.7582 16.8859 25.1802 16.8808C24.6257 16.8756 24.0712 16.8786 23.5167 16.88C22.8037 16.8822 22.4435 17.2446 22.4428 17.9634C22.4413 19.1524 22.4421 20.3429 22.4421 21.5333ZM3.74672 21.5539C3.74672 22.7737 3.74452 23.9935 3.74746 25.2133C3.74892 25.8316 4.13914 26.2563 4.69147 26.2497C5.23205 26.2438 5.61053 25.8243 5.6142 25.2213C5.61787 24.5678 5.61347 23.9135 5.61567 23.26C5.6164 23.0179 5.53939 22.704 5.66041 22.5536C5.78951 22.393 6.11591 22.5206 6.35503 22.5023C6.42251 22.4971 6.49146 22.503 6.55895 22.5001C7.08706 22.4759 7.48462 22.071 7.48241 21.5605C7.48021 21.05 7.08193 20.6487 6.55088 20.6304C6.29856 20.6216 6.04476 20.6209 5.79244 20.6304C5.65014 20.6355 5.60907 20.5849 5.61274 20.447C5.62154 20.1353 5.61274 19.8228 5.6164 19.5103C5.61934 19.2683 5.53718 18.9441 5.65968 18.8055C5.80418 18.6426 6.13425 18.7688 6.38364 18.7512C6.42251 18.7482 6.4614 18.7512 6.50027 18.7504C7.0724 18.738 7.48462 18.3433 7.48315 17.8108C7.48095 17.2783 7.06873 16.8844 6.4944 16.8786C5.93987 16.8727 5.38535 16.8764 4.83083 16.8778C4.11347 16.8793 3.74965 17.2394 3.74819 17.9531C3.74599 19.1531 3.74672 20.3539 3.74672 21.5539Z" fill="#FF9F00"/>
<path d="M15.3734 0C15.8869 0.16577 16.4018 0.324205 16.8089 0.708557C17.6011 1.45599 17.9179 2.35819 17.6766 3.43056C17.6304 3.63668 17.6641 3.77091 17.7976 3.92714C20.3722 6.92641 22.9409 9.93081 25.5111 12.9337C25.561 12.9924 25.6065 13.0555 25.6541 13.1164C24.8333 13.1164 24.0118 13.1164 23.191 13.1156C23.1815 13.0988 23.1742 13.0804 23.1617 13.0658C20.9612 10.4949 18.7593 7.92616 16.5639 5.35159C16.4436 5.21002 16.3637 5.2335 16.225 5.30465C15.3874 5.73301 14.5417 5.73227 13.7047 5.30538C13.5448 5.22396 13.4627 5.23423 13.3453 5.37359C12.5913 6.26846 11.8255 7.15379 11.0656 8.04352C9.6221 9.7335 8.18004 11.4249 6.73725 13.1164C5.91574 13.1164 5.09422 13.1171 4.27344 13.1171C5.70082 11.4433 7.12747 9.76871 8.55632 8.09633C9.75779 6.68949 10.9615 5.28484 12.1666 3.88093C12.2531 3.78044 12.3214 3.68949 12.2766 3.54425C11.8277 2.08753 12.7615 0.43423 14.3773 0.0638142C14.4228 0.0535453 14.4764 0.0579462 14.4962 0.000733513C14.7888 1.68048e-08 15.0808 0 15.3734 0ZM14.9627 1.87702C14.4544 1.87775 14.0348 2.29658 14.0311 2.80636C14.0282 3.31614 14.4426 3.74083 14.9509 3.74743C15.471 3.75477 15.9016 3.32421 15.8972 2.80342C15.892 2.29438 15.471 1.87628 14.9627 1.87702Z" fill="#FF9F00"/>
<path d="M11.2239 19.7399C11.2239 19.6394 11.2143 19.5881 11.2253 19.5426C11.2891 19.2822 11.0486 18.8531 11.3493 18.7747C12.228 18.5443 12.8639 18.8326 13.0481 19.4172C13.2212 19.9673 12.85 20.5424 12.2735 20.6194C12.264 20.6209 12.2544 20.6216 12.2441 20.6216C11.9163 20.6179 11.507 20.7302 11.284 20.5747C11.0867 20.4368 11.2517 19.9945 11.2239 19.7399Z" fill="#FF9F00"/>
</svg>
