<svg width="33" height="31" viewBox="0 0 33 31" fill="none" xmlns="http://www.w3.org/2000/svg">
<path d="M32.4217 7.46403C32.3617 7.76267 32.3092 8.06215 32.2415 8.35825C31.5208 11.5054 28.6131 13.7659 25.4406 13.6483C22.0769 13.5239 19.3477 11.1111 18.857 7.82781C18.2327 3.64942 21.5498 -0.106813 25.7688 0.00232072C29.1308 0.0886126 31.9268 2.61307 32.3642 5.95561C32.3752 6.03683 32.4031 6.11635 32.4226 6.19672C32.4217 6.61972 32.4217 7.04188 32.4217 7.46403ZM24.9643 8.72288C24.8188 7.73898 25.0074 7.42934 25.7688 7.35151C26.7036 7.25591 27.3872 6.4759 27.3542 5.54023C27.3221 4.62147 26.5649 3.87869 25.6284 3.85754C25.2384 3.84823 24.8475 3.85161 24.4575 3.85669C24.0811 3.86177 23.8509 4.07157 23.8518 4.39728C23.8526 4.72215 24.0819 4.92773 24.4617 4.9328C24.8416 4.93788 25.2215 4.92434 25.6013 4.93872C25.9879 4.95311 26.2688 5.24075 26.2756 5.6003C26.2815 5.94716 26.0252 6.22549 25.6529 6.2754C25.548 6.28894 25.4431 6.29824 25.339 6.31347C24.5337 6.43022 23.9169 7.07741 23.8628 7.8921C23.8349 8.31257 23.8442 8.73557 23.8492 9.15772C23.8552 9.61456 24.0497 9.79983 24.5176 9.80237C25.2451 9.80575 25.9735 9.80575 26.702 9.80237C27.0996 9.80068 27.35 9.59172 27.3559 9.26939C27.3627 8.93268 27.1131 8.72626 26.6893 8.72457C26.1191 8.72118 25.5514 8.72288 24.9643 8.72288Z" fill="#DD3B94"/>
<path d="M13.6401 6.8289C13.6375 10.5936 10.5648 13.6637 6.81031 13.6536C3.04984 13.6426 -0.00844248 10.5674 1.75096e-05 6.8069C0.0084775 3.06251 3.07438 0.0016927 6.81623 6.99801e-07C10.5775 -0.0016913 13.6417 3.06505 13.6401 6.8289ZM6.25956 4.93132C6.25956 6.21047 6.25956 7.44902 6.25956 8.72394C6.03537 8.72394 5.82726 8.71717 5.61999 8.72563C5.2909 8.73832 5.07009 8.95574 5.0684 9.25438C5.06671 9.54794 5.2892 9.79159 5.61237 9.79666C6.41353 9.80851 7.21385 9.80851 8.01501 9.79751C8.36271 9.79328 8.57929 9.55556 8.56829 9.23831C8.55814 8.93375 8.34579 8.73578 8.0057 8.72478C7.79928 8.71802 7.59201 8.72394 7.35766 8.72394C7.35766 8.56574 7.35766 8.45153 7.35766 8.33816C7.35766 7.05224 7.3602 5.76632 7.35597 4.48125C7.35428 4.05656 7.15886 3.86198 6.73924 3.85691C6.36024 3.85183 5.98038 3.84676 5.60137 3.86029C5.28243 3.87214 5.05994 4.11494 5.0684 4.41104C5.07686 4.69529 5.29344 4.91525 5.59969 4.93132C5.8078 4.94063 6.0176 4.93132 6.25956 4.93132Z" fill="#DD3B94"/>
<path d="M23.0376 23.1859C23.0283 26.9421 19.9412 30.0156 16.1918 30.0012C12.4364 29.9868 9.36456 26.8939 9.38487 23.1469C9.40517 19.4 12.4753 16.3443 16.2155 16.3477C19.9708 16.351 23.0469 19.4347 23.0376 23.1859ZM17.5775 23.1766C17.5792 23.1664 17.5784 23.1546 17.5834 23.1461C17.6063 23.1106 17.63 23.0767 17.6553 23.0429C18.0953 22.4541 18.1587 21.8213 17.833 21.1699C17.5056 20.5142 16.9472 20.2046 16.2188 20.1995C15.8703 20.197 15.5226 20.1961 15.174 20.1995C14.7756 20.2037 14.526 20.4118 14.5218 20.7359C14.5175 21.0607 14.7663 21.2739 15.1622 21.2773C15.5099 21.2807 15.8584 21.2722 16.207 21.2798C16.6435 21.2891 16.9396 21.5573 16.9523 21.9397C16.965 22.3272 16.6604 22.614 16.2104 22.6343C16.042 22.6419 15.872 22.63 15.7045 22.6453C15.4075 22.6732 15.2096 22.8813 15.2003 23.1571C15.1909 23.4304 15.3788 23.6605 15.6698 23.7019C15.8458 23.7265 16.0276 23.7146 16.2061 23.7197C16.6571 23.7341 16.9625 24.0158 16.9523 24.4049C16.9413 24.789 16.6444 25.0589 16.2104 25.0665C15.8415 25.0733 15.4718 25.0631 15.103 25.0699C14.7586 25.0767 14.5201 25.3042 14.5218 25.608C14.5235 25.9117 14.7612 26.1376 15.1072 26.1435C15.5293 26.1511 15.9515 26.1587 16.3728 26.1401C16.921 26.1156 17.3635 25.8711 17.6858 25.4244C18.1824 24.7366 18.1477 24.0556 17.5775 23.1766Z" fill="#DD3B94"/>
<path d="M16.2202 7.36288C15.9783 7.36288 15.7363 7.37219 15.4952 7.36034C15.1509 7.34427 14.9453 7.14546 14.9377 6.84175C14.9301 6.53634 15.1298 6.30284 15.4622 6.291C15.9656 6.27239 16.4715 6.27239 16.9749 6.29354C17.2947 6.30623 17.485 6.53126 17.4859 6.82482C17.4867 7.13023 17.2828 7.33243 16.9453 7.36119C16.9241 7.36288 16.903 7.36373 16.8827 7.36373C16.6619 7.36373 16.4411 7.36373 16.2202 7.36373C16.2202 7.36373 16.2202 7.36372 16.2202 7.36288Z" fill="#DD3B94"/>
<path d="M21.1729 13.8712C21.6534 13.8644 21.9309 14.2637 21.7583 14.6275C21.579 15.0065 21.3607 15.3703 21.1348 15.7248C20.9792 15.9684 20.6746 16.0192 20.436 15.8821C20.1966 15.7442 20.085 15.4566 20.2152 15.2002C20.4056 14.8255 20.612 14.4566 20.8447 14.1064C20.9267 13.9812 21.1035 13.9177 21.1729 13.8712Z" fill="#DD3B94"/>
</svg>
