<svg width="30" height="30" viewBox="0 0 30 30" fill="none" xmlns="http://www.w3.org/2000/svg">
<path d="M29.9993 11.7731C29.8061 12.219 29.5111 12.5359 28.9822 12.4764C28.7983 12.4553 28.6059 12.3708 28.4486 12.2683C27.4933 11.6447 26.5434 11.0141 25.6006 10.3717C25.2235 10.1143 24.8252 9.9954 24.3675 9.99696C22.0265 10.0064 19.6847 10.0032 17.3437 10.0001C16.1192 9.99853 15.2343 9.28809 15.0333 8.14732C15.0051 7.98536 15.0035 7.81715 15.0035 7.65205C15.0012 5.88692 15.002 4.121 15.0027 2.35586C15.0035 1.14233 15.5833 0.377129 16.7491 0.046948C16.7749 0.0399062 16.7953 0.0156484 16.8187 0C20.6064 0 24.3949 0 28.1826 0C28.6888 0.158831 29.1903 0.351308 29.4916 0.809023C29.7059 1.13451 29.8327 1.51711 29.9978 1.87389C29.9994 5.17413 29.9993 8.47359 29.9993 11.7731Z" fill="#4465EA"/>
<path d="M29.9995 29.2828C29.7694 29.8133 29.3665 29.9964 28.7914 29.994C24.9865 29.9784 21.1816 29.9862 17.3775 29.9854C16.6029 29.9854 16.2461 29.6334 16.2492 28.8619C16.2516 28.189 16.2172 27.5122 16.2821 26.8448C16.455 25.0687 17.8696 23.7605 19.6551 23.741C21.9672 23.7151 24.2792 23.7183 26.5912 23.7402C28.2531 23.7558 29.5934 24.8942 29.9384 26.5185C29.9517 26.5827 29.9791 26.6437 29.9995 26.7063C29.9995 27.5646 29.9995 28.4237 29.9995 29.2828Z" fill="#4465EA"/>
<path d="M13.1294 2.52807C13.1294 2.95136 13.1294 3.34022 13.1294 3.72908C13.1294 4.9387 13.1599 6.14988 13.1223 7.35794C13.0668 9.12777 13.7483 10.4759 15.3053 11.3952C14.8217 11.932 14.2334 12.2676 13.5425 12.4108C13.2491 12.471 12.9424 12.4875 12.6419 12.4883C10.3291 12.4945 8.01705 12.4953 5.70422 12.4883C5.22851 12.4867 4.81069 12.6048 4.41479 12.8756C3.48136 13.5148 2.52994 14.1266 1.59182 14.7573C1.24208 14.9928 0.885301 15.0914 0.496439 14.8746C0.123225 14.6665 0.00508081 14.3293 0.00586323 13.9154C0.0113402 10.8718 0.00742711 7.82739 0.00977437 4.78378C0.0105568 3.44663 0.929117 2.51086 2.26471 2.50773C5.74803 2.50069 9.23136 2.50538 12.7155 2.50616C12.8391 2.50616 12.9643 2.51946 13.1294 2.52807Z" fill="#4465EA"/>
<path d="M6.86075 29.986C4.93913 29.986 3.01673 29.9868 1.09511 29.986C0.374499 29.986 0.0051981 29.6245 0.00989262 28.9125C0.0153695 28.1716 -0.0386162 27.422 0.0599685 26.6928C0.293129 24.9637 1.70618 23.7509 3.44862 23.7384C5.73172 23.7227 8.01482 23.7228 10.2971 23.7376C12.2438 23.7501 13.7312 25.25 13.7578 27.1975C13.7656 27.7827 13.764 28.368 13.7578 28.9532C13.7507 29.612 13.3736 29.9844 12.714 29.9852C10.7627 29.9876 8.81132 29.986 6.86075 29.986Z" fill="#4465EA"/>
<path d="M10.6246 18.7462C10.6238 20.8142 8.95174 22.4901 6.88616 22.4924C4.81588 22.4948 3.11568 20.7915 3.12898 18.7267C3.14228 16.6626 4.82527 14.993 6.89085 14.9961C8.95565 14.9984 10.6253 16.6752 10.6246 18.7462Z" fill="#4465EA"/>
<path d="M19.3848 18.7407C19.3863 16.6697 21.056 14.9969 23.1232 14.9961C25.1966 14.9953 26.8944 16.6963 26.8803 18.7611C26.8663 20.8243 25.1794 22.4971 23.1185 22.4924C21.0537 22.4878 19.3832 20.8087 19.3848 18.7407Z" fill="#4465EA"/>
</svg>
