<svg width="34" height="34" viewBox="0 0 34 34" fill="none" xmlns="http://www.w3.org/2000/svg">
<path d="M21.7633 33.6443C21.3885 33.5194 20.9512 33.4569 20.5764 33.2695C18.0776 32.2076 16.8907 29.4589 17.9527 26.8977C17.9527 26.8352 18.0152 26.7728 18.0152 26.7103C15.8912 25.0861 13.7673 23.5244 11.6433 21.9002C10.0816 23.337 8.27002 24.0241 6.14608 23.8367C4.33449 23.6493 2.83525 22.8997 1.64834 21.5254C-0.600535 18.9017 -0.538077 15.0286 1.77327 12.4674C4.14708 9.9062 8.51991 9.28151 11.6433 12.2175C13.7673 10.5934 15.8912 9.03164 17.9527 7.40745C16.6408 4.34648 18.39 1.84773 20.2016 0.973163C22.3255 -0.0888064 24.9492 0.59835 26.3235 2.53488C27.6978 4.47141 27.4479 7.15757 25.7613 8.84423C24.0746 10.4684 21.326 10.8432 19.1396 8.96917C17.0157 10.5934 14.8917 12.2175 12.7678 13.8417C13.9547 16.2155 13.7673 18.3395 12.7678 20.3385C14.8917 21.9627 17.0157 23.5869 19.1396 25.2111C19.8892 24.5864 20.7013 24.2116 21.6384 24.0241C24.0746 23.6493 26.5109 25.2735 27.0731 27.6473C27.7603 30.4584 25.9487 33.1446 23.1376 33.6443C23.0751 33.6443 23.0127 33.7068 23.0127 33.7068C22.6378 33.6443 22.2006 33.6443 21.7633 33.6443Z" fill="#FF9F00"/>
<path d="M33.2572 17.7145C33.1323 18.1518 33.0698 18.5266 32.9449 18.9639C32.0703 21.5251 29.634 23.0868 26.9479 22.8994C24.3867 22.712 22.1378 20.6506 21.7005 18.0893C21.1383 14.841 23.3872 11.7175 26.6355 11.2802C29.8215 10.843 32.7575 13.0294 33.2572 16.2153C33.2572 16.2778 33.3197 16.3402 33.3197 16.4027C33.2572 16.84 33.2572 17.2773 33.2572 17.7145ZM24.0743 18.9014C25.8234 17.1523 27.5726 15.4032 29.3217 13.6541C27.8849 12.7795 25.9484 13.0294 24.699 14.2788C23.4496 15.5906 23.1998 17.4647 24.0743 18.9014ZM30.7585 15.1533C29.0093 16.9024 27.2602 18.6516 25.5111 20.4007C26.8229 21.2753 28.822 21.0878 30.0713 19.8385C31.4456 18.5891 31.6955 16.5901 30.7585 15.1533Z" fill="#FF9F00"/>
</svg>
