<svg width="16" height="16" viewBox="0 0 16 16" fill="none" xmlns="http://www.w3.org/2000/svg">
<path d="M16 8C16 8.71219 15.9069 9.4025 15.7322 10.0597C15.5953 10.5747 13.2203 9.94213 12.9887 10.4109C12.6159 11.1659 12.6763 11.9625 12.095 12.5597C11.9166 12.7435 11.7291 12.9188 11.5334 13.0847C11.3322 13.2553 12.7615 14.4347 12.544 14.585C11.2534 15.4772 9.6875 16 8 16C6.3125 16 4.74656 15.4772 3.45594 14.585C3.23844 14.4347 3.02844 14.2734 2.82719 14.1028C2.63156 13.9369 2.44406 13.7616 2.26562 13.5778C1.68438 12.9806 1.19625 12.2934 0.823438 11.5384C0.591563 11.0697 0.404687 10.575 0.267812 10.0597C0.093125 9.4025 0 8.71219 0 8C0 7.28781 0.093125 6.5975 0.267812 5.94031C0.484688 5.12437 0.827188 4.35938 1.27344 3.66812C1.38 3.50312 1.49219 3.34219 1.61031 3.18594C3.07031 1.25094 5.38906 0 8 0C10.6109 0 12.9297 1.25094 14.3897 3.18594C14.5078 3.34219 14.62 3.50312 14.7266 3.66812C15.1728 4.35938 15.5153 5.12437 15.7322 5.94031C15.9069 6.5975 16 7.28781 16 8Z" fill="#A9D9F7"/>
<path d="M14.984 4.47891V10.0595C14.559 11.6595 14.3988 13.0623 13.1728 14.1027C12.9716 14.2733 12.7616 14.4345 12.5441 14.5848H10.0591V14.6783C10.0591 14.9877 9.80813 15.2386 9.49876 15.2386H6.50126C6.19188 15.2386 5.94095 14.9877 5.94095 14.6783V14.5848H1.07876C0.630947 14.5848 0.267822 14.2217 0.267822 13.7739V4.47891C0.267822 4.03109 0.630947 3.66797 1.07876 3.66797H14.9213C15.3691 3.66797 14.984 4.03109 14.984 4.47891Z" fill="#FE7D43"/>
<path d="M15.7322 3.99697V10.0598C15.6125 10.5107 15.4541 10.946 15.2613 11.362C15.26 11.3648 15.2588 11.3676 15.2572 11.3704C15.1781 11.5401 14.1182 11.1292 14.0279 11.292C13.8138 11.6792 14.5434 12.6242 14.27 12.9685C13.9425 13.3817 13.5747 13.7617 13.1728 14.1029H1.07876C0.630947 14.1029 0.267822 13.7398 0.267822 13.292V3.99697C0.267822 3.54916 0.630947 3.18604 1.07876 3.18604H14.9213C15.0425 3.18604 15.1578 3.21291 15.2613 3.26072C15.5394 3.38916 15.7322 3.67072 15.7322 3.99697Z" fill="#FE9738"/>
<path d="M14.7263 11.2916C14.4745 11.8015 14.6205 12.5272 14.2702 12.9686C14.1019 13.1807 13.923 13.384 13.7344 13.5778H1.27377C0.978457 13.5778 0.73877 13.3381 0.73877 13.0428V11.8269C0.73877 11.7206 0.769707 11.6216 0.823457 11.5384C0.918144 11.39 1.08471 11.2916 1.27377 11.2916H14.7263C14.6309 11.1431 14.9156 11.2916 14.7263 11.2916Z" fill="#FE7D43"/>
<path d="M1.51399 8.97119H5.79567C7.01311 8.97119 8.00005 9.36919 8.00005 9.86019V13.5778C7.70105 13.214 6.8578 12.9685 5.90764 12.9685H1.51399H1.42227C1.0448 12.9685 0.73877 12.6625 0.73877 12.285V9.28382C0.73877 9.11116 1.08586 8.97119 1.51399 8.97119Z" fill="#E1EDFD"/>
<path d="M15.2613 9.284V11.3618C14.9941 11.9378 14.6606 12.4765 14.27 12.9684H10.0925C10.0103 12.9684 9.92906 12.9703 9.84875 12.974C9.46469 12.9912 9.10531 13.0484 8.80219 13.1368C8.435 13.2437 8.14938 13.3959 8 13.5778V9.86025C8 9.41807 8.80031 9.05119 9.84875 8.98275C9.92844 8.97744 10.01 8.974 10.0925 8.97213C10.1294 8.9715 10.1669 8.97119 10.2044 8.97119H14.4859C14.9144 8.97119 15.2613 9.11119 15.2613 9.284Z" fill="#E1EDFD"/>
<path d="M1.51399 2.15527H5.79567C7.01311 2.15527 8.00005 3.14221 8.00005 4.35965V13.5779C7.70105 12.676 6.8578 12.0671 5.90764 12.0671H1.51399C1.08586 12.0671 0.73877 11.7201 0.73877 11.2919V2.93049C0.73877 2.50234 1.08586 2.15527 1.51399 2.15527Z" fill="#F6F8F9"/>
<path d="M1.22083 2.93013V11.2915C1.22083 11.7198 1.56786 12.0668 1.99618 12.0668H1.51411C1.08583 12.0668 0.73877 11.7198 0.73877 11.2915V2.93013C0.73877 2.50185 1.0858 2.15479 1.51411 2.15479H1.99618C1.56789 2.15479 1.22083 2.50185 1.22083 2.93013Z" fill="#E1EDFD"/>
<path d="M15.2613 2.9301V11.2914C15.2613 11.3179 15.26 11.3442 15.2572 11.3701C15.1781 11.5398 15.0934 11.7064 15.0031 11.8692C14.8659 11.9923 14.6847 12.067 14.4859 12.067H10.0925C10.0103 12.067 9.92906 12.0714 9.84875 12.0804C9.46469 12.1229 9.10531 12.2651 8.80219 12.4839C8.435 12.7489 8.14938 13.1267 8 13.5776V4.35916C8 3.92791 8.12375 3.52541 8.33813 3.18572C8.66813 2.66166 9.21281 2.28666 9.84875 2.18354C9.92844 2.17041 10.01 2.16166 10.0925 2.1576C10.1294 2.15572 10.1669 2.15479 10.2044 2.15479H14.4859C14.9144 2.15479 15.2613 2.50197 15.2613 2.9301Z" fill="#F6F8F9"/>
<path d="M13.8574 3.82851H10.1612C10.0114 3.82851 9.89001 3.7071 9.89001 3.55732C9.89001 3.40754 10.0114 3.28613 10.1612 3.28613H13.8574C14.0072 3.28613 14.1286 3.40754 14.1286 3.55732C14.1286 3.7071 14.0072 3.82851 13.8574 3.82851Z" fill="#D5DCF8"/>
<path d="M13.8574 4.92665H10.1612C10.0114 4.92665 9.89001 4.80525 9.89001 4.65547C9.89001 4.50568 10.0114 4.38428 10.1612 4.38428H13.8574C14.0072 4.38428 14.1286 4.50568 14.1286 4.65547C14.1286 4.80525 14.0072 4.92665 13.8574 4.92665Z" fill="#D5DCF8"/>
<path d="M13.8574 9.85488H10.1612C10.0114 9.85488 9.89001 9.73347 9.89001 9.58369C9.89001 9.43391 10.0114 9.3125 10.1612 9.3125H13.8574C14.0072 9.3125 14.1286 9.43391 14.1286 9.58369C14.1286 9.73347 14.0072 9.85488 13.8574 9.85488Z" fill="#D5DCF8"/>
<path d="M13.8574 10.953H10.1612C10.0114 10.953 9.89001 10.8316 9.89001 10.6818C9.89001 10.532 10.0114 10.4106 10.1612 10.4106H13.8574C14.0072 10.4106 14.1286 10.532 14.1286 10.6818C14.1286 10.8316 14.0072 10.953 13.8574 10.953Z" fill="#D5DCF8"/>
<path d="M12.3763 0C12.3092 1.20303 11.3122 2.15775 10.0925 2.15775C10.0101 2.16197 9.92853 2.17075 9.84878 2.18372C8.80041 2.35378 8 3.26322 8 4.35931V13.5778C8.1495 13.1269 8.43494 12.7491 8.80222 12.4842C9.10547 12.2652 9.46459 12.1232 9.84878 12.0806C9.92913 12.0716 10.0104 12.067 10.0925 12.067C11.3557 12.067 12.3799 11.0431 12.3799 9.77969V0H12.3763Z" fill="#E1EDFD"/>
<path d="M5.72055 3.82851H2.02436C1.87458 3.82851 1.75317 3.7071 1.75317 3.55732C1.75317 3.40754 1.87458 3.28613 2.02436 3.28613H5.72055C5.87033 3.28613 5.99174 3.40754 5.99174 3.55732C5.99174 3.7071 5.87033 3.82851 5.72055 3.82851Z" fill="#D5DCF8"/>
<path d="M5.72055 4.92665H2.02436C1.87458 4.92665 1.75317 4.80525 1.75317 4.65547C1.75317 4.50568 1.87458 4.38428 2.02436 4.38428H5.72055C5.87033 4.38428 5.99174 4.50568 5.99174 4.65547C5.99174 4.80525 5.87033 4.92665 5.72055 4.92665Z" fill="#D5DCF8"/>
<path d="M5.72055 9.85488H2.02436C1.87458 9.85488 1.75317 9.73347 1.75317 9.58369C1.75317 9.43391 1.87458 9.3125 2.02436 9.3125H5.72055C5.87033 9.3125 5.99174 9.43391 5.99174 9.58369C5.99174 9.73347 5.87033 9.85488 5.72055 9.85488Z" fill="#D5DCF8"/>
<path d="M5.72055 10.953H2.02436C1.87458 10.953 1.75317 10.8316 1.75317 10.6818C1.75317 10.532 1.87458 10.4106 2.02436 10.4106H5.72055C5.87033 10.4106 5.99174 10.532 5.99174 10.6818C5.99174 10.8316 5.87033 10.953 5.72055 10.953Z" fill="#D5DCF8"/>
<path d="M4.96814 6.65527L3.50442 5.8102C3.1457 5.60308 2.69727 5.86198 2.69727 6.2762V7.96636C2.69727 8.38058 3.14567 8.63948 3.50442 8.43236L4.96814 7.5873C5.32686 7.38017 5.32686 6.86239 4.96814 6.65527Z" fill="#FE646F"/>
</svg>
