<svg width="12" height="14" viewBox="0 0 12 14" fill="none" xmlns="http://www.w3.org/2000/svg">
<path d="M1.89332 11.1762H11.4297C11.4589 11.1762 11.4872 11.1721 11.5144 11.1656C11.5165 11.1656 11.5183 11.1659 11.5205 11.1659C11.7241 11.1659 11.8894 11.0007 11.8894 10.797V0.36896C11.8895 0.165293 11.7241 0 11.5205 0H11.4304H2.48341H1.89384C0.911775 0 0.112958 0.799002 0.112958 1.78079C0.112958 1.79396 0.115548 1.80646 0.116828 1.81917C0.115548 2.7261 0.104301 11.0597 0.115548 12.1552C0.114847 12.1766 0.112226 12.1975 0.112226 12.2192C0.112226 13.1632 0.851425 13.9361 1.78121 13.9945C1.79987 13.9973 1.81816 14.0001 1.83751 14.0001H11.5205C11.724 14.0001 11.8894 13.8349 11.8894 13.6311V12.2423C11.8894 12.0387 11.724 11.8733 11.5205 11.8733C11.3169 11.8733 11.1515 12.0387 11.1515 12.2423V13.2622H1.89332C1.33264 13.2622 0.874955 12.817 0.852461 12.2619C0.85301 12.252 0.854808 12.2426 0.854625 12.2326C0.854259 12.2163 0.853711 12.1911 0.853345 12.1576C0.885592 11.6113 1.33904 11.1762 1.89332 11.1762ZM2.1449 1.78079C2.1449 1.57712 2.31019 1.41183 2.51386 1.41183C2.71753 1.41183 2.88282 1.57712 2.88282 1.78079V9.27536C2.88282 9.47893 2.71753 9.64432 2.51386 9.64432C2.31019 9.64432 2.1449 9.4789 2.1449 9.27536V1.78079Z" fill="#FF9F00"/>
</svg>
