<svg width="18" height="18" viewBox="0 0 18 18" fill="none" xmlns="http://www.w3.org/2000/svg">
<path d="M17.6511 4.165C17.6499 4.165 17.6487 4.165 17.6476 4.165H16.4648V3.72624C16.4712 3.55259 16.3676 3.39652 16.2136 3.34801C15.3925 3.11473 14.5469 2.99776 13.698 3.00003C12.3024 3.00003 10.4009 3.34044 8.99477 4.89121C7.59915 3.32531 5.68366 3.00003 4.29153 3.00003C3.44264 2.99776 2.59707 3.11473 1.77593 3.34801C1.62197 3.39652 1.51835 3.55259 1.52471 3.72624V4.16121H0.348905C0.156222 4.16121 0 4.33057 0 4.53945V16.6203C0 16.8291 0.156222 16.9985 0.348905 16.9985C0.408829 16.9983 0.467707 16.9814 0.519868 16.9493C0.554759 16.9304 4.04381 14.8615 8.91452 16.1929H8.96685H8.99826C9.02608 16.1965 9.05417 16.1965 9.08199 16.1929C13.9667 14.8501 17.4557 16.9153 17.4766 16.9493C17.5846 17.0169 17.7176 17.0169 17.8255 16.9493C17.9328 16.8822 17.9993 16.7584 18 16.624V4.54323C18 4.33435 17.8438 4.165 17.6511 4.165ZM0.69781 16.0189V4.92146H1.53169V14.4076C1.52951 14.6165 1.68395 14.7877 1.87663 14.7901C1.89547 14.7903 1.91431 14.7889 1.93293 14.7858C2.65473 14.6664 3.38346 14.6031 4.11359 14.5967C5.12498 14.5777 6.13213 14.7426 7.09324 15.0846C4.92283 14.8001 2.72133 15.1217 0.69781 16.0189ZM4.11359 13.844C3.47897 13.8456 2.8451 13.8898 2.21555 13.9764V4.02505C2.89486 3.86099 3.58857 3.77726 4.28455 3.77541C5.58946 3.77541 7.3898 4.1007 8.63888 5.62876L8.64935 15.0506C7.92363 14.5362 6.50707 13.844 4.11359 13.844ZM9.34716 5.62876C10.5962 4.11582 12.3966 3.77541 13.7015 3.77541C14.3974 3.77764 15.0911 3.86132 15.7705 4.02505V13.9764C15.1445 13.889 14.5141 13.8435 13.8829 13.8402C11.5034 13.8402 10.0833 14.5324 9.34716 15.0468V5.62876ZM17.2987 16.0189C15.2709 15.1192 13.0643 14.7976 10.8893 15.0846C11.855 14.7414 12.8669 14.5764 13.8829 14.5967C14.6176 14.6012 15.3511 14.6631 16.0775 14.782C16.268 14.8134 16.4459 14.6714 16.4748 14.4648C16.4777 14.4447 16.479 14.4242 16.4788 14.4038V4.92146H17.3127L17.2987 16.0189Z" fill="white"/>
</svg>
