<svg width="25" height="30" viewBox="0 0 25 30" fill="none" xmlns="http://www.w3.org/2000/svg">
<path d="M25 13.3213H22.7079V6.93865H4.25789C2.78158 6.93865 1.49474 5.6972 1.52895 4.18046C1.54737 3.46798 1.83421 2.82296 2.29737 2.35337C2.76842 1.86488 3.42368 1.56531 4.15 1.56531H21.9447C22.3684 1.56531 22.7079 1.21717 22.7079 0.78266C22.7079 0.348151 22.3684 2.71375e-06 21.9447 2.71375e-06H4.37895C1.96053 -0.0026961 0 2.00792 0 4.48813V25.9167C0 28.1729 1.78158 30 3.98158 30H18.7237C20.9237 30 22.7053 28.1729 22.7053 25.9167V22.052H25V13.3213ZM24.3447 21.3827H22.7079H15.1763V22.6997L10.2816 17.6799L14.7368 12.7249V13.9933H22.7053H24.3421V21.3827H24.3447Z" fill="#F68300"/>
</svg>
