<svg width="314" height="131" viewBox="0 0 314 131" fill="none" xmlns="http://www.w3.org/2000/svg">
<g opacity="0.5">
<path d="M111.364 64.8455C109.333 74.9665 108.559 85.2913 105.367 95.2764C104.69 97.45 104.207 99.8954 102.079 101.594C104.303 92.3556 104.69 82.9138 102.079 73.7438C100.918 69.5324 98.4996 65.4568 94.4371 62.2643C91.8254 60.2265 88.5367 58.5963 86.3119 56.2868C84.0872 53.9773 83.4101 50.649 86.0217 48.6112C85.6348 48.9508 82.1526 47.5923 81.669 47.3885C80.218 46.7772 78.9606 46.03 77.7998 45.147C75.2849 43.245 73.834 40.9355 73.5438 38.4223C73.4471 37.5392 73.9307 36.3845 75.1882 36.4524C73.3503 35.3656 71.5125 34.2788 70.0616 32.9882C68.4172 31.4938 67.3532 29.7277 67.4499 27.8258C67.5467 25.9239 68.4172 25.5163 70.9321 24.8371C70.4485 23.8861 69.9649 22.9351 69.7714 21.9162C69.5779 20.8973 69.6747 19.8784 70.3518 18.9954C71.1256 18.0444 72.4798 17.4331 74.0274 17.3652C75.5751 17.2973 77.1227 17.8407 77.9933 18.6558C78.2835 17.569 80.0246 16.8218 81.669 16.8218C83.3133 16.8218 84.7643 17.501 86.0217 18.1803C89.4072 20.1502 90.4712 22.8672 92.0189 25.6522C94.0501 24.9729 96.5651 25.5163 98.2095 26.5352C99.8538 27.622 100.724 29.1164 101.305 30.6787C102.079 33.124 102.079 35.7052 101.982 38.2185C103.433 37.4713 105.561 37.6071 107.012 38.4223C108.463 39.2374 109.236 40.4601 109.623 41.6827C110.687 45.147 109.14 48.6791 107.205 51.9396C108.559 51.3962 110.3 51.7358 111.461 52.483C115.427 55.2 112.525 60.4982 111.751 63.7587C111.558 64.1663 111.461 64.5059 111.364 64.8455Z" fill="#008F57"/>
<path d="M102.192 101.591C109.834 73.8092 105.965 56.8956 92.4227 39.7103C78.8807 22.525 63.501 7.5813 63.501 7.5813" stroke="#79BF4C" stroke-miterlimit="10"/>
<path d="M71.5152 47.3834C74.5138 48.4023 77.4156 49.6249 80.124 50.9834C106.144 63.8894 116.3 88.4107 114.172 109.943C107.982 99.8902 99.1794 90.0409 87.4753 82.7049C80.4142 78.2897 74.4171 73.399 67.6461 68.7122C55.7485 60.4252 50.0416 48.0626 52.6532 36.4473C54.7812 42.2889 64.0671 44.8022 71.5152 47.3834Z" fill="#29BAA3"/>
<path d="M114.176 111.035C109.34 95.7518 98.1196 82.0308 85.2547 69.4644C73.2604 57.8491 54.9788 46.7092 50.4326 32.1051" stroke="#4FD3B9" stroke-miterlimit="10"/>
<path d="M172.982 68.927C178.979 76.6706 184.105 84.8896 190.973 92.2935C192.521 93.9238 193.875 95.7578 196.39 96.7087C190.586 89.7124 186.233 82.1046 184.395 74.1573C183.525 70.4893 183.718 66.6854 185.556 63.2212C186.814 60.9796 188.748 59.0098 189.522 56.6324C190.296 54.3229 189.522 51.47 186.427 50.3832C186.91 50.519 189.135 48.685 189.425 48.4812C190.296 47.6661 191.07 46.7831 191.65 45.8321C192.811 43.7943 193.101 41.5528 192.134 39.4471C191.844 38.6999 190.876 37.8848 189.909 38.2244C190.973 37.0017 191.94 35.7111 192.617 34.3526C193.294 32.7903 193.391 31.1601 192.521 29.5978C191.65 28.1034 190.683 27.8996 188.458 27.8996C188.361 27.0166 188.458 26.1336 188.168 25.2505C187.878 24.3675 187.394 23.5524 186.427 22.941C185.46 22.3297 184.009 22.1259 182.751 22.3976C181.494 22.6693 180.43 23.4165 180.139 24.2996C179.462 23.4844 177.721 23.2127 176.367 23.6203C175.11 23.9599 174.142 24.843 173.465 25.6581C171.531 27.9676 171.918 30.4129 171.821 32.9941C169.886 32.8582 168.048 33.8092 167.178 35.0319C166.307 36.2545 166.211 37.681 166.501 39.0395C166.888 41.2131 168.048 43.2509 169.209 45.2887C167.758 44.9491 166.017 45.5604 165.243 46.5114C164.47 47.4623 164.373 48.6171 164.566 49.7039C165.243 52.6926 168.048 55.2738 170.95 57.4475C169.596 57.3116 168.339 57.9229 167.758 58.806C165.727 61.8627 170.37 65.5307 172.401 68.0439C172.595 68.3836 172.788 68.6553 172.982 68.927Z" fill="#79BF4C"/>
<path d="M196.383 96.7083C178.198 75.855 173.942 61.2509 177.521 44.4731C181.1 27.6275 187.097 12.2762 187.097 12.2762" stroke="#008F57" stroke-miterlimit="10"/>
<path d="M145.818 29.3899C148.914 30.7484 151.912 32.2428 154.717 33.9409C181.414 49.7677 189.056 77.2778 183.639 100.644C178.319 89.3007 170 77.8891 158.296 69.1266C151.235 63.8284 145.335 58.0547 138.66 52.5527C126.86 42.7034 122.313 28.8465 126.763 16.3481C128.311 22.7331 137.983 26.0615 145.818 29.3899Z" fill="#4FD3B9"/>
<path d="M183.552 101.728C180.36 84.7461 170.107 68.9873 157.726 54.3832C146.215 40.8659 127.837 27.4845 124.935 11.2501" stroke="#29BAA3" stroke-miterlimit="10"/>
<path d="M196.976 44.1919C194.655 46.2976 192.527 48.4712 190.689 50.7807C172.988 72.585 179.372 100.91 196.202 122.103C195.622 109.876 197.943 96.8346 204.811 85.5589C208.97 78.6983 211.776 71.7019 215.451 64.7056C221.932 52.343 219.32 37.8068 208.777 26.9387C210.518 33.3916 202.78 38.9616 196.976 44.1919Z" fill="#29BAA3"/>
<path d="M196.882 123.051C191.466 105.934 193.4 88.2054 198.043 71.088C202.299 55.2613 213.326 37.8043 208.006 21.502" stroke="#4FD3B9" stroke-miterlimit="10"/>
<path d="M138.857 48.3329C137.019 50.0311 135.375 51.7972 133.924 53.6312C119.995 71.1561 125.412 93.7755 139.051 110.621C138.47 100.84 140.211 90.4471 145.531 81.345C148.82 75.843 150.948 70.273 153.85 64.6352C158.88 54.718 156.655 43.1026 148.143 34.476C149.497 39.6384 143.5 44.1215 138.857 48.3329Z" fill="#29BAA3"/>
<path d="M139.61 111.37C135.064 97.7169 136.515 83.5204 139.997 69.7993C143.286 57.0971 151.894 43.1044 147.445 30.0626" stroke="#4FD3B9" stroke-miterlimit="10"/>
<path d="M105.264 77.7502C108.262 86.7165 110.003 95.9544 113.969 104.785C114.84 106.687 115.517 108.86 117.645 110.287C114.646 102.136 113.292 93.6449 114.646 85.29C115.227 81.4862 116.871 77.6144 120.257 74.5577C122.385 72.5879 125.19 70.9576 126.834 68.784C128.575 66.6104 128.865 63.5537 126.254 61.9235C126.641 62.1952 129.639 60.7687 130.026 60.5649C131.284 59.9536 132.348 59.2064 133.315 58.3913C135.346 56.5573 136.507 54.3837 136.41 52.0742C136.41 51.327 135.83 50.3081 134.766 50.376C136.313 49.2892 137.861 48.2703 139.022 46.9797C140.376 45.5533 141.15 43.9231 140.86 42.2249C140.569 40.5268 139.699 40.1871 137.474 39.7117C137.764 38.8286 138.151 37.9456 138.248 36.9946C138.345 36.1116 138.151 35.1606 137.474 34.3455C136.7 33.5304 135.346 33.0549 133.992 33.0549C132.638 33.0549 131.284 33.5983 130.606 34.4813C130.22 33.4624 128.575 32.919 127.124 33.0549C125.673 33.1907 124.416 33.8021 123.352 34.5493C120.547 36.5191 119.87 38.9645 118.709 41.5456C116.774 41.0702 114.55 41.6136 113.195 42.7004C111.841 43.7193 111.164 45.1457 110.874 46.5722C110.39 48.8137 110.777 51.1232 111.067 53.3648C109.713 52.7534 107.779 53.0252 106.618 53.8403C105.457 54.5875 104.877 55.7422 104.683 56.8969C104.103 60.0215 105.941 63.1461 107.972 65.9311C106.715 65.5235 105.167 65.9311 104.2 66.6783C100.911 69.3274 104.2 73.9464 105.167 76.7993C105.07 77.1389 105.167 77.4785 105.264 77.7502Z" fill="#79BF4C"/>
<path d="M117.645 110.289C107.682 85.7675 109.423 70.3483 119.676 54.1819C129.929 38.0155 142.117 23.751 142.117 23.751" stroke="#008F57" stroke-miterlimit="10"/>
<path d="M202.137 105.351C202.137 105.351 297.181 105.351 304.114 105.351C310.831 98.4229 311.553 89.5246 304.114 84.2943C296.964 84.2943 202.137 84.2943 202.137 84.2943V86.8076H205.387V102.566H202.137V105.351Z" fill="#0091A2"/>
<path d="M205.303 102.566C205.303 102.566 295.58 102.566 302.152 102.566C306.847 99.1022 306.919 90.0001 302.152 86.8076C295.436 86.8076 205.303 86.8076 205.303 86.8076V102.566Z" fill="white"/>
<path opacity="0.2" d="M299.697 89.7285C293.63 89.7285 219.747 89.7285 205.303 89.7285V86.8076C205.303 86.8076 295.436 86.8076 302.152 86.8076C306.919 90.0001 306.847 99.0343 302.152 102.566H302.08C304.174 98.3551 303.452 92.2417 299.697 89.7285Z" fill="#231F20"/>
<path d="M298.335 92.8565C292.268 93.1282 286.13 93.2641 280.063 93.3999C273.996 93.5358 267.857 93.5358 261.791 93.5358C255.724 93.5358 249.585 93.4679 243.519 93.3999C237.452 93.332 231.313 93.1282 225.247 92.8565C231.313 92.5848 237.452 92.449 243.519 92.3131C249.585 92.1773 255.724 92.1772 261.791 92.1772C267.857 92.1772 273.996 92.2452 280.063 92.3131C286.13 92.449 292.268 92.5848 298.335 92.8565Z" fill="#DFDBDA"/>
<path d="M287.719 97.6037C281.652 97.8754 275.513 98.0113 269.447 98.1471C263.38 98.283 257.241 98.283 251.175 98.283C245.108 98.283 238.969 98.215 232.902 98.1471C226.836 98.0792 220.697 97.8754 214.63 97.6037C220.697 97.332 226.836 97.1962 232.902 97.0603C238.969 96.9244 245.108 96.9244 251.175 96.9244C257.241 96.9244 263.38 96.9924 269.447 97.0603C275.513 97.1962 281.58 97.332 287.719 97.6037Z" fill="#DFDBDA"/>
<path d="M302.873 63.3023C302.873 63.3023 207.83 63.3023 200.896 63.3023C194.18 56.3738 193.457 47.4755 200.896 42.2452C208.046 42.2452 302.873 42.2452 302.873 42.2452V44.7585H299.624V60.5173H302.873V63.3023Z" fill="#00A1DD"/>
<path d="M299.625 60.4532C299.625 60.4532 209.348 60.4532 202.775 60.4532C198.081 56.989 198.009 47.8869 202.775 44.6943C209.492 44.6943 299.625 44.6943 299.625 44.6943V60.4532Z" fill="white"/>
<path opacity="0.2" d="M205.231 47.6864C211.298 47.6864 285.181 47.6864 299.625 47.6864V44.7656C299.625 44.7656 209.492 44.7656 202.775 44.7656C198.009 47.9581 198.081 56.9923 202.775 60.5245H202.848C200.753 56.3131 201.476 50.1997 205.231 47.6864Z" fill="#231F20"/>
<path d="M206.631 50.8084C212.697 50.5367 218.836 50.4009 224.903 50.265C230.97 50.1292 237.108 50.1292 243.175 50.1292C249.242 50.1292 255.381 50.1971 261.447 50.265C267.514 50.3329 273.653 50.5367 279.719 50.8084C273.653 51.0801 267.514 51.216 261.447 51.3518C255.381 51.4877 249.242 51.4877 243.175 51.4877C237.108 51.4877 230.97 51.4198 224.903 51.3518C218.836 51.216 212.697 51.0801 206.631 50.8084Z" fill="#DFDBDA"/>
<path d="M217.213 55.5627C223.28 55.291 229.419 55.1551 235.486 55.0193C241.552 54.8834 247.691 54.8834 253.758 54.8834C259.824 54.8834 265.963 54.9514 272.03 55.0193C278.096 55.0872 284.235 55.291 290.302 55.5627C284.235 55.8344 278.096 55.9703 272.03 56.1061C265.963 56.242 259.824 56.2419 253.758 56.2419C247.691 56.2419 241.552 56.174 235.486 56.1061C229.419 55.9703 223.352 55.8344 217.213 55.5627Z" fill="#DFDBDA"/>
<path d="M206.101 126.485C206.101 126.485 301.145 126.485 308.078 126.485C314.795 119.556 315.517 110.658 308.078 105.428C300.928 105.428 206.101 105.428 206.101 105.428V107.941H209.351V123.7H206.101V126.485Z" fill="#EEAF35"/>
<path d="M193.909 126.485C193.909 126.485 288.953 126.485 295.886 126.485C302.603 119.556 303.325 110.658 295.886 105.428C288.736 105.428 193.909 105.428 193.909 105.428V107.941H197.159V123.7H193.909V126.485Z" fill="#FFDB49"/>
<path d="M197.146 123.625C197.146 123.625 287.423 123.625 293.996 123.625C298.69 120.161 298.762 111.059 293.996 107.866C287.279 107.866 197.146 107.866 197.146 107.866V123.625Z" fill="white"/>
<path opacity="0.2" d="M291.54 110.858C285.473 110.858 211.59 110.858 197.146 110.858V107.937C197.146 107.937 287.279 107.937 293.996 107.937C298.762 111.13 298.69 120.164 293.996 123.696H293.923C296.018 119.417 295.296 113.371 291.54 110.858Z" fill="#231F20"/>
<path d="M290.178 113.912C284.111 114.183 277.972 114.319 271.906 114.455C265.839 114.591 259.7 114.591 253.634 114.591C247.567 114.591 241.428 114.523 235.361 114.455C229.295 114.387 223.156 114.183 217.089 113.912C223.156 113.64 229.295 113.504 235.361 113.368C241.428 113.232 247.567 113.232 253.634 113.232C259.7 113.232 265.839 113.3 271.906 113.368C277.972 113.504 284.039 113.708 290.178 113.912Z" fill="#DFDBDA"/>
<path d="M279.477 118.731C273.41 119.003 267.271 119.139 261.205 119.274C255.138 119.41 248.999 119.41 242.932 119.41C236.866 119.41 230.727 119.342 224.66 119.274C218.594 119.207 212.455 119.003 206.388 118.731C212.455 118.459 218.594 118.323 224.66 118.188C230.727 118.052 236.866 118.052 242.932 118.052C248.999 118.052 255.138 118.12 261.205 118.188C267.343 118.256 273.41 118.459 279.477 118.731Z" fill="#DFDBDA"/>
<path d="M206.03 42.4561C206.03 42.4561 301.074 42.4561 308.008 42.4561C314.724 35.5276 315.446 26.6293 308.008 21.399C300.858 21.399 206.03 21.399 206.03 21.399V23.9122H209.28V39.6711H206.03V42.4561Z" fill="#3CB35E"/>
<path d="M193.831 42.4561C193.831 42.4561 288.875 42.4561 295.808 42.4561C302.525 35.5276 303.247 26.6293 295.808 21.399C288.658 21.399 193.831 21.399 193.831 21.399V23.9122H197.081V39.6711H193.831V42.4561Z" fill="#009364"/>
<path d="M197.068 39.6035C197.068 39.6035 287.345 39.6035 293.917 39.6035C298.612 36.1392 298.684 27.0371 293.917 23.8446C287.201 23.8446 197.068 23.8446 197.068 23.8446V39.6035Z" fill="white"/>
<path opacity="0.2" d="M291.462 26.8296C285.395 26.8296 211.512 26.8296 197.068 26.8296V23.9088C197.068 23.9088 287.201 23.9088 293.917 23.9088C298.684 27.1013 298.612 36.1354 293.917 39.6676H293.845C295.94 35.3883 295.217 29.3428 291.462 26.8296Z" fill="#231F20"/>
<path d="M290.1 29.955C284.033 30.2267 277.894 30.3625 271.828 30.4984C265.761 30.6342 259.622 30.6342 253.556 30.6342C247.489 30.6342 241.35 30.5663 235.283 30.4984C229.217 30.4304 223.078 30.2267 217.011 29.955C223.078 29.6833 229.217 29.5474 235.283 29.4115C241.35 29.2757 247.489 29.2757 253.556 29.2757C259.622 29.2757 265.761 29.3436 271.828 29.4115C277.894 29.4795 283.961 29.6833 290.1 29.955Z" fill="#DFDBDA"/>
<path d="M279.405 34.7125C273.338 34.9842 267.199 35.12 261.133 35.2559C255.066 35.3917 248.927 35.3917 242.861 35.3917C236.794 35.3917 230.655 35.3238 224.589 35.2559C218.522 35.1879 212.383 34.9842 206.316 34.7125C212.383 34.4408 218.522 34.3049 224.589 34.1691C230.655 34.0332 236.794 34.0332 242.861 34.0332C248.927 34.0332 255.066 34.1011 261.133 34.1691C267.199 34.237 273.338 34.4408 279.405 34.7125Z" fill="#DFDBDA"/>
<path d="M197.157 84.4328H306.068C306.862 84.4328 307.512 83.8214 307.512 83.0743V64.4625C307.512 63.7153 306.862 63.104 306.068 63.104H197.157C196.363 63.104 195.713 63.7153 195.713 64.4625V83.0743C195.713 83.8214 196.363 84.4328 197.157 84.4328Z" fill="#FFDB49"/>
<path opacity="0.1" d="M305.635 67.9268C305.635 67.3833 305.129 66.9079 304.551 66.9079H195.713V64.1229C195.713 63.5795 196.218 63.104 196.796 63.104H306.357C306.935 63.104 307.44 63.5795 307.44 64.1229V83.4139C307.44 83.9573 306.935 84.4328 306.357 84.4328H305.635V67.9268Z" fill="#231F20"/>
<path d="M279.583 84.2943H292.944V63.1014H279.583V84.2943Z" fill="#EEAF35"/>
<path d="M266.303 81.4459H274.97V66.0267H266.303V81.4459Z" fill="#EEAF35"/>
<path d="M197.157 21.3288H306.068C306.862 21.3288 307.512 20.7174 307.512 19.9703V1.35852C307.512 0.611335 306.862 0 306.068 0H197.157C196.363 0 195.713 0.611335 195.713 1.35852V19.9703C195.713 20.7854 196.363 21.3288 197.157 21.3288Z" fill="#0091A2"/>
<path opacity="0.1" d="M305.635 4.89404C305.635 4.35064 305.129 3.87515 304.551 3.87515H195.713V1.09018C195.713 0.546772 196.218 0.0712891 196.796 0.0712891H306.357C306.935 0.0712891 307.44 0.546772 307.44 1.09018V20.3133C307.44 20.8567 306.935 21.3322 306.357 21.3322H305.635V4.89404Z" fill="#231F20"/>
<path d="M279.583 21.2617H292.944V0.0687256H279.583V21.2617Z" fill="#386E8A"/>
<path d="M266.303 18.3419H274.97V2.9227L266.303 2.9227V18.3419Z" fill="#386E8A"/>
<path d="M198.39 112.211C182.646 116.558 136.569 99.7127 117.935 112.754C110.713 114.724 108.691 111.464 108.619 105.758C129.924 75.3272 160.763 104.196 189.724 102.226C192.757 105.758 194.49 108.475 198.39 112.211Z" fill="white"/>
<path d="M188.352 93.8674C138.446 100.388 116.707 100.388 108.691 118.321C108.691 114.245 108.691 111.46 108.619 105.822C111.435 81.1652 156.43 79.6708 171.091 66.5611C174.846 71.9952 185.391 89.9276 188.352 93.8674Z" fill="white"/>
<path d="M198.384 116.621H118.073V125.723H198.384V116.621Z" fill="#2E3A36"/>
<path d="M207.188 128.171C191.299 132.45 136.699 114.518 118.716 124.027C110.916 126.133 104.777 127.831 108.677 116.623C131.572 84.4944 168.405 116.623 199.605 114.518C201.627 118.933 204.01 124.027 207.188 128.171Z" fill="#D5BFB8"/>
<path d="M115.479 115.74C117.79 113.362 120.823 111.596 124.073 110.374C127.323 109.151 130.717 108.472 134.184 108.132C141.189 107.453 148.123 108.607 154.839 110.17C161.556 111.8 168.056 114.042 174.628 115.876C181.2 117.642 187.917 119.136 194.85 119.204C191.384 119.476 187.917 119.272 184.523 118.864C181.128 118.457 177.734 117.777 174.339 116.962C167.623 115.332 161.123 113.159 154.551 111.596C151.228 110.781 147.906 110.102 144.512 109.694C141.117 109.219 137.723 109.083 134.328 109.287C132.667 109.423 130.934 109.558 129.273 109.898C127.612 110.17 125.951 110.577 124.362 111.121C121.112 111.936 118.079 113.566 115.479 115.74Z" fill="#938585"/>
<path d="M117.622 119.886C118.994 118.935 120.511 118.188 122.028 117.577C123.616 116.965 125.205 116.49 126.866 116.082C130.189 115.335 133.511 114.86 136.905 114.656C143.694 114.248 150.483 114.928 157.127 116.014C163.772 117.101 170.344 118.596 176.916 119.818C183.488 121.041 190.133 121.992 196.922 122.128C190.205 122.535 183.416 121.924 176.772 120.837C170.127 119.818 163.555 118.392 156.911 117.373C150.339 116.286 143.622 115.539 136.978 115.743C133.655 115.811 130.333 116.15 127.011 116.762C123.761 117.373 120.583 118.324 117.622 119.886Z" fill="#938585"/>
<path d="M18.9946 112.211C34.739 116.558 80.8166 99.7127 99.4498 112.754C106.672 114.724 108.694 111.464 108.766 105.758C87.461 75.3272 56.6222 104.196 27.6613 102.226C24.6279 105.758 22.8224 108.475 18.9946 112.211Z" fill="white"/>
<path d="M29.0269 93.8674C78.9322 100.388 100.671 100.388 108.688 118.321C108.688 114.245 108.688 111.46 108.76 105.822C105.943 81.1652 60.9489 79.6708 46.2879 66.5611C42.4601 71.9952 31.988 89.9276 29.0269 93.8674Z" fill="white"/>
<path d="M18.9749 125.683L99.2856 125.683V116.581L18.9749 116.581V125.683Z" fill="#2E3A36"/>
<path d="M10.1821 128.171C26.0709 132.45 80.6707 114.518 98.6539 124.027C106.454 126.133 112.593 127.831 108.693 116.623C85.7984 84.4944 48.9653 116.623 17.7654 114.518C15.7432 118.933 13.2877 124.027 10.1821 128.171Z" fill="#D5BFB8"/>
<path d="M101.83 115.734C99.3026 113.561 96.2693 111.999 93.0193 110.98C91.4304 110.436 89.7693 110.097 88.1082 109.757C86.4471 109.485 84.7138 109.282 83.0527 109.146C79.6582 108.942 76.2638 109.078 72.8694 109.553C69.475 109.961 66.1528 110.64 62.8306 111.455C56.1861 113.085 49.6862 115.191 43.0418 116.821C39.7196 117.636 36.3251 118.316 32.8585 118.723C29.3918 119.131 25.9252 119.335 22.5308 119.063C29.4641 118.995 36.1807 117.568 42.7529 115.734C49.3251 113.9 55.825 111.727 62.5417 110.029C69.2583 108.398 76.1916 107.312 83.1971 107.991C86.6638 108.331 90.1304 109.01 93.3082 110.232C96.4859 111.591 99.5193 113.289 101.83 115.734Z" fill="#938585"/>
<path d="M99.68 119.886C96.7911 118.256 93.5411 117.305 90.2911 116.762C87.0411 116.15 83.6467 115.878 80.3245 115.743C73.6801 115.539 66.9635 116.286 60.3913 117.373C53.7469 118.46 47.2469 119.886 40.5303 120.837C33.8859 121.856 27.097 122.467 20.3804 122.128C27.097 121.992 33.7414 121.041 40.3858 119.818C46.958 118.596 53.5302 117.101 60.1746 116.014C66.819 114.928 73.6079 114.248 80.3967 114.656C83.7912 114.86 87.1856 115.267 90.4356 116.082C92.0967 116.49 93.6856 116.965 95.2744 117.577C96.8633 118.256 98.38 119.003 99.68 119.886Z" fill="#938585"/>
<path d="M118.805 124.03L112.522 118.12C110.427 116.15 107.105 116.15 105.011 118.12L98.7275 124.03L108.766 129.192L118.805 124.03Z" fill="#2E3A36"/>
<path d="M118.727 124.03L112.444 118.12C110.349 116.15 107.027 116.15 104.933 118.12L98.6494 124.03" stroke="#B8A392" stroke-width="3" stroke-miterlimit="10"/>
<path d="M207.217 126.477C181.361 125.255 155.578 124.032 129.723 122.809C126.039 122.606 122.428 122.47 118.745 122.266C117.878 122.198 117.3 122.809 117.011 123.489C116.217 125.526 111.306 126.342 108.706 126.41C106.395 126.477 106.395 129.874 108.706 129.806C112.967 129.738 118.817 128.719 120.478 124.372C119.9 124.779 119.323 125.187 118.745 125.594C144.6 126.817 170.383 128.04 196.239 129.262C199.922 129.466 203.533 129.602 207.217 129.806C209.528 130.01 209.528 126.613 207.217 126.477Z" fill="#0091A2"/>
<path d="M10.1848 129.872C36.0403 128.649 61.8235 127.426 87.6789 126.204C91.3622 126 94.9733 125.864 98.6566 125.66C98.0788 125.253 97.5011 124.845 96.9233 124.438C98.5844 128.785 104.507 129.736 108.695 129.872C111.007 129.94 111.007 126.543 108.695 126.475C106.095 126.407 101.184 125.592 100.39 123.555C100.101 122.875 99.451 122.264 98.6566 122.332C72.8012 123.555 47.018 124.777 21.1625 126C17.4792 126.204 13.8681 126.34 10.1848 126.543C7.87373 126.611 7.80151 130.008 10.1848 129.872Z" fill="#0091A2"/>
<path d="M31.3057 59.4346C40.3005 48.5744 56.8866 46.5484 68.3563 54.9275C79.8261 63.3065 81.848 78.8994 72.8533 89.7596C63.8585 100.62 47.2724 102.646 35.8027 94.2668C24.3373 85.9555 22.311 70.2948 31.3057 59.4346ZM38.357 91.2427C48.0772 98.3055 62.082 96.6507 69.6642 87.4474C77.2464 78.2442 75.5985 65.0775 65.8784 58.0147C56.1583 50.9519 42.1535 52.6067 34.5712 61.8099C26.9169 71.0179 28.6369 84.1799 38.357 91.2427Z" fill="#0091A2"/>
<path d="M19.1388 117.591L15.8442 115.183L35.7206 91.1952L39.0152 93.6031L19.1388 117.591Z" fill="#0091A2"/>
<path opacity="0.2" d="M37.7754 90.8276C28.3399 83.4403 27.1152 70.206 35.04 61.268C42.9649 52.3301 57.0381 51.073 66.4736 58.4604C75.9091 65.8477 77.1338 79.0819 69.209 88.0199C61.2842 96.9579 47.2109 98.2149 37.7754 90.8276Z" fill="#EAEFF2"/>
<path opacity="0.2" d="M34.3535 61.6992C32.6069 63.7861 31.45 66.0392 30.6623 68.4044C32.0277 70.4943 33.7448 72.4252 35.9487 74.0524C45.6689 81.1153 59.6737 79.4604 67.2559 70.2572C69.0025 68.1702 70.1593 65.9172 70.9471 63.5519C69.5816 61.4621 67.8646 59.5311 65.6606 57.9039C56.0082 50.7686 42.0078 52.4912 34.3535 61.6992Z" fill="#EAEFF2"/>
<path d="M9.66938 129.863L5.56726 126.861C4.96003 126.424 4.83094 125.548 5.30033 124.973L23.3575 103.18C23.8269 102.605 24.7594 102.477 25.3667 102.914L29.4688 105.916C30.076 106.353 30.2051 107.229 29.7357 107.804L11.6785 129.597C11.2135 130.24 10.281 130.368 9.66938 129.863Z" fill="#1F143F"/>
</g>
</svg>
