<svg width="20" height="20" viewBox="0 0 20 20" fill="none" xmlns="http://www.w3.org/2000/svg">
<path d="M0 5.60059C6.67009 5.60059 13.3094 5.60059 20 5.60059C20 5.68539 20 5.7808 20 5.8656C20 9.62879 20 13.3814 20 17.1446C20 18.2258 19.3022 19.0739 18.2658 19.2541C18.1119 19.2859 17.9477 19.2965 17.7937 19.2965C12.4577 19.2965 7.11134 19.2965 1.77527 19.2965C0.728579 19.2965 0.0307851 18.5862 0.0102617 17.4944C3.89923e-08 17.134 0.0102617 16.7842 0.0102617 16.4237C0.0102617 12.9044 0.0102617 9.37438 0.0102617 5.855C3.89923e-08 5.7808 0 5.69599 0 5.60059ZM14.7255 7.98571C14.4792 7.98571 14.2329 7.98571 13.9764 7.98571C13.6685 7.98571 13.4736 8.16592 13.4633 8.47333C13.4531 9.02456 13.4531 9.56519 13.4633 10.1164C13.4736 10.4238 13.648 10.604 13.9559 10.604C14.4792 10.6146 15.0026 10.6146 15.5259 10.604C15.8338 10.5934 15.9979 10.4238 15.9979 10.1058C16.0082 9.57579 16.0082 9.03516 15.9979 8.50513C15.9979 8.18712 15.7927 7.98571 15.4849 7.98571C15.2386 7.97511 14.982 7.98571 14.7255 7.98571ZM16.0082 15.0881C16.0082 14.8337 16.0082 14.5792 16.0082 14.3248C15.9979 13.975 15.8235 13.7842 15.4849 13.7736C14.982 13.763 14.4792 13.763 13.9764 13.7736C13.6583 13.7736 13.4736 13.9538 13.4633 14.2824C13.4531 14.8125 13.4531 15.3531 13.4633 15.8831C13.4736 16.2117 13.6685 16.3919 13.9969 16.3919C14.4895 16.3919 14.9923 16.3919 15.4849 16.3919C15.8338 16.3919 15.9979 16.2117 16.0082 15.8513C16.0082 15.5969 16.0082 15.3425 16.0082 15.0881ZM3.5608 9.27897C3.5608 9.54399 3.5608 9.809 3.5608 10.0634C3.5608 10.392 3.74551 10.5934 4.05336 10.5934C4.56644 10.604 5.06927 10.604 5.58235 10.5934C5.8902 10.5828 6.09543 10.3814 6.10569 10.0528C6.11596 9.52279 6.11596 9.00336 6.10569 8.47333C6.09543 8.16592 5.90046 7.97511 5.60287 7.97511C5.10005 7.97511 4.59723 7.97511 4.09441 7.97511C3.76603 7.97511 3.57106 8.18712 3.57106 8.52633C3.55054 8.78075 3.5608 9.03516 3.5608 9.27897ZM3.5608 15.0775C3.5608 15.3319 3.5608 15.5863 3.5608 15.8407C3.5608 16.1905 3.75577 16.3919 4.09441 16.4025C4.56644 16.4025 5.04874 16.4025 5.52078 16.4025C5.85941 16.4025 6.08517 16.1905 6.09543 15.8407C6.10569 15.3213 6.10569 14.8019 6.09543 14.2824C6.08517 13.9644 5.91072 13.7842 5.60287 13.7736C5.08979 13.763 4.56644 13.763 4.05336 13.7736C3.74551 13.7842 3.5608 13.975 3.55054 14.3036C3.55054 14.558 3.5608 14.8231 3.5608 15.0775ZM9.76911 10.604C10.0257 10.604 10.2822 10.6146 10.5285 10.604C10.8568 10.5934 11.0108 10.445 11.0108 10.1058C11.021 9.57579 11.021 9.03516 11.0108 8.50513C11.0005 8.16592 10.8158 7.98571 10.4874 7.98571C9.99487 7.98571 9.49205 7.98571 8.99949 7.98571C8.67111 7.98571 8.47614 8.18712 8.47614 8.52633C8.47614 9.03516 8.47614 9.55459 8.47614 10.0634C8.47614 10.4026 8.66085 10.5934 8.97896 10.604C9.24577 10.6146 9.50231 10.604 9.76911 10.604ZM9.74859 16.4025C9.99487 16.4025 10.2411 16.4025 10.4977 16.4025C10.8568 16.4025 11.021 16.2435 11.021 15.8725C11.0313 15.3531 11.0313 14.8337 11.021 14.3142C11.021 13.9644 10.8466 13.7842 10.508 13.7842C10.0051 13.7736 9.50231 13.7736 8.99949 13.7842C8.66085 13.7842 8.4864 13.9856 8.4864 14.3354C8.4864 14.8443 8.4864 15.3425 8.4864 15.8513C8.4864 16.2011 8.68137 16.4025 9.03027 16.4025C9.26629 16.4025 9.50231 16.4025 9.74859 16.4025Z" fill="#828282"/>
<path d="M19.9327 4.24493C13.2832 4.24493 6.65413 4.24493 0.00456074 4.24493C0.00456074 4.05412 0.00456074 3.87391 0.00456074 3.6831C0.00456074 3.05767 -0.00570093 2.43224 0.00456074 1.8068C0.0148224 0.990562 0.497121 0.280325 1.17439 0.0683145C1.27701 0.0365129 1.37962 0.00471135 1.47198 0.00471135C2.12873 -0.00588919 2.79574 0.00471135 3.48327 0.00471135C3.48327 0.0895157 3.49353 0.17432 3.49353 0.259124C3.49353 0.831554 3.49353 1.39338 3.50379 1.96581C3.51405 2.25203 3.6885 2.46404 3.94504 2.54884C4.18106 2.62305 4.46839 2.53824 4.60179 2.31563C4.67362 2.18842 4.71467 2.02941 4.72493 1.88101C4.73519 1.34038 4.73519 0.799752 4.73519 0.259124C4.73519 0.184921 4.73519 0.110717 4.73519 0.0153118C8.07024 0.0153118 11.3745 0.0153118 14.6993 0.0153118C14.6993 0.0895156 14.7095 0.163719 14.7095 0.237923C14.7095 0.810353 14.7095 1.37218 14.7095 1.94461C14.7095 2.24143 14.884 2.46404 15.1508 2.54884C15.3868 2.62305 15.6639 2.54884 15.8075 2.31563C15.8794 2.18842 15.9307 2.02941 15.9307 1.88101C15.9409 1.34038 15.9409 0.799752 15.9409 0.259124C15.9409 0.184921 15.9409 0.110717 15.9409 0.00471135C16.4438 0.00471135 16.9261 0.00471135 17.4084 0.00471135C17.788 0.00471135 18.1677 -0.00588921 18.5269 0.131918C19.2144 0.407532 19.7378 0.863355 19.9122 1.6478C19.9225 1.6902 19.9327 1.7326 19.9327 1.775C19.9327 2.59124 19.9327 3.40749 19.9327 4.24493Z" fill="#828282"/>
</svg>
