<svg width="37" height="35" viewBox="0 0 37 35" fill="none" xmlns="http://www.w3.org/2000/svg">
<path d="M27.14 28.2003C27.0422 29.8628 26.211 30.6941 24.6462 30.4985C24.4995 31.0364 24.2551 31.5254 23.7661 31.8676C23.2771 32.161 22.7881 32.2588 22.2014 32.161C22.1525 32.2588 22.1036 32.4055 22.1036 32.5033C21.7124 33.7257 20.2944 34.3125 19.1697 33.628C18.6318 33.3346 18.1429 32.9923 17.605 32.65C17.4094 32.9923 17.2138 33.2857 17.0182 33.5791C16.627 34.2636 16.0403 34.6548 15.209 34.5081C14.4266 34.4103 13.9866 33.9213 13.791 33.139C13.2531 33.3835 12.7641 33.4813 12.1774 33.2368C11.6395 32.9923 11.2972 32.5522 11.1505 31.9654C10.417 32.3077 9.73247 32.3077 9.1457 31.7698C8.60783 31.3298 8.46113 30.743 8.60783 30.0095C8.51003 30.0095 8.41224 30.0095 8.31444 30.0095C6.99421 29.9606 6.21185 28.5426 6.89641 27.3691C7.092 27.0268 7.33649 26.7334 7.53208 26.3422C6.99421 25.9999 6.50523 25.7065 6.01625 25.4132C5.57618 25.9021 5.0872 26.2444 4.40263 26.3911C3.81586 26.4889 3.27799 26.3911 2.78901 26.1466C2.10445 25.8043 1.41988 25.4132 0.735314 25.0709C0.00184997 24.6797 -0.193741 23.9951 0.19744 23.3106C1.95775 20.0344 3.71807 16.7583 5.47838 13.4821C5.86956 12.7976 6.55413 12.602 7.23869 12.9443C7.97216 13.3354 8.65672 13.7266 9.39019 14.1178C10.1237 14.5579 10.5637 15.1936 10.6615 16.0248C10.7104 16.3671 10.8571 16.416 11.1505 16.4649C11.9329 16.6116 12.7152 16.4649 13.4487 16.2693C15.1601 15.7314 16.9204 15.5847 18.6807 15.8781C18.8274 15.927 19.023 15.8292 19.1697 15.7314C20.1477 15.1936 21.1745 14.8024 22.2992 15.0958C23.1304 15.3402 23.9128 15.6825 24.6951 16.0737C25.6242 16.5627 26.5043 16.5627 27.4334 16.2693C27.5312 16.2204 27.629 16.1226 27.629 16.0248C27.8246 14.8024 28.5092 14.1178 29.6827 13.7755C30.3673 13.5799 31.1007 13.3843 31.7853 13.1888C32.5188 12.9932 33.1055 13.2866 33.3011 14.02C34.2791 17.6384 35.257 21.2569 36.235 24.9242C36.3817 25.5599 36.0883 26.1466 35.4526 26.3422C34.6214 26.5867 33.7901 26.8312 32.9588 26.9779C31.7853 27.2224 30.8073 26.6356 30.1717 25.3643C29.9272 25.4132 29.6827 25.4132 29.3893 25.4621C29.1448 25.511 28.9003 25.5598 28.6069 25.6087C28.9003 26.9779 28.3625 27.8091 27.14 28.2003ZM18.2896 31.7209C18.8274 32.0632 19.3164 32.3566 19.8054 32.65C20.3433 32.9434 20.93 32.6011 21.0278 32.0143C21.0767 31.6232 20.8811 31.3787 20.5877 31.1831C19.7076 30.5474 18.8274 29.9606 17.9962 29.325C17.605 29.0805 17.5561 28.7382 17.7517 28.4448C17.9473 28.1514 18.2896 28.1514 18.6807 28.3959C19.6098 29.0805 20.5388 29.7161 21.4679 30.4007C21.7124 30.5963 21.9569 30.7919 22.2503 30.9386C22.6414 31.1831 23.1304 31.0853 23.3749 30.743C23.6194 30.4007 23.5705 29.9117 23.2282 29.6184C23.1304 29.5206 23.0326 29.4717 22.9348 29.4228C22.1036 28.836 21.2723 28.2492 20.441 27.6625C20.3921 27.6136 20.2944 27.5647 20.2455 27.5158C19.9521 27.2713 19.8543 26.929 20.0499 26.6845C20.2455 26.3911 20.5877 26.3911 20.93 26.5867C22.1036 27.418 23.326 28.2981 24.4995 29.1294C24.5973 29.2272 24.6951 29.2761 24.8418 29.3739C25.233 29.5695 25.6731 29.4717 25.9176 29.1294C26.1621 28.7871 26.1132 28.347 25.7709 28.0536C25.6731 27.9558 25.5753 27.9069 25.4286 27.8091C24.4995 27.1246 23.5216 26.4889 22.5925 25.8043C22.2992 25.5599 22.2503 25.2665 22.397 24.9731C22.5925 24.6797 22.9348 24.6308 23.2282 24.8753C23.326 24.9242 23.4727 25.022 23.5705 25.1198C24.4507 25.7554 25.3308 26.3911 26.2599 27.0268C26.6999 27.3202 27.1889 27.2713 27.4823 26.8801C27.7268 26.4889 27.6779 25.9999 27.2378 25.7065C25.1352 24.2396 23.0326 22.7727 20.93 21.3058C20.5388 21.0613 20.1966 21.0613 19.8054 21.2569C19.0719 21.7458 18.2896 22.1859 17.5072 22.626C16.5292 23.2128 15.4046 23.0172 14.7689 22.137C14.1333 21.2569 14.2311 20.1322 15.0623 19.3499C15.7958 18.6653 16.5781 17.9807 17.3116 17.2962C17.3605 17.2473 17.4583 17.1495 17.5561 17.0517C16.4314 17.0028 15.4046 17.1006 14.4266 17.394C13.302 17.7362 12.1285 17.9807 10.906 17.6873C10.6126 17.6384 10.5148 17.6873 10.3681 17.9318C9.1946 20.0344 8.02106 22.137 6.84751 24.2396C6.79862 24.3374 6.74972 24.4352 6.70082 24.533C7.23869 24.8753 7.72767 25.1687 8.21665 25.4621C9.1946 23.9951 10.9549 24.2885 11.4928 25.7554C12.0796 25.3154 12.7152 25.2176 13.3998 25.5599C14.0844 25.9021 14.3288 26.5378 14.3288 27.2713C15.7958 27.2713 16.2359 27.7113 16.4314 29.1783C17.8006 28.9338 18.9252 30.1073 18.2896 31.7209ZM35.2081 25.3154C34.2302 21.648 33.2522 18.0296 32.2254 14.3623C31.3941 14.6068 30.6117 14.8024 29.8294 15.0469C29.0959 15.2914 28.7047 15.927 28.9003 16.7094C29.6827 19.4965 30.4651 22.2348 31.2963 25.022C31.4919 25.7065 32.1276 26.0977 32.861 25.951C33.5945 25.7554 34.3769 25.511 35.2081 25.3154Z" fill="#22A1E6"/>
<path d="M23.9125 6.78393C23.9125 10.109 21.2232 12.7983 17.947 12.7983C14.6709 12.7983 11.9326 10.109 11.9326 6.78393C11.9326 3.45889 14.622 0.769531 17.947 0.769531C21.2232 0.818429 23.9125 3.45889 23.9125 6.78393ZM17.2625 7.32181C16.9691 6.97952 16.6757 6.68614 16.4312 6.39276C16.1867 6.14827 15.8444 6.14827 15.5999 6.39276C15.3554 6.63724 15.3554 6.93062 15.5999 7.17511C16.04 7.61519 16.4312 8.05527 16.8713 8.44645C17.1158 8.69094 17.4091 8.69094 17.6536 8.44645C18.5338 7.5663 19.4139 6.68614 20.2941 5.80598C20.5386 5.56149 20.4897 5.26811 20.2452 5.02362C20.0007 4.77913 19.7562 4.82803 19.4628 5.02362C19.3651 5.12142 19.2673 5.21921 19.1695 5.317C18.5827 6.00157 17.947 6.63724 17.2625 7.32181Z" fill="#22A1E6"/>
</svg>
