<svg width="14" height="14" viewBox="0 0 14 14" fill="none" xmlns="http://www.w3.org/2000/svg">
<path d="M13.4167 11.0833C13.4167 11.3928 13.2938 11.6895 13.075 11.9083C12.8562 12.1271 12.5595 12.25 12.25 12.25H1.75004C1.44062 12.25 1.14388 12.1271 0.925083 11.9083C0.70629 11.6895 0.583374 11.3928 0.583374 11.0833V4.66667C0.583374 4.35725 0.70629 4.0605 0.925083 3.84171C1.14388 3.62292 1.44062 3.5 1.75004 3.5H4.08337L5.25004 1.75H8.75004L9.91671 3.5H12.25C12.5595 3.5 12.8562 3.62292 13.075 3.84171C13.2938 4.0605 13.4167 4.35725 13.4167 4.66667V11.0833Z" stroke="white" stroke-linecap="round" stroke-linejoin="round"/>
<path d="M6.99996 9.91667C8.28862 9.91667 9.33329 8.872 9.33329 7.58333C9.33329 6.29467 8.28862 5.25 6.99996 5.25C5.71129 5.25 4.66663 6.29467 4.66663 7.58333C4.66663 8.872 5.71129 9.91667 6.99996 9.91667Z" stroke="white" stroke-linecap="round" stroke-linejoin="round"/>
</svg>
