<svg width="14" height="23" viewBox="0 0 14 23" fill="none" xmlns="http://www.w3.org/2000/svg">
<path d="M10.3997 21.9975C10.3997 21.8809 10.3997 21.7907 10.3997 21.7006C10.3997 20.2897 10.4004 18.8782 10.3983 17.4673C10.3983 17.3686 10.3949 17.2661 10.3658 17.1723C10.3056 16.9754 10.1412 16.8797 9.92607 16.8993C9.71294 16.9189 9.57357 17.0392 9.54515 17.2416C9.53568 17.3097 9.54109 17.3796 9.54109 17.4483C9.54109 18.8672 9.54109 20.286 9.54109 21.7042C9.54109 21.7883 9.54109 21.8723 9.54109 21.9766C7.51743 21.9766 5.50324 21.9766 3.46132 21.9766C3.46132 21.892 3.46132 21.8098 3.46132 21.7276C3.46132 20.3013 3.46132 18.8745 3.46132 17.4483C3.46132 17.3796 3.46673 17.3097 3.45726 17.2416C3.42952 17.0392 3.28947 16.9189 3.07635 16.8987C2.86052 16.8784 2.69678 16.9754 2.63657 17.171C2.60747 17.2649 2.60477 17.3673 2.60409 17.4661C2.60206 18.877 2.60274 20.2885 2.60274 21.6993C2.60274 21.7895 2.60274 21.8797 2.60274 21.9926C2.2773 21.9926 1.9708 22.0214 1.67649 21.9797C1.54523 21.9607 1.43225 21.8048 1.32467 21.6993C1.29152 21.6668 1.29693 21.5963 1.29761 21.5435C1.30708 20.0793 1.28746 18.6138 1.33752 17.1508C1.38015 15.9062 2.43562 14.3444 3.52898 13.796C4.22721 14.7652 5.21502 15.3124 6.50053 15.3124C7.77792 15.3124 8.7637 14.7756 9.4802 13.7812C9.86044 14.007 10.1811 14.283 10.4673 14.5916C11.3056 15.4964 11.7034 16.5472 11.7062 17.7237C11.7089 18.9659 11.7075 20.2081 11.7062 21.4509C11.7055 21.876 11.5695 21.9962 11.1006 21.9969C10.8814 21.9975 10.6622 21.9975 10.3997 21.9975Z" fill="#2896FF"/>
<path d="M6.50234 5.51112C5.09031 5.51112 3.67828 5.51418 2.26625 5.50989C1.51728 5.50744 0.946918 5.06209 0.88129 4.4413C0.809572 3.76654 1.35896 3.19299 2.13094 3.13778C2.61537 3.10281 2.73715 2.95314 2.62822 2.52742C2.48546 1.9692 3.05042 1.4619 3.66746 1.59379C4.13769 1.69439 4.27299 1.62016 4.38666 1.19935C4.55987 0.558325 5.18639 0.0608367 5.89071 0.00624192C6.65931 -0.0538737 7.37107 0.324609 7.66944 0.952756C7.68636 0.987721 7.70192 1.0233 7.71613 1.05949C7.87242 1.43798 8.08013 1.51281 8.47458 1.33124C9.1065 1.03986 9.82368 1.19813 10.1938 1.71954C10.3832 1.98638 10.4536 2.27714 10.3792 2.59674C10.3007 2.93412 10.4644 3.1206 10.8284 3.13716C11.6105 3.17274 12.1525 3.68066 12.1389 4.36463C12.1261 5.00443 11.549 5.5056 10.7892 5.50989C9.3609 5.51664 7.93195 5.51112 6.50234 5.51112Z" fill="#2896FF"/>
<path d="M9.08986 12.1742C9.09121 13.4845 7.92613 14.542 6.48434 14.5384C5.05675 14.5347 3.90047 13.4802 3.89844 12.1797C3.89641 10.8738 5.07299 9.80457 6.50396 9.81254C7.9329 9.81991 9.08918 10.8756 9.08986 12.1742Z" fill="#2896FF"/>
<path d="M5.19682 7.6591C5.19682 7.60573 5.19343 7.55175 5.19682 7.49838C5.21508 7.24381 5.38423 7.08187 5.63254 7.07819C5.8822 7.07451 6.05743 7.23032 6.07908 7.48673C6.08923 7.60819 6.08991 7.7321 6.07773 7.85356C6.05269 8.10752 5.8734 8.25842 5.61968 8.24983C5.38085 8.24185 5.21779 8.08604 5.19749 7.84251C5.19276 7.78178 5.19749 7.72044 5.19682 7.6591Z" fill="#2896FF"/>
<path d="M7.81114 7.68381C7.81723 8.07763 7.65687 8.26717 7.34023 8.24877C7.03577 8.23098 6.92075 8.04205 6.93022 7.57646C6.93699 7.26177 7.08719 7.08633 7.35714 7.07836C7.58921 7.07161 7.77257 7.21086 7.8091 7.43169C7.82264 7.51451 7.81114 7.59977 7.81114 7.68381Z" fill="#2896FF"/>
<path d="M4.34862 8.06946C4.34862 8.09277 4.34929 8.11547 4.34862 8.13878C4.34185 8.46512 4.18015 8.65099 3.90546 8.64731C3.6328 8.64363 3.47244 8.45285 3.47041 8.12958C3.46974 8.04493 3.46636 7.96089 3.47177 7.87685C3.48733 7.63087 3.67271 7.45911 3.9156 7.46095C4.15308 7.46341 4.32223 7.61921 4.34456 7.86335C4.35065 7.93206 4.34524 8.00138 4.34524 8.07008C4.34592 8.06947 4.34726 8.06946 4.34862 8.06946Z" fill="#2896FF"/>
<path d="M9.53852 8.05116C9.52566 8.15729 9.52904 8.2677 9.49522 8.36769C9.43094 8.55846 9.27126 8.65968 9.05341 8.64311C8.83893 8.62655 8.68873 8.51368 8.66437 8.31064C8.6461 8.15913 8.64407 8.00393 8.65557 7.8518C8.67317 7.61257 8.8572 7.45614 9.09401 7.46105C9.32675 7.46596 9.50605 7.63281 9.52499 7.86591C9.52973 7.92664 9.52566 7.98859 9.52566 8.04994C9.53039 8.05055 9.53446 8.05055 9.53852 8.05116Z" fill="#2896FF"/>
<path d="M2.59512 9.63464C2.59715 10.0358 2.46386 10.2131 2.16346 10.2125C1.86644 10.2119 1.72773 10.0272 1.72773 9.6328C1.72773 9.56409 1.72435 9.49478 1.72909 9.42607C1.74532 9.19849 1.9341 9.02673 2.16481 9.02735C2.39891 9.02735 2.5782 9.19359 2.59444 9.42791C2.59917 9.49662 2.59512 9.56593 2.59512 9.63464Z" fill="#2896FF"/>
<path d="M11.2754 9.63279C11.2761 10.0266 11.1367 10.2119 10.8404 10.2125C10.5406 10.2131 10.4074 10.0358 10.4067 9.63464C10.4067 9.56593 10.4046 9.49662 10.4094 9.42791C10.4256 9.19358 10.6056 9.02734 10.839 9.02734C11.0697 9.02734 11.2585 9.19849 11.2747 9.42607C11.2795 9.49477 11.2754 9.56409 11.2754 9.63279Z" fill="#2896FF"/>
<path d="M0.864253 10.4065C0.864253 10.4905 0.873047 10.5758 0.862222 10.6592C0.837865 10.8524 0.663985 10.9905 0.450185 10.996C0.226236 11.0015 0.0300272 10.861 0.0104063 10.6617C-0.00515509 10.5095 -0.000422977 10.3556 0.00634285 10.2022C0.0164916 9.97831 0.216761 9.80594 0.447476 9.81269C0.672102 9.81944 0.850046 9.98261 0.865608 10.1998C0.870344 10.2685 0.866285 10.3378 0.866285 10.4065C0.865608 10.4065 0.86493 10.4065 0.864253 10.4065Z" fill="#2896FF"/>
<path d="M13.0057 10.4065C13.0057 10.4832 13.0118 10.5599 13.0044 10.6359C12.9841 10.8506 12.7973 11.0003 12.5632 10.9954C12.3386 10.9905 12.1641 10.8463 12.1478 10.6384C12.137 10.501 12.1404 10.363 12.1451 10.2249C12.1539 9.98264 12.3461 9.80536 12.5862 9.81272C12.819 9.81947 12.9956 9.99122 13.0064 10.2231C13.0091 10.2844 13.0071 10.3458 13.0071 10.4071C13.0071 10.4065 13.0064 10.4065 13.0057 10.4065Z" fill="#2896FF"/>
<path d="M0.000681885 7.25341C0.000681885 6.85775 0.13735 6.67249 0.43031 6.67188C0.728007 6.67065 0.864002 6.85222 0.864002 7.25034C0.864002 7.31904 0.866031 7.38836 0.862648 7.45706C0.849793 7.68771 0.66711 7.85763 0.434365 7.85824C0.202298 7.85947 0.0142149 7.6871 0.00203637 7.46013C-0.00202312 7.39143 0.00135847 7.32211 0.000681885 7.25341Z" fill="#2896FF"/>
<path d="M2.59555 7.66158C2.59555 7.73826 2.60231 7.81494 2.59419 7.891C2.57187 8.1057 2.41017 8.2431 2.18216 8.24924C1.94535 8.25537 1.75727 8.11306 1.73629 7.89591C1.72276 7.75175 1.72479 7.60514 1.73358 7.46038C1.74779 7.22727 1.9325 7.07392 2.17675 7.07821C2.4122 7.08251 2.5766 7.2285 2.59623 7.45608C2.60231 7.52417 2.5969 7.59349 2.5969 7.66219C2.59623 7.66158 2.59622 7.66158 2.59555 7.66158Z" fill="#2896FF"/>
<path d="M13.0045 7.25712C13.0045 7.34116 13.0132 7.42643 13.0024 7.50985C12.9787 7.70615 12.7805 7.86073 12.5687 7.85767C12.3543 7.8546 12.1641 7.69879 12.1486 7.49881C12.1371 7.35405 12.1398 7.20744 12.1459 7.06267C12.1567 6.82957 12.34 6.66885 12.5809 6.67192C12.8184 6.67499 12.995 6.84061 13.0065 7.07371C13.0092 7.13505 13.0072 7.19639 13.0072 7.25773C13.0058 7.25712 13.0051 7.25712 13.0045 7.25712Z" fill="#2896FF"/>
<path d="M11.2608 7.67499C11.2608 7.74369 11.2669 7.81301 11.2595 7.8811C11.2371 8.10193 11.0619 8.24977 10.8278 8.25099C10.5896 8.25222 10.4164 8.1093 10.3989 7.88478C10.388 7.74799 10.3887 7.60936 10.3961 7.47195C10.409 7.23149 10.5788 7.07874 10.8237 7.07813C11.0666 7.07751 11.2432 7.23332 11.2601 7.46826C11.2649 7.53697 11.2608 7.60567 11.2608 7.67437C11.2615 7.67499 11.2615 7.67499 11.2608 7.67499Z" fill="#2896FF"/>
</svg>
