<svg width="31" height="25" viewBox="0 0 31 25" fill="none" xmlns="http://www.w3.org/2000/svg">
<path d="M17.0224 21.3387C21.9175 19.3167 24.2421 13.7203 22.2144 8.83873C20.1867 3.9572 14.5747 1.63913 9.67956 3.66117C4.78444 5.6832 2.45991 11.2796 4.48758 16.1612C6.51525 21.0427 12.1273 23.3608 17.0224 21.3387Z" fill="#23B502"/>
<path d="M30.2897 2.83391C29.9608 2.28784 28.8976 1.9634 27.1268 1.8712C26.1579 1.81979 24.3746 1.83042 23.3204 2.45982C18.5094 5.33731 14.7083 9.62961 11.5063 13.5851L9.39242 10.2962C9.24485 10.0658 8.89817 9.52678 6.146 9.46827C5.17705 9.44877 3.43651 9.48778 2.66135 9.98243C2.10843 10.3352 1.95375 10.9735 2.29155 11.5018L7.57898 19.7319C7.80832 20.0882 8.28657 20.4322 10.2174 20.5332C10.4858 20.5474 10.8432 20.5598 11.2414 20.5598C12.4859 20.5598 14.1251 20.4322 14.6301 19.7992C15.1777 19.1166 15.7324 18.4146 16.2693 17.7337C20.2571 12.6897 24.38 7.47194 29.8914 4.17603C30.4746 3.82853 30.5332 3.23814 30.2897 2.83391Z" fill="white"/>
<path d="M23.7367 3.14806C18.8101 6.0947 15.0108 10.4881 11.4337 14.9594C10.527 13.5482 9.62026 12.1387 8.71532 10.7274C8.31352 10.1016 2.30249 10.02 2.97275 11.066C4.73464 13.8088 6.4983 16.5515 8.26018 19.2961C8.64243 19.89 13.5103 19.9113 14.0027 19.2961C18.5808 13.5836 23.0788 7.31449 29.4792 3.4867C30.5282 2.85907 25.3848 2.16231 23.7367 3.14806Z" fill="#23B502"/>
</svg>
