<svg width="27" height="23" viewBox="0 0 27 23" fill="none" xmlns="http://www.w3.org/2000/svg">
<path d="M14.2314 18.7797C18.53 17.0003 20.5713 12.0754 18.7907 7.77969C17.0101 3.48395 12.0819 1.44405 7.78333 3.22344C3.48471 5.00283 1.44345 9.9277 3.22403 14.2234C5.00461 18.5192 9.93277 20.5591 14.2314 18.7797Z" fill="#F9B715"/>
<path d="M25.8831 2.49284C25.5942 2.0123 24.6606 1.72678 23.1056 1.64565C22.2548 1.60041 20.6888 1.60977 19.763 2.16364C15.5383 4.69583 12.2004 8.47305 9.38862 11.9538L7.53231 9.05968C7.40273 8.85686 7.09829 8.38256 4.6815 8.33108C3.83062 8.31391 2.30218 8.34824 1.62148 8.78353C1.13593 9.09401 1.00011 9.65568 1.29674 10.1206L5.93985 17.363C6.14125 17.6766 6.56122 17.9793 8.25672 18.0682C8.49247 18.0807 8.80628 18.0916 9.156 18.0916C10.2489 18.0916 11.6883 17.9793 12.1317 17.4223C12.6126 16.8216 13.0997 16.2038 13.5712 15.6047C17.073 11.1659 20.6935 6.5743 25.5333 3.6739C26.0454 3.3681 26.097 2.84856 25.8831 2.49284Z" fill="white"/>
<path d="M20.1232 2.77296C15.797 5.366 12.4606 9.23216 9.31942 13.167C8.52319 11.925 7.72696 10.6847 6.93229 9.44278C6.57945 8.89204 1.30092 8.82027 1.8895 9.74078C3.43668 12.1544 4.98543 14.568 6.53261 16.9832C6.86828 17.5059 11.1429 17.5246 11.5754 16.9832C15.5956 11.9563 19.5455 6.43941 25.1659 3.07096C26.0871 2.51865 21.5704 1.9055 20.1232 2.77296Z" fill="#FF9F00"/>
</svg>
