<svg width="19" height="5" viewBox="0 0 19 5" fill="none" xmlns="http://www.w3.org/2000/svg">
<path d="M0 1.93581C0.0361693 1.80804 0.0676412 1.6784 0.108508 1.55204C0.429334 0.558086 1.38383 -0.0694731 2.45716 0.00615357C3.44172 0.0756738 4.30368 0.874217 4.46761 1.8677C4.66819 3.08618 3.86354 4.25675 2.68357 4.4639C1.41718 4.68608 0.271975 3.90022 0.0333519 2.64651C0.0281849 2.61927 0.0112735 2.59437 0 2.56854C0 2.35763 0 2.14672 0 1.93581Z" fill="#E7C109"/>
<path d="M9.00659 0.00390692C10.2547 0.00484638 11.251 1.0096 11.2491 2.26472C11.2472 3.50951 10.2392 4.50534 8.98358 4.50299C7.74114 4.50064 6.74719 3.49025 6.75001 2.23231C6.75282 0.997388 7.75946 0.00296745 9.00659 0.00390692Z" fill="#E7C109"/>
<path d="M13.5078 2.24453C13.5088 0.996921 14.5135 0.00202998 15.7705 0.00390891C17.0158 0.00578783 18.0097 1.01336 18.0069 2.27083C18.0041 3.51233 16.9927 4.50628 15.7353 4.503C14.5022 4.50018 13.5064 3.49025 13.5078 2.24453Z" fill="#E7C109"/>
</svg>
