<svg width="18" height="18" viewBox="0 0 18 18" fill="none" xmlns="http://www.w3.org/2000/svg">
<g clip-path="url(#clip0_468_2728)">
<path d="M14.1299 5.25656C13.5042 2.21546 10.5315 0.257466 7.49043 0.88324C4.88639 1.4191 3.01377 3.70586 3.00183 6.3644C3.00183 6.49107 3.00706 6.62075 3.01831 6.75792C1.16575 6.95402 -0.177079 8.61476 0.0190153 10.4673C0.200774 12.1844 1.64989 13.487 3.37659 13.4853H3.77011C3.76112 13.3609 3.75139 13.2372 3.75139 13.1105C3.75139 10.4197 5.93274 8.23831 8.62361 8.23831C11.3145 8.23831 13.4958 10.4197 13.4958 13.1105C13.4958 13.2372 13.4861 13.3609 13.4771 13.4853H13.8706C16.145 13.4915 17.9937 11.6528 18 9.37844C18.0059 7.19611 16.3084 5.38804 14.1299 5.25656Z" fill="#FE7D43"/>
<path d="M8.62361 17.2332C10.9005 17.2332 12.7462 15.3874 12.7462 13.1105C12.7462 10.8337 10.9005 8.98792 8.62361 8.98792C6.34674 8.98792 4.50098 10.8337 4.50098 13.1105C4.50098 15.3874 6.34674 17.2332 8.62361 17.2332Z" fill="#FF9F00"/>
<path d="M8.62382 15.7341C8.41683 15.7341 8.24902 15.5663 8.24902 15.3593V10.8619C8.24902 10.6549 8.41683 10.4871 8.62382 10.4871C8.83081 10.4871 8.99862 10.6549 8.99862 10.8619V15.3593C8.99858 15.5663 8.83081 15.7341 8.62382 15.7341Z" fill="#FAFAFA"/>
<path d="M8.62362 15.7341C8.52415 15.7343 8.42868 15.6949 8.35827 15.6246L6.85912 14.1255C6.7153 13.9766 6.71945 13.7393 6.86832 13.5955C7.01358 13.4552 7.24382 13.4552 7.38908 13.5955L8.62362 14.8293L9.85743 13.5955C10.0063 13.4517 10.2436 13.4559 10.3874 13.6047C10.5277 13.75 10.5277 13.9802 10.3874 14.1255L8.88823 15.6246C8.81796 15.6947 8.72281 15.7341 8.62362 15.7341Z" fill="#FAFAFA"/>
</g>
<defs>
<clipPath id="clip0_468_2728">
<rect width="18" height="18" fill="white"/>
</clipPath>
</defs>
</svg>
