<svg width="20" height="21" viewBox="0 0 20 21" fill="none" xmlns="http://www.w3.org/2000/svg">
<path d="M11.4799 12.0517C11.5966 12.4572 11.3039 12.9096 10.575 13.065L10.5742 11.3058C11.1759 11.5135 11.3834 11.7123 11.4799 12.0517Z" fill="#FAFF00"/>
<path d="M10.0001 3.48853C6.27407 3.48853 3.25391 6.50945 3.25391 10.2357C3.25391 13.961 6.27407 16.9819 10.0001 16.9819C13.7261 16.9819 16.7463 13.961 16.7463 10.2357C16.7463 6.50945 13.7264 3.48853 10.0001 3.48853ZM9.89236 15.2996H9.36758V14.6245C7.80531 14.5219 6.28022 13.8692 6.08683 12.1019L8.60427 11.8165C8.60427 11.8165 8.62812 12.6798 9.36758 13.0022V10.977C7.86892 10.613 6.34845 10.0785 6.41898 8.25384C6.4808 6.63077 7.88225 5.95826 9.36656 5.81334V5.17109H9.89236V15.2996ZM12.6191 14.0484C12.2074 14.296 11.4413 14.5168 10.5736 14.6017V15.2996H10.1486V5.17084H10.5718L10.5726 5.80693C12.171 5.94749 13.3629 6.69669 13.6394 7.82499L11.1928 8.2287C11.1928 8.2287 11.0884 7.72162 10.5726 7.47668V9.11487C11.4367 9.33494 12.4608 9.6299 13.2118 10.2945C14.4474 11.3879 13.9251 13.2646 12.6191 14.0484ZM9.22164 8.70449C9.26576 8.72757 9.31526 8.74963 9.36656 8.77066V7.43897C8.65788 7.68469 8.56785 8.36772 9.22164 8.70449Z" fill="#FAFF00"/>
<path d="M17.3766 12.6158C16.3897 15.749 13.4598 18.0208 10.0005 18.0208C6.54124 18.0208 3.61137 15.749 2.6244 12.6158H0.273161C1.32195 17.0161 5.27957 20.2871 10.0005 20.2871C14.7207 20.2871 18.6783 17.0161 19.7271 12.6158H17.3766ZM2.26634 10.2866C2.26634 9.83235 2.30532 9.38811 2.38125 8.95593H0.0882323C0.0300093 9.39145 0 9.83518 0 10.2866C0 10.6949 0.024623 11.0976 0.0725865 11.4926H2.36021C2.29814 11.0997 2.26634 10.6967 2.26634 10.2866ZM19.9115 8.95593H17.6195C17.6954 9.38811 17.7344 9.83235 17.7344 10.2866C17.7344 10.6965 17.7026 11.0994 17.6408 11.4926H19.9274C19.9751 11.0976 20 10.6947 20 10.2866C20 9.83518 19.97 9.39171 19.9115 8.95593ZM10.0003 0.287109C5.32343 0.287109 1.39684 3.49707 0.302914 7.83379H2.6639C3.68883 4.76413 6.58613 2.55268 10.0003 2.55268C13.4144 2.55268 16.3117 4.76438 17.3366 7.83379H19.6966C18.6029 3.49733 14.6763 0.287109 10.0003 0.287109Z" fill="#FAFF00"/>
</svg>
