<svg width="20" height="16" viewBox="0 0 20 16" fill="none" xmlns="http://www.w3.org/2000/svg">
<path d="M14.8054 3.36193H10.0748C8.72753 3.36193 7.63472 4.45619 7.63472 5.80526V12.5656C7.63472 12.6856 7.64969 12.7905 7.66466 12.9104H6.78143C5.14969 13.2852 3.51796 13.6449 1.87126 14.0196C2.03593 13.6299 2.2006 13.2402 2.36527 12.8504C1.01796 12.5806 0 11.3815 0 9.94244V3.90157C0 2.26768 1.33233 0.933594 2.96407 0.933594H11.8862C13.3383 0.933594 14.5509 1.96789 14.8054 3.36193Z" fill="#FF9F00"/>
<path d="M19.0064 15.952L14.7008 14.3331H10.2627C9.18628 14.3331 8.30859 13.5387 8.30859 12.5643V5.80395C8.30859 4.82961 9.18628 4.03516 10.2627 4.03516H18.0459C19.1223 4.03516 20 4.82961 20 5.80395V12.5643C20 13.3738 19.4038 14.0483 18.5924 14.2582L19.0064 15.952ZM10.2627 4.85959C9.68308 4.85959 9.2194 5.2793 9.2194 5.80395V12.5643C9.2194 13.089 9.68308 13.5087 10.2627 13.5087H14.8829L17.7313 14.5879L17.4663 13.5087H18.0294C18.609 13.5087 19.0892 13.089 19.0892 12.5643V5.80395C19.0892 5.2793 18.6255 4.85959 18.0459 4.85959H10.2627Z" fill="#FF9F00"/>
</svg>
