<svg width="20" height="19" viewBox="0 0 20 19" fill="none" xmlns="http://www.w3.org/2000/svg">
<path d="M4.0005 14.3347C3.34669 14.3347 2.72237 14.3358 2.09804 14.3347C0.860529 14.3326 0.00139109 13.5073 0.000834655 12.3166C-0.000278218 8.94939 -0.000278218 5.58167 0.000834655 2.21448C0.00139109 1.02214 0.859416 0.194701 2.09526 0.194164C7.36527 0.193091 12.6353 0.193091 17.9047 0.194164C19.1423 0.194164 19.9986 1.02 19.9992 2.21394C20.0003 5.58113 20.0003 8.94885 19.9992 12.316C19.9986 13.5089 19.1411 14.3337 17.9025 14.3342C15.3056 14.3353 12.7087 14.3326 10.1124 14.3401C9.98776 14.3406 9.83919 14.39 9.74181 14.4646C8.25724 15.5995 6.77879 16.743 5.29922 17.8844C5.22856 17.9386 5.15956 17.9949 5.08722 18.0464C4.86854 18.2015 4.63206 18.2434 4.38277 18.1259C4.12792 18.0062 4.00217 17.8007 4.00161 17.5286C3.99994 16.5445 4.00106 15.5603 4.0005 14.5762C4.0005 14.5038 4.0005 14.4313 4.0005 14.3347ZM10.01 5.3359C9.1698 5.3359 8.32958 5.3359 7.48936 5.3359C6.55176 5.3359 5.61472 5.33322 4.67713 5.33751C4.32101 5.33912 4.04335 5.57952 4.00384 5.90363C3.96433 6.22613 4.18802 6.53306 4.52355 6.60443C4.61703 6.62429 4.71663 6.62107 4.81345 6.62107C8.27115 6.6216 11.7294 6.6216 15.1871 6.6216C15.2494 6.6216 15.3123 6.62536 15.3746 6.61946C15.6556 6.59263 15.8559 6.45365 15.9561 6.19876C16.1275 5.76357 15.7931 5.33751 15.2795 5.33697C13.5234 5.33483 11.7667 5.3359 10.01 5.3359ZM7.33411 9.19247C8.20215 9.19247 9.06964 9.19784 9.93768 9.18764C10.0829 9.18603 10.2432 9.14471 10.3684 9.07495C10.621 8.93436 10.7206 8.6387 10.6393 8.3763C10.5492 8.08438 10.3033 7.90784 9.96773 7.90784C8.2322 7.90623 6.49612 7.90677 4.76059 7.90731C4.30153 7.90731 3.99827 8.16702 4.00106 8.55499C4.00384 8.93919 4.30932 9.19247 4.77228 9.19247C5.62641 9.19247 6.47998 9.19247 7.33411 9.19247Z" fill="#6FCF97"/>
</svg>
