<svg width="25" height="29" viewBox="0 0 25 29" fill="none" xmlns="http://www.w3.org/2000/svg">
<path d="M13.5783 5.00343C13.8269 4.23774 14.1377 3.54165 14.6349 2.91518C16.1264 1.03576 18.053 0.339673 20.2281 0.966148C22.4654 1.59262 23.7705 3.33283 24.2677 5.83873C24.5163 7.16128 24.2055 8.27502 23.7083 9.45836C23.0869 10.9201 22.3411 12.2427 21.4711 13.5652C21.3468 13.7741 21.3468 13.9133 21.3468 14.1221C22.6518 20.5957 18.923 27.0693 13.1433 28.4614C7.42578 29.8536 1.83253 25.9555 0.340993 19.6212C-1.02625 13.7741 1.83253 7.57894 6.86645 5.42108C9.10375 4.51617 11.341 4.37695 13.5783 5.00343ZM1.52179 12.5907C1.52179 12.5907 1.52179 12.6603 1.58394 12.6603C1.77038 12.5907 1.95682 12.5211 2.14326 12.4515C2.454 12.2427 2.76473 11.8946 3.13762 11.6858C3.44835 11.5466 3.75909 11.4074 4.06983 11.3378C4.44271 11.2682 4.6913 11.5466 4.87774 11.8946C5.00204 12.2427 4.87774 12.5211 4.6913 12.7996C4.62915 12.8692 4.56701 12.9388 4.50486 13.0084C4.19412 13.426 4.06983 13.8437 4.19412 14.4005C4.38057 14.8878 4.75345 15.1662 5.18848 15.2358C5.43707 15.3055 5.68565 15.3055 5.93424 15.4447C6.36927 15.6535 6.43142 16.0711 6.18283 16.4888C6.05854 16.6976 5.93424 16.8368 5.80995 17.0457C5.49921 17.3937 5.43707 17.8114 5.56136 18.2986C5.62351 18.6467 5.68566 19.0643 5.7478 19.4123C5.8721 20.1084 5.62351 20.5957 5.06418 20.8741C4.87774 21.0133 4.62915 21.0829 4.44271 21.2222C4.00768 21.5006 3.88339 21.8486 3.94553 22.4055C4.00768 22.6143 4.06983 22.8928 4.19412 23.1016C4.38057 23.4496 4.56701 23.7977 4.8156 24.1457C5.18848 24.7722 5.43707 25.3987 5.56136 26.0947C5.56136 26.1643 5.68566 26.3036 5.7478 26.3732C8.23369 27.9742 10.906 28.3222 13.7027 27.4869C13.8891 27.4173 13.9512 27.3477 13.8891 27.1389C13.8891 26.3732 14.0755 25.7467 14.4484 25.1898C14.6349 24.9114 14.8213 24.633 15.0077 24.2849C15.8156 22.9624 16.2507 21.5006 16.1264 19.8996C16.0642 19.2035 16.0021 18.5074 15.9399 17.8113C15.9399 17.1849 16.1885 16.628 16.6857 16.3496C16.9964 16.1408 17.3072 16.0711 17.6179 15.9319C16.7479 14.5398 15.8157 13.1476 14.8834 11.7554C14.697 11.8946 14.5106 12.0339 14.3241 12.1731C13.9512 12.4515 13.6405 12.7299 13.2676 13.0084C12.7083 13.426 12.149 13.5652 11.5275 13.5652C9.97382 13.426 8.91731 12.1035 8.85516 10.3633C8.85516 9.73679 8.85516 9.04071 8.54443 8.41423C8.23369 7.78776 7.86081 7.50933 7.23933 7.57893C7.11504 7.57893 6.99075 7.64854 6.8043 7.64854C6.24498 7.78776 5.7478 7.78776 5.43707 7.23089C3.69695 8.55345 2.32971 10.3633 1.52179 12.5907ZM18.7987 16.1408C18.8609 16.0015 18.923 15.9319 18.923 15.9319C19.6066 14.9574 20.2902 13.9829 20.9117 13.0084C21.7818 11.6858 22.5897 10.2937 23.149 8.76228C23.4598 7.92698 23.6462 7.16128 23.5219 6.25638C23.0869 3.0544 20.3524 0.966147 17.5558 1.87105C15.0077 2.63675 13.2055 5.97795 14.5106 8.90149C15.0077 10.0848 15.6292 11.2682 16.3128 12.3819C17.1207 13.5652 17.9908 14.8182 18.7987 16.1408ZM20.7253 14.7486C20.3524 15.3055 19.9795 15.7927 19.6688 16.28C20.1038 16.6976 20.4767 17.1153 20.8496 17.5329C20.9117 16.628 20.9117 15.7231 20.7253 14.7486Z" fill="white"/>
<path d="M11.2797 22.0614C11.2797 22.8967 11.2175 23.7319 10.9068 24.428C10.4718 25.3329 9.78814 25.8202 8.91808 25.681C8.35875 25.6114 7.73728 25.0545 7.55084 24.428C7.48869 24.1496 7.4887 23.8712 7.67514 23.6623C8.04802 23.2447 8.11017 22.6878 8.11017 22.131C8.11017 21.5045 8.17232 20.9476 8.23446 20.3211C8.23446 20.2515 8.2966 20.1123 8.2966 20.0427C8.48305 19.4162 8.79378 18.929 9.41526 18.8594C10.0989 18.7898 10.5339 19.1378 10.9068 19.7643C11.2175 20.2515 11.2797 20.8084 11.2797 21.4349C11.2797 21.6437 11.2797 21.8525 11.2797 22.0614Z" fill="white"/>
<path d="M16.377 6.74185C16.377 5.21047 17.4956 3.95752 18.8628 3.95752C20.2301 3.95752 21.3487 5.21047 21.3487 6.74185C21.3487 8.27323 20.1679 9.52618 18.8628 9.52618C17.4956 9.52618 16.377 8.27323 16.377 6.74185Z" fill="white"/>
</svg>
