<svg width="26" height="29" viewBox="0 0 26 29" fill="none" xmlns="http://www.w3.org/2000/svg">
<path d="M0 5.42904C0.0635036 5.00228 0.127007 4.64664 0.190511 4.21987C0.381022 3.36634 0.762043 2.7262 1.39708 2.29943C2.15912 1.80154 2.85766 1.30365 3.61971 0.805755C4.19124 0.450117 4.76277 0.592371 5.14379 1.23252C6.28686 3.15296 7.42992 5.0734 8.57298 6.99385C8.95401 7.63399 8.827 8.27414 8.31897 8.7009C7.74744 9.1988 7.1124 9.76782 6.54087 10.2657C5.90583 10.8347 5.84233 11.3326 6.22335 12.115C7.17591 14.1777 8.57298 15.9559 10.0336 17.5918C11.1131 18.801 12.1927 19.939 13.4628 20.8637C13.9073 21.2193 14.4153 21.5039 14.9233 21.7884C15.4314 22.0729 15.9394 21.9306 16.3204 21.4327C16.7649 20.7926 17.273 20.0813 17.7175 19.4412C18.2255 18.7299 18.7971 18.5876 19.4321 19.0855C21.0832 20.2947 22.7343 21.5039 24.3854 22.7841C25.0839 23.282 25.2109 23.9222 24.7664 24.7046C24.3854 25.4159 24.0044 26.056 23.6868 26.7673C23.1788 27.8342 22.3533 28.3321 21.3372 28.4743C21.1467 28.4743 20.9562 28.5455 20.7657 28.6166C20.3211 28.6166 19.9401 28.6166 19.4956 28.6166C19.4321 28.6166 19.3686 28.6166 19.3051 28.5455C18.7971 28.4743 18.2255 28.4032 17.7175 28.1898C15.8124 27.6208 14.0343 26.5539 12.4467 25.3447C9.90656 23.4243 7.74744 21.0771 5.65182 18.5165C4.12773 16.5961 2.73065 14.6045 1.65109 12.3284C1.07956 11.1904 0.635036 9.9812 0.381022 8.7009C0.254015 8.13188 0.190511 7.56286 0.127007 6.92272C-1.23016e-07 6.3537 0 5.92693 0 5.42904Z" fill="white"/>
<path d="M14.5438 4.01025C16.4489 4.15251 18.1 4.86378 19.5606 6.28633C20.9577 7.63776 21.7832 9.27369 22.1642 11.2653C22.2912 11.8343 22.2912 12.4744 22.3547 13.0434C22.3547 13.3991 22.2277 13.5413 21.9737 13.6125C21.7197 13.6125 21.5292 13.3991 21.5292 13.1146C21.4657 12.6167 21.4657 12.0477 21.4022 11.5498C20.8307 8.70467 19.3066 6.64197 16.8934 5.57506C16.1314 5.21942 15.3058 5.07717 14.4803 5.00604C14.4168 5.00604 14.2898 5.00604 14.2263 4.93491C13.9723 4.86378 13.8453 4.6504 13.9088 4.43702C13.9088 4.15251 14.0993 4.01025 14.3533 4.01025C14.2898 4.01025 14.4168 4.01025 14.5438 4.01025Z" fill="white"/>
<path d="M14.4792 6.92122C16.8924 6.99235 19.0515 8.98392 19.6865 11.6868C19.8135 12.1135 19.8135 12.6114 19.8135 13.0382C19.8135 13.3938 19.6865 13.6072 19.4325 13.6072C19.1785 13.6072 18.988 13.3938 18.988 13.0382C18.988 12.398 18.861 11.7579 18.6705 11.1889C17.9719 9.33956 16.7654 8.27265 14.9873 7.91701C14.7332 7.84588 14.5427 7.84588 14.2887 7.84588C13.9712 7.77476 13.7807 7.56137 13.8442 7.27686C13.8442 6.99235 14.0347 6.8501 14.3522 6.8501C14.3522 6.92123 14.4157 6.92122 14.4792 6.92122Z" fill="white"/>
<path d="M14.3528 9.76807C15.8769 9.83919 17.1469 11.2617 17.2104 12.9688C17.2104 13.3956 17.0834 13.5378 16.8294 13.609C16.5754 13.609 16.3849 13.3956 16.3849 13.0399C16.3849 12.4709 16.1944 11.973 15.8134 11.5463C15.4323 11.1195 14.9878 10.835 14.4163 10.7639C14.3528 10.7639 14.2258 10.7639 14.1623 10.6927C13.9083 10.6216 13.7812 10.4082 13.7812 10.1948C13.7812 9.91032 13.9718 9.76807 14.2258 9.76807C14.2893 9.76807 14.3528 9.76807 14.3528 9.76807Z" fill="white"/>
</svg>
