<svg width="30" height="29" viewBox="0 0 30 29" fill="none" xmlns="http://www.w3.org/2000/svg">
<ellipse cx="14.6921" cy="14.2346" rx="14.6187" ry="14.2346" fill="white"/>
<path d="M9.0266 16.0567V12.3967C9.0266 9.13929 11.6787 6.5 14.9519 6.5C18.2252 6.5 20.8773 9.13929 20.8773 12.3967V16.0567C20.8773 19.3142 18.2252 21.9534 14.9519 21.9534" stroke="black" stroke-width="0.761685" stroke-miterlimit="10"/>
<path d="M10.2211 12.4067C10.1415 12.4006 10.0638 12.3945 9.98209 12.3945C8.12072 12.3945 6.61078 13.8972 6.61078 15.7496V16.3596C6.61078 18.2119 8.12072 19.7146 9.98209 19.7146C10.0618 19.7146 10.1415 19.7085 10.2211 19.7024V12.4067Z" fill="black"/>
<path d="M19.6855 12.4067C19.7652 12.4006 19.8428 12.3945 19.9246 12.3945C21.7859 12.3945 23.2959 13.8972 23.2959 15.7496V16.3596C23.2959 18.2119 21.7859 19.7146 19.9246 19.7146C19.8449 19.7146 19.7652 19.7085 19.6855 19.7024V12.4067Z" fill="black"/>
<path d="M16.9951 21.8525C16.9951 22.3588 16.5844 22.7675 16.0756 22.7675H13.8281C13.3193 22.7675 12.9086 22.3588 12.9086 21.8525C12.9086 21.3462 13.3193 20.9375 13.8281 20.9375H16.0756C16.5844 20.9375 16.9951 21.3462 16.9951 21.8525Z" fill="black"/>
</svg>
