<svg width="358" height="52" viewBox="0 0 358 52" fill="none" xmlns="http://www.w3.org/2000/svg">
<g clip-path="url(#clip0_11_11)">
<path d="M353 6.56982H21C18.2386 6.56982 16 8.8084 16 11.5698V46.372C16 49.1334 18.2386 51.372 21 51.372H353C355.761 51.372 358 49.1334 358 46.372V11.5698C358 8.8084 355.761 6.56982 353 6.56982Z" fill="white"/>
<path d="M54.8352 36.1646L50.3357 5.2577C49.9779 2.80043 47.871 0.978027 45.3878 0.978027H5.78052C2.73239 0.978027 0.393542 3.68202 0.832672 6.69835L5.1225 36.1646C6.40316 45.104 11.2929 51.3805 16.8813 51.3805H66.594C61.0057 51.3805 56.2323 45.104 54.8352 36.1646Z" fill="#2896FF"/>
</g>
<defs>
<clipPath id="clip0_11_11">
<rect width="358" height="52" fill="white"/>
</clipPath>
</defs>
</svg>
