<svg width="25" height="26" viewBox="0 0 25 26" fill="none" xmlns="http://www.w3.org/2000/svg">
<path d="M25 9.00146C25 9.27802 25 9.4163 25 9.62372C25 13.9103 25 18.1278 25 22.4145C25 23.8664 24.1358 25.18 22.5926 25.18C15.8642 25.18 9.1358 25.18 2.46914 25.18C0.864198 25.18 0 23.7972 0 22.4145C0.0617284 18.1278 0 13.9103 0 9.62372C0 9.4163 0 9.27802 0 9.00146C0.123457 9.0706 0.246913 9.13975 0.370369 9.20888C4.1358 11.8362 7.8395 14.3943 11.5432 17.0216C12.2222 17.5056 12.7778 17.5056 13.4568 17.0216C17.1605 14.4635 20.8025 11.8362 24.5062 9.27802C24.6296 9.20888 24.7531 9.13974 25 9.00146Z" fill="white"/>
<path d="M24.755 8.79606C16.5451 8.79606 8.4587 8.79606 0.310547 8.79606C0.434004 8.65779 0.55746 8.58865 0.619189 8.51951C4.44635 5.82308 8.33524 3.12665 12.1624 0.430224C12.4093 0.222806 12.5945 0.291946 12.8414 0.430224C16.6686 3.12665 20.4957 5.75394 24.2612 8.45037C24.4463 8.58865 24.5698 8.65779 24.755 8.79606Z" fill="white"/>
</svg>
