<svg width="36" height="41" viewBox="0 0 36 41" fill="none" xmlns="http://www.w3.org/2000/svg">
<path d="M3.41168 30.4983C2.40549 30.2729 1.60054 29.747 0.963281 28.883C-0.177071 27.3428 -0.31123 25.2015 0.594344 23.4734C0.694963 23.248 0.762043 22.9851 0.762043 22.7597C0.728503 20.4306 0.862661 18.1766 1.46638 15.9226C2.07009 13.6686 3.04275 11.6025 4.3508 9.72415C4.5185 9.49875 4.55204 9.31092 4.45142 9.04796C4.14956 7.95853 4.38434 7.01937 5.12221 6.26804C7.57061 3.7511 10.4215 2.02305 13.7084 1.30929C19.7455 -0.0431032 25.1119 1.60982 29.7739 6.15535C30.6124 6.98181 30.8807 7.9961 30.5118 9.19822C30.4783 9.31092 30.5118 9.53632 30.5789 9.64902C32.323 12.0908 33.4633 14.8707 33.9329 17.9512C34.1341 19.1909 34.1341 20.5057 34.2012 21.7829C34.2347 22.121 34.2683 22.3464 34.503 22.5718C36.7837 25.0888 35.7775 29.4465 32.7254 30.4232C32.6248 30.4608 32.4907 30.4608 32.3565 30.4983C32.3565 27.4179 32.3565 24.4126 32.3565 21.3322C32.4571 21.3322 32.5577 21.2946 32.6919 21.2946C32.6919 19.6417 32.4907 17.9887 32.0546 16.411C31.518 14.3824 30.6795 12.5416 29.5056 10.8887C29.405 10.7384 29.3044 10.5882 29.0361 10.6633C28.164 11.0014 27.3591 10.7384 26.6883 10.0622C24.8771 8.2215 22.7977 6.94424 20.4163 6.38074C15.9891 5.36645 12.0314 6.49344 8.57681 9.76172C8.07371 10.2125 7.60415 10.7384 6.93336 10.776C6.53088 10.8136 6.1284 10.7384 5.62531 10.7009C3.37814 13.8189 2.27133 17.5004 2.27133 21.6703C2.64027 21.52 3.00921 21.4073 3.37814 21.257C3.41168 24.3375 3.41168 27.3803 3.41168 30.4983Z" fill="white"/>
<path d="M17.4982 28.6954C16.7603 28.5075 16.0224 28.3573 15.2845 28.1319C14.9492 28.0192 14.6473 28.0192 14.3119 28.1694C13.5405 28.5451 12.7355 28.6954 11.897 28.5075C11.7964 28.47 11.6958 28.3573 11.5952 28.3197C11.6623 28.207 11.7293 28.0568 11.7964 27.9441C12.0647 27.6811 12.3666 27.4933 12.6014 27.2303C12.9703 26.8546 12.9368 26.5917 12.6014 26.1409C11.7293 25.0514 11.1927 23.8118 10.9915 22.3842C10.3542 18.4398 12.9368 14.4953 16.4584 13.9694C20.0472 13.4434 23.1329 15.8852 23.8707 19.8673C24.5751 23.7742 22.1267 27.7562 18.605 28.4324C18.236 28.5075 17.8336 28.5451 17.4646 28.5827C17.5317 28.6578 17.5317 28.6954 17.4982 28.6954ZM17.4982 16.3736C16.1901 16.3736 15.1169 17.4255 14.9492 18.853C14.9492 18.9657 14.9492 19.0408 14.9492 19.1535C14.9492 19.6419 15.2175 20.0176 15.6199 20.0176C16.056 20.0551 16.3578 19.7546 16.4249 19.2662C16.5255 18.5149 16.8609 18.1017 17.3976 18.0265C17.9007 17.989 18.3702 18.3271 18.5044 18.8906C18.6721 19.4916 18.4373 19.98 17.8 20.3556C16.8274 20.9567 16.5926 21.9334 16.7603 23.0604C16.8274 23.4737 17.1292 23.6991 17.4646 23.7366C17.8336 23.7366 18.1019 23.5112 18.2025 23.098C18.236 22.9853 18.2696 22.835 18.236 22.7223C18.169 22.234 18.3367 21.9334 18.7727 21.6705C19.8124 21.0318 20.282 19.6795 19.9466 18.4022C19.6783 17.2001 18.6721 16.336 17.4982 16.3736ZM18.2696 25.3895C18.2696 24.9387 17.9342 24.5631 17.4982 24.5631C17.0957 24.5631 16.7603 24.9387 16.7603 25.3895C16.7603 25.8403 17.0957 26.2536 17.4982 26.2536C17.9006 26.216 18.2696 25.8403 18.2696 25.3895Z" fill="white"/>
<path d="M21.0876 38.0848C20.551 39.5499 19.5448 40.1509 18.1697 40.0382C17.5659 40.0007 16.9958 40.0382 16.3921 40.0382C16.2244 40.0382 16.0902 40.0382 15.9225 40.0007C14.6815 39.7001 13.776 38.498 13.8095 37.1456C13.843 35.7181 14.7486 34.516 16.0902 34.4033C17.0293 34.2906 18.002 34.3281 18.9411 34.4033C19.9808 34.516 20.6851 35.2297 21.0876 36.3192C22.7646 36.3192 24.4416 36.3567 26.085 36.3192C27.1919 36.2816 28.0974 35.1922 28.1645 33.9525C28.1645 33.7646 28.1645 33.6144 28.1645 33.4266C28.1981 32.8631 28.1645 32.3747 27.6614 31.999C27.1919 31.6609 27.0577 31.0599 27.0577 30.4212C27.0577 27.3784 27.0577 24.3355 27.0577 21.2551C27.0577 20.0529 27.8962 19.1138 28.9359 19.1138C29.9757 19.1138 30.8142 20.0529 30.8142 21.2926C30.8142 24.3355 30.8142 27.3784 30.8142 30.4212C30.8142 30.6091 30.7806 30.7969 30.7471 30.9847C30.6465 31.5482 30.3781 31.9615 29.9757 32.262C29.7409 32.4123 29.7073 32.6001 29.7073 32.8631C29.7073 33.5017 29.7073 34.1779 29.5732 34.7789C29.2042 36.6573 27.6614 38.0472 25.9173 38.0472C24.3074 38.0472 22.7311 38.0472 21.1212 38.0472C21.1547 38.0472 21.1212 38.0848 21.0876 38.0848Z" fill="white"/>
<path d="M8.71153 25.8757C8.71153 27.3784 8.71153 28.881 8.71153 30.4212C8.71153 31.6609 7.90658 32.6001 6.86684 32.6001C5.79357 32.6001 4.95508 31.6985 4.95508 30.4212C4.95508 27.3784 4.95508 24.3355 4.95508 21.2926C4.95508 20.0529 5.79357 19.1138 6.86684 19.1138C7.94012 19.1138 8.74507 20.0529 8.74507 21.3302C8.71153 22.8704 8.71153 24.3731 8.71153 25.8757Z" fill="white"/>
</svg>
