<svg width="16" height="16" viewBox="0 0 16 16" fill="none" xmlns="http://www.w3.org/2000/svg">
<path d="M15.5 6.33333V14.6667C15.5 14.8877 15.4122 15.0996 15.2559 15.2559C15.0996 15.4122 14.8877 15.5 14.6667 15.5H6.33333C6.11232 15.5 5.90036 15.4122 5.74408 15.2559C5.5878 15.0996 5.5 14.8877 5.5 14.6667V6.33333C5.5 6.11232 5.5878 5.90036 5.74408 5.74408C5.90036 5.5878 6.11232 5.5 6.33333 5.5H14.6667C14.8877 5.5 15.0996 5.5878 15.2559 5.74408C15.4122 5.90036 15.5 6.11232 15.5 6.33333ZM3 9.66666H2.16667V2.16667H9.66666V3C9.66666 3.22101 9.75446 3.43297 9.91074 3.58925C10.067 3.74554 10.279 3.83333 10.5 3.83333C10.721 3.83333 10.933 3.74554 11.0893 3.58925C11.2455 3.43297 11.3333 3.22101 11.3333 3V1.33333C11.3333 1.11232 11.2455 0.900358 11.0893 0.744078C10.933 0.587797 10.721 0.5 10.5 0.5H1.33333C1.11232 0.5 0.900358 0.587797 0.744078 0.744078C0.587797 0.900358 0.5 1.11232 0.5 1.33333V10.5C0.5 10.721 0.587797 10.933 0.744078 11.0893C0.900358 11.2455 1.11232 11.3333 1.33333 11.3333H3C3.22101 11.3333 3.43297 11.2455 3.58925 11.0893C3.74554 10.933 3.83333 10.721 3.83333 10.5C3.83333 10.279 3.74554 10.067 3.58925 9.91074C3.43297 9.75446 3.22101 9.66666 3 9.66666Z" fill="#FE7D43"/>
</svg>
