<svg width="19" height="22" viewBox="0 0 19 22" fill="none" xmlns="http://www.w3.org/2000/svg">
<path d="M17.6247 2.72396C16.8819 1.93168 15.6594 1.94665 14.9285 2.04338L15.0444 0.682617H3.6731L3.78903 2.04338C3.05817 1.94665 1.83559 1.9313 1.09283 2.72396C0.460236 3.39839 0.367344 4.42367 0.81607 5.77023C1.62677 8.20195 4.48112 8.89135 5.87451 9.08482C6.80843 9.90396 8.0287 10.4003 9.35876 10.4003C10.6888 10.4003 11.9091 9.90396 12.8434 9.08482C14.2368 8.89135 17.0911 8.20195 17.9018 5.77023C18.3502 4.42367 18.2573 3.39877 17.6247 2.72396ZM2.18874 5.31306C1.92887 4.53268 1.91428 3.96534 2.14766 3.71507C2.45935 3.38073 3.35028 3.40837 3.91608 3.53427L4.08843 5.55911C4.14102 6.17711 4.30339 6.75981 4.54714 7.29644C3.56447 6.96402 2.5415 6.37096 2.18874 5.31306ZM11.3667 8.13324H7.7934V7.27878H9.06319V3.54272L7.88284 4.25093V3.31471L9.49464 2.3378H10.1054V7.27878H11.3667V8.13324ZM16.5284 5.31306C16.1756 6.37096 15.1527 6.9644 14.1704 7.29644C14.4145 6.76019 14.5765 6.17711 14.6291 5.55911L14.8014 3.53427C15.3672 3.40837 16.2582 3.38112 16.5695 3.71507C16.8032 3.96534 16.7887 4.53268 16.5284 5.31306Z" fill="#FF9F00"/>
<path d="M9.59456 11.0329C9.2345 11.0329 8.87944 11.0133 8.53589 10.9757V15.3179H10.6532V10.9757C10.3097 11.0129 9.95462 11.0329 9.59456 11.0329Z" fill="#FF9F00"/>
<path d="M12.8436 15.9941H6.11266C5.74569 15.9941 5.43093 16.2567 5.36568 16.6179L4.53809 21.1697H14.4185L13.5909 16.6179C13.5253 16.2571 13.2105 15.9941 12.8436 15.9941Z" fill="#FF9F00"/>
</svg>
