<svg width="18" height="13" viewBox="0 0 18 13" fill="none" xmlns="http://www.w3.org/2000/svg">
<path d="M17.9995 4.34902C17.8901 4.4725 17.792 4.60912 17.6685 4.71569C17.577 4.79457 17.462 4.7664 17.4033 4.65137C17.3047 4.45982 17.1343 4.40865 16.9408 4.38423C15.6826 4.2232 14.4248 4.05981 13.1666 3.89784C11.7985 3.72131 10.4299 3.54478 9.06133 3.3706C8.77588 3.33445 8.51202 3.53868 8.44958 3.83446C8.39465 4.09221 8.56883 4.39644 8.84301 4.45466C9.16227 4.52273 9.4895 4.55372 9.81392 4.59644C10.7815 4.72321 11.7496 4.84809 12.7177 4.97251C13.6741 5.09505 14.6309 5.21571 15.5873 5.33731C15.7671 5.36031 15.9464 5.38425 16.1263 5.40867C16.2699 5.42839 16.3155 5.51618 16.3145 5.65468C16.3103 6.22277 16.3126 6.79086 16.3126 7.35894C16.3126 8.80545 16.3126 10.252 16.3126 11.698C16.3126 12.1083 16.1023 12.359 15.7563 12.3614C15.407 12.3637 15.1891 12.105 15.1891 11.6872C15.1891 9.80735 15.1891 7.9275 15.1891 6.04812C15.1891 5.97816 15.1891 5.90821 15.1891 5.80868C15.1154 5.83731 15.0582 5.8575 15.0028 5.88145C13.1328 6.69226 11.2609 7.49979 9.3942 8.31765C9.12048 8.43737 8.88104 8.43361 8.60733 8.31436C5.88709 7.12748 3.16309 5.94952 0.440031 4.76922C0.0667837 4.60771 -0.0843937 4.31052 0.0461253 3.99268C0.117958 3.81709 0.260683 3.72507 0.427353 3.65277C2.97435 2.55087 5.52088 1.44756 8.06694 0.344718C8.2707 0.256453 8.47822 0.175701 8.67681 0.0771077C8.90593 -0.036979 9.11814 -0.0158522 9.34819 0.0841498C11.2323 0.905762 13.1192 1.72033 15.0056 2.53725C15.8417 2.89923 16.676 3.26449 17.5145 3.62037C17.7347 3.7138 17.9103 3.84056 18 4.06827C17.9995 4.16169 17.9995 4.25559 17.9995 4.34902Z" fill="#FF9F00"/>
<path d="M14.6108 8.65335C14.6108 9.04538 14.6483 9.4421 14.6028 9.82849C14.5103 10.6163 14.0422 11.1877 13.4323 11.6525C12.6826 12.2243 11.8215 12.5497 10.9079 12.7337C9.36747 13.0445 7.83692 12.999 6.33032 12.5318C5.50542 12.276 4.74625 11.8938 4.13497 11.2651C3.63308 10.7487 3.35373 10.1421 3.37627 9.4036C3.39411 8.81251 3.37955 8.22095 3.38002 7.62939C3.38049 7.36459 3.47298 7.30262 3.71618 7.40826C5.21668 8.0571 6.71952 8.70124 8.2158 9.35994C8.74773 9.59375 9.25901 9.59468 9.79001 9.36088C11.2769 8.70734 12.7689 8.06602 14.2591 7.41953C14.5371 7.29887 14.6248 7.35521 14.6253 7.65192C14.6258 7.98573 14.6253 8.31954 14.6253 8.65335C14.6202 8.65335 14.6155 8.65335 14.6108 8.65335Z" fill="#FF9F00"/>
</svg>
