<svg width="14" height="17" viewBox="0 0 14 17" fill="none" xmlns="http://www.w3.org/2000/svg">
<path d="M7.48242 16.5235C7.16074 16.5235 6.83907 16.5235 6.51674 16.5235C6.48425 16.513 6.45176 16.4963 6.41861 16.4935C5.90523 16.4538 5.4055 16.3369 4.92006 16.16C2.05358 15.1142 0.0357999 12.1307 0.00395725 8.8924C-0.00254124 8.24766 0.0020058 7.60221 0.0020058 6.95747C0.0020058 5.30732 -0.00449285 3.65717 0.00590473 2.00771C0.00980383 1.33442 0.241801 0.754428 0.76298 0.349201C1.29066 -0.0609004 1.87292 -0.0901422 2.46624 0.159121C3.55278 0.615176 4.67442 0.894379 5.8383 0.994641C6.78513 1.0768 7.72741 1.03503 8.66514 0.900647C9.63602 0.76209 10.5854 0.51979 11.5115 0.170264C12.0587 -0.0358311 12.611 -0.0420995 13.1238 0.29002C13.745 0.692462 13.9939 1.32189 13.9952 2.07246C13.9998 4.30817 14.005 6.54388 13.9907 8.78029C13.9874 9.27116 13.94 9.76899 13.8529 10.2508C13.5572 11.8905 12.8307 13.29 11.7045 14.4458C10.7213 15.4547 9.56519 16.1224 8.22 16.3961C7.97566 16.4455 7.72806 16.4817 7.48242 16.5235ZM6.85921 11.0056C6.6896 11.0251 6.4888 11.0397 6.2906 11.0717C5.43929 11.2103 4.68157 11.5563 4.07461 12.2303C3.88226 12.4441 3.87316 12.7128 4.05187 12.9043C4.22538 13.0902 4.47297 13.086 4.67247 12.8918C4.7654 12.8012 4.85053 12.7003 4.95061 12.6209C5.76747 11.9734 6.6922 11.8306 7.66957 11.9977C8.30318 12.1057 8.8666 12.3814 9.32214 12.8841C9.5132 13.0951 9.78093 13.0902 9.95249 12.898C10.128 12.7024 10.1163 12.4364 9.91805 12.224C9.81863 12.1175 9.7179 12.011 9.60808 11.9184C8.81136 11.2472 7.88468 11.0118 6.85921 11.0056ZM9.98239 7.62519C10.655 7.62101 11.208 7.42536 11.7389 7.14476C11.9085 7.05494 11.9904 6.86417 11.9612 6.67548C11.9124 6.36077 11.635 6.21107 11.3419 6.32804C11.0377 6.44919 10.7356 6.58706 10.4204 6.66016C9.97719 6.76321 9.54114 6.71308 9.15838 6.41368C8.92054 6.22708 8.66449 6.24728 8.50788 6.46939C8.35322 6.68801 8.39871 6.94494 8.63395 7.14059C9.05116 7.48872 9.53464 7.61962 9.98239 7.62519ZM4.00248 7.55765C4.09281 7.55765 4.18379 7.5667 4.27347 7.55626C4.73161 7.50265 5.15661 7.35573 5.50363 7.01665C5.68169 6.84328 5.69143 6.58288 5.54197 6.39489C5.3938 6.20759 5.14491 6.16442 4.96035 6.3169C4.54575 6.65946 4.07721 6.71657 3.59112 6.59472C3.28635 6.51813 2.99521 6.38096 2.69953 6.26538C2.46948 6.17556 2.23749 6.26469 2.13936 6.48958C2.03993 6.71587 2.11662 6.98323 2.33107 7.09463C2.85874 7.36827 3.40591 7.56949 4.00248 7.55765Z" fill="#F9DF02"/>
</svg>
