<svg width="34" height="30" viewBox="0 0 34 30" fill="none" xmlns="http://www.w3.org/2000/svg">
<path d="M16.0094 13.2294C16.0094 17.4 16.0094 21.5705 16.0094 25.741C16.0094 26.2343 15.7852 26.4586 15.2919 26.4586C11.6146 26.4586 7.89256 26.4586 4.21531 26.4586C3.72202 26.4586 3.4978 26.2343 3.4978 25.6514C3.4978 19.3731 3.4978 13.0501 3.4978 6.77183C3.4978 4.79868 3.4978 2.82552 3.4978 0.852368C3.4978 0.224545 3.67718 0.045166 4.305 0.045166C7.93741 0.045166 11.525 0.045166 15.1574 0.045166C15.7852 0.045166 15.9646 0.224545 15.9646 0.852368C16.0094 4.93321 16.0094 9.10375 16.0094 13.2294ZM10.359 9.0589C11.3456 9.0589 12.377 9.0589 13.3636 9.0589C13.812 9.0589 14.0811 8.83468 14.0811 8.47593C14.0811 8.11717 13.812 7.8481 13.3636 7.8481C11.3456 7.8481 9.37243 7.8481 7.35443 7.8481C6.90598 7.8481 6.63692 8.07232 6.63692 8.43108C6.63692 8.78984 6.90598 9.0589 7.35443 9.0589C8.38585 9.0589 9.37243 9.0589 10.359 9.0589ZM10.359 13.8124C11.3456 13.8124 12.3322 13.8124 13.3187 13.8124C13.812 13.8124 14.0811 13.5882 14.0811 13.2294C14.0811 12.8707 13.812 12.6465 13.3636 12.6465C11.3904 12.6465 9.41727 12.6465 7.39927 12.6465C6.90598 12.6465 6.63692 12.8707 6.63692 13.2294C6.63692 13.633 6.90598 13.8124 7.39927 13.8124C8.38585 13.8124 9.37243 13.8124 10.359 13.8124ZM10.359 17.4C9.37243 17.4 8.38585 17.4 7.39927 17.4C6.95083 17.4 6.63692 17.6242 6.63692 17.9829C6.63692 18.3417 6.90598 18.5659 7.39927 18.5659C9.37243 18.5659 11.3456 18.5659 13.3636 18.5659C13.812 18.5659 14.1259 18.3417 14.1259 17.9829C14.1259 17.6242 13.8569 17.4 13.3636 17.4C12.377 17.4 11.3456 17.4 10.359 17.4Z" fill="#FF9F00"/>
<path d="M17.2202 13.2291C17.2202 9.10343 17.2202 4.93289 17.2202 0.8072C17.2202 0.224222 17.3996 0 18.0274 0C21.2114 0 24.4402 0 27.6241 0C28.0726 0 28.521 0 29.0143 0C29.5076 0 29.7318 0.224222 29.7318 0.717511C29.7318 9.05858 29.7318 17.3997 29.7318 25.6959C29.7318 26.1892 29.5076 26.4134 29.0143 26.4134C25.3371 26.4134 21.6598 26.4134 17.9826 26.4134C17.4444 26.4134 17.2651 26.1892 17.2651 25.651C17.2202 21.5253 17.2202 17.3996 17.2202 13.2291ZM20.4939 12.5116C20.4939 14.978 20.4939 17.3997 20.4939 19.8661C20.4939 20.0903 20.5836 20.3594 20.7181 20.5388C21.2114 21.2563 21.7495 21.9738 22.2876 22.6465C22.6464 23.1397 23.05 23.1397 23.4088 22.6465C23.9469 21.9738 24.4402 21.3011 24.9335 20.5836C25.068 20.3594 25.2025 20.0455 25.2025 19.7764C25.2025 16.6373 25.2025 13.4982 25.2025 10.3591C25.2025 8.65498 25.2025 6.90605 25.2025 5.20196C25.2025 4.12569 24.4402 3.36333 23.3639 3.36333C23.05 3.36333 22.7361 3.36333 22.3773 3.36333C21.1665 3.36333 20.4042 4.08085 20.4042 5.33649C20.4939 7.75809 20.4939 10.1348 20.4939 12.5116Z" fill="#FF9F00"/>
<path d="M16.6373 27.1297C16.9512 27.623 17.3548 27.623 17.8032 27.623C21.8841 27.623 25.9649 27.623 30.0458 27.623C30.7633 27.623 30.9427 27.4436 30.9427 26.7261C30.9427 19.1025 30.9427 11.5238 30.9427 3.90027C30.9427 3.76573 30.9427 3.58636 30.9427 3.45182C32.288 3.18276 33.3194 3.98996 33.3194 5.33529C33.3194 12.914 33.3194 20.4927 33.3194 28.0714C33.3194 29.2374 32.5571 29.9997 31.3911 29.9997C21.5702 29.9997 11.7492 29.9997 1.92831 29.9997C0.717509 29.9997 0 29.2374 0 28.0714C0 20.5376 0 13.0037 0 5.46982C0 4.0348 0.896887 3.27244 2.37675 3.45182C2.37675 3.58636 2.37675 3.76573 2.37675 3.90027C2.37675 11.479 2.37675 19.1025 2.37675 26.6813C2.37675 27.4436 2.55613 27.623 3.27364 27.623C7.30965 27.623 11.3905 27.623 15.4265 27.623C15.8749 27.6678 16.3234 27.6678 16.6373 27.1297Z" fill="#FF9F00"/>
<path d="M21.7038 10.8516C22.4661 10.8516 23.2285 10.8516 24.0357 10.8516C24.0357 10.9862 24.0357 11.1207 24.0357 11.2552C24.0357 14.0356 24.0357 16.8159 24.0357 19.5963C24.0357 19.8205 23.946 20.0447 23.8115 20.1793C23.4976 20.6277 23.1836 21.0313 22.8249 21.4798C22.4213 20.9416 22.0625 20.4483 21.7038 19.9551C21.6589 19.9102 21.6589 19.7757 21.6589 19.7308C21.6589 16.8159 21.6589 13.901 21.6589 10.9413C21.7038 10.8965 21.7038 10.8965 21.7038 10.8516Z" fill="#FF9F00"/>
<path d="M21.7051 7.04117C21.7051 6.41335 21.7051 5.78552 21.7051 5.20255C21.7051 4.84379 21.9293 4.61957 22.2881 4.61957C22.6917 4.61957 23.0953 4.61957 23.4989 4.61957C23.8576 4.61957 24.0818 4.84379 24.0818 5.20255C24.0818 5.78552 24.0818 6.41335 24.0818 7.04117C23.2746 7.04117 22.5123 7.04117 21.7051 7.04117Z" fill="#FF9F00"/>
<path d="M24.037 8.29639C24.037 8.74483 24.037 9.14843 24.037 9.59688C23.2746 9.59688 22.5123 9.59688 21.7051 9.59688C21.7051 9.14843 21.7051 8.74483 21.7051 8.29639C22.4674 8.29639 23.2298 8.29639 24.037 8.29639Z" fill="#FF9F00"/>
</svg>
