<svg width="33" height="33" viewBox="0 0 33 33" fill="none" xmlns="http://www.w3.org/2000/svg">
<path d="M15.5285 32.7695C15.2171 32.6806 14.8613 32.5916 14.55 32.4582C13.7939 32.1469 13.2157 31.5687 12.8599 30.8126C14.9503 30.8126 16.9962 30.8126 19.0421 30.8126C18.9977 30.9015 18.9977 30.9905 18.9532 31.0794C18.4195 31.969 17.6634 32.5027 16.6404 32.7251C16.5514 32.7251 16.4625 32.7695 16.418 32.7695C16.1067 32.7695 15.8398 32.7695 15.5285 32.7695Z" fill="#2D928C"/>
<path d="M31.9848 3.54807C31.7624 3.81493 31.54 4.08179 31.2731 4.2597C30.7839 4.61551 30.2946 4.92685 29.8054 5.23819C29.2717 5.594 28.6935 5.50505 28.4266 5.0158C28.1153 4.57103 28.2932 4.03731 28.7824 3.6815C29.3161 3.32569 29.8054 2.96987 30.3391 2.65854C31.0952 2.16929 31.54 2.25825 32.0292 3.05883C31.9848 3.19226 31.9848 3.37016 31.9848 3.54807Z" fill="#2D928C"/>
<path d="M31.9856 20.4052C31.9411 20.4497 31.9411 20.4941 31.8967 20.5386C31.6298 21.0723 31.0516 21.2503 30.5624 20.9389C29.9397 20.5386 29.2725 20.0939 28.6499 19.6936C28.2051 19.3822 28.1161 18.8485 28.4275 18.4037C28.6943 18.0035 29.2725 17.87 29.7173 18.1369C30.3845 18.5372 31.0071 18.9819 31.6298 19.4267C31.8077 19.5601 31.8967 19.738 32.0301 19.916C31.9856 20.0494 31.9856 20.2273 31.9856 20.4052Z" fill="#2D928C"/>
<path d="M31.9848 11.9542C31.718 12.4879 31.3177 12.6658 30.7395 12.6658C30.2502 12.6213 29.761 12.6658 29.2273 12.6658C28.6491 12.6658 28.2488 12.2655 28.2488 11.7318C28.2488 11.1981 28.6491 10.7978 29.2273 10.7978C29.7165 10.7978 30.2057 10.8422 30.7395 10.7978C31.3177 10.7533 31.7624 10.9312 31.9848 11.5094C31.9848 11.6428 31.9848 11.8207 31.9848 11.9542Z" fill="#2D928C"/>
<path d="M11.2588 23.8739C11.0365 22.3617 10.2804 21.1608 9.16844 20.2268C7.21146 18.6256 5.92163 16.6242 5.34343 14.178C4.09808 9.06313 6.9446 3.59249 11.837 1.59103C18.0193 -0.899664 24.9132 2.48057 26.5588 8.9297C27.6708 13.3774 26.3809 17.1579 22.8673 20.1823C21.7109 21.1608 20.9548 22.3172 20.7324 23.8739C17.5745 23.8739 14.4167 23.8739 11.2588 23.8739ZM18.7309 10.8422C20.3766 8.88522 19.7094 6.61691 18.5086 5.50499C17.1298 4.25964 15.0394 4.17069 13.6161 5.37156C12.9045 5.94976 12.4597 6.70586 12.3263 7.63987C12.1039 8.84074 12.4597 9.90819 13.2158 10.7977C12.771 11.1535 12.2818 11.4649 11.8815 11.8652C10.6362 13.066 10.1024 14.5782 10.058 16.3128C10.058 17.3803 10.4583 17.7361 11.4367 17.6916C13.1269 17.6471 14.817 17.6916 16.5071 17.6916C17.9748 17.6916 19.4426 17.6916 20.9548 17.6916C21.533 17.6916 21.9333 17.3358 21.9777 16.8466C22.0667 15.2899 21.7554 13.8221 20.7769 12.5768C20.1542 11.8207 19.487 11.2425 18.7309 10.8422Z" fill="#2D928C"/>
<path d="M11.3031 25.7859C14.4165 25.7859 17.5299 25.7859 20.6877 25.7859C20.6432 26.4531 20.6877 27.1647 20.5543 27.8319C20.4208 28.4546 19.7982 28.8548 19.1755 28.8993C17.0406 28.8993 14.9502 28.8993 12.8153 28.8993C12.0592 28.8993 11.3921 28.3211 11.3476 27.565C11.2586 26.9868 11.3031 26.3641 11.3031 25.7859Z" fill="#2D928C"/>
<path d="M3.74243 18.9372C3.74243 19.204 3.609 19.4709 3.34213 19.6933C2.71946 20.0936 2.09679 20.5383 1.47411 20.9386C0.984869 21.25 0.45115 21.1165 0.18429 20.6718C-0.0825705 20.227 0.00637894 19.6933 0.451146 19.3819C1.07382 18.9372 1.69649 18.5369 2.31917 18.1366C2.89737 17.7363 3.69795 18.1366 3.74243 18.9372Z" fill="#2D928C"/>
<path d="M0.940289 2.30194C1.1182 2.39089 1.2961 2.43537 1.47401 2.52432C2.09668 2.92462 2.67488 3.32491 3.29756 3.7252C3.74232 4.03653 3.87575 4.61473 3.60889 5.01502C3.34203 5.45979 2.76384 5.59322 2.27459 5.28188C1.65192 4.88159 1.02924 4.4813 0.406569 4.03653C0.0507551 3.76967 -0.0826765 3.36938 0.0507537 2.96909C0.139707 2.61328 0.495521 2.34642 0.940289 2.30194Z" fill="#2D928C"/>
<path d="M1.82931 12.6648C1.51797 12.6648 1.20663 12.6648 0.939771 12.6648C0.40605 12.6648 -0.03872 12.2201 0.00575672 11.7308C0.00575672 11.2416 0.40605 10.7968 0.939771 10.7968C1.56245 10.7968 2.18512 10.7968 2.80779 10.7968C3.34151 10.7968 3.74181 11.1971 3.74181 11.7308C3.74181 12.2201 3.34151 12.6648 2.80779 12.6648C2.45198 12.6648 2.14064 12.6648 1.82931 12.6648Z" fill="#2D928C"/>
<path d="M20.0207 15.7803C17.3521 15.7803 14.6391 15.7803 11.9705 15.7803C12.1039 13.6899 13.9274 12.0443 16.1068 12.0443C18.1082 12.0443 19.9318 13.7788 20.0207 15.7803Z" fill="#2D928C"/>
<path d="M15.9735 10.1744C14.9505 10.1744 14.1055 9.32938 14.1055 8.26194C14.1055 7.23898 14.9505 6.39392 15.9735 6.39392C16.9965 6.39392 17.8415 7.23898 17.8415 8.30642C17.8415 9.32939 16.9965 10.1744 15.9735 10.1744Z" fill="#2D928C"/>
</svg>
