<svg width="61" height="61" viewBox="0 0 61 61" fill="none" xmlns="http://www.w3.org/2000/svg">
<g filter="url(#filter0_d_6_80)">
<rect x="1" y="1" width="57" height="57" rx="13" fill="#FF9F00"/>
</g>
<path d="M43.5384 18.3049C43.0227 19.6185 43.5854 21.1426 44.7124 22.5886C45.3431 23.3982 45.1602 24.3162 44.5412 25.0675C43.545 26.2768 43.1959 27.5771 43.5869 29.1192C43.8956 30.3356 43.3738 31.2439 42.2391 31.7463C40.9036 32.3382 40.1931 33.3548 39.8256 34.7517C39.4315 36.2503 38.9301 36.6193 37.3482 36.6571C36.0275 36.6888 35.0073 37.1401 34.1389 38.1568C32.9628 39.5332 32.465 39.6472 30.8279 38.9321C29.6129 38.4016 28.4992 38.4041 27.2838 38.9326C25.6431 39.6462 25.156 39.5286 23.9717 38.1547C23.1325 37.181 22.1619 36.6985 20.8744 36.6628C19.1498 36.6152 18.6863 36.2743 18.2518 34.6423C17.9002 33.3211 17.2265 32.3561 15.9671 31.8051C14.675 31.2398 14.2053 30.2232 14.5482 28.8938C14.9065 27.504 14.5421 26.3693 13.6967 25.25C12.767 24.0182 12.768 23.344 13.6983 22.1117C14.5436 20.9919 14.9055 19.8546 14.5472 18.4664C14.2032 17.1334 14.6842 16.1209 15.9697 15.5556C17.228 15.0021 17.9012 14.0396 18.2513 12.7169C18.6781 11.1048 19.135 10.7623 20.7634 10.7102C22.076 10.6678 23.1049 10.2267 23.9748 9.20854C25.1504 7.83209 25.6554 7.71965 27.2863 8.43061C28.5002 8.95962 29.6165 8.9586 30.8299 8.42908C32.4578 7.71863 32.9628 7.83209 34.1409 9.21109C35.0114 10.2298 36.0418 10.6693 37.3538 10.7107C38.9511 10.7613 39.4285 11.1017 39.8271 12.6146C40.1951 14.012 40.9133 15.0128 42.2381 15.6251C43.1295 16.0371 43.799 16.6755 43.5384 18.3049ZM40.6966 23.6625C40.6843 17.2311 35.4228 12.013 28.9812 12.0432C22.605 12.0734 17.4136 17.3072 17.4171 23.7013C17.4207 30.0755 22.6479 35.3124 29.0206 35.3272C35.4479 35.342 40.7093 30.0857 40.6966 23.6625Z" fill="white"/>
<path d="M29.5569 40.3865L29.5523 40.3998L28.9502 42.4029L26.3716 50.9999L23.1061 43.97L15.8523 49.2095L20.0537 38.4034C20.2259 38.4233 20.4053 38.4371 20.5929 38.4458C20.6645 38.4504 20.7386 38.4525 20.8147 38.455C20.8955 38.4571 20.9717 38.4617 21.0432 38.4683C21.5513 38.522 21.8937 38.7213 22.2786 39.169C23.0841 40.1023 24.0716 41.0985 25.6448 41.1522C25.6898 41.1542 25.7368 41.1542 25.7813 41.1542C25.8349 41.1542 25.8886 41.1522 25.9423 41.1496C25.9581 41.1496 25.9735 41.1496 25.9914 41.1476C26.7723 41.1052 27.5022 40.8322 28.1759 40.5388C28.2316 40.5143 28.2878 40.4918 28.3415 40.4719L28.3348 40.452C28.5899 40.3671 28.8296 40.3267 29.0601 40.3267C29.2211 40.3262 29.3847 40.3462 29.5569 40.3865Z" fill="white"/>
<path d="M42.039 48.8488L34.7852 43.8623L31.5197 50.5524L29.9081 45.4402L30.6646 42.9178L31.2376 41.0088C31.5933 41.1008 31.9582 41.1565 32.3365 41.1565C34.1382 41.1565 35.2463 39.8608 35.8417 39.1647C36.2782 38.652 36.6876 38.4665 37.4017 38.4486C37.5315 38.4465 37.6593 38.4394 37.7819 38.4307L42.039 48.8488Z" fill="white"/>
<path d="M33.3435 25.1594L34.3571 31.0654L29.0522 28.2767L23.7565 31.0603L23.7514 31.0674V31.0628L24.7649 25.1604L20.4736 20.9775L26.402 20.1157L26.4005 20.1137L29.0522 14.7403V14.7454L29.0547 14.7403L31.7064 20.1137V20.1147L37.6349 20.9764L33.3435 25.1594Z" fill="white"/>
<defs>
<filter id="filter0_d_6_80" x="0" y="0" width="61" height="61" filterUnits="userSpaceOnUse" color-interpolation-filters="sRGB">
<feFlood flood-opacity="0" result="BackgroundImageFix"/>
<feColorMatrix in="SourceAlpha" type="matrix" values="0 0 0 0 0 0 0 0 0 0 0 0 0 0 0 0 0 0 127 0" result="hardAlpha"/>
<feOffset dx="1" dy="1"/>
<feGaussianBlur stdDeviation="1"/>
<feComposite in2="hardAlpha" operator="out"/>
<feColorMatrix type="matrix" values="0 0 0 0 0 0 0 0 0 0 0 0 0 0 0 0 0 0 0.25 0"/>
<feBlend mode="normal" in2="BackgroundImageFix" result="effect1_dropShadow_6_80"/>
<feBlend mode="normal" in="SourceGraphic" in2="effect1_dropShadow_6_80" result="shape"/>
</filter>
</defs>
</svg>
