<svg width="34" height="34" viewBox="0 0 34 34" fill="none" xmlns="http://www.w3.org/2000/svg">
<path d="M33.3197 17.2151C33.2661 26.39 25.7544 33.848 16.5795 33.7943C7.40459 33.7407 -0.0533668 26.2291 0.0002877 17.0541C0.0539422 7.87922 7.56558 0.421243 16.7405 0.474897C25.9154 0.474897 33.3734 7.98652 33.3197 17.2151ZM30.6907 16.8932C30.6907 16.6249 30.637 16.0884 30.5833 15.5518C29.8858 10.24 27.0958 6.43054 22.2132 4.28436C17.3843 2.19184 12.7164 2.83569 8.42405 5.84035C7.8875 6.21593 7.78019 6.37689 8.31673 6.91344C10.0873 8.57672 11.7506 10.3473 13.4676 12.0643C13.6822 12.2789 13.8431 12.4398 13.8968 12.6545C13.9504 12.8691 13.8968 13.03 13.8968 13.0837C13.5212 14.4787 13.3602 15.1762 13.1993 15.2299C12.8774 15.3372 12.5554 14.8543 11.2677 13.5129C10.302 12.4935 10.5166 12.7618 9.81905 12.0643C8.74596 10.9912 7.61923 9.86443 6.54614 8.73769C6.06325 8.20114 5.84863 8.36211 5.47305 8.845C1.71724 13.8885 1.82453 20.8099 5.79497 25.8535C10.4093 31.7555 19.1013 32.8822 25.0569 28.4289C25.6471 27.9996 25.5935 27.785 25.1106 27.3558C24.1985 26.4973 23.34 25.5852 22.4815 24.7267C21.0328 23.2781 21.0865 23.3317 22.6961 22.044C23.0717 21.7757 23.2863 21.7221 23.6083 22.0977C24.735 23.2781 25.9154 24.4048 27.0421 25.5315C27.4177 25.9608 27.6324 26.0144 28.0079 25.4779C29.7249 23.0098 30.637 20.2197 30.6907 16.8932Z" fill="#F16671"/>
<path d="M19.0473 16.8385C19.2619 16.8385 19.5838 16.8385 19.7985 17.1067C19.9058 17.214 19.9594 17.375 20.0131 17.5896C20.0667 18.1798 19.6375 18.3944 19.1546 18.5018C18.0815 18.7164 17.0084 18.8773 15.8817 18.8773C15.4525 18.8773 14.9696 18.8237 14.9696 19.4139C15.0232 19.9504 15.5598 19.8431 15.9354 19.8431C17.1158 19.7895 18.2425 19.6821 19.3692 19.4139C20.174 19.2529 20.7643 18.77 20.9252 17.9652C20.9789 17.536 21.1935 17.4287 21.5691 17.3214C22.2666 17.1067 22.9104 16.8921 23.6079 16.6775C24.0908 16.5165 24.6274 16.5702 24.8956 17.1067C25.1639 17.6433 24.9493 18.0189 24.5201 18.3944C23.3933 19.3066 22.2129 20.2187 21.0862 21.1308C20.3887 21.6674 19.7448 22.3649 18.94 22.7941C18.1888 23.1697 17.2767 23.277 16.4182 23.2233C14.433 23.0624 12.9844 22.4185 11.643 21.6674C10.9455 21.2918 9.65779 20.5406 9.7651 20.0041C9.81875 19.8431 9.92604 19.7895 9.9797 19.6821C11.1064 18.8773 12.2332 18.0725 13.3599 17.214C13.7892 16.8921 14.2184 16.7848 14.755 16.7848C15.2378 16.7848 15.7207 16.7848 16.2573 16.7848C16.7402 16.7848 17.2231 16.7848 17.706 16.7848C18.1352 16.7848 18.5108 16.8385 18.94 16.8385C18.94 16.8385 18.9937 16.8385 19.0473 16.8385Z" fill="#F16671"/>
<path d="M12.7699 23.2243C12.7162 23.4926 12.3406 24.6729 11.3748 25.0485C9.71156 25.6924 7.56535 23.7072 7.72632 22.5268C7.72632 22.3122 7.83364 22.0975 7.94095 21.9366C7.9946 21.7756 8.47749 20.8098 9.01404 20.8635C9.28231 20.8635 9.49692 21.1318 9.60423 21.2391C9.92615 21.722 10.7846 22.4195 12.7699 23.2243Z" fill="#F16671"/>
<path d="M24.4135 15.2836C24.4135 15.069 24.3599 14.908 24.3599 14.6934C24.2526 13.6203 23.9306 12.6009 23.2331 11.6888C22.8039 11.1522 22.2674 10.723 21.6235 10.4011C20.926 10.0255 20.2285 9.81087 19.4773 9.59625C19.4237 9.59625 19.3163 9.5426 19.2627 9.5426C19.2627 9.48894 19.2627 9.48894 19.2627 9.43529C19.2627 8.89874 19.2627 8.3622 19.2627 7.82565C19.2627 7.71834 19.209 7.61104 19.1017 7.55738C18.9944 7.50373 18.8871 7.55738 18.8335 7.61103C17.5458 8.63047 16.258 9.64991 14.9703 10.6693C14.8094 10.8303 14.8094 10.9913 14.9703 11.0986C16.258 12.118 17.5458 13.1374 18.8335 14.1569C18.9944 14.2642 19.209 14.2642 19.2627 14.0496C19.2627 13.9959 19.2627 13.9423 19.2627 13.9423C19.2627 13.4057 19.2627 12.8692 19.2627 12.3326C19.2627 12.279 19.2627 12.279 19.2627 12.2253H19.3164C20.7114 12.1717 21.9454 12.6009 22.9649 13.6203C23.5014 14.1569 23.877 14.7471 24.0916 15.4446C24.1452 15.6592 24.2526 15.6592 24.4135 15.4982C24.4135 15.4982 24.4135 15.3909 24.4135 15.2836Z" fill="#F16671"/>
</svg>
