<svg width="34" height="34" viewBox="0 0 34 34" fill="none" xmlns="http://www.w3.org/2000/svg">
<path d="M16.7061 2.47266L16.7515 6.24045C22.7436 6.28585 27.5555 11.1431 27.5555 17.1353C27.5555 23.1728 22.6528 28.0301 16.6607 28.0301C10.6231 28.0301 5.76584 23.1274 5.76584 17.1353C5.76584 13.5037 7.53625 10.2806 10.26 8.28323L7.9448 5.28716C4.3132 7.96547 1.99805 12.278 1.99805 17.0899C1.99805 25.2156 8.58034 31.7525 16.6607 31.7525C24.7864 31.7525 31.3233 25.1702 31.3233 17.0899C31.3233 9.05495 24.7864 2.51805 16.7061 2.47266Z" fill="#2D928C"/>
<path d="M16.66 0.474609C7.4448 0.474609 0 7.9194 0 17.1346C0 26.3498 7.4448 33.7946 16.66 33.7946C25.8752 33.7946 33.32 26.3498 33.32 17.1346C33.32 7.9648 25.8752 0.474609 16.66 0.474609ZM16.66 33.1137C7.85335 33.1137 0.726323 25.9867 0.726323 17.18C0.726323 8.37336 7.85335 1.24632 16.66 1.24632C25.4667 1.24632 32.5937 8.37336 32.5937 17.18C32.5937 25.9867 25.4667 33.1137 16.66 33.1137Z" fill="#2D928C"/>
<path d="M15.7513 14.7744C15.7513 17.0442 14.2079 18.2698 12.5737 18.2698C10.8033 18.2698 9.44141 16.9534 9.44141 15.0014C9.44141 13.1402 10.6217 11.5967 12.6645 11.5967C14.6618 11.5513 15.7513 13.004 15.7513 14.7744ZM11.6204 14.9106C11.6204 15.9547 11.9381 16.681 12.6191 16.681C13.2092 16.681 13.527 16.0909 13.527 14.9106C13.527 13.9119 13.2546 13.1402 12.5737 13.1402C11.8927 13.1402 11.6204 13.9119 11.6204 14.9106ZM12.8006 22.7639L18.9744 11.5967H20.5178L14.3441 22.7639H12.8006ZM23.877 19.2685C23.877 21.5383 22.3336 22.7185 20.6994 22.7185C18.929 22.7185 17.5671 21.4021 17.5671 19.4501C17.5671 17.6343 18.7474 16.0455 20.7902 16.0455C22.7876 16.0455 23.877 17.4981 23.877 19.2685ZM19.7915 19.4047C19.7915 20.4488 20.1093 21.1297 20.7902 21.1297C21.3803 21.1297 21.6981 20.5396 21.6981 19.4047C21.6981 18.406 21.4257 17.6343 20.7448 17.6343C20.0639 17.6797 19.7915 18.4514 19.7915 19.4047Z" fill="#2D928C"/>
</svg>
