<svg width="34" height="35" viewBox="0 0 34 35" fill="none" xmlns="http://www.w3.org/2000/svg">
<path d="M8.58474 0.474609C14.1393 0.474609 19.6448 0.474609 25.1994 0.474609C25.2485 0.474609 25.2977 0.523768 25.2977 0.523768C26.7724 0.818703 27.7555 2.04759 27.7555 3.52226C27.7555 12.7635 27.7555 22.0048 27.7555 31.2461C27.7555 32.9174 26.4774 34.1955 24.8061 34.2446C19.5465 34.2446 14.2377 34.2446 8.97799 34.2446C8.53559 34.2446 8.09319 34.1463 7.69994 33.9497C6.52021 33.409 5.97949 32.4258 5.97949 31.1478C5.97949 22.0048 5.97949 12.8619 5.97949 3.71889C5.97949 3.62058 5.97949 3.52227 5.97949 3.42395C6.02865 2.53915 6.37274 1.85097 7.06092 1.2611C7.50332 0.818703 8.04403 0.622077 8.58474 0.474609ZM16.8429 26.3305C18.76 26.3305 20.6771 26.3305 22.5941 26.3305C23.0365 26.3305 23.4298 26.2322 23.6756 25.7898C23.9213 25.3474 23.7739 24.9542 23.5281 24.6101C23.0857 23.9219 22.6433 23.2337 22.1517 22.5947C22.0534 22.4472 22.0534 22.3489 22.1517 22.1523C22.6433 21.4641 23.0857 20.7759 23.5281 20.0878C23.7739 19.7437 23.8722 19.3504 23.6756 18.9572C23.4298 18.5639 23.0857 18.4165 22.6433 18.4165C18.8091 18.4165 14.975 18.4165 11.0917 18.4165C10.6493 18.4165 10.3052 18.5639 10.0594 18.9572C9.81363 19.3504 9.9611 19.7437 10.2069 20.0878C10.6493 20.7759 11.0917 21.4641 11.5832 22.1031C11.7307 22.2998 11.7307 22.4472 11.5832 22.5947C11.0917 23.2829 10.6493 23.9711 10.1577 24.7084C9.81364 25.2491 9.91195 25.839 10.4035 26.1339C10.6001 26.2322 10.8951 26.3305 11.1408 26.3305C13.0579 26.3305 14.975 26.3305 16.8429 26.3305ZM16.9412 4.55454C16.4497 4.55454 16.1547 4.75116 15.9581 5.14441C15.5649 5.88174 15.2208 6.66824 14.8275 7.40557C14.7784 7.55304 14.5817 7.65135 14.4343 7.7005C13.6478 7.84797 12.8121 7.94628 11.9765 8.04459C11.5341 8.09375 11.1408 8.29038 10.9934 8.73278C10.8459 9.17518 10.9934 9.56843 11.3375 9.86336C11.9273 10.4041 12.468 10.9939 13.0579 11.5347C13.2545 11.7313 13.3037 11.8787 13.2545 12.1245C13.1071 12.911 13.0088 13.6975 12.8613 14.4348C12.763 14.8772 12.8121 15.2705 13.2054 15.5654C13.5986 15.8604 13.9919 15.762 14.3851 15.5654C15.0733 15.1722 15.8106 14.8281 16.4988 14.4348C16.7446 14.2874 16.8921 14.3365 17.0887 14.4348C17.826 14.8281 18.5634 15.2213 19.3499 15.6146C19.7431 15.8112 20.1363 15.8112 20.4804 15.5163C20.8245 15.2705 20.8737 14.8772 20.8245 14.484C20.6771 13.6975 20.5296 12.8619 20.3821 12.0754C20.333 11.8296 20.3821 11.6821 20.5787 11.4855C21.1686 10.9448 21.7585 10.3549 22.3484 9.8142C22.6924 9.51927 22.8399 9.12602 22.6924 8.68362C22.545 8.24122 22.2009 8.0446 21.7585 7.99544C20.9228 7.89713 20.1363 7.74966 19.3007 7.65135C19.1041 7.6022 18.9566 7.55304 18.8583 7.35641C18.5142 6.61908 18.121 5.88174 17.7769 5.09525C17.6294 4.80031 17.3345 4.55454 16.9412 4.55454ZM16.8921 28.2968C15.614 28.2968 14.336 28.2968 13.0579 28.2968C12.5664 28.2968 12.1731 28.5425 12.0256 28.9358C11.7799 29.624 12.2223 30.263 13.0088 30.263C13.9919 30.263 14.9258 30.263 15.909 30.263C17.5311 30.263 19.1041 30.263 20.7262 30.263C21.2669 30.263 21.6602 30.0172 21.8076 29.624C22.0534 28.9358 21.5619 28.2968 20.7754 28.2968C19.4482 28.2968 18.1701 28.2968 16.8921 28.2968Z" fill="#E7C109"/>
<path d="M33.703 28.4451C33.5555 28.74 33.408 29.0349 33.2606 29.3299C32.9656 29.8214 32.5232 30.2147 32.0317 30.4113C31.2943 30.7062 30.557 31.0012 29.7705 31.2961C29.7705 22.0548 29.7705 12.8135 29.7705 3.57227C30.9011 4.11298 32.2283 4.21129 33.0639 5.24356C33.3589 5.58765 33.5063 6.03005 33.703 6.37414C33.703 6.8657 33.703 7.35726 33.703 7.84881C33.6538 7.99628 33.5555 8.14375 33.5063 8.34037C32.4249 11.2897 31.3435 14.2882 30.2621 17.2376C30.2129 17.385 30.2129 17.5817 30.2621 17.7291C30.9011 19.4496 31.491 21.1209 32.13 22.8413C32.6707 24.2177 33.1623 25.6432 33.703 27.0196C33.703 27.462 33.703 27.9535 33.703 28.4451Z" fill="#E7C109"/>
<path d="M4.01344 3.52148C4.01344 12.8119 4.01344 22.004 4.01344 31.2945C3.07948 30.9012 2.14551 30.6555 1.35902 30.1639C0.0809721 29.4266 -0.26312 27.9519 0.228438 26.5264C1.21155 23.872 2.14551 21.2176 3.22694 18.5631C3.52188 17.7767 3.52188 17.0885 3.22694 16.2528C2.19467 13.5984 1.21155 10.8948 0.228438 8.19128C-0.312276 6.76576 0.130132 5.38941 1.30987 4.55376C1.45734 4.45545 1.6048 4.35714 1.75227 4.30798C2.48961 4.0622 3.22694 3.81642 4.01344 3.52148Z" fill="#E7C109"/>
<path d="M20.9235 20.4316C20.6778 20.7757 20.4811 21.0707 20.2845 21.4148C19.6455 22.3487 19.6455 22.447 20.2845 23.4301C20.4811 23.7251 20.6778 24.02 20.9235 24.3641C18.1708 24.3641 15.5164 24.3641 12.7637 24.3641C13.0095 23.9709 13.2552 23.6268 13.4519 23.2827C13.9926 22.4962 13.9926 22.2996 13.4519 21.4639C13.2061 21.1198 13.0095 20.7757 12.7637 20.4316C15.5164 20.4316 18.22 20.4316 20.9235 20.4316Z" fill="#E7C109"/>
<path d="M15.1231 13.0588C15.2214 12.6164 15.2706 12.2723 15.3197 11.8791C15.418 11.3875 15.3197 10.9451 14.9265 10.601C14.6315 10.3553 14.3858 10.0603 14.0908 9.76538C14.4841 9.71623 14.8282 9.61792 15.2214 9.61792C15.7621 9.56876 16.1062 9.32298 16.3028 8.83143C16.4503 8.48733 16.6469 8.14325 16.8435 7.75C16.991 8.04493 17.1385 8.24156 17.2368 8.48734C17.4826 9.32298 18.0724 9.61792 18.9081 9.66707C19.1539 9.66707 19.3996 9.71623 19.6454 9.76538C19.3505 10.0603 19.1047 10.3553 18.8098 10.601C18.4165 10.9451 18.3182 11.3875 18.4165 11.9282C18.5148 12.2723 18.564 12.6656 18.6131 13.0588C18.3182 12.9114 18.0233 12.813 17.8267 12.6164C17.1876 12.174 16.5978 12.174 15.9587 12.6164C15.713 12.813 15.4672 12.9114 15.1231 13.0588Z" fill="#E7C109"/>
</svg>
