<svg width="34" height="36" viewBox="0 0 34 36" fill="none" xmlns="http://www.w3.org/2000/svg">
<path d="M14.4077 35.2492C13.866 34.9242 13.7035 34.1659 13.9744 33.57C14.1368 33.2992 14.3535 33.1367 14.6785 33.1367C16.0868 33.1367 17.4951 33.1367 18.9034 33.1367C19.3909 33.1367 19.6617 33.4617 19.7159 33.9492C19.7159 34.0575 19.7159 34.1659 19.7159 34.2742C19.77 34.7075 19.6075 35.0867 19.1742 35.2492C17.5493 35.2492 15.9785 35.2492 14.4077 35.2492Z" fill="#4465EA"/>
<path d="M21.8286 29.3447C21.7744 29.2364 21.7203 29.1822 21.6661 29.1822C21.1245 28.9114 21.2328 28.4781 21.3411 27.9906C21.7203 26.7448 22.3161 25.6615 23.2911 24.7948C25.0785 23.224 26.2702 21.2741 26.6493 18.8908C27.4618 14.1784 24.916 9.62855 20.3662 8.05775C16.1954 6.59529 12.4039 7.3536 9.2081 10.4952C7.58314 12.066 6.77067 14.0701 6.55401 16.345C6.28318 19.7033 7.47481 22.4657 9.91224 24.7407C11.0497 25.7698 11.7539 27.0156 12.0789 28.4781C12.133 28.6947 12.133 28.8572 11.9164 29.0197C11.7539 29.1281 11.5914 29.2906 11.3747 29.453C10.7247 29.1281 10.0206 28.7489 9.37059 28.3156C8.77477 27.9906 8.66645 27.9906 8.17896 28.4239C7.69148 28.9114 7.25815 29.3447 6.77066 29.8322C6.39151 30.2114 6.06652 30.2114 5.74153 29.8322C5.14571 29.1822 4.49573 28.5864 3.89991 27.9364C3.52075 27.5031 3.52075 27.2323 3.89991 26.8531C4.3874 26.3656 4.92904 25.824 5.41653 25.3365C5.79569 24.9573 5.79569 24.7407 5.52487 24.3073C4.65822 22.899 3.95406 21.3824 3.68323 19.7033C3.62907 19.3241 3.41241 19.1616 2.97909 19.1075C2.22078 19.1075 1.46246 19.1075 0.758311 19.1075C0.162493 19.1075 0 18.945 0 18.3492C0 17.4283 0 16.5075 0 15.5867C0 15.1534 0.216668 14.9367 0.64999 14.9367C1.4083 14.9367 2.11244 14.9367 2.87075 14.9367C3.35824 14.9367 3.5749 14.7742 3.68323 14.2868C4.00823 12.716 4.65822 11.2535 5.52487 9.89937C5.84986 9.41189 5.79569 9.19522 5.41653 8.7619C4.92904 8.27441 4.44155 7.78692 3.95406 7.29944C3.5749 6.92028 3.5749 6.59529 3.95406 6.2703C4.60404 5.62032 5.25403 5.0245 5.90401 4.37451C6.28317 4.04952 6.554 4.04952 6.93315 4.37451C7.47481 4.91617 8.01646 5.45782 8.55811 5.99947C8.8831 6.32446 9.09977 6.32446 9.47893 6.1078C10.9414 5.18699 12.458 4.53701 14.1371 4.26618C14.5163 4.21202 14.6788 3.99536 14.6788 3.6162C14.6788 2.80372 14.6788 2.0454 14.6788 1.23292C14.6788 0.691271 14.8955 0.474609 15.4371 0.474609C16.3579 0.474609 17.2787 0.474609 18.1995 0.474609C18.6329 0.474609 18.8495 0.637108 18.8495 1.1246C18.8495 1.88291 18.8495 2.69539 18.8495 3.4537C18.8495 3.88702 19.012 4.10369 19.4453 4.21202C21.0703 4.53701 22.5869 5.18699 23.9952 6.1078C24.3744 6.37863 24.6452 6.32446 24.9702 5.99947C25.4577 5.51199 25.9993 4.97033 26.4868 4.48284C26.866 4.10369 27.191 4.10369 27.5701 4.48284C28.166 5.13283 28.8159 5.72864 29.4118 6.37863C29.7909 6.75779 29.7909 7.08278 29.4118 7.46193C28.8701 8.00359 28.3826 8.49108 27.841 9.03273C27.516 9.35772 27.4618 9.62854 27.7326 10.0077C28.6535 11.416 29.3034 12.9326 29.5743 14.6118C29.6284 14.9909 29.8992 15.1534 30.2784 15.1534C31.0367 15.1534 31.795 15.1534 32.6075 15.1534C33.2033 15.1534 33.42 15.3701 33.42 15.9659C33.42 16.8867 33.42 17.7533 33.42 18.6742C33.42 19.1616 33.2033 19.3783 32.7158 19.3783C32.0117 19.3783 31.2534 19.3783 30.5492 19.3783C30.0617 19.3783 29.8992 19.5408 29.7909 19.9741C29.4118 21.5991 28.8159 23.0615 27.8951 24.4698C27.6243 24.849 27.6785 25.1198 28.0035 25.4448C28.491 25.9323 28.9784 26.4198 29.4659 26.9073C29.8992 27.3406 29.8992 27.6114 29.4659 28.0448C28.8159 28.6406 28.2201 29.2906 27.5701 29.8864C27.191 30.2655 26.9202 30.2655 26.541 29.8864C25.9993 29.3447 25.5119 28.8572 24.9702 28.3156C24.5911 27.9364 24.3744 27.9364 23.9411 28.2072C23.1828 28.5864 22.5328 28.9656 21.8286 29.3447Z" fill="#4465EA"/>
<path d="M19.9865 28.4786C19.5531 28.4786 19.174 28.4786 18.7948 28.4786C18.7948 26.2578 18.7948 24.037 18.7948 21.7621C19.174 21.7621 19.5531 21.7621 19.9323 21.7621C20.6364 21.7621 21.2323 21.5454 21.6656 21.0038C22.2614 20.3538 22.3697 19.5955 22.0447 18.783C21.7198 17.9705 21.0698 17.483 20.149 17.4289C19.824 17.4289 19.4448 17.4289 19.1198 17.483C18.0365 17.6997 17.4949 18.4038 17.4407 19.4872C17.4407 19.8121 17.4407 20.1371 17.4407 20.4621C16.9532 20.4621 16.5199 20.4621 15.9782 20.4621C15.9782 20.1371 15.9782 19.8121 15.9782 19.5413C15.9782 18.3497 15.3824 17.5914 14.1908 17.483C13.7575 17.4289 13.3241 17.4289 12.945 17.483C11.8617 17.6997 11.1034 18.7288 11.2117 19.8121C11.32 20.9496 12.2408 21.7621 13.3783 21.7621C13.8116 21.7621 14.1908 21.7621 14.6241 21.7621C14.6241 23.9829 14.6241 26.2037 14.6241 28.4786C14.2449 28.4786 13.8116 28.4786 13.4324 28.4786C13.27 27.8828 13.1075 27.287 12.8908 26.7453C12.4575 25.6078 11.7533 24.6329 10.8325 23.8204C9.31589 22.4662 8.28675 20.8413 7.9076 18.783C7.14928 14.5581 9.42422 10.3332 13.8658 9.03325C17.2782 8.05828 20.4739 8.70826 23.0739 11.254C24.753 12.879 25.5113 14.9914 25.4572 17.3205C25.403 19.8663 24.428 21.9788 22.5322 23.6579C21.2323 24.9578 20.3114 26.5286 19.9865 28.4786Z" fill="#4465EA"/>
<path d="M16.7913 29.7773C17.8746 29.7773 18.9037 29.7773 19.987 29.7773C20.7454 29.7773 20.962 30.0482 20.962 30.7523C20.962 30.8065 20.962 30.9148 20.962 30.969C20.962 31.5648 20.6912 31.8898 20.0954 31.8898C17.8746 31.8898 15.6538 31.8898 13.433 31.8898C12.8372 31.8898 12.5664 31.5648 12.5664 30.969C12.5664 30.8607 12.5664 30.7523 12.5664 30.644C12.5664 30.1023 12.8372 29.7773 13.3789 29.7773C13.9205 29.7773 14.4622 29.7773 14.9497 29.7773C15.5997 29.7773 16.1955 29.7773 16.7913 29.7773Z" fill="#4465EA"/>
<path d="M17.4952 28.5329C17.0077 28.5329 16.5744 28.5329 16.0869 28.5329C16.0869 26.3121 16.0869 24.0913 16.0869 21.8164C16.5744 21.8164 17.0077 21.8164 17.4952 21.8164C17.4952 24.0372 17.4952 26.258 17.4952 28.5329Z" fill="#4465EA"/>
<path d="M18.7959 20.515C18.7959 20.1358 18.7959 19.8108 18.7959 19.4858C18.8501 18.9442 19.3375 18.6733 20.0959 18.7275C20.6375 18.7817 21.0167 19.1608 20.9625 19.7025C20.9625 20.1358 20.5834 20.515 20.15 20.5691C19.7167 20.515 19.2834 20.515 18.7959 20.515Z" fill="#4465EA"/>
<path d="M14.7866 20.5157C14.2991 20.5157 13.8658 20.5157 13.4324 20.5157C12.9991 20.5157 12.62 20.1907 12.5658 19.7574C12.5116 19.324 12.7283 18.8907 13.1616 18.7824C13.9741 18.5657 14.8407 18.8365 14.7324 19.8657C14.7866 20.0282 14.7866 20.2448 14.7866 20.5157Z" fill="#4465EA"/>
</svg>
