<svg width="22" height="21" viewBox="0 0 22 21" fill="none" xmlns="http://www.w3.org/2000/svg">
<path d="M21.703 19.0116C21.6238 19.17 21.5842 19.368 21.4653 19.4868C21.2277 19.8036 20.9109 20.0017 20.4752 20.0017C20.4356 20.0017 20.3564 20.0017 20.3168 20.0017C14.0198 20.0017 7.72277 20.0017 1.38614 20.0017C0.831683 20.0017 0.396039 19.8036 0.118812 19.2888C0.0396037 19.1304 0 18.8928 0 18.6947C0 17.3086 0 15.9621 0 14.5759C0 13.8234 0.514852 13.3086 1.26733 13.3086C3.24753 13.3086 5.22772 13.3086 7.16832 13.3086C7.24752 13.3086 7.36634 13.3482 7.40594 13.4274C7.92079 13.9423 8.39604 14.4175 8.91089 14.9324C10.099 16.1205 11.5644 16.1205 12.7525 14.9324C13.2673 14.4175 13.7426 13.9423 14.2574 13.4274C14.3366 13.3482 14.4554 13.3086 14.5743 13.3086C16.4356 13.3086 18.2574 13.3086 20.1188 13.3086C21.0693 13.3086 21.3069 13.467 21.6634 14.3383C21.703 15.9225 21.703 17.467 21.703 19.0116ZM19.1683 16.6749C18.7327 16.6749 18.3366 17.071 18.3366 17.5066C18.3366 17.9423 18.7327 18.3383 19.1683 18.3383C19.604 18.3383 20 17.9423 20 17.5066C20 17.071 19.6436 16.6749 19.1683 16.6749ZM15.8416 16.6749C15.3663 16.6749 15.0099 17.071 15.0099 17.5066C15.0099 17.9423 15.4059 18.3383 15.8416 18.3383C16.2772 18.3383 16.6733 17.9423 16.6733 17.5066C16.6733 17.071 16.3168 16.6749 15.8416 16.6749Z" fill="white"/>
<path d="M8.35582 6.65347C8.35582 6.53465 8.35582 6.45545 8.35582 6.37624C8.35582 4.55446 8.35582 2.77228 8.35582 0.950495C8.35582 0.316832 8.67265 0 9.30631 0C10.336 0 11.3657 0 12.3954 0C13.0291 0 13.3459 0.316832 13.3459 0.950495C13.3459 2.77228 13.3459 4.55446 13.3459 6.37624C13.3459 6.45545 13.3459 6.53465 13.3459 6.65347C13.4251 6.65347 13.5043 6.65347 13.5835 6.65347C14.5736 6.65347 15.6033 6.65347 16.5934 6.65347C17.1083 6.65347 17.3855 6.89109 17.5043 7.36634C17.5439 7.60396 17.5043 7.80198 17.3855 7.9604C17.3063 8.0396 17.2667 8.11881 17.1875 8.19802C15.3261 10.0594 13.4251 11.9604 11.5637 13.8218C11.0885 14.297 10.6528 14.297 10.1776 13.8218C8.27661 11.9208 6.41522 10.0594 4.51423 8.15842C4.07859 7.72277 4.07859 7.20792 4.51423 6.85149C4.71225 6.69307 4.91027 6.65347 5.1479 6.65347C6.13799 6.65347 7.12809 6.65347 8.11819 6.65347C8.1578 6.65347 8.237 6.65347 8.35582 6.65347Z" fill="white"/>
</svg>
