<svg width="19" height="12" viewBox="0 0 19 12" fill="none" xmlns="http://www.w3.org/2000/svg">
<path d="M0.000473852 5.84191C0.19267 5.53567 0.364984 5.21187 0.580376 4.92629C1.74255 3.38528 3.10024 2.09886 4.74148 1.19254C5.86152 0.573859 7.04262 0.179827 8.29615 0.0502046C10.7313 -0.201811 12.9335 0.503629 14.9506 1.97131C16.26 2.92411 17.3521 4.12531 18.3036 5.48506C18.5384 5.82022 18.5389 6.18327 18.305 6.51739C17.2068 8.08578 15.9239 9.43416 14.356 10.4381C13.0594 11.2685 11.6705 11.7958 10.167 11.9507C7.97898 12.1764 5.95809 11.6212 4.07826 10.4081C2.52365 9.40524 1.25401 8.06047 0.167108 6.50035C0.0960995 6.39862 0.0549132 6.27209 0 6.15745C0.00047339 6.05158 0.000473852 5.94675 0.000473852 5.84191ZM9.11227 1.76732C7.00427 1.81121 5.31854 3.76795 5.35641 6.12698C5.39333 8.43591 7.19032 10.2765 9.36365 10.2315C11.4645 10.1881 13.1612 8.21902 13.1209 5.8698C13.0821 3.55932 11.287 1.72187 9.11227 1.76732Z" fill="#FF9F00"/>
<path d="M11.3332 6.00378C11.3252 7.26747 10.3651 8.29257 9.20152 8.27966C8.06776 8.26675 7.1437 7.23132 7.1508 5.98105C7.15742 4.72459 8.12361 3.70362 9.29241 3.71705C10.4167 3.72944 11.3412 4.76488 11.3332 6.00378Z" fill="#FF9F00"/>
</svg>
