<svg width="16" height="15" viewBox="0 0 16 15" fill="none" xmlns="http://www.w3.org/2000/svg">
<path d="M15.0472 14.6727C14.9361 14.9244 14.7409 15.0022 14.4712 14.9998C13.3647 14.9896 12.2582 14.9955 11.1518 14.9955C11.0984 14.9955 11.0454 14.9955 11.0112 14.9955C11.0768 13.995 11.0815 13.0032 11.0198 12.0134C10.9759 11.3094 10.657 10.711 10.1753 10.2025C10.0763 10.0981 10.0524 10.0089 10.0901 9.86798C10.2059 9.43411 10.1878 8.99709 10.0704 8.56362C10.063 8.53613 10.0571 8.50825 10.0469 8.46467C11.4977 9.11803 12.7691 8.87302 13.8869 7.73828C14.161 7.94717 14.3895 8.20985 14.5776 8.50943C14.8116 8.88284 14.962 9.28726 15.0189 9.72545C15.0232 9.75843 15.0378 9.79063 15.0472 9.82282C15.0472 11.4397 15.0472 13.0562 15.0472 14.6727Z" fill="#4465EA"/>
<path d="M4.98893 8.4682C4.95909 8.64136 4.92886 8.80823 4.90177 8.97589C4.84994 9.2955 4.88606 9.61119 4.9693 9.91981C4.99796 10.0262 4.97558 10.0906 4.90373 10.1652C4.44355 10.6427 4.14161 11.2034 4.0407 11.863C4.014 12.0365 3.99987 12.2136 3.99869 12.3887C3.99398 13.0841 3.99358 13.7795 3.99908 14.4749C4.00026 14.6441 4.03088 14.8133 4.04895 14.9939C4.00929 14.9939 3.96099 14.9939 3.9127 14.9939C2.77639 14.9939 1.64047 14.9939 0.504165 14.9939C0.168455 14.9939 0.00079717 14.8255 0.00079717 14.489C0.00079717 13.0052 -0.00195181 11.5214 0.00275991 10.0372C0.00550841 9.17967 0.480214 8.24793 1.16263 7.73828C2.26399 8.86831 3.53615 9.11803 4.98893 8.4682Z" fill="#4465EA"/>
<path d="M5.42835 10.8923C6.53325 12.2504 8.52788 12.2257 9.62492 10.875C9.73879 11.0556 9.85894 11.2193 9.95003 11.3976C10.0961 11.6838 10.1672 11.9929 10.1668 12.3168C10.166 13.0514 10.1672 13.7857 10.1664 14.5203C10.166 14.8156 9.98733 14.9934 9.69049 14.9938C8.24596 14.9942 6.80182 14.9942 5.35728 14.9938C5.05809 14.9938 4.87826 14.8175 4.87787 14.5242C4.87708 13.7703 4.87041 13.0161 4.88062 12.2622C4.8869 11.7447 5.08165 11.2936 5.42835 10.8923Z" fill="#4465EA"/>
<path d="M7.5269 0.330806C7.96941 0.00177132 8.44568 -0.103457 8.95494 0.114067C9.55215 0.369285 9.827 0.861267 9.87333 1.48793C9.92084 2.12911 9.61812 2.63994 9.2239 3.10522C8.81241 3.59092 8.32043 3.98553 7.78879 4.33223C7.63213 4.43432 7.46408 4.4567 7.30466 4.35422C6.61636 3.91093 5.98892 3.39892 5.53188 2.70708C5.22876 2.24808 5.09448 1.74943 5.21698 1.20012C5.45374 0.134092 6.61283 -0.370062 7.5269 0.330806Z" fill="#4465EA"/>
<path d="M1.32031 5.74338C1.31953 4.51519 2.29917 3.53476 3.52657 3.53516C4.74612 3.53555 5.72695 4.51519 5.72773 5.73396C5.72852 6.96175 4.74809 7.94297 3.52147 7.94257C2.30271 7.94257 1.32071 6.96136 1.32031 5.74338Z" fill="#4465EA"/>
<path d="M13.7277 5.73749C13.7281 6.96372 12.7461 7.94375 11.5179 7.94257C10.3007 7.94179 9.32071 6.959 9.32031 5.73985C9.32031 4.51323 10.3011 3.53437 11.5301 3.53516C12.7481 3.53633 13.7277 4.51794 13.7277 5.73749Z" fill="#4465EA"/>
<path d="M5.75781 9.26138C5.7586 8.28644 6.54663 7.50312 7.52589 7.50391C8.50121 7.50469 9.28453 8.29194 9.28375 9.27159C9.28296 10.2469 8.49493 11.0302 7.51568 11.0294C6.54074 11.0287 5.75703 10.2406 5.75781 9.26138Z" fill="#4465EA"/>
</svg>
