<svg width="14" height="19" viewBox="0 0 14 19" fill="none" xmlns="http://www.w3.org/2000/svg">
<path fill-rule="evenodd" clip-rule="evenodd" d="M8.64135 4.85727C8.64135 3.04293 8.01688 0.806641 8.01688 0.806641C11.3165 3.44799 13.5021 7.50706 13.5021 12.0556C13.5021 15.7855 10.481 18.8066 6.75105 18.8066C3.0211 18.8066 0 15.7855 0 12.0556C0 9.20327 1.0211 6.57879 2.72574 4.55348L2.70042 4.85727C2.70042 6.59567 4.01688 8.00495 5.76371 8.00495C7.50211 8.00495 8.64135 6.59567 8.64135 4.85727ZM3.78906 13.6256C3.78906 15.0939 5.00425 16.2753 6.50636 16.2753C8.74265 16.2753 10.557 14.461 10.557 12.2247C10.557 11.0517 10.3882 9.90404 10.0591 8.81543C9.19835 9.97155 7.65404 10.6888 6.16037 10.9926C4.67514 11.2964 3.78906 12.2585 3.78906 13.6256Z" fill="#EE4D2C"/>
</svg>
