<svg width="72" height="72" viewBox="0 0 72 72" fill="none" xmlns="http://www.w3.org/2000/svg">
<g filter="url(#filter0_d_3936_1171)">
<circle r="30" transform="matrix(1 0 0 -1 36 35)" fill="#FF9F00"/>
<path d="M21.0767 50.633V51.857H22.1747C22.3427 51.857 22.4747 51.809 22.5707 51.713C22.6667 51.611 22.7147 51.449 22.7147 51.227C22.7147 51.101 22.6967 50.987 22.6607 50.885C22.6307 50.783 22.5947 50.699 22.5527 50.633H21.0767ZM21.1847 51.857V50.633H19.9787C19.8107 50.633 19.6787 50.684 19.5827 50.786C19.4867 50.882 19.4387 51.041 19.4387 51.263C19.4387 51.389 19.4537 51.503 19.4837 51.605C19.5197 51.707 19.5587 51.791 19.6007 51.857H21.1847ZM23.6687 51.29C23.6687 51.818 23.5367 52.214 23.2727 52.478C23.0147 52.742 22.6817 52.874 22.2737 52.874C22.1957 52.874 22.1057 52.871 22.0037 52.865C21.9077 52.853 21.8267 52.841 21.7607 52.829V49.697C21.8507 49.685 21.9377 49.676 22.0217 49.67C22.1117 49.664 22.1987 49.661 22.2827 49.661C22.5647 49.661 22.8077 49.724 23.0117 49.85C23.2217 49.97 23.3837 50.15 23.4977 50.39C23.6117 50.63 23.6687 50.93 23.6687 51.29ZM25.2887 51.263C25.2887 50.609 25.1567 50.072 24.8927 49.652C24.6347 49.226 24.2717 48.911 23.8037 48.707C23.3417 48.497 22.7987 48.392 22.1747 48.392C21.9467 48.392 21.6887 48.407 21.4007 48.437C21.1127 48.461 20.8397 48.515 20.5817 48.599C20.4677 48.641 20.3747 48.698 20.3027 48.77C20.2307 48.836 20.1947 48.932 20.1947 49.058V53.261C20.1947 53.573 20.3597 53.792 20.6897 53.918C20.9297 54.008 21.1997 54.068 21.4997 54.098C21.8057 54.128 22.0607 54.143 22.2647 54.143C22.8707 54.143 23.3987 54.038 23.8487 53.828C24.3047 53.612 24.6587 53.291 24.9107 52.865C25.1627 52.439 25.2887 51.905 25.2887 51.263ZM27.9455 53.027C28.0475 53.027 28.1585 53.018 28.2785 53C28.4045 52.976 28.4975 52.946 28.5575 52.91V52.19L27.9095 52.244C27.7415 52.256 27.6035 52.292 27.4955 52.352C27.3875 52.412 27.3335 52.502 27.3335 52.622C27.3335 52.742 27.3785 52.841 27.4685 52.919C27.5645 52.991 27.7235 53.027 27.9455 53.027ZM27.8735 49.49C28.5275 49.49 29.0495 49.625 29.4395 49.895C29.8355 50.159 30.0335 50.573 30.0335 51.137V53.153C30.0335 53.309 29.9885 53.438 29.8985 53.54C29.8145 53.636 29.7125 53.72 29.5925 53.792C29.4005 53.906 29.1665 53.993 28.8905 54.053C28.6145 54.113 28.2995 54.143 27.9455 54.143C27.3155 54.143 26.8085 54.023 26.4245 53.783C26.0465 53.537 25.8575 53.168 25.8575 52.676C25.8575 52.262 25.9805 51.944 26.2265 51.722C26.4785 51.5 26.8595 51.362 27.3695 51.308L28.5485 51.182V51.119C28.5485 50.945 28.4705 50.822 28.3145 50.75C28.1645 50.672 27.9455 50.633 27.6575 50.633C27.4355 50.633 27.2135 50.657 26.9915 50.705C26.7755 50.753 26.5805 50.813 26.4065 50.885C26.3285 50.831 26.2625 50.75 26.2085 50.642C26.1545 50.528 26.1275 50.411 26.1275 50.291C26.1275 50.003 26.2805 49.799 26.5865 49.679C26.7605 49.613 26.9645 49.565 27.1985 49.535C27.4385 49.505 27.6635 49.49 27.8735 49.49ZM28.0445 47.897C28.2305 47.897 28.3805 47.852 28.4945 47.762C28.6145 47.672 28.6925 47.561 28.7285 47.429C28.7585 47.423 28.7855 47.42 28.8095 47.42C28.8395 47.42 28.8665 47.42 28.8905 47.42C29.1365 47.42 29.3165 47.489 29.4305 47.627C29.5505 47.765 29.6105 47.912 29.6105 48.068C29.6105 48.338 29.4725 48.566 29.1965 48.752C28.9265 48.932 28.5425 49.022 28.0445 49.022C27.5465 49.022 27.1595 48.932 26.8835 48.752C26.6135 48.566 26.4785 48.338 26.4785 48.068C26.4785 47.912 26.5385 47.765 26.6585 47.627C26.7785 47.489 26.9585 47.42 27.1985 47.42C27.2285 47.42 27.2555 47.42 27.2795 47.42C27.3035 47.42 27.3305 47.423 27.3605 47.429C27.3905 47.561 27.4655 47.672 27.5855 47.762C27.7055 47.852 27.8585 47.897 28.0445 47.897ZM28.7645 55.277C28.7645 55.499 28.6895 55.685 28.5395 55.835C28.3955 55.985 28.2005 56.06 27.9545 56.06C27.7145 56.06 27.5195 55.985 27.3695 55.835C27.2195 55.685 27.1445 55.499 27.1445 55.277C27.1445 55.055 27.2195 54.869 27.3695 54.719C27.5195 54.569 27.7145 54.494 27.9545 54.494C28.2005 54.494 28.3955 54.569 28.5395 54.719C28.6895 54.869 28.7645 55.055 28.7645 55.277ZM30.987 51.623H32.499V52.496C32.499 52.646 32.547 52.757 32.643 52.829C32.745 52.895 32.886 52.928 33.066 52.928C33.156 52.928 33.249 52.922 33.345 52.91C33.441 52.892 33.525 52.871 33.597 52.847C33.651 52.907 33.696 52.979 33.732 53.063C33.774 53.147 33.795 53.246 33.795 53.36C33.795 53.582 33.708 53.768 33.534 53.918C33.366 54.062 33.066 54.134 32.634 54.134C32.106 54.134 31.698 54.014 31.41 53.774C31.128 53.534 30.987 53.144 30.987 52.604V51.623ZM31.977 50.894V49.724H33.678C33.714 49.784 33.747 49.865 33.777 49.967C33.813 50.069 33.831 50.18 33.831 50.3C33.831 50.51 33.783 50.663 33.687 50.759C33.597 50.849 33.474 50.894 33.318 50.894H31.977ZM32.499 51.839H30.987V48.608C31.053 48.59 31.146 48.572 31.266 48.554C31.392 48.53 31.524 48.518 31.662 48.518C31.956 48.518 32.169 48.569 32.301 48.671C32.433 48.773 32.499 48.962 32.499 49.238V51.839ZM36.4649 50.021H38.0399V53.945L37.3019 54.026C37.0439 54.026 36.8399 53.951 36.6899 53.801C36.5399 53.651 36.4649 53.447 36.4649 53.189V50.021ZM37.3019 54.026V52.757H40.1009C40.1429 52.823 40.1819 52.91 40.2179 53.018C40.2539 53.126 40.2719 53.243 40.2719 53.369C40.2719 53.591 40.2239 53.756 40.1279 53.864C40.0319 53.972 39.8999 54.026 39.7319 54.026H37.3019ZM38.0399 52.1H36.4649V48.527C36.5369 48.515 36.6419 48.5 36.7799 48.482C36.9239 48.458 37.0619 48.446 37.1939 48.446C37.4939 48.446 37.7099 48.497 37.8419 48.599C37.9739 48.701 38.0399 48.899 38.0399 49.193V52.1ZM40.9261 48.41C40.9261 48.182 41.0041 47.99 41.1601 47.834C41.3161 47.678 41.5171 47.6 41.7631 47.6C42.0091 47.6 42.2101 47.678 42.3661 47.834C42.5221 47.99 42.6001 48.182 42.6001 48.41C42.6001 48.632 42.5221 48.824 42.3661 48.986C42.2101 49.142 42.0091 49.22 41.7631 49.22C41.5171 49.22 41.3161 49.142 41.1601 48.986C41.0041 48.824 40.9261 48.632 40.9261 48.41ZM40.9981 51.623H42.5281V53.99C42.4621 54.008 42.3661 54.026 42.2401 54.044C42.1201 54.062 41.9881 54.071 41.8441 54.071C41.5501 54.071 41.3341 54.02 41.1961 53.918C41.0641 53.816 40.9981 53.627 40.9981 53.351V51.623ZM42.5281 52.424H40.9981V49.688C41.0641 49.67 41.1571 49.652 41.2771 49.634C41.4031 49.616 41.5381 49.607 41.6821 49.607C41.9821 49.607 42.1981 49.658 42.3301 49.76C42.4621 49.856 42.5281 50.045 42.5281 50.327V52.424ZM42.6181 55.277C42.6181 55.499 42.5431 55.685 42.3931 55.835C42.2491 55.985 42.0541 56.06 41.8081 56.06C41.5681 56.06 41.3731 55.985 41.2231 55.835C41.0731 55.685 40.9981 55.499 40.9981 55.277C40.9981 55.055 41.0731 54.869 41.2231 54.719C41.3731 54.569 41.5681 54.494 41.8081 54.494C42.0541 54.494 42.2491 54.569 42.3931 54.719C42.5431 54.869 42.6181 55.055 42.6181 55.277ZM45.9682 50.696C45.6682 50.696 45.4072 50.792 45.1852 50.984C44.9692 51.176 44.8612 51.458 44.8612 51.83C44.8612 52.202 44.9662 52.478 45.1762 52.658C45.3862 52.838 45.6472 52.928 45.9592 52.928C46.1392 52.928 46.2982 52.907 46.4362 52.865C46.5802 52.817 46.7002 52.769 46.7962 52.721C46.9102 52.805 46.9942 52.895 47.0482 52.991C47.1082 53.087 47.1382 53.204 47.1382 53.342C47.1382 53.582 47.0182 53.774 46.7782 53.918C46.5442 54.062 46.2082 54.134 45.7702 54.134C45.2722 54.134 44.8372 54.047 44.4652 53.873C44.0992 53.699 43.8142 53.441 43.6102 53.099C43.4122 52.751 43.3132 52.328 43.3132 51.83C43.3132 51.302 43.4242 50.867 43.6462 50.525C43.8682 50.177 44.1622 49.919 44.5282 49.751C44.8942 49.577 45.2932 49.49 45.7252 49.49C46.1512 49.49 46.4812 49.568 46.7152 49.724C46.9552 49.88 47.0752 50.081 47.0752 50.327C47.0752 50.441 47.0482 50.549 46.9942 50.651C46.9402 50.747 46.8772 50.831 46.8052 50.903C46.7032 50.855 46.5802 50.81 46.4362 50.768C46.2922 50.72 46.1362 50.696 45.9682 50.696ZM52.2255 52.154H50.6955V51.353C50.6955 51.107 50.6325 50.936 50.5065 50.84C50.3865 50.738 50.2365 50.687 50.0565 50.687C49.8765 50.687 49.7175 50.72 49.5795 50.786C49.4415 50.852 49.3215 50.924 49.2195 51.002V49.769C49.3575 49.697 49.5225 49.634 49.7145 49.58C49.9065 49.52 50.1165 49.49 50.3445 49.49C50.9325 49.49 51.3915 49.64 51.7215 49.94C52.0575 50.234 52.2255 50.675 52.2255 51.263V52.154ZM47.9235 51.623H49.4535V53.99C49.3875 54.008 49.2915 54.026 49.1655 54.044C49.0455 54.062 48.9135 54.071 48.7695 54.071C48.4755 54.071 48.2595 54.02 48.1215 53.918C47.9895 53.816 47.9235 53.627 47.9235 53.351V51.623ZM50.6955 51.623H52.2255V53.99C52.1595 54.008 52.0635 54.026 51.9375 54.044C51.8175 54.062 51.6855 54.071 51.5415 54.071C51.2475 54.071 51.0315 54.02 50.8935 53.918C50.7615 53.816 50.6955 53.627 50.6955 53.351V51.623ZM49.4535 52.424H47.9235V48.131C47.9895 48.113 48.0825 48.095 48.2025 48.077C48.3285 48.059 48.4635 48.05 48.6075 48.05C48.9075 48.05 49.1235 48.101 49.2555 48.203C49.3875 48.299 49.4535 48.488 49.4535 48.77V52.424Z" fill="white"/>
<path d="M49.1475 19.0766H47.8544V17H45.1285V22.1519H42.4027V19.0766H29.3186V17.0396H26.5927V22.1815H23.8669V19.0766H22.6117C21.1664 19.0766 20 19.9863 20 21.1136V39.773C20 40.9003 21.1791 41.81 22.6117 41.81H49.1602C50.6056 41.81 51.772 40.9003 51.772 39.773V21.1136C51.772 19.9863 50.5929 19.0766 49.1475 19.0766ZM29.4707 38.7347H24.0571V36.5889H29.4707V38.7347ZM29.4707 33.5829H24.0571V31.4371H29.4707V33.5829ZM29.4707 28.4804H24.0571V26.3347H29.4707V28.4804ZM33.2235 26.3347H38.6372V28.4804H33.2235V26.3347ZM38.6625 38.7347H33.2489V36.5889H38.6625V38.7347ZM38.6625 33.5829H33.2489V31.4371H38.6625V33.5829ZM47.8417 38.7347H42.428V36.5889H47.8417V38.7347ZM47.8417 33.5829H42.428V31.4371H47.8417V33.5829ZM48.2854 26.5126L46.8147 27.4125C47.0049 27.8871 47.2078 28.3618 47.3979 28.8265C47.4994 29.0737 47.1317 29.2814 46.8654 29.1331C46.3203 28.8364 45.7751 28.5398 45.2299 28.2431C44.6848 28.5398 44.1396 28.8364 43.5944 29.1331C43.3155 29.2814 42.9605 29.0737 43.0619 28.8265C43.2521 28.3519 43.455 27.8772 43.6451 27.4125L42.1744 26.5126C41.9082 26.3544 42.0603 26.0281 42.39 26.0281H44.241C44.4566 25.5139 44.6721 25.0096 44.8876 24.4954C44.989 24.2482 45.4455 24.2482 45.5469 24.4954C45.7624 25.0096 45.978 25.5139 46.1935 26.0281H48.0445C48.4122 26.0182 48.5517 26.3544 48.2854 26.5126Z" fill="white"/>
<path d="M51.0165 47.1275C47.1418 47.1368 43.9992 44.1929 44.0029 40.5546C44.0066 36.9499 47.1195 34.0107 50.9448 33.9991C54.8442 33.9875 57.9905 36.8988 58.0029 40.5291C58.0153 44.1732 54.8987 47.1182 51.0165 47.1275Z" fill="url(#paint0_linear_3936_1171)"/>
<path d="M51.0142 45.6064C48.0373 45.6134 45.6232 43.3524 45.6257 40.557C45.6281 37.7882 48.0188 35.5296 50.9585 35.5215C53.9539 35.5122 56.3705 37.7488 56.3804 40.5373C56.3903 43.3362 53.996 45.5983 51.0142 45.6064ZM50.4032 40.644C50.1274 40.3518 49.8887 40.0584 49.6067 39.8092C49.1801 39.4323 48.5543 39.4613 48.1622 39.8416C47.7677 40.2242 47.7652 40.8016 48.1783 41.1982C48.6779 41.677 49.1863 42.1478 49.7032 42.6115C50.1447 43.0081 50.7198 43.0104 51.1799 42.6289C51.4136 42.4341 51.6375 42.2289 51.8638 42.0283C52.6343 41.3454 53.4097 40.6671 54.1728 39.9761C54.6094 39.5807 54.6279 38.9871 54.2421 38.5941C53.8562 38.201 53.2168 38.1824 52.7691 38.5546C52.6269 38.6729 52.4933 38.7981 52.3548 38.921C51.7302 39.4694 51.1069 40.0213 50.4032 40.644Z" fill="white"/>
<path d="M50.4035 40.6442C51.1072 40.0216 51.7318 39.4709 52.3551 38.919C52.4936 38.7972 52.6272 38.6708 52.7694 38.5526C53.2171 38.1804 53.8565 38.1989 54.2424 38.592C54.6282 38.985 54.6097 39.5798 54.1731 39.9741C53.41 40.6651 52.6346 41.3434 51.8641 42.0263C51.6365 42.228 51.4139 42.4333 51.1802 42.6269C50.7213 43.0083 50.145 43.006 49.7035 42.6095C49.1878 42.1457 48.6782 41.6761 48.1786 41.1961C47.7655 40.7996 47.768 40.2233 48.1625 39.8396C48.5546 39.4593 49.1803 39.4303 49.607 39.8071C49.889 40.0587 50.1277 40.3509 50.4035 40.6442Z" fill="#FF9F00"/>
</g>
<defs>
<filter id="filter0_d_3936_1171" x="0" y="0" width="72" height="72" filterUnits="userSpaceOnUse" color-interpolation-filters="sRGB">
<feFlood flood-opacity="0" result="BackgroundImageFix"/>
<feColorMatrix in="SourceAlpha" type="matrix" values="0 0 0 0 0 0 0 0 0 0 0 0 0 0 0 0 0 0 127 0" result="hardAlpha"/>
<feOffset dy="1"/>
<feGaussianBlur stdDeviation="3"/>
<feComposite in2="hardAlpha" operator="out"/>
<feColorMatrix type="matrix" values="0 0 0 0 0 0 0 0 0 0 0 0 0 0 0 0 0 0 0.25 0"/>
<feBlend mode="normal" in2="BackgroundImageFix" result="effect1_dropShadow_3936_1171"/>
<feBlend mode="normal" in="SourceGraphic" in2="effect1_dropShadow_3936_1171" result="shape"/>
</filter>
<linearGradient id="paint0_linear_3936_1171" x1="54.9802" y1="52.6155" x2="49.5754" y2="32.798" gradientUnits="userSpaceOnUse">
<stop stop-color="#FF9F00"/>
<stop offset="1" stop-color="#F17400"/>
</linearGradient>
</defs>
</svg>
