<svg width="20" height="23" viewBox="0 0 20 23" fill="none" xmlns="http://www.w3.org/2000/svg">
<path d="M0 3.78233C0.0498963 3.44701 0.0997928 3.16757 0.149689 2.83225C0.299378 2.16161 0.598756 1.65863 1.09772 1.32331C1.69648 0.932108 2.24534 0.540903 2.84409 0.149697C3.29316 -0.129737 3.74223 -0.0179641 4.0416 0.485015C4.93974 1.99395 5.83787 3.50289 6.73601 5.01183C7.03538 5.51481 6.93559 6.01779 6.53642 6.35311C6.08735 6.74432 5.58839 7.19141 5.13932 7.58262C4.64036 8.02971 4.59046 8.42092 4.88984 9.03567C5.63829 10.6564 6.73601 12.0535 7.88362 13.3389C8.73186 14.289 9.5801 15.1832 10.578 15.9097C10.9273 16.1892 11.3265 16.4127 11.7256 16.6362C12.1248 16.8598 12.524 16.748 12.8234 16.3568C13.1726 15.8538 13.5718 15.295 13.9211 14.792C14.3203 14.2331 14.7693 14.1214 15.2683 14.5126C16.5656 15.4626 17.8629 16.4127 19.1602 17.4187C19.7091 17.8099 19.8088 18.3128 19.4596 18.9276C19.1602 19.4865 18.8608 19.9894 18.6113 20.5483C18.2122 21.3866 17.5635 21.7778 16.7652 21.8896C16.6155 21.8896 16.4658 21.9455 16.3161 22.0014C15.9668 22.0014 15.6675 22.0014 15.3182 22.0014C15.2683 22.0014 15.2184 22.0014 15.1685 21.9455C14.7693 21.8896 14.3203 21.8337 13.9211 21.666C12.4242 21.219 11.0271 20.3807 9.77968 19.4306C7.78383 17.9216 6.08735 16.0774 4.44077 14.0655C3.24326 12.5565 2.14554 10.9917 1.29731 9.20333C0.848238 8.30914 0.498964 7.35907 0.299378 6.35311C0.199586 5.90602 0.149689 5.45892 0.0997926 4.95595C-9.66567e-08 4.50885 0 4.17353 0 3.78233Z" fill="#FF9F00"/>
<path d="M11.4275 2.66797C12.9243 2.77974 14.2216 3.33861 15.3693 4.45634C16.467 5.51819 17.1156 6.80358 17.415 8.3684C17.5148 8.8155 17.5148 9.31847 17.5647 9.76557C17.5647 10.045 17.4649 10.1568 17.2653 10.2127C17.0657 10.2127 16.916 10.045 16.916 9.82146C16.8662 9.43025 16.8662 8.98316 16.8163 8.59195C16.3672 6.35648 15.1697 4.73577 13.2736 3.89747C12.6749 3.61804 12.0262 3.50627 11.3776 3.45038C11.3277 3.45038 11.2279 3.45038 11.178 3.39449C10.9784 3.33861 10.8786 3.17095 10.9285 3.00329C10.9285 2.77974 11.0782 2.66797 11.2778 2.66797C11.2279 2.66797 11.3277 2.66797 11.4275 2.66797Z" fill="#FF9F00"/>
<path d="M11.3767 4.95432C13.2727 5.01021 14.9692 6.57504 15.4682 8.69873C15.568 9.03405 15.568 9.42525 15.568 9.76057C15.568 10.04 15.4682 10.2077 15.2686 10.2077C15.069 10.2077 14.9193 10.04 14.9193 9.76057C14.9193 9.25759 14.8195 8.75461 14.6698 8.30752C14.121 6.85447 13.173 6.01617 11.7759 5.73674C11.5763 5.68085 11.4266 5.68085 11.227 5.68085C10.9775 5.62496 10.8278 5.4573 10.8777 5.23376C10.8777 5.01021 11.0274 4.89844 11.2769 4.89844C11.2769 4.95432 11.3268 4.95432 11.3767 4.95432Z" fill="#FF9F00"/>
<path d="M11.2773 7.19189C12.4748 7.24778 13.4728 8.36551 13.5226 9.70679C13.5226 10.0421 13.4229 10.1539 13.2233 10.2098C13.0237 10.2098 12.874 10.0421 12.874 9.76268C12.874 9.31559 12.7243 8.92438 12.4249 8.58906C12.1256 8.25374 11.7763 8.03019 11.3272 7.97431C11.2773 7.97431 11.1775 7.97431 11.1276 7.91842C10.928 7.86254 10.8282 7.69487 10.8282 7.52721C10.8282 7.30367 10.9779 7.19189 11.1775 7.19189C11.2274 7.19189 11.2773 7.19189 11.2773 7.19189Z" fill="#FF9F00"/>
</svg>
