<svg width="32" height="35" viewBox="0 0 32 35" fill="none" xmlns="http://www.w3.org/2000/svg">
<path d="M17.3548 0C17.9931 0 18.6303 0 19.2686 0C19.7954 0.0812594 20.3258 0.146084 20.849 0.24743C23.3963 0.740465 25.5538 2.01779 27.5616 3.59641C29.027 4.74774 30.0688 6.19763 30.622 7.97712C31.1507 9.67627 31.336 11.4256 31.3032 13.2024C31.2749 14.7162 30.8868 16.1286 30.0888 17.4133C29.6807 18.0697 29.2251 18.6979 28.7604 19.316C27.7186 20.7011 26.8704 22.1765 26.4358 23.8748C25.951 25.7675 26.0003 27.662 26.3399 29.5647C26.6367 31.2283 27.0439 32.8571 27.8638 34.3536C27.9651 34.5389 28.0765 34.7197 28.2016 34.9324C28.0692 34.9416 27.9807 34.9534 27.8921 34.9543C23.3817 34.968 18.8723 34.9781 14.3619 35C14.1154 35.0009 14.0342 34.9114 13.9675 34.695C13.5667 33.3949 12.9157 32.2308 12.0282 31.1981C11.9789 31.1406 11.9424 31.0722 11.894 31.0018C12.7696 30.6869 13.6315 30.3993 14.4761 30.0669C15.2859 29.7474 16.0364 29.3164 16.6235 28.6517C17.07 28.1468 17.3229 27.5625 17.2909 26.8768C17.2754 26.5454 17.0243 26.2952 16.7057 26.2715C16.4108 26.2495 16.0812 26.4705 16.0739 26.7764C16.0547 27.6401 15.5151 28.1349 14.8431 28.4855C14.1921 28.8261 13.5 29.1 12.8061 29.3438C10.2533 30.2386 7.71328 31.1762 5.07371 31.7998C4.39899 31.9596 3.88952 31.6711 3.65122 31.0265C3.42113 30.4066 3.50331 29.8049 3.6357 29.1822C3.84295 28.2107 3.454 27.4182 2.59393 26.948C2.51815 26.9069 2.44693 26.8576 2.35837 26.8028C2.42137 26.6942 2.46793 26.6056 2.52271 26.5207C2.82858 26.0423 2.78567 25.7912 2.33646 25.4461C2.13011 25.2881 1.92468 25.1293 1.71286 24.9658C1.86077 24.6737 2.01416 24.408 2.13468 24.1277C2.58206 23.0877 2.2835 22.1857 1.31113 21.6187C1.10478 21.4981 0.883831 21.4032 0.681139 21.2772C-0.204498 20.7248 -0.15976 20.8152 0.432795 20.0483C1.62064 18.5107 2.63593 16.8709 3.475 15.1188C3.68956 14.6705 3.73978 14.2067 3.49235 13.7758C3.29879 13.4379 3.05318 13.112 2.76741 12.8499C2.16755 12.3003 2.14472 12.2382 2.43415 11.474C2.77197 10.5829 3.08879 9.68448 3.39283 8.7815C3.54165 8.34051 3.61652 7.87486 3.769 7.4357C4.83907 4.34601 6.81577 2.17666 10.0424 1.27459C11.8657 0.765116 13.7228 0.439167 15.5991 0.206345C16.1834 0.13239 16.7696 0.0684771 17.3548 0ZM17.8826 1.25542C16.2318 1.33394 14.2414 1.6261 12.2638 2.02144C10.9993 2.27435 9.75481 2.58843 8.60896 3.19925C6.75186 4.18806 5.67266 5.82147 4.99702 7.73791C4.49851 9.14945 4.18169 10.6048 4.43733 12.1277C4.71124 13.7575 5.74388 14.8924 7.3088 15.2193C8.13418 15.3918 8.95956 15.3124 9.78859 15.2101C11.3572 15.0175 12.9276 14.8276 14.5025 14.6943C15.432 14.6157 16.377 14.7344 17.1622 15.2667C17.8342 15.7223 18.4167 16.3131 19.0257 16.8581C19.0823 16.9093 19.0732 17.0636 19.0549 17.1631C18.9846 17.5429 18.8696 17.9163 18.823 18.298C18.6185 19.9953 19.0166 21.4571 20.4801 22.5107C20.9403 22.8421 21.3649 23.2265 21.7849 23.61C22.3153 24.0948 22.6029 24.6947 22.5545 25.4315C22.5345 25.7446 22.6029 26.0249 22.9161 26.1783C23.232 26.3335 23.4886 26.1948 23.7287 25.9994C24.439 25.4223 24.7896 24.6399 24.933 23.767C25.0325 23.1626 25.0024 22.5353 25.1192 21.9364C25.4132 20.4345 26.3783 19.337 27.515 18.4267C28.8626 17.3484 29.6177 15.9743 29.93 14.319C30.1865 12.9568 30.0432 11.5954 29.8588 10.2396C29.5775 8.16703 28.8133 6.32454 27.1973 4.93035C26.5445 4.36701 25.8369 3.86028 25.1174 3.38185C23.0412 2.00227 20.7677 1.22346 17.8826 1.25542Z" fill="white"/>
<path d="M6.73905 6.88044C7.40008 5.6999 8.17889 4.75309 9.43522 4.19432C9.43522 4.50657 9.42609 4.77409 9.43705 5.04161C9.47539 6.02585 10.2104 6.79279 11.1782 6.86401C11.5808 6.89414 11.8739 6.68597 11.9278 6.3308C11.9807 5.98659 11.7406 5.69533 11.3453 5.62229C10.8331 5.52825 10.6925 5.36482 10.6833 4.84622C10.6806 4.70926 10.6824 4.57322 10.6824 4.43627C10.6824 3.67115 10.6797 3.65928 11.4457 3.48215C12.2099 3.30594 12.9796 3.15712 13.7447 2.99734C13.9428 3.58259 14.1474 3.78345 14.4934 3.74602C14.865 3.70585 15.0166 3.4712 15.0832 2.79556C15.4694 2.74352 15.8675 2.68874 16.3048 2.62939C16.3185 3.15255 16.2555 3.76976 16.9668 3.72959C17.6963 3.68941 17.5347 3.0439 17.5694 2.53809C17.972 2.53809 18.3628 2.53809 18.8038 2.53809C18.8038 2.8686 18.8038 3.19364 18.8038 3.51959C18.8038 3.98615 18.7965 4.45361 18.8065 4.92017C18.8166 5.38399 19.0476 5.60769 19.5077 5.61499C19.8949 5.62047 20.282 5.6232 20.6691 5.61316C21.0453 5.60312 21.3091 5.34017 21.3082 4.99778C21.3073 4.65631 21.0425 4.39519 20.6673 4.37692C20.4774 4.36779 20.2866 4.3751 20.0848 4.3751C20.0848 3.78528 20.0848 3.23472 20.0848 2.66226C21.1393 2.83664 22.1153 3.16442 23.0384 3.64285C23.116 3.68302 23.1672 3.84371 23.1699 3.94962C23.1836 4.46183 23.1726 4.97404 23.1772 5.48716C23.1818 5.95737 23.4073 6.22945 23.788 6.23858C24.1879 6.24863 24.4253 5.97746 24.4335 5.48899C24.439 5.16304 24.4344 4.83709 24.4344 4.42075C24.8699 4.733 25.2397 4.98956 25.5976 5.26256C25.6542 5.30638 25.6798 5.42051 25.6807 5.50268C25.6889 5.93546 25.6908 6.36824 25.6825 6.80101C25.6752 7.2137 25.4835 7.42917 25.0809 7.5013C24.597 7.58895 24.3787 7.84917 24.4527 8.2509C24.5193 8.60972 24.8517 8.79963 25.3009 8.7348C26.2267 8.6015 26.9005 7.84277 26.9243 6.90692C26.927 6.7937 26.9243 6.67958 26.9243 6.55997C27.7222 6.95075 28.7394 9.64783 28.68 11.2548C28.3714 11.2548 28.0592 11.2538 27.7469 11.2548C27.2237 11.2566 26.9334 11.4757 26.9288 11.8665C26.9243 12.2682 27.2292 12.5001 27.767 12.502C28.0957 12.5029 28.4244 12.502 28.7658 12.502C28.7658 12.9219 28.7658 13.3136 28.7658 13.7428C28.3805 13.7428 28.0309 13.74 27.6803 13.7437C27.2237 13.7491 26.9361 13.9884 26.9288 14.3618C26.9215 14.737 27.2064 14.9827 27.662 14.99C27.9085 14.9936 28.1559 14.9909 28.4536 14.9909C28.1614 15.9039 27.7131 16.6434 27.0028 17.2177C26.0916 17.9555 25.0252 18.0952 23.9094 18.0075C23.5278 17.9774 23.1516 17.8669 22.7755 17.7811C22.6969 17.7628 22.5682 17.6916 22.5691 17.6478C22.5773 17.288 22.5536 16.91 22.6632 16.5777C22.7143 16.4234 23.0329 16.2846 23.2402 16.2691C23.8181 16.2271 24.4007 16.2609 24.9813 16.2508C25.3666 16.2445 25.6168 16.0381 25.6716 15.714C25.7337 15.3479 25.4534 15.01 25.0288 14.9991C24.3687 14.9826 23.7058 14.9662 23.0485 15.0137C22.0405 15.0858 21.363 15.8199 21.3101 16.8261C21.3073 16.8799 21.3018 16.9338 21.2909 17.0671C20.8599 16.7247 20.4609 16.4316 20.0893 16.1075C19.6693 15.7414 19.2713 15.3488 18.8668 14.9653C18.2103 14.3417 17.4507 13.8989 16.5742 13.6725C16.3715 13.6204 16.2866 13.5346 16.3085 13.3246C16.3204 13.2141 16.3076 13.0954 16.282 12.9868C16.2099 12.68 15.9679 12.4974 15.6648 12.5047C15.3626 12.512 15.1334 12.7083 15.075 13.0196C15.0503 13.152 15.0439 13.2872 15.0376 13.3383C12.7477 13.5903 10.4916 13.8386 8.20902 14.0897C8.19076 13.6341 8.15516 13.2105 7.62103 13.131C7.29691 13.0826 7.07504 13.2735 6.8897 13.7519C6.14193 13.362 5.83059 12.7028 5.65985 11.8802C5.88811 11.8802 6.08897 11.8866 6.28893 11.8793C7.28595 11.8446 8.02551 11.1954 8.17068 10.2313C8.23824 9.78022 8.02551 9.43875 7.64021 9.38123C7.28687 9.32827 7.01752 9.56657 6.93626 10.0021C6.85318 10.4495 6.67149 10.6074 6.22228 10.6175C6.03145 10.622 5.84063 10.6184 5.54025 10.6184C5.74933 9.78387 5.93832 9.00688 6.14832 8.23537C6.16384 8.17877 6.33001 8.13586 6.42679 8.13494C6.99561 8.1249 7.56534 8.13312 8.13507 8.12855C8.40532 8.12673 8.65823 8.02812 8.73036 7.7606C8.78149 7.57435 8.77601 7.30865 8.67467 7.16257C8.57241 7.01557 8.32498 6.9124 8.13233 6.89596C7.69773 6.85396 7.254 6.88044 6.73905 6.88044ZM15.6958 4.9713C15.6949 4.97952 15.6949 4.98865 15.694 4.99687C15.4667 4.99687 15.2375 4.985 15.0111 4.9987C14.2551 5.04617 13.6963 5.40499 13.3622 6.08885C13.1211 6.58189 13.1631 7.11235 13.2097 7.63186C13.2352 7.92129 13.5411 8.13038 13.8251 8.12216C14.1282 8.11394 14.3911 7.88021 14.4194 7.56886C14.4386 7.3543 14.4213 7.13609 14.4322 6.92062C14.4523 6.51432 14.6641 6.27237 15.0622 6.25228C15.4822 6.23037 15.9058 6.23037 16.3258 6.25411C16.7047 6.27602 16.9184 6.52071 16.9367 6.90327C16.9467 7.10779 16.9312 7.31413 16.944 7.51774C16.965 7.86742 17.2334 8.12307 17.5621 8.12125C17.8926 8.11942 18.1583 7.8656 18.1765 7.51317C18.1893 7.27487 18.1857 7.03475 18.1775 6.79553C18.1501 5.9455 17.5493 5.21508 16.713 5.05256C16.3806 4.98956 16.0355 4.99687 15.6958 4.9713ZM11.5954 8.13129C10.2944 8.03999 9.54935 8.9101 9.46718 9.72452C9.42426 10.15 9.43705 10.5892 9.49365 11.0128C9.56578 11.5478 9.89082 11.9459 10.3492 12.2271C10.886 12.5567 11.4804 12.5421 12.0702 12.4718C12.3569 12.438 12.5249 12.2153 12.5541 11.9267C12.5824 11.651 12.4528 11.4337 12.2035 11.3187C12.0857 11.2648 11.9387 11.2584 11.8054 11.2557C10.7847 11.2365 10.5929 11.0247 10.687 10.0085C10.7235 9.6104 10.9481 9.38853 11.348 9.36936C11.5635 9.35931 11.7808 9.37757 11.9963 9.35931C12.3222 9.33192 12.5651 9.0571 12.5623 8.74119C12.5596 8.42437 12.3158 8.1596 11.9871 8.13129C11.8392 8.12034 11.6904 8.13129 11.5954 8.13129ZM22.1692 10.6147C22.2788 10.6147 22.4039 10.6193 22.5289 10.6138C22.9234 10.5956 23.1681 10.3664 23.1745 10.0112C23.1818 9.646 22.9261 9.39036 22.5244 9.37027C22.3317 9.36023 22.1373 9.37392 21.9446 9.36479C21.5675 9.34835 21.3146 9.09362 21.3174 8.74211C21.3201 8.39151 21.5739 8.14316 21.9537 8.12855C22.1692 8.12033 22.3874 8.1386 22.602 8.1176C22.9572 8.08199 23.1854 7.81264 23.1745 7.473C23.1635 7.14248 22.9371 6.90144 22.5883 6.88592C22.2824 6.87223 21.972 6.86949 21.668 6.90053C20.8618 6.98179 20.1834 7.68939 20.0802 8.49468C19.935 9.61953 20.8097 10.7188 22.1692 10.6147ZM16.335 8.80054C16.3286 8.80054 16.3222 8.79963 16.3158 8.79963C16.3158 8.60607 16.3204 8.4125 16.3149 8.21985C16.3021 7.77886 16.072 7.51591 15.6995 7.50861C15.306 7.5013 15.0704 7.75969 15.0595 8.22716C15.0503 8.60241 15.0659 8.97858 15.0522 9.35292C15.0366 9.76105 14.812 9.97469 14.4067 9.9893C14.2131 9.99661 14.0195 9.982 13.8269 9.99661C13.4425 10.0249 13.1905 10.2778 13.1896 10.6211C13.1887 10.9635 13.4352 11.2246 13.8241 11.2447C14.1181 11.2602 14.4167 11.252 14.7089 11.2164C15.5014 11.1187 16.1378 10.5088 16.2683 9.71814C16.3167 9.41592 16.314 9.1064 16.335 8.80054ZM25.7099 11.3333C25.7026 11.3324 25.6944 11.3324 25.6871 11.3315C25.6871 11.1498 25.688 10.9672 25.6871 10.7855C25.6835 10.3006 25.4534 10.0076 25.0717 9.99752C24.6791 9.98748 24.4417 10.2842 24.4381 10.7955C24.4353 11.137 24.4472 11.4784 24.4335 11.8199C24.4162 12.2582 24.1806 12.4846 23.7451 12.5001C23.5515 12.5074 23.358 12.4946 23.1653 12.5056C22.8147 12.5257 22.5609 12.7905 22.56 13.121C22.56 13.4515 22.8138 13.719 23.1635 13.7382C23.4018 13.751 23.641 13.7464 23.8802 13.74C24.7275 13.7145 25.4607 13.1146 25.6268 12.2828C25.688 11.9724 25.6844 11.6501 25.7099 11.3333ZM19.7533 13.1182C19.809 13.1182 19.9579 13.1301 20.1039 13.1155C20.4482 13.0826 20.6983 12.7987 20.6846 12.4746C20.6709 12.1559 20.4272 11.9067 20.0921 11.8847C19.9113 11.8729 19.7287 11.8838 19.547 11.8784C19.0521 11.8647 18.8184 11.6328 18.8047 11.1434C18.7992 10.9507 18.8111 10.7562 18.7947 10.5645C18.7682 10.2477 18.5226 10.0158 18.2158 9.99843C17.92 9.98108 17.6187 10.1975 17.5767 10.5015C17.3466 12.1532 18.2249 13.1822 19.7533 13.1182Z" fill="white"/>
<path d="M25.0098 19.253C24.3871 20.0747 24.0073 20.9056 23.8767 21.8332C23.7982 22.3957 23.769 22.9645 23.7096 23.5287C23.6959 23.6611 23.6503 23.7899 23.6329 23.8602C23.1527 23.3361 22.6733 22.7864 22.162 22.2678C21.8836 21.9866 21.5668 21.7355 21.2372 21.5137C20.01 20.6874 19.7818 19.2311 20.2 17.8369C21.5978 18.9015 23.1709 19.3854 25.0098 19.253Z" fill="white"/>
</svg>
