<svg width="14" height="20" viewBox="0 0 14 20" fill="none" xmlns="http://www.w3.org/2000/svg">
<path d="M2.96614 5.96566C3.01737 6.72493 3.01737 7.37573 3.0686 8.08077C3.11983 8.08077 3.17106 8.08077 3.22229 8.08077C3.27352 7.9723 3.37598 7.86383 3.42721 7.75536C4.04197 6.39953 5.06658 5.31487 6.19364 4.3929C7.52563 3.30823 8.19162 1.9524 7.67932 0C8.75515 0.596566 9.5236 1.41007 9.77976 2.54897C9.98468 3.63363 9.98468 4.77253 10.0871 5.96566C11.3167 5.47757 11.4704 4.28443 11.6753 3.03707C12.495 4.01327 12.5974 5.3691 11.9314 6.6707C11.5216 7.4842 11.2654 8.40617 11.4191 9.32813C11.4704 9.5993 11.5728 9.87046 11.6753 10.1416C11.7265 10.3043 11.829 10.4128 11.8802 10.5755C11.9314 10.684 11.9827 10.8467 12.1363 10.9009C12.2388 10.9009 12.29 10.7382 12.3413 10.6297C12.3925 10.467 12.4437 10.3586 12.495 10.1959C12.5974 9.81623 12.5462 9.49083 12.5462 9.2739C12.7511 9.49083 13.0073 9.81623 13.2634 10.2501C13.7245 11.0636 13.9294 11.9313 13.9806 12.8533C14.2368 16.4869 11.9314 19.3071 8.29408 19.9036C4.34935 20.5544 0.66078 17.8428 0.0972479 13.7753C-0.261364 11.0094 0.353398 8.51463 2.24892 6.45377C2.50507 6.3453 2.70999 6.1826 2.96614 5.96566ZM7.16702 11.8771C6.14241 10.7924 5.06658 10.5755 4.04197 11.1721C3.0686 11.7686 2.65876 12.9075 3.01737 14.2634C3.5809 16.4327 5.06658 17.6258 7.01333 18.2766C7.11579 18.3309 7.21825 18.2766 7.32071 18.2766C9.26745 17.897 11.2142 15.7277 11.4704 13.6126C11.624 12.311 10.8556 11.1721 9.62607 10.8467C8.65269 10.684 7.88424 11.1178 7.16702 11.8771Z" fill="#EB1010"/>
</svg>
