<svg width="16" height="16" viewBox="0 0 16 16" fill="none" xmlns="http://www.w3.org/2000/svg">
<path d="M8.08691 0.000732422V15.9995C12.4652 15.9531 16 12.3893 16 8.00008C16 3.61086 12.4652 0.0470762 8.08691 0.000732422Z" fill="#FFB751"/>
<path d="M8.08691 0.00065625C8.05794 0.0003125 8.02897 0 8 0C3.58181 0 0 3.58181 0 8C0 12.4182 3.58181 16 8 16C8.02897 16 8.05794 15.9997 8.08691 15.9993C11.7537 15.944 14.7123 12.3837 14.7123 8C14.7123 3.61625 11.7537 0.0560312 8.08691 0.00065625Z" fill="#FFD764"/>
<path d="M2.34442 8.94178L3.2068 11.0238C3.78173 10.7857 4.05473 10.1265 3.81661 9.5516C3.57848 8.97666 2.91936 8.70363 2.34442 8.94178Z" fill="#FF5440"/>
<path d="M2.34438 8.94174C2.59066 8.83971 2.98357 9.22302 3.22169 9.79796C3.45982 10.3729 3.453 10.9217 3.20675 11.0237C2.63182 11.2619 1.97272 10.9889 1.73457 10.4139C1.49641 9.83899 1.76944 9.17986 2.34438 8.94174Z" fill="#FF804C"/>
<path d="M6.92684 9.78907C6.23093 9.78907 5.53687 9.62251 4.90234 9.29192C4.78409 9.23029 4.73815 9.08451 4.79977 8.96623C4.8614 8.84795 5.00727 8.8021 5.12546 8.86367C6.15084 9.39788 7.3509 9.45076 8.41797 9.00879C9.48494 8.56682 10.2961 7.68088 10.6434 6.57816C10.6835 6.45097 10.8191 6.38032 10.9463 6.42041C11.0735 6.46047 11.1441 6.59607 11.104 6.72326C10.7137 7.96254 9.802 8.95816 8.60278 9.45495C8.06381 9.67813 7.49468 9.78907 6.92684 9.78907Z" fill="#FF804C"/>
<path d="M3.25671 7.60013C3.16196 7.60013 3.07206 7.54398 3.03356 7.45101C2.77881 6.83598 3.07193 6.12842 3.68693 5.87364C4.3019 5.61892 5.00953 5.91198 5.26428 6.52701C5.31531 6.6502 5.25681 6.79145 5.13359 6.84248C5.01043 6.89351 4.86915 6.83501 4.81812 6.71179C4.66528 6.34279 4.24065 6.16695 3.87174 6.31976C3.50274 6.4726 3.3269 6.89717 3.47971 7.26616C3.53074 7.38938 3.47224 7.5306 3.34903 7.58163C3.31878 7.5942 3.28749 7.60013 3.25671 7.60013Z" fill="#401510"/>
<path d="M9.11597 5.17305C9.02122 5.17305 8.93131 5.11689 8.89281 5.02393C8.63806 4.40889 8.93116 3.70133 9.54619 3.44658C9.84409 3.32314 10.1722 3.32314 10.4702 3.44658C10.7681 3.56999 11.0001 3.80202 11.1235 4.09996C11.1746 4.22318 11.1161 4.36439 10.9929 4.41543C10.8697 4.46646 10.7284 4.40796 10.6774 4.28474C10.6034 4.10596 10.4642 3.96677 10.2854 3.89271C10.1066 3.81868 9.90978 3.81871 9.73097 3.89271C9.36197 4.04555 9.18613 4.47008 9.33894 4.83908C9.38997 4.96227 9.33147 5.10352 9.20828 5.15455C9.17806 5.16708 9.14678 5.17305 9.11597 5.17305Z" fill="#401510"/>
<path d="M8.65688 10.4581C8.56213 10.4581 8.47226 10.4019 8.43373 10.309C8.3827 10.1857 8.4412 10.0445 8.56438 9.99348L9.01051 9.8087C9.13367 9.75773 9.27498 9.81617 9.32598 9.93936C9.37701 10.0626 9.31851 10.2038 9.19532 10.2548L8.7492 10.4396C8.71895 10.4522 8.68766 10.4581 8.65688 10.4581Z" fill="#FFB751"/>
<path d="M12.6652 4.66687L13.5276 6.74886C14.1025 6.51074 14.3755 5.85162 14.1374 5.27668C13.8993 4.70174 13.2401 4.42874 12.6652 4.66687Z" fill="#FF5440"/>
<path d="M12.6652 4.66684C12.9115 4.56481 13.3044 4.94812 13.5426 5.52305C13.7807 6.09799 13.7739 6.64683 13.5276 6.74883C12.9527 6.98696 12.2936 6.71396 12.0554 6.13902C11.8173 5.56408 12.0903 4.90496 12.6652 4.66684Z" fill="#FF804C"/>
</svg>
