<svg width="18" height="18" viewBox="0 0 18 18" fill="none" xmlns="http://www.w3.org/2000/svg">
<path d="M17.4375 12.9375H16.3125V10.125C16.3125 8.18561 15.5421 6.32564 14.1707 4.95428C12.7994 3.58292 10.9394 2.8125 9 2.8125C7.0606 2.8125 5.20064 3.58292 3.82928 4.95428C2.45792 6.32564 1.6875 8.18561 1.6875 10.125V12.9375H0.5625V10.125C0.5625 7.88724 1.45145 5.74113 3.03379 4.15879C4.61612 2.57645 6.76224 1.6875 9 1.6875C11.2378 1.6875 13.3839 2.57645 14.9662 4.15879C16.5486 5.74113 17.4375 7.88724 17.4375 10.125V12.9375Z" fill="black"/>
<path d="M4.06687 16.3125H3.375C3.00566 16.3125 2.63993 16.2398 2.2987 16.0984C1.95747 15.9571 1.64743 15.7499 1.38626 15.4887C0.858816 14.9613 0.5625 14.2459 0.5625 13.5V12.375C0.5625 11.6291 0.858816 10.9137 1.38626 10.3863C1.91371 9.85882 2.62908 9.5625 3.375 9.5625H4.06687C4.33247 9.56693 4.58569 9.67555 4.77194 9.86496C4.95818 10.0544 5.06254 10.3094 5.0625 10.575V15.3C5.06254 15.5656 4.95818 15.8206 4.77194 16.01C4.58569 16.1994 4.33247 16.3081 4.06687 16.3125ZM3.375 10.6875C2.92745 10.6875 2.49822 10.8653 2.18176 11.1818C1.86529 11.4982 1.6875 11.9274 1.6875 12.375V13.5C1.6875 13.9476 1.86529 14.3768 2.18176 14.6932C2.49822 15.0097 2.92745 15.1875 3.375 15.1875H3.9375V10.6875H3.375Z" fill="black"/>
<path d="M14.625 16.3125H13.95C13.6815 16.3125 13.4239 16.2058 13.2341 16.0159C13.0442 15.8261 12.9375 15.5685 12.9375 15.3V10.575C12.9375 10.3065 13.0442 10.0489 13.2341 9.85905C13.4239 9.66917 13.6815 9.5625 13.95 9.5625H14.625C15.3709 9.5625 16.0863 9.85882 16.6137 10.3863C17.1412 10.9137 17.4375 11.6291 17.4375 12.375V13.5C17.4375 14.2459 17.1412 14.9613 16.6137 15.4887C16.0863 16.0162 15.3709 16.3125 14.625 16.3125ZM14.0625 15.1875H14.625C15.0726 15.1875 15.5018 15.0097 15.8182 14.6932C16.1347 14.3768 16.3125 13.9476 16.3125 13.5V12.375C16.3125 11.9274 16.1347 11.4982 15.8182 11.1818C15.5018 10.8653 15.0726 10.6875 14.625 10.6875H14.0625V15.1875Z" fill="black"/>
</svg>
