<svg width="16" height="16" viewBox="0 0 16 16" fill="none" xmlns="http://www.w3.org/2000/svg">
<path d="M11.2737 15.8748H4.72623C3.98579 15.9023 3.26441 15.6365 2.71882 15.1352C2.17324 14.6339 1.84754 13.9375 1.81248 13.1973V9.68734C1.81248 9.53816 1.87174 9.39508 1.97723 9.2896C2.08272 9.18411 2.2258 9.12484 2.37498 9.12484C2.52417 9.12484 2.66724 9.18411 2.77273 9.2896C2.87822 9.39508 2.93748 9.53816 2.93748 9.68734V13.1973C2.97205 13.6392 3.17904 14.0496 3.51373 14.3401C3.84842 14.6306 4.28394 14.7778 4.72623 14.7498H11.2737C11.716 14.7778 12.1515 14.6306 12.4862 14.3401C12.8209 14.0496 13.0279 13.6392 13.0625 13.1973V9.68734C13.0625 9.53816 13.1217 9.39508 13.2272 9.2896C13.3327 9.18411 13.4758 9.12484 13.625 9.12484C13.7742 9.12484 13.9172 9.18411 14.0227 9.2896C14.1282 9.39508 14.1875 9.53816 14.1875 9.68734V13.1973C14.1524 13.9375 13.8267 14.6339 13.2811 15.1352C12.7356 15.6365 12.0142 15.9023 11.2737 15.8748ZM15.7119 8.39922C15.7646 8.34693 15.8064 8.28471 15.835 8.21617C15.8635 8.14762 15.8782 8.0741 15.8782 7.99984C15.8782 7.92559 15.8635 7.85207 15.835 7.78352C15.8064 7.71497 15.7646 7.65276 15.7119 7.60047L8.39935 0.287969C8.34706 0.235246 8.28485 0.1934 8.2163 0.164842C8.14776 0.136285 8.07424 0.121582 7.99998 0.121582C7.92572 0.121582 7.8522 0.136285 7.78366 0.164842C7.71511 0.1934 7.6529 0.235246 7.6006 0.287969L0.288107 7.60047C0.182186 7.70639 0.122681 7.85005 0.122681 7.99984C0.122681 8.14964 0.182186 8.2933 0.288107 8.39922C0.394028 8.50514 0.537687 8.56464 0.687482 8.56464C0.837277 8.56464 0.980936 8.50514 1.08686 8.39922L7.99998 1.48047L14.9131 8.39922C14.9654 8.45194 15.0276 8.49379 15.0962 8.52235C15.1647 8.5509 15.2382 8.56561 15.3125 8.56561C15.3867 8.56561 15.4603 8.5509 15.5288 8.52235C15.5973 8.49379 15.6596 8.45194 15.7119 8.39922Z" fill="black"/>
</svg>
