<svg width="38" height="38" viewBox="0 0 38 38" fill="none" xmlns="http://www.w3.org/2000/svg">
<path d="M9.5 0C8.19375 0 7.125 1.06875 7.125 2.375V35.625C7.125 36.9313 8.19375 38 9.5 38H33.25C34.5563 38 35.625 36.9313 35.625 35.625V9.5L26.125 0H9.5Z" fill="#E2E5E7"/>
<path d="M28.5 9.5H35.625L26.125 0V7.125C26.125 8.43125 27.1937 9.5 28.5 9.5Z" fill="#B0B7BD"/>
<path d="M35.625 16.625L28.5 9.5H35.625V16.625Z" fill="#CAD1D8"/>
<path d="M30.875 30.875C30.875 31.5281 30.3406 32.0625 29.6875 32.0625H3.5625C2.90937 32.0625 2.375 31.5281 2.375 30.875V19C2.375 18.3469 2.90937 17.8125 3.5625 17.8125H29.6875C30.3406 17.8125 30.875 18.3469 30.875 19V30.875Z" fill="#F15642"/>
<path d="M7.55127 22.4996C7.55127 22.1861 7.79827 21.8441 8.19608 21.8441H10.3894C11.6244 21.8441 12.7359 22.6706 12.7359 24.2547C12.7359 25.7557 11.6244 26.5917 10.3894 26.5917H8.80408V27.8457C8.80408 28.2637 8.53808 28.5 8.19608 28.5C7.88258 28.5 7.55127 28.2637 7.55127 27.8457V22.4996V22.4996ZM8.80408 23.0399V25.4054H10.3894C11.0259 25.4054 11.5294 24.8437 11.5294 24.2547C11.5294 23.5909 11.0259 23.0399 10.3894 23.0399H8.80408Z" fill="white"/>
<path d="M14.5954 28.5C14.2819 28.5 13.9399 28.329 13.9399 27.9122V22.5186C13.9399 22.1778 14.2819 21.9296 14.5954 21.9296H16.7698C21.1089 21.9296 21.0139 28.5 16.8553 28.5H14.5954V28.5ZM15.1939 23.0886V27.3422H16.7698C19.3336 27.3422 19.4476 23.0886 16.7698 23.0886H15.1939V23.0886Z" fill="white"/>
<path d="M22.5532 23.1646V24.6739H24.9745C25.3165 24.6739 25.6585 25.0159 25.6585 25.3472C25.6585 25.6607 25.3165 25.9172 24.9745 25.9172H22.5532V27.911C22.5532 28.2435 22.3168 28.4988 21.9843 28.4988C21.5663 28.4988 21.311 28.2435 21.311 27.911V22.5174C21.311 22.1766 21.5675 21.9284 21.9843 21.9284H25.3177C25.7357 21.9284 25.9827 22.1766 25.9827 22.5174C25.9827 22.8214 25.7357 23.1634 25.3177 23.1634H22.5532V23.1646Z" fill="white"/>
<path d="M29.6875 32.0625H7.125V33.25H29.6875C30.3406 33.25 30.875 32.7156 30.875 32.0625V30.875C30.875 31.5281 30.3406 32.0625 29.6875 32.0625Z" fill="#CAD1D8"/>
</svg>
