<svg width="38" height="38" viewBox="0 0 38 38" fill="none" xmlns="http://www.w3.org/2000/svg">
<path d="M21.5864 22.1243C21.8059 22.8868 21.2555 23.7377 19.8847 24.03L19.8833 20.7217C21.0148 21.1124 21.405 21.4862 21.5864 22.1243Z" fill="white"/>
<path d="M18.8048 6.01953C11.7981 6.01953 6.11865 11.7004 6.11865 18.7076C6.11865 25.713 11.7981 31.3938 18.8048 31.3938C25.8116 31.3938 31.491 25.713 31.491 18.7076C31.491 11.7004 25.8121 6.01953 18.8048 6.01953ZM18.6023 28.2302H17.6154V26.9608C14.6776 26.7678 11.8096 25.5403 11.446 22.2171L16.18 21.6802C16.18 21.6802 16.2249 23.3037 17.6154 23.91V20.1016C14.7972 19.4172 11.9379 18.412 12.0706 14.9807C12.1868 11.9285 14.8223 10.6639 17.6135 10.3914V9.1836H18.6023V28.2302ZM23.7299 25.8775C22.9558 26.3429 21.515 26.7582 19.8833 26.9178V28.2302H19.0841V9.18312H19.88L19.8814 10.3793C22.8873 10.6436 25.1286 12.0525 25.6486 14.1742L21.0477 14.9334C21.0477 14.9334 20.8514 13.9799 19.8814 13.5192V16.5999C21.5064 17.0137 23.4323 17.5684 24.8446 18.8181C27.1679 20.8743 26.1859 24.4035 23.7299 25.8775ZM17.341 15.8282C17.4239 15.8716 17.517 15.913 17.6135 15.9526V13.4483C16.2808 13.9104 16.1115 15.1949 17.341 15.8282Z" fill="white"/>
<path d="M32.6768 23.1841C30.8208 29.0762 25.3111 33.3482 18.806 33.3482C12.3008 33.3482 6.79118 29.0762 4.93518 23.1841H0.51368C2.48592 31.4589 9.92824 37.61 18.806 37.61C27.6822 37.61 35.1246 31.4589 37.0968 23.1841H32.6768ZM4.26185 18.804C4.26185 17.9498 4.33516 17.1144 4.47793 16.3017H0.165921C0.0564325 17.1207 0 17.9551 0 18.804C0 19.5719 0.0463036 20.3292 0.136499 21.0719H4.43838C4.32166 20.333 4.26185 19.5753 4.26185 18.804ZM37.4436 16.3017H33.1335C33.2763 17.1144 33.3496 17.9498 33.3496 18.804C33.3496 19.5748 33.2898 20.3325 33.1735 21.0719H37.4735C37.5632 20.3292 37.61 19.5714 37.61 18.804C37.61 17.9551 37.5536 17.1212 37.4436 16.3017ZM18.8055 0C10.0107 0 2.62676 6.03633 0.56963 14.1915H5.00946C6.93684 8.41903 12.3852 4.2604 18.8055 4.2604C25.2257 4.2604 30.6741 8.41952 32.6015 14.1915H37.0394C34.9828 6.03682 27.5988 0 18.8055 0Z" fill="white"/>
</svg>
