<svg width="41" height="41" viewBox="0 0 41 41" fill="none" xmlns="http://www.w3.org/2000/svg">
<circle cx="20.5" cy="20.5" r="20.5" fill="url(#paint0_linear_12_340)"/>
<path d="M32.7069 20.4597C32.6057 19.7819 32.2699 19.2387 31.7827 18.7648C30.9079 17.914 30.0502 17.0458 29.1862 16.1842C29.0818 16.0802 28.9736 15.982 28.8472 15.9055C28.445 15.6619 27.9272 15.7656 27.6481 16.1456C27.3444 16.5593 27.3948 17.0246 27.8082 17.4369C28.5901 18.2167 29.3803 18.9882 30.1647 19.7655C30.221 19.8212 30.3066 19.8619 30.3091 19.9611C30.2343 20.0077 30.1556 19.9882 30.0808 19.9882C28.7522 19.9896 27.4237 19.9844 26.0955 19.9942C25.869 19.9959 25.7767 19.9253 25.7197 19.7019C25.4698 18.7202 24.9855 17.8733 24.2084 17.2076C23.6033 16.6251 22.8771 16.2629 22.0698 16.0621C21.8683 16.012 21.7928 15.9316 21.7939 15.72C21.8022 14.3602 21.7973 12.9999 21.7998 11.6401C21.7998 11.5691 21.7678 11.4859 21.8527 11.4177C21.9887 11.544 22.1234 11.6689 22.2584 11.7939C22.9568 12.5455 23.6792 13.2738 24.4123 13.9913C24.6368 14.2109 24.911 14.3264 25.2349 14.2714C25.6055 14.2084 25.8477 13.9871 25.966 13.6399C26.1011 13.2435 25.9594 12.914 25.6783 12.6314C24.7255 11.6749 23.7735 10.7172 22.8169 9.76449C22.6311 9.57937 22.4261 9.41444 22.1742 9.32153C21.3505 8.81279 20.1111 8.91718 19.2467 9.56789C19.1051 9.6521 18.9997 9.77737 18.8855 9.89185C18.0935 10.6842 17.3033 11.4786 16.5127 12.2727C16.3655 12.4206 16.2103 12.5622 16.0774 12.7219C15.7232 13.1464 15.7367 13.6659 16.0993 14.0181C16.4588 14.3671 16.9804 14.3956 17.3753 14.0244C17.994 13.4429 18.6075 12.8538 19.1632 12.2093C19.4259 11.995 19.6277 11.7124 19.943 11.4824C19.943 11.6265 19.943 11.718 19.943 11.8095C19.943 12.9971 19.943 14.1844 19.943 15.3721C19.943 15.9653 19.943 15.9653 19.3852 16.1452C17.6199 16.7298 16.5064 17.9324 16.0172 19.7161C15.9629 19.9138 15.887 20.0182 15.6779 19.9952C14.5651 19.9952 13.4523 19.9949 12.3395 19.9949C12.0367 19.9949 11.7344 19.9949 11.4316 19.9949C11.4264 19.975 11.4215 19.9548 11.4163 19.935C11.5719 19.7694 11.7277 19.6037 11.8833 19.4384C12.6053 18.7773 13.295 18.0828 13.9826 17.3861C14.096 17.2709 14.1872 17.1349 14.2377 16.9772C14.3643 16.5833 14.2227 16.1766 13.8775 15.9413C13.5031 15.6859 13.0827 15.7068 12.7122 16.0409C12.3865 16.3345 12.0903 16.6606 11.7813 16.9724C11.5113 17.2354 11.2399 17.4971 10.9716 17.7623C10.6156 18.1141 10.2722 18.4791 9.90612 18.8201C9.39982 19.2923 9.12979 19.8804 9 20.546C9 20.7625 9 20.9789 9 21.195C9.11205 21.7197 9.26411 22.2337 9.64131 22.6325C10.3188 23.3486 11.0175 24.0442 11.7354 24.7207C12.0604 25.0488 12.3823 25.3804 12.7125 25.7033C12.8103 25.799 12.9262 25.878 13.0633 25.9201C13.4854 26.0496 13.905 25.8971 14.1493 25.5203C14.3782 25.1671 14.3285 24.7133 13.9819 24.357C13.2842 23.6392 12.5747 22.9324 11.836 22.2556C11.7264 22.1352 11.6171 22.0145 11.4574 21.8388C11.7977 21.8388 12.0684 21.8388 12.3388 21.8388C13.4516 21.8388 14.5644 21.8384 15.6772 21.8384C15.8864 21.8154 15.9817 21.9129 16.0151 22.1185C16.0548 22.3625 16.1449 22.5945 16.2434 22.8214C16.8614 24.2467 17.899 25.2134 19.3845 25.6887C19.4576 25.7124 19.5296 25.7399 19.6037 25.7587C19.9416 25.8446 19.9423 25.8436 19.9423 26.1828C19.9427 27.447 19.943 28.7115 19.9409 29.9757C19.9409 30.0557 19.9691 30.1438 19.8922 30.2377C19.6138 29.9674 19.34 29.7012 19.0661 29.4353C19.031 29.3459 18.9589 29.2857 18.8942 29.2203C18.4373 28.7613 17.9815 28.3013 17.5211 27.8458C17.4286 27.7543 17.3266 27.6687 17.217 27.5987C16.8116 27.3402 16.2855 27.4474 16.0047 27.8381C15.7058 28.2543 15.76 28.7101 16.1734 29.1274C17.0521 30.015 17.9352 30.8982 18.8177 31.782C18.9099 31.8746 19.0097 31.9595 19.1061 32.0479C19.1395 32.0795 19.1712 32.1133 19.206 32.1429C19.6069 32.4825 20.0916 32.6283 20.5909 32.74C20.8074 32.74 21.0238 32.74 21.2399 32.74C21.3064 32.7226 21.3721 32.7028 21.4393 32.6882C21.8735 32.5935 22.2807 32.4411 22.6161 32.1363C22.8409 31.8847 23.0981 31.6662 23.3343 31.4254C24.0846 30.6605 24.8567 29.9176 25.6205 29.1663C25.7646 29.0244 25.894 28.8709 25.9615 28.6774C26.099 28.2849 25.9507 27.8559 25.601 27.6199C25.2162 27.3604 24.7718 27.3986 24.3998 27.7605C23.715 28.4272 23.026 29.0908 22.3931 29.8083C22.193 29.9601 22.0517 30.1789 21.8408 30.3171C21.7813 30.2638 21.7977 30.2064 21.7977 30.1553C21.7966 28.7954 21.7994 27.4352 21.7939 26.0753C21.7932 25.9003 21.8614 25.8286 22.0249 25.7962C22.4442 25.7138 22.8475 25.576 23.2157 25.3581C23.5389 25.1668 23.6771 24.8557 23.6399 24.4917C23.6009 24.1089 23.3924 23.8385 23.0149 23.7046C22.6906 23.5894 22.4112 23.7133 22.122 23.8281C21.1759 24.2025 20.2492 24.1371 19.3424 23.6917C19.2801 23.6472 19.2196 23.5995 19.1552 23.5581C17.7327 22.6387 17.2991 20.7541 18.1694 19.3C18.462 18.8107 18.8793 18.4547 19.3424 18.1416C19.5599 17.9992 19.8115 17.9439 20.0554 17.8774C20.902 17.6467 21.7051 17.7685 22.4641 18.2045C23.0312 18.5306 23.4224 19.0181 23.7397 19.5755C23.8511 19.9113 23.9669 20.2457 24.0094 20.6003C24.0313 20.7827 23.9892 20.972 24.0692 21.1477C24.2095 21.6206 24.5105 21.8415 25.0352 21.8422C26.6728 21.8447 28.3103 21.8429 29.9479 21.845C30.0363 21.845 30.1309 21.8179 30.2169 21.8753C30.2033 21.9734 30.1219 22.0159 30.0644 22.0729C29.318 22.8117 28.5685 23.548 27.8214 24.286C27.5684 24.5359 27.4 24.824 27.4707 25.1963C27.5382 25.5513 27.7494 25.798 28.0894 25.9156C28.4843 26.0523 28.817 25.9198 29.1009 25.6369C30.0697 24.6719 31.0391 23.7077 32.0047 22.74C32.2706 22.4735 32.4557 22.1516 32.5744 21.7956C32.6401 21.5987 32.6843 21.3947 32.7383 21.194C32.7383 20.9775 32.7383 20.7611 32.7383 20.545C32.7289 20.5172 32.7115 20.4893 32.7069 20.4597Z" fill="white"/>
<defs>
<linearGradient id="paint0_linear_12_340" x1="0" y1="0" x2="39.3912" y2="0.00927357" gradientUnits="userSpaceOnUse">
<stop stop-color="#EE4D2C"/>
<stop offset="1" stop-color="#FF9F00"/>
</linearGradient>
</defs>
</svg>
