<svg width="39" height="31" viewBox="0 0 39 31" fill="none" xmlns="http://www.w3.org/2000/svg">
<path d="M29.1475 2.07656H27.8544V0H25.1285V5.15186H22.4027V2.07656H9.31859V0.0395538H6.59275V5.18152H3.8669V2.07656H2.61174C1.16641 2.07656 0 2.9863 0 4.11357V22.773C0 23.9003 1.17909 24.81 2.61174 24.81H29.1602C30.6056 24.81 31.772 23.9003 31.772 22.773V4.11357C31.772 2.9863 30.5929 2.07656 29.1475 2.07656ZM9.47073 21.7347H4.05707V19.5889H9.47073V21.7347ZM9.47073 16.5829H4.05707V14.4371H9.47073V16.5829ZM9.47073 11.4804H4.05707V9.33465H9.47073V11.4804ZM13.2235 9.33465H18.6372V11.4804H13.2235V9.33465ZM18.6625 21.7347H13.2489V19.5889H18.6625V21.7347ZM18.6625 16.5829H13.2489V14.4371H18.6625V16.5829ZM27.8417 21.7347H22.428V19.5889H27.8417V21.7347ZM27.8417 16.5829H22.428V14.4371H27.8417V16.5829ZM28.2854 9.51264L26.8147 10.4125C27.0049 10.8871 27.2078 11.3618 27.3979 11.8265C27.4994 12.0737 27.1317 12.2814 26.8654 12.1331C26.3203 11.8364 25.7751 11.5398 25.2299 11.2431C24.6848 11.5398 24.1396 11.8364 23.5944 12.1331C23.3155 12.2814 22.9605 12.0737 23.0619 11.8265C23.2521 11.3519 23.455 10.8772 23.6451 10.4125L22.1744 9.51264C21.9082 9.35443 22.0603 9.02811 22.39 9.02811H24.241C24.4566 8.51391 24.6721 8.00961 24.8876 7.49541C24.989 7.2482 25.4455 7.2482 25.5469 7.49541C25.7624 8.00961 25.978 8.51391 26.1935 9.02811H28.0445C28.4122 9.01822 28.5517 9.35443 28.2854 9.51264Z" fill="white"/>
<path d="M31.0165 30.1275C27.1418 30.1368 23.9992 27.1929 24.0029 23.5546C24.0066 19.9499 27.1195 17.0107 30.9448 16.9991C34.8442 16.9875 37.9905 19.8988 38.0029 23.5291C38.0153 27.1732 34.8987 30.1182 31.0165 30.1275Z" fill="url(#paint0_linear_3936_1185)"/>
<path d="M31.0142 28.6064C28.0373 28.6134 25.6232 26.3524 25.6257 23.557C25.6281 20.7882 28.0188 18.5296 30.9585 18.5215C33.9539 18.5122 36.3705 20.7488 36.3804 23.5373C36.3903 26.3362 33.996 28.5983 31.0142 28.6064ZM30.4032 23.644C30.1274 23.3518 29.8887 23.0584 29.6067 22.8092C29.1801 22.4323 28.5543 22.4613 28.1622 22.8416C27.7677 23.2242 27.7652 23.8016 28.1783 24.1982C28.6779 24.677 29.1863 25.1478 29.7032 25.6115C30.1447 26.0081 30.7198 26.0104 31.1799 25.6289C31.4136 25.4341 31.6375 25.2289 31.8638 25.0283C32.6343 24.3454 33.4097 23.6671 34.1728 22.9761C34.6094 22.5807 34.6279 21.9871 34.2421 21.5941C33.8562 21.201 33.2168 21.1824 32.7691 21.5546C32.6269 21.6729 32.4933 21.7981 32.3548 21.921C31.7302 22.4694 31.1069 23.0213 30.4032 23.644Z" fill="white"/>
<path d="M30.4035 23.6442C31.1072 23.0216 31.7318 22.4709 32.3551 21.919C32.4936 21.7972 32.6272 21.6708 32.7694 21.5526C33.2171 21.1804 33.8565 21.1989 34.2424 21.592C34.6282 21.985 34.6097 22.5798 34.1731 22.9741C33.41 23.6651 32.6346 24.3434 31.8641 25.0263C31.6365 25.228 31.4139 25.4333 31.1802 25.6269C30.7213 26.0083 30.145 26.006 29.7035 25.6095C29.1878 25.1457 28.6782 24.6761 28.1786 24.1961C27.7655 23.7996 27.768 23.2233 28.1625 22.8396C28.5546 22.4593 29.1803 22.4303 29.607 22.8071C29.889 23.0587 30.1277 23.3509 30.4035 23.6442Z" fill="#FF9F00"/>
<defs>
<linearGradient id="paint0_linear_3936_1185" x1="34.9802" y1="35.6155" x2="29.5754" y2="15.798" gradientUnits="userSpaceOnUse">
<stop stop-color="#FF9F00"/>
<stop offset="1" stop-color="#F17400"/>
</linearGradient>
</defs>
</svg>
