<svg width="29" height="38" viewBox="0 0 29 38" fill="none" xmlns="http://www.w3.org/2000/svg">
<path d="M27.391 9.0448C26.9367 10.1938 27.4324 11.5269 28.4253 12.7917C28.9809 13.4998 28.8197 14.3028 28.2744 14.96C27.3969 16.0177 27.0893 17.1551 27.4338 18.5039C27.7057 19.5679 27.246 20.3623 26.2464 20.8018C25.0699 21.3195 24.444 22.2087 24.1203 23.4305C23.7731 24.7414 23.3314 25.0641 21.9378 25.0972C20.7743 25.1249 19.8756 25.5197 19.1106 26.4089C18.0745 27.6129 17.6359 27.7126 16.1937 27.0871C15.1234 26.6231 14.1423 26.6253 13.0716 27.0876C11.6262 27.7117 11.1971 27.6088 10.1538 26.4071C9.41447 25.5555 8.55941 25.1334 7.42518 25.1021C5.90597 25.0606 5.49758 24.7624 5.11485 23.3349C4.80507 22.1792 4.21161 21.3351 3.10215 20.8532C1.96387 20.3587 1.55007 19.4695 1.8522 18.3067C2.16784 17.0911 1.8468 16.0986 1.10205 15.1196C0.283015 14.0421 0.283916 13.4524 1.10341 12.3746C1.84815 11.395 2.16694 10.4003 1.8513 9.18608C1.54827 8.02012 1.97197 7.13448 3.1044 6.64003C4.21296 6.15585 4.80597 5.31402 5.1144 4.15701C5.49037 2.74696 5.89291 2.44742 7.32747 2.40182C8.48376 2.36472 9.39015 1.9789 10.1565 1.08834C11.1921 -0.115615 11.637 -0.21397 13.0738 0.407902C14.1432 0.870617 15.1266 0.869723 16.1955 0.40656C17.6296 -0.214864 18.0745 -0.115615 19.1124 1.09057C19.8792 1.98158 20.7869 2.36606 21.9427 2.40227C23.3498 2.44653 23.7704 2.74428 24.1216 4.0676C24.4458 5.28988 25.0784 6.16524 26.2455 6.70083C27.0308 7.06116 27.6206 7.61955 27.391 9.0448ZM24.8875 13.731C24.8767 8.10551 20.2416 3.5414 14.5669 3.56778C8.94979 3.59415 4.37641 8.17213 4.37956 13.7649C4.38271 19.3403 8.98761 23.921 14.6016 23.9339C20.2637 23.9469 24.8988 19.3493 24.8875 13.731Z" fill="white"/>
<path d="M15.0731 28.3596L15.069 28.3712L14.5386 30.1233L12.267 37.643L9.39022 31.494L3 36.0769L6.70121 26.625C6.85295 26.6424 7.01099 26.6545 7.17624 26.6621C7.23928 26.6661 7.30457 26.6679 7.37166 26.6702C7.4428 26.6719 7.50989 26.676 7.57293 26.6818C8.0205 26.7287 8.32218 26.9031 8.66123 27.2947C9.37085 28.1111 10.2408 28.9824 11.6267 29.0293C11.6663 29.0311 11.7077 29.0311 11.7469 29.0311C11.7942 29.0311 11.8415 29.0293 11.8888 29.0271C11.9027 29.0271 11.9162 29.0271 11.932 29.0253C12.62 28.9882 13.263 28.7495 13.8564 28.4928C13.9055 28.4714 13.955 28.4517 14.0023 28.4343L13.9965 28.4168C14.2211 28.3426 14.4323 28.3073 14.6354 28.3073C14.7772 28.3069 14.9213 28.3243 15.0731 28.3596Z" fill="white"/>
<path d="M26.0695 35.763L19.6793 31.4014L16.8025 37.253L15.3828 32.7815L16.0492 30.5752L16.554 28.9054C16.8673 28.9859 17.1888 29.0346 17.522 29.0346C19.1092 29.0346 20.0854 27.9013 20.61 27.2924C20.9945 26.844 21.3552 26.6817 21.9842 26.666C22.0986 26.6643 22.2111 26.658 22.3192 26.6504L26.0695 35.763Z" fill="white"/>
<path d="M18.4091 15.0392L19.3019 20.2051L14.6286 17.7659L9.96337 20.2006L9.95886 20.2068V20.2028L10.8517 15.0401L7.07129 11.3813L12.294 10.6275L12.2926 10.6257L14.6286 5.92572V5.93019L14.6309 5.92572L16.9668 10.6257V10.6266L22.1895 11.3804L18.4091 15.0392Z" fill="white"/>
</svg>
