<svg width="24" height="24" viewBox="0 0 24 24" fill="none" xmlns="http://www.w3.org/2000/svg">
<path fill-rule="evenodd" clip-rule="evenodd" d="M22.6667 4.6665C22.6667 3.56193 21.7712 2.6665 20.6667 2.6665H10C8.89543 2.6665 8 3.56193 8 4.6665V11.9998C8 13.1044 8.89543 13.9998 10 13.9998H17.0217C17.5345 13.9998 18.0175 14.2406 18.3262 14.6501L18.988 15.5277C19.613 16.3567 20.9276 16.0236 21.0824 14.997L21.1339 14.6556C21.1908 14.2786 21.5147 13.9998 21.896 13.9998C22.3216 13.9998 22.6667 13.6548 22.6667 13.2292V4.6665Z" fill="#FFC700"/>
<path d="M21.4616 2.54468H9.46479C8.0652 2.54468 6.92647 3.68332 6.92647 5.083V8.12902H2.53832C1.13864 8.12893 0 9.26761 0 10.6672V15.9326C0 17.0852 0.77203 18.0608 1.82625 18.3693V20.7431C1.82625 21.0212 1.9882 21.274 2.24095 21.3901C2.33601 21.4338 2.43745 21.4552 2.53814 21.4552C2.70515 21.4552 2.87034 21.3964 3.00196 21.2835L6.27927 18.4709H12.287C13.6866 18.4709 14.8253 17.3322 14.8253 15.9326V14.3827H17.1134L20.6715 17.6779C20.8058 17.8023 20.9794 17.8676 21.1554 17.8676C21.2517 17.8676 21.3487 17.8481 21.4403 17.808C21.6997 17.6947 21.8673 17.4385 21.8673 17.1555V14.3503C23.0748 14.1555 24 13.106 24 11.8444V5.083C24 3.68336 22.8613 2.54468 21.4616 2.54468ZM13.4013 15.9326C13.4013 16.547 12.9014 17.0468 12.2871 17.0468H6.01569C5.84554 17.0468 5.6811 17.1077 5.55196 17.2185L3.25035 19.1937V17.7589C3.25035 17.3656 2.93156 17.0468 2.53832 17.0468C1.92393 17.0468 1.42411 16.547 1.42411 15.9326V10.6672C1.42411 10.0529 1.92393 9.55303 2.53832 9.55303H6.92647V11.8444C6.92647 13.244 8.06516 14.3827 9.46479 14.3827H13.4013V15.9326ZM22.5758 11.8444C22.5758 12.4588 22.076 12.9586 21.4616 12.9586H21.1553C20.762 12.9586 20.4432 13.2774 20.4432 13.6707V15.5255L17.8763 13.1482C17.7447 13.0263 17.5719 12.9585 17.3925 12.9585H9.46479C8.85045 12.9585 8.35058 12.4587 8.35058 11.8443V5.083C8.35058 4.46866 8.8504 3.96878 9.46479 3.96878H21.4616C22.076 3.96878 22.5758 4.46861 22.5758 5.083V11.8444Z" fill="#FFC700"/>
<path d="M19.5951 6.44604H11.3312C10.9379 6.44604 10.6191 6.76484 10.6191 7.15807C10.6191 7.55131 10.9379 7.8701 11.3312 7.8701H19.5951C19.9883 7.8701 20.3071 7.55131 20.3071 7.15807C20.3071 6.76484 19.9883 6.44604 19.5951 6.44604Z" fill="white"/>
<path d="M19.5951 9.38892H11.3312C10.9379 9.38892 10.6191 9.70771 10.6191 10.1009C10.6191 10.4942 10.9379 10.813 11.3312 10.813H19.5951C19.9883 10.813 20.3071 10.4942 20.3071 10.1009C20.3071 9.70771 19.9883 9.38892 19.5951 9.38892Z" fill="white"/>
</svg>
