<svg width="41" height="39" viewBox="0 0 41 39" fill="none" xmlns="http://www.w3.org/2000/svg">
<path d="M40.1818 14.8964L26.3011 12.8384L20.0924 0L20.0865 0.011896V0L13.8778 12.8354L13.8807 12.8414L0 14.8993L10.0476 24.8917L7.67783 38.9911L7.67491 39L7.68658 38.9851L20.0865 32.3325L32.5069 38.9941L30.1342 24.8858L40.1818 14.8964ZM20.0865 27.8508L12.5107 31.9131L12.5049 31.9221V31.9161L13.9536 23.3036L7.81483 17.1982L16.2972 15.9402L16.2943 15.9372L20.0865 8.09501V8.10096L20.0894 8.09501L23.8817 15.9372L32.3612 17.1952L26.2224 23.3007L27.6711 31.9191L20.0865 27.8508Z" fill="white"/>
</svg>
