<svg width="44" height="43" viewBox="0 0 44 43" fill="none" xmlns="http://www.w3.org/2000/svg">
<g filter="url(#filter0_d_35_365)">
<path d="M21.6709 34.8816C31.4303 34.8816 39.3418 27.0731 39.3418 17.4408C39.3418 7.80852 31.4303 0 21.6709 0C11.9115 0 4 7.80852 4 17.4408C4 27.0731 11.9115 34.8816 21.6709 34.8816Z" fill="white"/>
<path d="M21.2134 17.0343C20.5872 16.4757 20.023 15.9692 19.4556 15.4655C17.7878 13.9832 16.1184 12.503 14.4531 11.0193C13.8398 10.4728 13.8679 9.6741 14.5061 9.23833C14.9739 8.91901 15.633 8.92186 16.0959 9.24905C16.1819 9.30977 16.2599 9.38049 16.3379 9.44979C18.8126 11.6522 21.2873 13.8553 23.7612 16.0585C24.4693 16.6893 24.4685 17.3093 23.7572 17.943C21.2761 20.1525 18.7917 22.36 16.3145 24.5731C15.9119 24.9324 15.4586 25.101 14.9016 24.9474C14.0464 24.7117 13.7281 23.7951 14.2771 23.1658C14.3622 23.0672 14.4643 22.98 14.564 22.8915C16.6859 21.0055 18.8078 19.1196 20.9312 17.235C21.0076 17.1672 21.1016 17.1129 21.2134 17.0343Z" fill="url(#paint0_linear_35_365)"/>
<path d="M28.9109 17.009C28.3234 16.4847 27.7592 15.9782 27.1917 15.4738C25.5384 14.0037 23.8851 12.5335 22.2286 11.0662C21.8621 10.7411 21.7279 10.3582 21.8613 9.91744C21.9923 9.48524 22.3226 9.21021 22.8113 9.10948C23.2767 9.01376 23.681 9.13306 24.0193 9.43452C24.9621 10.2746 25.9065 11.1133 26.8493 11.9534C28.3957 13.33 29.9421 14.7059 31.4869 16.0832C32.183 16.7033 32.1878 17.3319 31.4966 17.947C29.0082 20.1644 26.5077 22.3704 24.0354 24.6014C23.2646 25.2965 22.0775 25.0322 21.8034 24.2135C21.6451 23.7399 21.7978 23.3391 22.1884 22.9948C23.1923 22.1082 24.1913 21.2174 25.192 20.328C26.3703 19.2807 27.5486 18.2342 28.7269 17.1862C28.7839 17.1362 28.8354 17.0826 28.9109 17.009Z" fill="url(#paint1_linear_35_365)"/>
</g>
<defs>
<filter id="filter0_d_35_365" x="-0.000760555" y="0" width="43.3433" height="42.8831" filterUnits="userSpaceOnUse" color-interpolation-filters="sRGB">
<feFlood flood-opacity="0" result="BackgroundImageFix"/>
<feColorMatrix in="SourceAlpha" type="matrix" values="0 0 0 0 0 0 0 0 0 0 0 0 0 0 0 0 0 0 127 0" result="hardAlpha"/>
<feOffset dy="4.00076"/>
<feGaussianBlur stdDeviation="2.00038"/>
<feComposite in2="hardAlpha" operator="out"/>
<feColorMatrix type="matrix" values="0 0 0 0 0 0 0 0 0 0 0 0 0 0 0 0 0 0 0.25 0"/>
<feBlend mode="normal" in2="BackgroundImageFix" result="effect1_dropShadow_35_365"/>
<feBlend mode="normal" in="SourceGraphic" in2="effect1_dropShadow_35_365" result="shape"/>
</filter>
<linearGradient id="paint0_linear_35_365" x1="19.1482" y1="9.00122" x2="19.1482" y2="25.0043" gradientUnits="userSpaceOnUse">
<stop stop-color="#FF9F00"/>
<stop offset="1" stop-color="#F17400"/>
</linearGradient>
<linearGradient id="paint1_linear_35_365" x1="26.8768" y1="9.07715" x2="26.8768" y2="25.001" gradientUnits="userSpaceOnUse">
<stop stop-color="#FF9F00"/>
<stop offset="1" stop-color="#F17400"/>
</linearGradient>
</defs>
</svg>
