<svg width="16" height="16" viewBox="0 0 16 16" fill="none" xmlns="http://www.w3.org/2000/svg">
<path d="M11.8137 15.3538H4.18618C1.95993 15.3538 0.148926 13.5428 0.148926 11.3165V4.68351C0.148926 2.45726 1.95993 0.646257 4.18618 0.646257H11.8137C14.0399 0.646257 15.8509 2.45726 15.8509 4.68351V11.3165C15.8509 13.5428 14.0399 15.3538 11.8137 15.3538ZM14.3509 4.68351C14.3509 3.28426 13.2127 2.14626 11.8137 2.14626H4.18618C2.78718 2.14626 1.64893 3.28451 1.64893 4.68351V11.3165C1.64893 12.7155 2.78718 13.8538 4.18618 13.8538H11.8137C13.2129 13.8538 14.3509 12.7155 14.3509 11.3165V4.68351Z" fill="black"/>
<path d="M11.1613 11.208C10.8663 11.499 10.3915 11.4952 10.1008 11.2002L8.00003 9.06846L5.89953 11.2002C5.60853 11.4955 5.13378 11.499 4.83903 11.208C4.54403 10.9172 4.54053 10.4425 4.83128 10.1475L6.94728 7.99996L4.83128 5.85246C4.54053 5.55746 4.54403 5.08271 4.83903 4.79196C4.98503 4.64796 5.17528 4.57621 5.36528 4.57621C5.55903 4.57621 5.75278 4.65096 5.89953 4.79996L8.00003 6.93146L10.1005 4.79971C10.2473 4.65071 10.4408 4.57596 10.6348 4.57596C10.825 4.57596 11.015 4.64771 11.161 4.79171C11.4563 5.08246 11.4595 5.55746 11.1688 5.85221L9.05304 7.99996L11.169 10.1475C11.4598 10.4425 11.4563 10.9172 11.1613 11.208Z" fill="black"/>
</svg>
