<svg width="32" height="30" viewBox="0 0 32 30" fill="none" xmlns="http://www.w3.org/2000/svg">
<path d="M26.9906 5.38714C26.9906 4.31751 26.6833 4.00496 25.6284 4.00496C17.8628 4.00374 10.0976 4.00374 2.33204 4.00496C1.31349 4.00496 0.996036 4.32487 0.996036 5.35077C0.994811 13.1164 0.994811 20.8815 0.996036 28.6471C0.996036 29.673 1.31594 29.9991 2.32673 29.9991C10.0923 30.0003 17.8575 30.0003 25.6231 29.9991C26.6817 29.9991 26.9902 29.6865 26.9902 28.6206C26.9914 24.769 26.9914 20.9175 26.9914 17.066C26.9918 13.174 26.9918 9.28117 26.9906 5.38714ZM21.352 13.1875C21.2572 13.3435 21.1121 13.4734 20.981 13.605C18.2428 16.3444 15.5038 19.0834 12.7631 21.8216C12.0269 22.5562 11.5995 22.5579 10.8698 21.829C9.55751 20.5208 8.24561 19.2109 6.9382 17.8974C6.39073 17.3475 6.32822 16.744 6.76089 16.313C7.21072 15.8631 7.77045 15.9179 8.34285 16.4878C9.4901 17.6314 10.6296 18.7823 11.8843 20.0419C12.1968 19.671 12.444 19.3335 12.7366 19.0397C14.9984 16.7665 17.2679 14.501 19.5371 12.2339C19.6846 12.0876 19.8247 11.9225 19.9984 11.8163C20.447 11.545 20.8895 11.6002 21.247 11.9801C21.5832 12.3389 21.6057 12.7662 21.352 13.1875Z" fill="white"/>
<path d="M28.9876 25.9497C28.9876 25.6661 28.9876 25.4185 28.9876 25.1709C28.9876 18.5689 28.9884 11.967 28.9872 5.36455C28.9868 3.19915 27.7917 2.00737 25.6219 2.00696C19.0199 2.00615 12.4179 2.00655 5.81545 2.00655C5.56827 2.00655 5.3215 2.00655 5.00445 2.00655C5.00445 1.60248 4.96768 1.2311 5.01344 0.870336C5.07513 0.384144 5.39095 0.0936542 5.87674 0.0172526C6.06018 -0.0117554 6.25098 0.00458725 6.4381 0.00458725C14.144 0.00417868 21.85 0.00417868 29.5559 0.00458725C30.7015 0.00458725 30.9892 0.293442 30.9892 1.44396C30.9896 9.04571 30.9655 16.6475 31.0075 24.2492C31.0174 25.9754 30.4012 26.1266 28.9876 25.9497Z" fill="white"/>
</svg>
