<svg width="41" height="39" viewBox="0 0 41 39" fill="none" xmlns="http://www.w3.org/2000/svg">
<path d="M38.5255 12.8133C37.8808 14.4469 38.5844 16.3414 39.9941 18.1396C40.7829 19.1462 40.5541 20.2874 39.7798 21.2223C38.5343 22.7261 38.0975 24.3427 38.5868 26.2605C38.973 27.7731 38.32 28.9026 36.9011 29.5272C35.2309 30.2631 34.3423 31.5273 33.8831 33.264C33.3903 35.1271 32.7637 35.586 30.7848 35.633C29.1331 35.6722 27.8573 36.2339 26.7715 37.498C25.301 39.2095 24.6782 39.3509 22.6311 38.4625C21.1119 37.803 19.7188 37.8064 18.1991 38.4634C16.1472 39.3504 15.5385 39.2042 14.0578 37.4961C13.0079 36.2852 11.7945 35.6853 10.1842 35.6412C8.0281 35.5822 7.44768 35.158 6.90475 33.1289C6.46505 31.4861 5.62218 30.2859 4.04793 29.6008C2.4323 28.8978 1.84506 27.6336 2.27356 25.9807C2.72153 24.2532 2.26577 22.8418 1.20913 21.4499C0.0463412 19.9184 0.0473147 19.0799 1.21108 17.5475C2.2682 16.155 2.72056 14.7412 2.27258 13.0147C1.84263 11.3569 2.4435 10.0986 4.05134 9.39508C5.6251 8.7066 6.46651 7.51023 6.90426 5.86551C7.43794 3.86058 8.00959 3.435 10.0454 3.37012C11.6869 3.31783 12.9734 2.76879 14.0616 1.5027C15.5322 -0.208346 16.1628 -0.348755 18.203 0.535332C19.7212 1.19331 21.1168 1.19186 22.6345 0.533396C24.6704 -0.349723 25.3019 -0.208831 26.7749 1.5056C27.8632 2.77266 29.1516 3.3188 30.7926 3.37012C32.7899 3.43307 33.3869 3.85671 33.8851 5.73721C34.3452 7.47488 35.2431 8.71919 36.8996 9.48078C38.0142 9.99303 38.8512 10.7866 38.5255 12.8133ZM34.9719 19.4745C34.9563 11.4775 28.3774 4.98917 20.3216 5.02694C12.3481 5.06422 5.8559 11.5724 5.86028 19.5229C5.86467 27.4482 12.4012 33.9607 20.3703 33.9791C28.4081 33.9975 34.9879 27.4617 34.9719 19.4745Z" fill="white"/>
<path d="M14.9733 15.7342V23.5622H14.3355L10.4488 19.7058V23.49H8.44214V15.6673H9.08927L12.9618 19.5092V15.7342H14.9733Z" fill="white"/>
<path d="M18.7489 17.6544V18.7351H21.1495V20.4495H18.7489V21.5587H21.6651V23.4847H16.7656V15.7429H21.6651V17.6544H18.7489Z" fill="white"/>
<path d="M22.7024 15.7434H24.8731L25.9186 19.2875L27.4655 15.7575H27.6155L29.1625 19.2778L30.2031 15.7429H32.3738L29.8515 23.5327H29.2983L27.5308 19.7049L25.7774 23.5327H25.2291L22.7024 15.7434Z" fill="white"/>
</svg>
