<svg width="23" height="23" viewBox="0 0 23 23" fill="none" xmlns="http://www.w3.org/2000/svg">
<path d="M17.4523 13.1342C15.6719 13.85 13.8916 14.5658 12.102 15.2724C12.0011 15.3091 11.8634 15.3091 11.7625 15.2724C10.1565 14.6392 8.55048 13.9876 6.95365 13.3452C6.68752 13.2351 6.43055 13.1342 6.15524 13.0332C6.15524 13.6756 6.13689 14.2997 6.16442 14.9145C6.18277 15.3367 6.37549 15.7129 6.64163 16.0433C7.18308 16.7316 7.92643 17.1262 8.73402 17.4107C10.2574 17.943 11.8267 18.0348 13.4144 17.8237C14.4606 17.686 15.47 17.4107 16.3694 16.8234C17.0485 16.3829 17.6175 15.8231 17.7001 14.9788C17.7643 14.3455 17.7093 13.694 17.7093 13.0424C17.6267 13.0699 17.5349 13.0974 17.4523 13.1342Z" fill="#1075B4"/>
<path d="M10.6519 8.08676C11.0833 8.25195 11.5421 8.32536 11.9918 8.30701C13.4601 8.25194 14.6165 7.61872 15.4057 6.37063C16.0756 5.30608 16.2316 4.15893 15.8278 2.95673C15.4883 1.82794 14.7541 1.02953 13.7171 0.515605C13.038 0.17605 12.313 0.0567477 11.5513 0.130165C9.14687 0.350417 7.42157 2.63553 7.91714 4.99406C8.22916 6.52664 9.15605 7.56366 10.6519 8.08676ZM9.70668 2.09408C10.138 2.05737 10.5143 2.2868 10.6978 2.71812C10.8446 3.06685 10.863 3.44312 10.8722 3.81938C10.8814 4.18647 11.0649 4.43425 11.3953 4.58108C11.6155 4.68203 11.6614 4.64532 11.6614 4.40672C11.6614 3.79185 11.6614 3.17698 11.6614 2.55293C11.6614 2.49787 11.6614 2.44281 11.6614 2.38774C11.6798 2.21338 11.744 2.0849 11.9367 2.09408C12.1294 2.10325 12.2029 2.22256 12.2029 2.39692V4.38836C12.2029 4.64532 12.2396 4.67286 12.4782 4.57191C12.8086 4.42507 12.9829 4.17729 12.9921 3.8102C13.0013 3.43394 13.0196 3.06685 13.1665 2.70894C13.3317 2.29597 13.6987 2.06654 14.1392 2.09408C14.3044 2.10325 14.3962 2.17667 14.4054 2.34186C14.4146 2.50705 14.332 2.58964 14.1668 2.61717C13.7722 2.67224 13.6437 2.80072 13.5794 3.19533C13.5427 3.40641 13.5336 3.61748 13.5336 3.82856C13.5244 4.49849 13.038 5.0583 12.3772 5.15924C12.2396 5.1776 12.2029 5.22348 12.2029 5.35196C12.212 5.72823 12.212 6.11367 12.212 6.48993C12.212 6.67347 12.2029 6.84784 12.2029 7.03138C12.2029 7.19657 12.157 7.33423 11.9643 7.36176C11.7715 7.38012 11.6706 7.26999 11.6522 7.08645C11.6522 6.49911 11.6522 5.91177 11.6614 5.32443C11.6614 5.21431 11.6339 5.1776 11.5146 5.15924C10.8079 5.04912 10.3399 4.49849 10.3307 3.77349C10.3307 3.52571 10.3124 3.28711 10.2481 3.0485C10.1747 2.80072 10.0371 2.62635 9.76174 2.62635C9.73421 2.62635 9.6975 2.61717 9.66997 2.608C9.51396 2.58046 9.44972 2.48869 9.4589 2.33268C9.46807 2.18585 9.55985 2.11243 9.70668 2.09408Z" fill="#1075B4"/>
<path d="M22.0133 18.3661C22.2611 18.1825 22.4814 17.9439 22.6557 17.6961C22.7842 17.5126 22.8393 17.274 22.9219 17.0537V16.4939C22.8943 16.4113 22.8668 16.3287 22.8484 16.2462C22.6924 15.6863 22.3529 15.2734 21.8206 15.0256C21.6738 14.9613 21.6279 14.8879 21.6279 14.7227C21.6279 14.1813 21.6279 13.6307 21.6279 13.0892V10.749C22.05 10.5747 22.4538 10.4095 22.8943 10.2168C22.7934 10.1709 22.7475 10.1433 22.6833 10.125C20.3064 9.17057 17.9203 8.21614 15.5434 7.26172C14.6716 8.31709 13.4602 8.89525 12.0011 8.95949C11.946 8.95949 11.8909 8.95949 11.8359 8.95949C11.3403 8.95949 10.8631 8.86772 10.4042 8.70253C9.52322 8.39051 8.8074 7.9133 8.27513 7.28007C5.89825 8.2345 3.52136 9.18892 1.14448 10.1433C1.08942 10.1617 1.04353 10.1984 0.960938 10.2351C1.04353 10.2718 1.08942 10.2902 1.1353 10.3085C4.66851 11.7218 8.20171 13.1443 11.7349 14.5667C11.8817 14.631 12.0011 14.6126 12.1387 14.5576C14.7909 13.493 17.4431 12.4376 20.0953 11.3731C20.1687 11.3456 20.2421 11.318 20.3247 11.2813V13.0984V14.9338C20.3064 14.943 20.288 14.9614 20.2697 14.9705C19.5447 15.2917 19.1133 15.8332 19.0583 16.6316C19.0032 17.4208 19.3611 18.0173 20.0311 18.4395C20.0769 18.467 20.1137 18.5863 20.0953 18.6414C20.0402 18.8616 19.9576 19.0727 19.8842 19.293C19.6181 20.0914 19.3519 20.8898 19.0766 21.7066C19.4896 21.8442 19.8842 21.9727 20.2972 22.1104C20.5174 21.4404 20.7377 20.798 20.958 20.1556C20.9763 20.1556 20.9855 20.1556 21.0038 20.1556C21.2241 20.798 21.4352 21.4404 21.6554 22.1012C22.0776 21.9635 22.4722 21.8259 22.8668 21.6974C22.8393 21.6056 22.8117 21.5322 22.7934 21.4679C22.4905 20.5502 22.1877 19.6417 21.8757 18.724C21.839 18.568 21.8573 18.4854 22.0133 18.3661Z" fill="#1075B4"/>
</svg>
