<svg width="20" height="6" viewBox="0 0 20 6" fill="none" xmlns="http://www.w3.org/2000/svg">
<path d="M0.360352 2.63519C0.398932 2.4989 0.432502 2.36061 0.476094 2.22583C0.81831 1.16561 1.83644 0.496207 2.98134 0.576876C4.03154 0.651032 4.95096 1.50281 5.12583 2.56253C5.33978 3.86225 4.48148 5.11087 3.22284 5.33183C1.87202 5.56882 0.65046 4.73057 0.395927 3.39327C0.390416 3.36421 0.372377 3.33766 0.360352 3.3101C0.360352 3.08513 0.360352 2.86016 0.360352 2.63519Z" fill="#9B51E0"/>
<path d="M9.96759 0.574219C11.2989 0.575222 12.3616 1.64697 12.3596 2.98577C12.3576 4.31355 11.2823 5.37577 9.94304 5.37327C8.61777 5.37076 7.55755 4.293 7.56055 2.9512C7.56356 1.63394 8.63731 0.573217 9.96759 0.574219Z" fill="#9B51E0"/>
<path d="M14.7686 2.96423C14.7696 1.63344 15.8413 0.572217 17.1821 0.574222C18.5104 0.576226 19.5706 1.65098 19.5676 2.99228C19.5646 4.31656 18.4858 5.37678 17.1445 5.37327C15.8293 5.37026 14.7671 4.29301 14.7686 2.96423Z" fill="#9B51E0"/>
</svg>
