<svg width="21" height="22" viewBox="0 0 21 22" fill="none" xmlns="http://www.w3.org/2000/svg">
<path d="M10.7913 21.9917C10.1821 21.8908 9.72281 21.5421 9.27294 21.1476C8.71996 20.6614 8.14824 20.1935 7.57651 19.7165C7.52028 19.6706 7.46404 19.6155 7.39844 19.5605C8.96364 18.5146 9.27293 17.7256 8.76682 16.0743C9.81654 15.4137 11.766 15.3128 13.0782 16.0651C12.7782 16.7532 12.7314 17.4504 13.0313 18.1568C13.3312 18.8632 13.8655 19.3311 14.6246 19.6064C13.8373 20.2853 13.0782 20.9642 12.2909 21.5972C12.0378 21.799 11.6723 21.8724 11.363 22.0008C11.1756 21.9917 10.9881 21.9917 10.7913 21.9917Z" fill="#FF9F00"/>
<path d="M18.2714 11.2193C17.8309 11.2193 17.4091 11.2193 16.978 11.2193C16.903 11.9625 16.4625 12.5221 15.9751 13.0359C15.3284 13.7239 14.6442 14.3845 13.9881 15.045C11.9449 13.99 9.93923 13.99 7.91477 15.0267C7.03376 14.2102 6.11526 13.412 5.40295 12.4395C5.14052 12.0726 4.92495 11.6872 4.89683 11.2193C4.4657 11.2193 4.04394 11.2193 3.60343 11.2193C3.57531 11.5863 3.65966 11.9349 3.80025 12.2744C4.06268 12.9074 4.4657 13.4579 4.94369 13.9441C5.66538 14.678 6.41517 15.4028 7.17435 16.1001C7.61485 16.5129 7.82105 16.9808 7.64297 17.5679C7.45552 18.1918 6.76196 18.5679 6.11526 18.4212C6.04965 18.4028 5.99341 18.3753 5.94655 18.3386C4.66252 17.2468 3.38786 16.1368 2.36626 14.779C1.65395 13.834 1.14784 12.8065 1.00725 11.6322C0.744819 9.45789 1.59772 7.20101 3.56594 6.03588C5.54353 4.86157 8.29905 4.94414 10.1735 7.16432C10.4547 7.49459 10.689 7.85239 10.9608 8.21936C10.9983 8.16431 11.0358 8.10009 11.0827 8.03587C11.7106 7.0267 12.5073 6.20102 13.6226 5.71478C16.0407 4.64139 18.9556 5.63221 20.2021 7.99918C21.3174 10.1093 21.1862 12.2193 19.9209 14.2469C19.218 15.3753 18.2714 16.3019 17.3154 17.2193C17.0061 17.5129 16.6874 17.7973 16.3688 18.0817C15.8345 18.5679 15.0285 18.5496 14.5411 18.045C14.0444 17.5312 14.0631 16.7239 14.588 16.2285C15.1691 15.678 15.7595 15.1459 16.3313 14.5955C16.9686 13.9716 17.5684 13.3203 17.9808 12.5221C18.1589 12.1184 18.2807 11.6964 18.2714 11.2193ZM10.9327 14.2193C12.3761 14.2193 13.5664 13.0542 13.5664 11.6322C13.5664 10.2194 12.3855 9.06339 10.9421 9.06339C9.48935 9.06339 8.29905 10.2194 8.29905 11.6322C8.28967 13.0542 9.47998 14.2193 10.9327 14.2193Z" fill="#FF9F00"/>
<path d="M2.37603 2.5688C2.37603 1.15596 3.56634 0 5.01907 0C6.46244 0.00917428 7.64337 1.17431 7.64337 2.59632C7.634 4.01833 6.43432 5.20181 5.00033 5.20181C3.55697 5.19264 2.36666 3.99998 2.37603 2.5688Z" fill="#FF9F00"/>
<path d="M19.4809 2.5696C19.4809 4.00079 18.2906 5.19345 16.866 5.20262C15.4226 5.2118 14.2135 4.00997 14.2229 2.57878C14.2229 1.17511 15.4038 0.00998108 16.8472 0.00998108C18.2906 -0.00836747 19.4809 1.14759 19.4809 2.5696Z" fill="#FF9F00"/>
<path d="M10.9328 12.9276C10.2018 12.9276 9.61133 12.3496 9.61133 11.634C9.61133 10.9276 10.2018 10.3588 10.9235 10.3496C11.6545 10.3496 12.245 10.9276 12.245 11.6432C12.2356 12.3496 11.6545 12.9276 10.9328 12.9276Z" fill="#FF9F00"/>
</svg>
