<svg width="22" height="23" viewBox="0 0 22 23" fill="none" xmlns="http://www.w3.org/2000/svg">
<path d="M19.8772 22.6953C16.5 22.6953 13.1227 22.6953 9.74543 22.6953C9.51042 21.7295 9.27067 20.7655 9.04576 19.7974C9.00659 19.6293 8.93894 19.5834 8.76744 19.5846C7.26425 19.5909 5.76107 19.588 4.25788 19.588C4.17006 19.588 4.08163 19.588 3.97422 19.588C3.67334 18.0036 3.37485 16.4325 3.07219 14.8378C2.36837 14.8378 1.67701 14.8378 0.966072 14.8378C0.966072 14.4826 0.951235 14.1538 0.972005 13.8267C0.982093 13.6637 1.02363 13.4858 1.10849 13.3475C1.89777 12.0627 2.7007 10.7859 3.49532 9.50457C3.56178 9.39726 3.61459 9.27388 3.64011 9.15166C3.70183 8.85039 3.74099 8.54512 3.79381 8.24213C3.88698 7.70732 3.91428 7.15012 4.08935 6.64113C5.45901 2.65527 9.59232 0.139006 14.0218 0.800638C15.9178 1.08411 17.5765 1.87371 18.9271 3.19583C21.2433 5.46362 22.067 8.18934 21.4089 11.3035C21.0392 13.0526 20.1253 14.5342 18.7764 15.7588C18.6838 15.8426 18.6393 15.9132 18.6648 16.0503C18.9633 17.6312 19.2523 19.2133 19.5414 20.7959C19.6571 21.4283 19.7657 22.0624 19.8772 22.6953ZM18.6441 9.4271C18.6375 6.18034 15.9261 3.5671 12.5696 3.57111C9.2232 3.5757 6.49575 6.21706 6.50346 9.44489C6.51118 12.6842 9.24931 15.3118 12.6106 15.3066C15.9374 15.302 18.6506 12.6584 18.6441 9.4271Z" fill="#01A358"/>
<path d="M12.5902 4.84777C15.2179 4.86613 17.3425 6.93022 17.3264 9.44821C17.3098 11.992 15.1717 14.0326 12.5392 14.0165C9.88351 14.0004 7.81181 11.9295 7.83317 9.31278C7.85335 6.87398 10.0313 4.82998 12.5902 4.84777ZM10.5867 12.3581C10.9529 11.4911 11.5944 10.9958 12.5386 10.9815C13.5243 10.966 14.1877 11.4727 14.5699 12.3587C14.9841 12.2273 15.3924 12.0982 15.7977 11.9696C15.4998 10.9184 14.3414 9.69209 12.5653 9.69668C10.8265 9.70127 9.64139 10.9109 9.35594 11.9708C9.75829 12.0982 10.1618 12.225 10.5867 12.3581ZM10.6449 6.79938C10.6449 7.39732 10.6449 7.97173 10.6449 8.54499C11.0906 8.54499 11.522 8.54499 11.9505 8.54499C11.9505 7.95566 11.9505 7.38068 11.9505 6.79938C11.5101 6.79938 11.084 6.79938 10.6449 6.79938ZM14.6233 6.80283C14.1854 6.80283 13.7605 6.80283 13.3225 6.80283C13.3225 7.38929 13.3225 7.96484 13.3225 8.54901C13.7616 8.54901 14.1865 8.54901 14.6233 8.54901C14.6233 7.96829 14.6233 7.39847 14.6233 6.80283Z" fill="#01A358"/>
</svg>
