<svg width="17" height="23" viewBox="0 0 17 23" fill="none" xmlns="http://www.w3.org/2000/svg">
<path d="M15.084 0.677563C15.2728 0.773506 15.3462 0.927016 15.3252 1.1285C15.3148 1.32038 15.3252 1.51227 15.3252 1.70416C15.3148 1.9728 15.1889 2.08793 14.8848 2.08793C14.1611 2.08793 13.448 2.08793 12.7244 2.08793C12.2734 2.08793 11.8224 2.08793 11.361 2.08793C11.0149 2.08793 10.8995 1.9728 10.8995 1.65619C10.8995 1.47389 10.91 1.3012 10.8995 1.1189C10.8891 0.917422 10.952 0.773507 11.1408 0.667969C12.4622 0.677563 13.7731 0.677563 15.084 0.677563Z" fill="#DC3C94"/>
<path d="M16.9291 10.7339C16.7299 10.7339 16.5306 10.7339 16.3209 10.7339C15.2616 10.7339 14.2129 10.7339 13.1537 10.7339C12.5664 10.7339 12.2517 11.0218 12.2517 11.5591C12.2517 13.4587 12.2517 15.3488 12.2517 17.2485C12.2517 17.7858 12.5559 18.0736 13.1432 18.0736C14.3283 18.0736 15.5028 18.0736 16.6879 18.0736C16.7718 18.0736 16.8557 18.0736 16.9501 18.0736C16.9501 18.1696 16.9606 18.2367 16.9606 18.3039C16.9606 19.532 16.9606 20.7696 16.9606 21.9977C16.9606 22.4774 16.7509 22.6693 16.2265 22.6693C15.6497 22.6693 15.0729 22.6693 14.4961 22.6693C14.4961 22.1608 14.4961 21.6619 14.4961 21.163C14.4961 20.4626 14.1395 20.146 13.3739 20.146C12.0944 20.146 10.8254 20.146 9.54598 20.146C9.45159 20.146 9.3572 20.146 9.23135 20.146C9.23135 20.0501 9.23135 19.9829 9.23135 19.9061C9.23135 16.5865 9.23135 13.2668 9.23135 9.9472C9.23135 8.62318 9.79768 7.5774 11.0037 6.83863C11.4757 6.5508 11.6854 6.16703 11.6749 5.64893C11.6644 4.75666 11.6749 3.86438 11.6749 2.96252C11.6749 2.88576 11.6749 2.80901 11.6749 2.72266C12.6293 2.72266 13.5522 2.72266 14.5065 2.72266C14.5065 2.80901 14.5065 2.88576 14.5065 2.96252C14.5065 3.85479 14.517 4.74706 14.5065 5.64893C14.4961 6.16703 14.7058 6.5508 15.1882 6.83863C16.1531 7.41429 16.7509 8.23941 16.9082 9.28519C16.9921 9.74572 16.9291 10.235 16.9291 10.7339ZM10.1228 9.84167C10.1228 9.86085 10.1228 9.89923 10.1228 9.9472C10.1438 10.1199 10.2277 10.2542 10.4374 10.2542C10.6472 10.2638 10.752 10.1487 10.7835 9.96639C10.794 9.88964 10.8045 9.81288 10.8045 9.73613C10.8464 9.1029 11.1296 8.5944 11.7274 8.2586C11.9686 8.12428 12.021 7.97077 11.9161 7.79807C11.8113 7.63496 11.612 7.60618 11.3813 7.7405C10.5423 8.21062 10.1647 8.9302 10.1228 9.84167ZM10.7835 11.7701C10.7835 11.6454 10.794 11.5111 10.7835 11.3864C10.7625 11.2137 10.6367 11.1177 10.4479 11.1177C10.2696 11.1177 10.1438 11.2137 10.1333 11.3864C10.1228 11.6454 10.1228 11.8949 10.1333 12.1539C10.1438 12.317 10.2696 12.413 10.4479 12.413C10.6367 12.413 10.752 12.317 10.773 12.1443C10.794 12.0196 10.7835 11.8949 10.7835 11.7701Z" fill="#DC3C94"/>
<path d="M9.22061 22.6593C9.12622 22.6593 9.04233 22.6593 8.95843 22.6593C6.49387 22.6593 4.02932 22.6593 1.57525 22.6593C1.16624 22.6593 1.09283 22.6017 1.09283 22.2275C1.09283 21.8821 1.09283 21.5367 1.09283 21.2009C1.09283 20.798 1.14527 20.75 1.57525 20.75C3.43153 20.75 5.29831 20.75 7.15459 20.75C7.83627 20.75 8.51795 20.75 9.22061 20.75C9.22061 21.3832 9.22061 22.0069 9.22061 22.6593Z" fill="#DC3C94"/>
<path d="M9.91406 22.6499C9.91406 22.0166 9.91406 21.4026 9.91406 20.7694C9.99796 20.7598 10.0714 20.7598 10.1553 20.7598C11.2565 20.7598 12.3576 20.7598 13.4588 20.7598C13.7735 20.7598 13.8364 20.8077 13.8364 21.086C13.8364 21.5081 13.8364 21.9303 13.8364 22.3524C13.8364 22.6115 13.7734 22.6594 13.4903 22.669C12.3681 22.669 11.2565 22.669 10.1343 22.669C10.0714 22.6594 9.99796 22.6499 9.91406 22.6499Z" fill="#DC3C94"/>
<path d="M2.43582 13.9955C2.42533 14.3505 2.25753 14.648 2.0268 14.9358C1.87998 15.1085 1.74364 15.3004 1.68071 15.5019C1.58633 15.8089 1.71217 16.0871 1.95338 16.327C2.33093 16.7012 2.55117 17.1521 2.41483 17.6606C2.35191 17.9196 2.20509 18.1691 2.04777 18.3898C1.859 18.6392 1.65974 18.8599 1.63876 19.1861C1.62827 19.3876 1.46047 19.4931 1.2717 19.4643C1.08293 19.4355 0.978058 19.3108 0.978058 19.1093C0.999033 18.7448 1.16683 18.4377 1.39756 18.1499C1.54438 17.9676 1.68071 17.7565 1.74363 17.5359C1.83802 17.2193 1.65974 16.9602 1.42901 16.7203C1.06195 16.3366 0.862689 15.8952 1.00951 15.3963C1.08293 15.1373 1.24024 14.8878 1.40804 14.6576C1.57584 14.4273 1.76461 14.2162 1.7751 13.9092C1.78559 13.7077 1.9429 13.6022 2.13168 13.6214C2.33094 13.6406 2.4463 13.7845 2.43582 13.9955Z" fill="#DC3C94"/>
<path d="M2.87661 19.0716C2.8871 18.6782 3.08636 18.3616 3.35903 18.0738C3.61073 17.8147 3.74707 17.5173 3.62122 17.1911C3.54781 16.9992 3.40098 16.8169 3.25416 16.6538C3.04441 16.3948 2.89759 16.1261 2.86613 15.7999C2.83467 15.3873 2.96051 15.0228 3.25416 14.7061C3.4744 14.4663 3.66317 14.2264 3.67366 13.8906C3.68415 13.7083 3.82049 13.622 4.00926 13.6316C4.21901 13.6412 4.32389 13.7659 4.32389 13.9482C4.33438 14.284 4.19803 14.5814 3.98828 14.8405C3.91487 14.9268 3.84146 15.0036 3.76805 15.0899C3.44294 15.4641 3.45343 15.8671 3.75756 16.2508C3.95682 16.5003 4.16658 16.7689 4.27145 17.0568C4.44974 17.5461 4.29242 18.0066 3.93584 18.4C3.72609 18.6302 3.53732 18.8701 3.52683 19.1963C3.51634 19.3786 3.38001 19.4745 3.18075 19.4649C2.971 19.4553 2.86613 19.3114 2.87661 19.0716Z" fill="#DC3C94"/>
</svg>
