<svg width="19" height="23" viewBox="0 0 19 23" fill="none" xmlns="http://www.w3.org/2000/svg">
<path d="M17.6541 22.4453C14.6527 22.4453 11.681 22.4453 8.68955 22.4453C8.68955 22.352 8.68955 22.2679 8.68955 22.1839C8.68955 21.017 8.68955 19.8407 8.68955 18.6738C8.68955 18.2724 8.64019 18.2351 8.22553 18.2351C6.48791 18.2351 4.75029 18.2351 3.01267 18.2351C2.92382 18.2351 2.84484 18.2351 2.73624 18.2351C2.73624 18.123 2.73624 18.0484 2.73624 17.9643C2.73624 16.9095 2.73624 15.8452 2.73624 14.7903C2.73624 14.3889 2.71649 14.4076 2.33145 14.2769C1.97602 14.1555 1.62061 14.0155 1.30467 13.8288C0.968998 13.6421 0.870266 13.3433 1.04798 13.0073C1.20594 12.6899 1.42315 12.4005 1.65022 12.1298C1.90692 11.831 2.2031 11.551 2.49929 11.2802C2.8942 10.9162 2.98305 10.5054 2.77572 10.0293C2.71649 9.87993 2.65725 9.7399 2.5684 9.59987C2.16361 8.9464 2.06488 8.27425 2.24259 7.52742C2.60789 6.0151 3.14102 4.58679 4.1678 3.36386C5.45127 1.82353 7.14939 0.955338 9.16345 0.609931C10.6839 0.348541 12.1944 0.357876 13.6457 0.936668C15.4228 1.64615 16.726 2.85041 17.6442 4.41875C19.0067 6.73392 19.3621 9.17978 18.4735 11.7283C18.3156 12.1858 18.0984 12.6432 17.8318 13.054C17.2394 13.9315 17.0222 14.9024 16.963 15.9199C16.8346 18.039 17.1604 20.1208 17.6047 22.1933C17.6245 22.2586 17.6343 22.3333 17.6541 22.4453ZM10.9998 13.6514C13.705 13.2687 15.2254 11.8124 15.6104 9.28247C16.0349 9.28247 16.4595 9.28247 16.8939 9.28247C17.2394 9.28247 17.3776 9.20779 17.3776 9.02108C17.3776 8.83437 17.2296 8.75969 16.884 8.75969C16.4496 8.75969 16.0152 8.75969 15.5709 8.75969C15.4722 7.58344 15.0082 6.58455 14.1394 5.77238C13.2706 4.9602 12.224 4.52144 10.9801 4.42809C10.9801 4.008 10.9801 3.60658 10.9801 3.20516C10.9801 2.86908 10.8912 2.71972 10.6937 2.72905C10.4963 2.73839 10.4173 2.86908 10.4173 3.19582C10.4173 3.60658 10.4173 4.01733 10.4173 4.42809C9.17332 4.52144 8.11693 4.9602 7.24812 5.78171C6.38918 6.60322 5.92516 7.59277 5.82643 8.75969C5.54999 8.75969 5.2933 8.75969 5.02673 8.75969C4.77991 8.75969 4.53309 8.75036 4.28627 8.76903C4.1283 8.77836 4.0197 8.87171 4.02958 9.03975C4.03945 9.19845 4.13818 9.28247 4.30601 9.2918C4.40474 9.30114 4.51335 9.2918 4.61208 9.2918C5.01686 9.2918 5.41177 9.2918 5.81656 9.2918C5.98439 11.551 7.84049 13.4647 10.4074 13.6421C10.4074 13.7168 10.4074 13.8008 10.4074 13.8848C10.4074 14.2675 10.3976 14.6503 10.4173 15.033C10.4272 15.1357 10.5259 15.2664 10.6246 15.3131C10.6937 15.3411 10.8418 15.2664 10.9208 15.2011C10.9702 15.1544 10.9702 15.0517 10.9702 14.9677C10.9998 14.5103 10.9998 14.0808 10.9998 13.6514Z" fill="#9B51E0"/>
<path d="M6.43945 9.2832C7.17992 9.2832 7.90063 9.2832 8.62135 9.29254C8.67071 9.29254 8.7497 9.35789 8.75957 9.39523C8.9669 10.2167 9.51978 10.7022 10.3787 10.8889C10.3886 10.8889 10.4083 10.9076 10.4281 10.9169C10.4281 11.6264 10.4281 12.3452 10.4281 13.064C8.49301 13.0547 6.49869 11.3557 6.43945 9.2832ZM9.43092 11.5517C9.41117 11.5237 9.39143 11.4583 9.35194 11.4117C9.33219 11.3837 9.2927 11.365 9.26308 11.3463C8.84842 11.1129 8.52262 10.7955 8.26593 10.4034C8.17707 10.2634 8.04872 10.1981 7.89076 10.2821C7.74266 10.3568 7.6933 10.4781 7.77229 10.6275C8.07834 11.1409 8.49301 11.5517 9.04588 11.8224C9.2236 11.9064 9.43092 11.7664 9.43092 11.5517Z" fill="#9B51E0"/>
<path d="M12.7085 9.29102C13.4786 9.29102 14.2289 9.29102 14.9891 9.29102C15.0089 11.0554 13.2614 12.9971 11.0005 13.0718C11.0005 12.8758 11.0005 12.6891 11.0005 12.493C11.0005 12.0169 10.9906 11.5315 11.0104 11.0554C11.0104 10.9901 11.0894 10.8874 11.1486 10.8687C12.0075 10.6633 12.5111 10.1219 12.7085 9.29102ZM13.7353 10.4859C13.6662 10.4206 13.5971 10.2806 13.5082 10.2712C13.4095 10.2526 13.2416 10.3179 13.1824 10.4019C12.9158 10.7753 12.6098 11.0927 12.205 11.3261C12.047 11.4195 11.9483 11.5315 12.0569 11.7182C12.1458 11.8676 12.3037 11.8862 12.5012 11.7742C12.9652 11.5035 13.3404 11.1488 13.6267 10.71C13.6563 10.6446 13.6859 10.5886 13.7353 10.4859Z" fill="#9B51E0"/>
<path d="M10.4265 4.96887C10.4265 5.70636 10.4265 6.41585 10.4265 7.15334C9.99209 7.22802 9.59718 7.40539 9.29112 7.71346C9.03443 7.96551 8.86658 8.26425 8.76785 8.60965C8.74811 8.675 8.66913 8.75902 8.61976 8.75902C7.89904 8.76835 7.17832 8.76835 6.46748 8.76835C6.11206 7.18134 8.45193 4.9502 10.4265 4.96887ZM8.06689 7.79748C8.0965 7.76947 8.19522 7.74147 8.24459 7.67612C8.51116 7.26536 8.85671 6.93863 9.29112 6.68657C9.42934 6.60255 9.4787 6.48119 9.38985 6.34116C9.30099 6.20113 9.15289 6.17313 9.01467 6.24781C8.48154 6.53721 8.05701 6.92929 7.76083 7.44273C7.67197 7.61077 7.81019 7.79748 8.06689 7.79748Z" fill="#9B51E0"/>
<path d="M15.0081 8.75933C14.2578 8.75933 13.5371 8.75933 12.8065 8.75C12.767 8.75 12.6979 8.67531 12.6782 8.62864C12.4511 7.81646 11.8982 7.33102 11.0195 7.14432C11.0195 6.4255 11.0195 5.70667 11.0195 4.97852C12.8954 4.97852 14.9094 6.6122 15.0081 8.75933ZM12.2536 6.17344C12.1845 6.23879 12.0364 6.30414 12.0364 6.38815C12.0266 6.49084 12.0957 6.64954 12.1845 6.70556C12.5794 6.95761 12.9151 7.25634 13.1619 7.63909C13.2607 7.78846 13.3989 7.87247 13.5766 7.76045C13.7543 7.64843 13.7247 7.49906 13.626 7.34969C13.3396 6.91093 12.9645 6.54685 12.4906 6.27613C12.4313 6.23879 12.3622 6.22012 12.2536 6.17344Z" fill="#9B51E0"/>
<path d="M12.1552 9.02127C12.1552 9.77743 11.5135 10.3749 10.7237 10.3749C9.92397 10.3749 9.28223 9.7681 9.28223 9.0026C9.2921 8.25577 9.93384 7.64897 10.7237 7.65831C11.5234 7.66764 12.1552 8.27444 12.1552 9.02127ZM10.7039 9.83345C11.1877 9.84278 11.5727 9.48804 11.5826 9.03994C11.5925 8.59184 11.1976 8.21843 10.7335 8.21843C10.2695 8.21843 9.88447 8.57317 9.8746 9.01193C9.85485 9.46003 10.23 9.82411 10.7039 9.83345Z" fill="#9B51E0"/>
<path d="M10.7231 8.74023C10.901 8.75891 11.0097 8.85226 11.0097 9.02963C11.0097 9.207 10.8911 9.30969 10.7132 9.30969C10.5353 9.30969 10.4167 9.207 10.4266 9.02029C10.4266 8.84292 10.5452 8.74957 10.7231 8.74023Z" fill="#9B51E0"/>
</svg>
