<svg width="15" height="25" viewBox="0 0 15 25" fill="none" xmlns="http://www.w3.org/2000/svg">
<g opacity="0.8">
<path d="M12.0544 24.3128C12.0544 24.1885 12.0544 24.0923 12.0544 23.9961C12.0544 22.4912 12.0551 20.9856 12.053 19.4807C12.053 19.3753 12.0494 19.266 12.0183 19.1659C11.9541 18.9559 11.7787 18.8538 11.5492 18.8748C11.3219 18.8957 11.1732 19.0239 11.1429 19.2399C11.1328 19.3125 11.1386 19.3871 11.1386 19.4604C11.1386 20.9738 11.1386 22.4873 11.1386 24.0001C11.1386 24.0897 11.1386 24.1794 11.1386 24.2906C8.98002 24.2906 6.83154 24.2906 4.65348 24.2906C4.65348 24.2003 4.65348 24.1126 4.65348 24.0249C4.65348 22.5036 4.65348 20.9817 4.65348 19.4604C4.65348 19.3871 4.65925 19.3125 4.64915 19.2399C4.61956 19.0239 4.47017 18.8957 4.24284 18.8741C4.01262 18.8525 3.83797 18.9559 3.77374 19.1646C3.7427 19.2647 3.73982 19.374 3.7391 19.4793C3.73693 20.9843 3.73765 22.4899 3.73765 23.9948C3.73765 24.091 3.73765 24.1872 3.73765 24.3076C3.39052 24.3076 3.06359 24.3383 2.74965 24.2939C2.60964 24.2736 2.48913 24.1074 2.37438 23.9948C2.33901 23.9602 2.34479 23.8849 2.34551 23.8286C2.35561 22.2668 2.33468 20.7036 2.38808 19.143C2.43355 17.8154 3.55939 16.1495 4.72564 15.5645C5.47043 16.5984 6.5241 17.182 7.89532 17.182C9.25787 17.182 10.3094 16.6095 11.0736 15.5488C11.4792 15.7896 11.8213 16.0841 12.1266 16.4132C13.0208 17.3783 13.4451 18.4992 13.448 19.7542C13.4509 21.0792 13.4495 22.4042 13.448 23.7298C13.4473 24.1833 13.3022 24.3115 12.8021 24.3122C12.5683 24.3128 12.3344 24.3128 12.0544 24.3128Z" fill="#EE4D2C"/>
<path d="M7.89705 6.72816C6.39088 6.72816 4.88471 6.73143 3.37854 6.72685C2.57963 6.72424 1.97124 6.2492 1.90124 5.58702C1.82474 4.86727 2.41075 4.25548 3.2342 4.19659C3.75093 4.15929 3.88084 3.99964 3.76464 3.54554C3.61237 2.9501 4.21499 2.40898 4.87317 2.54965C5.37475 2.65696 5.51908 2.57779 5.64032 2.12893C5.82507 1.44516 6.49337 0.914502 7.24465 0.856267C8.06449 0.792144 8.8237 1.19586 9.14197 1.86589C9.16001 1.90318 9.17662 1.94114 9.19177 1.97974C9.35848 2.38346 9.58004 2.46329 10.0008 2.26961C10.6748 1.9588 11.4398 2.12762 11.8346 2.68379C12.0367 2.96842 12.1117 3.27857 12.0323 3.61947C11.9486 3.97935 12.1233 4.17827 12.5116 4.19593C13.3458 4.23388 13.9239 4.77566 13.9095 5.50523C13.8958 6.18769 13.2801 6.72227 12.4697 6.72685C10.9462 6.73405 9.42199 6.72816 7.89705 6.72816Z" fill="#EE4D2C"/>
<path d="M10.6568 13.8356C10.6583 15.2332 9.41552 16.3613 7.8776 16.3574C6.35483 16.3534 5.12146 15.2286 5.1193 13.8415C5.11713 12.4484 6.37215 11.3079 7.89853 11.3165C9.42274 11.3243 10.6561 12.4504 10.6568 13.8356Z" fill="#EE4D2C"/>
<path d="M6.50453 9.0201C6.50453 8.96317 6.50092 8.90559 6.50453 8.84867C6.52402 8.57712 6.70445 8.40438 6.96931 8.40046C7.23561 8.39653 7.42253 8.56273 7.44562 8.83624C7.45645 8.9658 7.45717 9.09797 7.44418 9.22752C7.41747 9.49841 7.22622 9.65937 6.95559 9.65021C6.70083 9.64171 6.52691 9.47551 6.50526 9.21574C6.5002 9.15096 6.50526 9.08553 6.50453 9.0201Z" fill="#EE4D2C"/>
<path d="M9.29276 9.04646C9.29925 9.46653 9.1282 9.66872 8.79045 9.64909C8.46569 9.63011 8.34301 9.42858 8.35311 8.93195C8.36033 8.59628 8.52054 8.40915 8.80849 8.40064C9.05603 8.39344 9.25162 8.54198 9.29059 8.77753C9.30502 8.86587 9.29276 8.95681 9.29276 9.04646Z" fill="#EE4D2C"/>
<path d="M5.59966 9.45769C5.59966 9.48256 5.60038 9.50677 5.59966 9.53163C5.59245 9.87973 5.41997 10.078 5.12696 10.0741C4.83612 10.0701 4.66507 9.86664 4.66291 9.52181C4.66219 9.43152 4.65858 9.34188 4.66435 9.25223C4.68095 8.98985 4.87869 8.80665 5.13778 8.80861C5.39109 8.81123 5.57152 8.97742 5.59534 9.23784C5.60183 9.31113 5.59606 9.38506 5.59606 9.45835C5.59678 9.45769 5.59822 9.45769 5.59966 9.45769Z" fill="#EE4D2C"/>
<path d="M11.135 9.43817C11.1213 9.55137 11.1249 9.66914 11.0888 9.7758C11.0202 9.97929 10.8499 10.0873 10.6175 10.0696C10.3887 10.0519 10.2285 9.93153 10.2025 9.71495C10.1831 9.55333 10.1809 9.38779 10.1932 9.22552C10.2119 8.97033 10.4082 8.80348 10.6608 8.80871C10.9091 8.81395 11.1003 8.99192 11.1205 9.24056C11.1256 9.30534 11.1213 9.37143 11.1213 9.43686C11.1263 9.43752 11.1306 9.43752 11.135 9.43817Z" fill="#EE4D2C"/>
<path d="M3.7292 11.1263C3.73136 11.5542 3.58919 11.7433 3.26876 11.7427C2.95193 11.742 2.80398 11.5451 2.80398 11.1243C2.80398 11.051 2.80038 10.9771 2.80543 10.9038C2.82275 10.6611 3.0241 10.4779 3.2702 10.4785C3.51991 10.4785 3.71115 10.6558 3.72847 10.9058C3.73353 10.9791 3.7292 11.053 3.7292 11.1263Z" fill="#EE4D2C"/>
<path d="M12.9877 11.1243C12.9884 11.5444 12.8397 11.742 12.5236 11.7427C12.2039 11.7433 12.0617 11.5542 12.061 11.1263C12.061 11.053 12.0588 10.9791 12.0639 10.9058C12.0812 10.6558 12.2732 10.4785 12.5222 10.4785C12.7683 10.4785 12.9696 10.6611 12.9869 10.9038C12.992 10.9771 12.9877 11.051 12.9877 11.1243Z" fill="#EE4D2C"/>
<path d="M1.88281 11.95C1.88281 12.0396 1.89219 12.1306 1.88064 12.2196C1.85466 12.4257 1.66919 12.5729 1.44114 12.5788C1.20226 12.5847 0.992967 12.4348 0.972038 12.2222C0.955439 12.0599 0.960486 11.8957 0.967703 11.7321C0.978529 11.4933 1.19215 11.3094 1.43825 11.3166C1.67785 11.3238 1.86766 11.4979 1.88426 11.7295C1.88931 11.8028 1.88498 11.8767 1.88498 11.95C1.88426 11.95 1.88353 11.95 1.88281 11.95Z" fill="#EE4D2C"/>
<path d="M14.8338 11.95C14.8338 12.0318 14.8403 12.1136 14.8323 12.1947C14.8107 12.4238 14.6115 12.5834 14.3618 12.5782C14.1222 12.5729 13.936 12.4192 13.9187 12.1974C13.9071 12.0508 13.9107 11.9036 13.9158 11.7563C13.9252 11.4979 14.1301 11.3088 14.3863 11.3166C14.6346 11.3238 14.8229 11.507 14.8345 11.7544C14.8374 11.8198 14.8352 11.8852 14.8352 11.9507C14.8352 11.95 14.8345 11.95 14.8338 11.95Z" fill="#EE4D2C"/>
<path d="M0.961665 8.5871C0.961665 8.16506 1.10744 7.96746 1.41994 7.9668C1.73748 7.96549 1.88254 8.15917 1.88254 8.58383C1.88254 8.65711 1.88471 8.73105 1.8811 8.80433C1.86739 9.05036 1.67252 9.23161 1.42426 9.23226C1.17672 9.23357 0.9761 9.04971 0.96311 8.80761C0.958779 8.73432 0.962387 8.66038 0.961665 8.5871Z" fill="#EE4D2C"/>
<path d="M3.72966 9.02275C3.72966 9.10454 3.73687 9.18633 3.72821 9.26746C3.7044 9.49647 3.53191 9.64304 3.2887 9.64958C3.03611 9.65613 2.83548 9.50432 2.81311 9.27269C2.79868 9.11893 2.80084 8.96255 2.81022 8.80813C2.82538 8.55948 3.0224 8.3959 3.28293 8.40048C3.53408 8.40506 3.70945 8.5608 3.73038 8.80355C3.73687 8.87618 3.7311 8.95012 3.7311 9.0234L3.72966 9.02275Z" fill="#EE4D2C"/>
<path d="M14.8326 8.59106C14.8326 8.6807 14.8419 8.77165 14.8304 8.86064C14.8051 9.07003 14.5937 9.23492 14.3678 9.23165C14.139 9.22837 13.9362 9.06218 13.9196 8.84887C13.9073 8.69445 13.9102 8.53807 13.9167 8.38365C13.9283 8.135 14.1238 7.96357 14.3808 7.96684C14.6341 7.97011 14.8224 8.14678 14.8347 8.39542C14.8376 8.46086 14.8354 8.52628 14.8354 8.59172C14.834 8.59106 14.8333 8.59106 14.8326 8.59106Z" fill="#EE4D2C"/>
<path d="M12.9722 9.03705C12.9722 9.11033 12.9786 9.18427 12.9707 9.2569C12.9469 9.49246 12.76 9.65015 12.5103 9.65146C12.2562 9.65277 12.0715 9.50031 12.0527 9.26083C12.0412 9.11491 12.0419 8.96704 12.0498 8.82047C12.0635 8.56398 12.2447 8.40105 12.5059 8.40039C12.765 8.39974 12.9534 8.56594 12.9714 8.81654C12.9765 8.88983 12.9722 8.96311 12.9722 9.03639C12.9729 9.03705 12.9729 9.03705 12.9722 9.03705Z" fill="#EE4D2C"/>
</g>
</svg>
