<svg width="18" height="23" viewBox="0 0 18 23" fill="none" xmlns="http://www.w3.org/2000/svg">
<path d="M18.0003 16.1894C18.0003 15.2258 17.7337 14.354 17.0994 13.6015C16.6306 13.0325 16.0606 12.6379 15.3804 12.3902C14.6909 12.1332 13.9831 12.1791 13.266 12.1699C13.0914 12.1699 12.9995 12.2158 12.9075 12.3718C12.3284 13.3904 11.7308 14.4091 11.1425 15.4277C10.977 15.7214 10.7564 15.7214 10.5818 15.4277C10.4163 15.1432 10.2416 14.8587 10.0761 14.5834C9.63489 13.8126 9.19364 13.0417 8.75239 12.2617C8.69723 12.1699 8.62369 12.1699 8.54095 12.1699C8.23759 12.1699 7.94342 12.1699 7.64006 12.1699C6.45419 12.1883 5.47056 12.6379 4.67999 13.5189C4.64321 13.5556 4.57887 13.5923 4.60644 13.6749C5.32348 13.7667 5.97617 14.0145 6.58289 14.4183C7.34589 14.923 7.88827 15.6204 8.26517 16.4555C8.734 17.6944 8.72481 18.9241 8.16405 20.1446C8.03535 20.4199 7.86988 20.6769 7.67683 20.9522C7.78715 20.9522 7.8515 20.9522 7.91584 20.9522C10.1957 20.9522 12.4847 20.9522 14.7645 20.9614C14.9851 20.9614 15.0219 20.888 15.0219 20.6952C15.0127 19.1902 15.0219 17.6852 15.0219 16.171C15.0219 16.0976 15.0127 16.0242 15.0311 15.9508C15.0586 15.8131 15.1598 15.7397 15.2885 15.7489C15.408 15.7489 15.4999 15.8223 15.5275 15.9508C15.5367 16.0242 15.5367 16.0976 15.5367 16.171C15.5367 17.6944 15.5367 19.2178 15.5367 20.7319C15.5367 20.9155 15.5734 20.9797 15.7665 20.9705C16.4284 20.9614 17.0902 20.9614 17.7521 20.9705C17.9544 20.9705 18.0003 20.9063 18.0003 20.7136C18.0003 19.2086 18.0003 17.6944 18.0003 16.1894Z" fill="#E03F37"/>
<path d="M14.0012 7.46297C14.084 6.99495 14.0656 6.56363 13.8725 6.11396C13.5692 5.39817 13.4405 4.63649 13.4129 3.85645C13.4037 3.65456 13.2934 3.62703 13.1463 3.64539C13.0176 3.65456 12.8797 3.69127 12.751 3.73716C12.4109 3.84728 12.08 3.98493 11.7306 4.09505C10.7102 4.42542 9.70822 4.44377 8.7154 3.98493C8.19141 3.74633 8.18222 3.74633 7.96159 4.28777C7.65823 5.02192 7.5755 5.79277 7.54792 6.57281C7.52953 6.80223 7.5663 7.02248 7.59388 7.24272C7.695 8.02276 7.92482 8.74773 8.40284 9.38093C9.44163 10.7575 11.2894 11.0328 12.6223 9.98661C13.4405 9.34422 13.8358 8.46324 14.0012 7.46297Z" fill="#E03F37"/>
<path d="M7.11612 5.40759C7.18047 5.13228 7.22643 4.90286 7.28159 4.68262C7.41948 4.18707 7.58495 3.70987 7.97105 3.33362C8.18248 3.12255 8.25603 3.11337 8.52262 3.26938C9.4327 3.80164 10.3888 3.94847 11.4 3.62728C11.8964 3.47127 12.3744 3.29691 12.8708 3.1409C13.404 2.97572 14.0107 3.22349 13.9739 3.93929C13.9372 4.62756 14.1394 5.29747 14.406 6.00409C14.8381 5.22405 14.9943 4.46237 14.7921 3.65481C14.4336 2.20486 13.4408 1.29635 12.163 0.653969C11.5562 0.351133 10.9035 0.222656 10.2141 0.222656C9.60737 0.231833 9.08338 0.38784 8.61454 0.773269C8.18248 1.13117 7.93428 1.60836 7.78719 2.13145C7.75042 2.2691 7.73204 2.41593 7.61253 2.5077C6.96904 3.00325 6.84034 3.69151 6.90469 4.44402C6.92307 4.76521 6.95984 5.07722 7.11612 5.40759Z" fill="#E03F37"/>
<path d="M7.87875 16.9705C7.54781 15.8601 6.82158 15.0801 5.80118 14.5662C5.1393 14.2358 4.42226 14.1165 3.66846 14.1808C1.30591 14.3918 -0.403945 16.6402 0.0832719 18.9619C0.395826 20.4669 1.3151 21.4947 2.77675 22.0087C3.19962 22.1738 3.65007 22.2381 4.10052 22.2197C5.54378 22.1647 6.69288 21.5406 7.46507 20.3201C8.11776 19.2831 8.27404 18.1544 7.87875 16.9705ZM4.31195 20.9808C4.31195 21.146 4.26599 21.2837 4.08213 21.302C3.88908 21.3204 3.79716 21.2103 3.76958 21.0267C3.76958 20.4486 3.76958 19.8704 3.77877 19.2923C3.77877 19.1822 3.75119 19.1455 3.63169 19.1271C2.94223 19.017 2.48259 18.4756 2.4642 17.7689C2.4642 17.5303 2.44582 17.2917 2.38147 17.0531C2.30792 16.8054 2.17923 16.6402 1.89425 16.631C1.86667 16.631 1.83909 16.6218 1.80232 16.6127C1.65524 16.5851 1.5817 16.4934 1.59089 16.3465C1.60008 16.1997 1.69201 16.1263 1.8391 16.1079C2.26196 16.0712 2.63887 16.3006 2.81353 16.7228C2.96061 17.0715 2.979 17.4386 2.98819 17.8056C2.99739 18.1635 3.18124 18.4113 3.50299 18.5581C3.72361 18.6591 3.76039 18.6224 3.76958 18.3838C3.76958 17.7781 3.76958 17.1724 3.76958 16.5668C3.76958 16.5117 3.76958 16.4566 3.76958 16.4108C3.77877 16.2456 3.85231 16.1171 4.04536 16.1171C4.22922 16.1263 4.30276 16.2456 4.30276 16.4199C4.30276 17.0715 4.30276 17.7231 4.30276 18.3746C4.30276 18.6316 4.33953 18.6591 4.56935 18.549C4.89109 18.4021 5.06576 18.1544 5.08415 17.7965C5.09334 17.4294 5.11172 17.0623 5.25881 16.7136C5.42428 16.3098 5.7828 16.0804 6.21486 16.1079C6.37113 16.1171 6.47226 16.1905 6.48145 16.3465C6.49064 16.5025 6.4079 16.5943 6.24243 16.6127C5.85634 16.6677 5.72764 16.787 5.66329 17.1816C5.62652 17.3927 5.61733 17.5946 5.61733 17.8056C5.60813 18.4664 5.13011 19.017 4.47742 19.1179C4.33953 19.1363 4.30276 19.1822 4.30276 19.3107C4.31195 19.6869 4.31195 20.0632 4.31195 20.4302C4.31195 20.6229 4.31195 20.8065 4.31195 20.9808Z" fill="#E03F37"/>
<path d="M12.4203 10.7397C11.3907 11.2628 10.3519 11.2811 9.30397 10.7856C9.16607 10.7213 9.1385 10.7213 9.12931 10.8865C9.07415 11.5197 9.17527 12.0979 9.57056 12.621C9.69006 12.777 9.76361 12.9605 9.86473 13.1257C10.1957 13.6855 10.5174 14.2544 10.8575 14.8418C10.8943 14.7867 10.9219 14.7683 10.9311 14.7408C11.4643 13.814 12.0066 12.8871 12.5398 11.9602C12.5858 11.8868 12.6042 11.8134 12.6042 11.7216C12.6042 11.428 12.595 11.1343 12.6042 10.8406C12.6226 10.6663 12.5582 10.6755 12.4203 10.7397Z" fill="#E03F37"/>
</svg>
