<svg width="17" height="20" viewBox="0 0 17 20" fill="none" xmlns="http://www.w3.org/2000/svg">
<path d="M6.76249 19.9997C6.60148 19.9997 6.48072 19.9595 6.31971 19.9595C4.58883 19.879 2.85796 19.718 1.16733 19.2752C0.925815 19.1947 0.684296 19.1142 0.442778 19.0337C0.241514 18.9532 0.161007 18.8324 0.120754 18.6311C0.0805009 18.3896 0 18.1078 0 17.8663C0.0402529 16.6587 0.120759 15.4914 0.402529 14.3241C0.603794 13.5593 0.885559 12.7945 1.32834 12.1504C1.65037 11.7076 2.13341 11.4259 2.61644 11.2648C3.46175 10.9831 4.30706 10.7013 5.11212 10.2183C5.15237 10.178 5.23288 10.2183 5.27313 10.2183C5.51465 10.339 5.59515 10.4598 5.59515 10.7416C5.5549 11.3856 5.5549 12.0699 5.5549 12.714C5.5549 12.7945 5.5549 12.9152 5.59515 12.9957C6.31971 14.9681 7.04426 16.9003 7.80907 18.8727C7.84932 18.9532 7.88957 19.0739 7.97007 19.1142C8.17134 19.2752 8.41286 19.1947 8.53362 18.9129C8.77514 18.3091 8.9764 17.7456 9.17766 17.1418C9.70095 15.7732 10.2242 14.4046 10.7073 12.9957C10.7475 12.875 10.7878 12.7542 10.7878 12.6334C10.7878 11.9089 10.7878 11.2246 10.7475 10.5C10.7475 10.2585 10.9085 10.2183 11.0696 10.1378C11.1098 10.0975 11.2306 10.1378 11.3111 10.178C11.9954 10.6208 12.8004 10.9026 13.5652 11.1441C14.4508 11.4259 15.0546 11.9491 15.4571 12.7945C15.8194 13.6398 16.1012 14.4851 16.2219 15.4109C16.3024 16.1355 16.3829 16.86 16.3829 17.5846C16.3829 17.9066 16.3427 18.2286 16.3024 18.5506C16.2622 18.7921 16.1012 18.9532 15.8597 19.0337C14.9338 19.3557 13.9275 19.557 12.9614 19.6777C11.9149 19.7985 10.8683 19.8387 9.82171 19.9192C9.74121 19.9192 9.70095 19.9595 9.62045 19.9595C8.65438 19.9997 7.6883 19.9997 6.76249 19.9997Z" fill="#4465EA"/>
<path d="M12.1985 3.41579C12.118 3.85858 12.0375 4.2611 11.9167 4.70389C11.8764 4.82464 11.9167 4.90515 11.957 4.98566C12.0375 5.14667 12.118 5.30768 12.118 5.46869C12.118 5.95173 12.0375 6.43476 11.7557 6.87754C11.7154 6.9178 11.7154 6.9983 11.6752 7.07881C11.3532 8.32665 10.7494 9.41348 9.66254 10.138C8.57571 10.8626 7.48888 10.8223 6.4423 10.0173C5.43598 9.25247 4.83218 8.24614 4.59066 7.03856C4.59066 6.9983 4.55041 6.9178 4.51016 6.87754C4.18814 6.39451 4.14788 5.83097 4.14788 5.26743C4.14788 5.18692 4.18814 5.06616 4.22839 4.98566C4.34915 4.8649 4.3089 4.78439 4.3089 4.62338C4.14788 4.01959 4.06738 3.37554 4.22839 2.77175C4.63092 1.24213 5.99952 -0.247224 8.09267 0.0345467C9.1795 0.195558 10.1858 0.557835 11.0714 1.24213C11.7959 1.80568 12.1582 2.48998 12.1985 3.41579Z" fill="#4465EA"/>
<path d="M8.01056 12.594C7.76905 12.1914 7.44702 11.7487 7.125 11.2656C7.8093 11.5071 8.45334 11.4669 9.1779 11.3059C8.85587 11.7889 8.57411 12.2317 8.33259 12.6342C8.57411 12.8757 8.77537 13.1173 9.01689 13.3588C9.09739 13.4393 9.13764 13.5198 9.09739 13.6405C8.81562 15.2507 8.5741 16.8608 8.29233 18.4709C8.29233 18.5514 8.21183 18.5917 8.17157 18.6319C8.13132 18.5917 8.09107 18.5112 8.09107 18.4709C7.8093 16.8608 7.56778 15.2104 7.28601 13.6003C7.28601 13.5198 7.32626 13.4393 7.36651 13.399C7.56778 13.1173 7.76905 12.8757 8.01056 12.594Z" fill="#4465EA"/>
</svg>
