<svg width="16" height="16" viewBox="0 0 16 16" fill="none" xmlns="http://www.w3.org/2000/svg">
<path d="M8.08691 0.000732422V15.9995C12.4652 15.9531 16 12.3893 16 8.00008C16 3.61086 12.4652 0.0470762 8.08691 0.000732422Z" fill="#FFB751"/>
<path d="M8.08691 0.00065625C8.05794 0.0003125 8.02897 0 8 0C3.58181 0 0 3.58181 0 8C0 12.4182 3.58181 16 8 16C8.02897 16 8.05794 15.9997 8.08691 15.9993C11.7537 15.944 14.7123 12.3837 14.7123 8C14.7123 3.61625 11.7537 0.0560312 8.08691 0.00065625Z" fill="#FFD764"/>
<path d="M11.654 7.04077H11.171L8.04089 11.0408H11.2567C11.8081 10.338 12.1368 9.45205 12.1368 8.48946V7.52368C12.1368 7.25805 11.9195 7.04077 11.654 7.04077Z" fill="#401510"/>
<path d="M4.34607 7.04077C4.08047 7.04077 3.86316 7.25808 3.86316 7.52368V8.48946C3.86316 9.45202 4.19185 10.338 4.74332 11.0408L10.765 10.5154C11.0235 9.91658 11.171 9.2254 11.171 8.48946V8.00655L4.82894 7.04077H4.34607Z" fill="#901C0F"/>
<path d="M10.7651 10.5151L8.04089 12.6257C9.34633 12.6132 10.5069 11.996 11.2567 11.0405C11.1083 10.8515 10.9438 10.6754 10.7651 10.5151Z" fill="#E0230D"/>
<path d="M10.765 10.5152C10.228 11.7607 9.21072 12.6065 8.04082 12.6258C8.02729 12.6261 8.01344 12.6261 7.99994 12.6261C6.67775 12.6261 5.50079 12.006 4.74329 11.0406C5.50079 10.0754 6.67779 9.45508 7.99994 9.45508C9.06297 9.45505 10.0323 9.85617 10.765 10.5152Z" fill="#FF5440"/>
<path d="M10.2052 7.04077L9.72229 8.48946H10.6881C10.9537 8.48946 11.171 8.27215 11.171 8.00655V7.04077H10.2052Z" fill="#FFE7A3"/>
<path d="M10.2052 7.04077V8.00655C10.2052 8.27215 9.98792 8.48946 9.72232 8.48946H5.31189C5.04629 8.48946 4.82898 8.27215 4.82898 8.00655V7.04077H10.2052Z" fill="white"/>
<path d="M2.09256 8.63752C2.53707 8.63752 2.89741 8.27718 2.89741 7.83268C2.89741 7.38817 2.53707 7.02783 2.09256 7.02783C1.64806 7.02783 1.28772 7.38817 1.28772 7.83268C1.28772 8.27718 1.64806 8.63752 2.09256 8.63752Z" fill="#FF804C"/>
<path d="M13.9075 8.65046C14.352 8.65046 14.7123 8.29012 14.7123 7.84561C14.7123 7.40111 14.352 7.04077 13.9075 7.04077C13.463 7.04077 13.1027 7.40111 13.1027 7.84561C13.1027 8.29012 13.463 8.65046 13.9075 8.65046Z" fill="#FF804C"/>
<path d="M5.79483 5.83345C5.66148 5.83345 5.55339 5.72536 5.55339 5.59202C5.55339 5.19261 5.22845 4.86767 4.82904 4.86767C4.42964 4.86767 4.1047 5.19261 4.1047 5.59202C4.1047 5.72536 3.99661 5.83345 3.86326 5.83345C3.72992 5.83345 3.62183 5.72536 3.62183 5.59202C3.62183 4.92633 4.16339 4.38477 4.82908 4.38477C5.49476 4.38477 6.03633 4.92633 6.03633 5.59202C6.03626 5.72536 5.92817 5.83345 5.79483 5.83345Z" fill="#401510"/>
<path d="M12.1369 5.83345C12.0035 5.83345 11.8954 5.72536 11.8954 5.59202C11.8954 5.19261 11.5705 4.86767 11.1711 4.86767C10.7717 4.86767 10.4467 5.19261 10.4467 5.59202C10.4467 5.72536 10.3387 5.83345 10.2053 5.83345C10.0719 5.83345 9.96387 5.72536 9.96387 5.59202C9.96387 4.92633 10.5054 4.38477 11.1711 4.38477C11.8368 4.38477 12.3784 4.92633 12.3784 5.59202C12.3783 5.72536 12.2702 5.83345 12.1369 5.83345Z" fill="#401510"/>
<path d="M8.24143 13.8335H7.75853C7.62518 13.8335 7.51709 13.7254 7.51709 13.592C7.51709 13.4587 7.62518 13.3506 7.75853 13.3506H8.24143C8.37481 13.3506 8.48287 13.4587 8.48287 13.592C8.4829 13.7254 8.37481 13.8335 8.24143 13.8335Z" fill="#FFB751"/>
</svg>
