<svg width="19" height="17" viewBox="0 0 19 17" fill="none" xmlns="http://www.w3.org/2000/svg">
<path d="M18.1854 5.96816C18.1949 7.31462 17.758 8.3841 17.1324 9.38893C16.2675 10.7778 15.132 11.9264 13.9031 12.988C12.8033 13.9383 11.6345 14.7965 10.4156 15.5857C9.5323 16.1575 8.64512 16.1575 7.7635 15.5807C5.99915 14.4265 4.32385 13.1586 2.85059 11.6421C1.89272 10.6563 1.04839 9.58622 0.48179 8.31834C-0.430998 6.27579 -0.0219128 3.86932 1.4981 2.3735C3.19789 0.700452 5.86946 0.536603 7.80468 1.98673C8.24605 2.31777 8.644 2.6934 8.97517 3.13534C9.07201 3.2652 9.11988 3.24792 9.21338 3.13089C10.0677 2.05639 11.1347 1.3213 12.5055 1.06939C14.6406 0.677046 16.8346 1.85019 17.7173 3.85874C18.0318 4.57544 18.1882 5.32279 18.1854 5.96816Z" fill="#F8595F"/>
</svg>
