<svg width="22" height="18" viewBox="0 0 22 18" fill="none" xmlns="http://www.w3.org/2000/svg">
<path d="M0 1.98091C0.11248 1.54194 0.274308 1.13518 0.565955 0.77857C1.30218 -0.123299 2.74441 -0.270082 3.62202 0.487763C4.52541 1.26769 4.75971 2.47371 4.20176 3.47451C3.75762 4.27101 2.83022 4.76473 2.01352 4.63912C1.00743 4.48451 0.262304 3.79477 0.0471258 2.82158C0.0369004 2.77418 0.016005 2.72955 0 2.684C0 2.44933 0 2.21512 0 1.98091Z" fill="white"/>
<path d="M0 8.17318C0.116036 7.74388 0.257414 7.33021 0.560619 6.99339C1.18926 6.29444 1.95261 6.03309 2.84133 6.288C3.70916 6.53694 4.26933 7.14432 4.44539 8.05815C4.74326 9.60375 3.58823 10.9395 2.0682 10.8475C1.12079 10.7904 0.255191 10.0054 0.045792 9.01523C0.0355666 8.96738 0.0155604 8.92229 0 8.87581C0 8.6416 0 8.40739 0 8.17318Z" fill="white"/>
<path d="M0 14.3664C0.120927 13.9394 0.273863 13.5354 0.563732 13.1884C1.44089 12.138 3.07963 12.1398 3.9399 13.205C5.0807 14.6181 4.37692 16.6703 2.6306 17.0237C1.48091 17.2561 0.289868 16.4204 0.0449029 15.2103C0.0351221 15.162 0.0151158 15.116 0 15.069C0 14.8348 0 14.6006 0 14.3664Z" fill="white"/>
<path d="M14.2166 3.86936C12.2444 3.86936 10.2722 3.87167 8.30004 3.86798C7.52424 3.8666 6.95028 3.39726 6.77734 2.64172C6.58217 1.78863 7.19258 0.887679 8.03373 0.79243C8.2089 0.772644 8.3854 0.760221 8.56145 0.760221C12.4 0.75838 16.2381 0.75884 20.0766 0.75884C20.7168 0.75884 21.2361 0.991669 21.5513 1.59767C22.0732 2.60215 21.3859 3.8482 20.2816 3.86154C18.6064 3.88179 16.9312 3.86844 15.2555 3.86936C14.9092 3.86982 14.5629 3.86982 14.2166 3.86936Z" fill="white"/>
<path d="M14.2253 13.1776C16.2046 13.1776 18.1839 13.1757 20.1632 13.1785C20.9101 13.1799 21.472 13.6078 21.6708 14.3127C21.9228 15.2054 21.3164 16.1515 20.4219 16.2559C20.261 16.2748 20.0983 16.2867 19.9364 16.2867C16.0908 16.2886 12.2456 16.2877 8.39994 16.2881C7.75129 16.2881 7.2298 16.0525 6.91192 15.4364C6.40509 14.4545 7.08397 13.2043 8.16031 13.1872C9.69412 13.1633 11.2279 13.179 12.7622 13.1776C13.2499 13.1776 13.7376 13.1776 14.2253 13.1776Z" fill="white"/>
<path d="M14.2378 6.9706C16.1815 6.9706 18.1256 6.97382 20.0694 6.96876C20.5909 6.96738 21.0479 7.10772 21.384 7.54163C21.7561 8.02201 21.8393 8.56267 21.6058 9.12634C21.3742 9.68679 20.9496 10.008 20.3526 10.0618C20.2543 10.0705 20.1552 10.0774 20.0565 10.0774C16.1757 10.0784 12.2949 10.0761 8.41417 10.0807C7.87623 10.0811 7.40808 9.93526 7.06886 9.48203C6.70964 9.0021 6.63984 8.4642 6.87102 7.91296C7.10176 7.3631 7.521 7.02398 8.11008 6.99361C8.7236 6.96186 9.33935 6.97336 9.95376 6.97198C11.3822 6.96922 12.8102 6.9706 14.2378 6.9706Z" fill="white"/>
</svg>
