<svg width="24" height="24" viewBox="0 0 24 24" fill="none" xmlns="http://www.w3.org/2000/svg">
<path d="M19.6 1.33301H3.6C3.17565 1.33301 2.76869 1.47348 2.46863 1.72353C2.16857 1.97358 2 2.31272 2 2.66634V21.333C2 21.6866 2.16857 22.0258 2.46863 22.2758C2.76869 22.5259 3.17565 22.6663 3.6 22.6663H19.6C20.0243 22.6663 20.4313 22.5259 20.7314 22.2758C21.0314 22.0258 21.2 21.6866 21.2 21.333V2.66634C21.2 2.31272 21.0314 1.97358 20.7314 1.72353C20.4313 1.47348 20.0243 1.33301 19.6 1.33301ZM7.6 17.333H6V15.9997H7.6V17.333ZM7.6 14.6663H6V13.333H7.6V14.6663ZM7.6 11.9997H6V10.6663H7.6V11.9997ZM7.6 9.33301H6V7.99967H7.6V9.33301ZM7.6 6.66634H6V5.33301H7.6V6.66634ZM17.2 17.333H9.2V15.9997H17.2V17.333ZM17.2 14.6663H9.2V13.333H17.2V14.6663ZM17.2 11.9997H9.2V10.6663H17.2V11.9997ZM17.2 9.33301H9.2V7.99967H17.2V9.33301ZM17.2 6.66634H9.2V5.33301H17.2V6.66634Z" fill="#2896FF"/>
</svg>
