<svg width="18" height="18" viewBox="0 0 18 18" fill="none" xmlns="http://www.w3.org/2000/svg">
<path d="M17.1022 15.5361H5.06564C4.56956 15.5361 4.16748 15.134 4.16748 14.6379C4.16748 14.1418 4.56956 13.7397 5.06564 13.7397H17.1019C17.5979 13.7397 18 14.1418 18 14.6379C18 15.134 17.5982 15.5361 17.1022 15.5361Z" fill="black"/>
<path d="M17.1022 9.89831H5.06564C4.56956 9.89831 4.16748 9.49623 4.16748 9.00015C4.16748 8.50407 4.56956 8.10199 5.06564 8.10199H17.1019C17.5979 8.10199 18 8.50407 18 9.00015C18.0003 9.49623 17.5982 9.89831 17.1022 9.89831Z" fill="black"/>
<path d="M17.1022 4.26055H5.06564C4.56956 4.26055 4.16748 3.85848 4.16748 3.36239C4.16748 2.86631 4.56956 2.46423 5.06564 2.46423H17.1019C17.5979 2.46423 18 2.86631 18 3.36239C18 3.85848 17.5982 4.26055 17.1022 4.26055Z" fill="black"/>
<path d="M1.20623 4.6381C1.87241 4.6381 2.41245 4.09806 2.41245 3.43187C2.41245 2.76569 1.87241 2.22565 1.20623 2.22565C0.540046 2.22565 0 2.76569 0 3.43187C0 4.09806 0.540046 4.6381 1.20623 4.6381Z" fill="black"/>
<path d="M1.20623 10.2064C1.87241 10.2064 2.41245 9.66635 2.41245 9.00017C2.41245 8.33399 1.87241 7.79395 1.20623 7.79395C0.540046 7.79395 0 8.33399 0 9.00017C0 9.66635 0.540046 10.2064 1.20623 10.2064Z" fill="black"/>
<path d="M1.20623 15.7747C1.87241 15.7747 2.41245 15.2347 2.41245 14.5685C2.41245 13.9023 1.87241 13.3622 1.20623 13.3622C0.540046 13.3622 0 13.9023 0 14.5685C0 15.2347 0.540046 15.7747 1.20623 15.7747Z" fill="black"/>
</svg>
