<svg width="16" height="12" viewBox="0 0 16 12" fill="none" xmlns="http://www.w3.org/2000/svg">
<path d="M4.9399 11.1837H14.3016C14.7428 11.1837 15.1 10.8261 15.1 10.3851C15.1 9.94402 14.7425 9.58652 14.3014 9.58652H4.9399C4.49883 9.58652 4.14133 9.94402 4.14133 10.3851C4.14133 10.8262 4.49883 11.1837 4.9399 11.1837Z" fill="#FF9F00" stroke="#FF9F00" stroke-width="0.2"/>
<path d="M4.9399 6.7984H14.3016L15 5.99984H15.1C15.1 5.99982 15.1 5.9998 15.1 5.99978C15.0999 5.55873 14.7425 5.20127 14.3014 5.20127H4.9399C4.49883 5.20127 4.14133 5.55877 4.14133 5.99984C4.14133 6.44091 4.49883 6.7984 4.9399 6.7984Z" fill="#FF9F00" stroke="#FF9F00" stroke-width="0.2"/>
<path d="M4.9399 2.41364H14.3016C14.7428 2.41364 15.1 2.0561 15.1 1.61507C15.1 1.174 14.7425 0.816504 14.3014 0.816504H4.9399C4.49883 0.816504 4.14133 1.174 4.14133 1.61507C4.14133 2.05614 4.49883 2.41364 4.9399 2.41364Z" fill="#FF9F00" stroke="#FF9F00" stroke-width="0.2"/>
<path d="M1.93818 2.70731C2.51155 2.70731 2.97635 2.2425 2.97635 1.66913C2.97635 1.09576 2.51155 0.630957 1.93818 0.630957C1.36481 0.630957 0.9 1.09576 0.9 1.66913C0.9 2.2425 1.36481 2.70731 1.93818 2.70731Z" fill="#FF9F00" stroke="#FF9F00" stroke-width="0.2"/>
<path d="M1.93818 7.03837C2.51155 7.03837 2.97635 6.57356 2.97635 6.00019C2.97635 5.42682 2.51155 4.96201 1.93818 4.96201C1.36481 4.96201 0.9 5.42682 0.9 6.00019C0.9 6.57356 1.36481 7.03837 1.93818 7.03837Z" fill="#FF9F00" stroke="#FF9F00" stroke-width="0.2"/>
<path d="M1.93818 11.3689C2.51155 11.3689 2.97635 10.9041 2.97635 10.3308C2.97635 9.75739 2.51155 9.29258 1.93818 9.29258C1.36481 9.29258 0.9 9.75739 0.9 10.3308C0.9 10.9041 1.36481 11.3689 1.93818 11.3689Z" fill="#FF9F00" stroke="#FF9F00" stroke-width="0.2"/>
</svg>
