<svg width="24" height="24" viewBox="0 0 24 24" fill="none" xmlns="http://www.w3.org/2000/svg">
<path d="M12 1.5C9.61392 1.50258 7.32637 2.3726 5.63915 3.91922C3.95194 5.46584 3.00282 7.56276 3.00001 9.75C2.99715 11.5374 3.63408 13.2763 4.8131 14.7C4.8131 14.7 5.05855 14.9963 5.09864 15.039L12 22.5L18.9046 15.0353C18.9406 14.9955 19.1869 14.7 19.1869 14.7L19.1877 14.6978C20.3661 13.2747 21.0028 11.5366 21 9.75C20.9972 7.56276 20.0481 5.46584 18.3608 3.91922C16.6736 2.3726 14.3861 1.50258 12 1.5ZM12.8182 13.5H11.1818V12H12.8182V13.5ZM12.8182 10.5H11.1818V9H12.8182V10.5ZM16.0909 13.5H14.4545V7.5H9.54546V13.5H7.9091V7.5C7.90953 7.1023 8.08207 6.721 8.38885 6.43978C8.69564 6.15856 9.1116 6.0004 9.54546 6H14.4545C14.8884 6.0004 15.3044 6.15856 15.6111 6.43978C15.9179 6.721 16.0905 7.1023 16.0909 7.5V13.5Z" fill="#FF9F00"/>
</svg>
