<svg width="12" height="12" viewBox="0 0 12 12" fill="none" xmlns="http://www.w3.org/2000/svg">
<path d="M6.00002 7.05521C5.80603 7.05521 5.64844 7.2128 5.64844 7.40679C5.64844 7.60078 5.80603 7.75838 6.00002 7.75838C6.19402 7.75838 6.35161 7.60078 6.35161 7.40679C6.35161 7.2128 6.19402 7.05521 6.00002 7.05521Z" fill="black"/>
<path d="M8.10963 4.94566H3.73112C2.45997 4.94566 1.42944 5.97614 1.42944 7.24734C1.42944 9.41872 2.87038 11.4366 4.99335 11.8926C7.95039 12.5278 10.5707 10.2557 10.5707 7.40676C10.5707 6.04755 9.46886 4.94566 8.10963 4.94566ZM6.35167 8.39678V10.2429C6.35167 10.4373 6.19441 10.5945 6.00009 10.5945C5.80574 10.5945 5.6485 10.4373 5.6485 10.2429V8.39678C5.24015 8.25116 4.94533 7.86454 4.94533 7.40678C4.94533 6.82516 5.41846 6.35203 6.00009 6.35203C6.58171 6.35203 7.05485 6.82516 7.05485 7.40678C7.05485 7.86454 6.76003 8.25114 6.35167 8.39678Z" fill="black"/>
<path d="M5.99999 0C4.24909 0 2.83569 1.41337 2.83569 3.1643V4.39404C3.12037 4.30434 3.41725 4.24252 3.73115 4.24252H4.24206V3.1643C4.24206 2.19391 5.02961 1.40637 5.99999 1.40637C6.97038 1.40637 7.75793 2.19391 7.75793 3.1643V4.24249H8.10951C8.48114 4.24249 8.83272 4.31866 9.16427 4.43688V3.1643C9.16429 1.41506 7.74745 0 5.99999 0Z" fill="black"/>
</svg>
