<svg width="24" height="24" viewBox="0 0 24 24" fill="none" xmlns="http://www.w3.org/2000/svg">
<path fill-rule="evenodd" clip-rule="evenodd" d="M12 0C11.1129 0 9.63043 0.33125 8.23543 0.7C6.80829 1.075 5.36958 1.51875 4.52358 1.7875C4.16987 1.90106 3.85628 2.10933 3.61884 2.38838C3.3814 2.66742 3.22975 3.00592 3.18129 3.365C2.41501 8.96125 4.19315 13.1088 6.35058 15.8525C7.26547 17.0262 8.35632 18.0598 9.58672 18.9188C10.083 19.26 10.5433 19.5212 10.9341 19.7C11.2941 19.865 11.6811 20 12 20C12.3189 20 12.7046 19.865 13.0659 19.7C13.5371 19.4773 13.9878 19.216 14.4133 18.9188C15.6437 18.0598 16.7346 17.0262 17.6494 15.8525C19.8069 13.1088 21.585 8.96125 20.8187 3.365C20.7703 3.00575 20.6187 2.66705 20.3813 2.38779C20.1439 2.10853 19.8302 1.90004 19.4764 1.78625C18.2483 1.39477 17.0107 1.03216 15.7646 0.69875C14.3696 0.3325 12.8871 0 12 0ZM12 6.25C12.4555 6.24934 12.8964 6.40541 13.2449 6.69058C13.5933 6.97574 13.8267 7.37159 13.9037 7.80801C13.9807 8.24444 13.8963 8.69328 13.6656 9.07503C13.4348 9.45678 13.0725 9.74681 12.6429 9.89375L13.1379 12.3812C13.1559 12.4717 13.1531 12.565 13.1297 12.6543C13.1063 12.7436 13.0629 12.8267 13.0025 12.8978C12.9422 12.9689 12.8665 13.0261 12.7807 13.0654C12.695 13.1047 12.6014 13.125 12.5066 13.125H11.4934C11.3988 13.1248 11.3053 13.1043 11.2197 13.065C11.1341 13.0256 11.0585 12.9684 10.9983 12.8973C10.9381 12.8263 10.8948 12.7432 10.8715 12.654C10.8482 12.5647 10.8454 12.4716 10.8634 12.3812L11.3571 9.89375C10.9275 9.74681 10.5652 9.45678 10.3344 9.07503C10.1037 8.69328 10.0193 8.24444 10.0963 7.80801C10.1733 7.37159 10.4067 6.97574 10.7551 6.69058C11.1036 6.40541 11.5445 6.24934 12 6.25Z" fill="black"/>
</svg>
