<svg width="16" height="15" viewBox="0 0 16 15" fill="none" xmlns="http://www.w3.org/2000/svg">
<path d="M0 5.22083C0 4.92924 0 4.63766 0 4.34568C0.0199609 4.23883 0.043444 4.13276 0.0590996 4.02552C0.249315 2.72259 0.824658 1.63492 1.89159 0.843526C2.85714 0.127283 3.95225 -0.125946 5.13699 0.0576154C6.26301 0.232175 7.13229 0.8447 7.83718 1.71554C7.89041 1.78129 7.94168 1.8494 7.99296 1.91515C8.01761 1.89636 8.02231 1.89401 8.02544 1.88971C8.05166 1.85722 8.0775 1.82474 8.10294 1.79186C8.87593 0.803995 9.84618 0.147635 11.1217 0.0227818C12.0489 -0.0680206 12.9284 0.110844 13.728 0.591862C15.0219 1.37034 15.7166 2.54646 15.9393 4.02161C16.1515 5.42826 15.7977 6.70106 15.0282 7.87484C14.3511 8.90771 13.4853 9.7719 12.5667 10.5829C11.283 11.7167 9.98043 12.829 8.68532 13.9496C8.2407 14.3343 7.76517 14.3379 7.32211 13.9555C6.10372 12.905 4.88337 11.8568 3.67202 10.7985C2.85558 10.0854 2.07515 9.3355 1.40431 8.47875C0.848141 7.76799 0.39726 7.00086 0.172211 6.11906C0.0970644 5.82474 0.0563601 5.52063 0 5.22083Z" fill="#E3423A"/>
</svg>
