<svg width="21" height="18" viewBox="0 0 21 18" fill="none" xmlns="http://www.w3.org/2000/svg">
<path d="M0 6.59926C0 6.23069 0 5.86212 0 5.49305C0.0252311 5.35799 0.0549144 5.22392 0.0747034 5.08837C0.315141 3.44142 1.04239 2.06658 2.39101 1.06624C3.6115 0.160889 4.99575 -0.159199 6.49328 0.0728274C7.91661 0.293475 9.0154 1.06772 9.9064 2.16849C9.97369 2.2516 10.0385 2.33769 10.1033 2.4208C10.1345 2.39705 10.1404 2.39408 10.1444 2.38864C10.1775 2.34758 10.2102 2.30652 10.2423 2.26496C11.2194 1.01627 12.4458 0.186615 14.0581 0.0287968C15.2302 -0.0859798 16.3418 0.14011 17.3525 0.748129C18.9881 1.73214 19.8662 3.21879 20.1477 5.08342C20.4159 6.86147 19.9686 8.47032 18.996 9.954C18.1401 11.2596 17.0458 12.3519 15.8847 13.377C14.262 14.8102 12.6155 16.2162 10.9785 17.6327C10.4165 18.119 9.81537 18.1234 9.25534 17.6401C7.71526 16.3122 6.1727 14.9873 4.64152 13.6496C3.60952 12.7482 2.62304 11.8003 1.77508 10.7174C1.07207 9.81894 0.502147 8.84928 0.217679 7.73466C0.122692 7.36262 0.0712406 6.97822 0 6.59926Z" fill="#FA72B2"/>
</svg>
