<svg width="20" height="20" viewBox="0 0 20 20" fill="none" xmlns="http://www.w3.org/2000/svg">
<path d="M16.6433 2.59833C16.5102 2.52713 16.3603 2.4934 16.2096 2.50074C16.0588 2.50808 15.9129 2.55621 15.7874 2.63999L5.78741 9.30666C5.67328 9.38276 5.5797 9.48586 5.51498 9.60681C5.45026 9.72776 5.41639 9.86282 5.41639 9.99999C5.41639 10.1372 5.45026 10.2722 5.51498 10.3932C5.5797 10.5141 5.67328 10.6172 5.78741 10.6933L15.7874 17.36C15.9129 17.4437 16.0588 17.4918 16.2095 17.4991C16.3602 17.5065 16.51 17.4727 16.6431 17.4016C16.7761 17.3304 16.8873 17.2244 16.9648 17.095C17.0423 16.9656 17.0833 16.8175 17.0833 16.6667L17.0833 3.33333C17.0833 3.18246 17.0424 3.03441 16.9649 2.90496C16.8874 2.77552 16.7763 2.66954 16.6433 2.59833ZM15.4166 15.1092L7.74991 9.99999L15.4166 4.89083L15.4166 15.1092Z" fill="white"/>
<path d="M3.74991 4.16667C3.5289 4.16667 3.31693 4.25446 3.16065 4.41075C3.00437 4.56703 2.91657 4.77899 2.91657 5L2.91657 15C2.91657 15.221 3.00437 15.433 3.16065 15.5893C3.31693 15.7455 3.5289 15.8333 3.74991 15.8333C3.97093 15.8333 4.18289 15.7455 4.33917 15.5893C4.49545 15.433 4.58325 15.221 4.58325 15L4.58325 5C4.58325 4.77899 4.49546 4.56703 4.33917 4.41075C4.18289 4.25447 3.97093 4.16667 3.74991 4.16667Z" fill="white"/>
</svg>
