<svg width="61" height="61" viewBox="0 0 61 61" fill="none" xmlns="http://www.w3.org/2000/svg">
<g filter="url(#filter0_d_6_95)">
<rect x="1" y="1" width="57" height="57" rx="13" fill="#01A358"/>
</g>
<path d="M49.1045 22.1275C48.3937 23.9286 49.1695 26.0175 50.7238 28.0001C51.5935 29.1099 51.3412 30.3681 50.4875 31.3989C49.1142 33.057 48.6326 34.8394 49.1722 36.9539C49.5979 38.6216 48.878 39.867 47.3135 40.5556C45.4721 41.367 44.4923 42.7608 43.986 44.6757C43.4427 46.7298 42.7518 47.2359 40.5699 47.2877C38.7488 47.3309 37.3422 47.9502 36.145 49.344C34.5237 51.231 33.837 51.3869 31.58 50.4073C29.905 49.6803 28.369 49.684 26.6934 50.4084C24.431 51.3864 23.7599 51.2252 22.1273 49.3418C20.9698 48.0067 19.6319 47.3453 17.8565 47.2967C15.4792 47.2316 14.8393 46.764 14.2407 44.5267C13.7559 42.7155 12.8265 41.3921 11.0908 40.6368C9.30949 39.8616 8.66202 38.4678 9.13447 36.6454C9.62839 34.7407 9.12588 33.1846 7.96087 31.6498C6.67882 29.9613 6.67989 29.0368 7.96301 27.3472C9.12856 25.8119 9.62732 24.2532 9.13339 22.3496C8.65934 20.5217 9.32183 19.1343 11.0946 18.3587C12.8298 17.5996 13.7575 16.2805 14.2401 14.4671C14.8285 12.2565 15.4588 11.7873 17.7035 11.7158C19.5133 11.6581 20.9317 11.0528 22.1316 9.65682C23.7529 7.77028 24.4482 7.61548 26.6977 8.59024C28.3716 9.3157 29.9103 9.3141 31.5837 8.5881C33.8284 7.61441 34.5247 7.76975 36.1488 9.66002C37.3487 11.057 38.7692 11.6592 40.5785 11.7158C42.7807 11.7852 43.4389 12.2523 43.9882 14.3256C44.4955 16.2415 45.4855 17.6135 47.3119 18.4532C48.5408 19.018 49.4637 19.8929 49.1045 22.1275ZM45.1865 29.4718C45.1693 20.6547 37.9156 13.5009 29.0336 13.5425C20.2423 13.5836 13.0842 20.7593 13.0891 29.5252C13.0939 38.2634 20.3009 45.4438 29.0873 45.4641C37.9494 45.4844 45.2042 38.2783 45.1865 29.4718Z" fill="white"/>
<path d="M23.1376 25.3481V33.9789H22.4343L18.149 29.727V33.8994H15.9365V25.2744H16.65L20.9198 29.5103V25.3481H23.1376Z" fill="white"/>
<path d="M27.3009 27.4659V28.6574H29.9477V30.5477H27.3009V31.7707H30.5163V33.8942H25.1143V25.3584H30.5163V27.4659H27.3009V27.4659Z" fill="white"/>
<path d="M31.6602 25.3589H34.0535L35.2062 29.2665L36.9118 25.3744H37.0772L38.7828 29.2558L39.9301 25.3584H42.3235L39.5425 33.9471H38.9326L36.9838 29.7267L35.0505 33.9471H34.446L31.6602 25.3589Z" fill="white"/>
<defs>
<filter id="filter0_d_6_95" x="0" y="0" width="61" height="61" filterUnits="userSpaceOnUse" color-interpolation-filters="sRGB">
<feFlood flood-opacity="0" result="BackgroundImageFix"/>
<feColorMatrix in="SourceAlpha" type="matrix" values="0 0 0 0 0 0 0 0 0 0 0 0 0 0 0 0 0 0 127 0" result="hardAlpha"/>
<feOffset dx="1" dy="1"/>
<feGaussianBlur stdDeviation="1"/>
<feComposite in2="hardAlpha" operator="out"/>
<feColorMatrix type="matrix" values="0 0 0 0 0 0 0 0 0 0 0 0 0 0 0 0 0 0 0.25 0"/>
<feBlend mode="normal" in2="BackgroundImageFix" result="effect1_dropShadow_6_95"/>
<feBlend mode="normal" in="SourceGraphic" in2="effect1_dropShadow_6_95" result="shape"/>
</filter>
</defs>
</svg>
