<svg width="19" height="17" viewBox="0 0 19 17" fill="none" xmlns="http://www.w3.org/2000/svg">
<path d="M10.5441 4.35095V15.1498C10.5441 15.9027 9.92984 16.5133 9.17247 16.5133C8.41509 16.5133 7.80078 15.9027 7.80078 15.1498V4.35095C7.8639 4.40532 8.34777 4.81101 8.79799 4.92812C8.99575 4.97831 9.16826 4.97831 9.16826 4.97831C9.16826 4.97831 9.34498 4.97831 9.53853 4.92812C9.99716 4.81101 10.481 4.40532 10.5441 4.35095Z" fill="white"/>
<path d="M11.1761 4.4546C12.1691 4.0029 13.4482 3.52611 14.9714 3.1957C16.2421 2.91967 17.3865 2.80674 18.3459 2.77747C18.3459 6.69217 18.3459 10.6027 18.3459 14.5174C17.4959 14.5048 16.4945 14.5508 15.3921 14.7265C13.6628 15.0025 12.2364 15.5086 11.1719 15.9854C11.1761 12.1418 11.1761 8.2982 11.1761 4.4546Z" fill="white"/>
<path d="M10.7549 3.82711C11.8068 3.14121 12.7577 2.67278 13.4982 2.3591C14.0831 2.11234 14.8952 1.76939 16.0312 1.51844C16.5404 1.40552 16.978 1.34697 17.2977 1.30933C17.5081 1.58955 17.7185 1.86976 17.9289 2.14998C17.9247 2.14998 15.2907 2.04542 10.7549 3.82711Z" fill="white"/>
<path d="M10.5449 3.40846C11.1634 2.99022 11.8661 2.55944 12.6529 2.14957C13.9531 1.47202 15.1775 1.00778 16.2378 0.681555C16.099 0.472436 15.9559 0.263318 15.8171 0.0541992C15.228 0.292594 14.6011 0.585361 13.9447 0.945045C12.5183 1.73133 11.3949 2.61381 10.5449 3.40846Z" fill="white"/>
<path d="M7.16978 4.4546C6.17679 4.0029 4.89767 3.52611 3.37451 3.1957C2.10381 2.91967 0.959337 2.80674 0 2.77747C0 6.69217 0 10.6027 0 14.5174C0.849939 14.5048 1.85135 14.5508 2.95375 14.7265C4.68308 15.0025 6.10946 15.5086 7.17399 15.9854C7.16978 12.1418 7.16978 8.2982 7.16978 4.4546Z" fill="white"/>
<path d="M7.59098 3.82711C6.53908 3.14121 5.58816 2.67278 4.84762 2.3591C4.26276 2.11234 3.45069 1.76939 2.31463 1.51844C1.80551 1.40552 1.36791 1.34697 1.04814 1.30933C0.837754 1.58955 0.627373 1.86976 0.416992 2.14998C0.4212 2.14998 3.05517 2.04542 7.59098 3.82711Z" fill="white"/>
<path d="M7.80082 3.40846C7.1823 2.99022 6.47963 2.55944 5.6928 2.14957C4.39265 1.47202 3.16823 1.00778 2.10791 0.681555C2.24676 0.472436 2.38982 0.263318 2.52867 0.0541992C3.11774 0.292594 3.74467 0.585361 4.40106 0.945045C5.82745 1.73133 6.95088 2.61381 7.80082 3.40846Z" fill="white"/>
</svg>
