<svg width="32" height="30" viewBox="0 0 32 30" fill="none" xmlns="http://www.w3.org/2000/svg">
<path d="M0 20.5592C0 20.2888 0 20.0175 0 19.7471C0.0200308 19.6887 0.0467413 19.632 0.0600952 19.5727C0.3013 18.5386 0.922257 17.8417 1.91796 17.4761C2.05066 17.4277 2.18336 17.3768 2.32024 17.3251C1.3621 13.0677 2.11743 9.15749 4.70809 5.68214C7.30458 2.20011 10.8367 0.292175 15.175 0.0292699C19.0769 -0.207762 22.5531 0.994089 25.4158 3.66236C29.4111 7.38643 30.7615 11.996 29.6623 17.3426C29.77 17.3776 29.8677 17.4102 29.9661 17.4419C31.5761 17.9619 32.3765 19.5568 31.7923 21.1526C30.936 23.4946 30.0646 25.8323 29.1758 28.1626C28.6024 29.6657 27.0717 30.3551 25.5569 29.8201C24.4201 29.4187 23.2892 29.0005 22.1583 28.5849C21.5282 28.3529 21.3086 27.8797 21.5365 27.2478C21.9279 26.1628 22.3252 25.0795 22.7191 23.9953C22.8953 23.5096 23.0697 23.023 23.2575 22.4989C22.7525 22.4989 22.2868 22.4797 21.8228 22.5039C21.2611 22.5331 20.8955 22.3036 20.6693 21.7911C20.4865 21.3771 20.2654 20.9807 20.035 20.5258C19.9891 20.6777 19.9591 20.7629 19.9374 20.8497C19.5593 22.362 19.182 23.8752 18.8048 25.3875C18.6604 25.9667 18.319 26.2647 17.8199 26.2471C17.3359 26.2304 17.0154 25.9183 16.9169 25.3424C16.6874 23.9995 16.4662 22.6558 16.2408 21.312C16.1649 20.8597 16.0848 20.4081 16.0071 19.9566C15.6499 21.7594 15.3511 23.5538 15.0532 25.3491C14.9622 25.8958 14.6242 26.2296 14.1376 26.2471C13.6427 26.2655 13.3172 26.0001 13.177 25.4501C12.9257 24.4627 12.6804 23.4745 12.4325 22.4863C12.2739 21.8554 12.1153 21.2252 11.935 20.5083C11.6772 21.0216 11.4568 21.4523 11.2448 21.8863C11.0412 22.3027 10.7215 22.5114 10.2508 22.5005C9.75335 22.4897 9.25508 22.498 8.71342 22.498C8.76349 22.6483 8.79855 22.7651 8.84028 22.8786C9.37277 24.3434 9.90859 25.8073 10.4369 27.2737C10.6481 27.8605 10.4352 28.3487 9.86352 28.5615C8.69505 28.9972 7.53076 29.4471 6.34394 29.8277C5.91411 29.9654 5.41334 30.0121 4.96681 29.947C3.86679 29.7859 3.13149 29.1191 2.74923 28.0766C1.83032 25.5719 0.915576 23.0647 0 20.5592ZM8.01985 20.6235C8.52897 20.6235 9.00804 20.611 9.48627 20.6293C9.70495 20.6377 9.81511 20.5626 9.91026 20.3681C10.3843 19.3966 10.8709 18.4309 11.3583 17.4661C11.5712 17.0438 11.9292 16.8343 12.3323 16.8794C12.7396 16.9253 13.0384 17.2032 13.1603 17.6606C13.2354 17.9419 13.2996 18.2256 13.3706 18.5077C13.5417 19.1904 13.7136 19.8732 13.8856 20.5559C13.9573 20.4599 13.9782 20.3706 13.9932 20.2796C14.3454 18.1772 14.6951 16.0748 15.0498 13.9724C15.1391 13.4458 15.4955 13.1286 15.9729 13.1244C16.4578 13.1211 16.8326 13.4558 16.9211 13.9866C17.1781 15.5248 17.4302 17.0647 17.6856 18.6029C17.7932 19.2497 17.9051 19.8957 18.0152 20.5417C18.0862 20.4858 18.107 20.4307 18.1212 20.3739C18.3499 19.4667 18.5786 18.5603 18.804 17.6522C18.8874 17.3176 19.0685 17.0672 19.3957 16.9386C19.8731 16.7525 20.3488 16.9562 20.6084 17.4695C21.0958 18.4343 21.5799 19.4008 22.0548 20.3723C22.1433 20.5525 22.2359 20.6393 22.4521 20.6277C22.8569 20.6068 23.265 20.6068 23.6698 20.6277C23.8901 20.6393 23.9761 20.5534 24.0454 20.3581C24.4527 19.213 24.8725 18.0712 25.2889 16.9295C25.5443 16.2292 26.0092 16.0139 26.7136 16.2684C27.0842 16.4028 27.4548 16.5389 27.8262 16.6749C28.8436 12.9366 27.5783 8.14093 24.2515 5.16134C23.6406 5.79314 23.0313 6.43246 22.4112 7.06176C21.8662 7.61345 21.5098 7.63682 20.8813 7.18696C18.0294 5.14632 13.9882 5.13463 11.1221 7.15858C10.4311 7.64683 10.1047 7.62513 9.51716 7.03255C8.90371 6.4141 8.29778 5.7873 7.69017 5.16635C3.99866 8.54739 3.22079 13.5134 4.14805 16.6699C4.50861 16.5397 4.86917 16.4103 5.22972 16.2793C5.97253 16.0105 6.41238 16.2184 6.68613 16.9687C7.13015 18.1814 7.57083 19.3916 8.01985 20.6235Z" fill="#4465EA"/>
</svg>
