<svg width="24" height="35" viewBox="0 0 24 35" fill="none" xmlns="http://www.w3.org/2000/svg">
<path d="M5.94187 12.2768C4.46317 13.9222 2.60575 15.5766 1.34344 18.0043C0.531962 19.5688 0 21.4571 0 23.7768C0 23.9836 0.00904287 24.1725 0.0270758 24.3433L0.036046 24.4152C0.0450625 24.4602 0.0541053 24.5051 0.0631218 24.5501C0.0541053 24.631 0.0541141 24.712 0.072147 24.7929C0.513953 27.5712 1.99265 29.9989 4.07545 31.7432C6.15826 33.4786 8.85418 34.5395 11.7485 34.5395C18.3485 34.5395 23.7042 29.2076 23.7042 22.6169C23.7042 18.6877 21.7838 15.19 18.8444 13.0231L18.8354 13.0141C18.8264 13.0051 18.8173 13.0051 18.8083 12.9962C18.4837 12.7354 18.1411 12.4836 17.7624 12.2499C17.537 12.106 17.2665 12.079 17.0231 12.133C16.1485 9.84015 15.0305 7.64626 13.7772 5.74008C12.4968 3.79794 11.0902 2.14348 9.62054 0.983589C9.27792 0.713847 8.79108 0.695884 8.43042 0.947644C8.06976 1.1994 7.90741 1.64897 8.04266 2.07157C8.53857 3.64507 8.74597 4.94882 8.74597 6.06376C8.74597 7.43944 8.43941 8.52742 7.95252 9.50748C7.4476 10.4875 6.75335 11.3777 5.94187 12.2768ZM9.73776 10.3976C10.3599 9.1658 10.7476 7.73615 10.7476 6.05476C10.7476 5.67712 10.7206 5.2905 10.6845 4.88588C11.1624 5.47932 11.6402 6.12668 12.1001 6.828C13.2902 8.63528 14.3722 10.7573 15.2017 12.9602C15.9681 14.9922 16.5182 17.0872 16.7436 19.0743C16.7977 19.5419 17.1673 19.9015 17.6362 19.9555C18.105 20.0005 18.5378 19.7217 18.6911 19.2811C18.9977 18.364 19.1329 17.4559 19.1329 16.5927C19.1329 16.3769 19.1239 16.1611 19.1059 15.9453C20.7198 17.7076 21.7026 20.0454 21.7026 22.6259C21.7026 25.3683 20.5936 27.8409 18.7903 29.6392C16.987 31.4375 14.5075 32.5435 11.7574 32.5435C9.35004 32.5435 7.10498 31.6713 5.3648 30.2147C4.09348 29.1447 3.10164 27.778 2.51557 26.2315C2.54262 26.0517 2.53361 25.8718 2.46147 25.692C2.26311 25.1975 2.11887 24.676 2.0287 24.1365C2.01969 24.0106 2.01065 23.8937 2.01065 23.7678C2.01065 21.7448 2.4525 20.2252 3.12874 18.9125C4.16563 16.8804 5.84265 15.3519 7.42955 13.6076C8.28611 12.6545 9.11562 11.6294 9.73776 10.3976Z" fill="#E3423A"/>
<path d="M10.868 14.5147C9.4795 17.5268 5.32295 22.0315 6.23361 27.3005C6.26968 27.4084 6.3057 27.5252 6.35078 27.6331C6.76553 30.1238 8.92949 32.03 11.5443 32.03C13.1943 32.03 14.655 31.2747 15.6287 30.0968H15.6648C15.7459 29.9799 15.8271 29.854 15.8992 29.7372L15.9533 29.6472C15.9894 29.5933 16.0254 29.5393 16.0525 29.4854C16.1246 29.3685 16.1878 29.2426 16.2509 29.1167C19.1902 23.5421 14.673 17.7696 11.2918 12.7344C11.1746 13.3728 11.0303 13.9662 10.868 14.5147Z" fill="#E3423A"/>
</svg>
