<svg width="16" height="23" viewBox="0 0 16 23" fill="none" xmlns="http://www.w3.org/2000/svg">
<path d="M3.53111 19.406C4.67812 20.3601 6.15795 20.941 7.74474 20.941C9.55737 20.941 11.1917 20.212 12.3803 19.0267C13.5689 17.8414 14.2999 16.2116 14.2999 14.404C14.2999 12.709 13.6521 11.1622 12.5883 10.0006C12.6002 10.1428 12.6061 10.2851 12.6061 10.4273C12.6061 11.0022 12.517 11.6007 12.3149 12.1993C12.2199 12.4897 11.9286 12.6794 11.6196 12.6438C11.3105 12.6142 11.0669 12.3712 11.0312 12.063C10.8767 10.7532 10.5142 9.36643 10.015 8.03295C9.46823 6.58095 8.75506 5.18821 7.97058 3.99105C7.66749 3.52878 7.3525 3.10209 7.03752 2.71094C7.06129 2.97763 7.07912 3.23247 7.07912 3.48138C7.07912 4.58964 6.82354 5.53197 6.41347 6.34391C6.0034 7.15584 5.46258 7.83147 4.89205 8.45968C3.84608 9.60943 2.74069 10.6228 2.05724 11.9563C1.61152 12.8216 1.32031 13.8232 1.32031 15.1567C1.32031 15.2337 1.32623 15.3167 1.33217 15.3996C1.3916 15.7552 1.48672 16.099 1.61746 16.4249C1.66501 16.5435 1.67689 16.662 1.65312 16.7805C2.03942 17.7999 2.69314 18.7066 3.53111 19.406ZM7.1623 9.05827C7.26927 8.69675 7.36439 8.30557 7.44759 7.87886C9.67623 11.2036 12.6537 15.0026 10.7163 18.677C10.6747 18.76 10.633 18.843 10.5855 18.92C10.5617 18.9556 10.5439 18.9911 10.5201 19.0267L10.4845 19.086C10.431 19.1689 10.3834 19.246 10.33 19.323H10.3062C9.67029 20.0994 8.70155 20.5972 7.61398 20.5972C5.89049 20.5972 4.46416 19.3408 4.19078 17.6991C4.16106 17.628 4.13729 17.5569 4.11351 17.4799C3.51327 14.0128 6.25301 11.0437 7.1623 9.05827Z" fill="white"/>
<path d="M3.91648 7.58482C2.94182 8.66938 1.71753 9.75986 0.885508 11.36C0.350634 12.3912 0 13.6358 0 15.1649C0 15.3012 0.00596046 15.4257 0.0178465 15.5383L0.0237591 15.5856C0.0297022 15.6153 0.0356626 15.6449 0.0416057 15.6746C0.0356626 15.7279 0.0356684 15.7812 0.0475545 15.8346C0.338764 17.6659 1.31342 19.266 2.68627 20.4158C4.05911 21.5596 5.83609 22.2589 7.7438 22.2589C12.0941 22.2589 15.6242 18.7445 15.6242 14.4003C15.6242 11.8104 14.3584 9.50503 12.421 8.07673L12.415 8.0708C12.4091 8.06487 12.4031 8.0649 12.3972 8.05897C12.1832 7.8871 11.9574 7.72115 11.7078 7.56706C11.5592 7.47223 11.3809 7.45445 11.2205 7.49001C10.644 5.97874 9.90707 4.53268 9.08099 3.27625C8.23708 1.99612 7.30993 0.905616 6.34122 0.141093C6.11538 -0.0367032 5.79449 -0.0485433 5.55677 0.1174C5.31905 0.283343 5.21204 0.57967 5.30119 0.858217C5.62805 1.89536 5.76476 2.75471 5.76476 3.4896C5.76476 4.39636 5.56269 5.11348 5.24177 5.75947C4.90896 6.40547 4.45136 6.99217 3.91648 7.58482ZM6.41848 6.34619C6.82855 5.53426 7.0841 4.59193 7.0841 3.48367C7.0841 3.23475 7.0663 2.97992 7.04253 2.71322C7.35751 3.10438 7.67246 3.53107 7.97555 3.99334C8.76004 5.18457 9.4732 6.58324 10.02 8.03524C10.5251 9.37464 10.8877 10.7555 11.0362 12.0653C11.0719 12.3735 11.3156 12.6105 11.6246 12.6461C11.9336 12.6757 12.2189 12.492 12.3199 12.2016C12.522 11.5971 12.6112 10.9985 12.6112 10.4296C12.6112 10.2873 12.6052 10.1451 12.5933 10.0029C13.6571 11.1645 14.3049 12.7054 14.3049 14.4063C14.3049 16.2139 13.5739 17.8437 12.3853 19.029C11.1967 20.2143 9.56234 20.9433 7.74972 20.9433C6.16292 20.9433 4.68313 20.3684 3.53612 19.4083C2.69815 18.703 2.04439 17.8022 1.6581 16.7828C1.67593 16.6643 1.66998 16.5458 1.62244 16.4272C1.49169 16.1013 1.39662 15.7575 1.33719 15.4019C1.33124 15.3189 1.32529 15.2419 1.32529 15.1589C1.32529 13.8255 1.61653 12.8239 2.06226 11.9586C2.74571 10.6192 3.85109 9.61172 4.89706 8.46197C5.46165 7.83376 6.00841 7.15813 6.41848 6.34619Z" fill="#E3423A"/>
<path d="M7.16324 9.0602C6.24801 11.0456 3.5083 14.0148 4.10855 17.4877C4.13232 17.5588 4.15606 17.6359 4.18577 17.707C4.45915 19.3486 5.88549 20.6051 7.60897 20.6051C8.69655 20.6051 9.65934 20.1072 10.3012 19.3309H10.3249C10.3784 19.2538 10.4319 19.1709 10.4795 19.0938L10.5151 19.0345C10.5389 18.999 10.5627 18.9634 10.5805 18.9279C10.628 18.8508 10.6697 18.7679 10.7113 18.6849C12.6487 15.0104 9.67123 11.2056 7.44258 7.88672C7.36533 8.3075 7.27022 8.69868 7.16324 9.0602Z" fill="#E3423A"/>
</svg>
