<svg width="33" height="32" viewBox="0 0 33 32" fill="none" xmlns="http://www.w3.org/2000/svg">
<rect x="0.410553" width="32.1642" height="32" rx="16" fill="white"/>
<path d="M16.3439 6.00781C10.8256 6.00781 6.36794 10.2119 6.36794 15.3888C6.36794 18.0761 7.57765 20.4997 9.49993 22.1978L9.30107 25.7095L12.5656 24.0608C13.7422 24.506 15.0182 24.7698 16.3605 24.7698C21.8787 24.7698 26.3364 20.5656 26.3364 15.3888C26.3364 10.2119 21.8622 6.00781 16.3439 6.00781Z" fill="#01A358"/>
<path fill-rule="evenodd" clip-rule="evenodd" d="M21.296 18.9947C21.0887 19.5689 20.0728 20.1221 19.6172 20.1624C19.1609 20.2033 19.1609 20.5317 16.6323 19.5487C14.103 18.5651 12.508 16.0041 12.3831 15.8403C12.2589 15.6772 11.3687 14.5088 11.3687 13.3002C11.3687 12.0924 12.0106 11.4981 12.2387 11.2524C12.4662 11.0066 12.9644 10.9456 12.9644 10.9456C12.9644 10.9456 13.233 10.9024 13.3781 10.9024C13.5239 10.9024 13.7312 10.8838 13.9377 11.3752C14.1449 11.8675 14.6424 13.0761 14.7045 13.1982C14.7673 13.3211 14.8085 13.4641 14.7254 13.6279C14.6424 13.7924 14.6012 13.8952 14.477 14.0389C14.3521 14.1819 14.2157 14.3579 14.103 14.4686C13.9803 14.5915 13.8503 14.7244 13.9947 14.9694C14.1406 15.2152 14.6395 16.0185 15.3789 16.6702C16.3283 17.5059 17.1298 17.7667 17.3789 17.8889C17.628 18.0118 17.7724 17.9916 17.9175 17.8278C18.0627 17.6633 18.5399 17.11 18.706 16.8642C18.8706 16.6192 19.0374 16.6602 19.2656 16.7421C19.493 16.8233 20.7162 17.4182 20.9653 17.5404C21.2129 17.6633 21.379 17.7251 21.4418 17.8278C21.5039 17.9291 21.5039 18.4213 21.296 18.9947Z" fill="white"/>
<path d="M16.3293 30.1098C8.40816 30.1098 1.97848 23.6964 1.97848 15.8322C1.97848 7.96804 8.42474 1.55469 16.3293 1.55469C24.2338 1.55469 30.6801 7.96804 30.6801 15.8322C30.6801 23.6964 24.2504 30.1098 16.3293 30.1098ZM16.3293 1.93388C8.62359 1.93388 2.35962 8.16588 2.35962 15.8322C2.35962 23.4986 8.62359 29.7306 16.3293 29.7306C24.035 29.7306 30.2989 23.4986 30.2989 15.8322C30.2989 8.16588 24.035 1.93388 16.3293 1.93388Z" fill="#01A358"/>
</svg>
