<svg width="13" height="14" viewBox="0 0 13 14" fill="none" xmlns="http://www.w3.org/2000/svg">
<path d="M10.9537 9.35119L5.38984 13.431C4.95527 13.7492 4.44107 13.9409 3.90424 13.9848C3.36741 14.0287 2.82891 13.923 2.34845 13.6796C1.86798 13.4361 1.4643 13.0644 1.18216 12.6056C0.900023 12.1468 0.750444 11.6188 0.750004 11.0802V2.91644C0.749166 2.37729 0.897963 1.84849 1.17983 1.38889C1.4617 0.929296 1.86559 0.556935 2.34652 0.313261C2.82746 0.0695858 3.36659 -0.0358429 3.9039 0.00870991C4.4412 0.0532627 4.9556 0.246048 5.38984 0.565607L10.9537 4.64544C11.3229 4.91637 11.6231 5.27042 11.83 5.67893C12.0369 6.08744 12.1447 6.53893 12.1447 6.99686C12.1447 7.45478 12.0369 7.90628 11.83 8.31479C11.6231 8.7233 11.3229 9.07735 10.9537 9.34828V9.35119Z" fill="white"/>
</svg>
