<svg width="17" height="20" viewBox="0 0 17 20" fill="none" xmlns="http://www.w3.org/2000/svg">
<path d="M0.421875 10.2825C1.34928 10.2825 2.19605 10.2825 3.04281 10.2825C3.00249 10.847 3.16378 11.3309 3.567 11.6938C3.88957 11.976 4.25247 12.097 4.65569 12.097C5.62342 12.097 6.18793 11.4518 6.3089 10.2422C6.34922 10.2422 6.38954 10.2422 6.42986 10.2422C6.91373 10.2422 7.39759 10.2422 7.92178 10.2422C7.92178 10.3228 7.92178 10.4035 7.92178 10.4841C7.92178 11.1293 7.92178 11.8147 7.92178 12.4599C7.92178 12.9841 8.24436 13.1857 8.72822 12.9034C9.0508 12.7422 9.4137 12.7825 9.61531 13.0647C9.81692 13.3067 9.81692 13.7099 9.61531 13.9518C9.37337 14.2341 9.01048 14.2744 8.6879 14.0728C8.24436 13.8309 7.92178 13.9921 7.92178 14.5566C7.92178 16.2905 7.92178 17.984 7.92178 19.7179C7.92178 19.7985 7.92178 19.9195 7.92178 20.0001C5.62342 20.0001 3.32506 20.0001 1.02671 20.0001C1.22832 19.1937 1.42993 18.4276 1.63154 17.6211C1.83315 16.8147 1.99444 15.9679 1.95411 15.1212C1.91379 13.9115 1.63154 12.7825 1.10735 11.6938C0.865418 11.2906 0.663807 10.8067 0.421875 10.2825Z" fill="#FF9F00"/>
<path d="M7.88297 0C7.88297 1.49192 7.88297 2.98383 7.88297 4.43543C7.27813 4.39511 6.79427 4.55639 6.39105 5.04026C6.10879 5.36283 6.02815 5.76606 6.02815 6.16928C6.06847 7.05636 6.71362 7.62087 7.88297 7.70152C7.88297 8.2257 7.88297 8.74989 7.88297 9.3144C7.80232 9.3144 7.72168 9.3144 7.64103 9.3144C6.99588 9.3144 6.3104 9.3144 5.66525 9.3144C5.14106 9.3144 4.93945 9.63698 5.18139 10.1208C5.383 10.4434 5.30235 10.8063 5.06042 11.0482C4.81849 11.2499 4.41527 11.2499 4.17333 11.0482C3.89108 10.8063 3.81044 10.4434 4.05237 10.1612C4.2943 9.79826 4.09269 9.35472 3.5685 9.35472C2.52013 9.39504 1.47176 9.35472 0.38306 9.35472C0.221772 9.35472 0.141127 9.3144 0.100805 9.11279C-0.302416 6.37089 0.504026 3.99189 2.52013 2.05643C3.77011 0.887086 5.30235 0.201611 6.99588 0.040323C7.35878 0.040323 7.60071 0.0403221 7.88297 0Z" fill="#FF9F00"/>
<path d="M13.7315 9.35485C13.7315 8.26615 13.1267 7.54036 12.2396 7.50003C11.1912 7.45971 10.5461 8.10486 10.4654 9.35485C9.94124 9.35485 9.41706 9.35485 8.85255 9.35485C8.85255 9.2742 8.85255 9.19356 8.85255 9.11292C8.85255 8.46776 8.85255 7.82261 8.85255 7.17746C8.85255 6.61295 8.52997 6.41134 8.04611 6.69359C7.72353 6.85488 7.36063 6.81456 7.15902 6.5323C6.95741 6.29037 6.95741 5.88715 7.15902 5.64522C7.36063 5.36296 7.76385 5.28232 8.04611 5.52425C8.409 5.80651 8.85255 5.56457 8.85255 5.08071C8.85255 3.54847 8.85255 1.97591 8.85255 0.443672C8.85255 0.363027 8.85255 0.282382 8.85255 0.121094C9.21545 0.201738 9.53802 0.24206 9.8606 0.322704C12.9654 1.20979 14.9009 3.26622 15.5863 6.45166C15.7879 7.37907 15.7879 8.30648 15.5863 9.23388C15.5863 9.27421 15.5057 9.39517 15.4654 9.39517C14.8605 9.35485 14.296 9.35485 13.7315 9.35485Z" fill="#FF9F00"/>
<path d="M9.33795 17.1382C9.17666 18.0657 9.01537 18.9931 8.85408 19.9205H8.81376C8.81376 18.3479 8.81376 16.7753 8.81376 15.1625C9.37827 15.2028 9.86213 15.0415 10.225 14.6383C10.5073 14.3157 10.6686 13.9528 10.6283 13.5093C10.6283 12.5415 9.9831 11.977 8.77344 11.8964C8.77344 11.3722 8.77344 10.848 8.77344 10.2835C8.85408 10.2835 8.93473 10.2835 9.01537 10.2835C9.66052 10.2835 10.3057 10.2835 10.9912 10.2835C11.5153 10.2835 11.7169 9.96092 11.475 9.47705C11.2734 9.15448 11.3541 8.79158 11.596 8.54965C11.8379 8.34803 12.2411 8.34803 12.4831 8.54965C12.7653 8.75126 12.846 9.15448 12.604 9.43673C12.3621 9.79963 12.5637 10.2432 13.0879 10.2432C13.9347 10.2029 14.7814 10.2432 15.6282 10.2432C15.7895 10.2432 15.8701 10.2835 15.9508 10.4045C16.1927 10.8077 16.475 11.2109 16.7572 11.6141C16.9991 11.977 16.9185 12.2593 16.475 12.4609C16.0314 12.6625 15.5879 12.8238 15.104 12.9851C14.7411 13.1464 14.6605 13.227 14.6605 13.6705C14.6605 14.3963 14.6605 15.1221 14.6605 15.8479C14.6605 16.735 14.096 17.4205 13.2895 17.5011C12.8863 17.5415 12.4831 17.4608 12.0395 17.4205C11.1928 17.3399 10.3057 17.2189 9.45891 17.0979C9.45891 17.1382 9.41859 17.1382 9.33795 17.1382Z" fill="#FF9F00"/>
</svg>
