<svg width="24" height="24" viewBox="0 0 24 24" fill="none" xmlns="http://www.w3.org/2000/svg">
<path d="M12 0C5.92545 0 1 4.92545 1 11C1 17.0746 5.92545 22 12 22C18.0746 22 23 17.0746 23 11C23 4.92545 18.0746 0 12 0ZM12 17.3839C11.4574 17.3839 11.0179 16.9444 11.0179 16.4018C11.0179 15.8592 11.4574 15.4196 12 15.4196C12.5426 15.4196 12.9821 15.8592 12.9821 16.4018C12.9821 16.9444 12.5426 17.3839 12 17.3839ZM13.5444 11.9944C13.3221 12.0803 13.1307 12.2312 12.9954 12.4274C12.8601 12.6236 12.787 12.8561 12.7857 13.0944V13.6518C12.7857 13.7598 12.6973 13.8482 12.5893 13.8482H11.4107C11.3027 13.8482 11.2143 13.7598 11.2143 13.6518V13.1239C11.2143 12.5567 11.3788 11.9969 11.7029 11.5304C12.0196 11.0737 12.4616 10.725 12.9821 10.5261C13.817 10.2045 14.3571 9.50469 14.3571 8.74107C14.3571 7.65826 13.2989 6.77679 12 6.77679C10.7011 6.77679 9.64286 7.65826 9.64286 8.74107V8.92768C9.64286 9.03571 9.55446 9.12411 9.44643 9.12411H8.26786C8.15982 9.12411 8.07143 9.03571 8.07143 8.92768V8.74107C8.07143 7.77612 8.49375 6.875 9.25982 6.20469C9.99643 5.55893 10.9688 5.20536 12 5.20536C13.0312 5.20536 14.0036 5.56138 14.7402 6.20469C15.5062 6.875 15.9286 7.77612 15.9286 8.74107C15.9286 10.1603 14.9931 11.4371 13.5444 11.9944Z" fill="#01A358"/>
</svg>
