<svg width="35" height="36" viewBox="0 0 35 36" fill="none" xmlns="http://www.w3.org/2000/svg">
<path d="M9.93823 34.8805C9.93823 35.3722 9.54628 35.7746 9.05973 35.7746H0.878491C0.396447 35.7746 0 35.3767 0 34.8805V1.7268C0 1.23504 0.391942 0.837158 0.878491 0.837158H9.05973C9.54178 0.837158 9.93823 1.23504 9.93823 1.7268V34.8805Z" fill="#61313E"/>
<path d="M9.93823 34.8805C9.93823 35.3722 9.54628 35.7746 9.05973 35.7746H0.878491C0.396447 35.7746 0 35.3767 0 34.8805V1.7268C0 1.23504 0.391942 0.837158 0.878491 0.837158H9.05973C9.54178 0.837158 9.93823 1.23504 9.93823 1.7268V34.8805Z" fill="#63A343"/>
<path d="M17.5022 34.9475C17.5022 35.4035 17.2048 35.7701 16.8354 35.7701H10.6094C10.24 35.7701 9.94263 35.399 9.94263 34.9475V4.3376C9.94263 3.8816 10.24 3.51501 10.6094 3.51501H16.8354C17.2048 3.51501 17.5022 3.88607 17.5022 4.3376V34.9475Z" fill="#22B1B6"/>
<path d="M25.0617 35.0503C25.0617 35.4482 24.7644 35.7746 24.395 35.7746H18.1689C17.7995 35.7746 17.5022 35.4527 17.5022 35.0503V8.17781C17.5022 7.77993 17.7995 7.45358 18.1689 7.45358H24.3995C24.7689 7.45358 25.0662 7.77546 25.0662 8.17781V35.0503H25.0617Z" fill="#EA5645"/>
<path d="M35 34.8805C35 35.3722 34.6081 35.7746 34.1215 35.7746H25.9403C25.4582 35.7746 25.0618 35.3767 25.0618 34.8805V1.7268C25.0618 1.23504 25.4537 0.837158 25.9403 0.837158H34.1215C34.6081 0.837158 35 1.23504 35 1.7268V34.8805Z" fill="#FFC23A"/>
<path d="M25.9403 0.895294C25.4582 0.895294 25.0618 1.29317 25.0618 1.78941V34.9431C25.0618 35.4348 25.4537 35.8372 25.9403 35.8372H27.7333V0.895294H25.9403Z" fill="#F9A431"/>
<path d="M35 31.3576H25.0618V32.5781H35V31.3576Z" fill="#4F823C"/>
<path d="M35 29.3146H25.0618V30.5396H35V29.3146Z" fill="#4F823C"/>
<path d="M35 27.2671H25.0618V28.492H35V27.2671Z" fill="#4F823C"/>
<path d="M32.2475 6.60421C32.2475 7.81573 31.2563 8.80372 30.031 8.80372C28.8101 8.80372 27.8145 7.8202 27.8145 6.60421C27.8145 5.38822 28.8056 4.40469 30.031 4.40469C31.2563 4.40469 32.2475 5.38822 32.2475 6.60421Z" fill="#22B1B6"/>
<path d="M17.9571 7.45358C17.7048 7.45358 17.4976 7.77546 17.4976 8.17781V35.0503C17.4976 35.4482 17.7048 35.7746 17.9571 35.7746H18.8986V7.45358H17.9571Z" fill="#D13431"/>
<path d="M25.0662 9.64413H17.5022V23.4447H25.0662V9.64413Z" fill="#63A343"/>
<path d="M18.8988 9.64413H17.5022V23.3956H18.8988V9.64413Z" fill="#4F823C"/>
<path d="M10.7129 3.46136C10.2849 3.46136 9.93799 3.83242 9.93799 4.28395V34.943C9.93799 35.399 10.2849 35.7701 10.7129 35.7701H12.3032V3.46136H10.7129Z" fill="#179998"/>
<path d="M17.502 10.7305H9.93799V17.566H17.502V10.7305Z" fill="#FFC23A"/>
<path d="M17.502 24.9781H9.93799V25.9348H17.502V24.9781Z" fill="#FFC23A"/>
<path d="M12.3032 10.7305H9.93799V17.566H12.3032V10.7305Z" fill="#F9A431"/>
<path d="M12.3032 24.9781H9.93799V25.9348H12.3032V24.9781Z" fill="#F9A431"/>
<path d="M0.878383 0.895294C0.396339 0.895294 0.00439453 1.29317 0.00439453 1.78494V34.8805C0.00439453 35.3722 0.396339 35.7701 0.878383 35.7701H2.67141V0.895294H0.878383Z" fill="#4F823C"/>
<path d="M9.93823 3.51053H0V13.0775H9.93823V3.51053Z" fill="#EA5645"/>
<path d="M9.93823 28.6619H0V29.9628H9.93823V28.6619Z" fill="#EA5645"/>
<path d="M9.93823 30.705H0V32.0059H9.93823V30.705Z" fill="#EA5645"/>
<path d="M2.67152 3.51053H0V13.0775H2.67152V3.51053Z" fill="#D13431"/>
<path d="M2.67152 28.6619H0V29.9226H2.67152V28.6619Z" fill="#D13431"/>
<path d="M2.67152 30.705H0V32.0059H2.67152V30.705Z" fill="#D13431"/>
<path d="M9.93823 6.4924H0V10.7305H9.93823V6.4924Z" fill="#FFC23A"/>
<path d="M2.67152 6.4924H0V10.7484H2.67152V6.4924Z" fill="#F9A431"/>
</svg>
