<svg width="35" height="36" viewBox="0 0 35 36" fill="none" xmlns="http://www.w3.org/2000/svg">
<path d="M21.584 17.3215C21.6496 19.0784 21.2778 20.7235 20.3374 22.2276C19.4942 23.5763 18.3619 24.592 16.9209 25.2627C16.8358 25.4255 16.6827 25.4984 16.5224 25.5616C14.4544 26.3781 12.3865 26.3781 10.3186 25.5616C10.1582 25.4984 10.0051 25.4255 9.9201 25.2627C7.87648 24.3028 6.50841 22.7258 5.72352 20.6336C5.32501 19.5717 5.21566 18.4539 5.25454 17.3215C5.16949 17.2243 5.14275 17.1077 5.14275 16.9837C5.13789 15.8198 5.12818 14.6558 5.14762 13.4943C5.14762 13.4335 5.16219 13.3752 5.18163 13.3169C5.24967 13.1517 5.40519 13.1444 5.54613 13.1274C7.0673 12.9257 8.07331 11.6985 8.0806 10.2235C8.08546 9.54557 8.63464 9.07415 9.37335 9.062C10.3915 9.04742 11.4121 9.05957 12.4303 9.05714C12.6854 9.05714 12.9406 9.05714 13.1957 9.05714C14.1118 9.05471 14.661 8.63918 14.9186 7.74738C14.9866 7.5141 15.0255 7.27354 15.0668 7.0354C15.1105 6.78268 15.2588 6.72436 15.4896 6.77539C16.0218 6.89203 16.4106 7.40961 16.43 8.05113C16.4567 8.92835 16.6512 9.75941 17.1007 10.5176C18.0265 12.0752 19.3946 12.9451 21.2001 13.1322C21.3629 13.1492 21.55 13.1176 21.6496 13.3072C21.7201 13.5186 21.6982 13.7373 21.6982 13.9536C21.7006 14.894 21.7006 15.8319 21.6982 16.7723C21.7006 16.9594 21.7225 17.1587 21.584 17.3215Z" fill="#F3D3BD"/>
<path d="M21.5819 13.2488C19.39 13.1492 17.7838 12.1408 16.8118 10.1652C16.4813 9.49452 16.3453 8.76796 16.3355 8.01952C16.3282 7.44848 16.0099 7.03781 15.4972 6.87257C15.2736 6.79967 15.1813 6.82154 15.1521 7.09127C15.0914 7.65989 14.9529 8.21392 14.5519 8.65861C14.2409 9.0061 13.8521 9.15918 13.388 9.15675C12.0904 9.15432 10.7928 9.15432 9.49271 9.15675C8.61306 9.15675 8.1951 9.56013 8.16837 10.4276C8.1222 11.9731 6.93636 13.1249 5.25725 13.2488C4.78097 13.3922 4.33871 13.3266 3.93534 13.0277C2.50651 12.4761 1.51751 11.4774 1.27208 9.96108C0.897862 7.66232 1.41302 5.53851 2.93176 3.7306C4.46508 1.90569 6.4528 1.00417 8.83661 0.996876C10.8632 0.989586 12.8898 0.994446 14.9189 0.994446C15.7669 0.994446 16.0804 1.20828 16.321 2.01261C16.3841 2.22402 16.5129 2.15355 16.6271 2.16327C19.4605 2.35038 21.594 3.67229 22.9985 6.13629C23.6085 7.20791 23.9001 8.38159 23.9122 9.61602C23.9244 10.6828 23.8976 11.752 23.9268 12.8212C23.9365 13.1857 23.8247 13.2974 23.4845 13.2416C23.3898 13.227 23.2901 13.244 23.1929 13.2464C22.6559 13.4214 22.1189 13.4141 21.5819 13.2488Z" fill="#D5713A"/>
<path d="M34.9878 24.6066C34.9902 28.2953 34.9902 31.984 35 35.6703C35 35.9109 34.9222 35.9789 34.6865 35.9789C31.6782 35.9692 28.6674 35.9692 25.6591 35.9692C25.5692 35.8744 25.5546 35.7529 25.5546 35.629C25.5498 34.2707 25.54 32.9123 25.5595 31.5564C25.5595 31.5078 25.5716 31.4592 25.5838 31.4154C25.647 31.221 25.8146 31.2259 25.9726 31.221C26.252 31.2113 26.5315 31.2308 26.8085 31.2137C27.71 31.1651 28.4171 30.8006 28.8254 29.955C29.2142 29.1458 29.134 28.3707 28.6188 27.6538C28.1887 27.0536 27.5764 26.7717 26.8401 26.7426C26.5704 26.7304 26.286 26.7985 26.0333 26.6527C26.0576 26.502 26.1694 26.4971 26.2545 26.4704C27.0563 26.2177 27.5812 25.6953 27.8218 24.8885C27.8558 24.7743 27.8728 24.6261 28.0211 24.6163C28.1523 24.6066 28.1741 24.7524 28.2325 24.8375C28.733 25.5616 29.6176 25.5616 30.0987 24.8326C30.3198 24.4973 30.3417 24.4973 30.5531 24.8156C31.0585 25.5786 31.9528 25.5689 32.4558 24.7937C32.6405 24.507 32.6842 24.507 32.8713 24.7889C33.3937 25.581 34.271 25.581 34.7934 24.7913C34.8396 24.7135 34.859 24.5993 34.9878 24.6066Z" fill="#F3D3BD"/>
<path d="M29.7465 13.764C29.7465 13.0958 29.7343 12.4518 29.7513 11.8103C29.7586 11.5503 29.6663 11.4798 29.416 11.4823C28.4683 11.4944 27.523 11.4798 26.5753 11.492C26.325 11.4944 26.24 11.424 26.24 11.1664C26.2473 7.88833 26.2473 4.61272 26.24 1.33467C26.24 1.06008 26.3226 0.987183 26.5923 0.987183C29.275 0.996903 31.9577 0.996903 34.6404 0.987183C34.9029 0.987183 35.0001 1.0455 34.9976 1.32738C34.9879 4.60543 34.9904 7.88104 34.9952 11.1591C34.9952 11.4118 34.9223 11.5284 34.6672 11.4847C33.6247 11.3146 32.7742 11.6937 31.965 12.323C31.2968 12.8431 30.5605 13.2707 29.8534 13.7373C29.8388 13.7543 29.8121 13.7519 29.7465 13.764Z" fill="#DAD7D4"/>
<path d="M34.9879 24.6065C34.6307 25.355 34.0573 25.6563 33.4328 25.406C33.0731 25.2626 32.8131 25.005 32.6697 24.5749C32.417 25.163 32.0452 25.5129 31.4353 25.4765C30.9007 25.4424 30.5557 25.1265 30.337 24.5919C30.1037 25.1168 29.7683 25.474 29.1924 25.4765C28.6165 25.4789 28.252 25.1606 27.9945 24.5798C27.7733 25.683 27.1561 26.3488 26.1185 26.6477C26.3226 26.6477 26.5292 26.6477 26.7333 26.6477C26.952 26.6477 27.1634 26.6526 27.3797 26.7109C28.6457 27.0632 29.2556 28.0935 29.1536 29.204C29.0442 30.4045 28.0309 31.3011 26.8572 31.3108C26.4563 31.3133 26.0553 31.3133 25.6544 31.3133C25.5086 31.3181 25.4308 31.2574 25.4527 31.1019C25.4624 30.7762 25.2194 30.5624 25.0809 30.3097C24.5658 29.3766 24.0239 28.458 23.4893 27.5346C23.3848 27.3524 23.324 27.1677 23.3289 26.949C23.341 26.463 23.3313 25.977 23.3337 25.4935C23.3362 24.7985 23.8246 24.3174 24.5317 24.3149C24.9084 24.3125 25.285 24.3125 25.6617 24.3125C25.805 24.1934 25.9751 24.2031 26.1452 24.2031C26.6045 24.1983 27.0613 24.1959 27.5206 24.2031C27.7806 24.208 27.89 24.1011 27.8875 23.8386C27.8827 23.2846 27.8802 22.7281 27.89 22.1741C27.8924 21.9724 27.8778 21.7562 28.0722 21.6152C28.201 21.1754 28.5145 20.9105 28.9421 20.8303C29.5934 20.7088 30.0211 21.0539 30.3272 21.6419C30.6115 21.1778 30.9177 20.8133 31.4936 20.8109C32.0744 20.8085 32.3854 21.1632 32.6649 21.6371C32.801 21.4475 32.8884 21.2629 33.0391 21.1244C33.3987 20.7963 33.8143 20.7113 34.2492 20.8911C34.7012 21.0806 34.9977 21.4232 34.9977 21.9506C34.9952 22.8351 34.9904 23.722 34.9879 24.6065Z" fill="#ECC2AD"/>
<path d="M11.6747 35.9619C11.0307 35.9667 10.3892 35.9765 9.74527 35.9765C6.62274 35.9789 3.50265 35.9716 0.380124 35.9838C0.0812365 35.9838 -0.0111096 35.9181 0.00104027 35.6095C0.03506 34.7882 -0.0645645 33.9547 0.188154 33.1504C0.72761 31.4227 1.88671 30.334 3.63143 29.8748C4.17089 29.7338 4.71764 29.6245 5.25952 29.503C5.47579 29.5783 5.60944 29.7581 5.76496 29.9088C6.12702 30.266 6.48181 30.6329 6.84873 30.9877C7.03827 31.1724 7.08444 31.3619 6.9921 31.6098C6.86817 31.9403 6.78555 32.2853 6.64947 32.6085C6.52311 32.9098 6.61302 33.0726 6.88518 33.2184C7.86689 33.7482 8.83646 34.2998 9.81574 34.8368C10.2726 35.0895 10.7221 35.352 11.1838 35.595C11.3126 35.663 11.4365 35.7456 11.5921 35.7262C11.6504 35.731 11.6893 35.7602 11.7111 35.8137C11.7257 35.872 11.7136 35.9206 11.6747 35.9619Z" fill="#454A6D"/>
<path d="M25.4529 31.102C25.5209 31.1724 25.5865 31.2429 25.6546 31.3134C25.657 32.8661 25.657 34.4165 25.6594 35.9692C22.1627 35.9668 18.6659 35.9644 15.1692 35.9595C15.1279 35.9182 15.1206 35.8696 15.1328 35.8137C15.1571 35.7602 15.1959 35.7311 15.2543 35.7311C15.3976 35.7578 15.5094 35.6849 15.6285 35.6193C17.0767 34.8271 18.508 34.0058 19.9636 33.2258C20.243 33.0751 20.3135 32.9026 20.192 32.6086C20.0559 32.2708 19.9563 31.9209 19.8421 31.5734C19.7959 31.4324 19.7376 31.2769 19.8542 31.1579C20.4131 30.5892 20.9161 29.9599 21.5795 29.5006C22.2113 29.6488 22.8479 29.7801 23.4749 29.9502C24.2355 30.1543 24.8818 30.5674 25.4529 31.102Z" fill="#454A6D"/>
<path d="M21.5818 29.5006C21.0885 30.0012 20.6073 30.5139 20.0995 30.9999C19.9002 31.1919 19.8249 31.3522 19.9439 31.6244C20.0922 31.967 20.1602 32.3461 20.3133 32.6863C20.4494 32.9852 20.34 33.1237 20.0946 33.2573C19.3826 33.6437 18.6731 34.0398 17.9659 34.4335C17.1519 34.8854 16.3403 35.3423 15.5238 35.7894C15.4266 35.8428 15.2881 35.9959 15.2322 35.7384C15.0986 35.5512 15.1933 35.3593 15.2346 35.1795C15.4509 34.2731 15.638 33.3594 15.8713 32.4579C16.1921 31.1967 16.4448 29.9161 16.7704 28.655C16.8044 28.5626 16.8336 28.4679 16.9186 28.4071C18.0291 28.6623 19.1421 28.9125 20.2526 29.1701C20.6972 29.2746 21.1395 29.3912 21.5818 29.5006Z" fill="#33385C"/>
<path d="M11.6091 35.7408C11.5872 35.8599 11.5532 35.9109 11.4171 35.8332C10.3309 35.2232 9.23983 34.623 8.1512 34.018C7.65548 33.7409 7.16705 33.4469 6.66162 33.1893C6.44292 33.0775 6.4332 32.9585 6.5061 32.7592C6.64461 32.385 6.73938 31.9938 6.89733 31.6293C7.01397 31.3571 6.94107 31.1967 6.74181 31.0048C6.23638 30.5188 5.75281 30.0061 5.25952 29.5055C6.80742 29.1143 8.35775 28.74 9.92022 28.412C10.0053 28.4727 10.0344 28.5675 10.0685 28.6598C10.4087 29.9769 10.6711 31.3134 11.0137 32.6304C11.213 33.4688 11.4001 34.3096 11.5945 35.1479C11.6431 35.3374 11.7476 35.5416 11.6091 35.7408Z" fill="#33385C"/>
<path d="M9.98821 28.6113C9.93232 28.5554 9.92261 28.4825 9.92261 28.4071C9.92261 27.3574 9.92261 26.3101 9.92261 25.2603C12.2554 26.3441 14.5882 26.3441 16.921 25.2603C16.921 26.3076 16.921 27.3574 16.921 28.4047C16.921 28.48 16.9112 28.5529 16.8553 28.6088C16.7557 28.6064 16.6609 28.6258 16.5735 28.6696C15.6063 29.1483 14.6368 29.6221 13.6794 30.1227C13.6162 30.1567 13.5652 30.2126 13.4995 30.2466C13.4485 30.2661 13.3975 30.2661 13.344 30.2466C12.4085 29.6805 11.4 29.2552 10.4329 28.7498C10.2944 28.6793 10.1535 28.6064 9.98821 28.6113Z" fill="#ECC2AD"/>
<path d="M28.0697 21.6128C27.9191 22.3443 28.026 23.0854 28.0017 23.8192C27.9847 24.3125 27.9992 24.315 27.5132 24.3125C26.896 24.3125 26.2764 24.3101 25.6592 24.3101C25.6616 21.6055 25.6616 18.901 25.6665 16.1964C25.6689 15.3046 26.4902 14.7481 27.2994 15.081C27.7392 15.2609 27.9968 15.674 27.9968 16.2158C27.9993 17.8901 27.9968 19.5644 27.9992 21.2386C28.0017 21.3625 27.9458 21.5059 28.0697 21.6128Z" fill="#F3D3BD"/>
<path d="M15.164 35.8477C15.1665 35.8841 15.1665 35.923 15.1689 35.9595C14.0049 35.9595 12.841 35.9595 11.677 35.9595C11.6794 35.9206 11.6794 35.8841 11.6819 35.8452C11.745 35.0968 12.0439 34.4067 12.231 33.6899C12.3428 33.2622 12.4157 32.8175 12.6368 32.4238C12.8725 32.2635 12.9843 32.4749 13.1131 32.5939C13.4387 32.8904 13.4509 32.8904 13.7911 32.6061C13.9053 32.5089 13.9879 32.3048 14.2042 32.4263C14.5104 33.0726 14.6294 33.7773 14.8335 34.4529C14.9696 34.9121 15.1543 35.3592 15.164 35.8477Z" fill="#D53322"/>
<path d="M3.93761 13.0277C4.36772 13.1565 4.80998 13.2294 5.25953 13.2488C5.25953 14.6072 5.25709 15.9656 5.25709 17.3215C4.19276 17.2729 3.34713 16.6581 3.03123 15.6958C2.72262 14.7579 3.04581 13.7689 3.87443 13.1128C3.90116 13.0909 3.91817 13.0569 3.93761 13.0277Z" fill="#ECC2AD"/>
<path d="M21.5818 13.2489C22.1188 13.2464 22.6558 13.2464 23.1929 13.244C23.5719 13.7252 23.8878 14.2355 23.9146 14.8721C23.9705 16.211 22.9693 17.2608 21.5842 17.3215C21.5842 15.9656 21.5842 14.6072 21.5818 13.2489Z" fill="#ECC2AD"/>
<path d="M13.1572 21.399C12.3748 21.3844 11.5121 20.9567 10.7953 20.1986C10.6738 20.0698 10.6616 19.9847 10.8099 19.8851C10.8487 19.8584 10.8828 19.8195 10.9192 19.7903C11.1063 19.6373 11.274 19.4015 11.4854 19.3505C11.726 19.2922 11.845 19.613 12.0321 19.7515C12.9798 20.4562 14.1802 20.3905 15.038 19.5303C15.2713 19.2971 15.4147 19.2873 15.6042 19.5279C15.6115 19.5376 15.6212 19.5449 15.6309 19.5522C16.2749 20.0868 16.2749 20.0868 15.6042 20.6117C14.9457 21.1341 14.2094 21.399 13.1572 21.399Z" fill="#E45648"/>
<path d="M11.0865 15.5573C11.0914 16.194 10.5762 16.7237 9.94199 16.7334C9.30776 16.7432 8.77074 16.2304 8.75616 15.5986C8.74158 14.945 9.26646 14.4055 9.91769 14.4055C10.5543 14.4031 11.0817 14.9231 11.0865 15.5573Z" fill="#304B68"/>
<path d="M16.9258 14.4056C17.56 14.408 18.0824 14.9329 18.0849 15.5671C18.0873 16.2013 17.5673 16.7286 16.9306 16.7359C16.2818 16.7408 15.7448 16.2037 15.7545 15.5549C15.7618 14.9158 16.2867 14.4007 16.9258 14.4056Z" fill="#304B68"/>
<path d="M30.6142 3.32488C31.4039 3.32488 32.1937 3.33217 32.9834 3.32002C33.1875 3.31759 33.2531 3.37591 33.2507 3.58489C33.2386 4.35033 33.241 5.11578 33.2507 5.88122C33.2531 6.06104 33.1924 6.13394 33.015 6.17525C32.4367 6.3089 31.8656 6.47413 31.2849 6.60049C31.0054 6.66124 30.8475 6.75844 30.9131 7.07191C30.969 7.33921 30.8596 7.4194 30.5826 7.41454C29.7491 7.39996 29.7491 7.41454 29.7491 6.58834C29.7491 5.78159 29.7491 5.78159 30.5218 5.59205C30.9568 5.48513 31.3893 5.36363 31.8292 5.27615C32.2374 5.19353 32.0527 4.88736 32.0746 4.67109C32.1013 4.38921 31.8632 4.50099 31.7368 4.49856C30.9835 4.48884 30.2302 4.49856 29.4769 4.48884C29.2607 4.48641 29.1173 4.51314 29.1635 4.77558C29.2048 5.01129 29.11 5.08176 28.8694 5.08176C27.9995 5.08176 27.9995 5.09147 27.9995 4.22154C27.9995 3.32731 27.9995 3.32731 28.9035 3.32731C29.4721 3.32488 30.0431 3.32488 30.6142 3.32488Z" fill="#304B68"/>
<path d="M29.7466 9.1373C29.7466 8.57355 29.7466 8.57355 30.4294 8.57355C30.913 8.57355 30.913 8.57355 30.913 9.30254C30.913 9.73994 30.913 9.73994 30.1743 9.73994C29.7466 9.73994 29.7466 9.73994 29.7466 9.1373Z" fill="#304B68"/>
<path d="M12.7026 32.4043C12.4061 33.4298 12.1121 34.4528 11.8132 35.4783C11.7768 35.6046 11.7233 35.7261 11.6771 35.8476C11.6528 35.8112 11.631 35.7771 11.6067 35.7407C11.3977 34.7979 11.1863 33.8575 10.9773 32.9146C10.9554 32.8199 10.9433 32.7251 10.9263 32.6303C11.2422 32.2026 11.5945 31.8114 12.0441 31.515C12.2287 31.6875 12.3988 31.8795 12.5762 32.0593C12.6661 32.1516 12.7852 32.2439 12.7026 32.4043Z" fill="#E9E7E4"/>
<path d="M15.1641 35.8477C14.7996 34.8223 14.5615 33.7579 14.2359 32.7179C14.2043 32.6134 14.1703 32.5089 14.1387 32.4044C14.0512 32.2295 14.1873 32.1347 14.2845 32.0424C14.4619 31.8698 14.6004 31.6463 14.8507 31.5612C15.0426 31.5636 15.135 31.7143 15.254 31.8261C15.4898 32.0448 15.6914 32.2975 15.9612 32.4773C15.7327 33.4688 15.5019 34.4626 15.2759 35.454C15.254 35.5464 15.2468 35.6436 15.2322 35.7384C15.2103 35.7772 15.186 35.8113 15.1641 35.8477Z" fill="#E9E7E4"/>
<path d="M15.9635 32.4773C15.8104 32.5745 15.7545 32.4311 15.6719 32.3582C15.3973 32.1128 15.1738 31.8115 14.8676 31.6001C14.3524 31.1967 13.8786 30.7496 13.4946 30.215C13.4995 30.0546 13.638 30.0376 13.7401 29.9866C14.6756 29.5152 15.6136 29.0437 16.554 28.582C16.6415 28.5383 16.78 28.356 16.8529 28.6112C16.5564 29.9015 16.2599 31.1894 15.9635 32.4773Z" fill="#F6F3EF"/>
<path d="M12.0197 31.5272C11.699 31.9379 11.3296 32.2999 10.9287 32.6304C10.569 31.3012 10.2799 29.9574 9.98828 28.6112C10.0102 28.514 10.0442 28.4533 10.1608 28.5116C11.2057 29.0389 12.2506 29.5613 13.2931 30.0911C13.3246 30.1081 13.3295 30.1737 13.349 30.2174C13.3611 30.2393 13.3757 30.2685 13.3635 30.2831C13.0185 30.7739 12.5811 31.1749 12.1169 31.5491C12.0878 31.5709 12.0465 31.5515 12.0197 31.5272Z" fill="#F6F3EF"/>
<path d="M12.0198 31.5272C12.462 31.0898 12.9067 30.6549 13.349 30.2175C13.3976 30.2175 13.4462 30.215 13.4972 30.215C13.954 30.6767 14.4109 31.1384 14.8702 31.6001C14.6442 31.882 14.321 32.0788 14.1412 32.4044C14.1314 32.4093 14.1193 32.4142 14.1096 32.4215C13.9006 32.6037 13.7305 32.8977 13.4681 32.9342C13.174 32.9755 13.0695 32.594 12.8411 32.4506C12.8022 32.4263 12.7512 32.419 12.7075 32.402C12.6078 32.159 12.3721 32.0351 12.2166 31.8431C12.134 31.7483 11.9882 31.6925 12.0198 31.5272Z" fill="#F3462D"/>
</svg>
