<svg width="22" height="22" viewBox="0 0 22 22" fill="none" xmlns="http://www.w3.org/2000/svg">
<path d="M11 17.75C12.335 17.75 13.6401 17.3541 14.7501 16.6124C15.8601 15.8707 16.7253 14.8165 17.2362 13.5831C17.7471 12.3497 17.8808 10.9925 17.6203 9.68314C17.3599 8.37377 16.717 7.17104 15.773 6.22703C14.829 5.28303 13.6262 4.64015 12.3169 4.3797C11.0075 4.11925 9.65029 4.25292 8.41689 4.76382C7.18349 5.27471 6.12928 6.13987 5.38758 7.2499C4.64588 8.35993 4.25 9.66498 4.25 11C4.2527 12.7894 4.96472 14.5047 6.23001 15.77C7.4953 17.0353 9.21062 17.7473 11 17.75ZM10.25 8.75C10.25 8.55109 10.329 8.36032 10.4697 8.21967C10.6103 8.07902 10.8011 8 11 8C11.1989 8 11.3897 8.07902 11.5303 8.21967C11.671 8.36032 11.75 8.55109 11.75 8.75V10.685L13.1225 12.0575C13.2628 12.1989 13.3413 12.3902 13.3409 12.5894C13.3405 12.7886 13.2612 12.9795 13.1203 13.1203C12.9795 13.2612 12.7886 13.3405 12.5894 13.3409C12.3902 13.3413 12.1989 13.2628 12.0575 13.1225L10.4675 11.5325C10.3299 11.3891 10.2521 11.1987 10.25 11V8.75Z" fill="#EE4D2C"/>
<path d="M11 0.500016C10.8011 0.500016 10.6104 0.579034 10.4697 0.719686C10.329 0.860338 10.25 1.0511 10.25 1.25002C10.25 1.44893 10.329 1.63969 10.4697 1.78035C10.6104 1.921 10.8011 2.00002 11 2.00002C13.0996 1.99134 15.1367 2.71395 16.7615 4.04377C18.3862 5.37359 19.4973 7.22762 19.9038 9.28748C20.3104 11.3473 19.9871 13.4845 18.9894 15.3319C17.9917 17.1793 16.3819 18.6217 14.4365 19.4114C12.491 20.201 10.3314 20.2887 8.32832 19.6593C6.32528 19.03 4.60386 17.7228 3.4597 15.9624C2.31554 14.2019 1.82002 12.098 2.05825 10.012C2.29648 7.92597 3.25358 5.98797 4.7652 4.53082L4.71435 4.91872C4.6885 5.11598 4.74206 5.31543 4.86326 5.4732C4.98446 5.63097 5.16337 5.73413 5.36063 5.75999C5.55789 5.78585 5.75734 5.73229 5.91511 5.61109C6.07288 5.48989 6.17605 5.31098 6.2019 5.11372L6.4938 2.88277C6.51166 2.68694 6.45499 2.49158 6.3351 2.33571C6.21521 2.17984 6.04094 2.07493 5.84708 2.04194L3.61613 1.75027C3.51712 1.73452 3.41596 1.73878 3.31863 1.7628C3.2213 1.78683 3.12977 1.83012 3.04945 1.89012C2.96914 1.95012 2.90167 2.02561 2.85103 2.11214C2.8004 2.19866 2.76762 2.29446 2.75464 2.39387C2.74167 2.49328 2.74875 2.59428 2.77548 2.6909C2.8022 2.78753 2.84803 2.87781 2.91025 2.95642C2.97247 3.03503 3.04982 3.10037 3.13772 3.14857C3.22562 3.19678 3.3223 3.22687 3.42203 3.23707L3.88905 3.29827C2.0986 4.95969 0.944601 7.19425 0.626394 9.61599C0.308188 12.0377 0.845754 14.4946 2.14624 16.5621C3.44672 18.6297 5.42846 20.1781 7.74915 20.94C10.0698 21.7019 12.5837 21.6294 14.8566 20.7349C17.1296 19.8405 19.0187 18.1804 20.1978 16.0413C21.377 13.9022 21.772 11.4185 21.3147 9.01911C20.8574 6.61975 19.5765 4.45543 17.6932 2.9C15.8099 1.34457 13.4426 0.495702 11 0.500016Z" fill="#EE4D2C"/>
</svg>
