<svg width="18" height="18" viewBox="0 0 18 18" fill="none" xmlns="http://www.w3.org/2000/svg">
<path d="M8.99989 1.49998C10.4832 1.49998 11.9333 1.93984 13.1666 2.76394C14.4 3.58805 15.3613 4.75937 15.9289 6.1298C16.4966 7.50023 16.6451 9.00821 16.3557 10.4631C16.0663 11.9179 15.352 13.2542 14.3031 14.3031C13.2542 15.352 11.9179 16.0663 10.4631 16.3557C9.00821 16.6451 7.50023 16.4966 6.1298 15.9289C4.75937 15.3613 3.58805 14.4 2.76394 13.1666C1.93984 11.9333 1.49998 10.4832 1.49998 8.99989C1.49998 8.80098 1.42097 8.61022 1.28031 8.46957C1.13966 8.32892 0.948901 8.2499 0.749991 8.2499C0.551081 8.2499 0.360318 8.32892 0.219667 8.46957C0.0790168 8.61022 2.31239e-09 8.80098 2.31239e-09 8.99989C-4.66915e-05 11.0606 0.707071 13.0589 2.00321 14.6609C3.29934 16.2629 5.10598 17.3716 7.12127 17.8017C9.13656 18.2319 11.2384 17.9574 13.0757 17.0242C14.9129 16.091 16.3743 14.5555 17.2156 12.6744C18.0569 10.7933 18.2271 8.68039 17.6979 6.68882C17.1687 4.69725 15.9721 2.9476 14.308 1.73222C12.6439 0.516834 10.6131 -0.0906703 8.55494 0.0112101C6.49677 0.11309 4.53591 0.918184 2.99996 2.29197V0.749991C2.99996 0.551081 2.92095 0.360318 2.7803 0.219667C2.63965 0.0790168 2.44888 0 2.24997 0C2.05106 0 1.8603 0.0790168 1.71965 0.219667C1.579 0.360318 1.49998 0.551081 1.49998 0.749991V5.24994C1.49998 5.44885 1.579 5.63961 1.71965 5.78026C1.8603 5.92091 2.05106 5.99993 2.24997 5.99993H5.24994C5.44885 5.99993 5.63961 5.92091 5.78026 5.78026C5.92091 5.63961 5.99993 5.44885 5.99993 5.24994C5.99993 5.05103 5.92091 4.86026 5.78026 4.71961C5.63961 4.57896 5.44885 4.49995 5.24994 4.49995H2.99996C3.69791 3.5678 4.60364 2.81127 5.6452 2.2905C6.68675 1.76972 7.8354 1.49905 8.99989 1.49998ZM9.00139 5.24994C9.00139 5.05103 8.92237 4.86026 8.78172 4.71961C8.64107 4.57896 8.45031 4.49995 8.2514 4.49995C8.05249 4.49995 7.86173 4.57896 7.72108 4.71961C7.58043 4.86026 7.50141 5.05103 7.50141 5.24994V9.74988C7.50141 9.94879 7.58043 10.1396 7.72108 10.2802C7.86173 10.4209 8.05249 10.4999 8.2514 10.4999H11.2514C11.4503 10.4999 11.641 10.4209 11.7817 10.2802C11.9223 10.1396 12.0014 9.94879 12.0014 9.74988C12.0014 9.55097 11.9223 9.36021 11.7817 9.21956C11.641 9.07891 11.4503 8.99989 11.2514 8.99989H9.00139V5.24994Z" fill="black"/>
</svg>
