<svg width="16" height="16" viewBox="0 0 16 16" fill="none" xmlns="http://www.w3.org/2000/svg">
<path d="M8.08691 0.000732422V15.9995C12.4652 15.9531 16 12.3893 16 8.00008C16 3.61086 12.4652 0.0470762 8.08691 0.000732422Z" fill="#FFB751"/>
<path d="M8.08691 0.00065625C8.05794 0.0003125 8.02897 0 8 0C3.58181 0 0 3.58181 0 8C0 12.4182 3.58181 16 8 16C8.02897 16 8.05794 15.9997 8.08691 15.9993C11.7537 15.944 14.7123 12.3837 14.7123 8C14.7123 3.61625 11.7537 0.0560312 8.08691 0.00065625Z" fill="#FFD764"/>
<path d="M11.171 5.35059V8.73087C12.1043 8.73087 12.8612 7.97434 12.8612 7.04074C12.8611 6.10746 12.1043 5.35059 11.171 5.35059Z" fill="#DEF1FF"/>
<path d="M11.1711 5.35059C11.5712 5.35059 11.8954 6.10746 11.8954 7.04074C11.8954 7.97434 11.5712 8.7309 11.1711 8.7309C10.2378 8.7309 9.4809 7.97437 9.4809 7.04077C9.4809 6.10746 10.2378 5.35059 11.1711 5.35059Z" fill="white"/>
<path d="M11.1711 7.76509C11.5705 7.76509 11.8955 7.44012 11.8955 7.04075C11.8955 6.64138 11.5705 6.31641 11.1711 6.31641C10.7717 6.31641 10.4468 6.64138 10.4468 7.04075C10.4468 7.44012 10.7717 7.76509 11.1711 7.76509Z" fill="#0E2739"/>
<path d="M9.12659 10.5422C9.07772 10.5422 9.02844 10.5275 8.98578 10.4968C8.69744 10.2893 8.35654 10.1797 7.99997 10.1797C7.66126 10.1797 7.33454 10.2795 7.05514 10.4682C6.94457 10.5428 6.79454 10.5137 6.71992 10.4032C6.64529 10.2927 6.67433 10.1427 6.78486 10.068C7.14439 9.82515 7.56457 9.69678 7.99997 9.69678C8.45838 9.69678 8.89678 9.83784 9.26781 10.1047C9.37603 10.1826 9.40069 10.3335 9.32281 10.4417C9.27562 10.5074 9.20166 10.5422 9.12659 10.5422Z" fill="#FF804C"/>
<path d="M8.24143 11.508H7.75853C7.62515 11.508 7.51709 11.3999 7.51709 11.2666C7.51709 11.1332 7.62515 11.0251 7.75853 11.0251H8.24143C8.37481 11.0251 8.48287 11.1332 8.48287 11.2666C8.4829 11.3999 8.37481 11.508 8.24143 11.508Z" fill="#FFB751"/>
<path d="M10.4467 4.62619H9.48088C9.3475 4.62619 9.23944 4.51809 9.23944 4.38475C9.23944 4.2514 9.3475 4.14331 9.48088 4.14331H10.4467C10.58 4.14331 10.6881 4.2514 10.6881 4.38475C10.6881 4.51809 10.58 4.62619 10.4467 4.62619Z" fill="#661A11"/>
<path d="M4.82898 5.35059V8.73087C5.76226 8.73087 6.51914 7.97434 6.51914 7.04074C6.51914 6.10746 5.76226 5.35059 4.82898 5.35059Z" fill="#DEF1FF"/>
<path d="M4.82895 5.35059C5.22911 5.35059 5.55329 6.10746 5.55329 7.04074C5.55329 7.97434 5.22911 8.7309 4.82895 8.7309C3.89567 8.7309 3.13879 7.97437 3.13879 7.04077C3.13883 6.10746 3.89567 5.35059 4.82895 5.35059Z" fill="white"/>
<path d="M4.82908 7.76509C5.22846 7.76509 5.55342 7.44012 5.55342 7.04075C5.55342 6.64138 5.22846 6.31641 4.82908 6.31641C4.42971 6.31641 4.10474 6.64138 4.10474 7.04075C4.10474 7.44012 4.42971 7.76509 4.82908 7.76509Z" fill="#0E2739"/>
<path d="M6.51911 4.62619H5.55333C5.41995 4.62619 5.31189 4.51809 5.31189 4.38475C5.31189 4.2514 5.41995 4.14331 5.55333 4.14331H6.51911C6.65248 4.14331 6.76055 4.2514 6.76055 4.38475C6.76055 4.51809 6.65248 4.62619 6.51911 4.62619Z" fill="#661A11"/>
<path d="M12.2373 11.6659L11.171 9.68921V13.4394C11.8377 13.4394 12.3783 12.8989 12.3783 12.2321C12.3783 12.0274 12.3271 11.8349 12.2373 11.6659Z" fill="#0789DE"/>
<path d="M11.5265 11.6659C11.5564 11.8349 11.5735 12.0274 11.5735 12.2321C11.5735 12.8989 11.3932 13.4394 11.1711 13.4394C10.5043 13.4394 9.96381 12.8989 9.96381 12.2321C9.96381 12.0274 10.015 11.8349 10.1048 11.6659L11.1711 9.68921L11.5265 11.6659Z" fill="#54BBFF"/>
</svg>
