<svg width="61" height="61" viewBox="0 0 61 61" fill="none" xmlns="http://www.w3.org/2000/svg">
<g filter="url(#filter0_d_6_106)">
<rect x="1" y="1" width="57" height="57" rx="13" fill="#FFC61B"/>
</g>
<path d="M42.3282 18.2848C42.3282 17.0369 41.9697 16.6723 40.739 16.6723C31.6791 16.6709 22.6197 16.6709 13.5598 16.6723C12.3714 16.6723 12.0011 17.0455 12.0011 18.2424C11.9996 27.3023 11.9996 36.3617 12.0011 45.4216C12.0011 46.6185 12.3743 46.9989 13.5536 46.9989C22.6135 47.0004 31.6729 47.0004 40.7328 46.9989C41.9678 46.9989 42.3277 46.6343 42.3277 45.3907C42.3291 40.8972 42.3291 36.4037 42.3291 31.9102C42.3296 27.3695 42.3296 22.8279 42.3282 18.2848ZM35.7498 27.3853C35.6392 27.5673 35.47 27.7189 35.317 27.8724C32.1224 31.0684 28.9268 34.264 25.7294 37.4585C24.8705 38.3156 24.3719 38.3175 23.5205 37.4671C21.9895 35.9409 20.459 34.4127 18.9336 32.8802C18.2949 32.2386 18.222 31.5346 18.7268 31.0317C19.2516 30.5069 19.9046 30.5708 20.5724 31.2357C21.9109 32.5699 23.2403 33.9127 24.7041 35.3822C25.0687 34.9494 25.3571 34.5557 25.6984 34.213C28.3372 31.5608 30.9851 28.9177 33.6324 26.2727C33.8045 26.1021 33.968 25.9095 34.1706 25.7856C34.694 25.4691 35.2102 25.5334 35.6273 25.9767C36.0196 26.3952 36.0458 26.8938 35.7498 27.3853Z" fill="white"/>
<path d="M44.6587 42.2748C44.6587 41.944 44.6587 41.6551 44.6587 41.3663C44.6587 33.6639 44.6596 25.9615 44.6582 18.2587C44.6577 15.7324 43.2635 14.3419 40.732 14.3415C33.0296 14.3405 25.3272 14.341 17.6244 14.341C17.336 14.341 17.0481 14.341 16.6782 14.341C16.6782 13.8696 16.6353 13.4363 16.6887 13.0154C16.7607 12.4482 17.1291 12.1093 17.6959 12.0201C17.9099 11.9863 18.1325 12.0054 18.3508 12.0054C27.3411 12.0049 36.3314 12.0049 45.3217 12.0054C46.6583 12.0054 46.9939 12.3424 46.9939 13.6846C46.9943 22.5534 46.9662 31.4222 47.0153 40.2909C47.0267 42.3048 46.3079 42.4812 44.6587 42.2748Z" fill="white"/>
<defs>
<filter id="filter0_d_6_106" x="0" y="0" width="61" height="61" filterUnits="userSpaceOnUse" color-interpolation-filters="sRGB">
<feFlood flood-opacity="0" result="BackgroundImageFix"/>
<feColorMatrix in="SourceAlpha" type="matrix" values="0 0 0 0 0 0 0 0 0 0 0 0 0 0 0 0 0 0 127 0" result="hardAlpha"/>
<feOffset dx="1" dy="1"/>
<feGaussianBlur stdDeviation="1"/>
<feComposite in2="hardAlpha" operator="out"/>
<feColorMatrix type="matrix" values="0 0 0 0 0 0 0 0 0 0 0 0 0 0 0 0 0 0 0.25 0"/>
<feBlend mode="normal" in2="BackgroundImageFix" result="effect1_dropShadow_6_106"/>
<feBlend mode="normal" in="SourceGraphic" in2="effect1_dropShadow_6_106" result="shape"/>
</filter>
</defs>
</svg>
