<svg width="12" height="16" viewBox="0 0 12 16" fill="none" xmlns="http://www.w3.org/2000/svg">
<path d="M10.5191 0H1.48084C0.684305 0 0.0078125 0.642428 0.0078125 1.47303V14.8376C0.0101564 15.8918 1.29782 16.3865 2.02988 15.6464L5.47501 12.2023C5.7511 11.9143 6.24882 11.9143 6.52491 12.2023L9.97004 15.6464C10.7024 16.3868 11.9899 15.8913 11.9921 14.8376V1.47303C11.9921 0.642428 11.3156 0 10.5191 0V0ZM11.0545 14.8376C11.0534 15.0608 10.7759 15.1345 10.6324 14.9829C9.94366 14.2931 7.97959 12.3296 7.1885 11.54C6.56616 10.8891 5.4347 10.8889 4.81264 11.5387C4.26616 12.0842 3.19645 13.1536 2.35319 13.9966L1.37217 14.9772C1.23082 15.1272 0.94989 15.0771 0.945358 14.8461V1.47303C0.945358 1.17357 1.1881 0.937577 1.48084 0.937577H10.519C10.8114 0.937577 11.0545 1.17319 11.0545 1.47303V14.8376Z" fill="black"/>
</svg>
