<svg width="18" height="20" viewBox="0 0 18 20" fill="none" xmlns="http://www.w3.org/2000/svg">
<path d="M1.72845 0C6.30884 0 10.8892 0 15.4696 0C15.4696 0 15.4912 0.0190197 15.5128 0.0190197C16.6147 0.28528 17.1333 0.855836 17.1333 1.86382C17.1333 7.32215 17.1333 12.7995 17.1333 18.2578C17.1333 18.486 17.1549 18.7333 17.1333 18.9615C17.1116 19.1327 17.0684 19.3229 16.982 19.494C16.7876 19.8934 16.3122 20.0836 15.8369 19.9505C15.5993 19.8744 15.3616 19.7603 15.1455 19.6081C13.2226 18.1817 11.3213 16.7363 9.39844 15.3099C8.87991 14.9296 8.29656 14.9296 7.79963 15.3099C6.37366 16.375 4.94769 17.44 3.52172 18.5051C2.98158 18.9045 2.44144 19.3419 1.87969 19.7223C1.08028 20.2738 0.19445 19.9695 0.0216053 19.1137C-3.29746e-07 19.0186 0 18.9235 0 18.8474C0 13.1418 0 7.45528 0 1.74971C0 1.16013 0.280874 0.703687 0.821014 0.380371C1.08028 0.190186 1.42597 0.114111 1.72845 0Z" fill="#FF9F00"/>
</svg>
