<svg width="16" height="16" viewBox="0 0 16 16" fill="none" xmlns="http://www.w3.org/2000/svg">
<g clip-path="url(#clip0_2325_5841)">
<path d="M13 1H3V1.5V15L8.5 11L13 15V1Z" fill="#FF9F00" stroke="#FF9F00"/>
<path d="M12.5191 0H3.48084C2.68431 0 2.00781 0.642428 2.00781 1.47303V14.8376C2.01016 15.8918 3.29782 16.3865 4.02988 15.6464L7.47501 12.2023C7.7511 11.9143 8.24882 11.9143 8.52491 12.2023L11.97 15.6464C12.7024 16.3868 13.9899 15.8913 13.9921 14.8376V1.47303C13.9921 0.642428 13.3156 0 12.5191 0V0ZM13.0545 14.8376C13.0534 15.0608 12.7759 15.1345 12.6324 14.9829C11.9437 14.2931 9.97959 12.3296 9.1885 11.54C8.56616 10.8891 7.4347 10.8889 6.81264 11.5387C6.26616 12.0842 5.19645 13.1536 4.35319 13.9966L3.37217 14.9772C3.23082 15.1272 2.94989 15.0771 2.94536 14.8461V1.47303C2.94536 1.17357 3.1881 0.937577 3.48084 0.937577H12.519C12.8114 0.937577 13.0545 1.17319 13.0545 1.47303V14.8376Z" fill="#FF9F00"/>
</g>
<defs>
<clipPath id="clip0_2325_5841">
<rect width="16" height="16" fill="white"/>
</clipPath>
</defs>
</svg>
