<svg width="18" height="20" viewBox="0 0 18 20" fill="none" xmlns="http://www.w3.org/2000/svg">
<path d="M17.3911 19.2687L17.3911 19.2687L17.3879 19.2752C17.3157 19.4234 17.1105 19.5448 16.8354 19.4712C16.6477 19.4102 16.4615 19.3201 16.2936 19.2027C15.3353 18.4918 14.3822 17.776 13.4277 17.0592L13.4266 17.0584C12.4711 16.3409 11.5143 15.6223 10.5518 14.9084L10.5497 14.9068C10.2171 14.6628 9.84001 14.5247 9.4464 14.5247C9.0528 14.5247 8.6788 14.6629 8.35369 14.911L4.07992 18.103C4.07955 18.1033 4.07919 18.1036 4.07883 18.1038C3.88157 18.2497 3.69151 18.3949 3.5042 18.5379C3.15441 18.8051 2.81424 19.0649 2.45482 19.3082L2.45481 19.3082L2.45121 19.3107C2.15743 19.5134 1.89806 19.5275 1.729 19.4713C1.56856 19.4179 1.42082 19.2803 1.36718 19.0147L1.36732 19.0146L1.36465 19.0029C1.36165 18.9897 1.3589 18.9707 1.35728 18.9436C1.3556 18.9154 1.35547 18.8869 1.35547 18.8474V18.814V18.7805V18.7471V18.7137V18.6802V18.6468V18.6134V18.58V18.5465V18.5131V18.4797V18.4463V18.4128V18.3794V18.346V18.3126V18.2791V18.2457V18.2123V18.1789V18.1454V18.112V18.0786V18.0452V18.0118V17.9783V17.9449V17.9115V17.8781V17.8447V17.8112V17.7778V17.7444V17.711V17.6776V17.6441V17.6107V17.5773V17.5439V17.5105V17.4771V17.4437V17.4102V17.3768V17.3434V17.31V17.2766V17.2432V17.2098V17.1764V17.1429V17.1095V17.0761V17.0427V17.0093V16.9759V16.9425V16.9091V16.8757V16.8423V16.8088V16.7754V16.742V16.7086V16.6752V16.6418V16.6084V16.575V16.5416V16.5082V16.4748V16.4414V16.408V16.3746V16.3412V16.3078V16.2744V16.241V16.2076V16.1742V16.1408V16.1074V16.074V16.0406V16.0072V15.9738V15.9404V15.907V15.8736V15.8402V15.8068V15.7734V15.74V15.7066V15.6732V15.6398V15.6064V15.573V15.5396V15.5062V15.4728V15.4394V15.406V15.3726V15.3392V15.3058V15.2724V15.239V15.2056V15.1722V15.1388V15.1054V15.0721V15.0387V15.0053V14.9719V14.9385V14.9051V14.8717V14.8383V14.8049V14.7715V14.7381V14.7048V14.6714V14.638V14.6046V14.5712V14.5378V14.5044V14.471V14.4376V14.4042V14.3709V14.3375V14.3041V14.2707V14.2373V14.2039V14.1705V14.1371V14.1038V14.0704V14.037V14.0036V13.9702V13.9368V13.9034V13.8701V13.8367V13.8033V13.7699V13.7365V13.7031V13.6698V13.6364V13.603V13.5696V13.5362V13.5028V13.4695V13.4361V13.4027V13.3693V13.3359V13.3025V13.2692V13.2358V13.2024V13.169V13.1356V13.1023V13.0689V13.0355V13.0021V12.9687V12.9353V12.902V12.8686V12.8352V12.8018V12.7684V12.7351V12.7017V12.6683V12.6349V12.6015V12.5682V12.5348V12.5014V12.468V12.4346V12.4013V12.3679V12.3345V12.3011V12.2678V12.2344V12.201V12.1676V12.1342V12.1009V12.0675V12.0341V12.0007V11.9674V11.934V11.9006V11.8672V11.8338V11.8005V11.7671V11.7337V11.7003V11.667V11.6336V11.6002V11.5668V11.5335V11.5001V11.4667V11.4333V11.4V11.3666V11.3332V11.2998V11.2664V11.2331V11.1997V11.1663V11.1329V11.0996V11.0662V11.0328V10.9994V10.9661V10.9327V10.8993V10.8659V10.8326V10.7992V10.7658V10.7324V10.6991V10.6657V10.6323V10.5989V10.5656V10.5322V10.4988V10.4654V10.4321V10.3987V10.3653V10.3319V10.2986V10.2652V10.2318V10.1984V10.1651V10.1317V10.0983V10.0649V10.0316V9.99818V9.9648V9.93142V9.89805V9.86467V9.8313V9.79792V9.76455V9.73117V9.6978V9.66442V9.63104V9.59767V9.56429V9.53092V9.49754V9.46417V9.43079V9.39741V9.36404V9.33066V9.29729V9.26391V9.23053V9.19716V9.16378V9.1304V9.09703V9.06365V9.03027V8.9969V8.96352V8.93015V8.89677V8.86339V8.83001V8.79664V8.76326V8.72988V8.69651V8.66313V8.62975V8.59637V8.563V8.52962V8.49624V8.46286V8.42948V8.39611V8.36273V8.32935V8.29597V8.26259V8.22921V8.19584V8.16246V8.12908V8.0957V8.06232V8.02894V7.99556V7.96218V7.9288V7.89542V7.86204V7.82866V7.79528V7.7619V7.72852V7.69514V7.66176V7.62838V7.595V7.56162V7.52824V7.49486V7.46148V7.42809V7.39471V7.36133V7.32795V7.29457V7.26118V7.2278V7.19442V7.16104V7.12765V7.09427V7.06089V7.0275V6.99412V6.96074V6.92735V6.89397V6.86058V6.8272V6.79381V6.76043V6.72704V6.69366V6.66027V6.62689V6.5935V6.56012V6.52673V6.49334V6.45996V6.42657V6.39318V6.3598V6.32641V6.29302V6.25963V6.22625V6.19286V6.15947V6.12608V6.09269V6.0593V6.02592V5.99253V5.95914V5.92575V5.89236V5.85897V5.82558V5.79218V5.75879V5.7254V5.69201V5.65862V5.62523V5.59184V5.55844V5.52505V5.49166V5.45826V5.42487V5.39148V5.35808V5.32469V5.2913V5.2579V5.22451V5.19111V5.15772V5.12432V5.09092V5.05753V5.02413V4.99073V4.95734V4.92394V4.89054V4.85714V4.82375V4.79035V4.75695V4.72355V4.69015V4.65675V4.62335V4.58995V4.55655V4.52315V4.48975V4.45635V4.42295V4.38955V4.35614V4.32274V4.28934V4.25594V4.22253V4.18913V4.15572V4.12232V4.08892V4.05551V4.02211V3.9887V3.95529V3.92189V3.88848V3.85507V3.82167V3.78826V3.75485V3.72144V3.68804V3.65463V3.62122V3.58781V3.5544V3.52099V3.48758V3.45417V3.42075V3.38734V3.35393V3.32052V3.28711V3.25369V3.22028V3.18687V3.15345V3.12004V3.08662V3.05321V3.01979V2.98638V2.95296V2.91954V2.88613V2.85271V2.81929V2.78587V2.75245V2.71903V2.68562V2.6522V2.61878V2.58536V2.55193V2.51851V2.48509V2.45167V2.41825V2.38482V2.3514V2.31798V2.28455V2.25113V2.2177V2.18428V2.15085V2.11743V2.084V2.05057V2.01714V1.98372V1.95029V1.91686V1.88343V1.85V1.81657V1.78314V1.74971C1.35547 1.35636 1.52563 1.0534 1.93328 0.809387L1.95336 0.797371L1.97222 0.783532C2.04505 0.730106 2.1442 0.682791 2.28512 0.631462C2.35039 0.607687 2.41733 0.585538 2.49229 0.560734C2.49753 0.559001 2.5028 0.557256 2.50812 0.555496C2.55976 0.5384 2.61532 0.519935 2.67194 0.5H2.69127H2.71811H2.74495H2.77179H2.79862H2.82546H2.8523H2.87914H2.90598H2.93282H2.95965H2.98649H3.01333H3.04017H3.06701H3.09384H3.12068H3.14752H3.17436H3.2012H3.22804H3.25487H3.28171H3.30855H3.33539H3.36223H3.38907H3.4159H3.44274H3.46958H3.49642H3.52326H3.55009H3.57693H3.60377H3.63061H3.65745H3.68429H3.71112H3.73796H3.7648H3.79164H3.81848H3.84531H3.87215H3.89899H3.92583H3.95267H3.97951H4.00634H4.03318H4.06002H4.08686H4.1137H4.14054H4.16737H4.19421H4.22105H4.24789H4.27473H4.30156H4.3284H4.35524H4.38208H4.40892H4.43576H4.46259H4.48943H4.51627H4.54311H4.56995H4.59679H4.62362H4.65046H4.6773H4.70414H4.73098H4.75781H4.78465H4.81149H4.83833H4.86517H4.89201H4.91884H4.94568H4.97252H4.99936H5.0262H5.05304H5.07987H5.10671H5.13355H5.16039H5.18723H5.21406H5.2409H5.26774H5.29458H5.32142H5.34826H5.37509H5.40193H5.42877H5.45561H5.48245H5.50928H5.53612H5.56296H5.5898H5.61664H5.64348H5.67031H5.69715H5.72399H5.75083H5.77767H5.80451H5.83134H5.85818H5.88502H5.91186H5.9387H5.96554H5.99237H6.01921H6.04605H6.07289H6.09973H6.12656H6.1534H6.18024H6.20708H6.23392H6.26076H6.28759H6.31443H6.34127H6.36811H6.39495H6.42178H6.44862H6.47546H6.5023H6.52914H6.55598H6.58281H6.60965H6.63649H6.66333H6.69017H6.71701H6.74384H6.77068H6.79752H6.82436H6.8512H6.87803H6.90487H6.93171H6.95855H6.98539H7.01223H7.03906H7.0659H7.09274H7.11958H7.14642H7.17326H7.20009H7.22693H7.25377H7.28061H7.30745H7.33428H7.36112H7.38796H7.4148H7.44164H7.46848H7.49531H7.52215H7.54899H7.57583H7.60267H7.62951H7.65634H7.68318H7.71002H7.73686H7.7637H7.79053H7.81737H7.84421H7.87105H7.89789H7.92473H7.95156H7.9784H8.00524H8.03208H8.05892H8.08575H8.11259H8.13943H8.16627H8.19311H8.21995H8.24678H8.27362H8.30046H8.3273H8.35414H8.38098H8.40781H8.43465H8.46149H8.48833H8.51517H8.542H8.56884H8.59568H8.62252H8.64936H8.6762H8.70303H8.72987H8.75671H8.78355H8.81039H8.83723H8.86406H8.8909H8.91774H8.94458H8.97142H8.99825H9.02509H9.05193H9.07877H9.10561H9.13245H9.15928H9.18612H9.21296H9.2398H9.26664H9.29348H9.32031H9.34715H9.37399H9.40083H9.42767H9.4545H9.48134H9.50818H9.53502H9.56186H9.5887H9.61553H9.64237H9.66921H9.69605H9.72289H9.74973H9.77656H9.8034H9.83024H9.85708H9.88392H9.91075H9.93759H9.96443H9.99127H10.0181H10.0449H10.0718H10.0986H10.1255H10.1523H10.1791H10.206H10.2328H10.2597H10.2865H10.3133H10.3402H10.367H10.3938H10.4207H10.4475H10.4744H10.5012H10.528H10.5549H10.5817H10.6085H10.6354H10.6622H10.6891H10.7159H10.7427H10.7696H10.7964H10.8233H10.8501H10.8769H10.9038H10.9306H10.9574H10.9843H11.0111H11.038H11.0648H11.0916H11.1185H11.1453H11.1722H11.199H11.2258H11.2527H11.2795H11.3063H11.3332H11.36H11.3869H11.4137H11.4405H11.4674H11.4942H11.521H11.5479H11.5747H11.6016H11.6284H11.6552H11.6821H11.7089H11.7358H11.7626H11.7894H11.8163H11.8431H11.8699H11.8968H11.9236H11.9505H11.9773H12.0041H12.031H12.0578H12.0847H12.1115H12.1383H12.1652H12.192H12.2188H12.2457H12.2725H12.2994H12.3262H12.353H12.3799H12.4067H12.4335H12.4604H12.4872H12.5141H12.5409H12.5677H12.5946H12.6214H12.6483H12.6751H12.7019H12.7288H12.7556H12.7824H12.8093H12.8361H12.863H12.8898H12.9166H12.9435H12.9703H12.9972H13.024H13.0508H13.0777H13.1045H13.1313H13.1582H13.185H13.2119H13.2387H13.2655H13.2924H13.3192H13.346H13.3729H13.3997H13.4266H13.4534H13.4802H13.5071H13.5339H13.5608H13.5876H13.6144H13.6413H13.6681H13.6949H13.7218H13.7486H13.7755H13.8023H13.8291H13.856H13.8828H13.9096H13.9365H13.9633H13.9902H14.017H14.0438H14.0707H14.0975H14.1244H14.1512H14.178H14.2049H14.2317H14.2585H14.2854H14.3122H14.3391H14.3659H14.3927H14.4196H14.4464H14.4733H14.5001H14.5269H14.5538H14.5806H14.6074H14.6343H14.6611H14.688H14.7148H14.7416H14.7685H14.7953H14.8221H14.849H14.8758H14.9027H14.9295H14.9563H14.9832H15.01H15.0369H15.0637H15.0905H15.1174H15.1442H15.171H15.1979H15.2247H15.2516H15.2784H15.3052H15.3321H15.3589H15.3858H15.4126H15.4394H15.4663H15.4931H15.5199H15.5468H15.5736H15.6005H15.6273H15.6541H15.681H15.7078H15.7346H15.7615H15.7883H15.8152H15.842H15.8688H15.8957H15.9225H15.9494H15.9762H16.003H16.0299H16.0567H16.0835H16.1104H16.1372H16.1641H16.1909H16.2177H16.2261C16.2412 0.504071 16.2572 0.507722 16.2741 0.51071C16.7554 0.630123 17.0453 0.800394 17.2174 0.99476C17.3844 1.18336 17.4887 1.44917 17.4887 1.86382V1.8958V1.92779V1.95977V1.99175V2.02374V2.05572V2.08771V2.11969V2.15168V2.18367V2.21565V2.24764V2.27963V2.31162V2.3436V2.37559V2.40758V2.43957V2.47156V2.50355V2.53554V2.56753V2.59953V2.63152V2.66351V2.6955V2.7275V2.75949V2.79149V2.82348V2.85547V2.88747V2.91947V2.95146V2.98346V3.01545V3.04745V3.07945V3.11145V3.14345V3.17544V3.20744V3.23944V3.27144V3.30344V3.33544V3.36744V3.39944V3.43145V3.46345V3.49545V3.52745V3.55946V3.59146V3.62346V3.65547V3.68747V3.71948V3.75148V3.78349V3.81549V3.8475V3.8795V3.91151V3.94352V3.97552V4.00753V4.03954V4.07155V4.10356V4.13557V4.16757V4.19958V4.23159V4.2636V4.29561V4.32762V4.35964V4.39165V4.42366V4.45567V4.48768V4.5197V4.55171V4.58372V4.61574V4.64775V4.67976V4.71178V4.74379V4.77581V4.80782V4.83984V4.87185V4.90387V4.93588V4.9679V4.99992V5.03193V5.06395V5.09597V5.12799V5.16001V5.19202V5.22404V5.25606V5.28808V5.3201V5.35212V5.38414V5.41616V5.44818V5.4802V5.51222V5.54424V5.57626V5.60828V5.64031V5.67233V5.70435V5.73637V5.7684V5.80042V5.83244V5.86447V5.89649V5.92851V5.96054V5.99256V6.02459V6.05661V6.08864V6.12066V6.15269V6.18471V6.21674V6.24876V6.28079V6.31282V6.34484V6.37687V6.4089V6.44092V6.47295V6.50498V6.53701V6.56903V6.60106V6.63309V6.66512V6.69715V6.72918V6.76121V6.79323V6.82526V6.85729V6.88932V6.92135V6.95338V6.98541V7.01744V7.04947V7.0815V7.11354V7.14557V7.1776V7.20963V7.24166V7.27369V7.30572V7.33776V7.36979V7.40182V7.43385V7.46588V7.49792V7.52995V7.56198V7.59402V7.62605V7.65808V7.69012V7.72215V7.75418V7.78622V7.81825V7.85028V7.88232V7.91435V7.94639V7.97842V8.01046V8.04249V8.07453V8.10656V8.1386V8.17063V8.20267V8.2347V8.26674V8.29877V8.33081V8.36284V8.39488V8.42692V8.45895V8.49099V8.52302V8.55506V8.5871V8.61913V8.65117V8.6832V8.71524V8.74728V8.77931V8.81135V8.84339V8.87543V8.90746V8.9395V8.97154V9.00357V9.03561V9.06765V9.09969V9.13172V9.16376V9.1958V9.22783V9.25987V9.29191V9.32395V9.35599V9.38802V9.42006V9.4521V9.48414V9.51617V9.54821V9.58025V9.61229V9.64433V9.67636V9.7084V9.74044V9.77248V9.80452V9.83655V9.86859V9.90063V9.93267V9.96471V9.99675V10.0288V10.0608V10.0929V10.1249V10.1569V10.189V10.221V10.253V10.2851V10.3171V10.3492V10.3812V10.4132V10.4453V10.4773V10.5094V10.5414V10.5734V10.6055V10.6375V10.6695V10.7016V10.7336V10.7657V10.7977V10.8297V10.8618V10.8938V10.9258V10.9579V10.9899V11.022V11.054V11.086V11.1181V11.1501V11.1821V11.2142V11.2462V11.2783V11.3103V11.3423V11.3744V11.4064V11.4384V11.4705V11.5025V11.5345V11.5666V11.5986V11.6307V11.6627V11.6947V11.7268V11.7588V11.7908V11.8229V11.8549V11.8869V11.919V11.951V11.983V12.0151V12.0471V12.0792V12.1112V12.1432V12.1753V12.2073V12.2393V12.2714V12.3034V12.3354V12.3675V12.3995V12.4315V12.4636V12.4956V12.5276V12.5597V12.5917V12.6237V12.6558V12.6878V12.7198V12.7519V12.7839V12.8159V12.8479V12.88V12.912V12.944V12.9761V13.0081V13.0401V13.0722V13.1042V13.1362V13.1683V13.2003V13.2323V13.2643V13.2964V13.3284V13.3604V13.3925V13.4245V13.4565V13.4886V13.5206V13.5526V13.5846V13.6167V13.6487V13.6807V13.7127V13.7448V13.7768V13.8088V13.8409V13.8729V13.9049V13.9369V13.969V14.001V14.033V14.065V14.0971V14.1291V14.1611V14.1931V14.2252V14.2572V14.2892V14.3212V14.3532V14.3853V14.4173V14.4493V14.4813V14.5134V14.5454V14.5774V14.6094V14.6414V14.6735V14.7055V14.7375V14.7695V14.8015V14.8336V14.8656V14.8976V14.9296V14.9616V14.9937V15.0257V15.0577V15.0897V15.1217V15.1537V15.1858V15.2178V15.2498V15.2818V15.3138V15.3458V15.3779V15.4099V15.4419V15.4739V15.5059V15.5379V15.5699V15.6019V15.634V15.666V15.698V15.73V15.762V15.794V15.826V15.858V15.89V15.9221V15.9541V15.9861V16.0181V16.0501V16.0821V16.1141V16.1461V16.1781V16.2101V16.2421V16.2741V16.3062V16.3382V16.3702V16.4022V16.4342V16.4662V16.4982V16.5302V16.5622V16.5942V16.6262V16.6582V16.6902V16.7222V16.7542V16.7862V16.8182V16.8502V16.8822V16.9142V16.9462V16.9782V17.0102V17.0422V17.0742V17.1062V17.1382V17.1702V17.2022V17.2342V17.2662V17.2982V17.3302V17.3622V17.3941V17.4261V17.4581V17.4901V17.5221V17.5541V17.5861V17.6181V17.6501V17.6821V17.7141V17.746V17.778V17.81V17.842V17.874V17.906V17.938V17.97V18.0019V18.0339V18.0659V18.0979V18.1299V18.1619V18.1939V18.2258V18.2578C17.4887 18.3698 17.4918 18.4627 17.4946 18.546C17.499 18.6781 17.5025 18.7858 17.4917 18.9067C17.4739 19.043 17.4416 19.1688 17.3911 19.2687Z" stroke="#4F4F4F"/>
</svg>
