<svg width="23" height="20" viewBox="0 0 23 20" fill="none" xmlns="http://www.w3.org/2000/svg">
<path d="M11.0108 6.75599C12.8764 6.75599 14.3888 5.24361 14.3888 3.378C14.3888 1.51238 12.8764 0 11.0108 0C9.14519 0 7.63281 1.51238 7.63281 3.378C7.63281 5.24361 9.14519 6.75599 11.0108 6.75599Z" fill="#E3423A"/>
<path d="M17.4596 13.6279L17.4212 11.6702C17.3829 9.1751 15.3484 7.14062 12.8533 7.14062H12.8149C12.2775 7.40933 11.6633 7.56287 11.0107 7.56287C10.3582 7.56287 9.74398 7.40933 9.16818 7.14062H9.1298C6.63468 7.14062 4.56182 9.1751 4.56182 11.6702C4.56182 12.3228 4.56182 12.9753 4.52344 13.6279C4.71537 13.8198 5.13762 14.1653 5.79019 14.5876C5.79019 14.626 5.79019 14.7027 5.79019 14.7411C5.79019 17.6201 8.13175 20 11.0491 20C13.9281 20 16.308 17.6585 16.308 14.7411C16.308 14.6643 16.308 14.5876 16.308 14.5108C16.8838 14.1653 17.2677 13.8198 17.4596 13.6279ZM11.0491 19.1555C8.70755 19.1555 6.78823 17.3514 6.63469 15.0482C6.63469 14.933 6.63469 14.8563 6.63469 14.7411C6.63469 12.3228 8.59239 10.3267 11.0491 10.3267C13.4675 10.3267 15.4635 12.2844 15.4635 14.7411C15.4635 14.8179 15.4635 14.933 15.4635 15.0098C15.31 17.3514 13.3907 19.1555 11.0491 19.1555Z" fill="#E3423A"/>
<path d="M12.9691 12.9716C11.8559 12.3958 11.0498 13.7393 11.0498 13.7393V13.7777V13.7393C11.0498 13.7393 10.2821 12.3958 9.1305 12.9716C7.94052 13.5858 8.51632 15.0444 9.1305 15.8506C9.36082 16.1576 9.62952 16.4263 9.89822 16.6567C10.0902 16.8102 10.2437 16.9638 10.4356 17.0789C10.7043 17.2708 10.8963 17.386 11.0114 17.4628C11.0114 17.4628 11.0498 17.4628 11.0498 17.5012C11.0498 17.5012 11.0882 17.5012 11.0882 17.4628C11.2034 17.386 11.3953 17.2708 11.664 17.0789C11.8559 16.9254 12.0095 16.8102 12.2014 16.6567C12.4701 16.4263 12.7388 16.1576 12.9691 15.8506C13.5833 15.0444 14.1207 13.5474 12.9691 12.9716Z" fill="#E3423A"/>
<path d="M19.6835 4.22475C19.6835 5.72182 18.4551 6.95018 16.9581 6.95018C15.96 6.95018 15.0771 6.41277 14.5781 5.56827C14.962 4.91571 15.1923 4.14798 15.1923 3.34187C15.1923 2.958 15.1539 2.57414 15.0388 2.22866C15.5378 1.76803 16.1904 1.46094 16.9197 1.46094C18.4935 1.49932 19.6835 2.72769 19.6835 4.22475Z" fill="#E3423A"/>
<path d="M22.0256 12.7054C22.0256 12.7054 21.2963 13.1277 20.4518 13.3964V11.3619C20.4518 11.3619 20.2214 13.0125 19.9527 13.5883C19.9527 13.5883 18.9163 13.7803 18.3405 13.8186L18.3021 11.669C18.2637 10.0184 17.5344 8.55972 16.3828 7.56167C16.5747 7.60006 16.8051 7.60006 16.997 7.60006C17.496 7.60006 17.9567 7.4849 18.4173 7.29297C19.7608 7.36974 21.3346 7.79199 21.9104 9.40422L22.0256 12.7054Z" fill="#E3423A"/>
<path d="M2.29688 4.22475C2.29688 5.72182 3.52524 6.95018 5.0223 6.95018C6.02035 6.95018 6.90323 6.41277 7.40226 5.56827C7.01839 4.91571 6.78808 4.14798 6.78808 3.34187C6.78808 2.958 6.82646 2.57414 6.94162 2.22866C6.4426 1.76803 5.79003 1.46094 5.06069 1.46094C3.52524 1.49932 2.29688 2.72769 2.29688 4.22475Z" fill="#E3423A"/>
<path d="M0 12.7061C0 12.7061 0.72934 13.1284 1.57384 13.3971V11.3626C1.57384 11.3626 1.80416 13.0132 2.07286 13.589C2.07286 13.589 3.10929 13.7809 3.68509 13.8193L3.72347 11.7081C3.76186 10.0575 4.4912 8.59878 5.64279 7.60074C5.45086 7.63912 5.22054 7.63912 5.02861 7.63912C4.52959 7.63912 4.06895 7.52396 3.60832 7.33203C2.26479 7.4088 0.690954 7.83105 0.115159 9.44328L0 12.7061Z" fill="#E3423A"/>
</svg>
