<svg width="19" height="19" viewBox="0 0 19 19" fill="none" xmlns="http://www.w3.org/2000/svg">
<path fill-rule="evenodd" clip-rule="evenodd" d="M12.2724 11.5283H13.1003L18.33 16.7684L16.7684 18.33L11.5283 13.1003V12.2724L11.2453 11.979C10.0506 13.006 8.4995 13.6244 6.81218 13.6244C3.04976 13.6244 0 10.5746 0 6.81218C0 3.04976 3.04976 0 6.81218 0C10.5746 0 13.6244 3.04976 13.6244 6.81218C13.6244 8.4995 13.006 10.0506 11.979 11.2453L12.2724 11.5283ZM2.09599 6.81219C2.09599 9.42177 4.20253 11.5283 6.81212 11.5283C9.42171 11.5283 11.5282 9.42177 11.5282 6.81219C11.5282 4.2026 9.42171 2.09606 6.81212 2.09606C4.20253 2.09606 2.09599 4.2026 2.09599 6.81219Z" fill="#FF9F00"/>
</svg>
