<svg width="14" height="14" viewBox="0 0 14 14" fill="none" xmlns="http://www.w3.org/2000/svg">
<path d="M12.7628 8.018L12.4998 7.866C12.1868 7.6855 11.9998 7.3615 11.9998 7C11.9998 6.6385 12.1868 6.3145 12.4998 6.134L12.7628 5.982C13.4808 5.567 13.7263 4.651 13.3118 3.933L12.8118 3.067C12.3983 2.3505 11.4788 2.1045 10.7628 2.518L10.4998 2.6695C10.1868 2.8505 9.81232 2.8505 9.49982 2.6695C9.18682 2.4885 8.99982 2.165 8.99982 1.8035V1.5C8.99982 0.673 8.32682 0 7.49982 0H6.49982C5.67282 0 4.99981 0.673 4.99981 1.5V1.804C4.99981 2.1655 4.81281 2.489 4.49981 2.67C4.18681 2.8505 3.81281 2.851 3.49981 2.67L3.23681 2.518C2.52081 2.1045 1.60131 2.3505 1.18731 3.067L0.687312 3.933C0.272811 4.651 0.518312 5.5675 1.23631 5.982L1.49981 6.134C1.81281 6.3145 1.99981 6.6385 1.99981 7C1.99981 7.3615 1.81281 7.6855 1.49981 7.866L1.23681 8.018C0.518812 8.4325 0.273311 9.349 0.687812 10.067L1.18781 10.933C1.60181 11.6495 2.52131 11.8955 3.23681 11.482L3.49981 11.3305C3.81281 11.149 4.18681 11.15 4.49981 11.3305C4.81281 11.5115 4.99981 11.835 4.99981 12.1965V12.5C4.99981 13.327 5.67282 14 6.49982 14H7.49982C8.32682 14 8.99982 13.327 8.99982 12.5V12.196C8.99982 11.8345 9.18682 11.511 9.49982 11.33C9.81232 11.1495 10.1868 11.149 10.4998 11.33L10.7628 11.482C11.4788 11.895 12.3983 11.649 12.8118 10.933L13.3118 10.067C13.7263 9.349 13.4808 8.4325 12.7628 8.018ZM6.99982 9.5C5.62132 9.5 4.49981 8.3785 4.49981 7C4.49981 5.6215 5.62132 4.5 6.99982 4.5C8.37832 4.5 9.49982 5.6215 9.49982 7C9.49982 8.3785 8.37832 9.5 6.99982 9.5Z" fill="white"/>
</svg>
