<svg width="18" height="18" viewBox="0 0 18 18" fill="none" xmlns="http://www.w3.org/2000/svg">
<mask id="path-1-outside-1_31_3325" maskUnits="userSpaceOnUse" x="0" y="0" width="18" height="18" fill="black">
<rect fill="white" width="18" height="18"/>
<path d="M9.50206 17H8.49791C7.68575 17 7.02497 16.3393 7.02497 15.5271V15.1874C6.67969 15.0771 6.34422 14.9378 6.02194 14.771L5.78119 15.0118C5.19809 15.5956 4.26406 15.5785 3.69791 15.0116L2.98819 14.3019C2.42103 13.7353 2.40472 12.8016 2.98837 12.2186L3.22894 11.978C3.06216 11.6557 2.92294 11.3203 2.81259 10.975H2.47291C1.66078 10.975 1 10.3142 1 9.50209V8.49791C1 7.68575 1.66078 7.025 2.47294 7.025H2.81263C2.92297 6.67969 3.06219 6.34425 3.22897 6.02197L2.98822 5.78125C2.40491 5.19856 2.421 4.26475 2.98841 3.69797L3.69819 2.98822C4.26566 2.41997 5.19947 2.40578 5.78144 2.98841L6.02197 3.22894C6.34425 3.06219 6.67972 2.92294 7.025 2.81259V2.47291C7.025 1.66075 7.68575 1 8.49794 1H9.50209C10.3142 1 10.975 1.66075 10.975 2.47291V2.81263C11.3203 2.92294 11.6557 3.06219 11.978 3.22897L12.2188 2.98822C12.8019 2.40441 13.7359 2.42153 14.3021 2.98844L15.0118 3.69812C15.5789 4.26466 15.5953 5.19838 15.0116 5.78141L14.771 6.02197C14.9378 6.34425 15.077 6.67966 15.1874 7.025H15.5271C16.3392 7.025 17 7.68575 17 8.49791V9.50209C17 10.3142 16.3392 10.975 15.5271 10.975H15.1874C15.077 11.3203 14.9378 11.6557 14.771 11.978L15.0118 12.2188C15.5951 12.8015 15.579 13.7353 15.0116 14.3021L14.3018 15.0118C13.7343 15.5801 12.8005 15.5943 12.2186 15.0116L11.978 14.7711C11.6557 14.9378 11.3203 15.0771 10.975 15.1874V15.5272C10.975 16.3392 10.3143 17 9.50206 17V17ZM6.17866 13.7866C6.62637 14.0513 7.10825 14.2514 7.61088 14.3811C7.81788 14.4345 7.9625 14.6212 7.9625 14.835V15.5271C7.9625 15.8223 8.20272 16.0625 8.49794 16.0625H9.50209C9.79731 16.0625 10.0375 15.8223 10.0375 15.5271V14.835C10.0375 14.6212 10.1822 14.4345 10.3892 14.3811C10.8918 14.2514 11.3737 14.0513 11.8214 13.7866C12.0056 13.6776 12.2401 13.7073 12.3915 13.8586L12.8817 14.3489C13.0931 14.5605 13.4325 14.5556 13.6387 14.3491L14.3489 13.6389C14.5546 13.4335 14.5615 13.094 14.3491 12.8819L13.8587 12.3914C13.7073 12.2401 13.6777 12.0055 13.7866 11.8213C14.0514 11.3737 14.2514 10.8918 14.3811 10.3891C14.4346 10.1821 14.6213 10.0375 14.835 10.0375H15.5271C15.8223 10.0375 16.0625 9.79734 16.0625 9.50212V8.49794C16.0625 8.20272 15.8223 7.96253 15.5271 7.96253H14.835C14.6212 7.96253 14.4346 7.81791 14.3811 7.61094C14.2514 7.10828 14.0514 6.62641 13.7866 6.17872C13.6777 5.99453 13.7073 5.75997 13.8587 5.60866L14.3489 5.11837C14.5609 4.90669 14.5553 4.56731 14.3491 4.36134L13.639 3.65119C13.4331 3.44506 13.0936 3.43903 12.8819 3.651L12.3915 4.14147C12.2402 4.29281 12.0056 4.32244 11.8214 4.2135C11.3737 3.94872 10.8918 3.74869 10.3892 3.61897C10.1822 3.56556 10.0376 3.37887 10.0376 3.16509V2.47291C10.0376 2.17769 9.79734 1.9375 9.50212 1.9375H8.49797C8.20275 1.9375 7.96253 2.17769 7.96253 2.47291V3.16503C7.96253 3.37881 7.81791 3.5655 7.61091 3.61891C7.10828 3.74863 6.62641 3.94866 6.17869 4.21344C5.99444 4.32234 5.75991 4.29272 5.60859 4.14141L5.11834 3.65112C4.90697 3.4395 4.5675 3.44441 4.36134 3.65091L3.65112 4.36109C3.44544 4.56653 3.43856 4.906 3.65094 5.11812L4.14141 5.60859C4.29272 5.75991 4.32234 5.99447 4.21344 6.17866C3.94866 6.62634 3.74866 7.10822 3.61894 7.61088C3.5655 7.81788 3.37881 7.96247 3.16506 7.96247H2.47294C2.17772 7.9625 1.9375 8.20269 1.9375 8.49791V9.50209C1.9375 9.79731 2.17772 10.0375 2.47294 10.0375H3.16503C3.37881 10.0375 3.56547 10.1821 3.61891 10.3891C3.74863 10.8917 3.94866 11.3736 4.21341 11.8213C4.32231 12.0055 4.29269 12.2401 4.14138 12.3914L3.65109 12.8817C3.43916 13.0933 3.44469 13.4327 3.65091 13.6387L4.36106 14.3488C4.56691 14.555 4.90641 14.561 5.11809 14.349L5.60853 13.8586C5.72003 13.7471 5.952 13.6525 6.17866 13.7866V13.7866Z"/>
</mask>
<path d="M9.50206 17H8.49791C7.68575 17 7.02497 16.3393 7.02497 15.5271V15.1874C6.67969 15.0771 6.34422 14.9378 6.02194 14.771L5.78119 15.0118C5.19809 15.5956 4.26406 15.5785 3.69791 15.0116L2.98819 14.3019C2.42103 13.7353 2.40472 12.8016 2.98837 12.2186L3.22894 11.978C3.06216 11.6557 2.92294 11.3203 2.81259 10.975H2.47291C1.66078 10.975 1 10.3142 1 9.50209V8.49791C1 7.68575 1.66078 7.025 2.47294 7.025H2.81263C2.92297 6.67969 3.06219 6.34425 3.22897 6.02197L2.98822 5.78125C2.40491 5.19856 2.421 4.26475 2.98841 3.69797L3.69819 2.98822C4.26566 2.41997 5.19947 2.40578 5.78144 2.98841L6.02197 3.22894C6.34425 3.06219 6.67972 2.92294 7.025 2.81259V2.47291C7.025 1.66075 7.68575 1 8.49794 1H9.50209C10.3142 1 10.975 1.66075 10.975 2.47291V2.81263C11.3203 2.92294 11.6557 3.06219 11.978 3.22897L12.2188 2.98822C12.8019 2.40441 13.7359 2.42153 14.3021 2.98844L15.0118 3.69812C15.5789 4.26466 15.5953 5.19838 15.0116 5.78141L14.771 6.02197C14.9378 6.34425 15.077 6.67966 15.1874 7.025H15.5271C16.3392 7.025 17 7.68575 17 8.49791V9.50209C17 10.3142 16.3392 10.975 15.5271 10.975H15.1874C15.077 11.3203 14.9378 11.6557 14.771 11.978L15.0118 12.2188C15.5951 12.8015 15.579 13.7353 15.0116 14.3021L14.3018 15.0118C13.7343 15.5801 12.8005 15.5943 12.2186 15.0116L11.978 14.7711C11.6557 14.9378 11.3203 15.0771 10.975 15.1874V15.5272C10.975 16.3392 10.3143 17 9.50206 17V17ZM6.17866 13.7866C6.62637 14.0513 7.10825 14.2514 7.61088 14.3811C7.81788 14.4345 7.9625 14.6212 7.9625 14.835V15.5271C7.9625 15.8223 8.20272 16.0625 8.49794 16.0625H9.50209C9.79731 16.0625 10.0375 15.8223 10.0375 15.5271V14.835C10.0375 14.6212 10.1822 14.4345 10.3892 14.3811C10.8918 14.2514 11.3737 14.0513 11.8214 13.7866C12.0056 13.6776 12.2401 13.7073 12.3915 13.8586L12.8817 14.3489C13.0931 14.5605 13.4325 14.5556 13.6387 14.3491L14.3489 13.6389C14.5546 13.4335 14.5615 13.094 14.3491 12.8819L13.8587 12.3914C13.7073 12.2401 13.6777 12.0055 13.7866 11.8213C14.0514 11.3737 14.2514 10.8918 14.3811 10.3891C14.4346 10.1821 14.6213 10.0375 14.835 10.0375H15.5271C15.8223 10.0375 16.0625 9.79734 16.0625 9.50212V8.49794C16.0625 8.20272 15.8223 7.96253 15.5271 7.96253H14.835C14.6212 7.96253 14.4346 7.81791 14.3811 7.61094C14.2514 7.10828 14.0514 6.62641 13.7866 6.17872C13.6777 5.99453 13.7073 5.75997 13.8587 5.60866L14.3489 5.11837C14.5609 4.90669 14.5553 4.56731 14.3491 4.36134L13.639 3.65119C13.4331 3.44506 13.0936 3.43903 12.8819 3.651L12.3915 4.14147C12.2402 4.29281 12.0056 4.32244 11.8214 4.2135C11.3737 3.94872 10.8918 3.74869 10.3892 3.61897C10.1822 3.56556 10.0376 3.37887 10.0376 3.16509V2.47291C10.0376 2.17769 9.79734 1.9375 9.50212 1.9375H8.49797C8.20275 1.9375 7.96253 2.17769 7.96253 2.47291V3.16503C7.96253 3.37881 7.81791 3.5655 7.61091 3.61891C7.10828 3.74863 6.62641 3.94866 6.17869 4.21344C5.99444 4.32234 5.75991 4.29272 5.60859 4.14141L5.11834 3.65112C4.90697 3.4395 4.5675 3.44441 4.36134 3.65091L3.65112 4.36109C3.44544 4.56653 3.43856 4.906 3.65094 5.11812L4.14141 5.60859C4.29272 5.75991 4.32234 5.99447 4.21344 6.17866C3.94866 6.62634 3.74866 7.10822 3.61894 7.61088C3.5655 7.81788 3.37881 7.96247 3.16506 7.96247H2.47294C2.17772 7.9625 1.9375 8.20269 1.9375 8.49791V9.50209C1.9375 9.79731 2.17772 10.0375 2.47294 10.0375H3.16503C3.37881 10.0375 3.56547 10.1821 3.61891 10.3891C3.74863 10.8917 3.94866 11.3736 4.21341 11.8213C4.32231 12.0055 4.29269 12.2401 4.14138 12.3914L3.65109 12.8817C3.43916 13.0933 3.44469 13.4327 3.65091 13.6387L4.36106 14.3488C4.56691 14.555 4.90641 14.561 5.11809 14.349L5.60853 13.8586C5.72003 13.7471 5.952 13.6525 6.17866 13.7866V13.7866Z" fill="black"/>
<path d="M9.50206 17H8.49791C7.68575 17 7.02497 16.3393 7.02497 15.5271V15.1874C6.67969 15.0771 6.34422 14.9378 6.02194 14.771L5.78119 15.0118C5.19809 15.5956 4.26406 15.5785 3.69791 15.0116L2.98819 14.3019C2.42103 13.7353 2.40472 12.8016 2.98837 12.2186L3.22894 11.978C3.06216 11.6557 2.92294 11.3203 2.81259 10.975H2.47291C1.66078 10.975 1 10.3142 1 9.50209V8.49791C1 7.68575 1.66078 7.025 2.47294 7.025H2.81263C2.92297 6.67969 3.06219 6.34425 3.22897 6.02197L2.98822 5.78125C2.40491 5.19856 2.421 4.26475 2.98841 3.69797L3.69819 2.98822C4.26566 2.41997 5.19947 2.40578 5.78144 2.98841L6.02197 3.22894C6.34425 3.06219 6.67972 2.92294 7.025 2.81259V2.47291C7.025 1.66075 7.68575 1 8.49794 1H9.50209C10.3142 1 10.975 1.66075 10.975 2.47291V2.81263C11.3203 2.92294 11.6557 3.06219 11.978 3.22897L12.2188 2.98822C12.8019 2.40441 13.7359 2.42153 14.3021 2.98844L15.0118 3.69812C15.5789 4.26466 15.5953 5.19838 15.0116 5.78141L14.771 6.02197C14.9378 6.34425 15.077 6.67966 15.1874 7.025H15.5271C16.3392 7.025 17 7.68575 17 8.49791V9.50209C17 10.3142 16.3392 10.975 15.5271 10.975H15.1874C15.077 11.3203 14.9378 11.6557 14.771 11.978L15.0118 12.2188C15.5951 12.8015 15.579 13.7353 15.0116 14.3021L14.3018 15.0118C13.7343 15.5801 12.8005 15.5943 12.2186 15.0116L11.978 14.7711C11.6557 14.9378 11.3203 15.0771 10.975 15.1874V15.5272C10.975 16.3392 10.3143 17 9.50206 17V17ZM6.17866 13.7866C6.62637 14.0513 7.10825 14.2514 7.61088 14.3811C7.81788 14.4345 7.9625 14.6212 7.9625 14.835V15.5271C7.9625 15.8223 8.20272 16.0625 8.49794 16.0625H9.50209C9.79731 16.0625 10.0375 15.8223 10.0375 15.5271V14.835C10.0375 14.6212 10.1822 14.4345 10.3892 14.3811C10.8918 14.2514 11.3737 14.0513 11.8214 13.7866C12.0056 13.6776 12.2401 13.7073 12.3915 13.8586L12.8817 14.3489C13.0931 14.5605 13.4325 14.5556 13.6387 14.3491L14.3489 13.6389C14.5546 13.4335 14.5615 13.094 14.3491 12.8819L13.8587 12.3914C13.7073 12.2401 13.6777 12.0055 13.7866 11.8213C14.0514 11.3737 14.2514 10.8918 14.3811 10.3891C14.4346 10.1821 14.6213 10.0375 14.835 10.0375H15.5271C15.8223 10.0375 16.0625 9.79734 16.0625 9.50212V8.49794C16.0625 8.20272 15.8223 7.96253 15.5271 7.96253H14.835C14.6212 7.96253 14.4346 7.81791 14.3811 7.61094C14.2514 7.10828 14.0514 6.62641 13.7866 6.17872C13.6777 5.99453 13.7073 5.75997 13.8587 5.60866L14.3489 5.11837C14.5609 4.90669 14.5553 4.56731 14.3491 4.36134L13.639 3.65119C13.4331 3.44506 13.0936 3.43903 12.8819 3.651L12.3915 4.14147C12.2402 4.29281 12.0056 4.32244 11.8214 4.2135C11.3737 3.94872 10.8918 3.74869 10.3892 3.61897C10.1822 3.56556 10.0376 3.37887 10.0376 3.16509V2.47291C10.0376 2.17769 9.79734 1.9375 9.50212 1.9375H8.49797C8.20275 1.9375 7.96253 2.17769 7.96253 2.47291V3.16503C7.96253 3.37881 7.81791 3.5655 7.61091 3.61891C7.10828 3.74863 6.62641 3.94866 6.17869 4.21344C5.99444 4.32234 5.75991 4.29272 5.60859 4.14141L5.11834 3.65112C4.90697 3.4395 4.5675 3.44441 4.36134 3.65091L3.65112 4.36109C3.44544 4.56653 3.43856 4.906 3.65094 5.11812L4.14141 5.60859C4.29272 5.75991 4.32234 5.99447 4.21344 6.17866C3.94866 6.62634 3.74866 7.10822 3.61894 7.61088C3.5655 7.81788 3.37881 7.96247 3.16506 7.96247H2.47294C2.17772 7.9625 1.9375 8.20269 1.9375 8.49791V9.50209C1.9375 9.79731 2.17772 10.0375 2.47294 10.0375H3.16503C3.37881 10.0375 3.56547 10.1821 3.61891 10.3891C3.74863 10.8917 3.94866 11.3736 4.21341 11.8213C4.32231 12.0055 4.29269 12.2401 4.14138 12.3914L3.65109 12.8817C3.43916 13.0933 3.44469 13.4327 3.65091 13.6387L4.36106 14.3488C4.56691 14.555 4.90641 14.561 5.11809 14.349L5.60853 13.8586C5.72003 13.7471 5.952 13.6525 6.17866 13.7866V13.7866Z" stroke="black" stroke-width="0.2" mask="url(#path-1-outside-1_31_3325)"/>
<path d="M5.4688 8.99999C5.4688 10.9472 7.05284 12.5312 9.00005 12.5312C10.9473 12.5312 12.5313 10.9472 12.5313 8.99999C12.5313 7.05281 10.9473 5.46874 9.00005 5.46874C7.05284 5.46874 5.4688 7.05281 5.4688 8.99999ZM6.5063 8.99999C6.5063 7.62498 7.62501 6.50624 9.00005 6.50624C10.3751 6.50624 11.4938 7.62498 11.4938 8.99999C11.4938 10.375 10.3751 11.4937 9.00005 11.4937C7.62504 11.4937 6.5063 10.375 6.5063 8.99999Z" fill="black" stroke="black" stroke-width="0.1"/>
</svg>
