<svg width="21" height="20" viewBox="0 0 21 20" fill="none" xmlns="http://www.w3.org/2000/svg">
<path d="M13.0791 15.1996L13.1318 14.841L12.8074 14.6794C12.5901 14.5712 12.373 14.4629 12.156 14.3546C10.6146 13.5859 9.07672 12.8188 7.52576 12.0916C7.35631 12.0092 7.18926 12.0226 7.09561 12.0382C6.98872 12.056 6.88898 12.092 6.80743 12.1282C6.64626 12.1996 6.48196 12.3052 6.36328 12.4123L6.35682 12.4182L6.35057 12.4242C5.38383 13.3603 4.29616 13.6613 3.04187 13.2866L3.04123 13.2864C1.83281 12.9271 1.07635 12.093 0.791564 10.8313C0.466334 9.34139 1.14681 7.87714 2.44171 7.17458C3.72945 6.4759 5.26968 6.72021 6.34205 7.80959C6.42202 7.89083 6.49145 7.97443 6.58449 8.10044L6.83677 8.44216L7.21478 8.24843C7.83618 7.92996 8.4563 7.61308 9.07427 7.29729C10.3265 6.6574 11.5699 6.02202 12.7972 5.38709L13.109 5.22577L13.0632 4.87771C12.9119 3.72943 13.0655 2.79877 13.4403 2.10184C13.8108 1.41304 14.4184 0.912294 15.2615 0.646903C16.7849 0.170948 18.4336 0.882552 19.1583 2.35503C19.8656 3.79206 19.4383 5.54838 18.1697 6.50799C17.4507 7.04805 16.6957 7.24496 15.9386 7.1382C15.1715 7.03001 14.3491 6.60185 13.5292 5.79323L13.2708 5.53834L12.9484 5.70513C11.1183 6.65187 9.2541 7.59877 7.45577 8.5122L7.18221 8.65115V8.95799V8.96243V8.96687V8.97131V8.97575V8.98019V8.98462V8.98906V8.99349V8.99792V9.00236V9.00679V9.01122V9.01564V9.02007V9.0245V9.02892V9.03335V9.03777V9.04219V9.04661V9.05103V9.05545V9.05986V9.06428V9.0687V9.07311V9.07752V9.08193V9.08634V9.09075V9.09516V9.09957V9.10398V9.10838V9.11279V9.11719V9.12159V9.12599V9.13039V9.13479V9.13919V9.14359V9.14799V9.15238V9.15678V9.16117V9.16556V9.16995V9.17434V9.17873V9.18312V9.18751V9.1919V9.19628V9.20067V9.20505V9.20943V9.21382V9.2182V9.22258V9.22696V9.23134V9.23571V9.24009V9.24447V9.24884V9.25322V9.25759V9.26196V9.26633V9.2707V9.27507V9.27944V9.28381V9.28818V9.29254V9.29691V9.30127V9.30564V9.31V9.31436V9.31872V9.32309V9.32745V9.3318V9.33616V9.34052V9.34488V9.34923V9.35359V9.35794V9.3623V9.36665V9.371V9.37535V9.3797V9.38405V9.3884V9.39275V9.3971V9.40145V9.40579V9.41014V9.41448V9.41883V9.42317V9.42751V9.43185V9.4362V9.44054V9.44488V9.44922V9.45355V9.45789V9.46223V9.46657V9.4709V9.47524V9.47957V9.48391V9.48824V9.49257V9.49691V9.50124V9.50557V9.5099V9.51423V9.51856V9.52289V9.52722V9.53154V9.53587V9.5402V9.54452V9.54885V9.55317V9.5575V9.56182V9.56614V9.57046V9.57479V9.57911V9.58343V9.58775V9.59207V9.59639V9.60071V9.60503V9.60934V9.61366V9.61798V9.62229V9.62661V9.63093V9.63524V9.63955V9.64387V9.64818V9.65249V9.65681V9.66112V9.66543V9.66974V9.67405V9.67836V9.68267V9.68698V9.69129V9.6956V9.69991V9.70422V9.70853V9.71283V9.71714V9.72145V9.72575V9.73006V9.73436V9.73867V9.74297V9.74728V9.75158V9.75588V9.76019V9.76449V9.76879V9.7731V9.7774V9.7817V9.786V9.7903V9.7946V9.7989V9.8032V9.8075V9.8118V9.8161V9.8204V9.8247V9.829V9.8333V9.83759V9.84189V9.84619V9.85049V9.85478V9.85908V9.86338V9.86767V9.87197V9.87626V9.88056V9.88486V9.88915V9.89345V9.89774V9.90204V9.90633V9.91062V9.91492V9.91921V9.92351V9.9278V9.93209V9.93639V9.94068V9.94497V9.94927V9.95356V9.95785V9.96214V9.96644V9.97073V9.97502V9.97931V9.98361V9.9879V9.99219V9.99648V10.0008V10.0051V10.0094V10.0136V10.0179V10.0222V10.0265V10.0308V10.0351V10.0394V10.0437V10.048V10.0523V10.0566V10.0609V10.0651V10.0694V10.0737V10.078V10.0823V10.0866V10.0909V10.0952V10.0995V10.1038V10.1081V10.1123V10.1166V10.1209V10.1252V10.1295V10.1338V10.1381V10.1424V10.1467V10.151V10.1553V10.1596V10.1638V10.1681V10.1724V10.1767V10.181V10.1853V10.1896V10.1939V10.1982V10.2025V10.2068V10.2111V10.2154V10.2197V10.224V10.2282V10.2325V10.2368V10.2411V10.2454V10.2497V10.254V10.2583V10.2626V10.2669V10.2712V10.2755V10.2798V10.2841V10.2884V10.2927V10.297V10.3013V10.3056V10.3099V10.3142V10.3185V10.3228V10.3271V10.3314V10.3357V10.34V10.3443V10.3486V10.3529V10.3572V10.3615V10.3658V10.3701V10.3744V10.3787V10.383V10.3873V10.3916V10.3959V10.4002V10.4045V10.4088V10.4131V10.4174V10.4217V10.426V10.4303V10.4347V10.439V10.4433V10.4476V10.4519V10.4562V10.4605V10.4648V10.4691V10.4734V10.4777V10.4821V10.4864V10.4907V10.495V10.4993V10.5036V10.5079V10.5123V10.5166V10.5209V10.5252V10.5295V10.5338V10.5382V10.5425V10.5468V10.5511V10.5554V10.5598V10.5641V10.5684V10.5727V10.5771V10.5814V10.5857V10.59V10.5943V10.5987V10.603V10.6073V10.6117V10.616V10.6203V10.6246V10.629V10.6333V10.6376V10.642V10.6463V10.6506V10.655V10.6593V10.6636V10.668V10.6723V10.6766V10.681V10.6853V10.6897V10.694V10.6983V10.7027V10.707V10.7114V10.7157V10.72V10.7244V10.7287V10.7331V10.7374V10.7418V10.7461V10.7505V10.7548V10.7592V10.7635V10.7679V10.7722V10.7766V10.7809V10.7853V10.7896V10.794V10.7983V10.8027V10.8071V10.8114V10.8158V10.8201V10.8245V10.8289V10.8332V10.8376V10.842V10.8463V10.8507V10.8551V10.8594V10.8638V10.8682V10.8725V10.8769V10.8813V10.8857V10.89V10.8944V10.8988V10.9032V10.9075V10.9119V10.9163V10.9207V10.9251V10.9294V10.9338V10.9382V10.9426V10.947V10.9514V10.9557V10.9601V10.9645V10.9689V10.9733V10.9777V10.9821V10.9865V10.9909V10.9953V10.9997V11.0041V11.0085V11.0129V11.0173V11.0217V11.0261V11.0305V11.0349V11.0393V11.0437V11.0481V11.0525V11.0569V11.0613V11.0658V11.0702V11.0746V11.079V11.0834V11.0878V11.0923V11.0967V11.1011V11.1055V11.1099V11.1144V11.1188V11.1232V11.1277V11.1321V11.1365V11.1409V11.1454V11.1498V11.1542V11.1587V11.1631V11.1676V11.172V11.1764V11.1809V11.4904L7.45919 11.6284C8.34615 12.0704 9.24122 12.5124 10.1395 12.9559L10.1791 12.9754C11.091 13.4257 12.0061 13.8776 12.9211 14.3337L13.2738 14.5096L13.5272 14.2077C14.1496 13.4661 14.9343 12.9958 15.7471 12.861C16.551 12.7276 17.4205 12.9152 18.2484 13.5573C19.5139 14.5443 19.8837 16.2949 19.1309 17.7193L19.129 17.7231C18.3757 19.1785 16.7151 19.8446 15.2072 19.3241L15.2072 19.3241L15.2017 19.3223C14.3848 19.0507 13.7901 18.5431 13.4292 17.8612C13.0651 17.1733 12.9214 16.2729 13.0791 15.1996ZM16.2547 0.858841V0.858801H16.2484C14.6282 0.858801 13.3261 2.1709 13.3058 3.79947L13.3058 3.79955C13.2855 5.44956 14.6044 6.81793 16.242 6.83873L16.242 6.83877H16.2484C17.8527 6.83877 19.1673 5.50952 19.2078 3.90448L19.2078 3.90448L19.2079 3.89802C19.2283 2.24351 17.8878 0.879579 16.2547 0.858841ZM3.96095 13.0938L3.96095 13.0939H3.96738C5.59767 13.0939 6.90655 11.8059 6.92693 10.1704L6.92693 10.1704C6.94717 8.52592 5.66905 7.15559 4.01384 7.11407L4.01385 7.11404L4.00782 7.11396C2.39692 7.09298 1.02476 8.48176 1.02476 10.1125H1.02472L1.0248 10.1187C1.04505 11.7441 2.3426 13.073 3.96095 13.0938ZM19.1909 16.1547L19.1909 16.1545C19.1706 14.5465 17.8562 13.2004 16.2549 13.1795L16.2548 13.1795C14.6226 13.1585 13.2888 14.5345 13.2888 16.1781H13.2887L13.2888 16.1842C13.309 17.8233 14.6045 19.1594 16.2314 19.1594C17.8855 19.1594 19.2113 17.8101 19.1909 16.1547Z" fill="white" stroke="#4F4F4F"/>
</svg>
