<svg width="22" height="22" viewBox="0 0 22 22" fill="none" xmlns="http://www.w3.org/2000/svg">
<path d="M0.0449219 6.00719C0.179984 5.69205 0.225005 5.33188 0.405088 5.01674C0.945337 4.11632 1.75571 3.66611 2.79119 3.62109C3.64658 3.62109 4.50198 3.62109 5.35737 3.62109C5.94264 3.62109 6.34783 3.98126 6.34783 4.52151C6.34783 5.06176 5.94264 5.42192 5.35737 5.42192C4.50198 5.42192 3.6916 5.42192 2.83621 5.42192C2.20592 5.42192 1.84575 5.78209 1.84575 6.41238C1.84575 10.5543 1.84575 14.6962 1.84575 18.8381C1.84575 19.4684 2.20592 19.8286 2.83621 19.8286C8.19368 19.8286 13.5061 19.8286 18.8636 19.8286C19.4939 19.8286 19.854 19.4684 19.854 18.8381C19.854 16.497 19.854 14.1559 19.854 11.8149C19.854 11.3196 20.0792 10.9595 20.4843 10.8694C21.0696 10.6894 21.6549 11.0945 21.6549 11.7248C21.6549 12.4001 21.6549 13.0755 21.6549 13.7508C21.6549 15.4165 21.6099 17.0823 21.6549 18.7481C21.6999 20.3688 20.5294 21.4493 19.3588 21.5844C19.3588 21.5844 19.3138 21.5844 19.3138 21.6294C13.6862 21.6294 8.05862 21.6294 2.43102 21.6294C2.386 21.6294 2.386 21.5844 2.34098 21.5844C1.53061 21.4493 0.855295 20.9991 0.450108 20.2788C0.270025 19.9636 0.179984 19.6035 0.0899428 19.2433C0.044922 14.8313 0.0449219 10.4192 0.0449219 6.00719Z" fill="white"/>
<path d="M0.0450209 19.2852C0.180083 19.6453 0.270124 20.0055 0.405187 20.3206C0.810373 21.041 1.44066 21.4912 2.29606 21.6262C2.34108 21.6262 2.34108 21.6713 2.3861 21.6713C1.57573 21.6713 0.810373 21.6713 0 21.6713C0.0450208 20.8609 0.0450209 20.0505 0.0450209 19.2852Z" fill="white"/>
<path d="M14.4512 9.96759C11.4348 9.69747 8.64351 10.823 6.97774 13.6143C6.8877 13.7493 6.84268 13.8844 6.75264 14.0195C6.57255 14.2896 6.30243 14.4697 5.98728 14.3796C5.67214 14.2896 5.44703 14.0645 5.44703 13.7043C5.44703 12.7139 5.40201 11.7234 5.62712 10.7329C6.12235 8.34685 7.38293 6.45598 9.40886 5.06033C10.8495 4.06988 12.4703 3.61967 14.2261 3.61967C14.2711 3.61967 14.3161 3.61967 14.4062 3.61967C14.4062 3.61967 14.4512 3.61967 14.4962 3.61967C14.4962 3.57465 14.4962 3.48461 14.4962 3.39456C14.4962 2.53917 14.4962 1.68378 14.4962 0.783362C14.4962 0.513237 14.5862 0.288133 14.8114 0.10805C15.0815 -0.0720334 15.4416 -0.0270121 15.7118 0.243112C16.4771 1.05349 17.2425 1.81884 18.0078 2.62921C19.1333 3.79975 20.3039 5.01531 21.4294 6.18585C21.7896 6.54602 21.7896 6.90618 21.4294 7.26635C19.5385 9.24726 17.6477 11.2282 15.7568 13.1641C15.5767 13.3892 15.3516 13.5242 15.0365 13.4342C14.6763 13.3892 14.4962 13.074 14.4962 12.6688C14.4962 11.8134 14.4962 10.958 14.4962 10.1027C14.4512 10.1477 14.4512 10.0576 14.4512 9.96759Z" fill="white"/>
</svg>
