<svg width="17" height="18" viewBox="0 0 17 18" fill="none" xmlns="http://www.w3.org/2000/svg">
<path d="M13.3962 18C13.0559 17.8996 12.6966 17.8393 12.3778 17.6918C10.9771 17.0427 10.2748 15.5324 10.6517 14.038C10.6618 13.9983 10.6715 13.9587 10.6852 13.9037C10.6385 13.8768 10.5909 13.8469 10.5407 13.8209C8.99255 13.0301 7.44305 12.2419 5.89795 11.4453C5.76233 11.3753 5.70332 11.4 5.61394 11.5105C4.73065 12.6003 3.29915 12.9715 1.98258 12.4598C0.734701 11.975 -0.0948712 10.6981 0.00860503 9.33353C0.108559 8.01828 0.787099 7.06542 2.01737 6.58855C3.27625 6.10023 4.42286 6.37191 5.4017 7.30452C5.50958 7.40755 5.57607 7.42517 5.70773 7.34547C7.33605 6.36002 8.96833 5.38162 10.5993 4.40146C10.649 4.37151 10.6979 4.34025 10.7578 4.30327C10.4271 3.38739 10.4778 2.49353 10.9414 1.63974C11.3069 0.966925 11.8555 0.483009 12.5741 0.21309C14.0779 -0.351847 15.6864 0.235986 16.4798 1.62741C17.2231 2.93077 16.8977 4.62778 15.7229 5.60398C14.5693 6.56257 12.6072 6.67838 11.2976 5.22002C11.2505 5.24644 11.1999 5.2733 11.1506 5.3028C9.51918 6.28252 7.88865 7.26401 6.25417 8.23933C6.12912 8.31374 6.10094 8.37495 6.15113 8.51365C6.35456 9.0733 6.37658 9.64793 6.23612 10.2248C6.20045 10.3709 6.22907 10.4396 6.36557 10.5088C7.90054 11.2864 9.43199 12.0715 10.9643 12.8544C11.0264 12.8861 11.0898 12.9156 11.1576 12.9482C11.2844 12.8134 11.3998 12.673 11.5328 12.5519C12.4438 11.721 13.505 11.4546 14.6754 11.8315C15.8585 12.2128 16.5842 13.0547 16.8211 14.2784C17.1584 16.0229 15.9259 17.7164 14.1624 17.9652C14.117 17.9718 14.073 17.9881 14.0285 18C13.8181 18 13.6072 18 13.3962 18ZM13.7111 1.05103C12.5491 1.05191 11.5997 2.00433 11.6028 3.16635C11.6059 4.32088 12.5504 5.26625 13.7053 5.26978C14.8678 5.27374 15.8211 4.32528 15.8224 3.16326C15.8242 2.00125 14.8735 1.05015 13.7111 1.05103ZM3.16177 7.41592C1.99975 7.41548 1.04909 8.36658 1.05085 9.5286C1.05262 10.6836 1.99623 11.6294 3.15076 11.6347C4.31322 11.6395 5.2674 10.6924 5.27048 9.5308C5.27357 8.36878 4.32423 7.41636 3.16177 7.41592ZM11.6028 14.8372C11.6037 15.9987 12.5565 16.9481 13.719 16.9445C14.874 16.9415 15.8189 15.9965 15.8224 14.842C15.8259 13.68 14.8775 12.7271 13.715 12.7258C12.553 12.7245 11.6019 13.6751 11.6028 14.8372Z" fill="white"/>
</svg>
