<svg width="27" height="27" viewBox="0 0 27 27" fill="none" xmlns="http://www.w3.org/2000/svg">
<path d="M10.5128 26.1992C10.1826 26.0341 9.79727 25.924 9.52206 25.7038C8.47629 24.7681 8.83405 23.0619 10.1275 22.5665C10.2101 22.539 10.2651 22.5115 10.3477 22.4564C10.045 22.4564 9.7147 22.4564 9.41198 22.4564C8.44877 22.4564 7.98092 22.0436 7.78828 21.1079C6.96267 16.8698 6.16457 12.6316 5.33896 8.39348C5.28392 8.06323 5.1188 7.92563 4.78855 7.92563C4.59591 7.92563 4.43079 7.92563 4.23814 7.92563C4.15558 7.92563 4.0455 7.98068 4.01798 8.03572C3.79782 8.2834 3.52261 8.39348 3.19237 8.39348C2.47684 8.39348 1.73379 8.39348 1.01826 8.39348C0.412806 8.39348 0 7.98067 0 7.45779C0 6.90738 0.412806 6.52209 1.04578 6.52209C1.76131 6.52209 2.47684 6.52209 3.19237 6.52209C3.52261 6.52209 3.79782 6.63217 4.01798 6.87986C4.07302 6.9349 4.15558 6.96242 4.23814 6.96242C4.40327 6.96242 4.59591 6.96242 4.78855 6.96242C5.58664 6.96242 6.10953 7.43027 6.27465 8.20084C6.4673 9.19157 6.65994 10.1548 6.85258 11.173C7.87084 11.173 8.91661 11.173 9.93487 11.173C10.1 11.9711 10.2376 12.7142 10.4027 13.5123C9.35694 13.5123 8.33869 13.5123 7.29291 13.5123C7.34795 13.7875 7.37547 14.0627 7.45803 14.3104C7.48555 14.3654 7.62315 14.448 7.70572 14.448C8.58637 14.448 9.4395 14.448 10.3202 14.448C10.5403 14.448 10.6229 14.503 10.6779 14.7232C10.788 15.4112 10.9531 16.0717 11.0907 16.7872C10.045 16.7872 9.0267 16.7872 7.9534 16.7872C8.00844 17.0899 8.03596 17.3651 8.11852 17.6128C8.14604 17.6679 8.28364 17.7229 8.36621 17.7229C9.24686 17.7229 10.1275 17.7229 11.0082 17.7229C11.2283 17.7229 11.3109 17.7779 11.3384 17.9981C11.421 18.521 11.5311 19.0439 11.6687 19.6218C10.5954 19.6218 9.5771 19.6218 8.50381 19.6218C8.61389 20.1172 8.69645 20.6125 8.77901 21.0804C8.83405 21.3556 8.99917 21.4932 9.27438 21.4932C9.35694 21.4932 9.46702 21.4932 9.54958 21.4932C14.2556 21.4932 18.9616 21.4932 23.6676 21.4932C23.7501 21.4932 23.8602 21.4932 23.9428 21.4932C24.1904 21.5207 24.3556 21.6858 24.3831 21.906C24.4106 22.1537 24.2455 22.3463 23.9978 22.4014C23.9152 22.4289 23.8052 22.4014 23.7226 22.4014C22.6768 22.4014 21.6586 22.4014 20.6128 22.4289C20.6678 22.4564 20.7229 22.4839 20.7779 22.4839C21.576 22.7591 22.0989 23.5022 22.0714 24.3003C22.0438 25.1534 21.4659 25.8689 20.6403 26.0891C20.5853 26.0891 20.5577 26.1166 20.5027 26.1441C20.3101 26.1441 20.0899 26.1441 19.8973 26.1441C19.8422 26.1166 19.8147 26.0891 19.7597 26.0891C18.934 25.8689 18.3836 25.1809 18.3561 24.3553C18.3286 23.5022 18.824 22.7867 19.6496 22.4839C19.7046 22.4564 19.7597 22.4564 19.8147 22.4014C16.9526 22.4014 14.118 22.4014 11.2283 22.4014C11.3659 22.4564 11.4485 22.4564 11.5035 22.4839C12.2466 22.7867 12.6594 23.3371 12.7144 24.1076C12.7695 24.8507 12.4392 25.4561 11.8063 25.8414C11.6136 25.9515 11.3659 26.0341 11.1458 26.1166C10.8981 26.1992 10.7054 26.1992 10.5128 26.1992Z" fill="#FF9F00"/>
<path d="M26.2545 11.861C26.0894 12.3564 25.9242 12.8243 25.7866 13.3196C25.7316 13.5123 25.649 13.5673 25.4564 13.5673C24.5482 13.5673 23.6125 13.5673 22.7043 13.5673C22.6218 13.5673 22.5392 13.5673 22.4291 13.5673C22.5943 12.7692 22.7319 12.0262 22.897 11.2281C22.9795 11.2281 23.0621 11.2006 23.1171 11.2006C23.9428 11.2006 24.7959 11.2006 25.6215 11.2006C25.8967 11.2006 26.1169 11.2831 26.2545 11.5583C26.2545 11.6684 26.2545 11.7785 26.2545 11.861Z" fill="#FF9F00"/>
<path d="M11.2834 0C15.0261 0 18.7689 0 22.5117 0C22.5117 3.41253 22.5117 6.82506 22.5117 10.2651C18.7689 10.2651 15.0537 10.2651 11.2834 10.2651C11.2834 6.85258 11.2834 3.44005 11.2834 0ZM16.87 7.45803C17.9433 7.45803 18.9891 7.45803 20.0624 7.45803C20.7229 7.45803 21.0806 7.10027 21.0806 6.43978C21.0806 5.2564 21.0806 4.0455 21.0806 2.86213C21.0806 2.20164 20.7229 1.84387 20.0624 1.84387C17.9433 1.84387 15.7967 1.84387 13.6776 1.84387C13.0447 1.84387 12.6594 2.20164 12.6594 2.86213C12.6594 4.0455 12.6594 5.22888 12.6594 6.41226C12.6594 7.07275 13.0171 7.43051 13.6776 7.43051C14.7509 7.48555 15.8242 7.45803 16.87 7.45803Z" fill="#FF9F00"/>
<path d="M15.9347 13.5402C14.3936 13.5402 12.9075 13.5402 11.3663 13.5402C11.2012 12.7697 11.0636 11.9991 10.8985 11.2285C12.6048 11.2285 14.256 11.2285 15.9347 11.2285C15.9347 11.9991 15.9347 12.7697 15.9347 13.5402Z" fill="#FF9F00"/>
<path d="M16.8971 13.5402C16.8971 12.7421 16.8971 11.9991 16.8971 11.2285C18.5758 11.2285 20.2271 11.2285 21.9333 11.2285C21.7682 11.9991 21.6306 12.7697 21.4655 13.5402C19.9243 13.5402 18.4107 13.5402 16.8971 13.5402Z" fill="#FF9F00"/>
<path d="M15.9343 14.5031C15.9343 15.2736 15.9343 16.0442 15.9343 16.8148C14.6409 16.8148 13.3474 16.8148 12.0264 16.8148C11.8613 16.0442 11.7237 15.3011 11.5586 14.5031C13.0171 14.5031 14.4757 14.5031 15.9343 14.5031Z" fill="#FF9F00"/>
<path d="M21.2728 14.531C21.1077 15.3016 20.9701 16.0721 20.805 16.8427C19.5115 16.8427 18.1906 16.8427 16.8971 16.8427C16.8971 16.0721 16.8971 15.3291 16.8971 14.531C18.3557 14.531 19.7867 14.531 21.2728 14.531Z" fill="#FF9F00"/>
<path d="M10.2931 10.2653C9.99034 10.2653 9.68761 10.2653 9.38489 10.2653C9.38489 10.1828 9.38489 10.1002 9.38489 10.0176C9.38489 7.15551 9.38489 4.29339 9.38489 1.43127C9.38489 0.770777 9.71513 0.275407 10.2931 0.0827637C10.2931 3.4953 10.2931 6.88031 10.2931 10.2653Z" fill="#FF9F00"/>
<path d="M21.7691 16.8427C21.9342 16.0721 22.0718 15.3566 22.2094 14.6411C22.2094 14.586 22.3195 14.531 22.3745 14.531C23.3928 14.531 24.3835 14.531 25.4293 14.531C25.3742 14.7512 25.3192 14.9163 25.2642 15.1089C25.099 15.6318 24.9614 16.1822 24.7688 16.7051C24.7413 16.7602 24.6587 16.8702 24.6037 16.8702C23.668 16.8427 22.7323 16.8427 21.7691 16.8427Z" fill="#FF9F00"/>
<path d="M12.5764 19.6219C12.4663 19.0165 12.3287 18.411 12.2186 17.7781C13.457 17.7781 14.6955 17.7781 15.9339 17.7781C15.9339 18.3835 15.9339 18.989 15.9339 19.6219C14.8331 19.6219 13.7047 19.6219 12.5764 19.6219Z" fill="#FF9F00"/>
<path d="M20.2546 19.6494C19.1262 19.6494 18.0254 19.6494 16.8971 19.6494C16.8971 19.044 16.8971 18.4385 16.8971 17.8055C18.1355 17.8055 19.3739 17.8055 20.6124 17.8055C20.5023 18.411 20.3647 19.0164 20.2546 19.6494Z" fill="#FF9F00"/>
<path d="M24.4381 17.7781C24.273 18.3285 24.1354 18.8514 23.9703 19.3467C23.9152 19.5394 23.7501 19.6495 23.5299 19.6495C22.7594 19.6495 21.9888 19.6495 21.1907 19.6495C21.2733 19.2367 21.3558 18.8238 21.4384 18.411C21.576 17.7781 21.576 17.7781 22.2365 17.7781C22.8695 17.7781 23.5024 17.7781 24.1354 17.7781C24.2179 17.7781 24.3005 17.7781 24.4381 17.7781Z" fill="#FF9F00"/>
<path d="M13.6226 2.80688C15.7967 2.80688 17.9708 2.80688 20.145 2.80688C20.145 4.0453 20.145 5.28372 20.145 6.52214C17.9708 6.52214 15.7967 6.52214 13.6226 6.52214C13.6226 5.28372 13.6226 4.07282 13.6226 2.80688Z" fill="#FF9F00"/>
</svg>
