<svg width="16" height="15" viewBox="0 0 16 15" fill="none" xmlns="http://www.w3.org/2000/svg">
<path d="M16 4.32036C16 4.58094 16 4.84092 16 5.1015C15.9909 5.14645 15.9775 5.19079 15.9733 5.23635C15.8943 6.06183 15.6258 6.82657 15.2298 7.5488C14.6819 8.5474 13.9585 9.41358 13.1688 10.2257C11.7001 11.7351 10.1092 13.1128 8.5184 14.4898C8.17035 14.7911 7.81075 14.7801 7.45177 14.4655C6.33594 13.4869 5.21828 12.5102 4.11035 11.5231C3.27393 10.7785 2.46181 10.0082 1.74627 9.14145C0.86733 8.07604 0.216175 6.90554 0.0479196 5.50726C-0.0741719 4.49772 0.0242301 3.52038 0.491944 2.60622C1.2907 1.04454 2.58633 0.183214 4.31869 0.0222477C5.64409 -0.101059 6.83524 0.301054 7.87636 1.13079C7.97415 1.20854 8.03064 1.20429 8.12479 1.12836C8.92719 0.479028 9.84683 0.10182 10.8728 0.0179962C11.9394 -0.0694724 12.9429 0.160132 13.8485 0.745686C14.8368 1.38408 15.4971 2.27274 15.8129 3.4074C15.8961 3.70625 15.9387 4.01604 16 4.32036ZM8.96485 5.90269C8.96485 5.24485 8.96485 4.61131 8.96485 3.97291C8.31491 3.97291 7.67834 3.97291 7.0284 3.97291C7.0284 4.61799 7.0284 5.25092 7.0284 5.90451C6.37785 5.90451 5.74067 5.90451 5.10348 5.90451C5.10348 6.55688 5.10348 7.1892 5.10348 7.83489C5.74856 7.83489 6.3821 7.83489 7.03386 7.83489C7.03386 8.48605 7.03386 9.12384 7.03386 9.76224C7.68563 9.76224 8.31917 9.76224 8.97214 9.76224C8.97214 9.11716 8.97214 8.47997 8.97214 7.82882C9.62451 7.82882 10.2574 7.82882 10.8989 7.82882C10.8989 7.18191 10.8989 6.54959 10.8989 5.90269C10.2562 5.90269 9.6233 5.90269 8.96485 5.90269Z" fill="#01A358"/>
</svg>
