<svg width="18" height="16" viewBox="0 0 18 16" fill="none" xmlns="http://www.w3.org/2000/svg">
<path d="M17.3888 14.2863C17.4943 14.2971 17.5829 14.3012 17.6694 14.3165C17.8629 14.3518 18.0088 14.5372 17.9996 14.7286C17.9904 14.9252 17.8353 15.0952 17.6407 15.1188C17.5967 15.1239 17.5516 15.1218 17.5066 15.1218C11.8342 15.1218 6.16174 15.1213 0.489832 15.1239C0.285051 15.1239 0.125323 15.0665 0.0388028 14.872C-0.0344062 14.7077 -0.00317705 14.551 0.125323 14.4343C0.19546 14.3708 0.300407 14.3406 0.394606 14.3099C0.452969 14.2909 0.520035 14.2986 0.612698 14.292C0.612698 14.2141 0.612698 14.1409 0.612698 14.0677C0.612698 12.688 0.623962 11.3083 0.607068 9.92859C0.600412 9.36903 0.987447 8.95691 1.54087 8.98609C2.02517 9.01168 2.51153 8.99121 2.99686 8.99172C3.56359 8.99223 3.89687 9.32705 3.89738 9.8989C3.8984 11.2853 3.89789 12.6711 3.89789 14.0575C3.89789 14.1322 3.89789 14.207 3.89789 14.292C4.30694 14.292 4.69398 14.292 5.11378 14.292C5.11378 14.207 5.11378 14.1271 5.11378 14.0472C5.11378 11.8499 5.11326 9.65265 5.11429 7.45484C5.11429 6.9818 5.31753 6.61319 5.71941 6.58094C6.40287 6.52616 7.09605 6.52821 7.78002 6.57889C8.16705 6.60756 8.38617 6.97617 8.38617 7.39187C8.38668 9.61476 8.38668 11.8377 8.38668 14.0605C8.38668 14.1302 8.38668 14.2003 8.38668 14.2858C8.7947 14.2858 9.19249 14.2858 9.61434 14.2858C9.61434 14.21 9.61434 14.1358 9.61434 14.0616C9.61434 12.26 9.61434 10.459 9.61434 8.65741C9.61434 8.09273 9.94045 7.76508 10.5026 7.76457C11.0202 7.76406 11.5372 7.76304 12.0548 7.76508C12.5094 7.76713 12.8417 8.07379 12.8806 8.52635C12.8878 8.60878 12.8872 8.69223 12.8872 8.77516C12.8878 10.5317 12.8878 12.2882 12.8878 14.0452C12.8878 14.121 12.8878 14.1962 12.8878 14.2868C13.2973 14.2868 13.689 14.2868 14.1036 14.2868C14.1036 14.2075 14.1036 14.1327 14.1036 14.058C14.1036 11.3242 14.1036 8.58984 14.1036 5.85602C14.1036 5.21557 14.4272 4.89508 15.0728 4.89508C15.5453 4.89508 16.0183 4.89355 16.4909 4.8956C17.0428 4.89764 17.3878 5.24168 17.3883 5.79407C17.3893 8.54734 17.3888 11.3001 17.3888 14.0534C17.3888 14.1281 17.3888 14.2034 17.3888 14.2863Z" fill="#EE1DCD"/>
<path d="M16.5332 1.01628C16.179 0.946139 15.8605 0.885217 15.5431 0.819175C15.281 0.764396 15.13 0.556032 15.1766 0.323606C15.2236 0.0886207 15.4402 -0.0393672 15.7034 0.010804C15.8098 0.0312821 15.9168 0.0481765 16.0228 0.0691665C16.5286 0.169509 17.0334 0.279067 17.5413 0.36917C17.9181 0.435724 18.0425 0.688116 17.9718 0.992727C17.8259 1.61884 17.7189 2.25417 17.5827 2.88285C17.5116 3.21101 17.1317 3.32722 16.8993 3.10555C16.7559 2.96886 16.7616 2.7994 16.7974 2.62431C16.8552 2.33813 16.9136 2.05195 16.9796 1.72738C16.8788 1.79444 16.8066 1.84052 16.736 1.88915C14.96 3.11272 13.182 4.33372 11.4111 5.56394C11.1787 5.7252 10.9801 5.74056 10.7226 5.62128C9.39867 5.00745 8.06709 4.41051 6.74011 3.80231C6.62441 3.74907 6.53891 3.74754 6.42679 3.81511C4.55356 4.94397 2.67726 6.06821 0.801474 7.19348C0.741575 7.22932 0.68219 7.26771 0.619732 7.29945C0.403688 7.4085 0.166654 7.34143 0.0555603 7.1428C-0.057069 6.94109 0.00333977 6.71532 0.220407 6.58272C0.726727 6.2735 1.23663 5.96992 1.74551 5.66479C3.23887 4.76888 4.73377 3.87604 6.22406 2.975C6.4314 2.84957 6.61366 2.8378 6.8338 2.93916C8.16487 3.55146 9.50004 4.15403 10.8332 4.76222C10.9376 4.80983 11.019 4.83185 11.1296 4.75506C12.8979 3.53098 14.6702 2.31254 16.4416 1.09307C16.461 1.07925 16.479 1.06133 16.5332 1.01628Z" fill="#EE1DCD"/>
</svg>
