<svg width="18" height="17" viewBox="0 0 18 17" fill="none" xmlns="http://www.w3.org/2000/svg">
<path d="M17.4687 9.40942C17.4413 9.58562 17.414 9.76183 17.3888 9.92263C17.1362 9.75798 16.8952 9.5651 16.6238 9.43551C16.4037 9.33073 16.2777 9.21184 16.2033 8.96806C16.1315 8.73241 15.9867 8.49805 15.8153 8.31928C15.6315 8.12768 15.5367 7.93095 15.4969 7.67392C15.3072 6.43708 14.7939 5.34395 13.9914 4.38724C12.9359 3.12945 11.5957 2.33055 9.98548 2.04701C7.85774 1.67194 5.93342 2.17574 4.27789 3.57979C2.96082 4.69688 2.1852 6.12916 1.93862 7.84328C1.91982 7.97415 1.88307 8.0862 1.7758 8.18157C1.47495 8.44887 1.28265 8.78459 1.18692 9.17762C1.1741 9.22937 1.13009 9.28882 1.08393 9.31491C0.911288 9.41199 0.724111 9.48427 0.556593 9.58862C0.393775 9.68998 0.248479 9.81956 0.0736963 9.95342C0.0510471 9.72334 0.0177162 9.50266 0.00874197 9.28112C-0.0955296 6.70994 0.732233 4.48561 2.53263 2.64703C3.82961 1.32253 5.40736 0.497114 7.2398 0.190472C9.64104 -0.211542 11.8504 0.287554 13.8281 1.70529C15.6226 2.99131 16.7619 4.73451 17.255 6.88956C17.3447 7.28089 17.3759 7.68547 17.4358 8.08363C17.4422 8.12768 17.4567 8.17045 17.4674 8.21407C17.4687 8.61267 17.4687 9.01126 17.4687 9.40942Z" fill="white"/>
<path d="M2.15111 15.0135C1.82334 14.9134 1.51694 14.8599 1.24771 14.7295C0.749859 14.4879 0.444309 14.0833 0.435762 13.5076C0.426361 12.8708 0.426361 12.2336 0.435762 11.5963C0.444309 11.0203 0.750286 10.6161 1.24729 10.3741C1.51608 10.2432 1.82291 10.1902 2.15069 10.0901C2.15069 10.0285 2.15881 9.91687 2.1494 9.8061C2.06821 8.83143 3.02204 8.46449 3.67459 8.6377C4.22843 8.78482 4.52586 9.1616 4.52586 9.73596C4.52628 11.5904 4.52586 13.4448 4.52586 15.2987C4.52586 16.1554 3.83784 16.681 2.99982 16.4646C2.44384 16.3213 2.15069 15.9419 2.15026 15.3663C2.15111 15.2363 2.15111 15.1063 2.15111 15.0135Z" fill="white"/>
<path d="M15.3143 10.1278C15.5173 10.165 15.7105 10.1825 15.8925 10.2373C16.4092 10.3934 16.7989 10.7009 16.9733 11.2312C17.01 11.3424 17.0276 11.4647 17.0288 11.5823C17.0344 12.2251 17.0395 12.8679 17.0297 13.5103C17.0211 14.0864 16.7135 14.4897 16.2156 14.7309C15.9464 14.8613 15.64 14.9148 15.3148 15.0136C15.3148 15.0893 15.3079 15.2129 15.316 15.3352C15.3729 16.2205 14.5614 16.5707 13.9896 16.4993C13.5327 16.4424 13.164 16.2427 12.9999 15.7829C12.9533 15.6529 12.9422 15.505 12.9417 15.3651C12.9379 13.5167 12.9392 11.6679 12.9392 9.81945C12.9392 8.96153 13.5977 8.4372 14.4349 8.63222C14.9212 8.74556 15.3481 9.11036 15.3156 9.74118C15.3088 9.87034 15.3143 10.0004 15.3143 10.1278Z" fill="white"/>
</svg>
