<svg width="18" height="23" viewBox="0 0 18 23" fill="none" xmlns="http://www.w3.org/2000/svg">
<path d="M7.8137 7.71918C7.39361 5.61872 6.97352 4.10639 6.8895 2.59406C6.84749 1.79589 7.22557 0.745662 7.77169 0.283562C8.2758 -0.0945206 9.53608 -0.0945206 10.0402 0.283562C10.6283 0.745662 10.9644 1.8379 10.9224 2.59406C10.8384 4.10639 10.4183 5.61872 9.99817 7.67717C11.9306 7.42511 13.4009 7.42511 14.7872 7.00502C15.9215 6.66895 16.9717 6.66895 17.5178 7.67717C17.8539 8.34931 17.8539 9.48356 17.5178 10.1557C17.0137 11.1639 15.9635 11.2059 14.8292 10.8699C13.4849 10.4918 12.0566 10.4498 10.0402 10.1557C10.3763 13.8525 10.7543 17.1292 10.9224 20.4059C10.9644 21.2041 10.5863 22.2543 9.99817 22.7164C9.49406 23.0945 8.2758 23.0945 7.72968 22.7164C7.18356 22.3384 6.76347 21.2881 6.80548 20.574C7.01553 17.2973 7.39361 14.0205 7.77169 10.1977C5.83927 10.4498 4.32694 10.4918 2.94064 10.8699C1.80639 11.2059 0.756164 11.2059 0.252055 10.1557C-0.0840183 9.48356 -0.0840183 8.34931 0.252055 7.67717C0.756164 6.66895 1.80639 6.66895 2.98265 7.00502C4.36895 7.3831 5.79726 7.42511 7.8137 7.71918Z" fill="#6CD1B4"/>
<path d="M11.9688 15.2778C11.9688 14.2276 11.9688 13.1353 11.9688 11.707C13.145 11.9171 14.1532 12.1271 15.2035 12.2952C15.2455 12.4632 15.3295 12.6312 15.3715 12.8413C14.3633 13.7655 13.3971 14.6897 12.3888 15.6139C12.2628 15.4879 12.1368 15.4038 11.9688 15.2778Z" fill="#6CD1B4"/>
<path d="M5.8793 15.2778C5.8793 14.2276 5.8793 13.1353 5.8793 11.707C4.70305 11.9171 3.69482 12.1271 2.6446 12.2952C2.60259 12.4632 2.51857 12.6312 2.47656 12.8413C3.48478 13.7655 4.45099 14.6897 5.45921 15.6139C5.62725 15.4879 5.75327 15.4038 5.8793 15.2778Z" fill="#6CD1B4"/>
<path d="M13.0142 2.38672C13.7284 3.2269 14.4846 4.10909 15.5348 5.36937C14.0645 5.70544 13.0563 5.95749 11.5859 6.33558C11.838 4.86526 12.048 3.85704 12.2161 2.84882C12.4681 2.68078 12.7622 2.51275 13.0142 2.38672Z" fill="#6CD1B4"/>
<path d="M4.82524 2.38672C4.11108 3.2269 3.35492 4.10909 2.30469 5.36937C3.77501 5.70544 4.78323 5.95749 6.25355 6.33558C6.00149 4.86526 5.79145 3.85704 5.62341 2.84882C5.37135 2.68078 5.1193 2.51275 4.82524 2.38672Z" fill="#6CD1B4"/>
</svg>
