<svg width="61" height="61" viewBox="0 0 61 61" fill="none" xmlns="http://www.w3.org/2000/svg">
<g filter="url(#filter0_d_6_134)">
<rect x="1" y="1" width="57" height="57" rx="10" fill="#E20A62"/>
</g>
<path d="M51.9373 28.7223C51.7454 27.4375 51.1089 26.4078 50.1855 25.5095C48.5272 23.8968 46.9013 22.2511 45.2636 20.6179C45.0657 20.4207 44.8606 20.2347 44.6211 20.0896C43.8587 19.6279 42.8772 19.8244 42.3482 20.5447C41.7724 21.329 41.868 22.2109 42.6516 22.9925C44.1337 24.4706 45.6316 25.9329 47.1184 27.4065C47.2252 27.512 47.3875 27.5892 47.3921 27.7771C47.2503 27.8655 47.1012 27.8286 46.9594 27.8286C44.4411 27.8312 41.9228 27.8213 39.4051 27.8398C38.9757 27.8431 38.8009 27.7092 38.6927 27.2858C38.2191 25.425 37.301 23.8196 35.8281 22.5578C34.6811 21.4536 33.3045 20.767 31.7743 20.3864C31.3924 20.2914 31.2492 20.1391 31.2512 19.738C31.267 17.1604 31.2578 14.582 31.2624 12.0043C31.2624 11.8698 31.2017 11.7121 31.3627 11.5828C31.6206 11.8223 31.8758 12.0591 32.1318 12.2959C33.4556 13.7206 34.8249 15.1011 36.2146 16.4612C36.6401 16.8774 37.1598 17.0964 37.7739 16.9922C38.4764 16.8728 38.9355 16.4533 39.1597 15.795C39.4156 15.0437 39.1472 14.4191 38.6142 13.8835C36.8083 12.0703 35.0036 10.2551 33.1904 8.44913C32.8382 8.09822 32.4497 7.78558 31.9721 7.60947C30.4109 6.64514 28.0614 6.84302 26.423 8.07646C26.1545 8.23608 25.9547 8.47353 25.7383 8.69054C24.2371 10.1924 22.7392 11.6983 21.2406 13.2035C20.9616 13.4838 20.6674 13.7522 20.4154 14.055C19.744 14.8597 19.7697 15.8445 20.457 16.512C21.1384 17.1735 22.1271 17.2276 22.8757 16.5238C24.0485 15.4217 25.2113 14.305 26.2647 13.0834C26.7627 12.6771 27.1453 12.1415 27.7428 11.7055C27.7428 11.9786 27.7428 12.1521 27.7428 12.3255C27.7428 14.5767 27.7428 16.8273 27.7428 19.0784C27.7428 20.2031 27.7428 20.2031 26.6855 20.5441C23.3394 21.6522 21.2287 23.9317 20.3013 27.3128C20.1984 27.6874 20.0546 27.8853 19.6582 27.8418C17.5489 27.8418 15.4395 27.8411 13.3301 27.8411C12.7563 27.8411 12.1831 27.8411 11.6092 27.8411C11.5993 27.8035 11.5901 27.7653 11.5802 27.7277C11.875 27.4137 12.1705 27.0997 12.4654 26.7864C13.834 25.5332 15.1413 24.2167 16.4447 22.8962C16.6597 22.6778 16.8325 22.4199 16.9282 22.1211C17.1683 21.3745 16.8998 20.6034 16.2455 20.1575C15.5358 19.6734 14.739 19.713 14.0365 20.3462C13.4191 20.9029 12.8578 21.5209 12.2721 22.1119C11.7603 22.6106 11.2458 23.1066 10.7372 23.6092C10.0625 24.276 9.41147 24.9679 8.71758 25.6143C7.75787 26.5094 7.24603 27.6241 7 28.8859C7 29.2962 7 29.7065 7 30.1161C7.21239 31.1107 7.50063 32.0849 8.21563 32.8408C9.49985 34.1983 10.8243 35.5168 12.1851 36.799C12.8011 37.421 13.4112 38.0496 14.0372 38.6617C14.2225 38.8431 14.4422 38.9928 14.7021 39.0727C15.5021 39.318 16.2976 39.0291 16.7606 38.3148C17.1947 37.6453 17.1003 36.7852 16.4434 36.1098C15.1209 34.749 13.776 33.4094 12.3757 32.1265C12.1679 31.8983 11.9608 31.6694 11.658 31.3363C12.3031 31.3363 12.8163 31.3363 13.3288 31.3363C15.4382 31.3363 17.5475 31.3356 19.6569 31.3356C20.0533 31.2921 20.2341 31.4768 20.2974 31.8666C20.3726 32.329 20.5434 32.7689 20.7301 33.199C21.9015 35.9007 23.8684 37.733 26.6842 38.634C26.8227 38.6789 26.9593 38.731 27.0997 38.7666C27.7402 38.9295 27.7415 38.9275 27.7415 39.5706C27.7422 41.9669 27.7428 44.3639 27.7389 46.7602C27.7389 46.9119 27.7923 47.0788 27.6465 47.2569C27.1189 46.7444 26.5998 46.2398 26.0807 45.7359C26.0141 45.5663 25.8775 45.4522 25.7548 45.3282C24.8888 44.4582 24.0247 43.5862 23.1521 42.7228C22.9766 42.5494 22.7834 42.3871 22.5756 42.2545C21.8072 41.7645 20.8099 41.9676 20.2776 42.7083C19.711 43.4972 19.8139 44.3613 20.5975 45.1521C22.263 46.8347 23.937 48.5088 25.6097 50.1841C25.7845 50.3596 25.9738 50.5205 26.1565 50.6881C26.2198 50.7481 26.2799 50.8121 26.3458 50.8681C27.1057 51.5119 28.0245 51.7883 28.971 52C29.3813 52 29.7915 52 30.2011 52C30.3271 51.967 30.4518 51.9294 30.5791 51.9017C31.4023 51.7223 32.174 51.4334 32.8098 50.8556C33.2359 50.3787 33.7234 49.9645 34.1712 49.5081C35.5933 48.0583 37.0569 46.65 38.5047 45.226C38.7778 44.9569 39.0232 44.666 39.1511 44.2993C39.4117 43.5552 39.1307 42.742 38.4678 42.2948C37.7383 41.8027 36.896 41.8753 36.1909 42.5612C34.8928 43.825 33.5868 45.0829 32.387 46.4429C32.0078 46.7305 31.74 47.1454 31.3403 47.4073C31.2275 47.3063 31.2585 47.1975 31.2585 47.1005C31.2565 44.5229 31.2618 41.9445 31.2512 39.3668C31.2499 39.0351 31.3792 38.8992 31.6892 38.8378C32.484 38.6815 33.2485 38.4203 33.9463 38.0074C34.5591 37.6446 34.8209 37.055 34.7504 36.365C34.6765 35.6395 34.2814 35.127 33.5657 34.873C32.951 34.6547 32.4213 34.8895 31.8732 35.1072C30.0798 35.8169 28.3233 35.6929 26.6044 34.8486C26.4863 34.7642 26.3716 34.6738 26.2495 34.5953C23.5531 32.8527 22.7313 29.2804 24.3809 26.5239C24.9356 25.5965 25.7265 24.9218 26.6044 24.3281C27.0166 24.0584 27.4935 23.9535 27.9559 23.8275C29.5607 23.3902 31.083 23.6211 32.5216 24.4475C33.5967 25.0656 34.3381 25.9897 34.9397 27.0463C35.1507 27.6828 35.3704 28.3167 35.4508 28.9888C35.4924 29.3344 35.4126 29.6933 35.5643 30.0264C35.8301 30.9227 36.4006 31.3416 37.3953 31.3429C40.4994 31.3475 43.6034 31.3442 46.7074 31.3482C46.875 31.3482 47.0544 31.2967 47.2173 31.4056C47.1916 31.5916 47.0372 31.672 46.9284 31.7802C45.5136 33.1805 44.0928 34.5762 42.6767 35.9752C42.1971 36.4488 41.8779 36.9949 42.0118 37.7007C42.1398 38.3735 42.5401 38.8411 43.1846 39.0641C43.9332 39.3233 44.5638 39.072 45.102 38.5357C46.9383 36.7067 48.7759 34.879 50.6063 33.0446C51.1102 32.5394 51.4611 31.9293 51.686 31.2545C51.8107 30.8812 51.8945 30.4947 51.9967 30.1141C51.9967 29.7038 51.9967 29.2935 51.9967 28.8839C51.9789 28.8312 51.9459 28.7784 51.9373 28.7223Z" fill="white"/>
<defs>
<filter id="filter0_d_6_134" x="0" y="0" width="61" height="61" filterUnits="userSpaceOnUse" color-interpolation-filters="sRGB">
<feFlood flood-opacity="0" result="BackgroundImageFix"/>
<feColorMatrix in="SourceAlpha" type="matrix" values="0 0 0 0 0 0 0 0 0 0 0 0 0 0 0 0 0 0 127 0" result="hardAlpha"/>
<feOffset dx="1" dy="1"/>
<feGaussianBlur stdDeviation="1"/>
<feComposite in2="hardAlpha" operator="out"/>
<feColorMatrix type="matrix" values="0 0 0 0 0 0 0 0 0 0 0 0 0 0 0 0 0 0 0.25 0"/>
<feBlend mode="normal" in2="BackgroundImageFix" result="effect1_dropShadow_6_134"/>
<feBlend mode="normal" in="SourceGraphic" in2="effect1_dropShadow_6_134" result="shape"/>
</filter>
</defs>
</svg>
