<svg width="38" height="34" viewBox="0 0 38 34" fill="none" xmlns="http://www.w3.org/2000/svg">
<path d="M37.0336 16.8985C36.5986 18.107 36.5986 18.107 35.8251 18.8804C36.4052 20.9107 35.8251 22.1676 34.0365 22.8927C34.0365 23.3761 34.1332 23.8595 34.0849 24.3429C33.9399 25.5514 32.9247 26.5182 31.6679 26.5182C30.411 26.5666 29.1542 26.5182 27.8973 26.5182C25.4803 26.5182 23.1116 26.5182 20.6946 26.5182C19.9695 26.5182 19.2444 26.3249 18.5193 25.9865C18.5193 26.1798 18.5193 26.3249 18.5193 26.4699C18.4709 27.05 18.1326 27.4367 17.5525 27.4367C17.0207 27.4367 16.489 27.4367 15.9572 27.4367C15.7155 27.4367 15.6189 27.485 15.5705 27.7267C14.6037 31.4489 11.4133 33.8176 7.59436 33.7693C3.82382 33.6726 0.439988 30.6272 0.0532647 26.8566C-0.430139 22.506 2.42194 18.7838 6.77257 18.0587C7.06261 18.0103 7.35266 18.0103 7.73938 17.962C7.73938 17.817 7.73938 17.6719 7.73938 17.5269C7.73938 15.7867 7.73938 14.0464 7.73938 12.3062C7.73938 10.9043 8.51283 10.1308 9.9147 10.1308C12.3317 10.1308 14.7487 10.1308 17.1657 10.1308C18.1809 10.1308 18.4709 10.4209 18.4709 11.436C18.4709 11.581 18.4709 11.7261 18.4709 11.8711C19.2927 11.7261 20.0178 11.4844 20.5012 10.7109C21.1297 9.69578 21.8064 8.77731 22.4349 7.76217C23.2083 6.45698 23.4983 5.10344 23.0633 3.55655C22.8699 2.83144 22.8699 2.10634 22.7732 1.3329C22.7732 1.09119 22.7732 0.849492 22.8699 0.60779C22.9666 0.269408 23.2566 0.0760476 23.6434 0.0277072C25.6737 -0.165654 27.1239 0.656129 28.139 2.39638C28.8158 3.55655 29.3475 4.76506 29.2992 6.16693C29.2508 7.13374 28.9608 8.0522 28.5741 8.92233C28.5257 9.06735 28.4774 9.16403 28.3807 9.35739C28.6708 9.35739 28.9125 9.35739 29.1058 9.35739C30.5077 9.35739 31.9096 9.35739 33.3114 9.40573C34.5683 9.40573 35.7768 10.4209 36.1635 11.6777C36.3569 12.4028 36.3569 13.1279 36.0668 13.853C36.0185 13.9497 36.0185 14.1431 36.0668 14.1914C36.5502 14.6748 36.7919 15.2549 36.9853 15.9317C37.0336 16.3184 37.0336 16.6084 37.0336 16.8985ZM24.0301 1.3329C24.0301 1.47792 24.0301 1.5746 24.0301 1.71962C24.1268 2.34804 24.1751 2.92812 24.3201 3.55655C24.7552 5.20012 24.4651 6.74701 23.6434 8.19723C23.1116 9.11569 22.4832 10.0342 21.9031 10.9526C21.2263 12.0645 20.3562 12.8862 19.0027 13.0796H18.9543C18.6643 13.1279 18.5676 13.273 18.5676 13.6113C18.5676 16.9952 18.5676 20.379 18.5676 23.7628C18.5676 24.778 18.6643 24.923 19.6795 25.2614C19.9695 25.3581 20.3079 25.4064 20.6463 25.4064C24.2234 25.4064 27.849 25.4064 31.4262 25.4064C32.0546 25.4064 32.5863 25.1647 32.828 24.5363C33.1181 23.9078 32.973 23.3761 32.4896 22.8927C32.2963 22.6993 32.1996 22.4576 32.3446 22.1676C32.4896 21.9259 32.683 21.8292 32.973 21.8292C33.6982 21.8775 34.3266 21.6358 34.665 20.9591C35.0517 20.3307 34.955 19.6539 34.5199 19.0738C34.2299 18.6871 34.3266 18.3487 34.7616 18.107C36.1635 17.3336 36.2602 15.835 34.955 14.9165C34.5683 14.6748 34.5683 14.3848 34.7616 13.9981C34.955 13.6597 35.1 13.3213 35.1484 12.9829C35.3417 11.7744 34.3749 10.7109 33.2148 10.6626C32.683 10.6626 32.1513 10.6142 31.5712 10.6142C30.556 10.6142 29.5409 10.6142 28.5257 10.6142C27.8006 10.6142 27.2689 10.1792 27.2689 9.50241C27.2689 9.21237 27.3656 8.92233 27.5106 8.63229C28.0423 7.47212 28.3807 6.26361 28.0423 5.00676C27.7523 3.99161 27.2689 3.07315 26.5921 2.25136C25.9637 1.52625 25.0452 1.23621 24.0301 1.3329ZM7.93274 32.6575C11.655 32.6575 14.7004 29.612 14.7004 25.8898C14.7004 22.1676 11.655 19.1705 7.8844 19.1705C4.21053 19.1705 1.16509 22.2159 1.16509 25.8898C1.21343 29.6603 4.25888 32.6575 7.93274 32.6575Z" fill="#F3AC35"/>
<path d="M13.2504 24.9707C13.2021 25.0674 13.1054 25.2608 12.9604 25.4058C12.332 25.9859 11.6552 26.6143 11.0268 27.1944C10.8818 27.3394 10.8334 27.4361 10.8818 27.6778C11.0751 28.5479 11.2201 29.3697 11.4135 30.2398C11.4618 30.5299 11.4618 30.7716 11.2201 30.965C10.9784 31.1583 10.7367 31.0616 10.495 30.9166C9.72159 30.4815 8.99648 30.0465 8.22304 29.6114C8.12636 29.5631 7.88466 29.5631 7.78798 29.6114C7.06287 29.9981 6.28942 30.4332 5.56432 30.8683C5.32262 31.0133 5.03258 31.1583 4.74253 30.9166C4.45249 30.7232 4.45249 30.4332 4.54917 30.1432C4.74254 29.3214 4.93589 28.4513 5.08091 27.5811C5.08091 27.4844 5.03258 27.2911 4.9359 27.1944C4.30747 26.6143 3.67905 26.0342 3.00228 25.4541C2.80892 25.2608 2.61556 25.0674 2.71224 24.729C2.80892 24.3907 3.05062 24.294 3.38901 24.294C4.25913 24.1973 5.12926 24.1006 5.95104 24.0039C6.09606 24.0039 6.24108 23.8589 6.28942 23.7622C6.67615 22.9888 7.01453 22.167 7.35292 21.3936C7.4496 21.1035 7.59462 20.9102 7.933 20.9102C8.27138 20.9102 8.4164 21.1035 8.51308 21.3936C8.85147 22.167 9.23819 22.9888 9.57657 23.7622C9.67325 23.9556 9.76993 24.0039 9.96329 24.0523C10.8334 24.149 11.7519 24.2456 12.622 24.3423C13.0087 24.3423 13.2504 24.5357 13.2504 24.9707Z" fill="#F3AC35"/>
</svg>
