<svg width="20" height="20" viewBox="0 0 20 20" fill="none" xmlns="http://www.w3.org/2000/svg">
<path d="M4.72656 6.48438C2.78793 6.48438 1.21094 8.06137 1.21094 10C1.21094 11.9386 2.78793 13.5156 4.72656 13.5156C6.6652 13.5156 8.24219 11.9386 8.24219 10C8.24219 8.06137 6.6652 6.48438 4.72656 6.48438Z" fill="#FF9F00"/>
<path d="M15.2734 0C13.3348 0 11.7578 1.61605 11.7578 3.55469C11.7578 4.01625 11.8526 4.45477 12.015 4.85895L8.3696 7.08691C8.61417 7.39203 8.8294 7.71961 8.99233 8.08004L12.6352 5.85359C13.2801 6.59281 14.2176 7.07031 15.2734 7.07031C17.2121 7.07031 18.7891 5.49332 18.7891 3.55469C18.7891 1.61605 17.2121 0 15.2734 0Z" fill="#FF9F00"/>
<path d="M15.2734 12.9296C14.2176 12.9296 13.2802 13.4071 12.6352 14.1464L8.99239 11.9199C8.82946 12.2804 8.61422 12.6079 8.36969 12.913L12.015 15.141C11.8526 15.5451 11.7578 15.9837 11.7578 16.4453C11.7578 18.3839 13.3348 20 15.2734 20C17.2121 20 18.7891 18.3839 18.7891 16.4453C18.7891 14.5066 17.2121 12.9296 15.2734 12.9296Z" fill="#FF9F00"/>
</svg>
