<svg width="34" height="34" viewBox="0 0 34 34" fill="none" xmlns="http://www.w3.org/2000/svg">
<path d="M18.9588 33.7946C17.4607 33.7946 15.9626 33.7946 14.4128 33.7946C14.2579 32.7098 14.0512 31.6766 13.8962 30.5918C13.8446 30.1268 13.7413 29.6102 13.638 29.1453C13.638 29.042 13.483 28.9387 13.3797 28.887C12.4498 28.4737 11.5199 28.1638 10.6417 27.7505C10.4351 27.6472 10.3318 27.6989 10.1768 27.8022C8.937 28.6804 7.69718 29.6102 6.50903 30.4884C5.42419 29.4036 4.391 28.3704 3.30617 27.2856C4.13271 26.0974 5.01091 24.9093 5.88911 23.7211C6.09575 23.4628 6.09575 23.3078 5.94078 22.9979C5.57916 22.1714 5.21755 21.3448 4.9076 20.5183C4.80428 20.26 4.75263 20.1567 4.49433 20.105C2.99622 19.8984 1.49811 19.6401 0 19.3818C0 17.8837 0 16.3856 0 14.8358C0.774884 14.7325 1.54977 14.5775 2.32465 14.4742C3.09953 14.3709 3.87442 14.2675 4.59764 14.1126C4.70096 14.1126 4.85594 13.9576 4.9076 13.8543C5.32087 12.9244 5.68249 12.0462 6.0441 11.1163C6.14742 10.9097 6.09576 10.8064 5.99244 10.7031C5.16589 9.56658 4.33934 8.43008 3.5128 7.29358C3.40948 7.19027 3.35783 7.08695 3.30617 6.98363C4.391 5.89879 5.42419 4.86562 6.50903 3.78078C7.07727 4.19405 7.69718 4.65898 8.31709 5.07225C8.937 5.53718 9.55691 5.95045 10.1768 6.41538C10.3318 6.5187 10.4868 6.5187 10.6934 6.46704C11.5716 6.10543 12.5015 5.69216 13.3797 5.38221C13.5863 5.33055 13.638 5.22723 13.6896 5.0206C13.9479 3.52249 14.1545 2.02438 14.4128 0.474609C15.9109 0.474609 17.4091 0.474609 18.9588 0.474609C19.1138 1.50779 19.3204 2.59262 19.4754 3.6258C19.5271 4.09073 19.6304 4.55567 19.6821 5.0206C19.6821 5.12391 19.837 5.27889 19.9403 5.33055C20.8702 5.74382 21.8001 6.10543 22.7299 6.5187C22.9366 6.62202 23.0399 6.5187 23.1432 6.46704C24.383 5.58884 25.6228 4.65898 26.811 3.78078C27.8958 4.86562 28.929 5.89879 30.0138 6.98363C29.1873 8.17179 28.3091 9.35994 27.4309 10.5481C27.2243 10.8064 27.2242 10.9614 27.3792 11.2713C27.7408 12.0979 28.1025 12.9244 28.4124 13.8026C28.5157 14.0092 28.619 14.1126 28.8257 14.1642C30.3238 14.3709 31.8219 14.6292 33.32 14.8874C33.32 16.3856 33.32 17.8837 33.32 19.4334C32.8034 19.5367 32.3385 19.5884 31.8219 19.6401C31.7186 19.6401 31.6153 19.5884 31.5636 19.5368C30.2721 18.4003 28.8257 17.677 27.1209 17.4187C27.0693 17.4187 27.0176 17.3671 26.966 17.3671C26.966 16.1273 26.811 14.8874 26.346 13.6993C24.8479 9.92819 22.1617 7.6552 18.1839 7.03529C12.7598 6.20875 7.80049 9.72155 6.61234 15.0424C5.42418 20.6216 9.14363 26.2524 14.7745 27.2339C15.3944 27.3372 16.0143 27.3889 16.6342 27.4406C16.8408 27.4406 16.9441 27.4922 16.9958 27.6989C17.2541 29.3003 17.9773 30.6951 19.0621 31.9349C19.1655 32.0382 19.2171 32.2448 19.2171 32.3998C19.1655 32.8647 19.0621 33.3297 18.9588 33.7946Z" fill="#F16671"/>
<path d="M17.9257 26.0457C17.9257 21.758 21.3869 18.2969 25.6746 18.2969C29.9622 18.2969 33.4234 21.758 33.4234 26.0974C33.4234 30.3851 29.9106 33.7945 25.6229 33.7429C21.3869 33.7945 17.9257 30.2817 17.9257 26.0457ZM24.0215 27.9571C23.9698 27.9054 23.9182 27.8021 23.8665 27.6988C23.2466 27.0789 22.6267 26.459 21.9551 25.7874C21.6968 25.5291 21.4385 25.4258 21.0769 25.4775C20.3537 25.6324 20.147 26.459 20.6636 27.0272C21.5418 27.9571 22.4717 28.8353 23.4016 29.7652C23.9181 30.2817 24.3831 30.2817 24.8997 29.7652C26.5528 28.1121 28.2058 26.459 29.8589 24.7542C30.2722 24.2893 30.3239 23.7727 29.9622 23.4111C29.6006 23.0495 29.0324 23.0495 28.6191 23.5144C28.1025 24.031 27.6376 24.5476 27.121 25.0125C26.0362 25.9424 25.0546 26.9239 24.0215 27.9571Z" fill="#F16671"/>
<path d="M16.7371 10.4961C20.0949 10.4961 22.8845 13.0274 23.2461 16.3335C23.2978 16.6435 23.2978 16.9535 23.2978 17.2634C23.2978 17.47 23.1944 17.5734 22.9878 17.625C20.0949 18.6065 18.1835 20.5179 17.202 23.4108C17.1503 23.6175 17.047 23.6691 16.7887 23.7208C13.4309 23.8241 10.4864 21.2928 10.1247 17.935C9.71147 14.4222 12.0878 11.2193 15.6006 10.6511C16.0139 10.5478 16.3755 10.5478 16.7371 10.4961ZM17.2537 15.7653C17.2537 15.352 17.2537 14.9388 17.2537 14.5771C17.2537 14.1639 17.047 13.8539 16.6854 13.8539C16.3238 13.8539 16.1172 14.1122 16.1172 14.5255C16.1172 15.1971 16.1172 15.817 16.1172 16.4885C16.1172 16.7468 16.0139 16.8501 15.8072 16.9535C15.4456 17.1601 15.0323 17.3667 14.6707 17.625C14.3091 17.8317 14.2058 18.1416 14.3608 18.4516C14.5157 18.7615 14.8257 18.8132 15.1873 18.6065C15.7039 18.2966 16.2721 17.9866 16.7887 17.6767C17.047 17.5217 17.1504 17.3151 17.1504 17.0051C17.2537 16.5918 17.2537 16.1786 17.2537 15.7653ZM12.7077 12.5625C12.2944 12.5625 12.0361 13.0274 12.2428 13.3373C12.3977 13.5956 12.656 13.8539 12.9143 14.0089C13.2243 14.2155 13.6892 13.9572 13.6892 13.544C13.6892 13.1824 13.0176 12.5625 12.7077 12.5625ZM21.2831 13.0274C21.2314 12.9241 21.1281 12.7174 20.9731 12.6658C20.8181 12.6141 20.5598 12.5624 20.4565 12.6658C20.1982 12.8207 19.9916 13.0274 19.8366 13.2857C19.7333 13.4407 19.7333 13.6989 19.8366 13.8023C19.9399 13.9572 20.1466 14.0606 20.3532 14.0606C20.6632 14.0606 21.2831 13.4407 21.2831 13.0274ZM13.6375 20.7246C13.6375 20.3113 13.2243 20.0013 12.8627 20.2596C12.6044 20.4146 12.3461 20.6729 12.1911 20.9829C11.9845 21.2928 12.2944 21.7577 12.7077 21.7577C13.0176 21.6544 13.6375 21.0345 13.6375 20.7246ZM16.1688 11.7359C16.1688 11.8392 16.1688 11.9425 16.1688 12.0459C16.2205 12.3558 16.4271 12.6141 16.7371 12.6141C17.047 12.6141 17.2537 12.3558 17.3053 12.0459C17.3053 11.9425 17.3053 11.8392 17.3053 11.7359C17.3053 11.1677 17.1503 10.9094 16.7371 10.9094C16.3238 10.8577 16.1688 11.1677 16.1688 11.7359ZM11.3129 17.6767C11.4162 17.6767 11.5195 17.6767 11.6745 17.6767C11.9845 17.625 12.1911 17.4184 12.1911 17.1084C12.1911 16.8501 11.9845 16.5918 11.6745 16.5402C11.5712 16.5402 11.4679 16.5402 11.3129 16.5402C10.7446 16.5402 10.4863 16.6952 10.4863 17.1084C10.4863 17.47 10.7446 17.6767 11.3129 17.6767ZM22.1096 16.5402C22.0063 16.5402 21.9546 16.5402 21.8513 16.5402C21.4897 16.5402 21.2314 16.7985 21.2314 17.1084C21.2314 17.4184 21.4897 17.625 21.8513 17.6767C22.0579 17.6767 22.2646 17.6767 22.4196 17.6767C22.7295 17.625 22.9361 17.4184 22.9361 17.1084C22.9361 16.8501 22.7295 16.5918 22.4196 16.5402C22.3162 16.5402 22.2129 16.5402 22.1096 16.5402ZM16.1688 22.481C16.1688 22.5843 16.1688 22.7393 16.1688 22.8426C16.2205 23.1525 16.4271 23.3075 16.7371 23.3075C17.047 23.3075 17.202 23.1009 17.3053 22.8426C17.3053 22.7393 17.3053 22.5843 17.3053 22.481C17.3053 21.9127 17.1503 21.6544 16.7887 21.6544C16.3755 21.6028 16.1688 21.9127 16.1688 22.481Z" fill="#F16671"/>
<path d="M25.8808 17.2127C25.4158 17.2644 24.9509 17.2644 24.4343 17.316C24.3827 14.6297 23.3495 12.4084 21.1281 10.807C19.5267 9.67049 17.7187 9.25722 15.8073 9.46386C12.0362 9.87713 9.14328 13.08 9.03997 17.0061C8.98831 19.1757 9.76319 21.0871 11.313 22.5852C12.8627 24.135 14.7225 24.8066 16.8921 24.8066C16.8405 25.3231 16.8405 25.7881 16.8405 26.253C12.966 26.5113 8.00679 23.4634 7.59352 17.7809C7.18025 12.2018 11.7262 7.75911 17.0471 7.91409C22.368 8.12073 26.0358 12.6667 25.8808 17.2127Z" fill="#F16671"/>
</svg>
