<svg width="34" height="34" viewBox="0 0 34 34" fill="none" xmlns="http://www.w3.org/2000/svg">
<path d="M12.2225 0C12.9073 0.105365 13.6449 0.158048 14.3298 0.263413C16.279 0.579508 18.0702 1.15902 19.7034 2.31803C20.1775 2.63413 20.599 3.05559 20.9678 3.47705C22.3902 5.16289 22.3902 7.16483 20.8624 8.79798C19.7561 10.0097 18.3336 10.6946 16.8058 11.1687C13.8029 12.117 10.6947 12.275 7.63908 11.6955C5.74251 11.3794 3.9513 10.7999 2.37083 9.69359C1.36986 9.00871 0.526936 8.11311 0.21084 6.84873C0.158158 6.74336 0.158151 6.638 0.105469 6.53264C0.105469 6.21654 0.105469 5.90045 0.105469 5.58435C0.421564 4.00387 1.47522 2.89754 2.79228 2.1073C4.37276 1.10633 6.11129 0.579508 7.95518 0.263413C8.64005 0.158048 9.32492 0.105365 9.95711 0C10.6947 0 11.4322 0 12.2225 0Z" fill="#E7C109"/>
<path d="M0.0527344 10.4316C2.52881 12.6443 5.58439 13.5399 8.79802 13.856C10.4312 14.0141 12.117 14.0141 13.8555 13.8033C13.6448 14.0667 13.4341 14.2775 13.276 14.4882C12.4331 15.4365 11.7483 16.4901 11.2741 17.7018C11.1687 17.9126 11.0634 18.0179 10.8527 17.9652C8.27121 17.9126 5.79513 17.4911 3.4771 16.2794C2.47613 15.7526 1.58052 15.1204 0.895642 14.2248C0.526864 13.698 0.316137 13.1185 0.15809 12.4863C0.0527247 11.8014 0.0527344 11.1165 0.0527344 10.4316Z" fill="#E7C109"/>
<path d="M0.0527344 22.3378C1.0537 23.2334 2.16003 23.9183 3.37173 24.4451C5.42635 25.2881 7.58634 25.7095 9.799 25.8676C10.4312 25.9202 10.4312 25.8676 10.6419 26.4998C10.958 27.6061 11.3795 28.6071 11.959 29.5553C12.0117 29.608 12.0643 29.7134 12.117 29.8188C11.8536 29.8188 11.5902 29.8714 11.3268 29.8714C8.69267 29.8714 6.11123 29.5027 3.74051 28.3436C2.63418 27.8168 1.63321 27.1319 0.842972 26.131C0.474195 25.6041 0.263452 25.0246 0.105404 24.3924C0.0527215 23.7076 0.0527344 23.0227 0.0527344 22.3378Z" fill="#E7C109"/>
<path d="M0.0526857 16.3848C1.10634 17.3331 2.26534 18.0179 3.58241 18.5447C5.53166 19.335 7.58628 19.7564 9.69358 19.8618C9.90431 19.8618 10.115 19.8618 10.2731 19.9145C10.3258 19.9145 10.3785 19.9145 10.4311 19.9672C10.1677 21.2316 10.0097 22.4959 10.115 23.8657C9.53553 23.813 8.95603 23.7603 8.4292 23.7076C6.42727 23.4442 4.47801 22.9174 2.73948 21.8638C1.94924 21.3896 1.15901 20.8101 0.684866 19.9672C0.421454 19.493 0.21073 18.9135 0 18.3867C0.0526825 17.7545 0.0526857 17.0696 0.0526857 16.3848Z" fill="#E7C109"/>
<path d="M22.9692 12.0117C28.975 12.0117 33.8745 16.9112 33.8745 22.917C33.8745 28.9228 28.975 33.8223 22.9692 33.7696C16.9634 33.7696 12.1166 28.8701 12.1166 22.8643C12.0639 16.9112 16.9634 12.0117 22.9692 12.0117ZM21.9683 18.1229C21.8629 18.1756 21.7575 18.2283 21.5995 18.2809C19.9136 19.1239 19.4395 21.2838 20.6512 22.759C21.2307 23.4965 22.021 23.8653 22.9692 23.8653C23.4961 23.8653 23.9175 24.2868 23.9175 24.8136C23.9702 25.2877 23.6014 25.7619 23.0746 25.8672C22.6005 25.9726 22.1263 25.6565 21.9683 25.1297C21.9683 25.0243 21.9156 24.9716 21.9156 24.9189C21.2834 24.9189 20.5985 24.9189 19.9663 24.9189C19.9663 25.0243 19.9663 25.1297 19.9663 25.235C20.1244 26.2887 20.6512 27.0789 21.6522 27.5531C21.9156 27.6584 21.9683 27.8165 21.9683 28.0272C21.9683 28.6067 21.9683 29.1862 21.9683 29.8184C22.6531 29.8184 23.2853 29.8184 23.9702 29.8184C23.9702 29.1862 23.9702 28.6067 23.9702 28.0272C23.9702 27.7638 24.0229 27.6584 24.2863 27.5531C25.2873 27.0789 25.8668 26.236 25.9721 25.077C26.0248 23.918 25.5507 22.9697 24.5497 22.3375C24.0756 22.0214 23.5487 21.916 22.9692 21.916C22.4424 21.916 22.0736 21.4946 22.0209 21.0204C21.9683 20.5463 22.337 20.0721 22.8639 19.9668C23.338 19.8614 23.8122 20.1775 23.9702 20.7043C23.9702 20.8097 24.0229 20.8624 24.0229 20.9677C24.6551 20.9677 25.3399 20.9677 25.9721 20.9677C25.8668 19.598 25.2346 18.7024 23.9702 18.1756C23.9702 17.4907 23.9702 16.7531 23.9702 16.0683C23.2853 16.0683 22.6531 16.0683 22.0209 16.0683C21.9683 16.7531 21.9683 17.438 21.9683 18.1229Z" fill="#E7C109"/>
</svg>
