<svg width="34" height="34" viewBox="0 0 34 34" fill="none" xmlns="http://www.w3.org/2000/svg">
<path d="M12.2225 0C12.9074 0.105365 13.6449 0.158048 14.3298 0.263413C16.279 0.579509 18.0703 1.15902 19.7034 2.31804C20.1776 2.63413 20.599 3.05559 20.9678 3.47706C22.3902 5.1629 22.3902 7.16484 20.8624 8.798C19.7561 10.0097 18.3337 10.6946 16.8059 11.1687C13.803 12.117 10.6947 12.2751 7.6391 11.6955C5.74252 11.3795 3.95131 10.7999 2.37083 9.69361C1.36986 9.00873 0.526936 8.11313 0.21084 6.84874C0.158158 6.74338 0.158151 6.63801 0.105469 6.53265C0.105469 6.21655 0.105469 5.90046 0.105469 5.58436C0.421565 4.00388 1.47522 2.89755 2.79229 2.10731C4.37277 1.10634 6.1113 0.579509 7.9552 0.263413C8.64007 0.158048 9.32494 0.105365 9.95713 0C10.6947 0 11.4322 0 12.2225 0Z" fill="#E7C109"/>
<path d="M0.0527344 10.4316C2.52882 12.6443 5.5844 13.5399 8.79804 13.856C10.4312 14.0141 12.1171 14.0141 13.8556 13.8033C13.6448 14.0667 13.4341 14.2775 13.2761 14.4882C12.4331 15.4365 11.7483 16.4901 11.2741 17.7018C11.1688 17.9126 11.0634 18.0179 10.8527 17.9653C8.27123 17.9126 5.79514 17.4911 3.47711 16.2794C2.47614 15.7526 1.58052 15.1204 0.895644 14.2248C0.526865 13.698 0.316138 13.1185 0.15809 12.4863C0.0527247 11.8014 0.0527344 11.1165 0.0527344 10.4316Z" fill="#E7C109"/>
<path d="M0.0527344 22.3379C1.0537 23.2335 2.16003 23.9184 3.37173 24.4452C5.42636 25.2881 7.58635 25.7096 9.79902 25.8676C10.4312 25.9203 10.4312 25.8676 10.6419 26.4998C10.958 27.6062 11.3795 28.6071 11.959 29.5554C12.0117 29.6081 12.0644 29.7135 12.1171 29.8188C11.8536 29.8188 11.5902 29.8715 11.3268 29.8715C8.69269 29.8715 6.11124 29.5027 3.74052 28.3437C2.63418 27.8169 1.63321 27.132 0.842974 26.131C0.474196 25.6042 0.263452 25.0247 0.105404 24.3925C0.0527215 23.7076 0.0527344 23.0228 0.0527344 22.3379Z" fill="#E7C109"/>
<path d="M0.0526859 16.3848C1.10634 17.3331 2.26535 18.0179 3.58241 18.5448C5.53167 19.335 7.5863 19.7565 9.6936 19.8618C9.90434 19.8618 10.1151 19.8618 10.2731 19.9145C10.3258 19.9145 10.3785 19.9145 10.4312 19.9672C10.1677 21.2316 10.0097 22.496 10.1151 23.8657C9.53555 23.813 8.95605 23.7603 8.42922 23.7077C6.42728 23.4442 4.47802 22.9174 2.73949 21.8638C1.94925 21.3896 1.15901 20.8101 0.684868 19.9672C0.421455 19.493 0.210731 18.9135 0 18.3867C0.0526826 17.7545 0.0526859 17.0696 0.0526859 16.3848Z" fill="#E7C109"/>
<path d="M22.9693 12.0117C28.9751 12.0117 33.8746 16.9112 33.8746 22.917C33.8746 28.9229 28.9751 33.8223 22.9693 33.7697C16.9634 33.7697 12.1166 28.8702 12.1166 22.8643C12.0639 16.9112 16.9634 12.0117 22.9693 12.0117ZM21.9683 18.1229C21.8629 18.1756 21.7576 18.2283 21.5995 18.281C19.9137 19.1239 19.4395 21.2839 20.6512 22.759C21.2307 23.4965 22.021 23.8653 22.9693 23.8653C23.4961 23.8653 23.9175 24.2868 23.9175 24.8136C23.9702 25.2877 23.6014 25.7619 23.0746 25.8673C22.6005 25.9726 22.1263 25.6565 21.9683 25.1297C21.9683 25.0243 21.9156 24.9717 21.9156 24.919C21.2834 24.919 20.5985 24.919 19.9663 24.919C19.9663 25.0243 19.9663 25.1297 19.9663 25.2351C20.1244 26.2887 20.6512 27.079 21.6522 27.5531C21.9156 27.6585 21.9683 27.8165 21.9683 28.0272C21.9683 28.6068 21.9683 29.1863 21.9683 29.8185C22.6532 29.8185 23.2854 29.8185 23.9702 29.8185C23.9702 29.1863 23.9702 28.6068 23.9702 28.0272C23.9702 27.7638 24.0229 27.6585 24.2863 27.5531C25.2873 27.079 25.8668 26.236 25.9722 25.077C26.0248 23.918 25.5507 22.9697 24.5497 22.3375C24.0756 22.0214 23.5488 21.9161 22.9693 21.9161C22.4424 21.9161 22.0736 21.4946 22.021 21.0205C21.9683 20.5463 22.3371 20.0722 22.8639 19.9668C23.338 19.8614 23.8122 20.1775 23.9702 20.7044C23.9702 20.8097 24.0229 20.8624 24.0229 20.9678C24.6551 20.9678 25.34 20.9678 25.9722 20.9678C25.8668 19.598 25.2346 18.7024 23.9702 18.1756C23.9702 17.4907 23.9702 16.7532 23.9702 16.0683C23.2854 16.0683 22.6532 16.0683 22.021 16.0683C21.9683 16.7532 21.9683 17.438 21.9683 18.1229Z" fill="#E7C109"/>
</svg>
