<svg width="25" height="20" viewBox="0 0 25 20" fill="none" xmlns="http://www.w3.org/2000/svg">
<path d="M24.2091 6.6233C24.2217 8.41622 23.6401 9.84032 22.8072 11.1783C21.6558 13.0277 20.1443 14.5571 18.5083 15.9708C17.0442 17.2361 15.4883 18.379 13.8656 19.4298C12.6898 20.1912 11.5087 20.1912 10.3351 19.4231C7.98628 17.8862 5.75606 16.1979 3.79481 14.1787C2.51965 12.8659 1.39565 11.441 0.641376 9.75275C-0.57376 7.03294 -0.0291711 3.82853 1.99433 1.83673C4.25715 -0.391069 7.81364 -0.609248 10.3899 1.32171C10.9774 1.76252 11.5072 2.2627 11.9481 2.85118C12.077 3.02409 12.1407 3.00109 12.2652 2.84525C13.4025 1.41447 14.8229 0.435635 16.6478 0.100204C19.4901 -0.422237 22.4108 1.13989 23.586 3.81444C24.0046 4.76878 24.2128 5.76394 24.2091 6.6233Z" fill="#EB5757"/>
</svg>
