<svg width="15" height="15" viewBox="0 0 15 15" fill="none" xmlns="http://www.w3.org/2000/svg">
<path d="M7.97029 15C7.65769 15 7.34509 15 7.03249 15C6.84963 14.9774 6.66617 14.9577 6.4836 14.9316C4.99075 14.7179 3.67166 14.12 2.54395 13.1185C1.2413 11.9618 0.427954 10.5232 0.116821 8.8064C0.0666288 8.52902 0.0384513 8.24783 0 7.9684C0 7.6558 0 7.34349 0 7.03089C0.0226012 6.84773 0.0416892 6.66399 0.0681062 6.48113C0.303804 4.85091 0.986828 3.43613 2.1436 2.26263C3.56453 0.820853 5.29631 0.0647425 7.31985 0.00369004C8.73874 -0.0391641 10.0772 0.29046 11.2871 1.03366C13.6452 2.48248 14.903 4.6017 14.9957 7.37402C15.0474 8.91354 14.6209 10.3389 13.7621 11.6183C12.5698 13.3941 10.9149 14.4872 8.808 14.8829C8.53091 14.9348 8.24942 14.9615 7.97029 15ZM8.1241 5.59616C8.1241 4.99561 8.12204 4.39507 8.12527 3.79452C8.12645 3.587 8.06657 3.40854 7.90513 3.27499C7.70642 3.11091 7.48041 3.07804 7.24706 3.18253C6.99463 3.29554 6.87868 3.50276 6.87868 3.77926C6.87956 5.09746 6.88162 6.41567 6.87663 7.73417C6.87575 7.97045 6.95588 8.1539 7.1226 8.31945C8.12028 9.31038 9.11297 10.3066 10.1077 11.3005C10.1526 11.3454 10.1969 11.3912 10.2468 11.4302C10.5292 11.6503 10.9322 11.5884 11.138 11.2946C11.3229 11.0304 11.285 10.7122 11.0332 10.4601C10.1015 9.52729 9.16962 8.59477 8.23504 7.6649C8.15697 7.58741 8.12057 7.5108 8.12145 7.39838C8.12702 6.79725 8.1241 6.1967 8.1241 5.59616Z" fill="#FF9F00"/>
</svg>
