<svg width="16" height="16" viewBox="0 0 16 16" fill="none" xmlns="http://www.w3.org/2000/svg">
<g clip-path="url(#clip0_155_660)">
<path d="M8 0C9.96966 0.00140425 11.8692 0.731081 13.3333 2.04867V0.666667C13.3333 0.489856 13.4036 0.320286 13.5286 0.195262C13.6536 0.0702379 13.8232 0 14 0C14.1768 0 14.3464 0.0702379 14.4714 0.195262C14.5964 0.320286 14.6667 0.489856 14.6667 0.666667V2.66667C14.6667 3.1971 14.456 3.70581 14.0809 4.08088C13.7058 4.45595 13.1971 4.66667 12.6667 4.66667H10.6667C10.4899 4.66667 10.3203 4.59643 10.1953 4.4714C10.0702 4.34638 10 4.17681 10 4C10 3.82319 10.0702 3.65362 10.1953 3.5286C10.3203 3.40357 10.4899 3.33333 10.6667 3.33333H12.6667C12.6891 3.33 12.7114 3.32533 12.7333 3.31933C11.647 2.22522 10.2146 1.54205 8.68062 1.38644C7.14667 1.23084 5.60625 1.61244 4.32232 2.46611C3.03838 3.31978 2.09052 4.5926 1.64054 6.0673C1.19055 7.54201 1.26633 9.12717 1.85495 10.5522C2.44356 11.9773 3.50851 13.1539 4.86803 13.8812C6.22754 14.6085 7.79734 14.8414 9.30946 14.5401C10.8216 14.2389 12.1823 13.4222 13.1593 12.2295C14.1363 11.0367 14.6691 9.54183 14.6667 8C14.6667 7.82319 14.7369 7.65362 14.8619 7.5286C14.987 7.40357 15.1565 7.33333 15.3333 7.33333C15.5101 7.33333 15.6797 7.40357 15.8047 7.5286C15.9298 7.65362 16 7.82319 16 8C16 9.58225 15.5308 11.129 14.6518 12.4446C13.7727 13.7602 12.5233 14.7855 11.0615 15.391C9.59966 15.9965 7.99112 16.155 6.43928 15.8463C4.88743 15.5376 3.46196 14.7757 2.34314 13.6569C1.22432 12.538 0.462398 11.1126 0.153716 9.56072C-0.154965 8.00888 0.00346132 6.40034 0.608962 4.93853C1.21446 3.47672 2.23984 2.22729 3.55544 1.34824C4.87103 0.469192 6.41775 0 8 0V0Z" fill="white"/>
<path d="M7.99984 4C8.17665 4 8.34622 4.07024 8.47124 4.19526C8.59627 4.32029 8.6665 4.48986 8.6665 4.66667V8C8.66647 8.1768 8.5962 8.34634 8.47117 8.47133L6.47117 10.4713C6.34544 10.5928 6.17703 10.66 6.00224 10.6585C5.82744 10.6569 5.66023 10.5868 5.53662 10.4632C5.41302 10.3396 5.34291 10.1724 5.34139 9.9976C5.33987 9.8228 5.40706 9.6544 5.5285 9.52867L7.33317 7.724V4.66667C7.33317 4.48986 7.40341 4.32029 7.52843 4.19526C7.65346 4.07024 7.82303 4 7.99984 4Z" fill="white"/>
</g>
<defs>
<clipPath id="clip0_155_660">
<rect width="16" height="16" fill="white" transform="matrix(-1 0 0 1 16 0)"/>
</clipPath>
</defs>
</svg>
