<svg width="30" height="30" viewBox="0 0 30 30" fill="none" xmlns="http://www.w3.org/2000/svg">
<circle cx="15" cy="15" r="15" fill="#FF9F00"/>
<g clip-path="url(#clip0_3117_3735)">
<path fill-rule="evenodd" clip-rule="evenodd" d="M17.5987 16.3323H18.1936L21.9512 20.0975L20.8292 21.2196L17.064 17.4619V16.867L16.8607 16.6561C16.0022 17.3941 14.8877 17.8384 13.6753 17.8384C10.9719 17.8384 8.78052 15.647 8.78052 12.9436C8.78052 10.2402 10.9719 8.04883 13.6753 8.04883C16.3787 8.04883 18.5701 10.2402 18.5701 12.9436C18.5701 14.156 18.1258 15.2705 17.3878 16.129L17.5987 16.3323ZM13.7649 16.4842C15.6708 16.4842 17.2158 14.9392 17.2158 13.0334C17.2158 11.1275 15.6708 9.58255 13.7649 9.58255C11.8591 9.58255 10.3141 11.1275 10.3141 13.0334C10.3141 14.9392 11.8591 16.4842 13.7649 16.4842Z" fill="white"/>
</g>
<defs>
<clipPath id="clip0_3117_3735">
<rect width="13.1707" height="13.1707" fill="white" transform="translate(8.78052 8.04883)"/>
</clipPath>
</defs>
</svg>
