<svg width="16" height="18" viewBox="0 0 16 18" fill="none" xmlns="http://www.w3.org/2000/svg">
<path d="M13.5933 3.51412C15.6499 5.37598 16.8199 9.01659 15.325 12.4074C13.7265 16.033 9.72039 17.9484 5.9406 16.9231C2.09923 15.8813 -0.323844 12.2772 0.0351111 8.46739C0.241873 6.27211 1.20209 4.4453 2.90225 3.03651C4.6019 1.62823 6.57691 1.055 8.79472 1.22872C8.79472 1.10456 8.79372 0.993923 8.79472 0.883283C8.79722 0.586407 8.95291 0.397167 9.19622 0.393162C9.44403 0.389156 9.60825 0.584906 9.60825 0.891795C9.60925 2.19094 9.60824 3.49059 9.60924 4.78973C9.60924 5.04005 9.72689 5.19575 9.92965 5.22579C10.1905 5.26483 10.3902 5.09762 10.4002 4.82127C10.4078 4.59649 10.4023 4.3717 10.4023 4.14692C10.4023 2.90985 10.4018 1.67328 10.4028 0.436217C10.4033 0.174385 10.5554 0.00617235 10.7892 0.000164734C11.025 -0.00584288 11.1847 0.152857 11.2023 0.412186C11.2063 0.474265 11.2043 0.536845 11.2043 0.599424C11.2043 1.93612 11.2043 3.27281 11.2048 4.61001C11.2048 4.6846 11.2043 4.7602 11.2133 4.83429C11.2423 5.06458 11.4075 5.19925 11.6388 5.18674C11.8531 5.17522 11.9968 5.02103 11.9968 4.78973C11.9983 3.51562 11.9973 2.241 11.9983 0.96689C11.9983 0.885787 11.9988 0.803683 12.0118 0.724082C12.0428 0.532839 12.2196 0.388657 12.4078 0.392662C12.6055 0.396667 12.7788 0.555868 12.7978 0.75462C12.8033 0.81019 12.7998 0.866763 12.7998 0.923335C12.7998 2.44126 12.7978 3.95918 12.8043 5.47711C12.8048 5.60076 12.8398 5.74044 12.9044 5.84407C13.0015 5.99977 13.1758 6.01979 13.34 5.96172C13.5087 5.90214 13.5928 5.76747 13.5928 5.58474C13.5928 4.95995 13.5933 4.33516 13.5933 3.71087C13.5933 3.65129 13.5933 3.59172 13.5933 3.51412ZM7.9136 11.1964C7.27028 11.1883 6.55688 11.3616 5.89654 11.737C5.04747 12.2201 4.43819 12.916 4.06522 13.8197C3.99563 13.9879 4.01966 14.1396 4.14332 14.2692C4.25797 14.3899 4.42017 14.4315 4.55484 14.3554C4.66798 14.2913 4.77262 14.1681 4.82518 14.0465C5.48702 12.5155 7.05451 11.6925 8.82175 12.0775C9.94868 12.3228 10.7267 13.0167 11.1852 14.0715C11.3039 14.3443 11.5457 14.462 11.7835 14.3659C12.0093 14.2748 12.0714 14.0385 11.9472 13.7456C11.2829 12.1791 9.77245 11.1964 7.9136 11.1964ZM5.09152 9.58631C5.14859 9.5778 5.24922 9.57129 5.34534 9.54776C6.12133 9.35652 6.7316 8.57904 6.79819 7.70142C6.81971 7.42157 6.67402 7.22132 6.43722 7.20429C6.18591 7.18627 6.03572 7.34097 6.00818 7.63334C5.97014 8.03635 5.80693 8.37728 5.47951 8.6256C5.17513 8.85589 4.81317 8.85238 4.51279 8.61558C4.19138 8.36176 4.04069 8.01933 3.99113 7.61682C3.97661 7.49867 3.91753 7.34347 3.82742 7.2889C3.72329 7.22532 3.55107 7.21481 3.43092 7.25236C3.25369 7.30743 3.19211 7.47914 3.20713 7.66287C3.2612 8.32471 3.53855 8.8684 4.07323 9.27191C4.3616 9.48919 4.68701 9.59583 5.09152 9.58631ZM11.0781 9.58731C11.1437 9.5778 11.2438 9.57179 11.3404 9.54826C12.1224 9.35702 12.7437 8.56101 12.7978 7.6859C12.8143 7.41706 12.6691 7.22232 12.4393 7.20429C12.188 7.18427 12.0338 7.33997 12.0068 7.62983C11.9687 8.03985 11.8025 8.38579 11.4656 8.63411C11.1712 8.85138 10.8218 8.84888 10.5294 8.6281C10.2015 8.38028 10.0393 8.04085 9.99624 7.63784C9.98973 7.57626 9.98873 7.51218 9.9682 7.45511C9.90162 7.27038 9.71037 7.16925 9.51663 7.2088C9.32889 7.24735 9.19422 7.42307 9.20523 7.64035C9.23077 8.14248 9.40849 8.58755 9.73941 8.96653C10.0828 9.36053 10.5064 9.59632 11.0781 9.58731Z" fill="#EE1DCD"/>
</svg>
