<svg width="34" height="27" viewBox="0 0 34 27" fill="none" xmlns="http://www.w3.org/2000/svg">
<path d="M33.3206 25.9519C32.2003 25.7444 31.0799 25.454 29.9596 25.288C28.2168 25.039 26.474 25.122 24.7313 25.3295C23.1545 25.537 21.6607 25.9104 20.1669 26.4498C20.0424 26.4913 19.9179 26.5328 19.7934 26.5743C19.7934 26.5328 19.752 26.5328 19.752 26.4913C20.3329 25.9934 20.8723 25.4955 21.4947 25.039C23.6109 23.4622 25.9761 22.4664 28.5488 22.0929C29.2127 22.0099 29.9181 21.9684 30.582 21.9269C31.3704 21.8855 31.6193 21.6365 31.6193 20.8481C31.6193 15.7028 31.6193 10.5575 31.6193 5.37068C31.6193 5.2462 31.6193 5.12172 31.6193 4.91425C32.2003 5.08022 32.7397 5.2462 33.3206 5.45367C33.3206 12.3002 33.3206 19.1468 33.3206 25.9519Z" fill="#FEAA1F"/>
<path d="M0 5.45319C0.539427 5.28722 1.07885 5.12124 1.65978 4.95526C1.65978 5.12124 1.65978 5.24572 1.65978 5.37021C1.65978 10.5155 1.65978 15.7023 1.65978 20.8476C1.65978 21.636 1.86725 21.885 2.69714 21.885C6.01669 21.968 9.04578 22.9638 11.7429 24.9141C12.4068 25.3705 12.9877 25.9514 13.6102 26.4909C9.12877 24.8726 4.64737 24.6236 0.0414938 25.8684C-6.33773e-07 19.1049 0 12.2998 0 5.45319Z" fill="#FEAA1F"/>
<path d="M30.3325 0.474609V20.4749C25.1457 20.8484 20.8303 22.9646 17.3447 26.865C17.3447 23.255 17.3447 19.6865 17.3447 16.0765C17.3447 16.0765 17.3862 16.0765 17.3862 16.035C17.9671 16.5744 18.5066 17.1554 19.129 17.6533C20.4153 18.7736 21.8676 19.3961 23.6104 19.0641C25.8096 18.6077 27.3864 16.7404 27.5109 14.2922C27.6353 12.0101 26.2245 9.97683 24.1498 9.3959C22.4485 8.93947 20.9132 9.3959 19.5439 10.4748C18.797 11.0557 18.1331 11.7196 17.3862 12.3835C17.3862 10.9727 17.3862 9.56188 17.3862 8.19257C17.3862 7.98509 17.4692 7.77762 17.5937 7.61165C20.0419 4.20911 23.3614 2.0099 27.5109 1.01404C28.3407 0.765071 29.3366 0.640587 30.3325 0.474609Z" fill="#FEAA1F"/>
<path d="M24.4811 15.6207C23.8172 16.5335 22.6554 16.9485 21.6595 16.3676C20.7052 15.8281 19.8338 15.0397 18.9209 14.3343C18.9209 14.2099 18.9209 14.0854 18.9209 14.0024C19.7923 13.3385 20.6637 12.5916 21.618 12.0521C22.6554 11.4712 23.7757 11.7617 24.4397 12.5916C25.1036 13.463 25.1451 14.7078 24.4811 15.6207Z" fill="#FEAA1F"/>
<path d="M14.3557 14.0017C14.3557 14.1262 14.3557 14.2507 14.3557 14.3752C13.4428 15.0806 12.5714 15.8275 11.5755 16.4084C10.7041 16.9063 9.62529 16.5744 8.96138 15.8275C8.25598 15.0391 8.17299 14.1262 8.50495 13.1718C8.96138 11.927 10.2477 11.3461 11.451 11.9685C12.5299 12.5079 13.4013 13.2963 14.3557 14.0017Z" fill="#FEAA1F"/>
<path d="M16.0165 26.865C12.531 22.9646 8.2156 20.8484 2.9873 20.4749V0.474609C3.98317 0.640587 4.93754 0.76507 5.89191 0.972542C10.0414 1.96841 13.3609 4.16761 15.8091 7.57015C15.9336 7.73613 16.0165 7.9436 16.0165 8.15107C16.0165 9.56188 16.0165 10.9727 16.0165 12.342C16.0165 12.342 16.0165 12.342 15.975 12.3835C15.6431 12.0515 15.3526 11.7196 15.0207 11.4706C14.2738 10.8897 13.5684 10.2258 12.7385 9.81085C10.1658 8.48303 7.26123 9.52039 6.22387 12.0515C5.39398 14.1263 5.89191 16.5329 7.4687 17.9437C9.08698 19.3546 11.4937 19.562 13.2779 18.3172C14.2323 17.6533 15.0622 16.8234 15.975 16.0765C16.0165 19.645 16.0165 23.255 16.0165 26.865Z" fill="#FEAA1F"/>
</svg>
