<svg width="26" height="25" viewBox="0 0 26 25" fill="none" xmlns="http://www.w3.org/2000/svg">
<path d="M24.9991 6.50147C24.9724 6.56142 24.9458 6.61472 24.9192 6.67467C24.726 7.10766 24.4062 7.35411 23.9266 7.38742C23.84 7.39408 23.7468 7.39409 23.6602 7.39409C16.2195 7.39409 8.77875 7.39408 1.33138 7.38742C1.08491 7.38742 0.818435 7.35412 0.605272 7.24754C0.198931 7.05436 -0.000884923 6.68799 0.00577641 6.23502C0.0124378 5.76873 0.245578 5.42899 0.665242 5.22915C1.35136 4.90941 2.03746 4.60299 2.73024 4.29657C5.77447 2.92434 8.81872 1.55875 11.8629 0.186517C12.0095 0.119903 12.1627 0.0666134 12.3092 0C12.4425 0 12.5691 0 12.7023 0C12.8755 0.0732747 13.042 0.139893 13.2152 0.213168C16.8389 1.8452 20.4561 3.47723 24.0865 5.09594C24.5395 5.29578 24.8792 5.56223 25.0124 6.04851C24.9991 6.20838 24.9991 6.35492 24.9991 6.50147Z" fill="white"/>
<path d="M24.9994 23.9809C24.713 24.8069 24.4332 25.0001 23.5472 25.0001C16.1332 25.0001 8.72575 25.0001 1.31168 25.0001C0.872029 25.0001 0.492364 24.8935 0.219249 24.5271C-0.280352 23.8477 0.119319 22.8685 0.958647 22.7486C1.1052 22.7286 1.25173 22.7219 1.39828 22.7219C8.7857 22.7219 16.1731 22.7219 23.5606 22.7219C24.4265 22.7219 24.713 22.9218 24.9994 23.7344C24.9994 23.8144 24.9994 23.901 24.9994 23.9809Z" fill="white"/>
<path d="M22.1686 9.55908C22.1686 12.9697 22.1686 16.3603 22.1686 19.7443C22.3751 19.7709 22.5749 19.7776 22.7548 19.8242C23.2744 19.9708 23.6141 20.477 23.5608 20.9899C23.5009 21.5761 23.0879 21.9825 22.515 22.0291C22.4084 22.0358 22.3018 22.0358 22.1952 22.0358C15.7271 22.0358 9.25893 22.0358 2.79077 22.0358C2.59759 22.0358 2.39775 22.0291 2.21124 21.9758C1.69165 21.8226 1.35193 21.2964 1.4252 20.7768C1.49848 20.2172 1.9381 19.8042 2.48433 19.7776C2.59091 19.7709 2.69083 19.7776 2.81073 19.7776C2.81073 16.367 2.81073 12.9764 2.81073 9.56575C2.69749 9.55243 2.57761 9.54577 2.46437 9.52578C2.18459 9.47915 1.99806 9.26598 1.9914 8.99286C1.98474 8.72641 2.15128 8.5066 2.41774 8.44665C2.51766 8.42666 2.62422 8.41333 2.7308 8.41333C9.23226 8.41333 15.7337 8.41333 22.2285 8.41333C22.2552 8.41333 22.2752 8.41333 22.3018 8.41333C22.7215 8.41999 22.9813 8.64649 22.9813 8.98622C22.9813 9.31928 22.7415 9.52577 22.3218 9.55241C22.2885 9.55241 22.2419 9.55908 22.1686 9.55908ZM14.1883 9.56575C13.0492 9.56575 11.9301 9.56575 10.8043 9.56575C10.8043 12.9764 10.8043 16.367 10.8043 19.7576C11.9368 19.7576 13.0559 19.7576 14.1883 19.7576C14.1883 16.3603 14.1883 12.9697 14.1883 9.56575ZM19.8638 19.7643C19.8638 16.3537 19.8638 12.963 19.8638 9.56575C18.7314 9.56575 17.6056 9.56575 16.4798 9.56575C16.4798 12.9764 16.4798 16.3603 16.4798 19.7643C17.6122 19.7643 18.7247 19.7643 19.8638 19.7643ZM5.1289 19.7643C6.26799 19.7643 7.38043 19.7643 8.49287 19.7643C8.49287 16.3603 8.49287 12.963 8.49287 9.56575C7.36045 9.56575 6.24801 9.56575 5.1289 9.56575C5.1289 12.9697 5.1289 16.3537 5.1289 19.7643Z" fill="white"/>
</svg>
