<svg width="16" height="15" viewBox="0 0 16 15" fill="none" xmlns="http://www.w3.org/2000/svg">
<path d="M8.52417 11.749C8.0978 12.2286 7.72473 12.7083 7.35167 13.188C6.9253 13.7209 6.49894 14.2006 5.85939 14.5203C3.51439 15.7461 0.63644 14.3605 0.263372 11.749C0.103486 10.6298 0.369967 9.56387 1.1161 8.65784C1.80894 7.75182 2.55507 6.89909 3.30121 5.99307C3.67428 5.56671 4.04735 5.24694 4.58031 4.98046C4.6336 4.98046 4.6336 4.92716 4.6869 4.92716C3.83417 3.22171 4.52701 1.62285 5.48633 0.770119C6.55224 -0.135903 8.04451 -0.242494 9.27031 0.450346C9.96315 0.87671 10.4428 1.46296 10.7093 2.2091C10.9758 2.95523 10.9225 3.75466 10.656 4.55409C10.9758 4.55409 11.2422 4.55409 11.562 4.55409C12.3614 4.55409 13.0543 5.08705 13.3208 5.83319C13.6405 6.8458 13.001 7.965 11.9351 8.17818C11.8818 8.17818 11.8285 8.17818 11.7219 8.23148C11.9351 8.76443 12.1483 9.29739 12.3614 9.77705C12.6812 10.5765 13.001 11.3759 13.3208 12.1753C13.374 12.2819 13.4273 12.3352 13.4806 12.4418C13.6938 12.6017 13.907 12.7616 14.0669 12.9748C14.44 13.2945 14.5998 13.7742 14.3867 14.2539C14.2268 14.6802 13.8004 15 13.3208 15C12.5746 15 11.7752 15 11.029 15C10.2296 15 9.64337 14.5736 9.3236 13.8275C9.05712 13.1347 8.79064 12.4418 8.52417 11.749ZM9.59007 8.23148C9.90985 8.23148 10.2296 8.23148 10.4961 8.23148C10.5494 8.23148 10.656 8.23148 10.7093 8.17818C10.7626 8.12489 10.8692 7.965 10.8159 7.91171C10.8159 7.75182 10.656 7.69853 10.5494 7.69853C9.90985 7.69853 9.2703 7.69853 8.63075 7.69853C8.0445 7.69853 7.56485 7.965 7.19178 8.44466C6.87201 8.87103 6.49894 9.29739 6.17917 9.72375C6.01928 9.93693 5.85939 10.1501 5.69951 10.3633C5.59291 10.4699 5.64621 10.6298 5.7528 10.7364C5.85939 10.843 6.01928 10.7897 6.12587 10.6831C6.17917 10.6298 6.17916 10.6298 6.23246 10.5765C6.71212 9.99023 7.19178 9.40398 7.67144 8.81773C7.99122 8.44466 8.36428 8.28477 8.79064 8.28477C9.05712 8.23148 9.3236 8.23148 9.59007 8.23148ZM8.31099 4.55409C7.93792 4.55409 7.56485 4.55409 7.19178 4.55409C6.9786 4.55409 6.87201 4.66069 6.87201 4.82057C6.87201 4.98046 6.9786 5.08705 7.19178 5.08705C7.93791 5.08705 8.63076 5.08705 9.37689 5.08705C9.59008 5.08705 9.69666 4.98046 9.69666 4.82057C9.69666 4.66069 9.59008 4.55409 9.37689 4.55409C9.05712 4.55409 8.68405 4.55409 8.31099 4.55409Z" fill="#27B2D1"/>
<path d="M0.532954 2.58328C0.532954 3.22283 0.532954 3.86237 0.532954 4.55521C0.532954 4.60851 0.532954 4.6618 0.532954 4.7151C0.532954 4.82169 0.426367 4.92828 0.319776 4.92828C0.213185 4.92828 0.106594 4.87498 0.0532987 4.76839C0.0532987 4.7151 0 4.60851 0 4.55521C0 3.22282 0 1.94373 0 0.611349C0 0.558054 0 0.504758 0 0.451463C0.0532954 0.291576 0.106591 0.238281 0.266477 0.238281C0.426363 0.238281 0.532954 0.344872 0.532954 0.504758C0.532954 0.664645 0.532954 0.877826 0.532954 1.03771C0.532954 1.57067 0.532954 2.10362 0.532954 2.58328Z" fill="#27B2D1"/>
<path d="M15.0408 2.58328C15.0408 3.22283 15.0408 3.91567 15.0408 4.55521C15.0408 4.60851 15.0408 4.7151 14.9875 4.76839C14.9342 4.87498 14.8276 4.92828 14.721 4.92828C14.6144 4.92828 14.5078 4.82169 14.5078 4.7151C14.5078 4.6618 14.5078 4.60851 14.5078 4.55521C14.5078 3.22282 14.5078 1.94373 14.5078 0.611349C14.5078 0.558054 14.5078 0.504758 14.5078 0.451463C14.5078 0.344872 14.6144 0.238281 14.721 0.238281C14.8276 0.238281 14.9342 0.291577 14.9875 0.398168C14.9875 0.451463 15.0408 0.558054 15.0408 0.611349C15.0408 1.30419 15.0408 1.94373 15.0408 2.58328Z" fill="#27B2D1"/>
<path d="M1.91577 1.99452C1.91577 2.47418 1.91577 2.95383 1.91577 3.43349C1.91577 3.64668 1.70259 3.80656 1.5427 3.69997C1.4894 3.64668 1.38281 3.54008 1.38281 3.43349C1.38281 2.47418 1.38281 1.51486 1.38281 0.55554C1.38281 0.395653 1.4894 0.289062 1.64929 0.289062C1.80918 0.289062 1.91577 0.395654 1.91577 0.608835C1.91577 1.0352 1.91577 1.51486 1.91577 1.99452Z" fill="#27B2D1"/>
<path d="M13.0547 1.99452C13.0547 1.51486 13.0547 1.0352 13.0547 0.608835C13.0547 0.395654 13.1613 0.289062 13.3212 0.289062C13.4811 0.289062 13.5876 0.395654 13.5876 0.608835C13.5876 1.56815 13.5876 2.47418 13.5876 3.43349C13.5876 3.64668 13.4811 3.75327 13.3212 3.75327C13.1613 3.75327 13.0547 3.64668 13.0547 3.43349C13.0547 2.90054 13.0547 2.47418 13.0547 1.99452Z" fill="#27B2D1"/>
<path d="M3.3142 1.35748C3.3142 1.62396 3.3142 1.89044 3.3142 2.15692C3.3142 2.3701 3.20761 2.47669 3.04773 2.47669C2.88784 2.47669 2.78125 2.3701 2.78125 2.15692C2.78125 1.62396 2.78125 1.09101 2.78125 0.558054C2.78125 0.344872 2.88784 0.238281 3.04773 0.238281C3.20761 0.238281 3.3142 0.344872 3.3142 0.558054C3.3142 0.824531 3.3142 1.09101 3.3142 1.35748Z" fill="#27B2D1"/>
<path d="M12.2048 1.35749C12.2048 1.62396 12.2048 1.94374 12.2048 2.21021C12.2048 2.3168 12.0982 2.42339 12.0449 2.47669C11.9916 2.52998 11.8318 2.47669 11.7785 2.42339C11.7252 2.3701 11.6719 2.26351 11.6719 2.21021C11.6719 1.67726 11.6719 1.09101 11.6719 0.558054C11.6719 0.344872 11.7785 0.238281 11.9384 0.238281C12.0982 0.238281 12.2048 0.344872 12.2048 0.558054C12.2048 0.824531 12.2048 1.09101 12.2048 1.35749Z" fill="#27B2D1"/>
</svg>
