<svg width="122" height="103" viewBox="0 0 122 103" fill="none" xmlns="http://www.w3.org/2000/svg">
<path d="M114.041 97.6679C114.041 100.271 89.857 102.365 60.0365 102.365C30.2161 102.365 6.03223 100.271 6.03223 97.6679C6.03223 95.0643 30.2161 92.9707 60.0365 92.9707C89.857 92.9707 114.041 95.0643 114.041 97.6679Z" fill="#CCD7F3"/>
<path d="M35.5571 37.5449C36.0134 37.867 36.094 38.538 36.926 38.6991C36.094 38.9138 35.9866 39.5312 35.5571 39.9069C35.5303 39.8264 35.5303 39.7459 35.5034 39.6654L35.4229 39.4775H35.4498C35.3424 39.1017 35.1008 38.8601 34.6982 38.8065C34.6714 38.7259 34.6714 38.6723 34.6445 38.5917C35.235 38.5112 35.5303 38.1086 35.5571 37.5449Z" fill="#ECECF0"/>
<path d="M61.1093 7.26985C60.492 7.48458 60.2772 7.94087 60.0625 8.45085C59.9551 7.91403 59.7404 7.51142 59.1768 7.29669C59.6599 7.02828 59.982 6.70618 60.0625 6.03516C60.2504 6.6525 60.5188 7.05512 61.1093 7.26985Z" fill="#ECECF0"/>
<path d="M45.1655 20.8489C45.2192 20.7415 45.3534 20.6073 45.1387 20.4999C45.4339 20.2852 45.595 19.9631 45.7023 19.4531C45.8902 20.0436 46.1318 20.4731 46.7491 20.661C46.1586 20.9025 45.8902 21.2783 45.7292 21.9762C45.6218 21.4394 45.4608 21.0904 45.1655 20.8489Z" fill="#ECECF0"/>
<path d="M44.4674 67.9295C44.6284 68.6273 45.1116 69.0031 45.8631 69.2984C44.8968 69.5936 44.4942 70.2915 44.2527 71.2041C44.1721 70.8015 44.1184 70.5062 43.9574 70.2378C43.7964 69.862 43.4206 69.7278 43.0717 69.5936C42.9106 69.5399 42.8301 69.4057 42.8301 69.2715C42.8301 69.0031 43.018 69.2178 43.1253 69.1642C43.8769 68.9226 44.0916 68.2784 44.2527 67.5C44.36 67.661 44.4137 67.7953 44.4674 67.9295Z" fill="#ECECF0"/>
<path d="M52.5199 30.915C51.6341 31.1297 51.3657 31.8276 51.151 32.606C50.9631 32.2034 50.9899 31.7202 50.6142 31.425C50.5336 31.3444 50.4799 31.2639 50.3994 31.1834C50.2921 31.0223 50.131 30.9418 49.9163 30.915L49.5137 30.7808L49.5405 30.7539L49.5137 30.7271C49.6479 30.6734 49.7821 30.6466 49.9163 30.5929C50.1579 30.566 50.3457 30.4318 50.5068 30.244C50.5605 30.1634 50.6142 30.1097 50.6678 30.0292V30.0561C50.7215 29.9487 50.7752 29.8682 50.8289 29.7608H50.802C50.9631 29.6266 50.9899 29.4656 50.9899 29.2777C51.0436 29.1971 51.0705 29.1166 51.1241 28.9824C51.3389 29.3582 51.312 29.8413 51.7415 30.0561C51.7952 30.5929 52.493 30.4318 52.5199 30.915Z" fill="#ECECF0"/>
<path d="M72.4636 19.9628C72.3831 20.0701 72.3025 20.2043 72.2489 20.3117C72.1952 20.4459 72.1683 20.5801 72.0878 20.8217C71.8194 20.258 71.7657 19.6407 71.2021 19.3991C71.1215 19.2917 71.041 19.2649 70.9068 19.2649C71.041 19.1307 70.3163 19.1575 70.8531 18.916C71.3631 18.6744 71.7657 18.2986 71.7926 17.6813C71.9268 17.6544 71.9536 17.5471 71.9268 17.4397C72.0073 17.4397 72.1415 17.4128 72.1683 17.5471C72.3294 18.3523 72.9199 18.7549 73.5909 19.1038C73.1078 19.2649 72.7857 19.6138 72.4636 19.9628Z" fill="#ECECF0"/>
<path d="M40.3886 59.8237C40.2544 59.7968 40.2007 59.7163 40.1738 59.5821C41.0596 59.4747 41.328 58.8037 41.5964 57.918C41.8648 58.8037 42.2674 59.4479 43.2606 59.6626C42.348 59.9579 41.8648 60.4679 41.7306 61.2731C41.5427 61.4073 41.5427 61.4073 41.4354 61.0584C41.328 60.441 40.9791 60.0116 40.3886 59.8237Z" fill="#ECECF0"/>
<path d="M71.9258 43.1556C71.2011 43.3703 71.04 44.0145 70.7985 44.6855C70.369 44.0145 70.3153 43.0482 69.2148 43.0214C70.1811 42.7261 70.6106 42.1088 70.7716 41.0352C71.0669 42.0014 71.389 42.7261 72.3284 42.8604C72.1674 42.9677 72.0332 43.0482 71.9258 43.1556Z" fill="#ECECF0"/>
<path d="M50.8286 51.931C50.7481 52.1189 50.6676 52.3337 50.5602 52.5752C50.3723 51.7163 50.0502 51.0453 49.0303 50.7769C49.5134 50.589 49.8892 50.4548 50.1039 50.079C50.3992 49.8106 50.426 49.408 50.5871 48.9785C50.8018 49.8106 51.2044 50.4548 52.0902 50.75C51.4997 51.0453 51.0165 51.3674 50.8286 51.931Z" fill="#ECECF0"/>
<path d="M59.2844 46.9925C58.6134 47.2878 58.3181 47.6904 58.1302 48.4151C57.9423 47.7172 57.7008 47.2609 56.9492 47.0193C57.6739 46.7509 57.9692 46.3483 58.1034 45.7578C58.2913 46.3215 58.6134 46.7509 59.2844 46.9925Z" fill="#ECECF0"/>
<path d="M69.9139 30.6741C69.8602 30.8083 69.7528 30.8888 69.6455 30.9425C69.1892 31.1304 69.0818 31.5867 68.8402 31.9625C68.7597 31.8551 68.706 31.7477 68.6255 31.6672C68.5986 31.1572 68.196 30.9693 67.7129 30.7278C68.3571 30.4862 68.7329 30.0567 68.7597 29.4126C68.7865 29.3857 68.8134 29.3589 68.8134 29.332C69.0013 29.9762 69.216 30.5399 69.9139 30.6741Z" fill="#ECECF0"/>
<path d="M83.4145 56.2812C83.7366 56.0396 83.6561 55.5833 83.8976 55.2344C84.0855 56.0933 84.4881 56.7106 85.4276 56.979C84.676 57.2743 84.166 57.7038 84.005 58.4553C83.8976 58.7506 83.7903 58.7506 83.7366 58.4285C83.6024 57.6769 83.1192 57.2206 82.3945 57.0059C82.7703 56.818 83.2266 56.7106 83.4145 56.2812Z" fill="#ECECF0"/>
<path d="M78.1808 64.6545C77.4561 64.9229 77.1609 65.3524 76.9462 66.0234C76.7583 65.3792 76.5167 64.8961 75.792 64.6813C76.4899 64.4398 76.812 64.0103 76.9462 63.2051C77.134 63.9566 77.4025 64.4398 78.1808 64.6545Z" fill="#ECECF0"/>
<path d="M45.4343 42.1892C44.7633 42.4308 44.468 42.9139 44.2533 43.6118C44.1191 42.8871 43.8238 42.4039 43.0723 42.1892C43.8238 41.9745 44.1191 41.5182 44.2533 40.8203C44.468 41.4913 44.7633 41.9745 45.4343 42.1892Z" fill="#ECECF0"/>
<path d="M71.04 52.577C71.5769 52.3086 71.9526 52.0402 72.0332 51.4766C72.2479 51.9597 72.4895 52.3355 73.0531 52.5234C72.5163 52.7918 72.2211 53.1407 72.06 53.8117C71.8721 53.1407 71.6842 52.6844 71.04 52.577Z" fill="#ECECF0"/>
<path d="M55.3124 69.3519C54.8025 69.4861 54.5341 69.8888 54.3462 70.5866C54.212 69.8888 53.9972 69.4861 53.3799 69.2983C53.8899 69.0298 54.212 68.7346 54.373 68.2246C54.534 68.7883 54.9367 69.0567 55.3124 69.3519Z" fill="#ECECF0"/>
<path d="M60.4652 35.8281C60.6799 36.3918 60.8947 36.7676 61.6194 36.9555C60.9484 37.1433 60.6799 37.5191 60.4921 38.0828C60.2773 37.5728 60.1163 37.1165 59.3379 36.9823C60.0358 36.7944 60.3042 36.4186 60.4652 35.8281Z" fill="#ECECF0"/>
<path d="M61.3511 82.2088C61.2169 81.7525 60.6532 81.7256 60.4922 81.2962C61.1632 81.162 61.4048 80.6788 61.5121 80.0078C61.7806 80.5715 61.9684 81.1351 62.7737 81.3499C62.049 81.5914 61.7806 82.0477 61.5658 82.6651C61.4585 82.4504 61.4048 82.3161 61.3511 82.2088Z" fill="#ECECF0"/>
<path d="M62.5864 62.0262C62.5327 62.1335 62.5059 62.2409 62.3985 62.5093C62.1838 61.543 61.8617 60.8452 60.7344 60.6304C61.808 60.4157 62.2106 59.7984 62.3985 58.9395C62.6401 59.7447 63.0696 60.3352 63.8479 60.6304C63.8479 60.6573 63.8211 60.6841 63.8211 60.6841C63.7943 60.711 63.7943 60.711 63.7674 60.7378C63.1232 60.9257 62.7475 61.382 62.5864 62.0262Z" fill="#ECECF0"/>
<path d="M85.6963 48.1471C85.6963 47.5029 85.0789 47.315 84.7568 46.8856C85.4279 46.8051 85.5889 46.2682 85.7768 45.6777C85.9915 46.2414 86.2331 46.7514 86.9578 46.9661C86.2063 47.2077 86.2331 47.9055 85.7768 48.2545C85.7768 48.2545 85.75 48.2276 85.7231 48.2276C85.7231 48.2008 85.7231 48.174 85.6963 48.1471Z" fill="#ECECF0"/>
<path d="M75.4432 76.8408C75.309 76.0355 75.0138 75.5792 74.2891 75.3645C75.0138 75.1498 75.309 74.7203 75.4432 73.9688C75.658 74.6666 75.9532 75.1498 76.6511 75.3645C75.9264 75.6061 75.658 76.0892 75.4432 76.8408Z" fill="#ECECF0"/>
<path d="M40.3082 33.9473C40.7645 33.7863 40.6303 33.2226 40.9793 33.0079C41.194 32.6858 41.4892 32.5247 41.8382 32.4442C41.8113 32.2026 41.5429 32.2295 41.4356 32.0684C40.7645 31.8 40.6303 31.129 40.3888 30.4043C40.2277 31.4511 39.8251 32.1221 38.7246 32.3637C39.7446 32.5784 40.174 33.1152 40.3082 33.9473Z" fill="#CCD7F3"/>
<path d="M31.9335 49.543C31.853 49.704 31.8261 49.8114 31.7724 49.9187C31.6382 50.375 31.2625 50.5898 30.833 50.8045C31.6114 50.9119 31.6651 51.6366 32.0409 52.0392C32.1214 51.6366 32.2287 51.2608 32.6314 51.0729C32.685 51.0461 32.7119 50.9924 32.7656 50.9655C32.8729 50.9119 32.9803 50.885 33.0608 50.8313C33.034 50.7777 33.034 50.6971 33.0071 50.6435C32.363 50.6435 32.2824 49.9724 31.9335 49.543Z" fill="#CCD7F3"/>
<path d="M55.3119 13.0117C55.5535 12.3944 55.8487 11.9112 56.5735 11.6428C55.7951 11.4549 55.5267 10.945 55.3388 10.3008C55.1777 10.9718 54.9361 11.4818 54.2383 11.6697C54.9093 11.8576 55.0972 12.3944 55.3119 13.0117Z" fill="#CCD7F3"/>
<path d="M44.3334 22.0332C44.4944 21.4427 44.7092 21.0401 45.1923 20.8791C45.246 20.7717 45.3802 20.6375 45.1655 20.5301C44.6018 20.3691 44.4944 19.8322 44.2529 19.3223C44.1187 19.9665 43.8771 20.4764 43.2061 20.6912C43.8771 20.9059 44.0381 21.4427 44.3334 22.0332Z" fill="#CCD7F3"/>
<path d="M83.7369 58.4537C83.6027 57.7022 83.1195 57.2459 82.3948 57.0312C82.7974 56.8164 83.2269 56.7091 83.4148 56.3064C82.6364 54.7765 81.7506 53.3539 80.4086 52.2534C78.2881 50.5088 75.8456 49.623 73.1346 49.4888C72.9736 49.4888 72.8126 49.462 72.6247 49.462C71.3363 49.5425 70.0748 49.5962 68.8132 49.9183C67.4712 50.2672 66.156 50.6161 64.8676 51.1261C62.3982 52.1192 59.9557 53.2734 57.2984 53.7029C54.9095 54.0786 52.6012 53.9713 50.8297 51.9582C50.7492 52.1461 50.6686 52.3608 50.5613 52.6024C50.3734 51.7435 50.0513 51.0724 49.0313 50.804C49.5145 50.6161 49.8903 50.4819 50.105 50.1062C49.6487 47.1268 51.6886 43.9059 54.5338 43.1275C57.2716 42.3491 59.902 44.7379 59.392 47.5294C59.1773 48.7104 58.3184 49.1667 57.2179 48.7373C56.8153 48.5762 56.4395 48.3615 56.1174 48.0931C55.8221 47.8515 55.5 47.6099 55.0974 47.2878C55.1511 47.9052 55.3658 48.3078 55.5269 48.7104C56.4395 50.804 57.7547 51.6629 60.0362 51.5287C62.103 51.3945 63.8208 50.4819 65.3239 49.113C67.3101 47.3147 68.2496 45.0063 68.1154 42.3759C68.008 40.5507 67.3101 38.8329 66.2902 37.303C64.465 34.5115 61.9956 32.5252 58.8552 31.3711C56.7884 30.8074 54.668 30.7 52.5475 30.9416C51.6618 31.1563 51.3934 31.8542 51.1786 32.6326C50.9907 32.23 51.0176 31.7468 50.6418 31.4516C50.5076 31.4784 50.3734 31.5053 50.2392 31.5321C49.6755 31.7737 49.1119 32.0153 48.5482 32.2568C48.3872 32.3373 48.2529 32.4179 48.0919 32.5252C47.7161 32.74 47.3672 32.9547 46.9914 33.1694H46.9646C46.9109 33.2768 46.8304 33.3573 46.6962 33.3305C46.6425 33.5452 46.4546 33.6257 46.2667 33.7062C45.9983 33.9478 45.7299 34.1625 45.4883 34.4041C44.9247 35.0483 44.361 35.6656 43.7973 36.3098C43.7436 36.3635 43.7168 36.3904 43.69 36.444C43.1531 37.4103 42.6432 38.3766 42.1063 39.3429C42.1063 39.3966 42.1063 39.4234 42.0795 39.4502C41.9453 39.9065 41.8111 40.336 41.5695 40.7386L41.489 41.0339C41.4353 41.3291 41.3816 41.6244 41.2206 41.8928C41.1937 42.0001 41.1937 42.0807 41.1669 42.188L41.0595 42.6175C41.0327 42.7249 41.0059 42.8054 40.979 42.9127C40.818 43.9864 40.6032 45.06 40.5227 46.1605C40.3617 48.1736 40.6032 50.1598 41.2743 52.0924L41.3816 52.3876L41.4085 52.4413L41.3816 52.4682C41.3279 52.495 41.3011 52.5219 41.2474 52.5487C41.3011 52.8976 41.7842 52.8708 41.8379 53.2197C42.3211 53.8908 42.8042 54.5618 43.2605 55.2328C43.5558 55.4744 43.851 55.6891 44.1463 55.9575C46.9109 58.3464 50.0513 59.5811 53.7285 59.2053C54.1311 59.0442 54.6143 59.2053 55.0169 58.9637L55.3122 58.91C55.4195 58.91 55.5 58.8832 55.6074 58.8832C56.0905 58.7222 56.5468 58.5611 57.03 58.4269C57.1374 58.4001 57.2179 58.3464 57.3252 58.3195C57.3521 58.2927 57.4058 58.2658 57.4594 58.2658C59.5262 57.4338 61.5661 56.5749 63.8476 56.5749C67.1759 56.6017 69.9405 59.1516 70.2358 62.4799C70.4505 64.8956 68.6253 66.9892 66.1828 67.1234C64.5992 67.2039 63.1498 66.7745 61.754 66.1035C60.4656 65.4861 59.2041 64.8151 57.9157 64.1709C57.8621 64.144 57.8084 64.0904 57.7547 64.0635C57.5668 64.0367 57.4058 63.9562 57.3252 63.7683C56.9495 63.7683 56.6274 63.6609 56.3321 63.473C56.1979 63.4193 56.0369 63.3657 55.9027 63.3388C55.8221 63.2851 55.7685 63.2583 55.6879 63.2046C55.5806 63.2046 55.4464 63.1778 55.339 63.1778H55.2853H55.2316C54.9095 63.2046 54.6411 63.0167 54.3727 62.9362C54.1043 62.9094 53.8359 62.9094 53.5943 62.8825C51.4202 62.6409 49.4876 63.1778 47.6624 64.3588C46.2667 65.2714 45.3809 66.5866 44.6026 67.9823C44.7636 68.6802 45.2467 69.056 45.9983 69.3512C45.032 69.6465 44.6294 70.3443 44.3878 71.2569C44.3073 70.8543 44.2536 70.5591 44.0926 70.2907C43.851 72.0622 44.1194 73.7532 44.9515 75.3636C45.9715 77.323 47.5014 78.504 49.7829 78.6114C51.0981 78.6919 52.3596 78.4504 53.6212 78.2088C55.0169 77.9404 56.4126 77.5914 57.8621 77.6183C59.6604 77.4036 61.4319 77.5646 63.1229 78.2893C65.9949 79.4972 67.0417 82.2349 65.7802 85.0801C65.297 86.1806 64.5186 87.0932 63.9281 88.14C63.9818 88.1937 64.0087 88.2205 64.0623 88.2742C68.5985 85.9122 69.4843 80.9197 67.4443 77.0815C66.5586 75.4173 65.0018 74.7731 63.3108 74.3168C61.5393 73.8337 59.6873 73.6726 57.9694 73.0285C57.3252 72.7869 56.681 72.5185 56.1711 72.0085C55.4464 71.2838 54.9901 70.5054 55.4732 69.4586C54.9632 69.5928 54.6948 69.9686 54.5069 70.6933C54.3727 69.9954 54.158 69.5928 53.5406 69.4049C54.0506 69.1365 54.3727 68.8412 54.5338 68.3313C54.6948 68.8681 55.1243 69.1365 55.5 69.4317C56.6005 68.1165 57.9963 67.9286 59.6336 68.1434C61.6735 68.4118 63.284 69.4317 64.9213 70.5322C66.0486 71.2838 67.1222 72.1695 68.3838 72.76C69.35 73.2163 70.3432 73.4579 71.39 73.6726C73.9667 73.7263 76.4361 73.2432 78.7981 72.2232C81.348 71.1227 83.0659 69.2707 83.8711 66.6134C84.7032 63.9562 84.891 61.2721 84.22 58.5611C83.9248 58.7758 83.8174 58.7758 83.7369 58.4537ZM60.4656 35.8267C60.6804 36.3904 60.8951 36.7661 61.6198 36.954C60.9488 37.1419 60.6804 37.5177 60.4925 38.0813C60.2778 37.5714 60.1167 37.1151 59.3383 36.9809C60.0362 36.793 60.3046 36.4172 60.4656 35.8267ZM44.2536 43.6106C44.1194 42.8859 43.8242 42.4028 43.0726 42.188C43.8242 41.9733 44.1194 41.517 44.2536 40.8191C44.4684 41.4633 44.7636 41.9465 45.4346 42.188C44.7636 42.4564 44.4684 42.9127 44.2536 43.6106ZM72.061 53.8102C71.8731 53.1392 71.6584 52.6829 71.041 52.5755C71.5779 52.3071 71.9536 52.0387 72.0342 51.4751C72.2489 51.9582 72.4905 52.334 73.0541 52.5219C72.5173 52.7903 72.222 53.1124 72.061 53.8102ZM76.9461 66.0229C76.7582 65.3787 76.5166 64.8956 75.7919 64.6809C76.4898 64.4393 76.8119 64.0098 76.9461 63.2046C77.1608 63.9562 77.4292 64.4393 78.2076 64.654C77.4292 64.9224 77.1608 65.3519 76.9461 66.0229Z" fill="#CCD7F3"/>
<path d="M63.4991 28.286C64.5191 29.9233 66.559 31.2117 68.7868 29.4402C68.8137 29.4134 68.8405 29.3865 68.8405 29.3597C69.431 28.6618 69.9142 27.8834 69.9142 26.9171C69.941 25.7093 69.27 25.1456 68.089 25.3872C67.6327 25.4945 67.1764 25.6556 66.6395 25.7898C66.7201 25.0919 67.0422 24.6088 67.6327 24.3672C68.921 23.8036 70.6657 24.4209 71.3636 25.6556C72.1956 27.1587 72.0346 28.3934 70.8536 29.6549C70.5583 29.977 70.2094 30.2991 69.9142 30.648C69.8605 30.7822 69.7531 30.8628 69.6457 30.9165C69.4042 31.3728 69.1626 31.8559 68.8942 32.3122C68.8405 32.4732 68.8137 32.6343 68.76 32.7953V32.8222L68.7332 32.849C68.3037 34.8084 68.8405 36.6068 69.7263 38.2978C69.6994 37.8415 69.6457 37.3583 69.6189 36.902C69.4579 35.1037 69.4847 33.3322 70.7999 31.9096C71.5246 31.1312 72.4372 30.5675 73.2961 30.0039C75.1213 28.796 76.2218 27.1587 75.8997 24.8772C75.5776 22.6762 74.5308 20.9047 72.4372 19.9116C72.3567 20.019 72.2762 20.1532 72.2225 20.2605C72.1688 20.3947 72.142 20.5289 72.0614 20.7705C71.793 20.2069 71.7393 19.5895 71.1757 19.3479C71.0683 19.2943 70.9878 19.2674 70.8804 19.2137C69.9142 19.0795 68.9479 18.9453 67.9548 19.0527C66.6664 19.1869 65.4854 19.5627 64.5191 20.4484C62.9892 21.8173 62.5329 23.5888 62.5597 25.5482C62.8013 26.5414 62.9892 27.4808 63.4991 28.286Z" fill="#CCD7F3"/>
<path d="M41.4353 61.0594C40.979 60.7373 40.5764 60.3615 40.3885 59.8247C40.2543 59.7979 40.2006 59.7173 40.2006 59.5831C40.0396 59.1537 39.8517 58.7242 39.8517 58.2679C39.798 58.1874 39.7712 58.0532 39.7175 58.0264C39.5564 57.9727 39.6369 58.1337 39.6101 58.2142C39.5296 58.6974 39.4759 59.1537 39.1538 59.5563C39.1001 59.7442 39.0733 59.9858 38.9391 60.1468C38.6975 60.4689 38.5633 60.9789 37.9996 60.8984C37.9728 60.9789 37.9728 61.0594 37.946 61.1399C37.5433 61.5425 36.9528 61.5157 36.416 61.8378C38.2949 62.1062 39.4491 63.4751 39.6369 65.5687C40.1469 63.7704 40.9253 62.2136 43.0458 61.7841C42.5358 61.5962 42.1332 61.4352 41.7306 61.301C41.5427 61.3815 41.5427 61.3815 41.4353 61.0594Z" fill="#CCD7F3"/>
<path d="M54.4805 24.3942C55.8762 24.7968 56.6278 25.602 56.8156 26.8904C56.7888 26.9441 56.7351 27.0246 56.7083 27.0783C57.0035 27.3467 57.0572 27.2125 57.1377 26.8904C57.2988 26.0315 57.7551 25.3336 58.4798 24.8505C58.775 24.6626 59.2045 24.6894 59.4192 24.3136C57.9967 23.9379 57.3256 22.9716 57.0841 21.6027C57.0841 21.5222 57.1646 21.2806 56.8962 21.4148C56.8962 21.5222 56.8693 21.6027 56.8693 21.7101C56.7083 23.1058 55.9836 24.0184 54.4805 24.3942Z" fill="#CCD7F3"/>
<path d="M86.8503 36.3911C86.8234 36.3106 86.7966 36.2032 86.7966 36.1227C86.7429 35.9885 86.7161 35.8275 86.6624 35.6933C86.5819 35.398 86.4745 35.1296 86.394 34.8343C86.3671 34.727 86.3134 34.6196 86.2866 34.5391C86.2329 34.4317 86.2061 34.3512 86.1524 34.2438C85.8571 33.7875 85.5619 33.3312 85.2935 32.8481C84.703 32.2844 84.1393 31.7208 83.3878 31.345C80.6768 29.9761 76.6238 30.9424 74.557 33.3581C73.215 34.9417 72.9197 36.6864 73.2955 38.6726C73.5371 39.9341 73.7518 41.2494 73.4566 42.5109C72.9197 44.6313 71.4972 46.1344 69.833 47.4497C72.3829 46.7786 74.906 46.0539 76.9727 44.2556C77.0533 44.1482 77.1338 44.0677 77.2143 43.9603C77.3217 43.8261 77.429 43.6919 77.5364 43.5308C77.939 42.8061 78.1806 42.0546 78.2611 41.2494C78.2611 41.142 78.2611 41.0615 78.2611 40.9541C78.2611 40.7662 78.2611 40.5783 78.2611 40.3904C78.1269 39.6121 78.1537 38.8337 78.4222 38.0821C78.5027 37.8942 78.5832 37.7063 78.6637 37.4916C78.9053 36.9279 79.2274 36.4985 79.8447 36.3106C79.9521 36.1495 80.1132 36.1227 80.2742 36.1495V36.1764C80.3279 36.1495 80.3816 36.0959 80.4352 36.069C80.6768 36.0153 80.9184 35.9885 81.16 36.0422C81.321 36.0422 81.482 36.0153 81.5894 36.1495C81.6968 36.2032 81.8041 36.2569 81.8847 36.3106C82.6362 36.8474 82.7704 37.4648 82.3141 38.3505C82.2873 38.5384 82.2068 38.6995 82.0189 38.78C81.5089 39.5852 80.8647 39.5047 80.1668 39.0752C80.1668 39.1557 80.1668 39.2631 80.1668 39.3436C80.2474 39.4778 80.2474 39.6389 80.2205 39.7731C80.301 40.0683 80.3547 40.3368 80.4352 40.632C80.6231 40.8736 80.7842 41.1151 80.9721 41.3567C80.9989 41.3567 81.0257 41.3836 81.0257 41.4372C81.2673 41.5983 81.5089 41.7325 81.7505 41.8935C82.341 42.0814 82.9315 42.1888 83.5757 42.162C83.683 42.1351 83.7904 42.1351 83.8977 42.1083L85.0251 41.7325C85.0788 41.7057 85.1324 41.6788 85.1861 41.6251C85.6156 41.2762 86.045 40.9273 86.3671 40.471C86.4208 40.3636 86.5013 40.2562 86.555 40.1489C86.9845 39.1557 87.0918 38.1089 87.0113 37.0085C86.8771 36.8743 86.8503 36.6327 86.8503 36.3911Z" fill="#CCD7F3"/>
<path d="M79.8175 27.5874C80.3275 26.4064 80.4348 26.2454 81.4011 25.7354C80.4885 25.4938 80.059 24.8497 79.8175 24.0176C79.6833 24.957 79.227 25.5475 78.1533 25.7891C79.227 26.0038 79.6296 26.6748 79.8175 27.5874Z" fill="#CCD7F3"/>
<path d="M69.752 38.3789L69.8058 38.4866C69.8058 38.4596 69.7789 38.4327 69.752 38.3789Z" fill="#CCD7F3"/>
<path d="M60.4921 81.2944C60.3311 80.9723 60.1968 80.6502 60.0358 80.3281C59.9284 81.1602 59.5258 81.8312 58.5059 82.1533C59.5795 82.4217 59.9016 83.0928 60.0895 84.1127C60.2774 83.1464 60.6531 82.5559 61.3779 82.207C61.2168 81.7507 60.6531 81.697 60.4921 81.2944Z" fill="#CCD7F3"/>
<path d="M65.0007 61.7021C64.4102 61.4605 64.0075 61.1921 63.766 60.709C63.1218 60.8969 62.746 61.38 62.585 62.0242C63.1755 62.2926 63.2291 62.91 63.5244 63.5005C63.7123 62.6415 64.1954 62.0779 65.0007 61.7021Z" fill="#CCD7F3"/>
<path d="M84.7828 46.8856C84.2997 46.2682 84.0044 45.5704 83.9507 44.7651V44.7383C83.8702 44.7651 83.7897 44.7651 83.736 44.792C83.7629 45.8656 83.4408 46.7782 82.4476 47.3687C82.2597 47.4492 82.045 47.5566 81.8571 47.6371C81.6961 47.6908 81.5619 47.7445 81.3203 47.8519C81.7498 47.9861 82.0987 48.0129 82.3403 48.2545C83.4408 48.7644 83.6018 49.8381 83.8971 50.9386C84.1655 49.677 84.5681 48.6571 85.6954 48.1203C85.6954 47.5029 85.1049 47.315 84.7828 46.8856Z" fill="#CCD7F3"/>
<path d="M91.4399 51.9863C91.3594 52.711 90.9836 53.0331 90.4199 53.3284C91.0641 53.5431 91.2788 54.0263 91.5204 54.5899C91.7351 53.9994 91.9499 53.5163 92.6746 53.3284C92.0304 53.06 91.7351 52.6037 91.4399 51.9863Z" fill="#CCD7F3"/>
<path d="M88.9172 34.9668C89.0782 35.8526 89.4272 36.5504 90.3397 36.8725C90.3129 37.1409 90.0177 37.0872 89.8834 37.2483C89.5882 37.4093 89.3466 37.6241 89.2661 37.9462C89.0782 38.1609 89.0782 38.483 88.944 38.8051C88.7024 37.9462 88.4609 37.1409 87.4409 37.0604C87.4409 37.0067 87.4409 36.953 87.4141 36.8994C87.5751 36.8725 87.7898 36.8994 87.8972 36.7115C87.9509 36.6578 88.0046 36.6309 88.0314 36.5773C88.3267 36.5773 88.4609 36.4162 88.4877 36.121C88.7561 35.9062 88.8098 35.5841 88.783 35.262C88.9172 35.2084 88.8903 35.0742 88.9172 34.9668Z" fill="#ECECF0"/>
<path d="M3.83105 52.8998C4.74365 51.5309 5.92466 50.4036 6.97146 49.142C8.34036 47.5316 9.7361 45.948 11.0782 44.3375C11.4808 43.8812 11.776 43.7201 12.3128 44.1764C17.4126 48.4979 22.5393 52.8193 27.6659 57.1407C27.9612 57.4091 28.1222 57.6507 27.988 58.0533C27.6123 59.1001 26.7534 59.7711 26.0823 60.5495C24.3913 62.5089 22.7272 64.4683 21.0094 66.4009C20.7946 66.6424 20.6067 66.9377 20.2578 66.9645C19.9089 66.884 19.721 66.5351 19.4257 66.374C14.648 62.4016 9.95082 58.3485 5.17311 54.3761C4.68997 53.9466 4.09947 53.5708 3.83105 52.8998Z" fill="#ADC3F4"/>
<path d="M3.83079 52.9004C5.97808 54.6987 8.12537 56.4971 10.2727 58.2955C13.3862 60.9259 16.4998 63.5831 19.6134 66.2404C19.8281 66.5625 19.6134 66.8041 19.4255 67.0188C18.9155 67.6362 18.486 68.3072 17.9224 68.844C17.0366 69.7029 16.3119 70.6155 16.0703 71.8502C14.4062 70.6692 12.9299 69.2735 11.3731 67.9582C10.1921 66.9383 8.9306 65.972 7.74959 64.9252C6.16597 63.5295 4.5555 62.2143 2.94503 60.8454C2.24716 60.2549 1.5493 59.718 0.878269 59.1007C-0.222216 58.1076 -0.302739 57.4365 0.717222 56.3629C1.65666 55.3698 2.46189 54.2693 3.37449 53.2762C3.5087 53.142 3.66974 53.0346 3.83079 52.9004Z" fill="#33479D"/>
<path d="M20.2576 66.884C22.6465 64.1193 25.0353 61.3815 27.4242 58.6169C27.5852 58.429 27.8 58.268 27.9879 58.0801C28.5784 58.5901 29.1689 59.1 29.7594 59.61C29.9473 60.0663 29.5715 60.3079 29.3568 60.5763C27.0484 63.2336 24.7401 65.8908 22.4586 68.5481C22.056 68.897 21.7876 69.407 21.2776 69.6754C21.1434 69.7291 20.9823 69.7291 20.8481 69.6486C20.3918 69.3533 20.0697 69.4339 19.7208 69.8633C19.3987 70.2659 19.184 70.6149 19.6403 71.0712C19.7745 71.2054 19.7745 71.3933 19.7208 71.5811C19.6134 71.8496 19.3987 72.0643 19.184 72.2522C18.4861 72.8964 17.8688 72.8964 17.1709 72.279C16.473 71.6617 16.3925 70.9906 16.9562 70.2928C17.8151 69.2191 18.7545 68.226 19.6671 67.2061C19.8282 66.9913 20.0161 66.8571 20.2576 66.884Z" fill="#F7F7E0"/>
<path d="M22.2695 68.3863C24.3363 65.9706 26.4299 63.5549 28.4967 61.1392C28.9261 60.6292 29.3287 60.0924 29.7582 59.5824C29.9998 59.5019 30.2682 59.2872 30.4561 59.6093C30.6171 59.8777 30.3755 60.0924 30.2145 60.2803C27.7451 63.1255 25.2757 65.9438 22.8064 68.7889C22.4574 68.8963 22.2964 68.7084 22.2695 68.3863Z" fill="#ADC3F4"/>
<path d="M20.2577 66.8825C19.2377 68.0635 18.1909 69.2713 17.1709 70.4523C16.5804 71.1502 16.6341 71.4455 17.3857 72.1165C17.9762 72.6533 18.4861 72.707 19.023 72.0628C19.2109 71.8212 19.4524 71.5797 19.6672 71.3649C20.0161 71.3113 20.2308 71.4186 20.204 71.8212C19.9624 72.1165 19.7477 72.4117 19.4793 72.6801C18.6472 73.5122 17.9225 73.5391 17.0367 72.7607C16.7146 72.4654 16.3925 72.1702 16.0704 71.8481C15.7215 70.7744 16.4462 70.0766 17.0636 69.4055C17.9762 68.4124 18.8888 67.3924 19.6135 66.2383C19.9087 66.3456 20.1235 66.5872 20.2577 66.8825Z" fill="#7B88D0"/>
<path d="M20.2037 71.7964C20.0963 71.5816 19.8816 71.4474 19.6669 71.3401C19.5326 71.2059 19.4521 71.0717 19.2911 70.9911C18.8079 70.6959 18.8079 70.4006 19.2106 70.0517C19.2642 69.998 19.3448 69.9175 19.3716 69.8638C19.8547 68.9781 20.4452 68.8439 21.17 69.5686C21.4652 69.5954 21.7336 69.6759 21.7873 70.0517C22.5925 70.5348 22.4046 71.2596 22.2973 71.9574C22.2436 72.3332 22.1899 72.709 22.1094 73.1921C21.4384 72.709 20.821 72.2527 20.2037 71.7964Z" fill="#FD4D0A"/>
<path d="M21.7873 70.0782C21.5725 69.9172 21.3847 69.7561 21.1699 69.5951C21.5189 69.1925 21.8946 68.8167 22.2436 68.4141C22.4315 68.5483 22.5925 68.6825 22.7804 68.8167C22.4851 69.2193 22.1362 69.6487 21.7873 70.0782Z" fill="#7B88D0"/>
<path d="M25.1696 25.0377C24.5791 25.1451 24.2302 25.6014 24.1228 26.0577C23.8544 27.1045 23.6396 28.1781 23.6396 29.2786C24.0423 28.9834 24.4449 28.715 24.6865 28.2587C25.277 28.5539 25.8675 28.6344 26.4848 28.3929C26.6727 27.2924 26.8606 26.1919 27.0753 25.0914C26.4311 25.0377 25.8138 24.7156 25.1696 25.0377Z" fill="#33479D"/>
<path d="M22.5392 41.6241C22.0561 41.7315 21.8145 42.1072 21.5461 42.483C21.224 43.5298 21.0361 44.5766 21.0361 45.6771C21.2777 45.1671 21.7072 44.8987 22.1903 44.684C22.754 44.5498 23.3176 44.7645 23.8813 44.7914C24.0423 43.7446 24.2034 42.6978 24.3644 41.6509C23.7739 41.5436 23.1566 41.3557 22.5392 41.6241Z" fill="#33479D"/>
<path d="M24.5251 29.3591C24.0688 29.5201 23.7199 29.8154 23.5051 30.2448C23.2099 31.1574 23.0488 32.0969 23.0488 33.0632C23.3172 32.4995 23.7735 32.1506 24.364 31.9895C24.874 31.9627 25.4108 32.0164 25.9208 32.1506C26.055 31.238 26.2161 30.3254 26.3503 29.3859C25.7329 29.3054 25.1156 29.1444 24.5251 29.3591Z" fill="#33479D"/>
<path d="M27.0747 25.1191C31.6377 25.8439 36.2007 26.5686 40.7637 27.2664C41.22 27.347 41.3542 27.5617 41.2737 28.018C40.2537 34.4062 39.2338 40.8212 38.2138 47.2094C37.9722 47.2899 37.7307 47.2362 37.5159 47.2094C33.275 46.5383 29.0341 45.8673 24.7933 45.1963C24.4712 45.1426 24.1222 45.1158 23.8538 44.8473C23.7196 44.6595 23.7196 44.4447 23.7464 44.2032C23.8807 43.3174 23.988 42.4317 24.2027 41.5459C24.3906 39.7475 24.7396 37.9492 25.0348 36.1508C25.2495 34.7819 25.4106 33.413 25.7058 32.071C25.7864 31.1584 25.9206 30.2458 26.1353 29.36C26.1621 29.0111 26.189 28.689 26.2964 28.3669C26.35 27.4812 26.5379 26.6222 26.6721 25.7365C26.7258 25.4949 26.8332 25.2533 27.0747 25.1191Z" fill="#656FCB"/>
<path d="M25.8937 32.1787C23.639 45.3577 25.5716 40.3116 21.5186 42.3247C22.0822 39.0232 22.3238 35.8828 23.2095 32.5545C23.6927 31.7761 25.2763 31.454 25.8937 32.1787Z" fill="#CCD7F3"/>
<path d="M23.8804 44.7915C28.3898 45.5162 32.8991 46.2409 37.4084 46.9388C37.6768 46.9924 37.972 46.9924 38.1868 47.2072C38.1599 47.3682 38.1331 47.5024 38.1331 47.6635C37.9452 47.9319 37.7036 47.9319 37.4084 47.8782C32.6575 47.1267 27.9066 46.3751 23.1557 45.6236C22.78 45.5699 22.4042 45.4893 22.1089 45.8114C22.0016 45.9725 21.8674 46.1335 21.7868 46.3214C21.5453 46.9924 21.8942 47.6098 22.5921 47.7172C22.8336 47.744 23.0752 47.7708 23.2899 47.8782C23.5315 48.1466 23.8268 47.9856 24.0952 47.9587C24.3904 47.9856 24.6857 48.0392 24.9809 48.0929C25.2225 48.1466 25.3567 48.5761 25.7056 48.3345C28.9803 48.7908 32.2549 49.3545 35.5295 49.8644C35.8516 49.8644 36.1468 49.9718 36.4421 49.9718C36.6568 49.9986 36.8715 50.0792 37.0326 49.8644C37.0863 49.8376 37.1399 49.8108 37.1936 49.7839C37.4889 49.9181 37.5426 50.2134 37.6768 50.4281C37.6768 50.8307 37.4889 50.9649 37.0594 50.9112C32.1207 50.106 27.1819 49.3545 22.2431 48.5492C20.9816 48.3345 20.4448 47.0461 21.0085 45.6772C21.0621 44.8988 21.6795 44.711 22.2431 44.4694C22.8605 44.4157 23.4241 44.362 23.8804 44.7915Z" fill="#877EF0"/>
<path d="M23.639 29.304C24.0685 28.2572 25.2226 28.0693 26.4842 28.4182C26.4573 29.0624 26.2963 29.304 26.1352 29.3845C25.84 29.5455 25.5447 29.1966 25.0348 29.2235C24.5785 29.2503 24.2027 29.5724 23.9343 29.8945C23.7732 30.0287 23.5853 30.1629 23.5048 30.1092C23.3706 30.0555 23.5048 29.6261 23.639 29.304Z" fill="#CCD7F3"/>
<path d="M37.5701 47.7177C37.7579 47.6909 37.9727 47.6909 38.1606 47.6641C37.9995 48.6035 37.8653 49.5161 37.7043 50.4555C37.409 50.375 37.1406 50.2408 37.248 49.865C37.1138 49.7845 37.0869 49.6503 37.0869 49.5161C37.0869 49.3819 37.0869 49.2477 37.1406 49.1403C37.1674 49.0061 37.1674 48.8988 37.1943 48.7645C37.1943 48.6303 37.2211 48.523 37.248 48.3888C37.248 48.2814 37.2748 48.2009 37.3016 48.0935C37.3285 47.9325 37.3822 47.7714 37.5701 47.7177Z" fill="#33479D"/>
<path d="M28.2294 37.4104C28.4442 36.122 28.6321 34.8337 28.8468 33.5721C28.9542 32.8743 29.1957 32.6864 29.9204 32.7937C32.014 33.1158 34.1076 33.4379 36.2013 33.7868C37.0602 33.9211 37.2481 34.1626 37.087 35.0484C36.7112 37.4104 36.3355 39.7993 35.9597 42.1613C35.9328 42.4028 35.8523 42.6176 35.7986 42.8591C35.6913 43.2349 35.4497 43.3691 35.0739 43.3154C32.7656 42.9397 30.4573 42.5907 28.1489 42.215C27.6121 42.1344 27.5584 41.7587 27.6121 41.3292C27.8 40.014 28.0147 38.6988 28.2294 37.4104Z" fill="#CCD7F3"/>
<path d="M33.57 30.5386C32.389 30.3507 31.208 30.1628 30.0002 29.9749C29.6512 29.9212 29.3292 29.787 29.3828 29.3844C29.4365 29.0086 29.7586 28.9281 30.1075 28.9818C32.4696 29.3576 34.8584 29.7334 37.2204 30.1091C37.5694 30.1628 37.8378 30.297 37.7573 30.7265C37.6767 31.1828 37.3546 31.1559 37.0057 31.1022C35.9052 30.9144 34.7242 30.7265 33.57 30.5386Z" fill="#CCD7F3"/>
<path d="M23.6663 46.3493C24.3373 46.1883 24.9546 46.4567 25.5988 46.5372C25.8404 46.5641 25.7867 46.8056 25.7599 46.9667C25.7062 47.4498 25.6257 47.9598 25.572 48.443C25.223 48.8724 25.2499 48.2282 25.062 48.2551C24.7399 47.9867 24.391 47.8524 23.9884 48.0672C23.8005 47.9867 23.5321 48.7114 23.3979 47.9867C23.3442 47.8793 23.2636 47.7719 23.2905 47.6109C23.2905 47.4767 23.3173 47.3425 23.3442 47.2351C23.371 47.1009 23.371 46.9935 23.3979 46.8593C23.4247 46.7251 23.4247 46.6178 23.4784 46.4836C23.5052 46.4567 23.5589 46.3762 23.6663 46.3493Z" fill="#FD4D0A"/>
<path d="M23.9346 48.0932C24.5519 47.6369 24.5519 47.6369 25.0082 48.2811C24.6593 48.2274 24.3103 48.1738 23.9346 48.0932Z" fill="#E4EAE6"/>
<path d="M37.5697 47.7175C32.6846 46.9391 27.7727 46.1607 22.8876 45.3823C22.4581 45.3018 22.0823 45.4092 21.8676 45.8118C21.1697 46.8049 21.5455 47.7175 22.7265 47.9322C22.9413 47.9591 23.156 48.0128 23.3707 48.0396C23.3976 47.9054 23.3976 47.7712 23.4244 47.6638C23.4512 47.5565 23.4512 47.4223 23.4781 47.3149L23.5318 46.966C23.5586 46.8586 23.5586 46.7244 23.5854 46.617C23.5854 46.5902 23.6123 46.5365 23.6123 46.5097C23.9881 46.5902 24.337 46.5902 24.7128 46.6707C25.4912 46.8049 25.4912 46.8049 25.4106 47.5833C25.3838 47.9054 25.1959 48.2543 25.5448 48.5227C25.7864 48.5496 26.028 48.5764 26.2696 48.6301C29.41 49.1132 32.5504 49.6232 35.6908 50.1064C36.0397 50.1601 36.3886 50.2137 36.7644 50.2943C37.0865 50.3748 37.2207 50.2406 37.1939 49.9185L37.2476 49.8916C37.2476 49.7574 37.2744 49.6501 37.2744 49.5159C37.3012 49.3817 37.3012 49.2743 37.3281 49.1401C37.3549 49.0327 37.3818 48.8985 37.3818 48.7912C37.4086 48.657 37.4086 48.5496 37.4355 48.4154C37.4355 48.3349 37.4623 48.2543 37.4623 48.1738C37.4891 48.0128 37.516 47.8786 37.5697 47.7175Z" fill="#F7F7E0"/>
<path d="M108.135 95.0123C108.054 94.7707 108 94.5292 107.92 94.2607C107.598 94.4218 107.249 94.3144 106.927 94.2876C107.034 94.2876 107.168 94.2876 107.276 94.2876C107.49 94.2876 107.705 94.3144 107.893 94.1534C107.651 93.6166 107.356 93.1334 107.195 92.5698C106.927 91.6572 106.068 91.1472 105.719 90.2883C105.504 89.7514 105.289 89.2146 104.779 88.8388C104.565 88.6778 104.323 88.5973 104.055 88.5704C101.049 88.2483 98.096 87.6847 95.1435 87.1479C93.5062 86.8794 91.8957 86.5037 90.2584 86.1816C86.9838 85.5374 83.6824 85.0811 80.3272 85.0811C79.5488 85.1079 78.7436 85.0811 77.9652 85.0811C77.1063 85.0542 76.2474 85.2153 75.4153 85.3495C71.6039 85.8863 68.0877 87.0942 65.1083 89.6172C64.3568 90.2614 63.5515 90.8788 63.1221 91.8182C63.1221 92.0329 63.2831 92.1403 63.4442 92.2208C64.7594 92.865 65.672 93.9386 66.3698 95.2002C66.5041 95.4149 66.6114 95.6565 66.9067 95.737C67.3093 95.8175 67.7119 95.737 68.1145 95.6296C71.2549 94.8244 74.449 94.556 77.6699 94.4755C79.9514 94.4218 82.2061 94.6365 84.4876 94.8512C87.3864 95.1465 90.2853 95.4149 93.1841 95.6565C93.6941 95.6565 94.1772 95.7907 94.6872 95.7907C98.9549 95.7907 103.223 95.7907 107.464 95.7907C107.732 95.7907 108.027 95.8175 108.242 95.6028C108.215 95.4149 108.188 95.227 108.135 95.0123Z" fill="#CDB299"/>
<path d="M55.4998 85.6701C53.0035 84.4891 50.3194 84.1939 47.6085 84.0328C45.1123 83.8986 42.616 84.1133 40.1198 84.4354C35.7179 85.0259 31.3965 86.0996 27.0482 87.0122C24.2567 87.6027 21.4384 88.0858 18.5933 88.5421C18.2175 88.5958 17.8417 88.6226 17.5196 88.8374C17.1975 89.1058 17.0902 89.5084 16.9023 89.8305C16.5802 90.3673 16.3923 91.0652 15.936 91.3873C15.426 91.7631 15.265 92.2193 15.0771 92.7293C14.8087 93.4272 14.5403 94.1519 14.2718 94.8498C14.4329 95.0108 14.6476 94.9571 14.8355 94.9571C14.916 94.9571 14.9966 94.9571 15.0771 94.9571C14.9429 94.9571 14.7818 94.9571 14.6476 94.9571C14.4597 94.9571 14.2987 94.9571 14.1376 95.0914L14.0303 95.5745C14.2987 95.8429 14.6745 95.7624 14.9966 95.7624C18.298 95.7355 21.6263 95.8697 24.9278 95.6282C26.753 95.4671 28.5781 95.3866 30.4302 95.2792C32.3627 95.1719 34.2953 95.0108 36.2279 94.8498C38.8851 94.6619 41.5692 94.5008 44.2265 94.4203C45.8907 94.3666 47.528 94.5277 49.1921 94.635C50.9905 94.7693 52.762 95.0108 54.4798 95.5476C54.6945 95.5745 54.8824 95.655 55.0971 95.6013C55.3656 95.494 55.4461 95.2256 55.5535 94.984C56.5734 93.0514 58.1302 91.9241 60.3312 91.6825C60.6264 91.6557 60.9754 91.6825 61.1901 91.3604C61.1901 91.0652 61.0559 90.8236 60.9217 90.582C59.687 88.4079 57.8349 86.7975 55.4998 85.6701Z" fill="#CDB299"/>
<path d="M82.3139 70.7476C84.0585 69.5129 85.9374 68.4661 87.8163 67.4998C89.4536 66.6677 91.1177 65.8893 92.755 65.0841C93.3724 64.8425 93.9629 64.6278 94.6876 64.3594C94.3118 65.7283 93.936 67.0166 93.5871 68.2782C93.4797 68.7076 93.0503 68.6003 92.7819 68.654C90.8762 68.976 88.9704 69.3787 87.0916 69.835C85.4811 70.2107 83.8975 70.667 82.3139 71.2039C82.1528 71.2575 81.9918 71.3649 81.8039 71.3112C81.777 70.9891 82.2333 71.016 82.3139 70.7476Z" fill="#BEA38D"/>
<path d="M82.3133 70.7461C82.3401 71.095 81.857 71.0413 81.8301 71.3366C81.5617 71.4976 81.2933 71.6587 80.998 71.7124C81.3201 71.2561 81.857 71.0413 82.3133 70.7461Z" fill="#92806D"/>
<path d="M66.7995 95.6579C67.2021 95.6311 67.6316 95.6579 68.0074 95.5237C75.0397 95.309 82.0721 95.4969 89.1045 95.4432C90.1513 95.4432 91.2249 95.47 92.2717 95.5774C92.5401 95.6042 92.8354 95.6311 93.1038 95.5505C97.801 95.7921 102.525 95.6042 107.222 95.6579C107.571 95.6579 107.893 95.6579 108.242 95.6311C108.886 95.7116 109.208 96.0068 109.182 96.49C109.155 96.9731 108.806 97.2147 108.135 97.2147C95.0364 97.2147 81.9647 97.2147 68.8663 97.2147C68.6247 97.2147 68.3295 97.1342 68.1147 97.3221C67.6584 97.4026 67.2021 97.4026 66.7458 97.3221C66.3701 97.2415 66.048 97.1073 66.0748 96.6242C66.1016 96.49 66.1822 96.4095 66.3164 96.49C66.7995 96.7316 66.8264 96.49 66.719 96.1142C66.7458 95.9532 66.6653 95.7921 66.7995 95.6579Z" fill="#656FCB"/>
<path d="M14.0563 95.6293C17.3577 95.6025 20.686 95.7635 23.9875 95.5488C24.3364 95.5219 24.6585 95.5488 25.0075 95.5488C25.9469 95.683 26.8863 95.5219 27.8258 95.5219C28.6847 95.4951 29.5436 95.4682 30.4025 95.4682C37.9717 95.4682 45.5677 95.4682 53.1369 95.4414C53.6469 95.4414 54.1569 95.6025 54.6669 95.5219C54.8279 95.5756 54.9621 95.6025 55.1232 95.6561C55.2305 95.7903 55.1768 95.9246 55.15 96.0588C55.1232 96.2198 55.0158 96.4345 55.2305 96.5151C55.4452 96.6224 55.4989 96.354 55.5795 96.2198C55.6868 96.0587 55.7137 95.7903 56.0358 95.8709C56.331 96.0856 56.4384 96.3808 56.3042 96.7029C56.17 97.1056 55.8747 97.3203 55.4721 97.3471C54.8816 97.4008 54.2911 97.3203 53.7006 97.4545C53.5664 97.0787 53.2443 97.2129 52.9759 97.2129C43.0983 97.2129 33.194 97.2129 23.3165 97.2129C20.2834 97.2129 17.2772 97.2129 14.2442 97.2129C13.9221 97.2129 13.6 97.2398 13.3584 96.9445C13.1705 96.7029 13.1168 96.4614 13.1974 96.1661C13.3584 95.7635 13.6805 95.6561 14.0563 95.6293Z" fill="#656FCB"/>
<path d="M62.9608 91.8709C63.0414 91.8978 63.1219 91.8978 63.2024 91.9246C64.8934 92.6762 65.967 94.0451 66.7991 95.6555C66.8259 95.7897 66.8528 95.9239 66.9065 96.0581C67.0138 96.2997 67.0675 96.5681 66.7991 96.7292C66.477 96.9439 66.3696 96.6218 66.2086 96.4339C65.5644 94.555 64.4908 93.0519 62.5045 92.5151C59.7399 91.7904 57.0021 93.0251 55.8748 95.8434C55.7943 96.0313 55.7137 96.246 55.6332 96.4339C55.5258 96.6486 55.4185 96.8365 55.1501 96.7292C54.9085 96.6218 54.8817 96.4071 54.9353 96.1923C54.989 96.0045 55.0695 95.8166 55.1232 95.6287C55.7943 94.1524 56.7337 92.9177 58.2368 92.193C59.1494 91.7367 60.1425 91.6025 61.1356 91.5488C61.2698 91.7099 61.4577 91.6294 61.6456 91.6294C61.8872 91.6562 62.1288 91.6562 62.3972 91.683C62.5851 91.7636 62.7729 91.8172 62.9608 91.8709Z" fill="#FD4D0A"/>
<path d="M77.8584 85.2952C78.6905 85.1073 79.5494 85.1073 80.3815 85.2952C79.5494 85.2952 78.7173 85.2952 77.8584 85.2952Z" fill="#CAC8B4"/>
<path d="M47.2053 92.7563C47.2053 92.1658 47.1784 91.5485 47.1784 90.958C47.0711 90.3675 47.2321 89.7501 47.1248 89.1596C47.1248 89.0791 47.0979 88.9717 47.0979 88.8912C46.9905 88.7838 46.9905 88.6496 47.0711 88.5154C47.0711 87.7639 47.0711 87.0123 47.0711 86.2876C47.1248 86.2339 47.1784 86.2071 47.259 86.2071C49.111 86.1803 50.963 86.4218 52.7614 86.905C53.003 86.9586 53.2445 87.0123 53.4324 87.1465C53.4861 87.2002 53.5129 87.2539 53.4861 87.3344C53.4324 89.6696 53.4056 92.0316 53.3519 94.501C52.9224 94.1789 52.6003 93.9373 52.2514 93.6958C51.983 93.6152 51.7683 93.481 51.5535 93.32C51.4998 93.2663 51.4193 93.2126 51.3656 93.1858C50.0236 92.139 50.5336 92.1927 49.0842 93.0516C48.9499 93.1589 48.7889 93.1858 48.6279 93.2395C48.1447 93.3468 47.7958 93.7226 47.2858 93.9373C47.1248 93.6689 47.259 93.4005 47.1784 93.1321C47.1247 92.9979 47.1248 92.8637 47.2053 92.7563Z" fill="#FD4D0A"/>
<path d="M67.0417 97.1853C66.6122 97.1316 66.1291 97.1048 66.2096 96.4338C66.3438 96.2727 66.2633 96.0848 66.2096 95.9238C65.7801 94.9575 65.2433 94.0449 64.4112 93.347C63.3376 92.4613 62.1297 92.1124 60.734 92.1929C58.6136 92.3002 57.0836 93.3202 56.0368 95.1186C55.9026 95.3333 55.7684 95.5749 55.8758 95.8433C56.1442 96.058 56.3052 96.3264 56.1442 96.6753C55.9831 97.0243 55.7147 97.2122 55.2853 97.1853C54.8827 97.1585 54.5069 97.1853 54.1043 97.1853C53.8895 97.1853 53.7016 97.1853 53.6748 97.4537C53.809 98.0442 54.2385 98.259 54.7753 98.259C58.8551 98.259 62.935 98.259 67.0148 98.259C67.6322 98.259 68.0348 97.9637 68.1422 97.3195C67.7932 97.0511 67.4174 97.239 67.0417 97.1853Z" fill="#33479D"/>
<path d="M87.1997 94.9568C83.093 94.5542 78.9595 94.1247 74.826 94.4468C72.5445 94.6079 70.263 94.9031 68.0352 95.5205C68.1962 95.6815 68.4109 95.6278 68.5988 95.6278C76.5438 95.6278 84.4887 95.6278 92.4337 95.6278C92.6753 95.6278 92.9169 95.7084 93.1316 95.5205C91.1453 95.3326 89.1591 95.1715 87.1997 94.9568Z" fill="#33479D"/>
<path d="M54.6672 95.5202C54.2378 95.386 53.8351 95.2518 53.4057 95.1444C50.2384 94.4197 47.0175 94.2586 43.7966 94.3392C37.5158 94.5002 31.2618 95.1712 25.0078 95.5202C25.1957 95.7081 25.4373 95.6275 25.6252 95.6275C35.1269 95.6275 44.6018 95.6275 54.1036 95.6275C54.2914 95.6275 54.5062 95.6812 54.6672 95.5202Z" fill="#33479D"/>
<path d="M47.2324 86.2619C47.474 85.6983 47.984 85.7788 48.4403 85.752C50.1849 85.8593 51.9296 86.1009 53.5938 86.6377C53.7548 86.8793 53.7548 87.0672 53.4864 87.2282C52.0638 86.8793 50.6412 86.6109 49.1918 86.4498C48.6818 86.3961 48.1719 86.3961 47.635 86.423C47.4472 86.3961 47.3129 86.4498 47.2324 86.2619Z" fill="#CC3B30"/>
<path d="M94.607 88.7859C92.4328 88.3296 90.2855 87.927 88.1114 87.5244C85.6152 87.0413 83.119 86.746 80.5959 86.6387C77.0529 86.4508 73.6172 87.0681 70.2621 88.3028C69.2421 88.6786 68.2222 89.108 67.3096 89.6985C68.3027 89.3764 69.2421 88.9738 70.2352 88.6517C72.8388 87.766 75.4961 87.2023 78.2339 87.0949C81.1327 86.9876 83.951 87.3365 86.7962 87.7928C90.6345 88.4102 94.4459 89.1617 98.2574 89.8596C98.9821 89.9938 99.7068 90.2354 100.458 90.1548C98.4989 89.6985 96.5664 89.2154 94.607 88.7859Z" fill="#95806D"/>
<path d="M67.2832 91.8988C73.9935 89.0805 80.9185 89.0536 87.9777 90.1541C80.8916 88.7047 73.9398 88.49 67.2832 91.8988Z" fill="#95806D"/>
<path d="M69.5908 93.2142C74.959 91.5232 80.4346 91.7379 85.9102 92.4627C80.4078 91.4427 74.959 91.0669 69.5908 93.2142Z" fill="#95806D"/>
<path d="M47.8497 85.6445C45.8634 85.6445 43.8504 85.6445 41.8641 85.8593C39.9316 86.0472 38.0258 86.3424 36.147 86.6913C33.8655 87.0939 31.6108 87.7113 29.3293 88.2213C28.2557 88.4628 27.182 88.7581 26.1084 89.0534C26.2426 89.1339 26.3768 89.1607 26.4842 89.1339C30.2688 88.2213 34.0802 87.416 37.9453 86.8524C41.0052 86.4229 44.0651 86.235 47.125 86.3156C47.1518 86.3156 47.2055 86.2887 47.2323 86.2887C47.6081 86.0203 48.0644 86.0203 48.4402 85.7787C48.2523 85.6177 48.0376 85.6714 47.8497 85.6445Z" fill="#95806D"/>
<path d="M46.6953 90.5035C44.387 90.3424 42.1055 90.4498 39.824 90.6109C37.8915 90.7451 35.9857 90.9866 34.08 91.2819C32.8185 91.4966 31.557 91.6308 30.3223 91.9798C35.9321 91.255 41.5418 90.4767 47.2053 90.9598C47.2053 90.3425 47.0174 90.5303 46.6953 90.5035Z" fill="#95806D"/>
<path d="M32.6035 93.6692C37.4618 93.1324 42.32 92.8908 47.2051 93.1324V92.7566C42.32 92.6492 37.4349 92.7566 32.6035 93.6692Z" fill="#95806D"/>
<path d="M47.1249 88.8909C47.1249 88.7567 47.1249 88.6494 47.0981 88.5151C46.8834 88.4078 46.6418 88.4346 46.4002 88.4346C44.0114 88.4346 41.6225 88.6494 39.2605 88.9178C37.8647 89.0788 36.4958 89.3204 35.127 89.5083C39.0994 89.1056 43.0719 88.5688 47.1249 88.8909Z" fill="#95806D"/>
<path d="M53.5937 86.6367C53.6205 86.8514 53.5937 87.0393 53.4863 87.2272C53.4863 87.2809 53.5132 87.3077 53.5132 87.3614C55.6605 87.8714 57.4588 89.0524 59.0961 90.5018C57.7004 88.5156 55.7947 87.3614 53.5937 86.6367Z" fill="#95806D"/>
<path d="M51.3399 93.1584C50.5615 92.9705 49.8099 92.7558 49.0047 92.9705C48.8436 92.9705 48.7094 93.0779 48.6289 93.2121C49.8368 93.3731 51.0446 93.5341 52.2525 93.6952C52.0646 93.5341 51.8767 93.3731 51.6888 93.2389C51.5546 93.2926 51.4741 93.1852 51.3399 93.1584Z" fill="#95806D"/>
<path d="M91.2797 65.4316C90.045 65.8074 88.1661 66.3711 85.9114 67.1763C78.3154 69.8873 72.8935 71.9004 68.3573 76.5707C67.2569 77.698 65.7001 79.5232 64.2238 82.1536C64.0628 77.2954 63.4186 73.3498 62.8549 70.5315C62.3449 68.1158 61.9692 66.2906 61.0834 63.8749C59.8219 60.4929 58.0504 57.3525 55.9299 54.4268C54.8026 52.87 53.6216 51.3401 52.4406 49.8101C52.1722 49.4612 51.9038 49.3001 51.4475 49.5954C49.4612 50.8569 47.475 52.0916 45.4887 53.3532C43.9588 54.3194 42.4289 55.2589 40.8721 56.1983C41.9189 57.1646 42.9657 58.1309 43.9856 59.124C45.4351 60.5466 46.8845 61.996 48.2802 63.4991C49.327 64.6533 50.4007 65.7806 51.4206 66.9616C53.6216 69.4846 55.742 72.1151 57.6746 74.8797C59.0703 76.8928 60.4392 78.9059 61.4592 81.1337C62.2644 82.8515 62.7744 84.6499 62.9623 86.5556C62.9891 86.6898 62.9086 86.9582 63.1233 86.985C63.1233 88.2466 63.1233 89.4813 63.1233 90.8502C64.2507 89.3202 65.2975 87.8708 66.3443 86.4214C66.6127 86.4482 66.6932 86.1798 66.8274 85.9919C68.7063 83.5225 70.7194 81.1605 72.813 78.879C75.2824 76.1949 77.9665 73.7792 81.0264 71.7393C81.4826 71.3904 81.9926 71.1756 82.4489 70.8535C85.5893 68.8136 88.8908 67.0958 92.2996 65.5659C92.3533 65.539 92.5143 65.4585 92.7291 65.3243C93.5075 64.9217 94.2053 64.6264 94.7153 64.4117C93.9369 64.5996 92.7559 64.9753 91.2797 65.4316Z" fill="#F7F7E0"/>
<path d="M60.1442 85.4037C59.9832 85.0548 59.7953 84.7327 59.5537 84.4374C59.4732 84.3569 59.3658 84.2764 59.2853 84.1959C59.2585 84.1422 59.2316 84.0616 59.2048 84.008C57.6211 81.4044 55.7423 79.0424 53.6755 76.8146C52.2798 75.3114 50.8304 73.8889 49.2467 72.5737C47.0189 70.7216 44.6837 68.977 42.3217 67.3396C41.6775 66.9102 41.0334 66.4539 40.3892 66.0244C40.3892 66.0781 40.3892 66.1049 40.3623 66.1586C39.906 65.6755 39.396 65.2729 38.6982 65.1387C38.6445 65.2192 38.5908 65.2997 38.5103 65.3534C37.5977 65.9707 36.7119 66.6418 35.8262 67.286C33.8399 68.7622 32.0147 70.4532 30.2164 72.1174C28.3912 73.8083 26.7002 75.6335 25.0092 77.4319C24.9019 77.5393 24.7676 77.6466 24.7945 77.8345C24.9287 78.0224 25.1166 78.0761 25.3313 78.0761C25.9218 78.0492 26.4855 78.1834 27.0491 78.2371C29.3575 78.3982 31.6658 78.6129 33.9741 78.8276C36.5509 79.0692 39.1276 79.3376 41.7044 79.6597C45.1669 80.0892 48.5757 80.6797 51.9308 81.6191C54.266 82.2633 56.5207 83.0685 58.4264 84.5716C58.8827 84.9206 59.2853 85.35 59.6879 85.7526C59.8221 85.8868 60.01 86.1016 60.1979 85.9942C60.4126 85.8332 60.2247 85.5916 60.1442 85.4037Z" fill="#F7F7E0"/>
<path d="M61.8606 91.1462C61.8069 90.6899 61.7532 90.2605 61.5385 89.8578C61.458 89.7505 61.4043 89.5894 61.3238 89.4552C60.8943 87.4421 59.7133 85.8854 58.1565 84.5701C56.7876 83.4428 55.1503 82.7718 53.4862 82.2081C50.0505 81.0271 46.5343 80.3829 42.9376 79.8729C41.0587 79.6045 39.1799 79.3898 37.301 79.2288C35.3684 79.0677 33.409 78.853 31.4765 78.6651C30.7249 78.6383 29.9734 78.4504 29.195 78.5309C29.195 78.5041 29.1681 78.4772 29.1681 78.4504C28.6581 78.2625 28.1213 78.2625 27.6113 78.2088C27.3429 78.182 27.0745 78.0746 26.8329 78.2893C26.8329 78.4235 26.7793 78.5041 26.6987 78.6114C25.0346 80.3024 23.4778 82.1008 21.8942 83.8991C20.4448 85.5364 18.9685 87.1469 17.5996 88.8379C19.8811 88.5963 22.1358 88.1668 24.3636 87.7105C28.2824 86.9322 32.1475 86.0732 36.0663 85.268C38.7504 84.7312 41.4345 84.3286 44.1723 84.1675C46.5075 84.0333 48.8426 84.1407 51.151 84.5165C53.4593 84.8922 55.6603 85.5901 57.566 87.0127C59.1496 88.1937 60.4648 89.6431 61.1896 91.522C61.2969 91.7904 61.5116 91.7367 61.6995 91.683C61.8606 91.5757 61.8874 91.3609 61.8606 91.1462Z" fill="#F7F7E0"/>
<path d="M62.8538 88.6494C62.8001 88.4615 62.7464 88.3005 62.7196 88.1394C62.7464 85.8579 62.2633 83.657 61.3775 81.5365C60.0355 78.3961 58.0224 75.712 56.0093 73.001C54.372 70.8001 52.6542 68.6259 50.829 66.5592C49.2453 64.734 47.6349 62.9356 45.8902 61.2446C45.2729 60.6005 44.6824 59.9563 44.0113 59.3926C44.0113 59.3658 44.0382 59.3658 44.0382 59.3389C43.5819 58.5874 42.9108 58.1042 42.213 57.6211C42.213 57.6211 42.1861 57.6479 42.1593 57.6479C42.0788 57.7821 41.9714 57.8895 41.8372 57.97C39.4483 59.2584 37.2742 60.842 35.0732 62.4256C35.2343 62.6941 35.5295 62.8283 35.7711 62.9893C39.9046 65.6197 44.0113 68.3038 47.9033 71.2832C50.4532 73.2426 52.7615 75.4436 54.882 77.8593C56.9756 80.275 58.8813 82.8517 60.4112 85.6969C61.3507 87.4147 62.1559 89.2131 62.2364 91.2261C62.2364 91.4409 62.2096 91.7093 62.5585 91.7093C62.7733 91.5751 62.7733 91.3603 62.8001 91.1456C62.9611 90.3135 62.9343 89.4815 62.8538 88.6494Z" fill="#F7F7E0"/>
<path d="M104.484 88.3008C102.632 85.5899 100.78 82.9058 99.0086 80.1411C98.4717 79.3091 97.8007 78.8796 96.8613 78.6649C94.4993 78.0744 92.1104 77.5912 89.6947 77.2155C88.299 77.0007 86.9032 76.7323 85.5075 76.6786C83.5212 76.5981 81.535 76.5444 79.5488 76.8665C77.4283 77.2155 75.3884 77.806 73.5095 78.7991C73.3485 78.8796 72.4896 79.497 72.4627 79.5238C72.3285 79.658 72.1675 79.7922 72.0333 79.9264C70.9328 81.2148 69.8323 82.5032 68.7586 83.8184C67.4434 85.4557 66.1551 87.1198 65.0277 88.8645C64.2493 89.8039 63.6052 90.7971 63.0146 91.8707C63.0952 91.9512 63.1757 91.9781 63.2562 91.9244C63.4173 91.6828 63.5783 91.4144 63.7662 91.1997C65.2425 89.5892 66.9871 88.3277 68.9734 87.3882C71.8185 86.073 74.7979 85.4825 77.9115 85.2678C78.7435 85.1873 79.6024 85.1873 80.4345 85.2678C81.696 85.2678 82.9307 85.402 84.1923 85.4825C86.7153 85.6436 89.1847 86.2341 91.6541 86.6367C92.8351 86.8246 94.0161 87.2272 95.224 87.3077C95.7339 87.5225 96.2708 87.5224 96.7808 87.6298C99.438 88.1398 102.122 88.5693 104.833 88.8645C104.753 88.6498 104.618 88.4887 104.484 88.3008Z" fill="#F6F7E0"/>
<path d="M51.6875 93.2402C50.9897 93.3744 50.3455 93.0523 49.6745 93.0523C49.4597 93.0523 49.245 92.9986 49.0303 92.9718C49.3255 92.6497 49.755 92.5155 50.1039 92.2471C50.3186 92.086 50.4797 92.2471 50.6139 92.3813C50.9628 92.6497 51.3386 92.945 51.6875 93.2402Z" fill="#CDB098"/>
<path d="M35.1004 62.4551C44.79 67.7965 63.5251 82.1296 61.9683 91.7924C61.2973 91.014 61.4583 88.7593 60.4115 87.4978C54.9628 78.2376 30.8326 79.6871 24.6592 78.0766C36.6303 78.4524 55.6606 80.1165 60.1431 85.941C53.6744 73.8894 43.2332 69.0043 35.1004 62.4551Z" fill="#AD9680"/>
<path d="M66.3174 86.3694C70.5046 81.028 75.0676 75.3914 80.9726 71.7141C69.4041 79.6859 61.2981 96.5422 62.6402 90.7713C63.8748 77.5118 47.7165 63.7692 41.7846 57.3273C41.382 57.1126 40.201 55.6363 41.4357 56.5489C52.1721 66.9364 64.2506 79.5249 63.2038 89.9124C62.828 91.9255 65.2169 86.8257 66.3174 86.3694Z" fill="#92806D"/>
<path d="M89.293 24.5024C89.4541 24.0192 89.7225 23.6166 90.2056 23.3482C93.4534 21.523 96.728 19.6978 99.9758 17.8458C100.325 17.6579 100.486 17.6847 100.647 18.0068C100.942 18.2216 101.13 18.5168 101.318 18.8389C103.868 23.4019 106.444 27.938 109.021 32.4742C109.209 32.7694 109.424 33.0915 109.37 33.4673C109.263 33.7894 108.968 33.8968 108.726 34.0578C105.773 35.7488 102.821 37.3861 99.8416 39.0771C99.1706 39.4529 98.5264 39.8286 98.419 40.7144C98.419 40.7949 98.3385 40.8486 98.258 40.9023C97.8822 40.8486 97.8017 40.4997 97.6406 40.2313C95.9228 37.2519 94.2586 34.2457 92.5677 31.2663C91.6282 29.629 90.6888 27.9649 89.7762 26.3007C89.5883 25.9518 89.3736 25.6029 89.293 25.2271C89.1588 24.9855 89.1588 24.744 89.293 24.5024Z" fill="#F6F7E0"/>
<path d="M86.6901 25.3869C86.9585 25.1722 87.2537 25.0112 87.6027 24.877C87.7369 24.9306 87.8174 25.038 87.8711 25.1722C89.5352 28.2321 91.2799 31.2383 92.9977 34.2713C94.0714 36.1771 95.1719 38.0559 96.2187 39.9616C96.3797 40.2569 96.5139 40.5253 96.3797 40.8742C96.2455 41.1158 96.0308 41.25 95.7892 41.3574C92.8635 43.0215 89.9378 44.6588 86.9853 46.2962C86.6901 46.4572 86.3948 46.7256 85.9922 46.5377C85.5359 46.1083 85.2943 45.5178 84.9991 44.9809C82.5565 40.6595 80.114 36.3381 77.6983 32.0167C77.5373 31.7214 77.3494 31.4262 77.3494 31.0772C77.2957 30.8894 77.081 30.7283 77.403 30.5404C80.0066 29.091 82.6102 27.6416 85.2138 26.1653C85.4017 26.1922 85.5091 26.3532 85.5896 26.5143C86.1532 27.5074 86.7437 28.5005 87.3074 29.5205C87.4148 29.7084 87.5221 29.9231 87.4685 30.1378C87.3611 30.4331 87.0927 30.5404 86.8511 30.6746C85.0528 31.6946 83.2544 32.6877 81.4829 33.7345C83.2276 32.7682 84.9722 31.802 86.7169 30.8088C87.0122 30.6478 87.2806 30.4062 87.6564 30.4331C88.0053 30.6209 88.1395 30.9162 88.1395 31.292C87.7906 31.8288 87.2 32.0167 86.6901 32.3119C85.1601 33.144 83.6839 34.0298 82.1539 34.8887C83.7376 34.0298 85.3212 33.144 86.9048 32.2583C87.3611 32.0167 87.7637 31.6946 88.3005 31.5872C88.6495 31.7751 88.8105 32.0704 88.7837 32.4461C88.6226 32.8219 88.2737 32.9561 87.9784 33.1172C86.3411 34.0566 84.7038 34.9692 83.0665 35.8818C82.986 35.9086 82.9323 35.9623 82.8518 36.0697C84.5965 35.1034 86.2875 34.1103 88.0053 33.1709C88.3274 33.0098 88.5958 32.7414 88.9984 32.7951C89.3205 33.0098 89.4815 33.2782 89.4547 33.654C89.2131 34.0298 88.8105 34.1908 88.4616 34.3787C86.9316 35.2108 85.4554 36.0965 83.9254 36.9286C83.7912 37.0091 83.657 37.0628 83.4691 37.2507C85.3212 36.2307 87.039 35.2108 88.8105 34.2445C89.0789 34.1103 89.3205 33.8956 89.6426 33.9224C89.9915 34.1103 90.1257 34.4055 90.0989 34.7813C89.911 35.1571 89.5352 35.2913 89.2131 35.4792C87.5221 36.4455 85.8043 37.3849 84.1133 38.378C85.9385 37.3849 87.7369 36.3381 89.5352 35.345C89.75 35.2108 89.9647 35.0497 90.2599 35.0766C90.582 35.2645 90.7699 35.5329 90.7431 35.9355C90.6357 36.2039 90.421 36.3113 90.1794 36.4455C88.3542 37.4923 86.529 38.4854 84.7307 39.559C86.3948 38.6733 88.0321 37.7338 89.6694 36.8212C90.072 36.6065 90.421 36.2844 90.9041 36.2844C91.1725 36.4991 91.5483 36.6334 91.7093 36.9823C91.6288 37.197 91.4141 37.3044 91.2262 37.4117C89.3205 38.4854 87.3879 39.559 85.5091 40.6595C87.8174 39.398 90.0989 38.0828 92.4072 36.8212C92.5951 36.7676 92.7562 36.7676 92.944 36.7944C92.1656 35.506 91.4409 34.1908 90.7162 32.9024C89.4547 30.6746 88.1932 28.4468 86.9585 26.2459C86.7974 25.9506 86.6095 25.709 86.6901 25.3869Z" fill="#F6F7E0"/>
<path d="M77.3487 31.1048C79.2275 34.4063 81.1064 37.7345 82.9853 41.036C84.0053 42.8344 85.0252 44.6596 86.0452 46.4579C86.3136 46.8605 86.6357 46.6726 86.9309 46.5116C87.9509 45.9748 88.944 45.3843 89.964 44.8206C91.8429 43.7738 93.7217 42.7002 95.6006 41.6265C96.1911 41.2776 96.8085 41.1434 97.5063 41.3313C98.0968 41.4923 98.7947 41.0628 98.9558 40.4723C99.1168 39.855 99.4657 39.4524 100.003 39.1571C102.875 37.5198 105.747 35.9362 108.619 34.272C108.941 34.0842 109.343 33.9768 109.29 33.4668C106.981 29.3333 104.646 25.2266 102.338 21.0931C101.774 20.0731 101.21 19.0263 100.647 18.0063C101.157 17.6306 101.452 17.7648 101.747 18.3016C104.539 23.3209 107.357 28.3133 110.175 33.3058C110.551 33.95 110.524 34.0305 109.853 34.4063C106.901 36.0704 103.948 37.7346 100.969 39.3987C100.513 39.6403 100.271 39.8818 100.378 40.4455C100.486 40.9823 100.217 41.4655 99.7073 41.7607C99.1973 42.056 98.6873 42.3781 98.1505 42.6465C97.6674 42.888 96.889 42.7807 96.5401 42.3512C96.3253 42.056 96.1643 42.1096 95.8959 42.2707C94.0975 43.2907 92.326 44.3106 90.5277 45.3037C89.2124 46.0285 87.8972 46.7532 86.6089 47.5047C86.072 47.8268 85.8305 47.7194 85.5352 47.1826C84.4616 45.2501 83.3611 43.3175 82.2606 41.3849C80.5428 38.3519 78.8518 35.3188 77.1071 32.3126C76.785 31.7758 76.7582 31.4 77.3487 31.1048Z" fill="#656FCB"/>
<path d="M96.2712 40.8468C96.3249 40.6053 96.2444 40.3905 96.1102 40.1758C94.7145 37.6527 93.2382 35.1565 91.8693 32.6335C90.6614 30.4056 89.3462 28.2315 88.0847 26.0305C87.87 25.6548 87.7089 25.279 87.6016 24.8764C87.9773 24.608 88.38 24.7153 88.7557 24.7959C89.0778 24.6617 89.1852 24.9569 89.3731 25.0911C90.1246 26.5674 90.9567 27.9899 91.7619 29.4394C92.6477 30.9962 93.5334 32.5529 94.3924 34.1097C95.5465 36.1765 96.7275 38.2164 97.8817 40.2832C97.9891 40.4979 98.1233 40.6858 98.2575 40.9005C98.338 41.1152 98.1501 41.0884 98.0696 41.0347C97.5328 40.7663 96.9691 40.7663 96.4054 40.9005C96.3786 40.9274 96.2981 40.8737 96.2712 40.8468Z" fill="#E0E3CD"/>
<path d="M89.3732 25.0891C89.1048 25.1427 88.9974 24.8475 88.7559 24.7938C88.8632 24.5791 89.1048 24.6059 89.2658 24.5254C89.3195 24.7133 89.3464 24.9012 89.3732 25.0891Z" fill="#656FCB"/>
<path d="M96.2723 40.8461C96.9434 40.5241 97.5876 40.4704 98.2049 40.9535C98.2049 40.9535 98.2318 40.9535 98.2586 40.9535C98.2586 40.9535 98.2586 40.9267 98.2854 40.8998C98.2317 40.0678 98.6344 39.5309 99.3591 39.1283C102.553 37.3568 105.694 35.5585 108.861 33.7601C109.022 33.6796 109.156 33.5454 109.29 33.4648C109.666 33.8675 109.398 34.0553 109.049 34.2701C106.016 35.9611 102.983 37.6789 99.9496 39.3967C99.4664 39.6651 99.198 40.0409 99.1175 40.5777C99.0101 41.1951 98.017 41.7587 97.4534 41.544C96.9434 41.3293 96.4602 41.383 95.9503 41.6514C92.9441 43.3424 89.911 45.0334 86.9317 46.7512C86.4485 47.0464 86.2069 47.0196 86.0459 46.4828C86.2338 46.6438 86.3948 46.4828 86.529 46.4023C89.7231 44.6039 92.9172 42.8055 96.1113 41.0072C96.165 40.9267 96.2187 40.873 96.2723 40.8461Z" fill="#E0E3CD"/>
<path d="M85.8027 28.0442C85.9369 28.2589 86.1516 28.4468 85.749 28.6884C83.9238 29.7083 82.0717 30.7283 80.2466 31.7751C80.005 31.9093 79.8708 31.9093 79.7097 31.6677C79.5487 31.3993 79.6829 31.2651 79.8976 31.1309C81.696 30.111 83.5212 29.091 85.3195 28.071C85.4537 27.9637 85.6148 27.8831 85.8027 28.0442Z" fill="#E0E3CD"/>
<path d="M94.7144 38.3778C94.9023 38.6731 94.6607 38.7536 94.4728 38.861C93.3992 39.4783 92.3255 40.0957 91.2519 40.6862C89.7756 41.5182 88.2994 42.3503 86.8231 43.1824C86.6889 43.2629 86.501 43.5313 86.34 43.2361C86.1789 42.9408 86.501 42.914 86.6352 42.8334C89.1583 41.4109 91.6814 39.9883 94.2044 38.5657C94.3118 38.4315 94.4997 38.2973 94.7144 38.3778Z" fill="#E0E3CD"/>
<path d="M85.6687 41.8116C86.3398 41.4358 86.9571 41.06 87.5744 40.7111C89.5875 39.5838 91.6006 38.4564 93.6405 37.3291C93.7747 37.2486 93.9358 37.0339 94.0968 37.2754C94.2579 37.517 94.0163 37.5975 93.8821 37.678C91.6274 38.9664 89.3728 40.228 87.1182 41.5163C86.7424 41.7311 86.3934 41.9189 86.0177 42.1337C85.9103 42.1874 85.8029 42.2679 85.6956 42.1337C85.5882 41.9995 85.5882 41.8921 85.6687 41.8116Z" fill="#E0E3CD"/>
<path d="M95.3861 39.5315C95.574 39.8536 95.2787 39.9073 95.1177 40.0146C94.0977 40.5783 93.1046 41.142 92.0846 41.7325C90.5815 42.5914 89.0516 43.4235 87.5217 44.2824C87.3606 44.3629 87.1459 44.6045 87.0117 44.3629C86.8506 44.0945 87.1727 44.014 87.3338 43.9066C89.8568 42.484 92.3799 41.0615 94.903 39.6389C95.064 39.5852 95.1982 39.3705 95.3861 39.5315Z" fill="#E0E3CD"/>
<path d="M91.7076 36.8756C91.9492 36.8219 92.2176 36.8487 92.4592 36.9293C90.1509 38.2445 87.8425 39.5597 85.5342 40.8481C85.4 40.9286 85.1852 41.1165 85.051 40.9017C84.9168 40.6602 85.1852 40.5797 85.3463 40.4723C87.4667 39.2913 89.5872 38.0834 91.7076 36.8756Z" fill="#E0E3CD"/>
<path d="M90.6609 35.9082C90.7415 36.0424 90.822 36.1766 90.9025 36.3108C88.9968 37.3576 87.0911 38.4313 85.2122 39.4781C85.0512 39.5586 84.8901 39.6391 84.7291 39.7196C84.5949 39.8002 84.4606 39.9612 84.3264 39.7465C84.1922 39.5317 84.3801 39.4781 84.5143 39.3975C85.3196 38.9412 86.1516 38.4849 86.9569 38.0018C88.2184 37.3308 89.4263 36.6329 90.6609 35.9082Z" fill="#E0E3CD"/>
<path d="M87.4402 30.1641C87.5207 30.2714 87.5744 30.4056 87.6549 30.513C85.615 31.6672 83.6019 32.8213 81.562 33.9755C81.4009 34.056 81.2667 34.2439 81.1057 34.0023C80.9715 33.7608 81.1862 33.7071 81.3472 33.5997C83.3603 32.4724 85.4003 31.3182 87.4402 30.1641Z" fill="#E0E3CD"/>
<path d="M89.3736 33.6523C89.4541 33.7597 89.5078 33.8939 89.5883 34.0013C87.5753 35.1286 85.5622 36.2828 83.5491 37.4101C83.3881 37.4906 83.2002 37.6517 83.0928 37.4369C82.9586 37.1954 83.2002 37.1417 83.3612 37.0612C85.3475 35.907 87.3605 34.7797 89.3736 33.6523Z" fill="#E0E3CD"/>
<path d="M88.0574 31.3184C88.1111 31.4257 88.1916 31.5599 88.2453 31.6673C86.6348 32.6067 84.9975 33.5462 83.3871 34.4588C82.9844 34.6735 82.5818 34.9151 82.1792 35.1298C82.045 35.2103 81.884 35.425 81.7229 35.1566C81.5887 34.9151 81.8303 34.8345 81.9645 34.7809C83.1992 34.083 84.4339 33.3851 85.6686 32.6873C86.4738 32.2041 87.279 31.7478 88.0574 31.3184Z" fill="#E0E3CD"/>
<path d="M88.7015 32.4453C88.782 32.5795 88.8626 32.7137 88.9431 32.8479C86.9568 33.9753 84.9438 35.0757 82.9575 36.2031C82.7965 36.2836 82.5817 36.5252 82.4475 36.2836C82.3133 36.042 82.5817 35.9615 82.7428 35.8541C84.6485 34.7805 86.5542 33.68 88.4599 32.6064C88.5405 32.5527 88.621 32.499 88.7015 32.4453Z" fill="#E0E3CD"/>
<path d="M90.0178 34.7812C90.0983 34.8886 90.152 35.0228 90.2325 35.1302C88.1926 36.2844 86.1526 37.4654 84.1127 38.6195C83.9785 38.7001 83.8443 38.8343 83.7101 38.6195C83.549 38.3243 83.8711 38.2706 84.0054 38.1901C85.6963 37.2238 87.4142 36.2575 89.1052 35.2912C89.4004 35.1302 89.7225 34.9691 90.0178 34.7812Z" fill="#E0E3CD"/>
<path d="M80.462 32.6072C80.6767 32.473 80.8915 32.3388 81.133 32.2046C82.7703 31.292 84.4076 30.3525 86.0449 29.4668C86.1792 29.3862 86.367 29.091 86.5281 29.3862C86.6354 29.601 86.3939 29.7352 86.2328 29.8157C84.4345 30.8088 82.663 31.8288 80.8646 32.8219C80.7572 32.8756 80.623 33.0903 80.462 32.9024C80.3546 32.7951 80.3009 32.6877 80.462 32.6072Z" fill="#E0E3CD"/>
<path d="M86.6887 25.3867C88.8628 29.225 91.0101 33.0364 93.1842 36.8747C93.05 36.9552 92.5937 37.1431 92.0301 37.0358C91.4127 36.9284 91.0638 36.5258 90.9564 36.4184C90.2854 35.3448 89.5875 34.2443 88.9165 33.0901C87.5207 30.7281 86.3129 28.4198 85.2393 26.192C85.6956 25.8699 86.1787 25.6014 86.6887 25.3867Z" fill="#FD4D0A"/>
<path d="M121.502 51.2615C119.193 49.3826 116.912 47.5038 114.63 45.6249C113.476 44.6318 112.322 43.6655 111.114 42.7797C110.739 42.5918 110.631 42.9676 110.47 43.1555C108.886 45.1149 107.33 47.0743 105.773 49.0605C103.518 51.9057 101.317 54.7777 99.0089 57.596C98.7942 57.8644 98.5258 58.1328 98.5526 58.5354C98.5795 58.6428 98.6332 58.777 98.7137 58.8307C99.68 59.6628 100.646 60.468 101.666 61.2464C101.8 61.3538 101.935 61.4074 102.096 61.3538C102.176 61.6759 102.418 61.8906 102.659 62.1053C104.86 63.9037 107.088 65.6752 109.289 67.4735C109.477 67.6077 109.638 67.7956 109.906 67.7419C113.798 62.5616 117.664 57.3813 121.555 52.201C121.904 51.7715 121.851 51.5299 121.502 51.2615ZM113.53 59.6628C112.859 60.4949 112.268 61.3806 111.624 62.2395C111.087 62.9911 111.007 63.0179 110.282 62.4542C108.806 61.2732 107.357 60.0922 105.907 58.9112C105.558 58.6428 105.236 58.3207 104.807 58.1865C104.807 57.9449 104.565 57.8107 104.404 57.6765C103.921 57.2202 103.384 56.8445 102.874 56.415C102.471 56.0929 102.418 55.7977 102.767 55.395C103.357 54.724 103.84 54.0261 104.404 53.3283C105.504 51.9862 105.504 52.0131 106.847 53.1135C107.195 53.382 107.464 53.8114 107.974 53.7846C108.001 54.1872 108.35 54.3751 108.618 54.5898C110.202 55.8782 111.758 57.1934 113.369 58.4549C113.798 58.8575 113.906 59.1796 113.53 59.6628Z" fill="#656FCB"/>
<path d="M110.363 42.1628C110.256 42.0554 110.175 41.948 110.068 41.8675C108.78 40.7939 108.162 40.8476 107.142 42.1896C105.72 43.9611 104.324 45.7595 102.928 47.5578C100.486 50.6714 98.0431 53.785 95.6006 56.8985C95.6006 57.0327 95.6811 57.1401 95.7885 57.1401C96.4863 57.1401 97.05 57.5427 97.6674 57.7843C97.721 57.7843 97.7479 57.7843 97.8016 57.7843C98.07 58.0527 98.4189 58.2137 98.6873 58.509C100.164 56.6301 101.64 54.7512 103.116 52.8724C104.243 51.4229 105.398 49.9735 106.525 48.5241C108.055 46.5916 109.585 44.6858 111.115 42.7801C110.9 42.5117 110.658 42.3238 110.363 42.1628Z" fill="#33479D"/>
<path d="M96.6735 57.8092C96.3246 57.5139 95.9757 57.5407 95.6804 57.8628C95.6268 57.8628 95.5731 57.8897 95.4925 57.8897C94.4994 58.5607 94.4189 59.2854 95.3047 60.0638C96.0025 60.6812 96.7541 61.218 97.4519 61.8085C100.512 64.3047 103.599 66.8278 106.685 69.2972C106.981 69.5387 107.249 69.8877 107.732 69.7803C108.081 69.324 108.403 68.8945 108.752 68.4382C108.886 68.2772 109.02 68.1161 109.155 67.9551C105.021 64.5731 100.861 61.1911 96.6735 57.8092Z" fill="#F6F7E0"/>
<path d="M104.78 58.3727C104.002 57.7285 103.224 57.0575 102.445 56.4401C102.096 56.1717 102.016 55.9301 102.311 55.5544C103.197 54.4539 104.083 53.3534 104.941 52.2261C105.29 51.7698 105.559 51.7698 105.961 52.1455C106.606 52.7361 107.303 53.246 108.001 53.7829C109.934 55.3933 111.84 57.0038 113.799 58.5606C114.202 58.8827 114.175 59.0974 113.906 59.4732C113.047 60.6005 112.189 61.7547 111.383 62.9088C111.061 63.3651 110.873 63.2846 110.498 62.9893C108.645 61.4326 106.713 59.9026 104.78 58.3727Z" fill="#FD4D0A"/>
<path d="M98.7665 63.5271C97.6392 62.3997 94.0962 60.2793 94.2036 59.0446C94.4451 57.8099 95.5993 56.28 97.0219 57.1389C99.0886 58.4541 100.645 60.1451 102.685 61.7019C104.994 63.9565 108.161 65.567 109.852 67.8753C108.778 68.7342 106.309 65.5401 105.45 65.1912C102.712 62.9902 100.135 60.8698 97.3976 58.6688C96.9145 58.3199 96.4851 57.6757 95.7872 57.9173C93.6131 59.2056 96.163 60.2524 97.2098 61.2724C100.806 64.386 104.698 66.9627 107.946 70.2105C108.08 71.8478 98.6055 63.7149 98.7665 63.5271Z" fill="#656FCB"/>
<path d="M45.5957 19.3209C46.052 20.153 46.5083 20.9582 46.9646 21.7903C47.0719 21.9514 47.0988 22.1393 47.0719 22.3271C46.9377 23.1324 47.3135 23.6155 47.904 24.0987C48.7361 24.7697 49.5145 24.9039 50.4002 24.2865C51.7154 24.1792 52.977 24.6086 54.2653 24.8234C58.0768 25.5212 61.8614 26.1923 65.6728 26.8901C67.7933 27.2659 69.8869 27.6685 72.0073 28.0443C72.3026 28.098 72.5978 28.1517 72.8394 28.3127C73.1883 28.3932 73.5373 28.4738 73.8862 28.5274C74.2351 28.5811 74.5035 28.7153 74.423 29.0911C74.3425 29.44 74.0472 29.4132 73.752 29.3595C72.0073 29.0374 70.2626 28.7422 68.518 28.4201C62.9082 27.427 57.2984 26.407 51.6886 25.4139C51.2055 25.3333 50.8028 25.3065 50.3734 25.5749C48.6824 26.568 45.5688 24.3671 45.9446 22.4077C46.052 21.9245 45.9714 21.4951 45.6225 21.1193C44.8441 20.5556 44.4952 19.7504 44.3878 18.8378C41.1669 13.0938 37.946 7.34981 34.725 1.63266C34.564 1.36425 34.4029 1.04216 34.725 0.854269C35.1008 0.612699 35.3155 0.934792 35.4766 1.23004C35.6645 1.55214 35.8523 1.87423 36.0671 2.22316C36.3623 2.38421 36.5502 2.62578 36.7113 2.92103C39.2343 7.45718 41.8111 11.9665 44.3073 16.5295C44.5489 17.1737 45.0052 17.7105 45.3004 18.301C45.4346 18.6499 45.6494 18.9452 45.5957 19.3209Z" fill="#FD4D0A"/>
<path d="M44.36 18.8906C44.7626 19.6422 45.1652 20.4206 45.5678 21.1721C44.7089 22.38 43.85 23.5878 42.9374 24.8762C42.5885 24.3931 42.9106 23.722 42.508 23.561C42.1322 23.3999 41.6222 23.6147 40.9512 23.6683C42.1859 21.9774 43.2863 20.4474 44.36 18.8906Z" fill="#656FCB"/>
<path d="M39.0736 3.21433C38.9393 3.02644 38.8051 2.89223 38.5636 2.83855C37.7047 2.65066 36.8726 2.46278 36.0137 2.24805C38.7246 7.07944 41.4356 11.9377 44.1465 16.7691C45.247 16.8496 46.0254 16.2859 46.7233 15.5344C44.6833 11.1325 42.0261 7.07945 39.0736 3.21433Z" fill="#F7F7E0"/>
<path d="M72.5437 27.8828C71.9801 26.6213 71.1748 25.7624 69.6717 25.5477C68.276 25.3598 66.9339 24.8766 65.5382 24.5277C61.1631 23.4809 56.788 22.4341 52.2787 22.0852C52.0908 22.0852 51.8761 22.1657 51.6614 21.9241C53.755 21.7631 55.7412 21.9778 57.7006 22.273C62.1025 22.9709 66.424 24.0446 70.6917 25.3061C70.9064 25.3866 71.2554 25.6282 71.3896 25.2256C71.4969 24.9035 71.148 24.9303 70.9601 24.8766C65.565 23.293 60.1431 21.8436 54.5065 21.3873C54.3455 21.3873 54.1307 21.4946 54.0502 21.1726C54.3186 21.1457 54.5602 21.092 54.8018 21.092C58.5595 20.7699 62.2636 21.1457 65.9945 21.6557C67.6318 21.8973 69.2691 22.2194 70.9064 22.4878C71.0943 22.5146 71.3627 22.6757 71.4164 22.3267C71.4701 22.0583 71.2017 22.0583 71.0406 22.0046C70.9601 21.9778 70.8796 21.9778 70.7991 21.951C66.3703 21.092 61.9147 20.4478 57.4054 20.4747C56.4122 20.4747 55.4191 20.5284 54.4528 20.5552C54.6407 20.3942 54.8286 20.3405 55.0433 20.2868C58.1837 19.6695 61.3778 19.5352 64.5719 19.5889C66.5582 19.6158 68.5444 19.75 70.5575 19.8305C70.7454 19.8305 71.0406 19.9915 71.0943 19.6426C71.1748 19.2132 70.7991 19.3474 70.5843 19.3205C70.128 19.2668 69.6717 19.24 69.1886 19.2132C64.2767 18.9716 59.3648 18.8642 54.5065 19.8573C53.5939 20.0452 52.7082 20.3405 51.6345 20.6357C53.1913 19.3742 54.6944 18.3274 56.278 17.388C59.8747 15.2138 63.6593 13.3886 67.5244 11.7245C67.7392 11.6171 68.1686 11.5903 68.0076 11.2145C67.8734 10.8924 67.5781 11.1608 67.3902 11.2413C65.1893 12.1271 63.042 13.1471 60.9215 14.2207C57.2711 16.0727 53.7281 18.1127 50.534 20.931C50.8561 19.8573 51.2051 18.9447 51.4466 18.0053C52.7082 12.825 52.735 7.56412 52.4397 2.30326C52.4129 1.98117 52.3861 1.65908 52.3592 1.31014C52.3592 1.17594 52.3324 1.01489 52.1445 1.01489C51.9566 1.01489 51.8224 1.09542 51.8492 1.31014C51.8492 1.47119 51.8761 1.63224 51.8761 1.79328C52.1445 6.1147 52.1445 10.4093 51.554 14.7039C51.4735 15.187 51.3929 15.6701 51.3124 16.1533C51.2319 16.6096 51.1245 17.039 51.044 17.4953C51.2587 12.1271 50.7219 6.83941 49.863 1.57856C49.8093 1.31014 49.9704 0.773322 49.4872 0.853845C49.0578 0.907527 49.353 1.36383 49.3799 1.6054C49.5946 3.43059 49.8898 5.22894 50.0777 7.05414C50.4803 11.1071 50.8024 15.1601 50.1314 19.2132C50.0509 19.7768 49.9704 20.3673 49.6214 20.931C49.353 19.75 49.1383 18.6495 48.843 17.5758C47.3668 12.2345 45.1927 7.18834 42.8843 2.16906C42.777 1.95433 42.777 1.41751 42.3743 1.6054C41.9717 1.79328 42.3743 2.11538 42.4549 2.38379C42.5354 2.67904 42.6964 2.92061 42.8306 3.21586C44.7095 7.42991 46.5079 11.6708 47.9036 16.0996C48.2525 17.2538 48.6015 18.4079 48.6552 19.6426C48.4404 19.1058 48.1989 18.569 47.9841 18.0321C47.0178 18.1664 46.1858 18.4884 45.6758 19.401C45.8905 20.421 46.3737 21.2531 47.0715 22.0315C48.172 22.622 49.3262 23.1588 50.2119 24.0714C50.2656 24.0982 50.2925 24.1251 50.3461 24.1251C50.3461 24.313 50.534 24.3935 50.6951 24.5009C54.8286 25.2256 58.9621 25.9503 63.0957 26.675C66.3971 27.2655 69.6986 27.8292 73 28.3928C72.7585 28.2049 72.6511 28.0439 72.5437 27.8828Z" fill="#F7F7E0"/>
<path d="M44.1738 16.7972C45.0864 16.4751 45.8917 15.992 46.7506 15.5625C47.2606 16.3141 47.5826 17.1461 47.8511 18.005C47.0995 18.4613 46.2674 18.7566 45.5964 19.3471C45.1133 18.4882 44.5496 17.6829 44.1738 16.7972Z" fill="#656FCB"/>
<path d="M50.2399 23.8827C50.3473 24.0706 50.4278 24.2584 50.5352 24.4463C49.7031 25.1442 49.0052 25.1979 48.2 24.6342C46.7506 23.6411 46.5358 23.1848 46.9653 21.7891C48.2268 22.2185 49.3273 22.8895 50.2399 23.8827Z" fill="#656FCB"/>
</svg>
