<svg width="35" height="35" viewBox="0 0 35 35" fill="none" xmlns="http://www.w3.org/2000/svg">
<path d="M0 19.3473C1.13524 17.3645 2.27047 15.3808 3.40571 13.398C3.80848 12.6948 4.16832 12.5614 4.9291 12.8363C9.00244 14.3104 13.0767 15.7836 17.1482 17.264C17.3994 17.3554 17.6149 17.3554 17.8661 17.264C21.9367 15.7817 26.0109 14.3077 30.0842 12.8327C30.8231 12.5651 31.1985 12.7012 31.5866 13.3779C32.6451 15.2237 33.7037 17.0704 34.7604 18.9171C35.2152 19.7117 35.0243 20.2496 34.1731 20.5802C30.3253 22.0744 26.4776 23.5695 22.6298 25.0618C21.8161 25.3769 21.4727 25.2463 21.0407 24.4727C19.9246 22.4763 18.8086 20.4798 17.6925 18.4833C17.6432 18.3947 17.5902 18.307 17.5071 18.1646C17.4277 18.2952 17.3637 18.3911 17.3071 18.4915C16.1856 20.498 15.064 22.5046 13.9434 24.5111C13.5388 25.2354 13.1662 25.3714 12.3972 25.0728C8.5604 23.5823 4.72544 22.0863 0.884992 20.6049C0.479485 20.4487 0.160742 20.2396 0 19.8268C0 19.6669 0 19.5071 0 19.3473Z" fill="white"/>
<path d="M10.4609 7.01877C10.4673 3.14271 13.6429 -0.0109312 17.5281 2.84793e-05C21.406 0.0119014 24.5541 3.18746 24.5395 7.07357C24.5249 10.9332 21.3567 14.0813 17.4897 14.0777C13.6146 14.074 10.4546 10.9003 10.4609 7.01877ZM16.5956 7.2745C16.3746 7.03521 16.2038 6.81967 16.001 6.63884C15.5736 6.25616 14.9699 6.27899 14.5836 6.67263C14.1973 7.06535 14.179 7.67544 14.5717 8.09099C15.0092 8.55495 15.4595 9.00612 15.9243 9.44268C16.318 9.81165 16.9089 9.82901 17.2906 9.45729C18.3665 8.40882 19.4259 7.34299 20.4799 6.27169C20.7877 5.95842 20.8224 5.46981 20.6178 5.09627C20.415 4.72455 20.0159 4.49348 19.5894 4.59212C19.3401 4.64966 19.0835 4.80127 18.8962 4.98028C18.1327 5.71092 17.3966 6.46987 16.5956 7.2745Z" fill="white"/>
<path d="M31.6063 23.7188C31.6063 23.9215 31.6063 24.0914 31.6063 24.2603C31.6063 25.8212 31.6072 27.3811 31.6063 28.9419C31.6063 29.7201 31.4318 29.9758 30.7076 30.237C26.7932 31.649 22.8787 33.0582 18.9634 34.4674C18.8693 34.5012 18.7734 34.5277 18.6465 34.5679C18.6465 31.1695 18.6465 27.7967 18.6465 24.4247C18.6629 24.4156 18.6803 24.4074 18.6967 24.3982C18.9433 24.8229 19.1899 25.2476 19.4365 25.6714C19.9242 26.5107 20.6439 27.0158 21.6028 27.1738C22.1581 27.2651 22.6879 27.1628 23.2066 26.9619C25.8552 25.9317 28.5056 24.9042 31.1551 23.8768C31.2912 23.8247 31.43 23.7799 31.6063 23.7188Z" fill="white"/>
<path d="M3.63612 23.7969C4.55764 24.1531 5.45633 24.4983 6.35502 24.8472C8.125 25.5349 9.89407 26.2244 11.6631 26.9131C13.3655 27.5752 14.7437 27.0875 15.6662 25.4993C15.9383 25.0298 16.2123 24.5622 16.5393 24.0024C16.5393 27.578 16.5393 31.0494 16.5393 34.5483C16.4187 34.5118 16.3109 34.4853 16.2068 34.4478C12.2805 33.0359 8.35516 31.6221 4.42887 30.2092C3.85074 30.0009 3.6215 29.6886 3.62059 29.0886C3.61785 27.4145 3.61967 25.7395 3.62059 24.0654C3.61967 23.9868 3.62881 23.9101 3.63612 23.7969Z" fill="white"/>
<path d="M24.6016 12.7089C25.0628 11.9061 25.5231 11.1051 26.0117 10.2539C26.83 10.5526 27.7068 10.8731 28.6822 11.2293C27.2538 11.7472 25.9158 12.2321 24.6016 12.7089Z" fill="white"/>
<path d="M6.3457 11.2354C7.30011 10.8911 8.17231 10.5769 9.00433 10.2773C9.47742 11.1011 9.93864 11.9012 10.3989 12.7031C9.09201 12.23 7.76132 11.7487 6.3457 11.2354Z" fill="white"/>
</svg>
