<svg width="25" height="20" viewBox="0 0 25 20" fill="none" xmlns="http://www.w3.org/2000/svg">
<path d="M17.3454 0.000467545C15.3258 -0.0103019 13.4059 0.874726 12.105 2.41616C10.8122 0.864191 8.88696 -0.0233541 6.86457 0.000467545C3.07336 0.000467545 0 3.06713 0 6.85008C0 13.3328 11.3388 19.6626 11.7985 19.9072C11.984 20.0309 12.2259 20.0309 12.4115 19.9072C12.8712 19.6626 24.21 13.4246 24.21 6.85008C24.21 3.06713 21.1366 0.000467545 17.3454 0.000467545ZM12.105 18.6841C10.3275 17.6444 1.22582 12.1097 1.22582 6.85008C1.22582 3.74268 3.75038 1.22356 6.86463 1.22356C8.7717 1.19857 10.5564 2.1584 11.584 3.76159C11.7927 4.04868 12.1951 4.11265 12.4828 3.9044C12.5378 3.8646 12.5861 3.81643 12.626 3.76159C14.3303 1.16082 17.8248 0.431071 20.4313 2.13165C22.0269 3.17272 22.9873 4.94775 22.9841 6.85003C22.9842 12.1708 13.8824 17.675 12.105 18.6841Z" fill="black"/>
</svg>
