<svg width="34" height="28" viewBox="0 0 34 28" fill="none" xmlns="http://www.w3.org/2000/svg">
<path d="M0 7.27303C0.346635 6.4931 1.03991 6.10314 1.64652 5.62651C4.80956 3.15674 8.36256 1.51022 12.3055 0.86028C19.8015 -0.396271 26.4742 1.42356 32.367 6.23312C32.757 6.53643 33.1036 6.88306 33.277 7.35969C33.277 7.533 33.277 7.74965 33.277 7.92297C33.1036 8.39959 32.8437 8.78956 32.367 8.91954C31.8471 9.09286 31.3705 8.96287 30.9372 8.61624C29.464 7.31635 27.9041 6.27645 26.1709 5.40987C23.9178 4.32663 21.578 3.63336 19.0649 3.37338C14.7753 2.89676 10.7457 3.63336 6.88937 5.53985C5.24285 6.36311 3.76965 7.40301 2.38311 8.61624C1.51653 9.35283 0.519951 9.09286 0.0866574 8.05296L0.0433254 8.00963C-3.96757e-06 7.74965 0 7.533 0 7.27303Z" fill="#FFD25D"/>
<path d="M33.2763 25.6892C32.973 26.2958 32.4098 26.7291 31.9331 27.1624C31.5865 27.509 31.0665 27.4223 30.6766 27.0324C30.1133 26.4691 29.55 25.9491 29.0301 25.3859C28.8568 25.2125 28.7701 25.2125 28.5968 25.3859C28.0768 25.9491 27.5135 26.4691 26.9936 27.0324C26.5603 27.4657 26.0403 27.509 25.5637 27.0757C25.2604 26.7724 24.9571 26.4691 24.6538 26.1658C24.2638 25.7325 24.2638 25.1692 24.6971 24.7792C25.2604 24.216 25.8237 23.6527 26.387 23.0894C26.517 22.9594 26.5603 22.8728 26.387 22.6994C25.867 22.1795 25.3471 21.6595 24.7838 21.1396C24.2205 20.5763 24.2205 20.0563 24.7838 19.4931C25.0438 19.2331 25.2604 19.0164 25.5204 18.7565C25.997 18.2798 26.517 18.3232 26.9936 18.7998C27.5135 19.3631 28.0768 19.883 28.6401 20.4463C28.7701 20.6196 28.9001 20.5763 29.0301 20.4463C29.55 19.883 30.1133 19.3631 30.6766 18.7998C31.1965 18.3232 31.7165 18.3232 32.1931 18.7998C32.3664 18.9731 32.5397 19.1464 32.7131 19.3197C32.9297 19.5364 33.1464 19.7964 33.3197 20.0563C33.3197 20.1863 33.3197 20.3596 33.3197 20.4896C33.1897 20.7929 32.9297 21.0529 32.6697 21.2696C32.4098 21.5295 32.1065 21.8328 31.8465 22.0928C31.6298 22.3528 31.1965 22.5261 31.1965 22.8294C31.1965 23.0894 31.5865 23.306 31.8031 23.5227C32.2798 24.0426 32.9297 24.4759 33.2763 25.1259C33.2763 25.3859 33.2763 25.5158 33.2763 25.6892Z" fill="#FFD25D"/>
<path d="M16.7686 5.97266C21.1448 6.01599 25.2178 7.44585 28.7275 10.3489C29.1608 10.7389 29.4641 11.1722 29.3341 11.7355C29.2474 12.2987 28.9008 12.6887 28.3375 12.8187C27.8609 12.9487 27.3843 12.862 26.9943 12.5154C25.3478 11.1288 23.4846 10.0456 21.3615 9.43901C19.195 8.78906 16.9852 8.57242 14.7321 8.83239C12.0457 9.1357 9.61921 10.0456 7.40941 11.6055C6.97612 11.9088 6.54282 12.2554 6.10953 12.6021C5.45959 13.0787 4.63634 12.992 4.11638 12.3854C3.63976 11.7788 3.72642 10.9555 4.33303 10.4356C6.97612 8.22578 10.0092 6.79591 13.3889 6.23263C14.5154 6.05931 15.5553 6.01599 16.7686 5.97266Z" fill="#FFD25D"/>
<path d="M16.6389 11.5605C19.672 11.5605 22.4017 12.5138 24.7848 14.3336C25.4781 14.8536 25.6081 15.7202 25.1315 16.3268C24.6115 16.9767 23.7883 17.0634 23.1383 16.5434C21.2751 15.1136 19.152 14.3336 16.7689 14.3336C14.3425 14.3336 12.176 15.0269 10.2695 16.5001C9.61955 17.02 8.92628 17.0634 8.40633 16.5868C7.66973 15.9801 7.66973 14.9402 8.49298 14.3336C9.35957 13.6404 10.3128 13.0771 11.3527 12.6438C13.0426 11.9072 14.7324 11.5605 16.6389 11.5605Z" fill="#FFD25D"/>
<path d="M16.4657 17.0664C18.0689 17.0664 19.4554 17.4564 20.712 18.2363C21.5786 18.7996 21.7086 19.7528 20.972 20.4894C19.8454 21.616 18.7188 22.7426 17.5923 23.8691C17.0723 24.3891 16.2491 24.4324 15.7291 23.9124C14.5159 22.7426 13.346 21.5293 12.1328 20.3161C11.5695 19.7095 11.6995 18.7563 12.3928 18.2796C13.3893 17.6297 14.4726 17.2831 15.6425 17.1097C15.9458 17.1097 16.2924 17.0664 16.4657 17.0664Z" fill="#FFD25D"/>
</svg>
