<svg width="33" height="32" viewBox="0 0 33 32" fill="none" xmlns="http://www.w3.org/2000/svg">
<rect x="0.150482" width="32.1642" height="32" rx="16" fill="white"/>
<path d="M16.0829 6.00781C10.5646 6.00781 6.10693 10.2119 6.10693 15.3888C6.10693 18.0761 7.31664 20.4997 9.23892 22.1978L9.04007 25.7095L12.3046 24.0608C13.4812 24.506 14.7572 24.7698 16.0995 24.7698C21.6177 24.7698 26.0754 20.5656 26.0754 15.3888C26.0754 10.2119 21.6012 6.00781 16.0829 6.00781Z" fill="#1480C3"/>
<path d="M16.0675 30.1098C8.14642 30.1098 1.71674 23.6964 1.71674 15.8322C1.71674 7.96804 8.16299 1.55469 16.0675 1.55469C23.9721 1.55469 30.4183 7.96804 30.4183 15.8322C30.4183 23.6964 23.9886 30.1098 16.0675 30.1098ZM16.0675 1.93388C8.36185 1.93388 2.09787 8.16588 2.09787 15.8322C2.09787 23.4986 8.36185 29.7306 16.0675 29.7306C23.7732 29.7306 30.0372 23.4986 30.0372 15.8322C30.0372 8.16588 23.7732 1.93388 16.0675 1.93388Z" fill="#1480C3"/>
<path d="M9.00569 13.6719C8.92284 13.6719 8.83998 13.6554 8.75712 13.6389C8.50855 13.573 8.34284 13.3586 8.34284 13.1113C8.34284 12.8805 8.50855 12.6662 8.75712 12.6002C8.92284 12.5508 9.10512 12.5508 9.27083 12.5508C10.1325 12.5508 11.0108 12.5508 11.8725 12.5508C12.0548 12.5508 12.2205 12.5673 12.3862 12.6167C12.7342 12.7321 12.8668 13.0619 12.7342 13.3916C12.6348 13.6224 12.4857 13.8367 12.3365 14.0346C11.5743 14.9908 10.8285 15.9471 10.0663 16.9033C10.0497 16.9198 10.0331 16.9363 10.0165 16.9692C10.2154 16.9692 10.3977 16.9692 10.5965 16.9692C11.1434 16.9692 11.7068 16.9692 12.2537 16.9692C12.3863 16.9692 12.5188 16.9857 12.6348 17.0517C12.7508 17.1176 12.8502 17.2001 12.8834 17.3319C12.9662 17.6122 12.9 17.909 12.6514 18.0574C12.5188 18.1233 12.3863 18.1563 12.2537 18.1563C11.5245 18.1563 10.812 18.1563 10.0828 18.1563C9.7514 18.1563 9.4034 18.1563 9.07198 18.1563C8.93941 18.1563 8.80684 18.1398 8.69084 18.0903C8.32627 17.9584 8.16055 17.5463 8.32627 17.1836C8.40912 17.0022 8.54169 16.8538 8.65769 16.7054C9.23769 15.9635 9.81769 15.2381 10.3977 14.4962C10.58 14.2654 10.7623 14.0346 10.9445 13.8038C11.0108 13.7213 11.0108 13.7213 10.9114 13.6884C10.8948 13.6719 10.8617 13.6719 10.8285 13.6719C10.232 13.6719 9.65197 13.6719 9.0554 13.6719C9.0554 13.6719 9.03883 13.6554 9.00569 13.6719Z" fill="white"/>
<path d="M17.2242 16.0639C17.2242 16.575 17.2242 17.0861 17.2242 17.5972C17.2242 17.8445 17.075 18.0588 16.8431 18.1577C16.5779 18.2566 16.3128 18.2237 16.1305 18.0258C16.0973 17.9929 16.0808 17.9599 16.0476 17.9269C15.9813 17.861 15.9482 17.861 15.8653 17.9104C15.7659 17.9764 15.6665 18.0588 15.5505 18.1248C15.1859 18.3226 14.8213 18.3391 14.4236 18.2566C14.0425 18.1742 13.7111 17.9929 13.4294 17.7126C13.1808 17.4653 13.0316 17.152 12.9488 16.8223C12.8494 16.4761 12.8162 16.1299 12.8494 15.7671C12.9156 15.0417 13.2636 14.4977 13.8768 14.1185C14.1751 13.9371 14.5065 13.8052 14.8711 13.8217C15.2522 13.8382 15.6002 13.9866 15.8819 14.2174C15.9316 14.2668 15.9648 14.2668 15.9979 14.2009C16.1802 13.9701 16.4122 13.8712 16.7105 13.9206C16.9922 13.9701 17.1911 14.2174 17.2076 14.4977C17.2408 15.0252 17.2408 15.5528 17.2242 16.0639ZM15.0202 17.1026C15.3682 17.0861 15.6168 16.9542 15.7825 16.6574C15.9979 16.2617 15.9979 15.8496 15.7825 15.4539C15.6333 15.1736 15.3848 15.0252 15.0533 15.0088C14.7219 15.0088 14.4568 15.1406 14.3076 15.4374C14.1088 15.8001 14.0756 16.1958 14.2579 16.5915C14.4071 16.9212 14.6722 17.0861 15.0202 17.1026Z" fill="white"/>
<path d="M23.9032 16.0299C23.9032 16.5245 23.8037 16.9697 23.5386 17.3818C23.2072 17.8599 22.7432 18.1567 22.1797 18.2556C21.5997 18.371 21.0363 18.3051 20.5392 17.9918C19.926 17.6291 19.6112 17.0686 19.5449 16.3597C19.5117 15.9145 19.5615 15.4694 19.7437 15.0572C20.0752 14.3648 20.622 13.9526 21.3843 13.8537C21.9146 13.7877 22.4117 13.8702 22.8757 14.1339C23.4557 14.4802 23.7706 14.9913 23.87 15.6507C23.87 15.6837 23.8866 15.7167 23.8866 15.7496C23.9031 15.8651 23.9032 15.964 23.9032 16.0299ZM21.8317 15.0242C21.3843 15.0242 21.1192 15.1561 20.97 15.4529C20.738 15.8815 20.738 16.3102 21.0032 16.7224C21.3512 17.2664 22.1632 17.217 22.4614 16.6564C22.6603 16.2772 22.6603 15.8815 22.478 15.5023C22.3289 15.1891 22.0803 15.0242 21.8317 15.0242Z" fill="white"/>
<path d="M17.7881 15.1388C17.7881 14.5288 17.7881 13.9353 17.7881 13.3253C17.7881 13.1275 17.7715 12.9131 17.7881 12.7153C17.8047 12.402 17.987 12.1877 18.2687 12.1218C18.567 12.0558 18.8321 12.1547 18.9647 12.3691C19.0475 12.501 19.0807 12.6493 19.0807 12.7977C19.0807 13.8694 19.0807 14.941 19.0807 16.0126C19.0807 16.5237 19.0807 17.0348 19.0807 17.5459C19.0807 17.8262 18.915 18.09 18.6664 18.1724C18.1858 18.3538 17.8047 18.0405 17.7881 17.5789C17.7715 17.2821 17.7881 17.0018 17.7881 16.7051C17.7881 16.3589 17.7881 16.0291 17.7881 15.6829C17.7881 15.5015 17.7881 15.3202 17.7881 15.1388Z" fill="white"/>
</svg>
